G04 #@! TF.GenerationSoftware,KiCad,Pcbnew,7.0.7*
G04 #@! TF.CreationDate,2023-12-28T09:15:15+02:00*
G04 #@! TF.ProjectId,AD3 Front End Amplifier,41443320-4672-46f6-9e74-20456e642041,rev?*
G04 #@! TF.SameCoordinates,Original*
G04 #@! TF.FileFunction,Legend,Top*
G04 #@! TF.FilePolarity,Positive*
%FSLAX46Y46*%
G04 Gerber Fmt 4.6, Leading zero omitted, Abs format (unit mm)*
G04 Created by KiCad (PCBNEW 7.0.7) date 2023-12-28 09:15:15*
%MOMM*%
%LPD*%
G01*
G04 APERTURE LIST*
G04 Aperture macros list*
%AMRoundRect*
0 Rectangle with rounded corners*
0 $1 Rounding radius*
0 $2 $3 $4 $5 $6 $7 $8 $9 X,Y pos of 4 corners*
0 Add a 4 corners polygon primitive as box body*
4,1,4,$2,$3,$4,$5,$6,$7,$8,$9,$2,$3,0*
0 Add four circle primitives for the rounded corners*
1,1,$1+$1,$2,$3*
1,1,$1+$1,$4,$5*
1,1,$1+$1,$6,$7*
1,1,$1+$1,$8,$9*
0 Add four rect primitives between the rounded corners*
20,1,$1+$1,$2,$3,$4,$5,0*
20,1,$1+$1,$4,$5,$6,$7,0*
20,1,$1+$1,$6,$7,$8,$9,0*
20,1,$1+$1,$8,$9,$2,$3,0*%
G04 Aperture macros list end*
%ADD10C,0.150000*%
%ADD11C,0.400000*%
%ADD12C,0.120000*%
%ADD13C,0.100000*%
%ADD14C,0.200000*%
%ADD15RoundRect,0.155000X0.212500X0.155000X-0.212500X0.155000X-0.212500X-0.155000X0.212500X-0.155000X0*%
%ADD16R,1.600000X1.600000*%
%ADD17O,1.600000X1.600000*%
%ADD18RoundRect,0.250000X-0.450000X0.350000X-0.450000X-0.350000X0.450000X-0.350000X0.450000X0.350000X0*%
%ADD19R,0.990000X5.140000*%
%ADD20R,0.990000X3.000000*%
%ADD21R,3.590000X0.990000*%
%ADD22R,3.000000X0.990000*%
%ADD23R,2.990000X0.990000*%
%ADD24RoundRect,0.160000X-0.197500X-0.160000X0.197500X-0.160000X0.197500X0.160000X-0.197500X0.160000X0*%
%ADD25RoundRect,0.155000X-0.155000X0.212500X-0.155000X-0.212500X0.155000X-0.212500X0.155000X0.212500X0*%
%ADD26O,1.600000X2.500000*%
%ADD27O,3.500000X7.000000*%
%ADD28RoundRect,0.160000X0.197500X0.160000X-0.197500X0.160000X-0.197500X-0.160000X0.197500X-0.160000X0*%
%ADD29RoundRect,0.160000X-0.160000X0.197500X-0.160000X-0.197500X0.160000X-0.197500X0.160000X0.197500X0*%
%ADD30RoundRect,0.250000X0.337500X0.475000X-0.337500X0.475000X-0.337500X-0.475000X0.337500X-0.475000X0*%
%ADD31RoundRect,0.150000X-0.512500X-0.150000X0.512500X-0.150000X0.512500X0.150000X-0.512500X0.150000X0*%
%ADD32RoundRect,0.237500X0.250000X0.237500X-0.250000X0.237500X-0.250000X-0.237500X0.250000X-0.237500X0*%
%ADD33R,1.700000X1.700000*%
%ADD34O,1.700000X1.700000*%
%ADD35RoundRect,0.160000X0.160000X-0.197500X0.160000X0.197500X-0.160000X0.197500X-0.160000X-0.197500X0*%
%ADD36RoundRect,0.160000X0.160000X-0.222500X0.160000X0.222500X-0.160000X0.222500X-0.160000X-0.222500X0*%
%ADD37R,0.600000X1.200000*%
%ADD38O,2.500000X1.600000*%
%ADD39O,7.000000X3.500000*%
%ADD40RoundRect,0.155000X-0.212500X-0.155000X0.212500X-0.155000X0.212500X0.155000X-0.212500X0.155000X0*%
%ADD41R,0.800000X1.200000*%
%ADD42RoundRect,0.150000X0.512500X0.150000X-0.512500X0.150000X-0.512500X-0.150000X0.512500X-0.150000X0*%
%ADD43RoundRect,0.237500X-0.237500X0.250000X-0.237500X-0.250000X0.237500X-0.250000X0.237500X0.250000X0*%
G04 APERTURE END LIST*
D10*
X224818363Y-78039990D02*
X223865982Y-78039990D01*
X225008839Y-77468561D02*
X224342173Y-79468561D01*
X224342173Y-79468561D02*
X223675506Y-77468561D01*
X223008839Y-77468561D02*
X223008839Y-79468561D01*
X223008839Y-79468561D02*
X222532649Y-79468561D01*
X222532649Y-79468561D02*
X222246934Y-79373323D01*
X222246934Y-79373323D02*
X222056458Y-79182847D01*
X222056458Y-79182847D02*
X221961220Y-78992371D01*
X221961220Y-78992371D02*
X221865982Y-78611419D01*
X221865982Y-78611419D02*
X221865982Y-78325704D01*
X221865982Y-78325704D02*
X221961220Y-77944752D01*
X221961220Y-77944752D02*
X222056458Y-77754276D01*
X222056458Y-77754276D02*
X222246934Y-77563800D01*
X222246934Y-77563800D02*
X222532649Y-77468561D01*
X222532649Y-77468561D02*
X223008839Y-77468561D01*
X221199315Y-79468561D02*
X219961220Y-79468561D01*
X219961220Y-79468561D02*
X220627887Y-78706657D01*
X220627887Y-78706657D02*
X220342172Y-78706657D01*
X220342172Y-78706657D02*
X220151696Y-78611419D01*
X220151696Y-78611419D02*
X220056458Y-78516180D01*
X220056458Y-78516180D02*
X219961220Y-78325704D01*
X219961220Y-78325704D02*
X219961220Y-77849514D01*
X219961220Y-77849514D02*
X220056458Y-77659038D01*
X220056458Y-77659038D02*
X220151696Y-77563800D01*
X220151696Y-77563800D02*
X220342172Y-77468561D01*
X220342172Y-77468561D02*
X220913601Y-77468561D01*
X220913601Y-77468561D02*
X221104077Y-77563800D01*
X221104077Y-77563800D02*
X221199315Y-77659038D01*
X216913600Y-78516180D02*
X217580267Y-78516180D01*
X217580267Y-77468561D02*
X217580267Y-79468561D01*
X217580267Y-79468561D02*
X216627886Y-79468561D01*
X215865981Y-77468561D02*
X215865981Y-78801895D01*
X215865981Y-78420942D02*
X215770743Y-78611419D01*
X215770743Y-78611419D02*
X215675505Y-78706657D01*
X215675505Y-78706657D02*
X215485029Y-78801895D01*
X215485029Y-78801895D02*
X215294552Y-78801895D01*
X214342172Y-77468561D02*
X214532648Y-77563800D01*
X214532648Y-77563800D02*
X214627886Y-77659038D01*
X214627886Y-77659038D02*
X214723124Y-77849514D01*
X214723124Y-77849514D02*
X214723124Y-78420942D01*
X214723124Y-78420942D02*
X214627886Y-78611419D01*
X214627886Y-78611419D02*
X214532648Y-78706657D01*
X214532648Y-78706657D02*
X214342172Y-78801895D01*
X214342172Y-78801895D02*
X214056457Y-78801895D01*
X214056457Y-78801895D02*
X213865981Y-78706657D01*
X213865981Y-78706657D02*
X213770743Y-78611419D01*
X213770743Y-78611419D02*
X213675505Y-78420942D01*
X213675505Y-78420942D02*
X213675505Y-77849514D01*
X213675505Y-77849514D02*
X213770743Y-77659038D01*
X213770743Y-77659038D02*
X213865981Y-77563800D01*
X213865981Y-77563800D02*
X214056457Y-77468561D01*
X214056457Y-77468561D02*
X214342172Y-77468561D01*
X212818362Y-78801895D02*
X212818362Y-77468561D01*
X212818362Y-78611419D02*
X212723124Y-78706657D01*
X212723124Y-78706657D02*
X212532648Y-78801895D01*
X212532648Y-78801895D02*
X212246933Y-78801895D01*
X212246933Y-78801895D02*
X212056457Y-78706657D01*
X212056457Y-78706657D02*
X211961219Y-78516180D01*
X211961219Y-78516180D02*
X211961219Y-77468561D01*
X211294552Y-78801895D02*
X210532648Y-78801895D01*
X211008838Y-79468561D02*
X211008838Y-77754276D01*
X211008838Y-77754276D02*
X210913600Y-77563800D01*
X210913600Y-77563800D02*
X210723124Y-77468561D01*
X210723124Y-77468561D02*
X210532648Y-77468561D01*
X208342171Y-78516180D02*
X207675504Y-78516180D01*
X207389790Y-77468561D02*
X208342171Y-77468561D01*
X208342171Y-77468561D02*
X208342171Y-79468561D01*
X208342171Y-79468561D02*
X207389790Y-79468561D01*
X206532647Y-78801895D02*
X206532647Y-77468561D01*
X206532647Y-78611419D02*
X206437409Y-78706657D01*
X206437409Y-78706657D02*
X206246933Y-78801895D01*
X206246933Y-78801895D02*
X205961218Y-78801895D01*
X205961218Y-78801895D02*
X205770742Y-78706657D01*
X205770742Y-78706657D02*
X205675504Y-78516180D01*
X205675504Y-78516180D02*
X205675504Y-77468561D01*
X203865980Y-77468561D02*
X203865980Y-79468561D01*
X203865980Y-77563800D02*
X204056456Y-77468561D01*
X204056456Y-77468561D02*
X204437409Y-77468561D01*
X204437409Y-77468561D02*
X204627885Y-77563800D01*
X204627885Y-77563800D02*
X204723123Y-77659038D01*
X204723123Y-77659038D02*
X204818361Y-77849514D01*
X204818361Y-77849514D02*
X204818361Y-78420942D01*
X204818361Y-78420942D02*
X204723123Y-78611419D01*
X204723123Y-78611419D02*
X204627885Y-78706657D01*
X204627885Y-78706657D02*
X204437409Y-78801895D01*
X204437409Y-78801895D02*
X204056456Y-78801895D01*
X204056456Y-78801895D02*
X203865980Y-78706657D01*
X201580265Y-78801895D02*
X201104075Y-77468561D01*
X201104075Y-77468561D02*
X200627884Y-78801895D01*
X200056455Y-79468561D02*
X198818360Y-79468561D01*
X198818360Y-79468561D02*
X199485027Y-78706657D01*
X199485027Y-78706657D02*
X199199312Y-78706657D01*
X199199312Y-78706657D02*
X199008836Y-78611419D01*
X199008836Y-78611419D02*
X198913598Y-78516180D01*
X198913598Y-78516180D02*
X198818360Y-78325704D01*
X198818360Y-78325704D02*
X198818360Y-77849514D01*
X198818360Y-77849514D02*
X198913598Y-77659038D01*
X198913598Y-77659038D02*
X199008836Y-77563800D01*
X199008836Y-77563800D02*
X199199312Y-77468561D01*
X199199312Y-77468561D02*
X199770741Y-77468561D01*
X199770741Y-77468561D02*
X199961217Y-77563800D01*
X199961217Y-77563800D02*
X200056455Y-77659038D01*
D11*
X243690204Y-104318961D02*
X243594966Y-104414200D01*
X243594966Y-104414200D02*
X243309252Y-104509438D01*
X243309252Y-104509438D02*
X243118776Y-104509438D01*
X243118776Y-104509438D02*
X242833061Y-104414200D01*
X242833061Y-104414200D02*
X242642585Y-104223723D01*
X242642585Y-104223723D02*
X242547347Y-104033247D01*
X242547347Y-104033247D02*
X242452109Y-103652295D01*
X242452109Y-103652295D02*
X242452109Y-103366580D01*
X242452109Y-103366580D02*
X242547347Y-102985628D01*
X242547347Y-102985628D02*
X242642585Y-102795152D01*
X242642585Y-102795152D02*
X242833061Y-102604676D01*
X242833061Y-102604676D02*
X243118776Y-102509438D01*
X243118776Y-102509438D02*
X243309252Y-102509438D01*
X243309252Y-102509438D02*
X243594966Y-102604676D01*
X243594966Y-102604676D02*
X243690204Y-102699914D01*
X244547347Y-104509438D02*
X244547347Y-102509438D01*
X244547347Y-103461819D02*
X245690204Y-103461819D01*
X245690204Y-104509438D02*
X245690204Y-102509438D01*
X246547347Y-102699914D02*
X246642585Y-102604676D01*
X246642585Y-102604676D02*
X246833061Y-102509438D01*
X246833061Y-102509438D02*
X247309252Y-102509438D01*
X247309252Y-102509438D02*
X247499728Y-102604676D01*
X247499728Y-102604676D02*
X247594966Y-102699914D01*
X247594966Y-102699914D02*
X247690204Y-102890390D01*
X247690204Y-102890390D02*
X247690204Y-103080866D01*
X247690204Y-103080866D02*
X247594966Y-103366580D01*
X247594966Y-103366580D02*
X246452109Y-104509438D01*
X246452109Y-104509438D02*
X247690204Y-104509438D01*
D10*
X225237561Y-72361588D02*
X225285180Y-72266350D01*
X225285180Y-72266350D02*
X225285180Y-72123493D01*
X225285180Y-72123493D02*
X225237561Y-71980636D01*
X225237561Y-71980636D02*
X225142323Y-71885398D01*
X225142323Y-71885398D02*
X225047085Y-71837779D01*
X225047085Y-71837779D02*
X224856609Y-71790160D01*
X224856609Y-71790160D02*
X224713752Y-71790160D01*
X224713752Y-71790160D02*
X224523276Y-71837779D01*
X224523276Y-71837779D02*
X224428038Y-71885398D01*
X224428038Y-71885398D02*
X224332800Y-71980636D01*
X224332800Y-71980636D02*
X224285180Y-72123493D01*
X224285180Y-72123493D02*
X224285180Y-72218731D01*
X224285180Y-72218731D02*
X224332800Y-72361588D01*
X224332800Y-72361588D02*
X224380419Y-72409207D01*
X224380419Y-72409207D02*
X224713752Y-72409207D01*
X224713752Y-72409207D02*
X224713752Y-72218731D01*
X224285180Y-72837779D02*
X225285180Y-72837779D01*
X225285180Y-72837779D02*
X224285180Y-73409207D01*
X224285180Y-73409207D02*
X225285180Y-73409207D01*
X224285180Y-73885398D02*
X225285180Y-73885398D01*
X225285180Y-73885398D02*
X225285180Y-74123493D01*
X225285180Y-74123493D02*
X225237561Y-74266350D01*
X225237561Y-74266350D02*
X225142323Y-74361588D01*
X225142323Y-74361588D02*
X225047085Y-74409207D01*
X225047085Y-74409207D02*
X224856609Y-74456826D01*
X224856609Y-74456826D02*
X224713752Y-74456826D01*
X224713752Y-74456826D02*
X224523276Y-74409207D01*
X224523276Y-74409207D02*
X224428038Y-74361588D01*
X224428038Y-74361588D02*
X224332800Y-74266350D01*
X224332800Y-74266350D02*
X224285180Y-74123493D01*
X224285180Y-74123493D02*
X224285180Y-73885398D01*
D11*
X243817204Y-131115961D02*
X243721966Y-131211200D01*
X243721966Y-131211200D02*
X243436252Y-131306438D01*
X243436252Y-131306438D02*
X243245776Y-131306438D01*
X243245776Y-131306438D02*
X242960061Y-131211200D01*
X242960061Y-131211200D02*
X242769585Y-131020723D01*
X242769585Y-131020723D02*
X242674347Y-130830247D01*
X242674347Y-130830247D02*
X242579109Y-130449295D01*
X242579109Y-130449295D02*
X242579109Y-130163580D01*
X242579109Y-130163580D02*
X242674347Y-129782628D01*
X242674347Y-129782628D02*
X242769585Y-129592152D01*
X242769585Y-129592152D02*
X242960061Y-129401676D01*
X242960061Y-129401676D02*
X243245776Y-129306438D01*
X243245776Y-129306438D02*
X243436252Y-129306438D01*
X243436252Y-129306438D02*
X243721966Y-129401676D01*
X243721966Y-129401676D02*
X243817204Y-129496914D01*
X244674347Y-131306438D02*
X244674347Y-129306438D01*
X244674347Y-130258819D02*
X245817204Y-130258819D01*
X245817204Y-131306438D02*
X245817204Y-129306438D01*
X247817204Y-131306438D02*
X246674347Y-131306438D01*
X247245775Y-131306438D02*
X247245775Y-129306438D01*
X247245775Y-129306438D02*
X247055299Y-129592152D01*
X247055299Y-129592152D02*
X246864823Y-129782628D01*
X246864823Y-129782628D02*
X246674347Y-129877866D01*
X224812652Y-80783561D02*
X224812652Y-82783561D01*
X223860271Y-82116895D02*
X223860271Y-80783561D01*
X223860271Y-81926419D02*
X223765033Y-82021657D01*
X223765033Y-82021657D02*
X223574557Y-82116895D01*
X223574557Y-82116895D02*
X223288842Y-82116895D01*
X223288842Y-82116895D02*
X223098366Y-82021657D01*
X223098366Y-82021657D02*
X223003128Y-81831180D01*
X223003128Y-81831180D02*
X223003128Y-80783561D01*
X222336461Y-82116895D02*
X221574557Y-82116895D01*
X222050747Y-80783561D02*
X222050747Y-82497847D01*
X222050747Y-82497847D02*
X221955509Y-82688323D01*
X221955509Y-82688323D02*
X221765033Y-82783561D01*
X221765033Y-82783561D02*
X221574557Y-82783561D01*
X220907890Y-80783561D02*
X220907890Y-82116895D01*
X220907890Y-82783561D02*
X221003128Y-82688323D01*
X221003128Y-82688323D02*
X220907890Y-82593085D01*
X220907890Y-82593085D02*
X220812652Y-82688323D01*
X220812652Y-82688323D02*
X220907890Y-82783561D01*
X220907890Y-82783561D02*
X220907890Y-82593085D01*
X219955509Y-82116895D02*
X219955509Y-80783561D01*
X219955509Y-81926419D02*
X219860271Y-82021657D01*
X219860271Y-82021657D02*
X219669795Y-82116895D01*
X219669795Y-82116895D02*
X219384080Y-82116895D01*
X219384080Y-82116895D02*
X219193604Y-82021657D01*
X219193604Y-82021657D02*
X219098366Y-81831180D01*
X219098366Y-81831180D02*
X219098366Y-80783561D01*
X217288842Y-82116895D02*
X217288842Y-80783561D01*
X218145985Y-82116895D02*
X218145985Y-81069276D01*
X218145985Y-81069276D02*
X218050747Y-80878800D01*
X218050747Y-80878800D02*
X217860271Y-80783561D01*
X217860271Y-80783561D02*
X217574556Y-80783561D01*
X217574556Y-80783561D02*
X217384080Y-80878800D01*
X217384080Y-80878800D02*
X217288842Y-80974038D01*
X216431699Y-80878800D02*
X216241223Y-80783561D01*
X216241223Y-80783561D02*
X215860271Y-80783561D01*
X215860271Y-80783561D02*
X215669794Y-80878800D01*
X215669794Y-80878800D02*
X215574556Y-81069276D01*
X215574556Y-81069276D02*
X215574556Y-81164514D01*
X215574556Y-81164514D02*
X215669794Y-81354990D01*
X215669794Y-81354990D02*
X215860271Y-81450228D01*
X215860271Y-81450228D02*
X216145985Y-81450228D01*
X216145985Y-81450228D02*
X216336461Y-81545466D01*
X216336461Y-81545466D02*
X216431699Y-81735942D01*
X216431699Y-81735942D02*
X216431699Y-81831180D01*
X216431699Y-81831180D02*
X216336461Y-82021657D01*
X216336461Y-82021657D02*
X216145985Y-82116895D01*
X216145985Y-82116895D02*
X215860271Y-82116895D01*
X215860271Y-82116895D02*
X215669794Y-82021657D01*
X213193603Y-81831180D02*
X212526936Y-81831180D01*
X212241222Y-80783561D02*
X213193603Y-80783561D01*
X213193603Y-80783561D02*
X213193603Y-82783561D01*
X213193603Y-82783561D02*
X212241222Y-82783561D01*
X211098365Y-80783561D02*
X211288841Y-80878800D01*
X211288841Y-80878800D02*
X211384079Y-81069276D01*
X211384079Y-81069276D02*
X211384079Y-82783561D01*
X209574555Y-80878800D02*
X209765031Y-80783561D01*
X209765031Y-80783561D02*
X210145984Y-80783561D01*
X210145984Y-80783561D02*
X210336460Y-80878800D01*
X210336460Y-80878800D02*
X210431698Y-81069276D01*
X210431698Y-81069276D02*
X210431698Y-81831180D01*
X210431698Y-81831180D02*
X210336460Y-82021657D01*
X210336460Y-82021657D02*
X210145984Y-82116895D01*
X210145984Y-82116895D02*
X209765031Y-82116895D01*
X209765031Y-82116895D02*
X209574555Y-82021657D01*
X209574555Y-82021657D02*
X209479317Y-81831180D01*
X209479317Y-81831180D02*
X209479317Y-81640704D01*
X209479317Y-81640704D02*
X210431698Y-81450228D01*
X207765031Y-80878800D02*
X207955507Y-80783561D01*
X207955507Y-80783561D02*
X208336460Y-80783561D01*
X208336460Y-80783561D02*
X208526936Y-80878800D01*
X208526936Y-80878800D02*
X208622174Y-80974038D01*
X208622174Y-80974038D02*
X208717412Y-81164514D01*
X208717412Y-81164514D02*
X208717412Y-81735942D01*
X208717412Y-81735942D02*
X208622174Y-81926419D01*
X208622174Y-81926419D02*
X208526936Y-82021657D01*
X208526936Y-82021657D02*
X208336460Y-82116895D01*
X208336460Y-82116895D02*
X207955507Y-82116895D01*
X207955507Y-82116895D02*
X207765031Y-82021657D01*
X207193602Y-82116895D02*
X206431698Y-82116895D01*
X206907888Y-82783561D02*
X206907888Y-81069276D01*
X206907888Y-81069276D02*
X206812650Y-80878800D01*
X206812650Y-80878800D02*
X206622174Y-80783561D01*
X206622174Y-80783561D02*
X206431698Y-80783561D01*
X205765031Y-80783561D02*
X205765031Y-82116895D01*
X205765031Y-81735942D02*
X205669793Y-81926419D01*
X205669793Y-81926419D02*
X205574555Y-82021657D01*
X205574555Y-82021657D02*
X205384079Y-82116895D01*
X205384079Y-82116895D02*
X205193602Y-82116895D01*
X204241222Y-80783561D02*
X204431698Y-80878800D01*
X204431698Y-80878800D02*
X204526936Y-80974038D01*
X204526936Y-80974038D02*
X204622174Y-81164514D01*
X204622174Y-81164514D02*
X204622174Y-81735942D01*
X204622174Y-81735942D02*
X204526936Y-81926419D01*
X204526936Y-81926419D02*
X204431698Y-82021657D01*
X204431698Y-82021657D02*
X204241222Y-82116895D01*
X204241222Y-82116895D02*
X203955507Y-82116895D01*
X203955507Y-82116895D02*
X203765031Y-82021657D01*
X203765031Y-82021657D02*
X203669793Y-81926419D01*
X203669793Y-81926419D02*
X203574555Y-81735942D01*
X203574555Y-81735942D02*
X203574555Y-81164514D01*
X203574555Y-81164514D02*
X203669793Y-80974038D01*
X203669793Y-80974038D02*
X203765031Y-80878800D01*
X203765031Y-80878800D02*
X203955507Y-80783561D01*
X203955507Y-80783561D02*
X204241222Y-80783561D01*
X202717412Y-82116895D02*
X202717412Y-80783561D01*
X202717412Y-81926419D02*
X202622174Y-82021657D01*
X202622174Y-82021657D02*
X202431698Y-82116895D01*
X202431698Y-82116895D02*
X202145983Y-82116895D01*
X202145983Y-82116895D02*
X201955507Y-82021657D01*
X201955507Y-82021657D02*
X201860269Y-81831180D01*
X201860269Y-81831180D02*
X201860269Y-80783561D01*
X200907888Y-80783561D02*
X200907888Y-82116895D01*
X200907888Y-82783561D02*
X201003126Y-82688323D01*
X201003126Y-82688323D02*
X200907888Y-82593085D01*
X200907888Y-82593085D02*
X200812650Y-82688323D01*
X200812650Y-82688323D02*
X200907888Y-82783561D01*
X200907888Y-82783561D02*
X200907888Y-82593085D01*
X199098364Y-80878800D02*
X199288840Y-80783561D01*
X199288840Y-80783561D02*
X199669793Y-80783561D01*
X199669793Y-80783561D02*
X199860269Y-80878800D01*
X199860269Y-80878800D02*
X199955507Y-80974038D01*
X199955507Y-80974038D02*
X200050745Y-81164514D01*
X200050745Y-81164514D02*
X200050745Y-81735942D01*
X200050745Y-81735942D02*
X199955507Y-81926419D01*
X199955507Y-81926419D02*
X199860269Y-82021657D01*
X199860269Y-82021657D02*
X199669793Y-82116895D01*
X199669793Y-82116895D02*
X199288840Y-82116895D01*
X199288840Y-82116895D02*
X199098364Y-82021657D01*
X198336459Y-80878800D02*
X198145983Y-80783561D01*
X198145983Y-80783561D02*
X197765031Y-80783561D01*
X197765031Y-80783561D02*
X197574554Y-80878800D01*
X197574554Y-80878800D02*
X197479316Y-81069276D01*
X197479316Y-81069276D02*
X197479316Y-81164514D01*
X197479316Y-81164514D02*
X197574554Y-81354990D01*
X197574554Y-81354990D02*
X197765031Y-81450228D01*
X197765031Y-81450228D02*
X198050745Y-81450228D01*
X198050745Y-81450228D02*
X198241221Y-81545466D01*
X198241221Y-81545466D02*
X198336459Y-81735942D01*
X198336459Y-81735942D02*
X198336459Y-81831180D01*
X198336459Y-81831180D02*
X198241221Y-82021657D01*
X198241221Y-82021657D02*
X198050745Y-82116895D01*
X198050745Y-82116895D02*
X197765031Y-82116895D01*
X197765031Y-82116895D02*
X197574554Y-82021657D01*
D10*
X221745180Y-71837779D02*
X222745180Y-71837779D01*
X222745180Y-71837779D02*
X222745180Y-72218731D01*
X222745180Y-72218731D02*
X222697561Y-72313969D01*
X222697561Y-72313969D02*
X222649942Y-72361588D01*
X222649942Y-72361588D02*
X222554704Y-72409207D01*
X222554704Y-72409207D02*
X222411847Y-72409207D01*
X222411847Y-72409207D02*
X222316609Y-72361588D01*
X222316609Y-72361588D02*
X222268990Y-72313969D01*
X222268990Y-72313969D02*
X222221371Y-72218731D01*
X222221371Y-72218731D02*
X222221371Y-71837779D01*
X221792800Y-72790160D02*
X221745180Y-72933017D01*
X221745180Y-72933017D02*
X221745180Y-73171112D01*
X221745180Y-73171112D02*
X221792800Y-73266350D01*
X221792800Y-73266350D02*
X221840419Y-73313969D01*
X221840419Y-73313969D02*
X221935657Y-73361588D01*
X221935657Y-73361588D02*
X222030895Y-73361588D01*
X222030895Y-73361588D02*
X222126133Y-73313969D01*
X222126133Y-73313969D02*
X222173752Y-73266350D01*
X222173752Y-73266350D02*
X222221371Y-73171112D01*
X222221371Y-73171112D02*
X222268990Y-72980636D01*
X222268990Y-72980636D02*
X222316609Y-72885398D01*
X222316609Y-72885398D02*
X222364228Y-72837779D01*
X222364228Y-72837779D02*
X222459466Y-72790160D01*
X222459466Y-72790160D02*
X222554704Y-72790160D01*
X222554704Y-72790160D02*
X222649942Y-72837779D01*
X222649942Y-72837779D02*
X222697561Y-72885398D01*
X222697561Y-72885398D02*
X222745180Y-72980636D01*
X222745180Y-72980636D02*
X222745180Y-73218731D01*
X222745180Y-73218731D02*
X222697561Y-73361588D01*
X222745180Y-73790160D02*
X221935657Y-73790160D01*
X221935657Y-73790160D02*
X221840419Y-73837779D01*
X221840419Y-73837779D02*
X221792800Y-73885398D01*
X221792800Y-73885398D02*
X221745180Y-73980636D01*
X221745180Y-73980636D02*
X221745180Y-74171112D01*
X221745180Y-74171112D02*
X221792800Y-74266350D01*
X221792800Y-74266350D02*
X221840419Y-74313969D01*
X221840419Y-74313969D02*
X221935657Y-74361588D01*
X221935657Y-74361588D02*
X222745180Y-74361588D01*
D11*
X229890438Y-76540128D02*
X231890438Y-76063938D01*
X231890438Y-76063938D02*
X230461866Y-75682985D01*
X230461866Y-75682985D02*
X231890438Y-75302033D01*
X231890438Y-75302033D02*
X229890438Y-74825843D01*
X231890438Y-73016319D02*
X231890438Y-74159176D01*
X231890438Y-73587748D02*
X229890438Y-73587748D01*
X229890438Y-73587748D02*
X230176152Y-73778224D01*
X230176152Y-73778224D02*
X230366628Y-73968700D01*
X230366628Y-73968700D02*
X230461866Y-74159176D01*
D10*
X205784220Y-72139180D02*
X205784220Y-73139180D01*
X205784220Y-73139180D02*
X205546125Y-73139180D01*
X205546125Y-73139180D02*
X205403268Y-73091561D01*
X205403268Y-73091561D02*
X205308030Y-72996323D01*
X205308030Y-72996323D02*
X205260411Y-72901085D01*
X205260411Y-72901085D02*
X205212792Y-72710609D01*
X205212792Y-72710609D02*
X205212792Y-72567752D01*
X205212792Y-72567752D02*
X205260411Y-72377276D01*
X205260411Y-72377276D02*
X205308030Y-72282038D01*
X205308030Y-72282038D02*
X205403268Y-72186800D01*
X205403268Y-72186800D02*
X205546125Y-72139180D01*
X205546125Y-72139180D02*
X205784220Y-72139180D01*
X204784220Y-72139180D02*
X204784220Y-73139180D01*
X203784221Y-73091561D02*
X203879459Y-73139180D01*
X203879459Y-73139180D02*
X204022316Y-73139180D01*
X204022316Y-73139180D02*
X204165173Y-73091561D01*
X204165173Y-73091561D02*
X204260411Y-72996323D01*
X204260411Y-72996323D02*
X204308030Y-72901085D01*
X204308030Y-72901085D02*
X204355649Y-72710609D01*
X204355649Y-72710609D02*
X204355649Y-72567752D01*
X204355649Y-72567752D02*
X204308030Y-72377276D01*
X204308030Y-72377276D02*
X204260411Y-72282038D01*
X204260411Y-72282038D02*
X204165173Y-72186800D01*
X204165173Y-72186800D02*
X204022316Y-72139180D01*
X204022316Y-72139180D02*
X203927078Y-72139180D01*
X203927078Y-72139180D02*
X203784221Y-72186800D01*
X203784221Y-72186800D02*
X203736602Y-72234419D01*
X203736602Y-72234419D02*
X203736602Y-72567752D01*
X203736602Y-72567752D02*
X203927078Y-72567752D01*
X203308030Y-72139180D02*
X203308030Y-73139180D01*
X202974697Y-73139180D02*
X202403269Y-73139180D01*
X202688983Y-72139180D02*
X202688983Y-73139180D01*
X202117554Y-72424895D02*
X201641364Y-72424895D01*
X202212792Y-72139180D02*
X201879459Y-73139180D01*
X201879459Y-73139180D02*
X201546126Y-72139180D01*
X200736602Y-72139180D02*
X201212792Y-72139180D01*
X201212792Y-72139180D02*
X201212792Y-73139180D01*
X217617561Y-72361588D02*
X217665180Y-72266350D01*
X217665180Y-72266350D02*
X217665180Y-72123493D01*
X217665180Y-72123493D02*
X217617561Y-71980636D01*
X217617561Y-71980636D02*
X217522323Y-71885398D01*
X217522323Y-71885398D02*
X217427085Y-71837779D01*
X217427085Y-71837779D02*
X217236609Y-71790160D01*
X217236609Y-71790160D02*
X217093752Y-71790160D01*
X217093752Y-71790160D02*
X216903276Y-71837779D01*
X216903276Y-71837779D02*
X216808038Y-71885398D01*
X216808038Y-71885398D02*
X216712800Y-71980636D01*
X216712800Y-71980636D02*
X216665180Y-72123493D01*
X216665180Y-72123493D02*
X216665180Y-72218731D01*
X216665180Y-72218731D02*
X216712800Y-72361588D01*
X216712800Y-72361588D02*
X216760419Y-72409207D01*
X216760419Y-72409207D02*
X217093752Y-72409207D01*
X217093752Y-72409207D02*
X217093752Y-72218731D01*
X216665180Y-72837779D02*
X217665180Y-72837779D01*
X217665180Y-72837779D02*
X216665180Y-73409207D01*
X216665180Y-73409207D02*
X217665180Y-73409207D01*
X216665180Y-73885398D02*
X217665180Y-73885398D01*
X217665180Y-73885398D02*
X217665180Y-74123493D01*
X217665180Y-74123493D02*
X217617561Y-74266350D01*
X217617561Y-74266350D02*
X217522323Y-74361588D01*
X217522323Y-74361588D02*
X217427085Y-74409207D01*
X217427085Y-74409207D02*
X217236609Y-74456826D01*
X217236609Y-74456826D02*
X217093752Y-74456826D01*
X217093752Y-74456826D02*
X216903276Y-74409207D01*
X216903276Y-74409207D02*
X216808038Y-74361588D01*
X216808038Y-74361588D02*
X216712800Y-74266350D01*
X216712800Y-74266350D02*
X216665180Y-74123493D01*
X216665180Y-74123493D02*
X216665180Y-73885398D01*
X215125180Y-71694922D02*
X215125180Y-72266350D01*
X214125180Y-71980636D02*
X215125180Y-71980636D01*
X214125180Y-73171112D02*
X214601371Y-72837779D01*
X214125180Y-72599684D02*
X215125180Y-72599684D01*
X215125180Y-72599684D02*
X215125180Y-72980636D01*
X215125180Y-72980636D02*
X215077561Y-73075874D01*
X215077561Y-73075874D02*
X215029942Y-73123493D01*
X215029942Y-73123493D02*
X214934704Y-73171112D01*
X214934704Y-73171112D02*
X214791847Y-73171112D01*
X214791847Y-73171112D02*
X214696609Y-73123493D01*
X214696609Y-73123493D02*
X214648990Y-73075874D01*
X214648990Y-73075874D02*
X214601371Y-72980636D01*
X214601371Y-72980636D02*
X214601371Y-72599684D01*
X214125180Y-73599684D02*
X215125180Y-73599684D01*
X215077561Y-74599683D02*
X215125180Y-74504445D01*
X215125180Y-74504445D02*
X215125180Y-74361588D01*
X215125180Y-74361588D02*
X215077561Y-74218731D01*
X215077561Y-74218731D02*
X214982323Y-74123493D01*
X214982323Y-74123493D02*
X214887085Y-74075874D01*
X214887085Y-74075874D02*
X214696609Y-74028255D01*
X214696609Y-74028255D02*
X214553752Y-74028255D01*
X214553752Y-74028255D02*
X214363276Y-74075874D01*
X214363276Y-74075874D02*
X214268038Y-74123493D01*
X214268038Y-74123493D02*
X214172800Y-74218731D01*
X214172800Y-74218731D02*
X214125180Y-74361588D01*
X214125180Y-74361588D02*
X214125180Y-74456826D01*
X214125180Y-74456826D02*
X214172800Y-74599683D01*
X214172800Y-74599683D02*
X214220419Y-74647302D01*
X214220419Y-74647302D02*
X214553752Y-74647302D01*
X214553752Y-74647302D02*
X214553752Y-74456826D01*
D11*
X194416561Y-73192871D02*
X192416561Y-73669061D01*
X192416561Y-73669061D02*
X193845133Y-74050014D01*
X193845133Y-74050014D02*
X192416561Y-74430966D01*
X192416561Y-74430966D02*
X194416561Y-74907157D01*
X194226085Y-75573823D02*
X194321323Y-75669061D01*
X194321323Y-75669061D02*
X194416561Y-75859537D01*
X194416561Y-75859537D02*
X194416561Y-76335728D01*
X194416561Y-76335728D02*
X194321323Y-76526204D01*
X194321323Y-76526204D02*
X194226085Y-76621442D01*
X194226085Y-76621442D02*
X194035609Y-76716680D01*
X194035609Y-76716680D02*
X193845133Y-76716680D01*
X193845133Y-76716680D02*
X193559419Y-76621442D01*
X193559419Y-76621442D02*
X192416561Y-75478585D01*
X192416561Y-75478585D02*
X192416561Y-76716680D01*
D10*
X193599200Y-103019309D02*
X194884914Y-103876451D01*
X194646819Y-102162166D02*
X194646819Y-102733594D01*
X194646819Y-102447880D02*
X193646819Y-102447880D01*
X193646819Y-102447880D02*
X193789676Y-102543118D01*
X193789676Y-102543118D02*
X193884914Y-102638356D01*
X193884914Y-102638356D02*
X193932533Y-102733594D01*
X193646819Y-101543118D02*
X193646819Y-101447880D01*
X193646819Y-101447880D02*
X193694438Y-101352642D01*
X193694438Y-101352642D02*
X193742057Y-101305023D01*
X193742057Y-101305023D02*
X193837295Y-101257404D01*
X193837295Y-101257404D02*
X194027771Y-101209785D01*
X194027771Y-101209785D02*
X194265866Y-101209785D01*
X194265866Y-101209785D02*
X194456342Y-101257404D01*
X194456342Y-101257404D02*
X194551580Y-101305023D01*
X194551580Y-101305023D02*
X194599200Y-101352642D01*
X194599200Y-101352642D02*
X194646819Y-101447880D01*
X194646819Y-101447880D02*
X194646819Y-101543118D01*
X194646819Y-101543118D02*
X194599200Y-101638356D01*
X194599200Y-101638356D02*
X194551580Y-101685975D01*
X194551580Y-101685975D02*
X194456342Y-101733594D01*
X194456342Y-101733594D02*
X194265866Y-101781213D01*
X194265866Y-101781213D02*
X194027771Y-101781213D01*
X194027771Y-101781213D02*
X193837295Y-101733594D01*
X193837295Y-101733594D02*
X193742057Y-101685975D01*
X193742057Y-101685975D02*
X193694438Y-101638356D01*
X193694438Y-101638356D02*
X193646819Y-101543118D01*
X220876952Y-104340819D02*
X220543619Y-103864628D01*
X220305524Y-104340819D02*
X220305524Y-103340819D01*
X220305524Y-103340819D02*
X220686476Y-103340819D01*
X220686476Y-103340819D02*
X220781714Y-103388438D01*
X220781714Y-103388438D02*
X220829333Y-103436057D01*
X220829333Y-103436057D02*
X220876952Y-103531295D01*
X220876952Y-103531295D02*
X220876952Y-103674152D01*
X220876952Y-103674152D02*
X220829333Y-103769390D01*
X220829333Y-103769390D02*
X220781714Y-103817009D01*
X220781714Y-103817009D02*
X220686476Y-103864628D01*
X220686476Y-103864628D02*
X220305524Y-103864628D01*
X221210286Y-103340819D02*
X221829333Y-103340819D01*
X221829333Y-103340819D02*
X221496000Y-103721771D01*
X221496000Y-103721771D02*
X221638857Y-103721771D01*
X221638857Y-103721771D02*
X221734095Y-103769390D01*
X221734095Y-103769390D02*
X221781714Y-103817009D01*
X221781714Y-103817009D02*
X221829333Y-103912247D01*
X221829333Y-103912247D02*
X221829333Y-104150342D01*
X221829333Y-104150342D02*
X221781714Y-104245580D01*
X221781714Y-104245580D02*
X221734095Y-104293200D01*
X221734095Y-104293200D02*
X221638857Y-104340819D01*
X221638857Y-104340819D02*
X221353143Y-104340819D01*
X221353143Y-104340819D02*
X221257905Y-104293200D01*
X221257905Y-104293200D02*
X221210286Y-104245580D01*
X222448381Y-103340819D02*
X222543619Y-103340819D01*
X222543619Y-103340819D02*
X222638857Y-103388438D01*
X222638857Y-103388438D02*
X222686476Y-103436057D01*
X222686476Y-103436057D02*
X222734095Y-103531295D01*
X222734095Y-103531295D02*
X222781714Y-103721771D01*
X222781714Y-103721771D02*
X222781714Y-103959866D01*
X222781714Y-103959866D02*
X222734095Y-104150342D01*
X222734095Y-104150342D02*
X222686476Y-104245580D01*
X222686476Y-104245580D02*
X222638857Y-104293200D01*
X222638857Y-104293200D02*
X222543619Y-104340819D01*
X222543619Y-104340819D02*
X222448381Y-104340819D01*
X222448381Y-104340819D02*
X222353143Y-104293200D01*
X222353143Y-104293200D02*
X222305524Y-104245580D01*
X222305524Y-104245580D02*
X222257905Y-104150342D01*
X222257905Y-104150342D02*
X222210286Y-103959866D01*
X222210286Y-103959866D02*
X222210286Y-103721771D01*
X222210286Y-103721771D02*
X222257905Y-103531295D01*
X222257905Y-103531295D02*
X222305524Y-103436057D01*
X222305524Y-103436057D02*
X222353143Y-103388438D01*
X222353143Y-103388438D02*
X222448381Y-103340819D01*
X223686476Y-103340819D02*
X223210286Y-103340819D01*
X223210286Y-103340819D02*
X223162667Y-103817009D01*
X223162667Y-103817009D02*
X223210286Y-103769390D01*
X223210286Y-103769390D02*
X223305524Y-103721771D01*
X223305524Y-103721771D02*
X223543619Y-103721771D01*
X223543619Y-103721771D02*
X223638857Y-103769390D01*
X223638857Y-103769390D02*
X223686476Y-103817009D01*
X223686476Y-103817009D02*
X223734095Y-103912247D01*
X223734095Y-103912247D02*
X223734095Y-104150342D01*
X223734095Y-104150342D02*
X223686476Y-104245580D01*
X223686476Y-104245580D02*
X223638857Y-104293200D01*
X223638857Y-104293200D02*
X223543619Y-104340819D01*
X223543619Y-104340819D02*
X223305524Y-104340819D01*
X223305524Y-104340819D02*
X223210286Y-104293200D01*
X223210286Y-104293200D02*
X223162667Y-104245580D01*
X206175052Y-103854380D02*
X206127433Y-103902000D01*
X206127433Y-103902000D02*
X205984576Y-103949619D01*
X205984576Y-103949619D02*
X205889338Y-103949619D01*
X205889338Y-103949619D02*
X205746481Y-103902000D01*
X205746481Y-103902000D02*
X205651243Y-103806761D01*
X205651243Y-103806761D02*
X205603624Y-103711523D01*
X205603624Y-103711523D02*
X205556005Y-103521047D01*
X205556005Y-103521047D02*
X205556005Y-103378190D01*
X205556005Y-103378190D02*
X205603624Y-103187714D01*
X205603624Y-103187714D02*
X205651243Y-103092476D01*
X205651243Y-103092476D02*
X205746481Y-102997238D01*
X205746481Y-102997238D02*
X205889338Y-102949619D01*
X205889338Y-102949619D02*
X205984576Y-102949619D01*
X205984576Y-102949619D02*
X206127433Y-102997238D01*
X206127433Y-102997238D02*
X206175052Y-103044857D01*
X206508386Y-102949619D02*
X207127433Y-102949619D01*
X207127433Y-102949619D02*
X206794100Y-103330571D01*
X206794100Y-103330571D02*
X206936957Y-103330571D01*
X206936957Y-103330571D02*
X207032195Y-103378190D01*
X207032195Y-103378190D02*
X207079814Y-103425809D01*
X207079814Y-103425809D02*
X207127433Y-103521047D01*
X207127433Y-103521047D02*
X207127433Y-103759142D01*
X207127433Y-103759142D02*
X207079814Y-103854380D01*
X207079814Y-103854380D02*
X207032195Y-103902000D01*
X207032195Y-103902000D02*
X206936957Y-103949619D01*
X206936957Y-103949619D02*
X206651243Y-103949619D01*
X206651243Y-103949619D02*
X206556005Y-103902000D01*
X206556005Y-103902000D02*
X206508386Y-103854380D01*
X207746481Y-102949619D02*
X207841719Y-102949619D01*
X207841719Y-102949619D02*
X207936957Y-102997238D01*
X207936957Y-102997238D02*
X207984576Y-103044857D01*
X207984576Y-103044857D02*
X208032195Y-103140095D01*
X208032195Y-103140095D02*
X208079814Y-103330571D01*
X208079814Y-103330571D02*
X208079814Y-103568666D01*
X208079814Y-103568666D02*
X208032195Y-103759142D01*
X208032195Y-103759142D02*
X207984576Y-103854380D01*
X207984576Y-103854380D02*
X207936957Y-103902000D01*
X207936957Y-103902000D02*
X207841719Y-103949619D01*
X207841719Y-103949619D02*
X207746481Y-103949619D01*
X207746481Y-103949619D02*
X207651243Y-103902000D01*
X207651243Y-103902000D02*
X207603624Y-103854380D01*
X207603624Y-103854380D02*
X207556005Y-103759142D01*
X207556005Y-103759142D02*
X207508386Y-103568666D01*
X207508386Y-103568666D02*
X207508386Y-103330571D01*
X207508386Y-103330571D02*
X207556005Y-103140095D01*
X207556005Y-103140095D02*
X207603624Y-103044857D01*
X207603624Y-103044857D02*
X207651243Y-102997238D01*
X207651243Y-102997238D02*
X207746481Y-102949619D01*
X208413148Y-102949619D02*
X209079814Y-102949619D01*
X209079814Y-102949619D02*
X208651243Y-103949619D01*
X240014285Y-79654819D02*
X240014285Y-80369104D01*
X240014285Y-80369104D02*
X239966666Y-80511961D01*
X239966666Y-80511961D02*
X239871428Y-80607200D01*
X239871428Y-80607200D02*
X239728571Y-80654819D01*
X239728571Y-80654819D02*
X239633333Y-80654819D01*
X241014285Y-80654819D02*
X240442857Y-80654819D01*
X240728571Y-80654819D02*
X240728571Y-79654819D01*
X240728571Y-79654819D02*
X240633333Y-79797676D01*
X240633333Y-79797676D02*
X240538095Y-79892914D01*
X240538095Y-79892914D02*
X240442857Y-79940533D01*
X241633333Y-79654819D02*
X241728571Y-79654819D01*
X241728571Y-79654819D02*
X241823809Y-79702438D01*
X241823809Y-79702438D02*
X241871428Y-79750057D01*
X241871428Y-79750057D02*
X241919047Y-79845295D01*
X241919047Y-79845295D02*
X241966666Y-80035771D01*
X241966666Y-80035771D02*
X241966666Y-80273866D01*
X241966666Y-80273866D02*
X241919047Y-80464342D01*
X241919047Y-80464342D02*
X241871428Y-80559580D01*
X241871428Y-80559580D02*
X241823809Y-80607200D01*
X241823809Y-80607200D02*
X241728571Y-80654819D01*
X241728571Y-80654819D02*
X241633333Y-80654819D01*
X241633333Y-80654819D02*
X241538095Y-80607200D01*
X241538095Y-80607200D02*
X241490476Y-80559580D01*
X241490476Y-80559580D02*
X241442857Y-80464342D01*
X241442857Y-80464342D02*
X241395238Y-80273866D01*
X241395238Y-80273866D02*
X241395238Y-80035771D01*
X241395238Y-80035771D02*
X241442857Y-79845295D01*
X241442857Y-79845295D02*
X241490476Y-79750057D01*
X241490476Y-79750057D02*
X241538095Y-79702438D01*
X241538095Y-79702438D02*
X241633333Y-79654819D01*
X242919047Y-80654819D02*
X242347619Y-80654819D01*
X242633333Y-80654819D02*
X242633333Y-79654819D01*
X242633333Y-79654819D02*
X242538095Y-79797676D01*
X242538095Y-79797676D02*
X242442857Y-79892914D01*
X242442857Y-79892914D02*
X242347619Y-79940533D01*
X194361105Y-119355904D02*
X194361105Y-118879714D01*
X194646820Y-119451142D02*
X193646820Y-119117809D01*
X193646820Y-119117809D02*
X194646820Y-118784476D01*
X194551581Y-117879714D02*
X194599201Y-117927333D01*
X194599201Y-117927333D02*
X194646820Y-118070190D01*
X194646820Y-118070190D02*
X194646820Y-118165428D01*
X194646820Y-118165428D02*
X194599201Y-118308285D01*
X194599201Y-118308285D02*
X194503962Y-118403523D01*
X194503962Y-118403523D02*
X194408724Y-118451142D01*
X194408724Y-118451142D02*
X194218248Y-118498761D01*
X194218248Y-118498761D02*
X194075391Y-118498761D01*
X194075391Y-118498761D02*
X193884915Y-118451142D01*
X193884915Y-118451142D02*
X193789677Y-118403523D01*
X193789677Y-118403523D02*
X193694439Y-118308285D01*
X193694439Y-118308285D02*
X193646820Y-118165428D01*
X193646820Y-118165428D02*
X193646820Y-118070190D01*
X193646820Y-118070190D02*
X193694439Y-117927333D01*
X193694439Y-117927333D02*
X193742058Y-117879714D01*
X193599201Y-116736857D02*
X194884915Y-117593999D01*
X194646820Y-116403523D02*
X193646820Y-116403523D01*
X193646820Y-116403523D02*
X193646820Y-116165428D01*
X193646820Y-116165428D02*
X193694439Y-116022571D01*
X193694439Y-116022571D02*
X193789677Y-115927333D01*
X193789677Y-115927333D02*
X193884915Y-115879714D01*
X193884915Y-115879714D02*
X194075391Y-115832095D01*
X194075391Y-115832095D02*
X194218248Y-115832095D01*
X194218248Y-115832095D02*
X194408724Y-115879714D01*
X194408724Y-115879714D02*
X194503962Y-115927333D01*
X194503962Y-115927333D02*
X194599201Y-116022571D01*
X194599201Y-116022571D02*
X194646820Y-116165428D01*
X194646820Y-116165428D02*
X194646820Y-116403523D01*
X194551581Y-114832095D02*
X194599201Y-114879714D01*
X194599201Y-114879714D02*
X194646820Y-115022571D01*
X194646820Y-115022571D02*
X194646820Y-115117809D01*
X194646820Y-115117809D02*
X194599201Y-115260666D01*
X194599201Y-115260666D02*
X194503962Y-115355904D01*
X194503962Y-115355904D02*
X194408724Y-115403523D01*
X194408724Y-115403523D02*
X194218248Y-115451142D01*
X194218248Y-115451142D02*
X194075391Y-115451142D01*
X194075391Y-115451142D02*
X193884915Y-115403523D01*
X193884915Y-115403523D02*
X193789677Y-115355904D01*
X193789677Y-115355904D02*
X193694439Y-115260666D01*
X193694439Y-115260666D02*
X193646820Y-115117809D01*
X193646820Y-115117809D02*
X193646820Y-115022571D01*
X193646820Y-115022571D02*
X193694439Y-114879714D01*
X193694439Y-114879714D02*
X193742058Y-114832095D01*
X219606952Y-91037580D02*
X219559333Y-91085200D01*
X219559333Y-91085200D02*
X219416476Y-91132819D01*
X219416476Y-91132819D02*
X219321238Y-91132819D01*
X219321238Y-91132819D02*
X219178381Y-91085200D01*
X219178381Y-91085200D02*
X219083143Y-90989961D01*
X219083143Y-90989961D02*
X219035524Y-90894723D01*
X219035524Y-90894723D02*
X218987905Y-90704247D01*
X218987905Y-90704247D02*
X218987905Y-90561390D01*
X218987905Y-90561390D02*
X219035524Y-90370914D01*
X219035524Y-90370914D02*
X219083143Y-90275676D01*
X219083143Y-90275676D02*
X219178381Y-90180438D01*
X219178381Y-90180438D02*
X219321238Y-90132819D01*
X219321238Y-90132819D02*
X219416476Y-90132819D01*
X219416476Y-90132819D02*
X219559333Y-90180438D01*
X219559333Y-90180438D02*
X219606952Y-90228057D01*
X219940286Y-90132819D02*
X220559333Y-90132819D01*
X220559333Y-90132819D02*
X220226000Y-90513771D01*
X220226000Y-90513771D02*
X220368857Y-90513771D01*
X220368857Y-90513771D02*
X220464095Y-90561390D01*
X220464095Y-90561390D02*
X220511714Y-90609009D01*
X220511714Y-90609009D02*
X220559333Y-90704247D01*
X220559333Y-90704247D02*
X220559333Y-90942342D01*
X220559333Y-90942342D02*
X220511714Y-91037580D01*
X220511714Y-91037580D02*
X220464095Y-91085200D01*
X220464095Y-91085200D02*
X220368857Y-91132819D01*
X220368857Y-91132819D02*
X220083143Y-91132819D01*
X220083143Y-91132819D02*
X219987905Y-91085200D01*
X219987905Y-91085200D02*
X219940286Y-91037580D01*
X221178381Y-90132819D02*
X221273619Y-90132819D01*
X221273619Y-90132819D02*
X221368857Y-90180438D01*
X221368857Y-90180438D02*
X221416476Y-90228057D01*
X221416476Y-90228057D02*
X221464095Y-90323295D01*
X221464095Y-90323295D02*
X221511714Y-90513771D01*
X221511714Y-90513771D02*
X221511714Y-90751866D01*
X221511714Y-90751866D02*
X221464095Y-90942342D01*
X221464095Y-90942342D02*
X221416476Y-91037580D01*
X221416476Y-91037580D02*
X221368857Y-91085200D01*
X221368857Y-91085200D02*
X221273619Y-91132819D01*
X221273619Y-91132819D02*
X221178381Y-91132819D01*
X221178381Y-91132819D02*
X221083143Y-91085200D01*
X221083143Y-91085200D02*
X221035524Y-91037580D01*
X221035524Y-91037580D02*
X220987905Y-90942342D01*
X220987905Y-90942342D02*
X220940286Y-90751866D01*
X220940286Y-90751866D02*
X220940286Y-90513771D01*
X220940286Y-90513771D02*
X220987905Y-90323295D01*
X220987905Y-90323295D02*
X221035524Y-90228057D01*
X221035524Y-90228057D02*
X221083143Y-90180438D01*
X221083143Y-90180438D02*
X221178381Y-90132819D01*
X221987905Y-91132819D02*
X222178381Y-91132819D01*
X222178381Y-91132819D02*
X222273619Y-91085200D01*
X222273619Y-91085200D02*
X222321238Y-91037580D01*
X222321238Y-91037580D02*
X222416476Y-90894723D01*
X222416476Y-90894723D02*
X222464095Y-90704247D01*
X222464095Y-90704247D02*
X222464095Y-90323295D01*
X222464095Y-90323295D02*
X222416476Y-90228057D01*
X222416476Y-90228057D02*
X222368857Y-90180438D01*
X222368857Y-90180438D02*
X222273619Y-90132819D01*
X222273619Y-90132819D02*
X222083143Y-90132819D01*
X222083143Y-90132819D02*
X221987905Y-90180438D01*
X221987905Y-90180438D02*
X221940286Y-90228057D01*
X221940286Y-90228057D02*
X221892667Y-90323295D01*
X221892667Y-90323295D02*
X221892667Y-90561390D01*
X221892667Y-90561390D02*
X221940286Y-90656628D01*
X221940286Y-90656628D02*
X221987905Y-90704247D01*
X221987905Y-90704247D02*
X222083143Y-90751866D01*
X222083143Y-90751866D02*
X222273619Y-90751866D01*
X222273619Y-90751866D02*
X222368857Y-90704247D01*
X222368857Y-90704247D02*
X222416476Y-90656628D01*
X222416476Y-90656628D02*
X222464095Y-90561390D01*
X203889052Y-101917619D02*
X203555719Y-101441428D01*
X203317624Y-101917619D02*
X203317624Y-100917619D01*
X203317624Y-100917619D02*
X203698576Y-100917619D01*
X203698576Y-100917619D02*
X203793814Y-100965238D01*
X203793814Y-100965238D02*
X203841433Y-101012857D01*
X203841433Y-101012857D02*
X203889052Y-101108095D01*
X203889052Y-101108095D02*
X203889052Y-101250952D01*
X203889052Y-101250952D02*
X203841433Y-101346190D01*
X203841433Y-101346190D02*
X203793814Y-101393809D01*
X203793814Y-101393809D02*
X203698576Y-101441428D01*
X203698576Y-101441428D02*
X203317624Y-101441428D01*
X204222386Y-100917619D02*
X204841433Y-100917619D01*
X204841433Y-100917619D02*
X204508100Y-101298571D01*
X204508100Y-101298571D02*
X204650957Y-101298571D01*
X204650957Y-101298571D02*
X204746195Y-101346190D01*
X204746195Y-101346190D02*
X204793814Y-101393809D01*
X204793814Y-101393809D02*
X204841433Y-101489047D01*
X204841433Y-101489047D02*
X204841433Y-101727142D01*
X204841433Y-101727142D02*
X204793814Y-101822380D01*
X204793814Y-101822380D02*
X204746195Y-101870000D01*
X204746195Y-101870000D02*
X204650957Y-101917619D01*
X204650957Y-101917619D02*
X204365243Y-101917619D01*
X204365243Y-101917619D02*
X204270005Y-101870000D01*
X204270005Y-101870000D02*
X204222386Y-101822380D01*
X205793814Y-101917619D02*
X205222386Y-101917619D01*
X205508100Y-101917619D02*
X205508100Y-100917619D01*
X205508100Y-100917619D02*
X205412862Y-101060476D01*
X205412862Y-101060476D02*
X205317624Y-101155714D01*
X205317624Y-101155714D02*
X205222386Y-101203333D01*
X206412862Y-100917619D02*
X206508100Y-100917619D01*
X206508100Y-100917619D02*
X206603338Y-100965238D01*
X206603338Y-100965238D02*
X206650957Y-101012857D01*
X206650957Y-101012857D02*
X206698576Y-101108095D01*
X206698576Y-101108095D02*
X206746195Y-101298571D01*
X206746195Y-101298571D02*
X206746195Y-101536666D01*
X206746195Y-101536666D02*
X206698576Y-101727142D01*
X206698576Y-101727142D02*
X206650957Y-101822380D01*
X206650957Y-101822380D02*
X206603338Y-101870000D01*
X206603338Y-101870000D02*
X206508100Y-101917619D01*
X206508100Y-101917619D02*
X206412862Y-101917619D01*
X206412862Y-101917619D02*
X206317624Y-101870000D01*
X206317624Y-101870000D02*
X206270005Y-101822380D01*
X206270005Y-101822380D02*
X206222386Y-101727142D01*
X206222386Y-101727142D02*
X206174767Y-101536666D01*
X206174767Y-101536666D02*
X206174767Y-101298571D01*
X206174767Y-101298571D02*
X206222386Y-101108095D01*
X206222386Y-101108095D02*
X206270005Y-101012857D01*
X206270005Y-101012857D02*
X206317624Y-100965238D01*
X206317624Y-100965238D02*
X206412862Y-100917619D01*
X214607851Y-130416019D02*
X214274518Y-129939828D01*
X214036423Y-130416019D02*
X214036423Y-129416019D01*
X214036423Y-129416019D02*
X214417375Y-129416019D01*
X214417375Y-129416019D02*
X214512613Y-129463638D01*
X214512613Y-129463638D02*
X214560232Y-129511257D01*
X214560232Y-129511257D02*
X214607851Y-129606495D01*
X214607851Y-129606495D02*
X214607851Y-129749352D01*
X214607851Y-129749352D02*
X214560232Y-129844590D01*
X214560232Y-129844590D02*
X214512613Y-129892209D01*
X214512613Y-129892209D02*
X214417375Y-129939828D01*
X214417375Y-129939828D02*
X214036423Y-129939828D01*
X214988804Y-129511257D02*
X215036423Y-129463638D01*
X215036423Y-129463638D02*
X215131661Y-129416019D01*
X215131661Y-129416019D02*
X215369756Y-129416019D01*
X215369756Y-129416019D02*
X215464994Y-129463638D01*
X215464994Y-129463638D02*
X215512613Y-129511257D01*
X215512613Y-129511257D02*
X215560232Y-129606495D01*
X215560232Y-129606495D02*
X215560232Y-129701733D01*
X215560232Y-129701733D02*
X215512613Y-129844590D01*
X215512613Y-129844590D02*
X214941185Y-130416019D01*
X214941185Y-130416019D02*
X215560232Y-130416019D01*
X216179280Y-129416019D02*
X216274518Y-129416019D01*
X216274518Y-129416019D02*
X216369756Y-129463638D01*
X216369756Y-129463638D02*
X216417375Y-129511257D01*
X216417375Y-129511257D02*
X216464994Y-129606495D01*
X216464994Y-129606495D02*
X216512613Y-129796971D01*
X216512613Y-129796971D02*
X216512613Y-130035066D01*
X216512613Y-130035066D02*
X216464994Y-130225542D01*
X216464994Y-130225542D02*
X216417375Y-130320780D01*
X216417375Y-130320780D02*
X216369756Y-130368400D01*
X216369756Y-130368400D02*
X216274518Y-130416019D01*
X216274518Y-130416019D02*
X216179280Y-130416019D01*
X216179280Y-130416019D02*
X216084042Y-130368400D01*
X216084042Y-130368400D02*
X216036423Y-130320780D01*
X216036423Y-130320780D02*
X215988804Y-130225542D01*
X215988804Y-130225542D02*
X215941185Y-130035066D01*
X215941185Y-130035066D02*
X215941185Y-129796971D01*
X215941185Y-129796971D02*
X215988804Y-129606495D01*
X215988804Y-129606495D02*
X216036423Y-129511257D01*
X216036423Y-129511257D02*
X216084042Y-129463638D01*
X216084042Y-129463638D02*
X216179280Y-129416019D01*
X216988804Y-130416019D02*
X217179280Y-130416019D01*
X217179280Y-130416019D02*
X217274518Y-130368400D01*
X217274518Y-130368400D02*
X217322137Y-130320780D01*
X217322137Y-130320780D02*
X217417375Y-130177923D01*
X217417375Y-130177923D02*
X217464994Y-129987447D01*
X217464994Y-129987447D02*
X217464994Y-129606495D01*
X217464994Y-129606495D02*
X217417375Y-129511257D01*
X217417375Y-129511257D02*
X217369756Y-129463638D01*
X217369756Y-129463638D02*
X217274518Y-129416019D01*
X217274518Y-129416019D02*
X217084042Y-129416019D01*
X217084042Y-129416019D02*
X216988804Y-129463638D01*
X216988804Y-129463638D02*
X216941185Y-129511257D01*
X216941185Y-129511257D02*
X216893566Y-129606495D01*
X216893566Y-129606495D02*
X216893566Y-129844590D01*
X216893566Y-129844590D02*
X216941185Y-129939828D01*
X216941185Y-129939828D02*
X216988804Y-129987447D01*
X216988804Y-129987447D02*
X217084042Y-130035066D01*
X217084042Y-130035066D02*
X217274518Y-130035066D01*
X217274518Y-130035066D02*
X217369756Y-129987447D01*
X217369756Y-129987447D02*
X217417375Y-129939828D01*
X217417375Y-129939828D02*
X217464994Y-129844590D01*
X226210952Y-117046780D02*
X226163333Y-117094400D01*
X226163333Y-117094400D02*
X226020476Y-117142019D01*
X226020476Y-117142019D02*
X225925238Y-117142019D01*
X225925238Y-117142019D02*
X225782381Y-117094400D01*
X225782381Y-117094400D02*
X225687143Y-116999161D01*
X225687143Y-116999161D02*
X225639524Y-116903923D01*
X225639524Y-116903923D02*
X225591905Y-116713447D01*
X225591905Y-116713447D02*
X225591905Y-116570590D01*
X225591905Y-116570590D02*
X225639524Y-116380114D01*
X225639524Y-116380114D02*
X225687143Y-116284876D01*
X225687143Y-116284876D02*
X225782381Y-116189638D01*
X225782381Y-116189638D02*
X225925238Y-116142019D01*
X225925238Y-116142019D02*
X226020476Y-116142019D01*
X226020476Y-116142019D02*
X226163333Y-116189638D01*
X226163333Y-116189638D02*
X226210952Y-116237257D01*
X226591905Y-116237257D02*
X226639524Y-116189638D01*
X226639524Y-116189638D02*
X226734762Y-116142019D01*
X226734762Y-116142019D02*
X226972857Y-116142019D01*
X226972857Y-116142019D02*
X227068095Y-116189638D01*
X227068095Y-116189638D02*
X227115714Y-116237257D01*
X227115714Y-116237257D02*
X227163333Y-116332495D01*
X227163333Y-116332495D02*
X227163333Y-116427733D01*
X227163333Y-116427733D02*
X227115714Y-116570590D01*
X227115714Y-116570590D02*
X226544286Y-117142019D01*
X226544286Y-117142019D02*
X227163333Y-117142019D01*
X227782381Y-116142019D02*
X227877619Y-116142019D01*
X227877619Y-116142019D02*
X227972857Y-116189638D01*
X227972857Y-116189638D02*
X228020476Y-116237257D01*
X228020476Y-116237257D02*
X228068095Y-116332495D01*
X228068095Y-116332495D02*
X228115714Y-116522971D01*
X228115714Y-116522971D02*
X228115714Y-116761066D01*
X228115714Y-116761066D02*
X228068095Y-116951542D01*
X228068095Y-116951542D02*
X228020476Y-117046780D01*
X228020476Y-117046780D02*
X227972857Y-117094400D01*
X227972857Y-117094400D02*
X227877619Y-117142019D01*
X227877619Y-117142019D02*
X227782381Y-117142019D01*
X227782381Y-117142019D02*
X227687143Y-117094400D01*
X227687143Y-117094400D02*
X227639524Y-117046780D01*
X227639524Y-117046780D02*
X227591905Y-116951542D01*
X227591905Y-116951542D02*
X227544286Y-116761066D01*
X227544286Y-116761066D02*
X227544286Y-116522971D01*
X227544286Y-116522971D02*
X227591905Y-116332495D01*
X227591905Y-116332495D02*
X227639524Y-116237257D01*
X227639524Y-116237257D02*
X227687143Y-116189638D01*
X227687143Y-116189638D02*
X227782381Y-116142019D01*
X229068095Y-117142019D02*
X228496667Y-117142019D01*
X228782381Y-117142019D02*
X228782381Y-116142019D01*
X228782381Y-116142019D02*
X228687143Y-116284876D01*
X228687143Y-116284876D02*
X228591905Y-116380114D01*
X228591905Y-116380114D02*
X228496667Y-116427733D01*
X204900352Y-123812019D02*
X204567019Y-123335828D01*
X204328924Y-123812019D02*
X204328924Y-122812019D01*
X204328924Y-122812019D02*
X204709876Y-122812019D01*
X204709876Y-122812019D02*
X204805114Y-122859638D01*
X204805114Y-122859638D02*
X204852733Y-122907257D01*
X204852733Y-122907257D02*
X204900352Y-123002495D01*
X204900352Y-123002495D02*
X204900352Y-123145352D01*
X204900352Y-123145352D02*
X204852733Y-123240590D01*
X204852733Y-123240590D02*
X204805114Y-123288209D01*
X204805114Y-123288209D02*
X204709876Y-123335828D01*
X204709876Y-123335828D02*
X204328924Y-123335828D01*
X205281305Y-122907257D02*
X205328924Y-122859638D01*
X205328924Y-122859638D02*
X205424162Y-122812019D01*
X205424162Y-122812019D02*
X205662257Y-122812019D01*
X205662257Y-122812019D02*
X205757495Y-122859638D01*
X205757495Y-122859638D02*
X205805114Y-122907257D01*
X205805114Y-122907257D02*
X205852733Y-123002495D01*
X205852733Y-123002495D02*
X205852733Y-123097733D01*
X205852733Y-123097733D02*
X205805114Y-123240590D01*
X205805114Y-123240590D02*
X205233686Y-123812019D01*
X205233686Y-123812019D02*
X205852733Y-123812019D01*
X206471781Y-122812019D02*
X206567019Y-122812019D01*
X206567019Y-122812019D02*
X206662257Y-122859638D01*
X206662257Y-122859638D02*
X206709876Y-122907257D01*
X206709876Y-122907257D02*
X206757495Y-123002495D01*
X206757495Y-123002495D02*
X206805114Y-123192971D01*
X206805114Y-123192971D02*
X206805114Y-123431066D01*
X206805114Y-123431066D02*
X206757495Y-123621542D01*
X206757495Y-123621542D02*
X206709876Y-123716780D01*
X206709876Y-123716780D02*
X206662257Y-123764400D01*
X206662257Y-123764400D02*
X206567019Y-123812019D01*
X206567019Y-123812019D02*
X206471781Y-123812019D01*
X206471781Y-123812019D02*
X206376543Y-123764400D01*
X206376543Y-123764400D02*
X206328924Y-123716780D01*
X206328924Y-123716780D02*
X206281305Y-123621542D01*
X206281305Y-123621542D02*
X206233686Y-123431066D01*
X206233686Y-123431066D02*
X206233686Y-123192971D01*
X206233686Y-123192971D02*
X206281305Y-123002495D01*
X206281305Y-123002495D02*
X206328924Y-122907257D01*
X206328924Y-122907257D02*
X206376543Y-122859638D01*
X206376543Y-122859638D02*
X206471781Y-122812019D01*
X207138448Y-122812019D02*
X207805114Y-122812019D01*
X207805114Y-122812019D02*
X207376543Y-123812019D01*
X204849552Y-97853619D02*
X204516219Y-97377428D01*
X204278124Y-97853619D02*
X204278124Y-96853619D01*
X204278124Y-96853619D02*
X204659076Y-96853619D01*
X204659076Y-96853619D02*
X204754314Y-96901238D01*
X204754314Y-96901238D02*
X204801933Y-96948857D01*
X204801933Y-96948857D02*
X204849552Y-97044095D01*
X204849552Y-97044095D02*
X204849552Y-97186952D01*
X204849552Y-97186952D02*
X204801933Y-97282190D01*
X204801933Y-97282190D02*
X204754314Y-97329809D01*
X204754314Y-97329809D02*
X204659076Y-97377428D01*
X204659076Y-97377428D02*
X204278124Y-97377428D01*
X205182886Y-96853619D02*
X205801933Y-96853619D01*
X205801933Y-96853619D02*
X205468600Y-97234571D01*
X205468600Y-97234571D02*
X205611457Y-97234571D01*
X205611457Y-97234571D02*
X205706695Y-97282190D01*
X205706695Y-97282190D02*
X205754314Y-97329809D01*
X205754314Y-97329809D02*
X205801933Y-97425047D01*
X205801933Y-97425047D02*
X205801933Y-97663142D01*
X205801933Y-97663142D02*
X205754314Y-97758380D01*
X205754314Y-97758380D02*
X205706695Y-97806000D01*
X205706695Y-97806000D02*
X205611457Y-97853619D01*
X205611457Y-97853619D02*
X205325743Y-97853619D01*
X205325743Y-97853619D02*
X205230505Y-97806000D01*
X205230505Y-97806000D02*
X205182886Y-97758380D01*
X206420981Y-96853619D02*
X206516219Y-96853619D01*
X206516219Y-96853619D02*
X206611457Y-96901238D01*
X206611457Y-96901238D02*
X206659076Y-96948857D01*
X206659076Y-96948857D02*
X206706695Y-97044095D01*
X206706695Y-97044095D02*
X206754314Y-97234571D01*
X206754314Y-97234571D02*
X206754314Y-97472666D01*
X206754314Y-97472666D02*
X206706695Y-97663142D01*
X206706695Y-97663142D02*
X206659076Y-97758380D01*
X206659076Y-97758380D02*
X206611457Y-97806000D01*
X206611457Y-97806000D02*
X206516219Y-97853619D01*
X206516219Y-97853619D02*
X206420981Y-97853619D01*
X206420981Y-97853619D02*
X206325743Y-97806000D01*
X206325743Y-97806000D02*
X206278124Y-97758380D01*
X206278124Y-97758380D02*
X206230505Y-97663142D01*
X206230505Y-97663142D02*
X206182886Y-97472666D01*
X206182886Y-97472666D02*
X206182886Y-97234571D01*
X206182886Y-97234571D02*
X206230505Y-97044095D01*
X206230505Y-97044095D02*
X206278124Y-96948857D01*
X206278124Y-96948857D02*
X206325743Y-96901238D01*
X206325743Y-96901238D02*
X206420981Y-96853619D01*
X207087648Y-96853619D02*
X207754314Y-96853619D01*
X207754314Y-96853619D02*
X207325743Y-97853619D01*
X207226669Y-94413247D02*
X206750478Y-94746580D01*
X207226669Y-94984675D02*
X206226669Y-94984675D01*
X206226669Y-94984675D02*
X206226669Y-94603723D01*
X206226669Y-94603723D02*
X206274288Y-94508485D01*
X206274288Y-94508485D02*
X206321907Y-94460866D01*
X206321907Y-94460866D02*
X206417145Y-94413247D01*
X206417145Y-94413247D02*
X206560002Y-94413247D01*
X206560002Y-94413247D02*
X206655240Y-94460866D01*
X206655240Y-94460866D02*
X206702859Y-94508485D01*
X206702859Y-94508485D02*
X206750478Y-94603723D01*
X206750478Y-94603723D02*
X206750478Y-94984675D01*
X206226669Y-94079913D02*
X206226669Y-93460866D01*
X206226669Y-93460866D02*
X206607621Y-93794199D01*
X206607621Y-93794199D02*
X206607621Y-93651342D01*
X206607621Y-93651342D02*
X206655240Y-93556104D01*
X206655240Y-93556104D02*
X206702859Y-93508485D01*
X206702859Y-93508485D02*
X206798097Y-93460866D01*
X206798097Y-93460866D02*
X207036192Y-93460866D01*
X207036192Y-93460866D02*
X207131430Y-93508485D01*
X207131430Y-93508485D02*
X207179050Y-93556104D01*
X207179050Y-93556104D02*
X207226669Y-93651342D01*
X207226669Y-93651342D02*
X207226669Y-93937056D01*
X207226669Y-93937056D02*
X207179050Y-94032294D01*
X207179050Y-94032294D02*
X207131430Y-94079913D01*
X206226669Y-92841818D02*
X206226669Y-92746580D01*
X206226669Y-92746580D02*
X206274288Y-92651342D01*
X206274288Y-92651342D02*
X206321907Y-92603723D01*
X206321907Y-92603723D02*
X206417145Y-92556104D01*
X206417145Y-92556104D02*
X206607621Y-92508485D01*
X206607621Y-92508485D02*
X206845716Y-92508485D01*
X206845716Y-92508485D02*
X207036192Y-92556104D01*
X207036192Y-92556104D02*
X207131430Y-92603723D01*
X207131430Y-92603723D02*
X207179050Y-92651342D01*
X207179050Y-92651342D02*
X207226669Y-92746580D01*
X207226669Y-92746580D02*
X207226669Y-92841818D01*
X207226669Y-92841818D02*
X207179050Y-92937056D01*
X207179050Y-92937056D02*
X207131430Y-92984675D01*
X207131430Y-92984675D02*
X207036192Y-93032294D01*
X207036192Y-93032294D02*
X206845716Y-93079913D01*
X206845716Y-93079913D02*
X206607621Y-93079913D01*
X206607621Y-93079913D02*
X206417145Y-93032294D01*
X206417145Y-93032294D02*
X206321907Y-92984675D01*
X206321907Y-92984675D02*
X206274288Y-92937056D01*
X206274288Y-92937056D02*
X206226669Y-92841818D01*
X206226669Y-91651342D02*
X206226669Y-91841818D01*
X206226669Y-91841818D02*
X206274288Y-91937056D01*
X206274288Y-91937056D02*
X206321907Y-91984675D01*
X206321907Y-91984675D02*
X206464764Y-92079913D01*
X206464764Y-92079913D02*
X206655240Y-92127532D01*
X206655240Y-92127532D02*
X207036192Y-92127532D01*
X207036192Y-92127532D02*
X207131430Y-92079913D01*
X207131430Y-92079913D02*
X207179050Y-92032294D01*
X207179050Y-92032294D02*
X207226669Y-91937056D01*
X207226669Y-91937056D02*
X207226669Y-91746580D01*
X207226669Y-91746580D02*
X207179050Y-91651342D01*
X207179050Y-91651342D02*
X207131430Y-91603723D01*
X207131430Y-91603723D02*
X207036192Y-91556104D01*
X207036192Y-91556104D02*
X206798097Y-91556104D01*
X206798097Y-91556104D02*
X206702859Y-91603723D01*
X206702859Y-91603723D02*
X206655240Y-91651342D01*
X206655240Y-91651342D02*
X206607621Y-91746580D01*
X206607621Y-91746580D02*
X206607621Y-91937056D01*
X206607621Y-91937056D02*
X206655240Y-92032294D01*
X206655240Y-92032294D02*
X206702859Y-92079913D01*
X206702859Y-92079913D02*
X206798097Y-92127532D01*
X209897814Y-102949619D02*
X209897814Y-103759142D01*
X209897814Y-103759142D02*
X209945433Y-103854380D01*
X209945433Y-103854380D02*
X209993052Y-103902000D01*
X209993052Y-103902000D02*
X210088290Y-103949619D01*
X210088290Y-103949619D02*
X210278766Y-103949619D01*
X210278766Y-103949619D02*
X210374004Y-103902000D01*
X210374004Y-103902000D02*
X210421623Y-103854380D01*
X210421623Y-103854380D02*
X210469242Y-103759142D01*
X210469242Y-103759142D02*
X210469242Y-102949619D01*
X210850195Y-102949619D02*
X211469242Y-102949619D01*
X211469242Y-102949619D02*
X211135909Y-103330571D01*
X211135909Y-103330571D02*
X211278766Y-103330571D01*
X211278766Y-103330571D02*
X211374004Y-103378190D01*
X211374004Y-103378190D02*
X211421623Y-103425809D01*
X211421623Y-103425809D02*
X211469242Y-103521047D01*
X211469242Y-103521047D02*
X211469242Y-103759142D01*
X211469242Y-103759142D02*
X211421623Y-103854380D01*
X211421623Y-103854380D02*
X211374004Y-103902000D01*
X211374004Y-103902000D02*
X211278766Y-103949619D01*
X211278766Y-103949619D02*
X210993052Y-103949619D01*
X210993052Y-103949619D02*
X210897814Y-103902000D01*
X210897814Y-103902000D02*
X210850195Y-103854380D01*
X212088290Y-102949619D02*
X212183528Y-102949619D01*
X212183528Y-102949619D02*
X212278766Y-102997238D01*
X212278766Y-102997238D02*
X212326385Y-103044857D01*
X212326385Y-103044857D02*
X212374004Y-103140095D01*
X212374004Y-103140095D02*
X212421623Y-103330571D01*
X212421623Y-103330571D02*
X212421623Y-103568666D01*
X212421623Y-103568666D02*
X212374004Y-103759142D01*
X212374004Y-103759142D02*
X212326385Y-103854380D01*
X212326385Y-103854380D02*
X212278766Y-103902000D01*
X212278766Y-103902000D02*
X212183528Y-103949619D01*
X212183528Y-103949619D02*
X212088290Y-103949619D01*
X212088290Y-103949619D02*
X211993052Y-103902000D01*
X211993052Y-103902000D02*
X211945433Y-103854380D01*
X211945433Y-103854380D02*
X211897814Y-103759142D01*
X211897814Y-103759142D02*
X211850195Y-103568666D01*
X211850195Y-103568666D02*
X211850195Y-103330571D01*
X211850195Y-103330571D02*
X211897814Y-103140095D01*
X211897814Y-103140095D02*
X211945433Y-103044857D01*
X211945433Y-103044857D02*
X211993052Y-102997238D01*
X211993052Y-102997238D02*
X212088290Y-102949619D01*
X212754957Y-102949619D02*
X213374004Y-102949619D01*
X213374004Y-102949619D02*
X213040671Y-103330571D01*
X213040671Y-103330571D02*
X213183528Y-103330571D01*
X213183528Y-103330571D02*
X213278766Y-103378190D01*
X213278766Y-103378190D02*
X213326385Y-103425809D01*
X213326385Y-103425809D02*
X213374004Y-103521047D01*
X213374004Y-103521047D02*
X213374004Y-103759142D01*
X213374004Y-103759142D02*
X213326385Y-103854380D01*
X213326385Y-103854380D02*
X213278766Y-103902000D01*
X213278766Y-103902000D02*
X213183528Y-103949619D01*
X213183528Y-103949619D02*
X212897814Y-103949619D01*
X212897814Y-103949619D02*
X212802576Y-103902000D01*
X212802576Y-103902000D02*
X212754957Y-103854380D01*
X206225852Y-129812779D02*
X206178233Y-129860399D01*
X206178233Y-129860399D02*
X206035376Y-129908018D01*
X206035376Y-129908018D02*
X205940138Y-129908018D01*
X205940138Y-129908018D02*
X205797281Y-129860399D01*
X205797281Y-129860399D02*
X205702043Y-129765160D01*
X205702043Y-129765160D02*
X205654424Y-129669922D01*
X205654424Y-129669922D02*
X205606805Y-129479446D01*
X205606805Y-129479446D02*
X205606805Y-129336589D01*
X205606805Y-129336589D02*
X205654424Y-129146113D01*
X205654424Y-129146113D02*
X205702043Y-129050875D01*
X205702043Y-129050875D02*
X205797281Y-128955637D01*
X205797281Y-128955637D02*
X205940138Y-128908018D01*
X205940138Y-128908018D02*
X206035376Y-128908018D01*
X206035376Y-128908018D02*
X206178233Y-128955637D01*
X206178233Y-128955637D02*
X206225852Y-129003256D01*
X206606805Y-129003256D02*
X206654424Y-128955637D01*
X206654424Y-128955637D02*
X206749662Y-128908018D01*
X206749662Y-128908018D02*
X206987757Y-128908018D01*
X206987757Y-128908018D02*
X207082995Y-128955637D01*
X207082995Y-128955637D02*
X207130614Y-129003256D01*
X207130614Y-129003256D02*
X207178233Y-129098494D01*
X207178233Y-129098494D02*
X207178233Y-129193732D01*
X207178233Y-129193732D02*
X207130614Y-129336589D01*
X207130614Y-129336589D02*
X206559186Y-129908018D01*
X206559186Y-129908018D02*
X207178233Y-129908018D01*
X207797281Y-128908018D02*
X207892519Y-128908018D01*
X207892519Y-128908018D02*
X207987757Y-128955637D01*
X207987757Y-128955637D02*
X208035376Y-129003256D01*
X208035376Y-129003256D02*
X208082995Y-129098494D01*
X208082995Y-129098494D02*
X208130614Y-129288970D01*
X208130614Y-129288970D02*
X208130614Y-129527065D01*
X208130614Y-129527065D02*
X208082995Y-129717541D01*
X208082995Y-129717541D02*
X208035376Y-129812779D01*
X208035376Y-129812779D02*
X207987757Y-129860399D01*
X207987757Y-129860399D02*
X207892519Y-129908018D01*
X207892519Y-129908018D02*
X207797281Y-129908018D01*
X207797281Y-129908018D02*
X207702043Y-129860399D01*
X207702043Y-129860399D02*
X207654424Y-129812779D01*
X207654424Y-129812779D02*
X207606805Y-129717541D01*
X207606805Y-129717541D02*
X207559186Y-129527065D01*
X207559186Y-129527065D02*
X207559186Y-129288970D01*
X207559186Y-129288970D02*
X207606805Y-129098494D01*
X207606805Y-129098494D02*
X207654424Y-129003256D01*
X207654424Y-129003256D02*
X207702043Y-128955637D01*
X207702043Y-128955637D02*
X207797281Y-128908018D01*
X208463948Y-128908018D02*
X209130614Y-128908018D01*
X209130614Y-128908018D02*
X208702043Y-129908018D01*
X229616452Y-82656819D02*
X229283119Y-82180628D01*
X229045024Y-82656819D02*
X229045024Y-81656819D01*
X229045024Y-81656819D02*
X229425976Y-81656819D01*
X229425976Y-81656819D02*
X229521214Y-81704438D01*
X229521214Y-81704438D02*
X229568833Y-81752057D01*
X229568833Y-81752057D02*
X229616452Y-81847295D01*
X229616452Y-81847295D02*
X229616452Y-81990152D01*
X229616452Y-81990152D02*
X229568833Y-82085390D01*
X229568833Y-82085390D02*
X229521214Y-82133009D01*
X229521214Y-82133009D02*
X229425976Y-82180628D01*
X229425976Y-82180628D02*
X229045024Y-82180628D01*
X230568833Y-82656819D02*
X229997405Y-82656819D01*
X230283119Y-82656819D02*
X230283119Y-81656819D01*
X230283119Y-81656819D02*
X230187881Y-81799676D01*
X230187881Y-81799676D02*
X230092643Y-81894914D01*
X230092643Y-81894914D02*
X229997405Y-81942533D01*
X231187881Y-81656819D02*
X231283119Y-81656819D01*
X231283119Y-81656819D02*
X231378357Y-81704438D01*
X231378357Y-81704438D02*
X231425976Y-81752057D01*
X231425976Y-81752057D02*
X231473595Y-81847295D01*
X231473595Y-81847295D02*
X231521214Y-82037771D01*
X231521214Y-82037771D02*
X231521214Y-82275866D01*
X231521214Y-82275866D02*
X231473595Y-82466342D01*
X231473595Y-82466342D02*
X231425976Y-82561580D01*
X231425976Y-82561580D02*
X231378357Y-82609200D01*
X231378357Y-82609200D02*
X231283119Y-82656819D01*
X231283119Y-82656819D02*
X231187881Y-82656819D01*
X231187881Y-82656819D02*
X231092643Y-82609200D01*
X231092643Y-82609200D02*
X231045024Y-82561580D01*
X231045024Y-82561580D02*
X230997405Y-82466342D01*
X230997405Y-82466342D02*
X230949786Y-82275866D01*
X230949786Y-82275866D02*
X230949786Y-82037771D01*
X230949786Y-82037771D02*
X230997405Y-81847295D01*
X230997405Y-81847295D02*
X231045024Y-81752057D01*
X231045024Y-81752057D02*
X231092643Y-81704438D01*
X231092643Y-81704438D02*
X231187881Y-81656819D01*
X232473595Y-82656819D02*
X231902167Y-82656819D01*
X232187881Y-82656819D02*
X232187881Y-81656819D01*
X232187881Y-81656819D02*
X232092643Y-81799676D01*
X232092643Y-81799676D02*
X231997405Y-81894914D01*
X231997405Y-81894914D02*
X231902167Y-81942533D01*
X206007469Y-120371647D02*
X205531278Y-120704980D01*
X206007469Y-120943075D02*
X205007469Y-120943075D01*
X205007469Y-120943075D02*
X205007469Y-120562123D01*
X205007469Y-120562123D02*
X205055088Y-120466885D01*
X205055088Y-120466885D02*
X205102707Y-120419266D01*
X205102707Y-120419266D02*
X205197945Y-120371647D01*
X205197945Y-120371647D02*
X205340802Y-120371647D01*
X205340802Y-120371647D02*
X205436040Y-120419266D01*
X205436040Y-120419266D02*
X205483659Y-120466885D01*
X205483659Y-120466885D02*
X205531278Y-120562123D01*
X205531278Y-120562123D02*
X205531278Y-120943075D01*
X205102707Y-119990694D02*
X205055088Y-119943075D01*
X205055088Y-119943075D02*
X205007469Y-119847837D01*
X205007469Y-119847837D02*
X205007469Y-119609742D01*
X205007469Y-119609742D02*
X205055088Y-119514504D01*
X205055088Y-119514504D02*
X205102707Y-119466885D01*
X205102707Y-119466885D02*
X205197945Y-119419266D01*
X205197945Y-119419266D02*
X205293183Y-119419266D01*
X205293183Y-119419266D02*
X205436040Y-119466885D01*
X205436040Y-119466885D02*
X206007469Y-120038313D01*
X206007469Y-120038313D02*
X206007469Y-119419266D01*
X205007469Y-118800218D02*
X205007469Y-118704980D01*
X205007469Y-118704980D02*
X205055088Y-118609742D01*
X205055088Y-118609742D02*
X205102707Y-118562123D01*
X205102707Y-118562123D02*
X205197945Y-118514504D01*
X205197945Y-118514504D02*
X205388421Y-118466885D01*
X205388421Y-118466885D02*
X205626516Y-118466885D01*
X205626516Y-118466885D02*
X205816992Y-118514504D01*
X205816992Y-118514504D02*
X205912230Y-118562123D01*
X205912230Y-118562123D02*
X205959850Y-118609742D01*
X205959850Y-118609742D02*
X206007469Y-118704980D01*
X206007469Y-118704980D02*
X206007469Y-118800218D01*
X206007469Y-118800218D02*
X205959850Y-118895456D01*
X205959850Y-118895456D02*
X205912230Y-118943075D01*
X205912230Y-118943075D02*
X205816992Y-118990694D01*
X205816992Y-118990694D02*
X205626516Y-119038313D01*
X205626516Y-119038313D02*
X205388421Y-119038313D01*
X205388421Y-119038313D02*
X205197945Y-118990694D01*
X205197945Y-118990694D02*
X205102707Y-118943075D01*
X205102707Y-118943075D02*
X205055088Y-118895456D01*
X205055088Y-118895456D02*
X205007469Y-118800218D01*
X205340802Y-117609742D02*
X206007469Y-117609742D01*
X204959850Y-117847837D02*
X205674135Y-118085932D01*
X205674135Y-118085932D02*
X205674135Y-117466885D01*
X209948614Y-128908019D02*
X209948614Y-129717542D01*
X209948614Y-129717542D02*
X209996233Y-129812780D01*
X209996233Y-129812780D02*
X210043852Y-129860400D01*
X210043852Y-129860400D02*
X210139090Y-129908019D01*
X210139090Y-129908019D02*
X210329566Y-129908019D01*
X210329566Y-129908019D02*
X210424804Y-129860400D01*
X210424804Y-129860400D02*
X210472423Y-129812780D01*
X210472423Y-129812780D02*
X210520042Y-129717542D01*
X210520042Y-129717542D02*
X210520042Y-128908019D01*
X210948614Y-129003257D02*
X210996233Y-128955638D01*
X210996233Y-128955638D02*
X211091471Y-128908019D01*
X211091471Y-128908019D02*
X211329566Y-128908019D01*
X211329566Y-128908019D02*
X211424804Y-128955638D01*
X211424804Y-128955638D02*
X211472423Y-129003257D01*
X211472423Y-129003257D02*
X211520042Y-129098495D01*
X211520042Y-129098495D02*
X211520042Y-129193733D01*
X211520042Y-129193733D02*
X211472423Y-129336590D01*
X211472423Y-129336590D02*
X210900995Y-129908019D01*
X210900995Y-129908019D02*
X211520042Y-129908019D01*
X212139090Y-128908019D02*
X212234328Y-128908019D01*
X212234328Y-128908019D02*
X212329566Y-128955638D01*
X212329566Y-128955638D02*
X212377185Y-129003257D01*
X212377185Y-129003257D02*
X212424804Y-129098495D01*
X212424804Y-129098495D02*
X212472423Y-129288971D01*
X212472423Y-129288971D02*
X212472423Y-129527066D01*
X212472423Y-129527066D02*
X212424804Y-129717542D01*
X212424804Y-129717542D02*
X212377185Y-129812780D01*
X212377185Y-129812780D02*
X212329566Y-129860400D01*
X212329566Y-129860400D02*
X212234328Y-129908019D01*
X212234328Y-129908019D02*
X212139090Y-129908019D01*
X212139090Y-129908019D02*
X212043852Y-129860400D01*
X212043852Y-129860400D02*
X211996233Y-129812780D01*
X211996233Y-129812780D02*
X211948614Y-129717542D01*
X211948614Y-129717542D02*
X211900995Y-129527066D01*
X211900995Y-129527066D02*
X211900995Y-129288971D01*
X211900995Y-129288971D02*
X211948614Y-129098495D01*
X211948614Y-129098495D02*
X211996233Y-129003257D01*
X211996233Y-129003257D02*
X212043852Y-128955638D01*
X212043852Y-128955638D02*
X212139090Y-128908019D01*
X212805757Y-128908019D02*
X213424804Y-128908019D01*
X213424804Y-128908019D02*
X213091471Y-129288971D01*
X213091471Y-129288971D02*
X213234328Y-129288971D01*
X213234328Y-129288971D02*
X213329566Y-129336590D01*
X213329566Y-129336590D02*
X213377185Y-129384209D01*
X213377185Y-129384209D02*
X213424804Y-129479447D01*
X213424804Y-129479447D02*
X213424804Y-129717542D01*
X213424804Y-129717542D02*
X213377185Y-129812780D01*
X213377185Y-129812780D02*
X213329566Y-129860400D01*
X213329566Y-129860400D02*
X213234328Y-129908019D01*
X213234328Y-129908019D02*
X212948614Y-129908019D01*
X212948614Y-129908019D02*
X212853376Y-129860400D01*
X212853376Y-129860400D02*
X212805757Y-129812780D01*
X214557052Y-104457619D02*
X214223719Y-103981428D01*
X213985624Y-104457619D02*
X213985624Y-103457619D01*
X213985624Y-103457619D02*
X214366576Y-103457619D01*
X214366576Y-103457619D02*
X214461814Y-103505238D01*
X214461814Y-103505238D02*
X214509433Y-103552857D01*
X214509433Y-103552857D02*
X214557052Y-103648095D01*
X214557052Y-103648095D02*
X214557052Y-103790952D01*
X214557052Y-103790952D02*
X214509433Y-103886190D01*
X214509433Y-103886190D02*
X214461814Y-103933809D01*
X214461814Y-103933809D02*
X214366576Y-103981428D01*
X214366576Y-103981428D02*
X213985624Y-103981428D01*
X214890386Y-103457619D02*
X215509433Y-103457619D01*
X215509433Y-103457619D02*
X215176100Y-103838571D01*
X215176100Y-103838571D02*
X215318957Y-103838571D01*
X215318957Y-103838571D02*
X215414195Y-103886190D01*
X215414195Y-103886190D02*
X215461814Y-103933809D01*
X215461814Y-103933809D02*
X215509433Y-104029047D01*
X215509433Y-104029047D02*
X215509433Y-104267142D01*
X215509433Y-104267142D02*
X215461814Y-104362380D01*
X215461814Y-104362380D02*
X215414195Y-104410000D01*
X215414195Y-104410000D02*
X215318957Y-104457619D01*
X215318957Y-104457619D02*
X215033243Y-104457619D01*
X215033243Y-104457619D02*
X214938005Y-104410000D01*
X214938005Y-104410000D02*
X214890386Y-104362380D01*
X216128481Y-103457619D02*
X216223719Y-103457619D01*
X216223719Y-103457619D02*
X216318957Y-103505238D01*
X216318957Y-103505238D02*
X216366576Y-103552857D01*
X216366576Y-103552857D02*
X216414195Y-103648095D01*
X216414195Y-103648095D02*
X216461814Y-103838571D01*
X216461814Y-103838571D02*
X216461814Y-104076666D01*
X216461814Y-104076666D02*
X216414195Y-104267142D01*
X216414195Y-104267142D02*
X216366576Y-104362380D01*
X216366576Y-104362380D02*
X216318957Y-104410000D01*
X216318957Y-104410000D02*
X216223719Y-104457619D01*
X216223719Y-104457619D02*
X216128481Y-104457619D01*
X216128481Y-104457619D02*
X216033243Y-104410000D01*
X216033243Y-104410000D02*
X215985624Y-104362380D01*
X215985624Y-104362380D02*
X215938005Y-104267142D01*
X215938005Y-104267142D02*
X215890386Y-104076666D01*
X215890386Y-104076666D02*
X215890386Y-103838571D01*
X215890386Y-103838571D02*
X215938005Y-103648095D01*
X215938005Y-103648095D02*
X215985624Y-103552857D01*
X215985624Y-103552857D02*
X216033243Y-103505238D01*
X216033243Y-103505238D02*
X216128481Y-103457619D01*
X216938005Y-104457619D02*
X217128481Y-104457619D01*
X217128481Y-104457619D02*
X217223719Y-104410000D01*
X217223719Y-104410000D02*
X217271338Y-104362380D01*
X217271338Y-104362380D02*
X217366576Y-104219523D01*
X217366576Y-104219523D02*
X217414195Y-104029047D01*
X217414195Y-104029047D02*
X217414195Y-103648095D01*
X217414195Y-103648095D02*
X217366576Y-103552857D01*
X217366576Y-103552857D02*
X217318957Y-103505238D01*
X217318957Y-103505238D02*
X217223719Y-103457619D01*
X217223719Y-103457619D02*
X217033243Y-103457619D01*
X217033243Y-103457619D02*
X216938005Y-103505238D01*
X216938005Y-103505238D02*
X216890386Y-103552857D01*
X216890386Y-103552857D02*
X216842767Y-103648095D01*
X216842767Y-103648095D02*
X216842767Y-103886190D01*
X216842767Y-103886190D02*
X216890386Y-103981428D01*
X216890386Y-103981428D02*
X216938005Y-104029047D01*
X216938005Y-104029047D02*
X217033243Y-104076666D01*
X217033243Y-104076666D02*
X217223719Y-104076666D01*
X217223719Y-104076666D02*
X217318957Y-104029047D01*
X217318957Y-104029047D02*
X217366576Y-103981428D01*
X217366576Y-103981428D02*
X217414195Y-103886190D01*
X217197719Y-128286247D02*
X216721528Y-128619580D01*
X217197719Y-128857675D02*
X216197719Y-128857675D01*
X216197719Y-128857675D02*
X216197719Y-128476723D01*
X216197719Y-128476723D02*
X216245338Y-128381485D01*
X216245338Y-128381485D02*
X216292957Y-128333866D01*
X216292957Y-128333866D02*
X216388195Y-128286247D01*
X216388195Y-128286247D02*
X216531052Y-128286247D01*
X216531052Y-128286247D02*
X216626290Y-128333866D01*
X216626290Y-128333866D02*
X216673909Y-128381485D01*
X216673909Y-128381485D02*
X216721528Y-128476723D01*
X216721528Y-128476723D02*
X216721528Y-128857675D01*
X216292957Y-127905294D02*
X216245338Y-127857675D01*
X216245338Y-127857675D02*
X216197719Y-127762437D01*
X216197719Y-127762437D02*
X216197719Y-127524342D01*
X216197719Y-127524342D02*
X216245338Y-127429104D01*
X216245338Y-127429104D02*
X216292957Y-127381485D01*
X216292957Y-127381485D02*
X216388195Y-127333866D01*
X216388195Y-127333866D02*
X216483433Y-127333866D01*
X216483433Y-127333866D02*
X216626290Y-127381485D01*
X216626290Y-127381485D02*
X217197719Y-127952913D01*
X217197719Y-127952913D02*
X217197719Y-127333866D01*
X216197719Y-126714818D02*
X216197719Y-126619580D01*
X216197719Y-126619580D02*
X216245338Y-126524342D01*
X216245338Y-126524342D02*
X216292957Y-126476723D01*
X216292957Y-126476723D02*
X216388195Y-126429104D01*
X216388195Y-126429104D02*
X216578671Y-126381485D01*
X216578671Y-126381485D02*
X216816766Y-126381485D01*
X216816766Y-126381485D02*
X217007242Y-126429104D01*
X217007242Y-126429104D02*
X217102480Y-126476723D01*
X217102480Y-126476723D02*
X217150100Y-126524342D01*
X217150100Y-126524342D02*
X217197719Y-126619580D01*
X217197719Y-126619580D02*
X217197719Y-126714818D01*
X217197719Y-126714818D02*
X217150100Y-126810056D01*
X217150100Y-126810056D02*
X217102480Y-126857675D01*
X217102480Y-126857675D02*
X217007242Y-126905294D01*
X217007242Y-126905294D02*
X216816766Y-126952913D01*
X216816766Y-126952913D02*
X216578671Y-126952913D01*
X216578671Y-126952913D02*
X216388195Y-126905294D01*
X216388195Y-126905294D02*
X216292957Y-126857675D01*
X216292957Y-126857675D02*
X216245338Y-126810056D01*
X216245338Y-126810056D02*
X216197719Y-126714818D01*
X216626290Y-125810056D02*
X216578671Y-125905294D01*
X216578671Y-125905294D02*
X216531052Y-125952913D01*
X216531052Y-125952913D02*
X216435814Y-126000532D01*
X216435814Y-126000532D02*
X216388195Y-126000532D01*
X216388195Y-126000532D02*
X216292957Y-125952913D01*
X216292957Y-125952913D02*
X216245338Y-125905294D01*
X216245338Y-125905294D02*
X216197719Y-125810056D01*
X216197719Y-125810056D02*
X216197719Y-125619580D01*
X216197719Y-125619580D02*
X216245338Y-125524342D01*
X216245338Y-125524342D02*
X216292957Y-125476723D01*
X216292957Y-125476723D02*
X216388195Y-125429104D01*
X216388195Y-125429104D02*
X216435814Y-125429104D01*
X216435814Y-125429104D02*
X216531052Y-125476723D01*
X216531052Y-125476723D02*
X216578671Y-125524342D01*
X216578671Y-125524342D02*
X216626290Y-125619580D01*
X216626290Y-125619580D02*
X216626290Y-125810056D01*
X216626290Y-125810056D02*
X216673909Y-125905294D01*
X216673909Y-125905294D02*
X216721528Y-125952913D01*
X216721528Y-125952913D02*
X216816766Y-126000532D01*
X216816766Y-126000532D02*
X217007242Y-126000532D01*
X217007242Y-126000532D02*
X217102480Y-125952913D01*
X217102480Y-125952913D02*
X217150100Y-125905294D01*
X217150100Y-125905294D02*
X217197719Y-125810056D01*
X217197719Y-125810056D02*
X217197719Y-125619580D01*
X217197719Y-125619580D02*
X217150100Y-125524342D01*
X217150100Y-125524342D02*
X217102480Y-125476723D01*
X217102480Y-125476723D02*
X217007242Y-125429104D01*
X217007242Y-125429104D02*
X216816766Y-125429104D01*
X216816766Y-125429104D02*
X216721528Y-125476723D01*
X216721528Y-125476723D02*
X216673909Y-125524342D01*
X216673909Y-125524342D02*
X216626290Y-125619580D01*
X203939852Y-127876019D02*
X203606519Y-127399828D01*
X203368424Y-127876019D02*
X203368424Y-126876019D01*
X203368424Y-126876019D02*
X203749376Y-126876019D01*
X203749376Y-126876019D02*
X203844614Y-126923638D01*
X203844614Y-126923638D02*
X203892233Y-126971257D01*
X203892233Y-126971257D02*
X203939852Y-127066495D01*
X203939852Y-127066495D02*
X203939852Y-127209352D01*
X203939852Y-127209352D02*
X203892233Y-127304590D01*
X203892233Y-127304590D02*
X203844614Y-127352209D01*
X203844614Y-127352209D02*
X203749376Y-127399828D01*
X203749376Y-127399828D02*
X203368424Y-127399828D01*
X204320805Y-126971257D02*
X204368424Y-126923638D01*
X204368424Y-126923638D02*
X204463662Y-126876019D01*
X204463662Y-126876019D02*
X204701757Y-126876019D01*
X204701757Y-126876019D02*
X204796995Y-126923638D01*
X204796995Y-126923638D02*
X204844614Y-126971257D01*
X204844614Y-126971257D02*
X204892233Y-127066495D01*
X204892233Y-127066495D02*
X204892233Y-127161733D01*
X204892233Y-127161733D02*
X204844614Y-127304590D01*
X204844614Y-127304590D02*
X204273186Y-127876019D01*
X204273186Y-127876019D02*
X204892233Y-127876019D01*
X205844614Y-127876019D02*
X205273186Y-127876019D01*
X205558900Y-127876019D02*
X205558900Y-126876019D01*
X205558900Y-126876019D02*
X205463662Y-127018876D01*
X205463662Y-127018876D02*
X205368424Y-127114114D01*
X205368424Y-127114114D02*
X205273186Y-127161733D01*
X206463662Y-126876019D02*
X206558900Y-126876019D01*
X206558900Y-126876019D02*
X206654138Y-126923638D01*
X206654138Y-126923638D02*
X206701757Y-126971257D01*
X206701757Y-126971257D02*
X206749376Y-127066495D01*
X206749376Y-127066495D02*
X206796995Y-127256971D01*
X206796995Y-127256971D02*
X206796995Y-127495066D01*
X206796995Y-127495066D02*
X206749376Y-127685542D01*
X206749376Y-127685542D02*
X206701757Y-127780780D01*
X206701757Y-127780780D02*
X206654138Y-127828400D01*
X206654138Y-127828400D02*
X206558900Y-127876019D01*
X206558900Y-127876019D02*
X206463662Y-127876019D01*
X206463662Y-127876019D02*
X206368424Y-127828400D01*
X206368424Y-127828400D02*
X206320805Y-127780780D01*
X206320805Y-127780780D02*
X206273186Y-127685542D01*
X206273186Y-127685542D02*
X206225567Y-127495066D01*
X206225567Y-127495066D02*
X206225567Y-127256971D01*
X206225567Y-127256971D02*
X206273186Y-127066495D01*
X206273186Y-127066495D02*
X206320805Y-126971257D01*
X206320805Y-126971257D02*
X206368424Y-126923638D01*
X206368424Y-126923638D02*
X206463662Y-126876019D01*
X215796952Y-91265619D02*
X215463619Y-90789428D01*
X215225524Y-91265619D02*
X215225524Y-90265619D01*
X215225524Y-90265619D02*
X215606476Y-90265619D01*
X215606476Y-90265619D02*
X215701714Y-90313238D01*
X215701714Y-90313238D02*
X215749333Y-90360857D01*
X215749333Y-90360857D02*
X215796952Y-90456095D01*
X215796952Y-90456095D02*
X215796952Y-90598952D01*
X215796952Y-90598952D02*
X215749333Y-90694190D01*
X215749333Y-90694190D02*
X215701714Y-90741809D01*
X215701714Y-90741809D02*
X215606476Y-90789428D01*
X215606476Y-90789428D02*
X215225524Y-90789428D01*
X216130286Y-90265619D02*
X216749333Y-90265619D01*
X216749333Y-90265619D02*
X216416000Y-90646571D01*
X216416000Y-90646571D02*
X216558857Y-90646571D01*
X216558857Y-90646571D02*
X216654095Y-90694190D01*
X216654095Y-90694190D02*
X216701714Y-90741809D01*
X216701714Y-90741809D02*
X216749333Y-90837047D01*
X216749333Y-90837047D02*
X216749333Y-91075142D01*
X216749333Y-91075142D02*
X216701714Y-91170380D01*
X216701714Y-91170380D02*
X216654095Y-91218000D01*
X216654095Y-91218000D02*
X216558857Y-91265619D01*
X216558857Y-91265619D02*
X216273143Y-91265619D01*
X216273143Y-91265619D02*
X216177905Y-91218000D01*
X216177905Y-91218000D02*
X216130286Y-91170380D01*
X217368381Y-90265619D02*
X217463619Y-90265619D01*
X217463619Y-90265619D02*
X217558857Y-90313238D01*
X217558857Y-90313238D02*
X217606476Y-90360857D01*
X217606476Y-90360857D02*
X217654095Y-90456095D01*
X217654095Y-90456095D02*
X217701714Y-90646571D01*
X217701714Y-90646571D02*
X217701714Y-90884666D01*
X217701714Y-90884666D02*
X217654095Y-91075142D01*
X217654095Y-91075142D02*
X217606476Y-91170380D01*
X217606476Y-91170380D02*
X217558857Y-91218000D01*
X217558857Y-91218000D02*
X217463619Y-91265619D01*
X217463619Y-91265619D02*
X217368381Y-91265619D01*
X217368381Y-91265619D02*
X217273143Y-91218000D01*
X217273143Y-91218000D02*
X217225524Y-91170380D01*
X217225524Y-91170380D02*
X217177905Y-91075142D01*
X217177905Y-91075142D02*
X217130286Y-90884666D01*
X217130286Y-90884666D02*
X217130286Y-90646571D01*
X217130286Y-90646571D02*
X217177905Y-90456095D01*
X217177905Y-90456095D02*
X217225524Y-90360857D01*
X217225524Y-90360857D02*
X217273143Y-90313238D01*
X217273143Y-90313238D02*
X217368381Y-90265619D01*
X218082667Y-90360857D02*
X218130286Y-90313238D01*
X218130286Y-90313238D02*
X218225524Y-90265619D01*
X218225524Y-90265619D02*
X218463619Y-90265619D01*
X218463619Y-90265619D02*
X218558857Y-90313238D01*
X218558857Y-90313238D02*
X218606476Y-90360857D01*
X218606476Y-90360857D02*
X218654095Y-90456095D01*
X218654095Y-90456095D02*
X218654095Y-90551333D01*
X218654095Y-90551333D02*
X218606476Y-90694190D01*
X218606476Y-90694190D02*
X218035048Y-91265619D01*
X218035048Y-91265619D02*
X218654095Y-91265619D01*
X227734952Y-104086819D02*
X227401619Y-103610628D01*
X227163524Y-104086819D02*
X227163524Y-103086819D01*
X227163524Y-103086819D02*
X227544476Y-103086819D01*
X227544476Y-103086819D02*
X227639714Y-103134438D01*
X227639714Y-103134438D02*
X227687333Y-103182057D01*
X227687333Y-103182057D02*
X227734952Y-103277295D01*
X227734952Y-103277295D02*
X227734952Y-103420152D01*
X227734952Y-103420152D02*
X227687333Y-103515390D01*
X227687333Y-103515390D02*
X227639714Y-103563009D01*
X227639714Y-103563009D02*
X227544476Y-103610628D01*
X227544476Y-103610628D02*
X227163524Y-103610628D01*
X228068286Y-103086819D02*
X228687333Y-103086819D01*
X228687333Y-103086819D02*
X228354000Y-103467771D01*
X228354000Y-103467771D02*
X228496857Y-103467771D01*
X228496857Y-103467771D02*
X228592095Y-103515390D01*
X228592095Y-103515390D02*
X228639714Y-103563009D01*
X228639714Y-103563009D02*
X228687333Y-103658247D01*
X228687333Y-103658247D02*
X228687333Y-103896342D01*
X228687333Y-103896342D02*
X228639714Y-103991580D01*
X228639714Y-103991580D02*
X228592095Y-104039200D01*
X228592095Y-104039200D02*
X228496857Y-104086819D01*
X228496857Y-104086819D02*
X228211143Y-104086819D01*
X228211143Y-104086819D02*
X228115905Y-104039200D01*
X228115905Y-104039200D02*
X228068286Y-103991580D01*
X229306381Y-103086819D02*
X229401619Y-103086819D01*
X229401619Y-103086819D02*
X229496857Y-103134438D01*
X229496857Y-103134438D02*
X229544476Y-103182057D01*
X229544476Y-103182057D02*
X229592095Y-103277295D01*
X229592095Y-103277295D02*
X229639714Y-103467771D01*
X229639714Y-103467771D02*
X229639714Y-103705866D01*
X229639714Y-103705866D02*
X229592095Y-103896342D01*
X229592095Y-103896342D02*
X229544476Y-103991580D01*
X229544476Y-103991580D02*
X229496857Y-104039200D01*
X229496857Y-104039200D02*
X229401619Y-104086819D01*
X229401619Y-104086819D02*
X229306381Y-104086819D01*
X229306381Y-104086819D02*
X229211143Y-104039200D01*
X229211143Y-104039200D02*
X229163524Y-103991580D01*
X229163524Y-103991580D02*
X229115905Y-103896342D01*
X229115905Y-103896342D02*
X229068286Y-103705866D01*
X229068286Y-103705866D02*
X229068286Y-103467771D01*
X229068286Y-103467771D02*
X229115905Y-103277295D01*
X229115905Y-103277295D02*
X229163524Y-103182057D01*
X229163524Y-103182057D02*
X229211143Y-103134438D01*
X229211143Y-103134438D02*
X229306381Y-103086819D01*
X230592095Y-104086819D02*
X230020667Y-104086819D01*
X230306381Y-104086819D02*
X230306381Y-103086819D01*
X230306381Y-103086819D02*
X230211143Y-103229676D01*
X230211143Y-103229676D02*
X230115905Y-103324914D01*
X230115905Y-103324914D02*
X230020667Y-103372533D01*
X207277469Y-120371647D02*
X206801278Y-120704980D01*
X207277469Y-120943075D02*
X206277469Y-120943075D01*
X206277469Y-120943075D02*
X206277469Y-120562123D01*
X206277469Y-120562123D02*
X206325088Y-120466885D01*
X206325088Y-120466885D02*
X206372707Y-120419266D01*
X206372707Y-120419266D02*
X206467945Y-120371647D01*
X206467945Y-120371647D02*
X206610802Y-120371647D01*
X206610802Y-120371647D02*
X206706040Y-120419266D01*
X206706040Y-120419266D02*
X206753659Y-120466885D01*
X206753659Y-120466885D02*
X206801278Y-120562123D01*
X206801278Y-120562123D02*
X206801278Y-120943075D01*
X206372707Y-119990694D02*
X206325088Y-119943075D01*
X206325088Y-119943075D02*
X206277469Y-119847837D01*
X206277469Y-119847837D02*
X206277469Y-119609742D01*
X206277469Y-119609742D02*
X206325088Y-119514504D01*
X206325088Y-119514504D02*
X206372707Y-119466885D01*
X206372707Y-119466885D02*
X206467945Y-119419266D01*
X206467945Y-119419266D02*
X206563183Y-119419266D01*
X206563183Y-119419266D02*
X206706040Y-119466885D01*
X206706040Y-119466885D02*
X207277469Y-120038313D01*
X207277469Y-120038313D02*
X207277469Y-119419266D01*
X206277469Y-118800218D02*
X206277469Y-118704980D01*
X206277469Y-118704980D02*
X206325088Y-118609742D01*
X206325088Y-118609742D02*
X206372707Y-118562123D01*
X206372707Y-118562123D02*
X206467945Y-118514504D01*
X206467945Y-118514504D02*
X206658421Y-118466885D01*
X206658421Y-118466885D02*
X206896516Y-118466885D01*
X206896516Y-118466885D02*
X207086992Y-118514504D01*
X207086992Y-118514504D02*
X207182230Y-118562123D01*
X207182230Y-118562123D02*
X207229850Y-118609742D01*
X207229850Y-118609742D02*
X207277469Y-118704980D01*
X207277469Y-118704980D02*
X207277469Y-118800218D01*
X207277469Y-118800218D02*
X207229850Y-118895456D01*
X207229850Y-118895456D02*
X207182230Y-118943075D01*
X207182230Y-118943075D02*
X207086992Y-118990694D01*
X207086992Y-118990694D02*
X206896516Y-119038313D01*
X206896516Y-119038313D02*
X206658421Y-119038313D01*
X206658421Y-119038313D02*
X206467945Y-118990694D01*
X206467945Y-118990694D02*
X206372707Y-118943075D01*
X206372707Y-118943075D02*
X206325088Y-118895456D01*
X206325088Y-118895456D02*
X206277469Y-118800218D01*
X206277469Y-117609742D02*
X206277469Y-117800218D01*
X206277469Y-117800218D02*
X206325088Y-117895456D01*
X206325088Y-117895456D02*
X206372707Y-117943075D01*
X206372707Y-117943075D02*
X206515564Y-118038313D01*
X206515564Y-118038313D02*
X206706040Y-118085932D01*
X206706040Y-118085932D02*
X207086992Y-118085932D01*
X207086992Y-118085932D02*
X207182230Y-118038313D01*
X207182230Y-118038313D02*
X207229850Y-117990694D01*
X207229850Y-117990694D02*
X207277469Y-117895456D01*
X207277469Y-117895456D02*
X207277469Y-117704980D01*
X207277469Y-117704980D02*
X207229850Y-117609742D01*
X207229850Y-117609742D02*
X207182230Y-117562123D01*
X207182230Y-117562123D02*
X207086992Y-117514504D01*
X207086992Y-117514504D02*
X206848897Y-117514504D01*
X206848897Y-117514504D02*
X206753659Y-117562123D01*
X206753659Y-117562123D02*
X206706040Y-117609742D01*
X206706040Y-117609742D02*
X206658421Y-117704980D01*
X206658421Y-117704980D02*
X206658421Y-117895456D01*
X206658421Y-117895456D02*
X206706040Y-117990694D01*
X206706040Y-117990694D02*
X206753659Y-118038313D01*
X206753659Y-118038313D02*
X206848897Y-118085932D01*
X205956669Y-94413247D02*
X205480478Y-94746580D01*
X205956669Y-94984675D02*
X204956669Y-94984675D01*
X204956669Y-94984675D02*
X204956669Y-94603723D01*
X204956669Y-94603723D02*
X205004288Y-94508485D01*
X205004288Y-94508485D02*
X205051907Y-94460866D01*
X205051907Y-94460866D02*
X205147145Y-94413247D01*
X205147145Y-94413247D02*
X205290002Y-94413247D01*
X205290002Y-94413247D02*
X205385240Y-94460866D01*
X205385240Y-94460866D02*
X205432859Y-94508485D01*
X205432859Y-94508485D02*
X205480478Y-94603723D01*
X205480478Y-94603723D02*
X205480478Y-94984675D01*
X204956669Y-94079913D02*
X204956669Y-93460866D01*
X204956669Y-93460866D02*
X205337621Y-93794199D01*
X205337621Y-93794199D02*
X205337621Y-93651342D01*
X205337621Y-93651342D02*
X205385240Y-93556104D01*
X205385240Y-93556104D02*
X205432859Y-93508485D01*
X205432859Y-93508485D02*
X205528097Y-93460866D01*
X205528097Y-93460866D02*
X205766192Y-93460866D01*
X205766192Y-93460866D02*
X205861430Y-93508485D01*
X205861430Y-93508485D02*
X205909050Y-93556104D01*
X205909050Y-93556104D02*
X205956669Y-93651342D01*
X205956669Y-93651342D02*
X205956669Y-93937056D01*
X205956669Y-93937056D02*
X205909050Y-94032294D01*
X205909050Y-94032294D02*
X205861430Y-94079913D01*
X204956669Y-92841818D02*
X204956669Y-92746580D01*
X204956669Y-92746580D02*
X205004288Y-92651342D01*
X205004288Y-92651342D02*
X205051907Y-92603723D01*
X205051907Y-92603723D02*
X205147145Y-92556104D01*
X205147145Y-92556104D02*
X205337621Y-92508485D01*
X205337621Y-92508485D02*
X205575716Y-92508485D01*
X205575716Y-92508485D02*
X205766192Y-92556104D01*
X205766192Y-92556104D02*
X205861430Y-92603723D01*
X205861430Y-92603723D02*
X205909050Y-92651342D01*
X205909050Y-92651342D02*
X205956669Y-92746580D01*
X205956669Y-92746580D02*
X205956669Y-92841818D01*
X205956669Y-92841818D02*
X205909050Y-92937056D01*
X205909050Y-92937056D02*
X205861430Y-92984675D01*
X205861430Y-92984675D02*
X205766192Y-93032294D01*
X205766192Y-93032294D02*
X205575716Y-93079913D01*
X205575716Y-93079913D02*
X205337621Y-93079913D01*
X205337621Y-93079913D02*
X205147145Y-93032294D01*
X205147145Y-93032294D02*
X205051907Y-92984675D01*
X205051907Y-92984675D02*
X205004288Y-92937056D01*
X205004288Y-92937056D02*
X204956669Y-92841818D01*
X205290002Y-91651342D02*
X205956669Y-91651342D01*
X204909050Y-91889437D02*
X205623335Y-92127532D01*
X205623335Y-92127532D02*
X205623335Y-91508485D01*
X194361104Y-93490404D02*
X194361104Y-93014214D01*
X194646819Y-93585642D02*
X193646819Y-93252309D01*
X193646819Y-93252309D02*
X194646819Y-92918976D01*
X194551580Y-92014214D02*
X194599200Y-92061833D01*
X194599200Y-92061833D02*
X194646819Y-92204690D01*
X194646819Y-92204690D02*
X194646819Y-92299928D01*
X194646819Y-92299928D02*
X194599200Y-92442785D01*
X194599200Y-92442785D02*
X194503961Y-92538023D01*
X194503961Y-92538023D02*
X194408723Y-92585642D01*
X194408723Y-92585642D02*
X194218247Y-92633261D01*
X194218247Y-92633261D02*
X194075390Y-92633261D01*
X194075390Y-92633261D02*
X193884914Y-92585642D01*
X193884914Y-92585642D02*
X193789676Y-92538023D01*
X193789676Y-92538023D02*
X193694438Y-92442785D01*
X193694438Y-92442785D02*
X193646819Y-92299928D01*
X193646819Y-92299928D02*
X193646819Y-92204690D01*
X193646819Y-92204690D02*
X193694438Y-92061833D01*
X193694438Y-92061833D02*
X193742057Y-92014214D01*
X193599200Y-90871357D02*
X194884914Y-91728499D01*
X194646819Y-90538023D02*
X193646819Y-90538023D01*
X193646819Y-90538023D02*
X193646819Y-90299928D01*
X193646819Y-90299928D02*
X193694438Y-90157071D01*
X193694438Y-90157071D02*
X193789676Y-90061833D01*
X193789676Y-90061833D02*
X193884914Y-90014214D01*
X193884914Y-90014214D02*
X194075390Y-89966595D01*
X194075390Y-89966595D02*
X194218247Y-89966595D01*
X194218247Y-89966595D02*
X194408723Y-90014214D01*
X194408723Y-90014214D02*
X194503961Y-90061833D01*
X194503961Y-90061833D02*
X194599200Y-90157071D01*
X194599200Y-90157071D02*
X194646819Y-90299928D01*
X194646819Y-90299928D02*
X194646819Y-90538023D01*
X194551580Y-88966595D02*
X194599200Y-89014214D01*
X194599200Y-89014214D02*
X194646819Y-89157071D01*
X194646819Y-89157071D02*
X194646819Y-89252309D01*
X194646819Y-89252309D02*
X194599200Y-89395166D01*
X194599200Y-89395166D02*
X194503961Y-89490404D01*
X194503961Y-89490404D02*
X194408723Y-89538023D01*
X194408723Y-89538023D02*
X194218247Y-89585642D01*
X194218247Y-89585642D02*
X194075390Y-89585642D01*
X194075390Y-89585642D02*
X193884914Y-89538023D01*
X193884914Y-89538023D02*
X193789676Y-89490404D01*
X193789676Y-89490404D02*
X193694438Y-89395166D01*
X193694438Y-89395166D02*
X193646819Y-89252309D01*
X193646819Y-89252309D02*
X193646819Y-89157071D01*
X193646819Y-89157071D02*
X193694438Y-89014214D01*
X193694438Y-89014214D02*
X193742057Y-88966595D01*
X227480952Y-129740819D02*
X227147619Y-129264628D01*
X226909524Y-129740819D02*
X226909524Y-128740819D01*
X226909524Y-128740819D02*
X227290476Y-128740819D01*
X227290476Y-128740819D02*
X227385714Y-128788438D01*
X227385714Y-128788438D02*
X227433333Y-128836057D01*
X227433333Y-128836057D02*
X227480952Y-128931295D01*
X227480952Y-128931295D02*
X227480952Y-129074152D01*
X227480952Y-129074152D02*
X227433333Y-129169390D01*
X227433333Y-129169390D02*
X227385714Y-129217009D01*
X227385714Y-129217009D02*
X227290476Y-129264628D01*
X227290476Y-129264628D02*
X226909524Y-129264628D01*
X227861905Y-128836057D02*
X227909524Y-128788438D01*
X227909524Y-128788438D02*
X228004762Y-128740819D01*
X228004762Y-128740819D02*
X228242857Y-128740819D01*
X228242857Y-128740819D02*
X228338095Y-128788438D01*
X228338095Y-128788438D02*
X228385714Y-128836057D01*
X228385714Y-128836057D02*
X228433333Y-128931295D01*
X228433333Y-128931295D02*
X228433333Y-129026533D01*
X228433333Y-129026533D02*
X228385714Y-129169390D01*
X228385714Y-129169390D02*
X227814286Y-129740819D01*
X227814286Y-129740819D02*
X228433333Y-129740819D01*
X229052381Y-128740819D02*
X229147619Y-128740819D01*
X229147619Y-128740819D02*
X229242857Y-128788438D01*
X229242857Y-128788438D02*
X229290476Y-128836057D01*
X229290476Y-128836057D02*
X229338095Y-128931295D01*
X229338095Y-128931295D02*
X229385714Y-129121771D01*
X229385714Y-129121771D02*
X229385714Y-129359866D01*
X229385714Y-129359866D02*
X229338095Y-129550342D01*
X229338095Y-129550342D02*
X229290476Y-129645580D01*
X229290476Y-129645580D02*
X229242857Y-129693200D01*
X229242857Y-129693200D02*
X229147619Y-129740819D01*
X229147619Y-129740819D02*
X229052381Y-129740819D01*
X229052381Y-129740819D02*
X228957143Y-129693200D01*
X228957143Y-129693200D02*
X228909524Y-129645580D01*
X228909524Y-129645580D02*
X228861905Y-129550342D01*
X228861905Y-129550342D02*
X228814286Y-129359866D01*
X228814286Y-129359866D02*
X228814286Y-129121771D01*
X228814286Y-129121771D02*
X228861905Y-128931295D01*
X228861905Y-128931295D02*
X228909524Y-128836057D01*
X228909524Y-128836057D02*
X228957143Y-128788438D01*
X228957143Y-128788438D02*
X229052381Y-128740819D01*
X230338095Y-129740819D02*
X229766667Y-129740819D01*
X230052381Y-129740819D02*
X230052381Y-128740819D01*
X230052381Y-128740819D02*
X229957143Y-128883676D01*
X229957143Y-128883676D02*
X229861905Y-128978914D01*
X229861905Y-128978914D02*
X229766667Y-129026533D01*
X215796952Y-117224020D02*
X215463619Y-116747829D01*
X215225524Y-117224020D02*
X215225524Y-116224020D01*
X215225524Y-116224020D02*
X215606476Y-116224020D01*
X215606476Y-116224020D02*
X215701714Y-116271639D01*
X215701714Y-116271639D02*
X215749333Y-116319258D01*
X215749333Y-116319258D02*
X215796952Y-116414496D01*
X215796952Y-116414496D02*
X215796952Y-116557353D01*
X215796952Y-116557353D02*
X215749333Y-116652591D01*
X215749333Y-116652591D02*
X215701714Y-116700210D01*
X215701714Y-116700210D02*
X215606476Y-116747829D01*
X215606476Y-116747829D02*
X215225524Y-116747829D01*
X216177905Y-116319258D02*
X216225524Y-116271639D01*
X216225524Y-116271639D02*
X216320762Y-116224020D01*
X216320762Y-116224020D02*
X216558857Y-116224020D01*
X216558857Y-116224020D02*
X216654095Y-116271639D01*
X216654095Y-116271639D02*
X216701714Y-116319258D01*
X216701714Y-116319258D02*
X216749333Y-116414496D01*
X216749333Y-116414496D02*
X216749333Y-116509734D01*
X216749333Y-116509734D02*
X216701714Y-116652591D01*
X216701714Y-116652591D02*
X216130286Y-117224020D01*
X216130286Y-117224020D02*
X216749333Y-117224020D01*
X217368381Y-116224020D02*
X217463619Y-116224020D01*
X217463619Y-116224020D02*
X217558857Y-116271639D01*
X217558857Y-116271639D02*
X217606476Y-116319258D01*
X217606476Y-116319258D02*
X217654095Y-116414496D01*
X217654095Y-116414496D02*
X217701714Y-116604972D01*
X217701714Y-116604972D02*
X217701714Y-116843067D01*
X217701714Y-116843067D02*
X217654095Y-117033543D01*
X217654095Y-117033543D02*
X217606476Y-117128781D01*
X217606476Y-117128781D02*
X217558857Y-117176401D01*
X217558857Y-117176401D02*
X217463619Y-117224020D01*
X217463619Y-117224020D02*
X217368381Y-117224020D01*
X217368381Y-117224020D02*
X217273143Y-117176401D01*
X217273143Y-117176401D02*
X217225524Y-117128781D01*
X217225524Y-117128781D02*
X217177905Y-117033543D01*
X217177905Y-117033543D02*
X217130286Y-116843067D01*
X217130286Y-116843067D02*
X217130286Y-116604972D01*
X217130286Y-116604972D02*
X217177905Y-116414496D01*
X217177905Y-116414496D02*
X217225524Y-116319258D01*
X217225524Y-116319258D02*
X217273143Y-116271639D01*
X217273143Y-116271639D02*
X217368381Y-116224020D01*
X218082667Y-116319258D02*
X218130286Y-116271639D01*
X218130286Y-116271639D02*
X218225524Y-116224020D01*
X218225524Y-116224020D02*
X218463619Y-116224020D01*
X218463619Y-116224020D02*
X218558857Y-116271639D01*
X218558857Y-116271639D02*
X218606476Y-116319258D01*
X218606476Y-116319258D02*
X218654095Y-116414496D01*
X218654095Y-116414496D02*
X218654095Y-116509734D01*
X218654095Y-116509734D02*
X218606476Y-116652591D01*
X218606476Y-116652591D02*
X218035048Y-117224020D01*
X218035048Y-117224020D02*
X218654095Y-117224020D01*
X235493085Y-128080019D02*
X235493085Y-128794304D01*
X235493085Y-128794304D02*
X235445466Y-128937161D01*
X235445466Y-128937161D02*
X235350228Y-129032400D01*
X235350228Y-129032400D02*
X235207371Y-129080019D01*
X235207371Y-129080019D02*
X235112133Y-129080019D01*
X235921657Y-128175257D02*
X235969276Y-128127638D01*
X235969276Y-128127638D02*
X236064514Y-128080019D01*
X236064514Y-128080019D02*
X236302609Y-128080019D01*
X236302609Y-128080019D02*
X236397847Y-128127638D01*
X236397847Y-128127638D02*
X236445466Y-128175257D01*
X236445466Y-128175257D02*
X236493085Y-128270495D01*
X236493085Y-128270495D02*
X236493085Y-128365733D01*
X236493085Y-128365733D02*
X236445466Y-128508590D01*
X236445466Y-128508590D02*
X235874038Y-129080019D01*
X235874038Y-129080019D02*
X236493085Y-129080019D01*
X237112133Y-128080019D02*
X237207371Y-128080019D01*
X237207371Y-128080019D02*
X237302609Y-128127638D01*
X237302609Y-128127638D02*
X237350228Y-128175257D01*
X237350228Y-128175257D02*
X237397847Y-128270495D01*
X237397847Y-128270495D02*
X237445466Y-128460971D01*
X237445466Y-128460971D02*
X237445466Y-128699066D01*
X237445466Y-128699066D02*
X237397847Y-128889542D01*
X237397847Y-128889542D02*
X237350228Y-128984780D01*
X237350228Y-128984780D02*
X237302609Y-129032400D01*
X237302609Y-129032400D02*
X237207371Y-129080019D01*
X237207371Y-129080019D02*
X237112133Y-129080019D01*
X237112133Y-129080019D02*
X237016895Y-129032400D01*
X237016895Y-129032400D02*
X236969276Y-128984780D01*
X236969276Y-128984780D02*
X236921657Y-128889542D01*
X236921657Y-128889542D02*
X236874038Y-128699066D01*
X236874038Y-128699066D02*
X236874038Y-128460971D01*
X236874038Y-128460971D02*
X236921657Y-128270495D01*
X236921657Y-128270495D02*
X236969276Y-128175257D01*
X236969276Y-128175257D02*
X237016895Y-128127638D01*
X237016895Y-128127638D02*
X237112133Y-128080019D01*
X238397847Y-129080019D02*
X237826419Y-129080019D01*
X238112133Y-129080019D02*
X238112133Y-128080019D01*
X238112133Y-128080019D02*
X238016895Y-128222876D01*
X238016895Y-128222876D02*
X237921657Y-128318114D01*
X237921657Y-128318114D02*
X237826419Y-128365733D01*
X219606952Y-117199580D02*
X219559333Y-117247200D01*
X219559333Y-117247200D02*
X219416476Y-117294819D01*
X219416476Y-117294819D02*
X219321238Y-117294819D01*
X219321238Y-117294819D02*
X219178381Y-117247200D01*
X219178381Y-117247200D02*
X219083143Y-117151961D01*
X219083143Y-117151961D02*
X219035524Y-117056723D01*
X219035524Y-117056723D02*
X218987905Y-116866247D01*
X218987905Y-116866247D02*
X218987905Y-116723390D01*
X218987905Y-116723390D02*
X219035524Y-116532914D01*
X219035524Y-116532914D02*
X219083143Y-116437676D01*
X219083143Y-116437676D02*
X219178381Y-116342438D01*
X219178381Y-116342438D02*
X219321238Y-116294819D01*
X219321238Y-116294819D02*
X219416476Y-116294819D01*
X219416476Y-116294819D02*
X219559333Y-116342438D01*
X219559333Y-116342438D02*
X219606952Y-116390057D01*
X219987905Y-116390057D02*
X220035524Y-116342438D01*
X220035524Y-116342438D02*
X220130762Y-116294819D01*
X220130762Y-116294819D02*
X220368857Y-116294819D01*
X220368857Y-116294819D02*
X220464095Y-116342438D01*
X220464095Y-116342438D02*
X220511714Y-116390057D01*
X220511714Y-116390057D02*
X220559333Y-116485295D01*
X220559333Y-116485295D02*
X220559333Y-116580533D01*
X220559333Y-116580533D02*
X220511714Y-116723390D01*
X220511714Y-116723390D02*
X219940286Y-117294819D01*
X219940286Y-117294819D02*
X220559333Y-117294819D01*
X221178381Y-116294819D02*
X221273619Y-116294819D01*
X221273619Y-116294819D02*
X221368857Y-116342438D01*
X221368857Y-116342438D02*
X221416476Y-116390057D01*
X221416476Y-116390057D02*
X221464095Y-116485295D01*
X221464095Y-116485295D02*
X221511714Y-116675771D01*
X221511714Y-116675771D02*
X221511714Y-116913866D01*
X221511714Y-116913866D02*
X221464095Y-117104342D01*
X221464095Y-117104342D02*
X221416476Y-117199580D01*
X221416476Y-117199580D02*
X221368857Y-117247200D01*
X221368857Y-117247200D02*
X221273619Y-117294819D01*
X221273619Y-117294819D02*
X221178381Y-117294819D01*
X221178381Y-117294819D02*
X221083143Y-117247200D01*
X221083143Y-117247200D02*
X221035524Y-117199580D01*
X221035524Y-117199580D02*
X220987905Y-117104342D01*
X220987905Y-117104342D02*
X220940286Y-116913866D01*
X220940286Y-116913866D02*
X220940286Y-116675771D01*
X220940286Y-116675771D02*
X220987905Y-116485295D01*
X220987905Y-116485295D02*
X221035524Y-116390057D01*
X221035524Y-116390057D02*
X221083143Y-116342438D01*
X221083143Y-116342438D02*
X221178381Y-116294819D01*
X221987905Y-117294819D02*
X222178381Y-117294819D01*
X222178381Y-117294819D02*
X222273619Y-117247200D01*
X222273619Y-117247200D02*
X222321238Y-117199580D01*
X222321238Y-117199580D02*
X222416476Y-117056723D01*
X222416476Y-117056723D02*
X222464095Y-116866247D01*
X222464095Y-116866247D02*
X222464095Y-116485295D01*
X222464095Y-116485295D02*
X222416476Y-116390057D01*
X222416476Y-116390057D02*
X222368857Y-116342438D01*
X222368857Y-116342438D02*
X222273619Y-116294819D01*
X222273619Y-116294819D02*
X222083143Y-116294819D01*
X222083143Y-116294819D02*
X221987905Y-116342438D01*
X221987905Y-116342438D02*
X221940286Y-116390057D01*
X221940286Y-116390057D02*
X221892667Y-116485295D01*
X221892667Y-116485295D02*
X221892667Y-116723390D01*
X221892667Y-116723390D02*
X221940286Y-116818628D01*
X221940286Y-116818628D02*
X221987905Y-116866247D01*
X221987905Y-116866247D02*
X222083143Y-116913866D01*
X222083143Y-116913866D02*
X222273619Y-116913866D01*
X222273619Y-116913866D02*
X222368857Y-116866247D01*
X222368857Y-116866247D02*
X222416476Y-116818628D01*
X222416476Y-116818628D02*
X222464095Y-116723390D01*
X182102285Y-79654819D02*
X182102285Y-80369104D01*
X182102285Y-80369104D02*
X182054666Y-80511961D01*
X182054666Y-80511961D02*
X181959428Y-80607200D01*
X181959428Y-80607200D02*
X181816571Y-80654819D01*
X181816571Y-80654819D02*
X181721333Y-80654819D01*
X183102285Y-80654819D02*
X182530857Y-80654819D01*
X182816571Y-80654819D02*
X182816571Y-79654819D01*
X182816571Y-79654819D02*
X182721333Y-79797676D01*
X182721333Y-79797676D02*
X182626095Y-79892914D01*
X182626095Y-79892914D02*
X182530857Y-79940533D01*
X183721333Y-79654819D02*
X183816571Y-79654819D01*
X183816571Y-79654819D02*
X183911809Y-79702438D01*
X183911809Y-79702438D02*
X183959428Y-79750057D01*
X183959428Y-79750057D02*
X184007047Y-79845295D01*
X184007047Y-79845295D02*
X184054666Y-80035771D01*
X184054666Y-80035771D02*
X184054666Y-80273866D01*
X184054666Y-80273866D02*
X184007047Y-80464342D01*
X184007047Y-80464342D02*
X183959428Y-80559580D01*
X183959428Y-80559580D02*
X183911809Y-80607200D01*
X183911809Y-80607200D02*
X183816571Y-80654819D01*
X183816571Y-80654819D02*
X183721333Y-80654819D01*
X183721333Y-80654819D02*
X183626095Y-80607200D01*
X183626095Y-80607200D02*
X183578476Y-80559580D01*
X183578476Y-80559580D02*
X183530857Y-80464342D01*
X183530857Y-80464342D02*
X183483238Y-80273866D01*
X183483238Y-80273866D02*
X183483238Y-80035771D01*
X183483238Y-80035771D02*
X183530857Y-79845295D01*
X183530857Y-79845295D02*
X183578476Y-79750057D01*
X183578476Y-79750057D02*
X183626095Y-79702438D01*
X183626095Y-79702438D02*
X183721333Y-79654819D01*
X184435619Y-79750057D02*
X184483238Y-79702438D01*
X184483238Y-79702438D02*
X184578476Y-79654819D01*
X184578476Y-79654819D02*
X184816571Y-79654819D01*
X184816571Y-79654819D02*
X184911809Y-79702438D01*
X184911809Y-79702438D02*
X184959428Y-79750057D01*
X184959428Y-79750057D02*
X185007047Y-79845295D01*
X185007047Y-79845295D02*
X185007047Y-79940533D01*
X185007047Y-79940533D02*
X184959428Y-80083390D01*
X184959428Y-80083390D02*
X184388000Y-80654819D01*
X184388000Y-80654819D02*
X185007047Y-80654819D01*
X206881552Y-96234380D02*
X206833933Y-96282000D01*
X206833933Y-96282000D02*
X206691076Y-96329619D01*
X206691076Y-96329619D02*
X206595838Y-96329619D01*
X206595838Y-96329619D02*
X206452981Y-96282000D01*
X206452981Y-96282000D02*
X206357743Y-96186761D01*
X206357743Y-96186761D02*
X206310124Y-96091523D01*
X206310124Y-96091523D02*
X206262505Y-95901047D01*
X206262505Y-95901047D02*
X206262505Y-95758190D01*
X206262505Y-95758190D02*
X206310124Y-95567714D01*
X206310124Y-95567714D02*
X206357743Y-95472476D01*
X206357743Y-95472476D02*
X206452981Y-95377238D01*
X206452981Y-95377238D02*
X206595838Y-95329619D01*
X206595838Y-95329619D02*
X206691076Y-95329619D01*
X206691076Y-95329619D02*
X206833933Y-95377238D01*
X206833933Y-95377238D02*
X206881552Y-95424857D01*
X207214886Y-95329619D02*
X207833933Y-95329619D01*
X207833933Y-95329619D02*
X207500600Y-95710571D01*
X207500600Y-95710571D02*
X207643457Y-95710571D01*
X207643457Y-95710571D02*
X207738695Y-95758190D01*
X207738695Y-95758190D02*
X207786314Y-95805809D01*
X207786314Y-95805809D02*
X207833933Y-95901047D01*
X207833933Y-95901047D02*
X207833933Y-96139142D01*
X207833933Y-96139142D02*
X207786314Y-96234380D01*
X207786314Y-96234380D02*
X207738695Y-96282000D01*
X207738695Y-96282000D02*
X207643457Y-96329619D01*
X207643457Y-96329619D02*
X207357743Y-96329619D01*
X207357743Y-96329619D02*
X207262505Y-96282000D01*
X207262505Y-96282000D02*
X207214886Y-96234380D01*
X208452981Y-95329619D02*
X208548219Y-95329619D01*
X208548219Y-95329619D02*
X208643457Y-95377238D01*
X208643457Y-95377238D02*
X208691076Y-95424857D01*
X208691076Y-95424857D02*
X208738695Y-95520095D01*
X208738695Y-95520095D02*
X208786314Y-95710571D01*
X208786314Y-95710571D02*
X208786314Y-95948666D01*
X208786314Y-95948666D02*
X208738695Y-96139142D01*
X208738695Y-96139142D02*
X208691076Y-96234380D01*
X208691076Y-96234380D02*
X208643457Y-96282000D01*
X208643457Y-96282000D02*
X208548219Y-96329619D01*
X208548219Y-96329619D02*
X208452981Y-96329619D01*
X208452981Y-96329619D02*
X208357743Y-96282000D01*
X208357743Y-96282000D02*
X208310124Y-96234380D01*
X208310124Y-96234380D02*
X208262505Y-96139142D01*
X208262505Y-96139142D02*
X208214886Y-95948666D01*
X208214886Y-95948666D02*
X208214886Y-95710571D01*
X208214886Y-95710571D02*
X208262505Y-95520095D01*
X208262505Y-95520095D02*
X208310124Y-95424857D01*
X208310124Y-95424857D02*
X208357743Y-95377238D01*
X208357743Y-95377238D02*
X208452981Y-95329619D01*
X209643457Y-95329619D02*
X209452981Y-95329619D01*
X209452981Y-95329619D02*
X209357743Y-95377238D01*
X209357743Y-95377238D02*
X209310124Y-95424857D01*
X209310124Y-95424857D02*
X209214886Y-95567714D01*
X209214886Y-95567714D02*
X209167267Y-95758190D01*
X209167267Y-95758190D02*
X209167267Y-96139142D01*
X209167267Y-96139142D02*
X209214886Y-96234380D01*
X209214886Y-96234380D02*
X209262505Y-96282000D01*
X209262505Y-96282000D02*
X209357743Y-96329619D01*
X209357743Y-96329619D02*
X209548219Y-96329619D01*
X209548219Y-96329619D02*
X209643457Y-96282000D01*
X209643457Y-96282000D02*
X209691076Y-96234380D01*
X209691076Y-96234380D02*
X209738695Y-96139142D01*
X209738695Y-96139142D02*
X209738695Y-95901047D01*
X209738695Y-95901047D02*
X209691076Y-95805809D01*
X209691076Y-95805809D02*
X209643457Y-95758190D01*
X209643457Y-95758190D02*
X209548219Y-95710571D01*
X209548219Y-95710571D02*
X209357743Y-95710571D01*
X209357743Y-95710571D02*
X209262505Y-95758190D01*
X209262505Y-95758190D02*
X209214886Y-95805809D01*
X209214886Y-95805809D02*
X209167267Y-95901047D01*
X223990819Y-126428285D02*
X224800342Y-126428285D01*
X224800342Y-126428285D02*
X224895580Y-126380666D01*
X224895580Y-126380666D02*
X224943200Y-126333047D01*
X224943200Y-126333047D02*
X224990819Y-126237809D01*
X224990819Y-126237809D02*
X224990819Y-126047333D01*
X224990819Y-126047333D02*
X224943200Y-125952095D01*
X224943200Y-125952095D02*
X224895580Y-125904476D01*
X224895580Y-125904476D02*
X224800342Y-125856857D01*
X224800342Y-125856857D02*
X223990819Y-125856857D01*
X224086057Y-125428285D02*
X224038438Y-125380666D01*
X224038438Y-125380666D02*
X223990819Y-125285428D01*
X223990819Y-125285428D02*
X223990819Y-125047333D01*
X223990819Y-125047333D02*
X224038438Y-124952095D01*
X224038438Y-124952095D02*
X224086057Y-124904476D01*
X224086057Y-124904476D02*
X224181295Y-124856857D01*
X224181295Y-124856857D02*
X224276533Y-124856857D01*
X224276533Y-124856857D02*
X224419390Y-124904476D01*
X224419390Y-124904476D02*
X224990819Y-125475904D01*
X224990819Y-125475904D02*
X224990819Y-124856857D01*
X223990819Y-124237809D02*
X223990819Y-124142571D01*
X223990819Y-124142571D02*
X224038438Y-124047333D01*
X224038438Y-124047333D02*
X224086057Y-123999714D01*
X224086057Y-123999714D02*
X224181295Y-123952095D01*
X224181295Y-123952095D02*
X224371771Y-123904476D01*
X224371771Y-123904476D02*
X224609866Y-123904476D01*
X224609866Y-123904476D02*
X224800342Y-123952095D01*
X224800342Y-123952095D02*
X224895580Y-123999714D01*
X224895580Y-123999714D02*
X224943200Y-124047333D01*
X224943200Y-124047333D02*
X224990819Y-124142571D01*
X224990819Y-124142571D02*
X224990819Y-124237809D01*
X224990819Y-124237809D02*
X224943200Y-124333047D01*
X224943200Y-124333047D02*
X224895580Y-124380666D01*
X224895580Y-124380666D02*
X224800342Y-124428285D01*
X224800342Y-124428285D02*
X224609866Y-124475904D01*
X224609866Y-124475904D02*
X224371771Y-124475904D01*
X224371771Y-124475904D02*
X224181295Y-124428285D01*
X224181295Y-124428285D02*
X224086057Y-124380666D01*
X224086057Y-124380666D02*
X224038438Y-124333047D01*
X224038438Y-124333047D02*
X223990819Y-124237809D01*
X224990819Y-122952095D02*
X224990819Y-123523523D01*
X224990819Y-123237809D02*
X223990819Y-123237809D01*
X223990819Y-123237809D02*
X224133676Y-123333047D01*
X224133676Y-123333047D02*
X224228914Y-123428285D01*
X224228914Y-123428285D02*
X224276533Y-123523523D01*
X226160152Y-91088380D02*
X226112533Y-91136000D01*
X226112533Y-91136000D02*
X225969676Y-91183619D01*
X225969676Y-91183619D02*
X225874438Y-91183619D01*
X225874438Y-91183619D02*
X225731581Y-91136000D01*
X225731581Y-91136000D02*
X225636343Y-91040761D01*
X225636343Y-91040761D02*
X225588724Y-90945523D01*
X225588724Y-90945523D02*
X225541105Y-90755047D01*
X225541105Y-90755047D02*
X225541105Y-90612190D01*
X225541105Y-90612190D02*
X225588724Y-90421714D01*
X225588724Y-90421714D02*
X225636343Y-90326476D01*
X225636343Y-90326476D02*
X225731581Y-90231238D01*
X225731581Y-90231238D02*
X225874438Y-90183619D01*
X225874438Y-90183619D02*
X225969676Y-90183619D01*
X225969676Y-90183619D02*
X226112533Y-90231238D01*
X226112533Y-90231238D02*
X226160152Y-90278857D01*
X226493486Y-90183619D02*
X227112533Y-90183619D01*
X227112533Y-90183619D02*
X226779200Y-90564571D01*
X226779200Y-90564571D02*
X226922057Y-90564571D01*
X226922057Y-90564571D02*
X227017295Y-90612190D01*
X227017295Y-90612190D02*
X227064914Y-90659809D01*
X227064914Y-90659809D02*
X227112533Y-90755047D01*
X227112533Y-90755047D02*
X227112533Y-90993142D01*
X227112533Y-90993142D02*
X227064914Y-91088380D01*
X227064914Y-91088380D02*
X227017295Y-91136000D01*
X227017295Y-91136000D02*
X226922057Y-91183619D01*
X226922057Y-91183619D02*
X226636343Y-91183619D01*
X226636343Y-91183619D02*
X226541105Y-91136000D01*
X226541105Y-91136000D02*
X226493486Y-91088380D01*
X227731581Y-90183619D02*
X227826819Y-90183619D01*
X227826819Y-90183619D02*
X227922057Y-90231238D01*
X227922057Y-90231238D02*
X227969676Y-90278857D01*
X227969676Y-90278857D02*
X228017295Y-90374095D01*
X228017295Y-90374095D02*
X228064914Y-90564571D01*
X228064914Y-90564571D02*
X228064914Y-90802666D01*
X228064914Y-90802666D02*
X228017295Y-90993142D01*
X228017295Y-90993142D02*
X227969676Y-91088380D01*
X227969676Y-91088380D02*
X227922057Y-91136000D01*
X227922057Y-91136000D02*
X227826819Y-91183619D01*
X227826819Y-91183619D02*
X227731581Y-91183619D01*
X227731581Y-91183619D02*
X227636343Y-91136000D01*
X227636343Y-91136000D02*
X227588724Y-91088380D01*
X227588724Y-91088380D02*
X227541105Y-90993142D01*
X227541105Y-90993142D02*
X227493486Y-90802666D01*
X227493486Y-90802666D02*
X227493486Y-90564571D01*
X227493486Y-90564571D02*
X227541105Y-90374095D01*
X227541105Y-90374095D02*
X227588724Y-90278857D01*
X227588724Y-90278857D02*
X227636343Y-90231238D01*
X227636343Y-90231238D02*
X227731581Y-90183619D01*
X229017295Y-91183619D02*
X228445867Y-91183619D01*
X228731581Y-91183619D02*
X228731581Y-90183619D01*
X228731581Y-90183619D02*
X228636343Y-90326476D01*
X228636343Y-90326476D02*
X228541105Y-90421714D01*
X228541105Y-90421714D02*
X228445867Y-90469333D01*
X206932352Y-122192782D02*
X206884733Y-122240402D01*
X206884733Y-122240402D02*
X206741876Y-122288021D01*
X206741876Y-122288021D02*
X206646638Y-122288021D01*
X206646638Y-122288021D02*
X206503781Y-122240402D01*
X206503781Y-122240402D02*
X206408543Y-122145163D01*
X206408543Y-122145163D02*
X206360924Y-122049925D01*
X206360924Y-122049925D02*
X206313305Y-121859449D01*
X206313305Y-121859449D02*
X206313305Y-121716592D01*
X206313305Y-121716592D02*
X206360924Y-121526116D01*
X206360924Y-121526116D02*
X206408543Y-121430878D01*
X206408543Y-121430878D02*
X206503781Y-121335640D01*
X206503781Y-121335640D02*
X206646638Y-121288021D01*
X206646638Y-121288021D02*
X206741876Y-121288021D01*
X206741876Y-121288021D02*
X206884733Y-121335640D01*
X206884733Y-121335640D02*
X206932352Y-121383259D01*
X207313305Y-121383259D02*
X207360924Y-121335640D01*
X207360924Y-121335640D02*
X207456162Y-121288021D01*
X207456162Y-121288021D02*
X207694257Y-121288021D01*
X207694257Y-121288021D02*
X207789495Y-121335640D01*
X207789495Y-121335640D02*
X207837114Y-121383259D01*
X207837114Y-121383259D02*
X207884733Y-121478497D01*
X207884733Y-121478497D02*
X207884733Y-121573735D01*
X207884733Y-121573735D02*
X207837114Y-121716592D01*
X207837114Y-121716592D02*
X207265686Y-122288021D01*
X207265686Y-122288021D02*
X207884733Y-122288021D01*
X208503781Y-121288021D02*
X208599019Y-121288021D01*
X208599019Y-121288021D02*
X208694257Y-121335640D01*
X208694257Y-121335640D02*
X208741876Y-121383259D01*
X208741876Y-121383259D02*
X208789495Y-121478497D01*
X208789495Y-121478497D02*
X208837114Y-121668973D01*
X208837114Y-121668973D02*
X208837114Y-121907068D01*
X208837114Y-121907068D02*
X208789495Y-122097544D01*
X208789495Y-122097544D02*
X208741876Y-122192782D01*
X208741876Y-122192782D02*
X208694257Y-122240402D01*
X208694257Y-122240402D02*
X208599019Y-122288021D01*
X208599019Y-122288021D02*
X208503781Y-122288021D01*
X208503781Y-122288021D02*
X208408543Y-122240402D01*
X208408543Y-122240402D02*
X208360924Y-122192782D01*
X208360924Y-122192782D02*
X208313305Y-122097544D01*
X208313305Y-122097544D02*
X208265686Y-121907068D01*
X208265686Y-121907068D02*
X208265686Y-121668973D01*
X208265686Y-121668973D02*
X208313305Y-121478497D01*
X208313305Y-121478497D02*
X208360924Y-121383259D01*
X208360924Y-121383259D02*
X208408543Y-121335640D01*
X208408543Y-121335640D02*
X208503781Y-121288021D01*
X209694257Y-121288021D02*
X209503781Y-121288021D01*
X209503781Y-121288021D02*
X209408543Y-121335640D01*
X209408543Y-121335640D02*
X209360924Y-121383259D01*
X209360924Y-121383259D02*
X209265686Y-121526116D01*
X209265686Y-121526116D02*
X209218067Y-121716592D01*
X209218067Y-121716592D02*
X209218067Y-122097544D01*
X209218067Y-122097544D02*
X209265686Y-122192782D01*
X209265686Y-122192782D02*
X209313305Y-122240402D01*
X209313305Y-122240402D02*
X209408543Y-122288021D01*
X209408543Y-122288021D02*
X209599019Y-122288021D01*
X209599019Y-122288021D02*
X209694257Y-122240402D01*
X209694257Y-122240402D02*
X209741876Y-122192782D01*
X209741876Y-122192782D02*
X209789495Y-122097544D01*
X209789495Y-122097544D02*
X209789495Y-121859449D01*
X209789495Y-121859449D02*
X209741876Y-121764211D01*
X209741876Y-121764211D02*
X209694257Y-121716592D01*
X209694257Y-121716592D02*
X209599019Y-121668973D01*
X209599019Y-121668973D02*
X209408543Y-121668973D01*
X209408543Y-121668973D02*
X209313305Y-121716592D01*
X209313305Y-121716592D02*
X209265686Y-121764211D01*
X209265686Y-121764211D02*
X209218067Y-121859449D01*
X235442285Y-102121619D02*
X235442285Y-102835904D01*
X235442285Y-102835904D02*
X235394666Y-102978761D01*
X235394666Y-102978761D02*
X235299428Y-103074000D01*
X235299428Y-103074000D02*
X235156571Y-103121619D01*
X235156571Y-103121619D02*
X235061333Y-103121619D01*
X235823238Y-102121619D02*
X236442285Y-102121619D01*
X236442285Y-102121619D02*
X236108952Y-102502571D01*
X236108952Y-102502571D02*
X236251809Y-102502571D01*
X236251809Y-102502571D02*
X236347047Y-102550190D01*
X236347047Y-102550190D02*
X236394666Y-102597809D01*
X236394666Y-102597809D02*
X236442285Y-102693047D01*
X236442285Y-102693047D02*
X236442285Y-102931142D01*
X236442285Y-102931142D02*
X236394666Y-103026380D01*
X236394666Y-103026380D02*
X236347047Y-103074000D01*
X236347047Y-103074000D02*
X236251809Y-103121619D01*
X236251809Y-103121619D02*
X235966095Y-103121619D01*
X235966095Y-103121619D02*
X235870857Y-103074000D01*
X235870857Y-103074000D02*
X235823238Y-103026380D01*
X237061333Y-102121619D02*
X237156571Y-102121619D01*
X237156571Y-102121619D02*
X237251809Y-102169238D01*
X237251809Y-102169238D02*
X237299428Y-102216857D01*
X237299428Y-102216857D02*
X237347047Y-102312095D01*
X237347047Y-102312095D02*
X237394666Y-102502571D01*
X237394666Y-102502571D02*
X237394666Y-102740666D01*
X237394666Y-102740666D02*
X237347047Y-102931142D01*
X237347047Y-102931142D02*
X237299428Y-103026380D01*
X237299428Y-103026380D02*
X237251809Y-103074000D01*
X237251809Y-103074000D02*
X237156571Y-103121619D01*
X237156571Y-103121619D02*
X237061333Y-103121619D01*
X237061333Y-103121619D02*
X236966095Y-103074000D01*
X236966095Y-103074000D02*
X236918476Y-103026380D01*
X236918476Y-103026380D02*
X236870857Y-102931142D01*
X236870857Y-102931142D02*
X236823238Y-102740666D01*
X236823238Y-102740666D02*
X236823238Y-102502571D01*
X236823238Y-102502571D02*
X236870857Y-102312095D01*
X236870857Y-102312095D02*
X236918476Y-102216857D01*
X236918476Y-102216857D02*
X236966095Y-102169238D01*
X236966095Y-102169238D02*
X237061333Y-102121619D01*
X238347047Y-103121619D02*
X237775619Y-103121619D01*
X238061333Y-103121619D02*
X238061333Y-102121619D01*
X238061333Y-102121619D02*
X237966095Y-102264476D01*
X237966095Y-102264476D02*
X237870857Y-102359714D01*
X237870857Y-102359714D02*
X237775619Y-102407333D01*
X210823364Y-90437619D02*
X210823364Y-91247142D01*
X210823364Y-91247142D02*
X210870983Y-91342380D01*
X210870983Y-91342380D02*
X210918602Y-91390000D01*
X210918602Y-91390000D02*
X211013840Y-91437619D01*
X211013840Y-91437619D02*
X211204316Y-91437619D01*
X211204316Y-91437619D02*
X211299554Y-91390000D01*
X211299554Y-91390000D02*
X211347173Y-91342380D01*
X211347173Y-91342380D02*
X211394792Y-91247142D01*
X211394792Y-91247142D02*
X211394792Y-90437619D01*
X211775745Y-90437619D02*
X212394792Y-90437619D01*
X212394792Y-90437619D02*
X212061459Y-90818571D01*
X212061459Y-90818571D02*
X212204316Y-90818571D01*
X212204316Y-90818571D02*
X212299554Y-90866190D01*
X212299554Y-90866190D02*
X212347173Y-90913809D01*
X212347173Y-90913809D02*
X212394792Y-91009047D01*
X212394792Y-91009047D02*
X212394792Y-91247142D01*
X212394792Y-91247142D02*
X212347173Y-91342380D01*
X212347173Y-91342380D02*
X212299554Y-91390000D01*
X212299554Y-91390000D02*
X212204316Y-91437619D01*
X212204316Y-91437619D02*
X211918602Y-91437619D01*
X211918602Y-91437619D02*
X211823364Y-91390000D01*
X211823364Y-91390000D02*
X211775745Y-91342380D01*
X213013840Y-90437619D02*
X213109078Y-90437619D01*
X213109078Y-90437619D02*
X213204316Y-90485238D01*
X213204316Y-90485238D02*
X213251935Y-90532857D01*
X213251935Y-90532857D02*
X213299554Y-90628095D01*
X213299554Y-90628095D02*
X213347173Y-90818571D01*
X213347173Y-90818571D02*
X213347173Y-91056666D01*
X213347173Y-91056666D02*
X213299554Y-91247142D01*
X213299554Y-91247142D02*
X213251935Y-91342380D01*
X213251935Y-91342380D02*
X213204316Y-91390000D01*
X213204316Y-91390000D02*
X213109078Y-91437619D01*
X213109078Y-91437619D02*
X213013840Y-91437619D01*
X213013840Y-91437619D02*
X212918602Y-91390000D01*
X212918602Y-91390000D02*
X212870983Y-91342380D01*
X212870983Y-91342380D02*
X212823364Y-91247142D01*
X212823364Y-91247142D02*
X212775745Y-91056666D01*
X212775745Y-91056666D02*
X212775745Y-90818571D01*
X212775745Y-90818571D02*
X212823364Y-90628095D01*
X212823364Y-90628095D02*
X212870983Y-90532857D01*
X212870983Y-90532857D02*
X212918602Y-90485238D01*
X212918602Y-90485238D02*
X213013840Y-90437619D01*
X213728126Y-90532857D02*
X213775745Y-90485238D01*
X213775745Y-90485238D02*
X213870983Y-90437619D01*
X213870983Y-90437619D02*
X214109078Y-90437619D01*
X214109078Y-90437619D02*
X214204316Y-90485238D01*
X214204316Y-90485238D02*
X214251935Y-90532857D01*
X214251935Y-90532857D02*
X214299554Y-90628095D01*
X214299554Y-90628095D02*
X214299554Y-90723333D01*
X214299554Y-90723333D02*
X214251935Y-90866190D01*
X214251935Y-90866190D02*
X213680507Y-91437619D01*
X213680507Y-91437619D02*
X214299554Y-91437619D01*
X223990819Y-100774285D02*
X224800342Y-100774285D01*
X224800342Y-100774285D02*
X224895580Y-100726666D01*
X224895580Y-100726666D02*
X224943200Y-100679047D01*
X224943200Y-100679047D02*
X224990819Y-100583809D01*
X224990819Y-100583809D02*
X224990819Y-100393333D01*
X224990819Y-100393333D02*
X224943200Y-100298095D01*
X224943200Y-100298095D02*
X224895580Y-100250476D01*
X224895580Y-100250476D02*
X224800342Y-100202857D01*
X224800342Y-100202857D02*
X223990819Y-100202857D01*
X223990819Y-99821904D02*
X223990819Y-99202857D01*
X223990819Y-99202857D02*
X224371771Y-99536190D01*
X224371771Y-99536190D02*
X224371771Y-99393333D01*
X224371771Y-99393333D02*
X224419390Y-99298095D01*
X224419390Y-99298095D02*
X224467009Y-99250476D01*
X224467009Y-99250476D02*
X224562247Y-99202857D01*
X224562247Y-99202857D02*
X224800342Y-99202857D01*
X224800342Y-99202857D02*
X224895580Y-99250476D01*
X224895580Y-99250476D02*
X224943200Y-99298095D01*
X224943200Y-99298095D02*
X224990819Y-99393333D01*
X224990819Y-99393333D02*
X224990819Y-99679047D01*
X224990819Y-99679047D02*
X224943200Y-99774285D01*
X224943200Y-99774285D02*
X224895580Y-99821904D01*
X223990819Y-98583809D02*
X223990819Y-98488571D01*
X223990819Y-98488571D02*
X224038438Y-98393333D01*
X224038438Y-98393333D02*
X224086057Y-98345714D01*
X224086057Y-98345714D02*
X224181295Y-98298095D01*
X224181295Y-98298095D02*
X224371771Y-98250476D01*
X224371771Y-98250476D02*
X224609866Y-98250476D01*
X224609866Y-98250476D02*
X224800342Y-98298095D01*
X224800342Y-98298095D02*
X224895580Y-98345714D01*
X224895580Y-98345714D02*
X224943200Y-98393333D01*
X224943200Y-98393333D02*
X224990819Y-98488571D01*
X224990819Y-98488571D02*
X224990819Y-98583809D01*
X224990819Y-98583809D02*
X224943200Y-98679047D01*
X224943200Y-98679047D02*
X224895580Y-98726666D01*
X224895580Y-98726666D02*
X224800342Y-98774285D01*
X224800342Y-98774285D02*
X224609866Y-98821904D01*
X224609866Y-98821904D02*
X224371771Y-98821904D01*
X224371771Y-98821904D02*
X224181295Y-98774285D01*
X224181295Y-98774285D02*
X224086057Y-98726666D01*
X224086057Y-98726666D02*
X224038438Y-98679047D01*
X224038438Y-98679047D02*
X223990819Y-98583809D01*
X224990819Y-97298095D02*
X224990819Y-97869523D01*
X224990819Y-97583809D02*
X223990819Y-97583809D01*
X223990819Y-97583809D02*
X224133676Y-97679047D01*
X224133676Y-97679047D02*
X224228914Y-97774285D01*
X224228914Y-97774285D02*
X224276533Y-97869523D01*
X193599201Y-129090309D02*
X194884915Y-129947451D01*
X194646820Y-128233166D02*
X194646820Y-128804594D01*
X194646820Y-128518880D02*
X193646820Y-128518880D01*
X193646820Y-128518880D02*
X193789677Y-128614118D01*
X193789677Y-128614118D02*
X193884915Y-128709356D01*
X193884915Y-128709356D02*
X193932534Y-128804594D01*
X193646820Y-127614118D02*
X193646820Y-127518880D01*
X193646820Y-127518880D02*
X193694439Y-127423642D01*
X193694439Y-127423642D02*
X193742058Y-127376023D01*
X193742058Y-127376023D02*
X193837296Y-127328404D01*
X193837296Y-127328404D02*
X194027772Y-127280785D01*
X194027772Y-127280785D02*
X194265867Y-127280785D01*
X194265867Y-127280785D02*
X194456343Y-127328404D01*
X194456343Y-127328404D02*
X194551581Y-127376023D01*
X194551581Y-127376023D02*
X194599201Y-127423642D01*
X194599201Y-127423642D02*
X194646820Y-127518880D01*
X194646820Y-127518880D02*
X194646820Y-127614118D01*
X194646820Y-127614118D02*
X194599201Y-127709356D01*
X194599201Y-127709356D02*
X194551581Y-127756975D01*
X194551581Y-127756975D02*
X194456343Y-127804594D01*
X194456343Y-127804594D02*
X194265867Y-127852213D01*
X194265867Y-127852213D02*
X194027772Y-127852213D01*
X194027772Y-127852213D02*
X193837296Y-127804594D01*
X193837296Y-127804594D02*
X193742058Y-127756975D01*
X193742058Y-127756975D02*
X193694439Y-127709356D01*
X193694439Y-127709356D02*
X193646820Y-127614118D01*
X220622952Y-130248819D02*
X220289619Y-129772628D01*
X220051524Y-130248819D02*
X220051524Y-129248819D01*
X220051524Y-129248819D02*
X220432476Y-129248819D01*
X220432476Y-129248819D02*
X220527714Y-129296438D01*
X220527714Y-129296438D02*
X220575333Y-129344057D01*
X220575333Y-129344057D02*
X220622952Y-129439295D01*
X220622952Y-129439295D02*
X220622952Y-129582152D01*
X220622952Y-129582152D02*
X220575333Y-129677390D01*
X220575333Y-129677390D02*
X220527714Y-129725009D01*
X220527714Y-129725009D02*
X220432476Y-129772628D01*
X220432476Y-129772628D02*
X220051524Y-129772628D01*
X221003905Y-129344057D02*
X221051524Y-129296438D01*
X221051524Y-129296438D02*
X221146762Y-129248819D01*
X221146762Y-129248819D02*
X221384857Y-129248819D01*
X221384857Y-129248819D02*
X221480095Y-129296438D01*
X221480095Y-129296438D02*
X221527714Y-129344057D01*
X221527714Y-129344057D02*
X221575333Y-129439295D01*
X221575333Y-129439295D02*
X221575333Y-129534533D01*
X221575333Y-129534533D02*
X221527714Y-129677390D01*
X221527714Y-129677390D02*
X220956286Y-130248819D01*
X220956286Y-130248819D02*
X221575333Y-130248819D01*
X222194381Y-129248819D02*
X222289619Y-129248819D01*
X222289619Y-129248819D02*
X222384857Y-129296438D01*
X222384857Y-129296438D02*
X222432476Y-129344057D01*
X222432476Y-129344057D02*
X222480095Y-129439295D01*
X222480095Y-129439295D02*
X222527714Y-129629771D01*
X222527714Y-129629771D02*
X222527714Y-129867866D01*
X222527714Y-129867866D02*
X222480095Y-130058342D01*
X222480095Y-130058342D02*
X222432476Y-130153580D01*
X222432476Y-130153580D02*
X222384857Y-130201200D01*
X222384857Y-130201200D02*
X222289619Y-130248819D01*
X222289619Y-130248819D02*
X222194381Y-130248819D01*
X222194381Y-130248819D02*
X222099143Y-130201200D01*
X222099143Y-130201200D02*
X222051524Y-130153580D01*
X222051524Y-130153580D02*
X222003905Y-130058342D01*
X222003905Y-130058342D02*
X221956286Y-129867866D01*
X221956286Y-129867866D02*
X221956286Y-129629771D01*
X221956286Y-129629771D02*
X222003905Y-129439295D01*
X222003905Y-129439295D02*
X222051524Y-129344057D01*
X222051524Y-129344057D02*
X222099143Y-129296438D01*
X222099143Y-129296438D02*
X222194381Y-129248819D01*
X223432476Y-129248819D02*
X222956286Y-129248819D01*
X222956286Y-129248819D02*
X222908667Y-129725009D01*
X222908667Y-129725009D02*
X222956286Y-129677390D01*
X222956286Y-129677390D02*
X223051524Y-129629771D01*
X223051524Y-129629771D02*
X223289619Y-129629771D01*
X223289619Y-129629771D02*
X223384857Y-129677390D01*
X223384857Y-129677390D02*
X223432476Y-129725009D01*
X223432476Y-129725009D02*
X223480095Y-129820247D01*
X223480095Y-129820247D02*
X223480095Y-130058342D01*
X223480095Y-130058342D02*
X223432476Y-130153580D01*
X223432476Y-130153580D02*
X223384857Y-130201200D01*
X223384857Y-130201200D02*
X223289619Y-130248819D01*
X223289619Y-130248819D02*
X223051524Y-130248819D01*
X223051524Y-130248819D02*
X222956286Y-130201200D01*
X222956286Y-130201200D02*
X222908667Y-130153580D01*
X210874164Y-116396020D02*
X210874164Y-117205543D01*
X210874164Y-117205543D02*
X210921783Y-117300781D01*
X210921783Y-117300781D02*
X210969402Y-117348401D01*
X210969402Y-117348401D02*
X211064640Y-117396020D01*
X211064640Y-117396020D02*
X211255116Y-117396020D01*
X211255116Y-117396020D02*
X211350354Y-117348401D01*
X211350354Y-117348401D02*
X211397973Y-117300781D01*
X211397973Y-117300781D02*
X211445592Y-117205543D01*
X211445592Y-117205543D02*
X211445592Y-116396020D01*
X211874164Y-116491258D02*
X211921783Y-116443639D01*
X211921783Y-116443639D02*
X212017021Y-116396020D01*
X212017021Y-116396020D02*
X212255116Y-116396020D01*
X212255116Y-116396020D02*
X212350354Y-116443639D01*
X212350354Y-116443639D02*
X212397973Y-116491258D01*
X212397973Y-116491258D02*
X212445592Y-116586496D01*
X212445592Y-116586496D02*
X212445592Y-116681734D01*
X212445592Y-116681734D02*
X212397973Y-116824591D01*
X212397973Y-116824591D02*
X211826545Y-117396020D01*
X211826545Y-117396020D02*
X212445592Y-117396020D01*
X213064640Y-116396020D02*
X213159878Y-116396020D01*
X213159878Y-116396020D02*
X213255116Y-116443639D01*
X213255116Y-116443639D02*
X213302735Y-116491258D01*
X213302735Y-116491258D02*
X213350354Y-116586496D01*
X213350354Y-116586496D02*
X213397973Y-116776972D01*
X213397973Y-116776972D02*
X213397973Y-117015067D01*
X213397973Y-117015067D02*
X213350354Y-117205543D01*
X213350354Y-117205543D02*
X213302735Y-117300781D01*
X213302735Y-117300781D02*
X213255116Y-117348401D01*
X213255116Y-117348401D02*
X213159878Y-117396020D01*
X213159878Y-117396020D02*
X213064640Y-117396020D01*
X213064640Y-117396020D02*
X212969402Y-117348401D01*
X212969402Y-117348401D02*
X212921783Y-117300781D01*
X212921783Y-117300781D02*
X212874164Y-117205543D01*
X212874164Y-117205543D02*
X212826545Y-117015067D01*
X212826545Y-117015067D02*
X212826545Y-116776972D01*
X212826545Y-116776972D02*
X212874164Y-116586496D01*
X212874164Y-116586496D02*
X212921783Y-116491258D01*
X212921783Y-116491258D02*
X212969402Y-116443639D01*
X212969402Y-116443639D02*
X213064640Y-116396020D01*
X213778926Y-116491258D02*
X213826545Y-116443639D01*
X213826545Y-116443639D02*
X213921783Y-116396020D01*
X213921783Y-116396020D02*
X214159878Y-116396020D01*
X214159878Y-116396020D02*
X214255116Y-116443639D01*
X214255116Y-116443639D02*
X214302735Y-116491258D01*
X214302735Y-116491258D02*
X214350354Y-116586496D01*
X214350354Y-116586496D02*
X214350354Y-116681734D01*
X214350354Y-116681734D02*
X214302735Y-116824591D01*
X214302735Y-116824591D02*
X213731307Y-117396020D01*
X213731307Y-117396020D02*
X214350354Y-117396020D01*
X185272819Y-84073547D02*
X184796628Y-84406880D01*
X185272819Y-84644975D02*
X184272819Y-84644975D01*
X184272819Y-84644975D02*
X184272819Y-84264023D01*
X184272819Y-84264023D02*
X184320438Y-84168785D01*
X184320438Y-84168785D02*
X184368057Y-84121166D01*
X184368057Y-84121166D02*
X184463295Y-84073547D01*
X184463295Y-84073547D02*
X184606152Y-84073547D01*
X184606152Y-84073547D02*
X184701390Y-84121166D01*
X184701390Y-84121166D02*
X184749009Y-84168785D01*
X184749009Y-84168785D02*
X184796628Y-84264023D01*
X184796628Y-84264023D02*
X184796628Y-84644975D01*
X185272819Y-83121166D02*
X185272819Y-83692594D01*
X185272819Y-83406880D02*
X184272819Y-83406880D01*
X184272819Y-83406880D02*
X184415676Y-83502118D01*
X184415676Y-83502118D02*
X184510914Y-83597356D01*
X184510914Y-83597356D02*
X184558533Y-83692594D01*
X184272819Y-82502118D02*
X184272819Y-82406880D01*
X184272819Y-82406880D02*
X184320438Y-82311642D01*
X184320438Y-82311642D02*
X184368057Y-82264023D01*
X184368057Y-82264023D02*
X184463295Y-82216404D01*
X184463295Y-82216404D02*
X184653771Y-82168785D01*
X184653771Y-82168785D02*
X184891866Y-82168785D01*
X184891866Y-82168785D02*
X185082342Y-82216404D01*
X185082342Y-82216404D02*
X185177580Y-82264023D01*
X185177580Y-82264023D02*
X185225200Y-82311642D01*
X185225200Y-82311642D02*
X185272819Y-82406880D01*
X185272819Y-82406880D02*
X185272819Y-82502118D01*
X185272819Y-82502118D02*
X185225200Y-82597356D01*
X185225200Y-82597356D02*
X185177580Y-82644975D01*
X185177580Y-82644975D02*
X185082342Y-82692594D01*
X185082342Y-82692594D02*
X184891866Y-82740213D01*
X184891866Y-82740213D02*
X184653771Y-82740213D01*
X184653771Y-82740213D02*
X184463295Y-82692594D01*
X184463295Y-82692594D02*
X184368057Y-82644975D01*
X184368057Y-82644975D02*
X184320438Y-82597356D01*
X184320438Y-82597356D02*
X184272819Y-82502118D01*
X184368057Y-81787832D02*
X184320438Y-81740213D01*
X184320438Y-81740213D02*
X184272819Y-81644975D01*
X184272819Y-81644975D02*
X184272819Y-81406880D01*
X184272819Y-81406880D02*
X184320438Y-81311642D01*
X184320438Y-81311642D02*
X184368057Y-81264023D01*
X184368057Y-81264023D02*
X184463295Y-81216404D01*
X184463295Y-81216404D02*
X184558533Y-81216404D01*
X184558533Y-81216404D02*
X184701390Y-81264023D01*
X184701390Y-81264023D02*
X185272819Y-81835451D01*
X185272819Y-81835451D02*
X185272819Y-81216404D01*
X217146919Y-102327847D02*
X216670728Y-102661180D01*
X217146919Y-102899275D02*
X216146919Y-102899275D01*
X216146919Y-102899275D02*
X216146919Y-102518323D01*
X216146919Y-102518323D02*
X216194538Y-102423085D01*
X216194538Y-102423085D02*
X216242157Y-102375466D01*
X216242157Y-102375466D02*
X216337395Y-102327847D01*
X216337395Y-102327847D02*
X216480252Y-102327847D01*
X216480252Y-102327847D02*
X216575490Y-102375466D01*
X216575490Y-102375466D02*
X216623109Y-102423085D01*
X216623109Y-102423085D02*
X216670728Y-102518323D01*
X216670728Y-102518323D02*
X216670728Y-102899275D01*
X216146919Y-101994513D02*
X216146919Y-101375466D01*
X216146919Y-101375466D02*
X216527871Y-101708799D01*
X216527871Y-101708799D02*
X216527871Y-101565942D01*
X216527871Y-101565942D02*
X216575490Y-101470704D01*
X216575490Y-101470704D02*
X216623109Y-101423085D01*
X216623109Y-101423085D02*
X216718347Y-101375466D01*
X216718347Y-101375466D02*
X216956442Y-101375466D01*
X216956442Y-101375466D02*
X217051680Y-101423085D01*
X217051680Y-101423085D02*
X217099300Y-101470704D01*
X217099300Y-101470704D02*
X217146919Y-101565942D01*
X217146919Y-101565942D02*
X217146919Y-101851656D01*
X217146919Y-101851656D02*
X217099300Y-101946894D01*
X217099300Y-101946894D02*
X217051680Y-101994513D01*
X216146919Y-100756418D02*
X216146919Y-100661180D01*
X216146919Y-100661180D02*
X216194538Y-100565942D01*
X216194538Y-100565942D02*
X216242157Y-100518323D01*
X216242157Y-100518323D02*
X216337395Y-100470704D01*
X216337395Y-100470704D02*
X216527871Y-100423085D01*
X216527871Y-100423085D02*
X216765966Y-100423085D01*
X216765966Y-100423085D02*
X216956442Y-100470704D01*
X216956442Y-100470704D02*
X217051680Y-100518323D01*
X217051680Y-100518323D02*
X217099300Y-100565942D01*
X217099300Y-100565942D02*
X217146919Y-100661180D01*
X217146919Y-100661180D02*
X217146919Y-100756418D01*
X217146919Y-100756418D02*
X217099300Y-100851656D01*
X217099300Y-100851656D02*
X217051680Y-100899275D01*
X217051680Y-100899275D02*
X216956442Y-100946894D01*
X216956442Y-100946894D02*
X216765966Y-100994513D01*
X216765966Y-100994513D02*
X216527871Y-100994513D01*
X216527871Y-100994513D02*
X216337395Y-100946894D01*
X216337395Y-100946894D02*
X216242157Y-100899275D01*
X216242157Y-100899275D02*
X216194538Y-100851656D01*
X216194538Y-100851656D02*
X216146919Y-100756418D01*
X216575490Y-99851656D02*
X216527871Y-99946894D01*
X216527871Y-99946894D02*
X216480252Y-99994513D01*
X216480252Y-99994513D02*
X216385014Y-100042132D01*
X216385014Y-100042132D02*
X216337395Y-100042132D01*
X216337395Y-100042132D02*
X216242157Y-99994513D01*
X216242157Y-99994513D02*
X216194538Y-99946894D01*
X216194538Y-99946894D02*
X216146919Y-99851656D01*
X216146919Y-99851656D02*
X216146919Y-99661180D01*
X216146919Y-99661180D02*
X216194538Y-99565942D01*
X216194538Y-99565942D02*
X216242157Y-99518323D01*
X216242157Y-99518323D02*
X216337395Y-99470704D01*
X216337395Y-99470704D02*
X216385014Y-99470704D01*
X216385014Y-99470704D02*
X216480252Y-99518323D01*
X216480252Y-99518323D02*
X216527871Y-99565942D01*
X216527871Y-99565942D02*
X216575490Y-99661180D01*
X216575490Y-99661180D02*
X216575490Y-99851656D01*
X216575490Y-99851656D02*
X216623109Y-99946894D01*
X216623109Y-99946894D02*
X216670728Y-99994513D01*
X216670728Y-99994513D02*
X216765966Y-100042132D01*
X216765966Y-100042132D02*
X216956442Y-100042132D01*
X216956442Y-100042132D02*
X217051680Y-99994513D01*
X217051680Y-99994513D02*
X217099300Y-99946894D01*
X217099300Y-99946894D02*
X217146919Y-99851656D01*
X217146919Y-99851656D02*
X217146919Y-99661180D01*
X217146919Y-99661180D02*
X217099300Y-99565942D01*
X217099300Y-99565942D02*
X217051680Y-99518323D01*
X217051680Y-99518323D02*
X216956442Y-99470704D01*
X216956442Y-99470704D02*
X216765966Y-99470704D01*
X216765966Y-99470704D02*
X216670728Y-99518323D01*
X216670728Y-99518323D02*
X216623109Y-99565942D01*
X216623109Y-99565942D02*
X216575490Y-99661180D01*
D12*
X211981935Y-98266800D02*
X211750265Y-98266800D01*
X211981935Y-97546800D02*
X211750265Y-97546800D01*
X200272000Y-97305500D02*
X198889000Y-97305500D01*
X200272000Y-97305500D02*
X200272000Y-98689500D01*
X200032000Y-97545500D02*
X195192000Y-97545500D01*
X200032000Y-97545500D02*
X200032000Y-107445500D01*
X195192000Y-97545500D02*
X195192000Y-107445500D01*
X198247000Y-100465500D02*
X196977000Y-100465500D01*
X198127000Y-100465500D02*
X198127000Y-101818833D01*
X198007000Y-100465500D02*
X198007000Y-101818833D01*
X197887000Y-100465500D02*
X197887000Y-101818833D01*
X197767000Y-100465500D02*
X197767000Y-101818833D01*
X197647000Y-100465500D02*
X197647000Y-101818833D01*
X197527000Y-100465500D02*
X197527000Y-101818833D01*
X197407000Y-100465500D02*
X197407000Y-101818833D01*
X197287000Y-100465500D02*
X197287000Y-101818833D01*
X197167000Y-100465500D02*
X197167000Y-101818833D01*
X197047000Y-100465500D02*
X197047000Y-101818833D01*
X196977000Y-100465500D02*
X196977000Y-104525500D01*
X198247000Y-101818833D02*
X196977000Y-101818833D01*
X198247000Y-104525500D02*
X198247000Y-100465500D01*
X196977000Y-104525500D02*
X198247000Y-104525500D01*
X200032000Y-107445500D02*
X195192000Y-107445500D01*
X223239000Y-93377736D02*
X223239000Y-93831864D01*
X221769000Y-93377736D02*
X221769000Y-93831864D01*
D13*
X201515600Y-115396201D02*
X201515600Y-115396201D01*
X201515600Y-115496201D02*
X201515600Y-115496201D01*
X201515600Y-115496201D02*
G75*
G03*
X201515600Y-115396201I0J50000D01*
G01*
X201515600Y-115396201D02*
G75*
G03*
X201515600Y-115496201I0J-50000D01*
G01*
D12*
X220050379Y-102236000D02*
X220385621Y-102236000D01*
X220050379Y-102996000D02*
X220385621Y-102996000D01*
X221086000Y-92980965D02*
X221086000Y-93212635D01*
X220366000Y-92980965D02*
X220366000Y-93212635D01*
X208670100Y-101346965D02*
X208670100Y-101578635D01*
X207950100Y-101346965D02*
X207950100Y-101578635D01*
X233800000Y-63500000D02*
X248800000Y-63500000D01*
X233800000Y-78500000D02*
X233800000Y-63500000D01*
X241300000Y-63700000D02*
X240300000Y-64700000D01*
X241300000Y-63700000D02*
X242300000Y-64700000D01*
X248800000Y-63500000D02*
X248800000Y-78500000D01*
X248800000Y-78500000D02*
X233800000Y-78500000D01*
X200272000Y-111904000D02*
X198889000Y-111904000D01*
X200272000Y-111904000D02*
X200272000Y-113288000D01*
X200032000Y-112144000D02*
X195192000Y-112144000D01*
X200032000Y-112144000D02*
X200032000Y-122044000D01*
X195192000Y-112144000D02*
X195192000Y-122044000D01*
X198247000Y-115064000D02*
X196977000Y-115064000D01*
X198127000Y-115064000D02*
X198127000Y-116417333D01*
X198007000Y-115064000D02*
X198007000Y-116417333D01*
X197887000Y-115064000D02*
X197887000Y-116417333D01*
X197767000Y-115064000D02*
X197767000Y-116417333D01*
X197647000Y-115064000D02*
X197647000Y-116417333D01*
X197527000Y-115064000D02*
X197527000Y-116417333D01*
X197407000Y-115064000D02*
X197407000Y-116417333D01*
X197287000Y-115064000D02*
X197287000Y-116417333D01*
X197167000Y-115064000D02*
X197167000Y-116417333D01*
X197047000Y-115064000D02*
X197047000Y-116417333D01*
X196977000Y-115064000D02*
X196977000Y-119124000D01*
X198247000Y-116417333D02*
X196977000Y-116417333D01*
X198247000Y-119124000D02*
X198247000Y-115064000D01*
X196977000Y-119124000D02*
X198247000Y-119124000D01*
X200032000Y-122044000D02*
X195192000Y-122044000D01*
X223239000Y-119336136D02*
X223239000Y-119790264D01*
X221769000Y-119336136D02*
X221769000Y-119790264D01*
X219841400Y-92949765D02*
X219841400Y-93181435D01*
X219121400Y-92949765D02*
X219121400Y-93181435D01*
X206356221Y-100318800D02*
X206020979Y-100318800D01*
X206356221Y-99558800D02*
X206020979Y-99558800D01*
X215344900Y-126999579D02*
X215344900Y-127334821D01*
X214584900Y-126999579D02*
X214584900Y-127334821D01*
X227845252Y-119454200D02*
X227322748Y-119454200D01*
X227845252Y-117984200D02*
X227322748Y-117984200D01*
X207931021Y-125007200D02*
X207595779Y-125007200D01*
X207931021Y-124247200D02*
X207595779Y-124247200D01*
X221070435Y-101568800D02*
X220838765Y-101568800D01*
X221070435Y-100848800D02*
X220838765Y-100848800D01*
X207880221Y-99048800D02*
X207544979Y-99048800D01*
X207880221Y-98288800D02*
X207544979Y-98288800D01*
X209615650Y-93101179D02*
X209615650Y-93436421D01*
X208855650Y-93101179D02*
X208855650Y-93436421D01*
X211612100Y-99140800D02*
X209812100Y-99140800D01*
X211612100Y-99140800D02*
X212412100Y-99140800D01*
X211612100Y-102260800D02*
X210812100Y-102260800D01*
X211612100Y-102260800D02*
X212412100Y-102260800D01*
X208720900Y-127305365D02*
X208720900Y-127537035D01*
X208000900Y-127305365D02*
X208000900Y-127537035D01*
X230990224Y-81294500D02*
X230480776Y-81294500D01*
X230990224Y-80249500D02*
X230480776Y-80249500D01*
X208599650Y-119072880D02*
X208599650Y-119408122D01*
X207839650Y-119072880D02*
X207839650Y-119408122D01*
X211662900Y-125099200D02*
X209862900Y-125099200D01*
X211662900Y-125099200D02*
X212462900Y-125099200D01*
X211662900Y-128219200D02*
X210862900Y-128219200D01*
X211662900Y-128219200D02*
X212462900Y-128219200D01*
X181670000Y-132648000D02*
X180340000Y-132648000D01*
X181670000Y-131318000D02*
X181670000Y-132648000D01*
X181670000Y-130048000D02*
X181670000Y-94428000D01*
X181670000Y-130048000D02*
X179010000Y-130048000D01*
X181670000Y-94428000D02*
X179010000Y-94428000D01*
X179010000Y-130048000D02*
X179010000Y-94428000D01*
X215294100Y-101041179D02*
X215294100Y-101376421D01*
X214534100Y-101041179D02*
X214534100Y-101376421D01*
X214584900Y-124630321D02*
X214584900Y-124295079D01*
X215344900Y-124630321D02*
X215344900Y-124295079D01*
X206407021Y-126277200D02*
X206071779Y-126277200D01*
X206407021Y-125517200D02*
X206071779Y-125517200D01*
X212032735Y-124225201D02*
X211801065Y-124225201D01*
X212032735Y-123505201D02*
X211801065Y-123505201D01*
X218317400Y-122987366D02*
X218317400Y-123219036D01*
X217597400Y-122987366D02*
X217597400Y-123219036D01*
X218387600Y-93377736D02*
X218387600Y-93831864D01*
X216917600Y-93377736D02*
X216917600Y-93831864D01*
X216250450Y-120127366D02*
X216250450Y-120359036D01*
X215530450Y-120127366D02*
X215530450Y-120359036D01*
D13*
X224535200Y-94649100D02*
G75*
G03*
X224535200Y-94649100I-50000J0D01*
G01*
D12*
X225269479Y-103114800D02*
X225604721Y-103114800D01*
X225269479Y-103874800D02*
X225604721Y-103874800D01*
X209666450Y-119059580D02*
X209666450Y-119394822D01*
X208906450Y-119059580D02*
X208906450Y-119394822D01*
X231200000Y-65345000D02*
X231200000Y-66675000D01*
X229870000Y-65345000D02*
X231200000Y-65345000D01*
X228600000Y-65345000D02*
X192980000Y-65345000D01*
X228600000Y-65345000D02*
X228600000Y-68005000D01*
X192980000Y-65345000D02*
X192980000Y-68005000D01*
X228600000Y-68005000D02*
X192980000Y-68005000D01*
X208548850Y-93114479D02*
X208548850Y-93449721D01*
X207788850Y-93114479D02*
X207788850Y-93449721D01*
X216199650Y-94168965D02*
X216199650Y-94400635D01*
X215479650Y-94168965D02*
X215479650Y-94400635D01*
X218266600Y-97028965D02*
X218266600Y-97260635D01*
X217546600Y-97028965D02*
X217546600Y-97260635D01*
X200272000Y-86038500D02*
X198889000Y-86038500D01*
X200272000Y-86038500D02*
X200272000Y-87422500D01*
X200032000Y-86278500D02*
X195192000Y-86278500D01*
X200032000Y-86278500D02*
X200032000Y-96178500D01*
X195192000Y-86278500D02*
X195192000Y-96178500D01*
X198247000Y-89198500D02*
X196977000Y-89198500D01*
X198127000Y-89198500D02*
X198127000Y-90551833D01*
X198007000Y-89198500D02*
X198007000Y-90551833D01*
X197887000Y-89198500D02*
X197887000Y-90551833D01*
X197767000Y-89198500D02*
X197767000Y-90551833D01*
X197647000Y-89198500D02*
X197647000Y-90551833D01*
X197527000Y-89198500D02*
X197527000Y-90551833D01*
X197407000Y-89198500D02*
X197407000Y-90551833D01*
X197287000Y-89198500D02*
X197287000Y-90551833D01*
X197167000Y-89198500D02*
X197167000Y-90551833D01*
X197047000Y-89198500D02*
X197047000Y-90551833D01*
X196977000Y-89198500D02*
X196977000Y-93258500D01*
X198247000Y-90551833D02*
X196977000Y-90551833D01*
X198247000Y-93258500D02*
X198247000Y-89198500D01*
X196977000Y-93258500D02*
X198247000Y-93258500D01*
X200032000Y-96178500D02*
X195192000Y-96178500D01*
X225320280Y-129073200D02*
X225655522Y-129073200D01*
X225320280Y-129833200D02*
X225655522Y-129833200D01*
X218438400Y-119336137D02*
X218438400Y-119790265D01*
X216968400Y-119336137D02*
X216968400Y-119790265D01*
D14*
X222251400Y-122269200D02*
X222251400Y-123469200D01*
X222201400Y-123819200D02*
X222201400Y-124419200D01*
X219301400Y-123819200D02*
X222201400Y-123819200D01*
X222201400Y-124419200D02*
X219301400Y-124419200D01*
X219301400Y-124419200D02*
X219301400Y-123819200D01*
D12*
X250494800Y-111930400D02*
X250494800Y-126930400D01*
X235494800Y-111930400D02*
X250494800Y-111930400D01*
X250294800Y-119430400D02*
X249294800Y-118430400D01*
X250294800Y-119430400D02*
X249294800Y-120430400D01*
X250494800Y-126930400D02*
X235494800Y-126930400D01*
X235494800Y-126930400D02*
X235494800Y-111930400D01*
D13*
X224586000Y-120607500D02*
G75*
G03*
X224586000Y-120607500I-50000J0D01*
G01*
D12*
X219816000Y-118939365D02*
X219816000Y-119171035D01*
X219096000Y-118939365D02*
X219096000Y-119171035D01*
X175888000Y-63500000D02*
X190888000Y-63500000D01*
X175888000Y-78500000D02*
X175888000Y-63500000D01*
X183388000Y-63700000D02*
X182388000Y-64700000D01*
X183388000Y-63700000D02*
X184388000Y-64700000D01*
X190888000Y-63500000D02*
X190888000Y-78500000D01*
X190888000Y-78500000D02*
X175888000Y-78500000D01*
X211659815Y-95956800D02*
X211891485Y-95956800D01*
X211659815Y-96676800D02*
X211891485Y-96676800D01*
X225664000Y-127104000D02*
X225664000Y-122104000D01*
X229504000Y-122604000D02*
X229504000Y-125604000D01*
X227794452Y-93495800D02*
X227271948Y-93495800D01*
X227794452Y-92025800D02*
X227271948Y-92025800D01*
X211710615Y-121915201D02*
X211942285Y-121915201D01*
X211710615Y-122635201D02*
X211942285Y-122635201D01*
D13*
X201464800Y-89437800D02*
X201464800Y-89437800D01*
X201464800Y-89537800D02*
X201464800Y-89537800D01*
X201464800Y-89537800D02*
G75*
G03*
X201464800Y-89437800I0J50000D01*
G01*
X201464800Y-89437800D02*
G75*
G03*
X201464800Y-89537800I0J-50000D01*
G01*
D12*
X179123200Y-132658000D02*
X177793200Y-132658000D01*
X179123200Y-131328000D02*
X179123200Y-132658000D01*
X179123200Y-130058000D02*
X179123200Y-94438000D01*
X179123200Y-130058000D02*
X176463200Y-130058000D01*
X179123200Y-94438000D02*
X176463200Y-94438000D01*
X176463200Y-130058000D02*
X176463200Y-94438000D01*
X231200000Y-67885500D02*
X231200000Y-69215500D01*
X229870000Y-67885500D02*
X231200000Y-67885500D01*
X228600000Y-67885500D02*
X192980000Y-67885500D01*
X228600000Y-67885500D02*
X228600000Y-70545500D01*
X192980000Y-67885500D02*
X192980000Y-70545500D01*
X228600000Y-70545500D02*
X192980000Y-70545500D01*
X221086000Y-118939365D02*
X221086000Y-119171035D01*
X220366000Y-118939365D02*
X220366000Y-119171035D01*
X250444000Y-85972000D02*
X250444000Y-100972000D01*
X235444000Y-85972000D02*
X250444000Y-85972000D01*
X250244000Y-93472000D02*
X249244000Y-92472000D01*
X250244000Y-93472000D02*
X249244000Y-94472000D01*
X250444000Y-100972000D02*
X235444000Y-100972000D01*
X235444000Y-100972000D02*
X235444000Y-85972000D01*
X212537650Y-95082800D02*
X214337650Y-95082800D01*
X212537650Y-95082800D02*
X211737650Y-95082800D01*
X212537650Y-91962800D02*
X213337650Y-91962800D01*
X212537650Y-91962800D02*
X211737650Y-91962800D01*
X225613200Y-101145600D02*
X225613200Y-96145600D01*
X229453200Y-96645600D02*
X229453200Y-99645600D01*
X200272000Y-123376500D02*
X198889000Y-123376500D01*
X200272000Y-123376500D02*
X200272000Y-124760500D01*
X200032000Y-123616500D02*
X195192000Y-123616500D01*
X200032000Y-123616500D02*
X200032000Y-133516500D01*
X195192000Y-123616500D02*
X195192000Y-133516500D01*
X198247000Y-126536500D02*
X196977000Y-126536500D01*
X198127000Y-126536500D02*
X198127000Y-127889833D01*
X198007000Y-126536500D02*
X198007000Y-127889833D01*
X197887000Y-126536500D02*
X197887000Y-127889833D01*
X197767000Y-126536500D02*
X197767000Y-127889833D01*
X197647000Y-126536500D02*
X197647000Y-127889833D01*
X197527000Y-126536500D02*
X197527000Y-127889833D01*
X197407000Y-126536500D02*
X197407000Y-127889833D01*
X197287000Y-126536500D02*
X197287000Y-127889833D01*
X197167000Y-126536500D02*
X197167000Y-127889833D01*
X197047000Y-126536500D02*
X197047000Y-127889833D01*
X196977000Y-126536500D02*
X196977000Y-130596500D01*
X198247000Y-127889833D02*
X196977000Y-127889833D01*
X198247000Y-130596500D02*
X198247000Y-126536500D01*
X196977000Y-130596500D02*
X198247000Y-130596500D01*
X200032000Y-133516500D02*
X195192000Y-133516500D01*
X219796379Y-128144000D02*
X220131621Y-128144000D01*
X219796379Y-128904000D02*
X220131621Y-128904000D01*
X212588450Y-121041201D02*
X214388450Y-121041201D01*
X212588450Y-121041201D02*
X211788450Y-121041201D01*
X212588450Y-117921201D02*
X213388450Y-117921201D01*
X212588450Y-117921201D02*
X211788450Y-117921201D01*
X183910500Y-82699776D02*
X183910500Y-83209224D01*
X182865500Y-82699776D02*
X182865500Y-83209224D01*
X214534100Y-98671921D02*
X214534100Y-98336679D01*
X215294100Y-98671921D02*
X215294100Y-98336679D01*
X221121235Y-127527200D02*
X220889565Y-127527200D01*
X221121235Y-126807200D02*
X220889565Y-126807200D01*
D14*
X222200600Y-96310800D02*
X222200600Y-97510800D01*
X222150600Y-97860800D02*
X222150600Y-98460800D01*
X219250600Y-97860800D02*
X222150600Y-97860800D01*
X222150600Y-98460800D02*
X219250600Y-98460800D01*
X219250600Y-98460800D02*
X219250600Y-97860800D01*
%LPC*%
D15*
X212433600Y-97906800D03*
X211298600Y-97906800D03*
D16*
X197612000Y-98685500D03*
D17*
X197612000Y-106305500D03*
D18*
X222504000Y-92604800D03*
X222504000Y-94604800D03*
D19*
X202535600Y-115526201D03*
D20*
X202535600Y-122596201D03*
D19*
X202535600Y-129666201D03*
D21*
X204825600Y-131741201D03*
D22*
X211120600Y-131741201D03*
D23*
X217115600Y-131741201D03*
D22*
X223110600Y-131741201D03*
D21*
X229405600Y-131741201D03*
D19*
X231695600Y-129666201D03*
D20*
X231695600Y-122596201D03*
D19*
X231695600Y-115526201D03*
D21*
X229405600Y-113451201D03*
D22*
X223110600Y-113451201D03*
D23*
X217115600Y-113451201D03*
D22*
X211120600Y-113451201D03*
D21*
X204825600Y-113451201D03*
D24*
X219620500Y-102616000D03*
X220815500Y-102616000D03*
D25*
X220726000Y-92529300D03*
X220726000Y-93664300D03*
X208310100Y-100895300D03*
X208310100Y-102030300D03*
D26*
X241300000Y-76200000D03*
D27*
X236220000Y-71120000D03*
D26*
X238760000Y-76200000D03*
D27*
X246380000Y-71120000D03*
D16*
X197612000Y-113284000D03*
D17*
X197612000Y-120904000D03*
D18*
X222504000Y-118563200D03*
X222504000Y-120563200D03*
D25*
X219481400Y-92498100D03*
X219481400Y-93633100D03*
D28*
X206786100Y-99938800D03*
X205591100Y-99938800D03*
D29*
X214964900Y-126569700D03*
X214964900Y-127764700D03*
D30*
X228621500Y-118719200D03*
X226546500Y-118719200D03*
D28*
X208360900Y-124627200D03*
X207165900Y-124627200D03*
D15*
X221522100Y-101208800D03*
X220387100Y-101208800D03*
D28*
X208310100Y-98668800D03*
X207115100Y-98668800D03*
D29*
X209235650Y-92671300D03*
X209235650Y-93866300D03*
D31*
X210474600Y-99750800D03*
X210474600Y-100700800D03*
X210474600Y-101650800D03*
X212749600Y-101650800D03*
X212749600Y-99750800D03*
D25*
X208360900Y-126853700D03*
X208360900Y-127988700D03*
D32*
X231648000Y-80772000D03*
X229823000Y-80772000D03*
D29*
X208219650Y-118643001D03*
X208219650Y-119838001D03*
D31*
X210525400Y-125709200D03*
X210525400Y-126659200D03*
X210525400Y-127609200D03*
X212800400Y-127609200D03*
X212800400Y-125709200D03*
D33*
X180340000Y-131318000D03*
D34*
X180340000Y-128778000D03*
X180340000Y-126238000D03*
X180340000Y-123698000D03*
X180340000Y-121158000D03*
X180340000Y-118618000D03*
X180340000Y-116078000D03*
X180340000Y-113538000D03*
X180340000Y-110998000D03*
X180340000Y-108458000D03*
X180340000Y-105918000D03*
X180340000Y-103378000D03*
X180340000Y-100838000D03*
X180340000Y-98298000D03*
X180340000Y-95758000D03*
D29*
X214914100Y-100611300D03*
X214914100Y-101806300D03*
D35*
X214964900Y-125060200D03*
X214964900Y-123865200D03*
D28*
X206836900Y-125897200D03*
X205641900Y-125897200D03*
D15*
X212484400Y-123865201D03*
X211349400Y-123865201D03*
D25*
X217957400Y-122535701D03*
X217957400Y-123670701D03*
D18*
X217652600Y-92604800D03*
X217652600Y-94604800D03*
D25*
X215890450Y-119675701D03*
X215890450Y-120810701D03*
D36*
X224485200Y-93956600D03*
X224485200Y-92811600D03*
D24*
X224839600Y-103494800D03*
X226034600Y-103494800D03*
D29*
X209286450Y-118629701D03*
X209286450Y-119824701D03*
D33*
X229870000Y-66675000D03*
D34*
X227330000Y-66675000D03*
X224790000Y-66675000D03*
X222250000Y-66675000D03*
X219710000Y-66675000D03*
X217170000Y-66675000D03*
X214630000Y-66675000D03*
X212090000Y-66675000D03*
X209550000Y-66675000D03*
X207010000Y-66675000D03*
X204470000Y-66675000D03*
X201930000Y-66675000D03*
X199390000Y-66675000D03*
X196850000Y-66675000D03*
X194310000Y-66675000D03*
D29*
X208168850Y-92684600D03*
X208168850Y-93879600D03*
D25*
X215839650Y-93717300D03*
X215839650Y-94852300D03*
X217906600Y-96577300D03*
X217906600Y-97712300D03*
D16*
X197612000Y-87418500D03*
D17*
X197612000Y-95038500D03*
D24*
X224890401Y-129453200D03*
X226085401Y-129453200D03*
D18*
X217703400Y-118563201D03*
X217703400Y-120563201D03*
D37*
X221701400Y-122869200D03*
X220751400Y-122869200D03*
X219801400Y-122869200D03*
X219801400Y-125369200D03*
X221701400Y-125369200D03*
D38*
X237794800Y-119430400D03*
D39*
X242874800Y-114350400D03*
D38*
X237794800Y-116890400D03*
D39*
X242874800Y-124510400D03*
D36*
X224536000Y-119915000D03*
X224536000Y-118770000D03*
D25*
X219456000Y-118487700D03*
X219456000Y-119622700D03*
D26*
X183388000Y-76200000D03*
D27*
X178308000Y-71120000D03*
D26*
X180848000Y-76200000D03*
D27*
X188468000Y-71120000D03*
D40*
X211208150Y-96316800D03*
X212343150Y-96316800D03*
D41*
X226314000Y-127254000D03*
X228854000Y-127254000D03*
X228854000Y-120954000D03*
X226314000Y-120954000D03*
D30*
X228570700Y-92760800D03*
X226495700Y-92760800D03*
D40*
X211258950Y-122275201D03*
X212393950Y-122275201D03*
D19*
X202484800Y-89567800D03*
D20*
X202484800Y-96637800D03*
D19*
X202484800Y-103707800D03*
D21*
X204774800Y-105782800D03*
D22*
X211069800Y-105782800D03*
D23*
X217064800Y-105782800D03*
D22*
X223059800Y-105782800D03*
D21*
X229354800Y-105782800D03*
D19*
X231644800Y-103707800D03*
D20*
X231644800Y-96637800D03*
D19*
X231644800Y-89567800D03*
D21*
X229354800Y-87492800D03*
D22*
X223059800Y-87492800D03*
D23*
X217064800Y-87492800D03*
D22*
X211069800Y-87492800D03*
D21*
X204774800Y-87492800D03*
D33*
X177793200Y-131328000D03*
D34*
X177793200Y-128788000D03*
X177793200Y-126248000D03*
X177793200Y-123708000D03*
X177793200Y-121168000D03*
X177793200Y-118628000D03*
X177793200Y-116088000D03*
X177793200Y-113548000D03*
X177793200Y-111008000D03*
X177793200Y-108468000D03*
X177793200Y-105928000D03*
X177793200Y-103388000D03*
X177793200Y-100848000D03*
X177793200Y-98308000D03*
X177793200Y-95768000D03*
D33*
X229870000Y-69215500D03*
D34*
X227330000Y-69215500D03*
X224790000Y-69215500D03*
X222250000Y-69215500D03*
X219710000Y-69215500D03*
X217170000Y-69215500D03*
X214630000Y-69215500D03*
X212090000Y-69215500D03*
X209550000Y-69215500D03*
X207010000Y-69215500D03*
X204470000Y-69215500D03*
X201930000Y-69215500D03*
X199390000Y-69215500D03*
X196850000Y-69215500D03*
X194310000Y-69215500D03*
D25*
X220726000Y-118487700D03*
X220726000Y-119622700D03*
D38*
X237744000Y-93472000D03*
D39*
X242824000Y-88392000D03*
D38*
X237744000Y-90932000D03*
D39*
X242824000Y-98552000D03*
D42*
X213675150Y-94472800D03*
X213675150Y-93522800D03*
X213675150Y-92572800D03*
X211400150Y-92572800D03*
X211400150Y-94472800D03*
D41*
X226263200Y-101295600D03*
X228803200Y-101295600D03*
X228803200Y-94995600D03*
X226263200Y-94995600D03*
D16*
X197612000Y-124756500D03*
D17*
X197612000Y-132376500D03*
D24*
X219366500Y-128524000D03*
X220561500Y-128524000D03*
D42*
X213725950Y-120431201D03*
X213725950Y-119481201D03*
X213725950Y-118531201D03*
X211450950Y-118531201D03*
X211450950Y-120431201D03*
D43*
X183388000Y-82042000D03*
X183388000Y-83867000D03*
D35*
X214914100Y-99101800D03*
X214914100Y-97906800D03*
D15*
X221572900Y-127167200D03*
X220437900Y-127167200D03*
D37*
X221650600Y-96910800D03*
X220700600Y-96910800D03*
X219750600Y-96910800D03*
X219750600Y-99410800D03*
X221650600Y-99410800D03*
%LPD*%
M02*
