M48
; DRILL file {KiCad 7.0.7} date Thu Dec 28 09:15:22 2023
; FORMAT={-:-/ absolute / metric / decimal}
; #@! TF.CreationDate,2023-12-28T09:15:22+02:00
; #@! TF.GenerationSoftware,Kicad,Pcbnew,7.0.7
; #@! TF.FileFunction,Plated,1,4,PTH
FMAT,2
METRIC
; #@! TA.AperFunction,Plated,PTH,ViaDrill
T1C0.300
; #@! TA.AperFunction,Plated,PTH,ComponentDrill
T2C0.800
; #@! TA.AperFunction,Plated,PTH,ComponentDrill
T3C0.890
; #@! TA.AperFunction,Plated,PTH,ComponentDrill
T4C1.000
; #@! TA.AperFunction,Plated,PTH,ComponentDrill
T5C2.010
%
G90
G05
T1
X176.53Y-80.01
X176.53Y-82.55
X176.53Y-85.09
X176.53Y-87.63
X176.53Y-90.17
X176.53Y-92.71
X177.8Y-81.28
X177.8Y-83.82
X177.8Y-134.62
X179.07Y-80.01
X179.07Y-82.55
X179.07Y-85.09
X179.07Y-88.9
X179.07Y-91.44
X179.07Y-135.89
X180.34Y-81.28
X180.34Y-83.82
X180.34Y-134.62
X181.61Y-135.89
X182.88Y-134.62
X183.134Y-125.984
X183.134Y-127.508
X183.388Y-130.556
X183.388Y-131.572
X183.896Y-126.746
X184.15Y-133.858
X184.15Y-135.89
X184.404Y-130.556
X184.658Y-125.984
X185.166Y-131.572
X185.42Y-114.3
X185.42Y-116.84
X185.42Y-119.38
X185.42Y-121.412
X185.42Y-129.54
X185.42Y-134.62
X185.928Y-130.556
X186.69Y-113.03
X186.69Y-115.57
X186.69Y-118.11
X186.69Y-120.396
X186.69Y-128.27
X186.69Y-129.54
X186.69Y-133.858
X186.69Y-135.89
X186.944Y-131.572
X187.706Y-111.76
X187.706Y-114.3
X187.706Y-116.84
X187.706Y-119.38
X187.96Y-127.0
X187.96Y-128.27
X187.96Y-134.62
X188.722Y-131.572
X189.23Y-133.858
X189.23Y-135.89
X190.246Y-131.572
X190.5Y-90.17
X190.5Y-134.62
X191.008Y-133.858
X191.262Y-130.556
X191.516Y-108.458
X191.516Y-109.728
X191.516Y-110.998
X191.516Y-112.268
X191.516Y-113.538
X191.516Y-116.332
X191.516Y-117.602
X191.516Y-118.872
X191.77Y-88.9
X191.77Y-115.062
X191.77Y-119.888
X191.77Y-135.89
X192.024Y-132.842
X192.278Y-129.54
X192.786Y-107.188
X192.786Y-112.776
X193.04Y-87.63
X193.04Y-131.826
X193.04Y-134.62
X193.294Y-128.524
X193.548Y-106.934
X194.056Y-130.81
X194.31Y-86.36
X194.31Y-135.89
X194.564Y-115.062
X194.564Y-119.888
X194.776Y-132.334
X195.326Y-132.842
X195.58Y-85.09
X195.707Y-109.474
X196.088Y-127.254
X196.088Y-129.286
X196.85Y-83.82
X196.85Y-135.89
X197.993Y-109.474
X198.12Y-82.55
X199.39Y-135.89
X199.898Y-129.286
X200.66Y-82.55
X200.66Y-107.95
X200.66Y-109.474
X200.914Y-86.106
X200.914Y-87.63
X200.914Y-89.154
X200.914Y-90.678
X200.914Y-92.202
X200.914Y-94.996
X200.914Y-96.52
X200.914Y-98.044
X200.914Y-102.87
X200.914Y-104.14
X200.914Y-105.41
X200.914Y-120.396
X200.914Y-121.92
X200.914Y-123.444
X200.914Y-124.968
X200.914Y-129.286
X200.914Y-130.81
X200.914Y-132.334
X201.041Y-110.549
X201.93Y-78.74
X201.93Y-135.89
X202.413Y-87.493
X202.413Y-87.493
X202.438Y-89.169
X202.438Y-89.169
X202.438Y-90.439
X202.438Y-90.439
X202.438Y-91.709
X202.438Y-91.709
X202.438Y-96.154
X202.438Y-96.154
X202.438Y-97.424
X202.438Y-97.424
X202.438Y-101.869
X202.438Y-101.869
X202.438Y-103.139
X202.438Y-103.139
X202.438Y-104.409
X202.438Y-104.409
X202.438Y-105.679
X202.438Y-105.679
X202.463Y-113.451
X202.463Y-113.451
X202.489Y-115.128
X202.489Y-115.128
X202.489Y-116.398
X202.489Y-116.398
X202.489Y-117.668
X202.489Y-117.668
X202.489Y-122.113
X202.489Y-122.113
X202.489Y-123.383
X202.489Y-123.383
X202.489Y-127.828
X202.489Y-127.828
X202.489Y-129.098
X202.489Y-129.098
X202.489Y-130.368
X202.489Y-130.368
X202.489Y-131.638
X202.489Y-131.638
X202.692Y-86.106
X203.2Y-77.47
X203.2Y-82.55
X203.2Y-110.998
X203.683Y-87.493
X203.683Y-87.493
X203.708Y-105.679
X203.708Y-105.679
X203.733Y-113.451
X203.733Y-113.451
X203.759Y-131.638
X203.759Y-131.638
X203.835Y-109.728
X204.47Y-78.74
X204.47Y-86.106
X204.47Y-135.89
X204.953Y-87.493
X204.953Y-87.493
X204.978Y-105.679
X204.978Y-105.679
X205.003Y-113.451
X205.003Y-113.451
X205.029Y-131.638
X205.029Y-131.638
X205.74Y-77.47
X205.74Y-82.55
X205.962Y-109.601
X206.223Y-87.493
X206.223Y-87.493
X206.248Y-86.106
X206.248Y-105.679
X206.248Y-105.679
X206.273Y-113.451
X206.273Y-113.451
X206.299Y-131.638
X206.299Y-131.638
X206.502Y-112.268
X207.01Y-78.74
X207.01Y-135.89
X207.558Y-100.879
X207.608Y-126.837
X207.772Y-86.106
X208.28Y-77.47
X208.499Y-94.818
X208.499Y-94.818
X208.534Y-108.712
X208.55Y-120.777
X208.55Y-120.777
X208.788Y-85.344
X209.072Y-101.717
X209.072Y-101.717
X209.123Y-127.675
X209.123Y-127.675
X209.296Y-110.744
X209.55Y-76.2
X209.55Y-78.74
X209.55Y-135.89
X209.804Y-83.82
X210.261Y-96.368
X210.312Y-122.326
X210.668Y-87.493
X210.668Y-87.493
X210.693Y-105.679
X210.693Y-105.679
X210.718Y-113.451
X210.718Y-113.451
X210.744Y-131.638
X210.744Y-131.638
X210.82Y-74.93
X210.82Y-77.47
X210.82Y-82.296
X210.82Y-85.344
X210.85Y-102.479
X210.85Y-102.479
X210.901Y-128.437
X210.901Y-128.437
X211.612Y-98.669
X211.612Y-98.669
X211.663Y-124.627
X211.663Y-124.627
X211.836Y-83.82
X211.836Y-109.22
X211.836Y-110.744
X211.938Y-87.493
X211.938Y-87.493
X211.963Y-105.679
X211.963Y-105.679
X211.988Y-113.451
X211.988Y-113.451
X212.014Y-131.638
X212.014Y-131.638
X212.09Y-73.66
X212.09Y-76.2
X212.09Y-135.89
X212.284Y-95.555
X212.284Y-95.555
X212.334Y-121.513
X212.334Y-121.513
X212.725Y-82.296
X212.725Y-85.344
X213.106Y-109.22
X213.273Y-97.958
X213.323Y-123.916
X213.36Y-72.39
X213.36Y-74.93
X213.741Y-83.82
X213.868Y-110.744
X213.868Y-112.268
X214.63Y-71.12
X214.63Y-73.66
X214.63Y-78.74
X214.63Y-82.296
X214.63Y-85.344
X214.63Y-135.89
X215.078Y-94.793
X215.078Y-94.793
X215.128Y-120.751
X215.128Y-120.751
X215.138Y-93.98
X215.138Y-119.481
X215.646Y-83.82
X215.9Y-72.39
X215.9Y-77.47
X215.9Y-109.22
X216.383Y-87.493
X216.383Y-87.493
X216.408Y-105.679
X216.408Y-105.679
X216.433Y-113.451
X216.433Y-113.451
X216.459Y-131.638
X216.459Y-131.638
X216.535Y-78.74
X216.535Y-82.296
X216.535Y-85.344
X217.17Y-71.12
X217.17Y-76.2
X217.17Y-96.774
X217.17Y-122.682
X217.17Y-135.89
X217.424Y-110.744
X217.551Y-83.82
X217.653Y-87.493
X217.653Y-87.493
X217.678Y-105.679
X217.678Y-105.679
X217.703Y-113.451
X217.703Y-113.451
X217.729Y-131.638
X217.729Y-131.638
X217.805Y-77.47
X218.415Y-97.653
X218.44Y-78.74
X218.44Y-82.296
X218.44Y-85.344
X218.44Y-109.22
X218.465Y-123.611
X218.939Y-94.621
X218.939Y-94.621
X218.989Y-120.579
X218.989Y-120.579
X219.075Y-76.2
X219.456Y-83.82
X219.71Y-77.47
X219.71Y-135.89
X219.964Y-107.95
X219.964Y-110.744
X220.218Y-128.27
X220.345Y-78.74
X220.345Y-82.296
X220.345Y-85.344
X220.447Y-98.161
X220.497Y-124.119
X220.701Y-100.701
X220.751Y-126.659
X220.98Y-76.2
X220.98Y-109.22
X221.234Y-102.616
X221.361Y-83.82
X221.615Y-77.47
X222.098Y-87.493
X222.098Y-87.493
X222.123Y-105.679
X222.123Y-105.679
X222.148Y-113.451
X222.148Y-113.451
X222.174Y-131.638
X222.174Y-131.638
X222.25Y-78.74
X222.25Y-82.296
X222.25Y-85.344
X222.25Y-135.89
X222.504Y-101.092
X222.504Y-107.95
X222.504Y-110.744
X222.504Y-127.254
X222.885Y-76.2
X223.266Y-83.82
X223.368Y-87.493
X223.368Y-87.493
X223.393Y-105.679
X223.393Y-105.679
X223.418Y-113.451
X223.418Y-113.451
X223.444Y-131.638
X223.444Y-131.638
X223.52Y-77.47
X223.52Y-109.22
X224.155Y-78.74
X224.155Y-82.296
X224.155Y-85.344
X224.485Y-94.908
X224.485Y-94.908
X224.536Y-120.866
X224.536Y-120.866
X224.79Y-76.2
X224.79Y-107.95
X224.79Y-110.744
X224.79Y-135.89
X225.171Y-83.82
X225.425Y-77.47
X226.06Y-78.74
X226.06Y-82.296
X226.06Y-85.344
X226.06Y-109.22
X226.06Y-134.62
X226.695Y-76.2
X227.076Y-83.82
X227.33Y-77.47
X227.33Y-107.95
X227.33Y-110.744
X227.33Y-135.89
X227.965Y-78.74
X227.965Y-82.296
X227.965Y-85.344
X228.448Y-87.493
X228.448Y-87.493
X228.473Y-105.679
X228.473Y-105.679
X228.498Y-113.451
X228.498Y-113.451
X228.524Y-131.638
X228.524Y-131.638
X228.6Y-76.2
X228.6Y-106.68
X228.6Y-109.22
X228.6Y-134.62
X228.854Y-102.362
X228.854Y-128.524
X228.981Y-83.82
X229.235Y-77.47
X229.718Y-87.493
X229.718Y-87.493
X229.743Y-105.679
X229.743Y-105.679
X229.768Y-113.451
X229.768Y-113.451
X229.794Y-131.638
X229.794Y-131.638
X229.87Y-78.74
X229.87Y-82.296
X229.87Y-85.344
X229.87Y-107.95
X229.87Y-110.744
X229.87Y-135.89
X230.505Y-76.2
X230.886Y-83.82
X230.988Y-87.493
X230.988Y-87.493
X231.013Y-105.679
X231.013Y-105.679
X231.038Y-113.451
X231.038Y-113.451
X231.064Y-131.638
X231.064Y-131.638
X231.14Y-77.47
X231.14Y-106.68
X231.14Y-109.22
X231.14Y-134.62
X231.648Y-88.534
X231.648Y-88.534
X231.648Y-89.804
X231.648Y-89.804
X231.648Y-91.074
X231.648Y-91.074
X231.648Y-96.154
X231.648Y-96.154
X231.648Y-97.424
X231.648Y-97.424
X231.648Y-102.504
X231.648Y-102.504
X231.648Y-103.774
X231.648Y-103.774
X231.648Y-105.044
X231.648Y-105.044
X231.699Y-114.493
X231.699Y-114.493
X231.699Y-115.763
X231.699Y-115.763
X231.699Y-117.033
X231.699Y-117.033
X231.699Y-122.113
X231.699Y-122.113
X231.699Y-123.383
X231.699Y-123.383
X231.699Y-128.463
X231.699Y-128.463
X231.699Y-129.733
X231.699Y-129.733
X231.699Y-131.003
X231.699Y-131.003
X231.775Y-78.74
X231.775Y-82.296
X231.775Y-85.344
X232.41Y-76.2
X232.41Y-107.95
X232.41Y-110.744
X232.41Y-135.89
X232.791Y-83.82
X233.045Y-77.47
X233.68Y-78.74
X233.68Y-82.296
X233.68Y-85.344
X233.68Y-88.138
X233.68Y-91.186
X233.68Y-96.012
X233.68Y-98.806
X233.68Y-101.346
X233.68Y-103.886
X233.68Y-106.68
X233.68Y-109.22
X233.68Y-112.014
X233.68Y-114.554
X233.68Y-117.348
X233.68Y-121.412
X233.68Y-124.46
X233.68Y-126.746
X233.68Y-129.54
X233.68Y-132.08
X233.68Y-134.62
X234.315Y-76.2
X234.696Y-83.82
X234.696Y-86.868
X234.696Y-89.916
X234.95Y-77.47
X234.95Y-94.742
X234.95Y-97.282
X234.95Y-100.076
X234.95Y-102.616
X234.95Y-105.156
X234.95Y-107.95
X234.95Y-110.744
X234.95Y-113.284
X234.95Y-116.078
X234.95Y-122.936
X234.95Y-125.73
X234.95Y-128.27
X234.95Y-130.81
X234.95Y-133.35
X234.95Y-135.89
X235.585Y-82.296
X235.585Y-85.344
X236.22Y-76.2
X236.22Y-96.012
X236.22Y-98.806
X236.22Y-101.346
X236.22Y-103.886
X236.22Y-106.68
X236.22Y-109.22
X236.22Y-121.412
X236.22Y-124.46
X236.22Y-127.0
X236.22Y-129.286
X236.22Y-132.08
X236.22Y-134.62
X236.601Y-83.82
X237.49Y-82.296
X237.49Y-85.344
X237.49Y-97.282
X237.49Y-100.076
X237.49Y-102.616
X237.49Y-105.156
X237.49Y-107.95
X237.49Y-110.744
X237.49Y-122.936
X237.49Y-125.73
X237.49Y-128.016
X237.49Y-130.81
X237.49Y-133.35
X237.49Y-135.89
X238.506Y-83.82
X238.76Y-96.012
X238.76Y-101.346
X238.76Y-103.886
X238.76Y-106.68
X238.76Y-109.22
X238.76Y-121.412
X238.76Y-126.746
X238.76Y-129.286
X238.76Y-132.08
X238.76Y-134.62
X239.395Y-82.296
X239.395Y-85.344
X240.03Y-91.694
X240.03Y-94.742
X240.03Y-102.616
X240.03Y-105.156
X240.03Y-107.95
X240.03Y-110.744
X240.03Y-128.016
X240.03Y-130.81
X240.03Y-133.35
X240.03Y-135.89
X240.284Y-80.772
X240.411Y-83.82
X241.3Y-82.296
X241.3Y-85.344
X241.3Y-93.218
X241.3Y-96.012
X241.3Y-101.346
X241.3Y-103.886
X241.3Y-106.68
X241.3Y-109.22
X241.3Y-118.618
X241.3Y-121.412
X241.3Y-129.286
X241.3Y-132.08
X241.3Y-134.62
X242.189Y-80.772
X242.316Y-83.82
X242.57Y-91.694
X242.57Y-94.742
X242.57Y-102.616
X242.57Y-105.156
X242.57Y-107.95
X242.57Y-110.744
X242.57Y-117.094
X242.57Y-120.142
X242.57Y-128.016
X242.57Y-130.81
X242.57Y-133.35
X242.57Y-135.89
X243.205Y-82.296
X243.205Y-85.344
X243.84Y-77.47
X243.84Y-93.218
X243.84Y-96.012
X243.84Y-101.346
X243.84Y-103.886
X243.84Y-106.68
X243.84Y-109.22
X243.84Y-118.618
X243.84Y-121.412
X243.84Y-129.286
X243.84Y-132.08
X243.84Y-134.62
X244.094Y-80.772
X244.221Y-83.82
X245.11Y-82.296
X245.11Y-85.344
X245.11Y-91.694
X245.11Y-94.742
X245.11Y-102.616
X245.11Y-105.156
X245.11Y-107.95
X245.11Y-110.744
X245.11Y-117.094
X245.11Y-120.142
X245.11Y-128.016
X245.11Y-130.81
X245.11Y-133.35
X245.11Y-135.89
X245.745Y-77.47
X246.126Y-80.772
X246.126Y-83.82
X246.38Y-76.2
X246.38Y-78.74
X246.38Y-93.218
X246.38Y-96.012
X246.38Y-101.346
X246.38Y-103.886
X246.38Y-106.68
X246.38Y-109.22
X246.38Y-118.618
X246.38Y-121.412
X246.38Y-129.286
X246.38Y-132.08
X246.38Y-134.62
X247.142Y-82.296
X247.269Y-85.344
X247.65Y-77.47
X247.65Y-91.694
X247.65Y-94.742
X247.65Y-107.95
X247.65Y-110.49
X247.65Y-117.094
X247.65Y-120.142
X247.65Y-128.016
X247.65Y-130.81
X247.65Y-133.35
X247.65Y-135.89
T2
X197.612Y-87.418
X197.612Y-95.038
X197.612Y-98.685
X197.612Y-106.305
X197.612Y-113.284
X197.612Y-120.904
X197.612Y-124.756
X197.612Y-132.376
T3
X180.848Y-76.2
X183.388Y-76.2
X237.744Y-90.932
X237.744Y-93.472
X237.795Y-116.89
X237.795Y-119.43
X238.76Y-76.2
X241.3Y-76.2
T4
X177.793Y-95.768
X177.793Y-98.308
X177.793Y-100.848
X177.793Y-103.388
X177.793Y-105.928
X177.793Y-108.468
X177.793Y-111.008
X177.793Y-113.548
X177.793Y-116.088
X177.793Y-118.628
X177.793Y-121.168
X177.793Y-123.708
X177.793Y-126.248
X177.793Y-128.788
X177.793Y-131.328
X180.34Y-95.758
X180.34Y-98.298
X180.34Y-100.838
X180.34Y-103.378
X180.34Y-105.918
X180.34Y-108.458
X180.34Y-110.998
X180.34Y-113.538
X180.34Y-116.078
X180.34Y-118.618
X180.34Y-121.158
X180.34Y-123.698
X180.34Y-126.238
X180.34Y-128.778
X180.34Y-131.318
X194.31Y-66.675
X194.31Y-69.215
X196.85Y-66.675
X196.85Y-69.215
X199.39Y-66.675
X199.39Y-69.215
X201.93Y-66.675
X201.93Y-69.215
X204.47Y-66.675
X204.47Y-69.215
X207.01Y-66.675
X207.01Y-69.215
X209.55Y-66.675
X209.55Y-69.215
X212.09Y-66.675
X212.09Y-69.215
X214.63Y-66.675
X214.63Y-69.215
X217.17Y-66.675
X217.17Y-69.215
X219.71Y-66.675
X219.71Y-69.215
X222.25Y-66.675
X222.25Y-69.215
X224.79Y-66.675
X224.79Y-69.215
X227.33Y-66.675
X227.33Y-69.215
X229.87Y-66.675
X229.87Y-69.215
T5
X178.308Y-71.12
X188.468Y-71.12
X236.22Y-71.12
X242.824Y-88.392
X242.824Y-98.552
X242.875Y-114.35
X242.875Y-124.51
X246.38Y-71.12
T0
M30
