%TF.GenerationSoftware,KiCad,Pcbnew,7.0.7*%
%TF.CreationDate,2023-12-28T09:15:23+02:00*%
%TF.ProjectId,AD3 Front End Amplifier,41443320-4672-46f6-9e74-20456e642041,rev?*%
%TF.SameCoordinates,Original*%
%TF.FileFunction,Drillmap*%
%TF.FilePolarity,Positive*%
%FSLAX45Y45*%
G04 Gerber Fmt 4.5, Leading zero omitted, Abs format (unit mm)*
G04 Created by KiCad (PCBNEW 7.0.7) date 2023-12-28 09:15:23*
%MOMM*%
%LPD*%
G01*
G04 APERTURE LIST*
%ADD10C,0.100000*%
%ADD11C,0.200000*%
%ADD12C,0.030000*%
%ADD13C,0.080000*%
%ADD14C,0.089000*%
%ADD15C,0.201000*%
G04 APERTURE END LIST*
D10*
X17489200Y-6223000D02*
X25127000Y-6223000D01*
X25127000Y-13683000D01*
X17489200Y-13683000D01*
X17489200Y-6223000D01*
D11*
D12*
X17638000Y-7986000D02*
X17668000Y-8016000D01*
X17668000Y-7986000D02*
X17638000Y-8016000D01*
X17638000Y-8240000D02*
X17668000Y-8270000D01*
X17668000Y-8240000D02*
X17638000Y-8270000D01*
X17638000Y-8494000D02*
X17668000Y-8524000D01*
X17668000Y-8494000D02*
X17638000Y-8524000D01*
X17638000Y-8748000D02*
X17668000Y-8778000D01*
X17668000Y-8748000D02*
X17638000Y-8778000D01*
X17638000Y-9002000D02*
X17668000Y-9032000D01*
X17668000Y-9002000D02*
X17638000Y-9032000D01*
X17638000Y-9256000D02*
X17668000Y-9286000D01*
X17668000Y-9256000D02*
X17638000Y-9286000D01*
X17765000Y-8113000D02*
X17795000Y-8143000D01*
X17795000Y-8113000D02*
X17765000Y-8143000D01*
X17765000Y-8367000D02*
X17795000Y-8397000D01*
X17795000Y-8367000D02*
X17765000Y-8397000D01*
X17765000Y-13447000D02*
X17795000Y-13477000D01*
X17795000Y-13447000D02*
X17765000Y-13477000D01*
X17892000Y-7986000D02*
X17922000Y-8016000D01*
X17922000Y-7986000D02*
X17892000Y-8016000D01*
X17892000Y-8240000D02*
X17922000Y-8270000D01*
X17922000Y-8240000D02*
X17892000Y-8270000D01*
X17892000Y-8494000D02*
X17922000Y-8524000D01*
X17922000Y-8494000D02*
X17892000Y-8524000D01*
X17892000Y-8875000D02*
X17922000Y-8905000D01*
X17922000Y-8875000D02*
X17892000Y-8905000D01*
X17892000Y-9129000D02*
X17922000Y-9159000D01*
X17922000Y-9129000D02*
X17892000Y-9159000D01*
X17892000Y-13574000D02*
X17922000Y-13604000D01*
X17922000Y-13574000D02*
X17892000Y-13604000D01*
X18019000Y-8113000D02*
X18049000Y-8143000D01*
X18049000Y-8113000D02*
X18019000Y-8143000D01*
X18019000Y-8367000D02*
X18049000Y-8397000D01*
X18049000Y-8367000D02*
X18019000Y-8397000D01*
X18019000Y-13447000D02*
X18049000Y-13477000D01*
X18049000Y-13447000D02*
X18019000Y-13477000D01*
X18146000Y-13574000D02*
X18176000Y-13604000D01*
X18176000Y-13574000D02*
X18146000Y-13604000D01*
X18273000Y-13447000D02*
X18303000Y-13477000D01*
X18303000Y-13447000D02*
X18273000Y-13477000D01*
X18298400Y-12583400D02*
X18328400Y-12613400D01*
X18328400Y-12583400D02*
X18298400Y-12613400D01*
X18298400Y-12735800D02*
X18328400Y-12765800D01*
X18328400Y-12735800D02*
X18298400Y-12765800D01*
X18323800Y-13040600D02*
X18353800Y-13070600D01*
X18353800Y-13040600D02*
X18323800Y-13070600D01*
X18323800Y-13142200D02*
X18353800Y-13172200D01*
X18353800Y-13142200D02*
X18323800Y-13172200D01*
X18374600Y-12659600D02*
X18404600Y-12689600D01*
X18404600Y-12659600D02*
X18374600Y-12689600D01*
X18400000Y-13370800D02*
X18430000Y-13400800D01*
X18430000Y-13370800D02*
X18400000Y-13400800D01*
X18400000Y-13574000D02*
X18430000Y-13604000D01*
X18430000Y-13574000D02*
X18400000Y-13604000D01*
X18425400Y-13040600D02*
X18455400Y-13070600D01*
X18455400Y-13040600D02*
X18425400Y-13070600D01*
X18450800Y-12583400D02*
X18480800Y-12613400D01*
X18480800Y-12583400D02*
X18450800Y-12613400D01*
X18501600Y-13142200D02*
X18531600Y-13172200D01*
X18531600Y-13142200D02*
X18501600Y-13172200D01*
X18527000Y-11415000D02*
X18557000Y-11445000D01*
X18557000Y-11415000D02*
X18527000Y-11445000D01*
X18527000Y-11669000D02*
X18557000Y-11699000D01*
X18557000Y-11669000D02*
X18527000Y-11699000D01*
X18527000Y-11923000D02*
X18557000Y-11953000D01*
X18557000Y-11923000D02*
X18527000Y-11953000D01*
X18527000Y-12126200D02*
X18557000Y-12156200D01*
X18557000Y-12126200D02*
X18527000Y-12156200D01*
X18527000Y-12939000D02*
X18557000Y-12969000D01*
X18557000Y-12939000D02*
X18527000Y-12969000D01*
X18527000Y-13447000D02*
X18557000Y-13477000D01*
X18557000Y-13447000D02*
X18527000Y-13477000D01*
X18577800Y-13040600D02*
X18607800Y-13070600D01*
X18607800Y-13040600D02*
X18577800Y-13070600D01*
X18654000Y-11288000D02*
X18684000Y-11318000D01*
X18684000Y-11288000D02*
X18654000Y-11318000D01*
X18654000Y-11542000D02*
X18684000Y-11572000D01*
X18684000Y-11542000D02*
X18654000Y-11572000D01*
X18654000Y-11796000D02*
X18684000Y-11826000D01*
X18684000Y-11796000D02*
X18654000Y-11826000D01*
X18654000Y-12024600D02*
X18684000Y-12054600D01*
X18684000Y-12024600D02*
X18654000Y-12054600D01*
X18654000Y-12812000D02*
X18684000Y-12842000D01*
X18684000Y-12812000D02*
X18654000Y-12842000D01*
X18654000Y-12939000D02*
X18684000Y-12969000D01*
X18684000Y-12939000D02*
X18654000Y-12969000D01*
X18654000Y-13370800D02*
X18684000Y-13400800D01*
X18684000Y-13370800D02*
X18654000Y-13400800D01*
X18654000Y-13574000D02*
X18684000Y-13604000D01*
X18684000Y-13574000D02*
X18654000Y-13604000D01*
X18679400Y-13142200D02*
X18709400Y-13172200D01*
X18709400Y-13142200D02*
X18679400Y-13172200D01*
X18755600Y-11161000D02*
X18785600Y-11191000D01*
X18785600Y-11161000D02*
X18755600Y-11191000D01*
X18755600Y-11415000D02*
X18785600Y-11445000D01*
X18785600Y-11415000D02*
X18755600Y-11445000D01*
X18755600Y-11669000D02*
X18785600Y-11699000D01*
X18785600Y-11669000D02*
X18755600Y-11699000D01*
X18755600Y-11923000D02*
X18785600Y-11953000D01*
X18785600Y-11923000D02*
X18755600Y-11953000D01*
X18781000Y-12685000D02*
X18811000Y-12715000D01*
X18811000Y-12685000D02*
X18781000Y-12715000D01*
X18781000Y-12812000D02*
X18811000Y-12842000D01*
X18811000Y-12812000D02*
X18781000Y-12842000D01*
X18781000Y-13447000D02*
X18811000Y-13477000D01*
X18811000Y-13447000D02*
X18781000Y-13477000D01*
X18857200Y-13142200D02*
X18887200Y-13172200D01*
X18887200Y-13142200D02*
X18857200Y-13172200D01*
X18908000Y-13370800D02*
X18938000Y-13400800D01*
X18938000Y-13370800D02*
X18908000Y-13400800D01*
X18908000Y-13574000D02*
X18938000Y-13604000D01*
X18938000Y-13574000D02*
X18908000Y-13604000D01*
X19009600Y-13142200D02*
X19039600Y-13172200D01*
X19039600Y-13142200D02*
X19009600Y-13172200D01*
X19035000Y-9002000D02*
X19065000Y-9032000D01*
X19065000Y-9002000D02*
X19035000Y-9032000D01*
X19035000Y-13447000D02*
X19065000Y-13477000D01*
X19065000Y-13447000D02*
X19035000Y-13477000D01*
X19085800Y-13370800D02*
X19115800Y-13400800D01*
X19115800Y-13370800D02*
X19085800Y-13400800D01*
X19111200Y-13040600D02*
X19141200Y-13070600D01*
X19141200Y-13040600D02*
X19111200Y-13070600D01*
X19136600Y-10830800D02*
X19166600Y-10860800D01*
X19166600Y-10830800D02*
X19136600Y-10860800D01*
X19136600Y-10957800D02*
X19166600Y-10987800D01*
X19166600Y-10957800D02*
X19136600Y-10987800D01*
X19136600Y-11084800D02*
X19166600Y-11114800D01*
X19166600Y-11084800D02*
X19136600Y-11114800D01*
X19136600Y-11211800D02*
X19166600Y-11241800D01*
X19166600Y-11211800D02*
X19136600Y-11241800D01*
X19136600Y-11338800D02*
X19166600Y-11368800D01*
X19166600Y-11338800D02*
X19136600Y-11368800D01*
X19136600Y-11618200D02*
X19166600Y-11648200D01*
X19166600Y-11618200D02*
X19136600Y-11648200D01*
X19136600Y-11745200D02*
X19166600Y-11775200D01*
X19166600Y-11745200D02*
X19136600Y-11775200D01*
X19136600Y-11872200D02*
X19166600Y-11902200D01*
X19166600Y-11872200D02*
X19136600Y-11902200D01*
X19162000Y-8875000D02*
X19192000Y-8905000D01*
X19192000Y-8875000D02*
X19162000Y-8905000D01*
X19162000Y-11491200D02*
X19192000Y-11521200D01*
X19192000Y-11491200D02*
X19162000Y-11521200D01*
X19162000Y-11973800D02*
X19192000Y-12003800D01*
X19192000Y-11973800D02*
X19162000Y-12003800D01*
X19162000Y-13574000D02*
X19192000Y-13604000D01*
X19192000Y-13574000D02*
X19162000Y-13604000D01*
X19187400Y-13269200D02*
X19217400Y-13299200D01*
X19217400Y-13269200D02*
X19187400Y-13299200D01*
X19212800Y-12939000D02*
X19242800Y-12969000D01*
X19242800Y-12939000D02*
X19212800Y-12969000D01*
X19263600Y-10703800D02*
X19293600Y-10733800D01*
X19293600Y-10703800D02*
X19263600Y-10733800D01*
X19263600Y-11262600D02*
X19293600Y-11292600D01*
X19293600Y-11262600D02*
X19263600Y-11292600D01*
X19289000Y-8748000D02*
X19319000Y-8778000D01*
X19319000Y-8748000D02*
X19289000Y-8778000D01*
X19289000Y-13167600D02*
X19319000Y-13197600D01*
X19319000Y-13167600D02*
X19289000Y-13197600D01*
X19289000Y-13447000D02*
X19319000Y-13477000D01*
X19319000Y-13447000D02*
X19289000Y-13477000D01*
X19314400Y-12837400D02*
X19344400Y-12867400D01*
X19344400Y-12837400D02*
X19314400Y-12867400D01*
X19339800Y-10678400D02*
X19369800Y-10708400D01*
X19369800Y-10678400D02*
X19339800Y-10708400D01*
X19390600Y-13066000D02*
X19420600Y-13096000D01*
X19420600Y-13066000D02*
X19390600Y-13096000D01*
X19416000Y-8621000D02*
X19446000Y-8651000D01*
X19446000Y-8621000D02*
X19416000Y-8651000D01*
X19416000Y-13574000D02*
X19446000Y-13604000D01*
X19446000Y-13574000D02*
X19416000Y-13604000D01*
X19441400Y-11491200D02*
X19471400Y-11521200D01*
X19471400Y-11491200D02*
X19441400Y-11521200D01*
X19441400Y-11973800D02*
X19471400Y-12003800D01*
X19471400Y-11973800D02*
X19441400Y-12003800D01*
X19462650Y-13218400D02*
X19492650Y-13248400D01*
X19492650Y-13218400D02*
X19462650Y-13248400D01*
X19517600Y-13269200D02*
X19547600Y-13299200D01*
X19547600Y-13269200D02*
X19517600Y-13299200D01*
X19543000Y-8494000D02*
X19573000Y-8524000D01*
X19573000Y-8494000D02*
X19543000Y-8524000D01*
X19555700Y-10932400D02*
X19585700Y-10962400D01*
X19585700Y-10932400D02*
X19555700Y-10962400D01*
X19593800Y-12710400D02*
X19623800Y-12740400D01*
X19623800Y-12710400D02*
X19593800Y-12740400D01*
X19593800Y-12913600D02*
X19623800Y-12943600D01*
X19623800Y-12913600D02*
X19593800Y-12943600D01*
X19670000Y-8367000D02*
X19700000Y-8397000D01*
X19700000Y-8367000D02*
X19670000Y-8397000D01*
X19670000Y-13574000D02*
X19700000Y-13604000D01*
X19700000Y-13574000D02*
X19670000Y-13604000D01*
X19784300Y-10932400D02*
X19814300Y-10962400D01*
X19814300Y-10932400D02*
X19784300Y-10962400D01*
X19797000Y-8240000D02*
X19827000Y-8270000D01*
X19827000Y-8240000D02*
X19797000Y-8270000D01*
X19924000Y-13574000D02*
X19954000Y-13604000D01*
X19954000Y-13574000D02*
X19924000Y-13604000D01*
X19974800Y-12913600D02*
X20004800Y-12943600D01*
X20004800Y-12913600D02*
X19974800Y-12943600D01*
X20051000Y-8240000D02*
X20081000Y-8270000D01*
X20081000Y-8240000D02*
X20051000Y-8270000D01*
X20051000Y-10780000D02*
X20081000Y-10810000D01*
X20081000Y-10780000D02*
X20051000Y-10810000D01*
X20051000Y-10932400D02*
X20081000Y-10962400D01*
X20081000Y-10932400D02*
X20051000Y-10962400D01*
X20076400Y-8595600D02*
X20106400Y-8625600D01*
X20106400Y-8595600D02*
X20076400Y-8625600D01*
X20076400Y-8748000D02*
X20106400Y-8778000D01*
X20106400Y-8748000D02*
X20076400Y-8778000D01*
X20076400Y-8900400D02*
X20106400Y-8930400D01*
X20106400Y-8900400D02*
X20076400Y-8930400D01*
X20076400Y-9052800D02*
X20106400Y-9082800D01*
X20106400Y-9052800D02*
X20076400Y-9082800D01*
X20076400Y-9205200D02*
X20106400Y-9235200D01*
X20106400Y-9205200D02*
X20076400Y-9235200D01*
X20076400Y-9484600D02*
X20106400Y-9514600D01*
X20106400Y-9484600D02*
X20076400Y-9514600D01*
X20076400Y-9637000D02*
X20106400Y-9667000D01*
X20106400Y-9637000D02*
X20076400Y-9667000D01*
X20076400Y-9789400D02*
X20106400Y-9819400D01*
X20106400Y-9789400D02*
X20076400Y-9819400D01*
X20076400Y-10272000D02*
X20106400Y-10302000D01*
X20106400Y-10272000D02*
X20076400Y-10302000D01*
X20076400Y-10399000D02*
X20106400Y-10429000D01*
X20106400Y-10399000D02*
X20076400Y-10429000D01*
X20076400Y-10526000D02*
X20106400Y-10556000D01*
X20106400Y-10526000D02*
X20076400Y-10556000D01*
X20076400Y-12024600D02*
X20106400Y-12054600D01*
X20106400Y-12024600D02*
X20076400Y-12054600D01*
X20076400Y-12177000D02*
X20106400Y-12207000D01*
X20106400Y-12177000D02*
X20076400Y-12207000D01*
X20076400Y-12329400D02*
X20106400Y-12359400D01*
X20106400Y-12329400D02*
X20076400Y-12359400D01*
X20076400Y-12481800D02*
X20106400Y-12511800D01*
X20106400Y-12481800D02*
X20076400Y-12511800D01*
X20076400Y-12913600D02*
X20106400Y-12943600D01*
X20106400Y-12913600D02*
X20076400Y-12943600D01*
X20076400Y-13066000D02*
X20106400Y-13096000D01*
X20106400Y-13066000D02*
X20076400Y-13096000D01*
X20076400Y-13218400D02*
X20106400Y-13248400D01*
X20106400Y-13218400D02*
X20076400Y-13248400D01*
X20089100Y-11039950D02*
X20119100Y-11069950D01*
X20119100Y-11039950D02*
X20089100Y-11069950D01*
X20178000Y-7859000D02*
X20208000Y-7889000D01*
X20208000Y-7859000D02*
X20178000Y-7889000D01*
X20178000Y-13574000D02*
X20208000Y-13604000D01*
X20208000Y-13574000D02*
X20178000Y-13604000D01*
X20226260Y-8734280D02*
X20256260Y-8764280D01*
X20256260Y-8734280D02*
X20226260Y-8764280D01*
X20226260Y-8734280D02*
X20256260Y-8764280D01*
X20256260Y-8734280D02*
X20226260Y-8764280D01*
X20228800Y-8901920D02*
X20258800Y-8931920D01*
X20258800Y-8901920D02*
X20228800Y-8931920D01*
X20228800Y-8901920D02*
X20258800Y-8931920D01*
X20258800Y-8901920D02*
X20228800Y-8931920D01*
X20228800Y-9028920D02*
X20258800Y-9058920D01*
X20258800Y-9028920D02*
X20228800Y-9058920D01*
X20228800Y-9028920D02*
X20258800Y-9058920D01*
X20258800Y-9028920D02*
X20228800Y-9058920D01*
X20228800Y-9155920D02*
X20258800Y-9185920D01*
X20258800Y-9155920D02*
X20228800Y-9185920D01*
X20228800Y-9155920D02*
X20258800Y-9185920D01*
X20258800Y-9155920D02*
X20228800Y-9185920D01*
X20228800Y-9600420D02*
X20258800Y-9630420D01*
X20258800Y-9600420D02*
X20228800Y-9630420D01*
X20228800Y-9600420D02*
X20258800Y-9630420D01*
X20258800Y-9600420D02*
X20228800Y-9630420D01*
X20228800Y-9727420D02*
X20258800Y-9757420D01*
X20258800Y-9727420D02*
X20228800Y-9757420D01*
X20228800Y-9727420D02*
X20258800Y-9757420D01*
X20258800Y-9727420D02*
X20228800Y-9757420D01*
X20228800Y-10171920D02*
X20258800Y-10201920D01*
X20258800Y-10171920D02*
X20228800Y-10201920D01*
X20228800Y-10171920D02*
X20258800Y-10201920D01*
X20258800Y-10171920D02*
X20228800Y-10201920D01*
X20228800Y-10298920D02*
X20258800Y-10328920D01*
X20258800Y-10298920D02*
X20228800Y-10328920D01*
X20228800Y-10298920D02*
X20258800Y-10328920D01*
X20258800Y-10298920D02*
X20228800Y-10328920D01*
X20228800Y-10425920D02*
X20258800Y-10455920D01*
X20258800Y-10425920D02*
X20228800Y-10455920D01*
X20228800Y-10425920D02*
X20258800Y-10455920D01*
X20258800Y-10425920D02*
X20228800Y-10455920D01*
X20228800Y-10552920D02*
X20258800Y-10582920D01*
X20258800Y-10552920D02*
X20228800Y-10582920D01*
X20228800Y-10552920D02*
X20258800Y-10582920D01*
X20258800Y-10552920D02*
X20228800Y-10582920D01*
X20231340Y-11330120D02*
X20261340Y-11360120D01*
X20261340Y-11330120D02*
X20231340Y-11360120D01*
X20231340Y-11330120D02*
X20261340Y-11360120D01*
X20261340Y-11330120D02*
X20231340Y-11360120D01*
X20233880Y-11497760D02*
X20263880Y-11527760D01*
X20263880Y-11497760D02*
X20233880Y-11527760D01*
X20233880Y-11497760D02*
X20263880Y-11527760D01*
X20263880Y-11497760D02*
X20233880Y-11527760D01*
X20233880Y-11624760D02*
X20263880Y-11654760D01*
X20263880Y-11624760D02*
X20233880Y-11654760D01*
X20233880Y-11624760D02*
X20263880Y-11654760D01*
X20263880Y-11624760D02*
X20233880Y-11654760D01*
X20233880Y-11751760D02*
X20263880Y-11781760D01*
X20263880Y-11751760D02*
X20233880Y-11781760D01*
X20233880Y-11751760D02*
X20263880Y-11781760D01*
X20263880Y-11751760D02*
X20233880Y-11781760D01*
X20233880Y-12196260D02*
X20263880Y-12226260D01*
X20263880Y-12196260D02*
X20233880Y-12226260D01*
X20233880Y-12196260D02*
X20263880Y-12226260D01*
X20263880Y-12196260D02*
X20233880Y-12226260D01*
X20233880Y-12323260D02*
X20263880Y-12353260D01*
X20263880Y-12323260D02*
X20233880Y-12353260D01*
X20233880Y-12323260D02*
X20263880Y-12353260D01*
X20263880Y-12323260D02*
X20233880Y-12353260D01*
X20233880Y-12767760D02*
X20263880Y-12797760D01*
X20263880Y-12767760D02*
X20233880Y-12797760D01*
X20233880Y-12767760D02*
X20263880Y-12797760D01*
X20263880Y-12767760D02*
X20233880Y-12797760D01*
X20233880Y-12894760D02*
X20263880Y-12924760D01*
X20263880Y-12894760D02*
X20233880Y-12924760D01*
X20233880Y-12894760D02*
X20263880Y-12924760D01*
X20263880Y-12894760D02*
X20233880Y-12924760D01*
X20233880Y-13021760D02*
X20263880Y-13051760D01*
X20263880Y-13021760D02*
X20233880Y-13051760D01*
X20233880Y-13021760D02*
X20263880Y-13051760D01*
X20263880Y-13021760D02*
X20233880Y-13051760D01*
X20233880Y-13148760D02*
X20263880Y-13178760D01*
X20263880Y-13148760D02*
X20233880Y-13178760D01*
X20233880Y-13148760D02*
X20263880Y-13178760D01*
X20263880Y-13148760D02*
X20233880Y-13178760D01*
X20254200Y-8595600D02*
X20284200Y-8625600D01*
X20284200Y-8595600D02*
X20254200Y-8625600D01*
X20305000Y-7732000D02*
X20335000Y-7762000D01*
X20335000Y-7732000D02*
X20305000Y-7762000D01*
X20305000Y-8240000D02*
X20335000Y-8270000D01*
X20335000Y-8240000D02*
X20305000Y-8270000D01*
X20305000Y-11084800D02*
X20335000Y-11114800D01*
X20335000Y-11084800D02*
X20305000Y-11114800D01*
X20353260Y-8734280D02*
X20383260Y-8764280D01*
X20383260Y-8734280D02*
X20353260Y-8764280D01*
X20353260Y-8734280D02*
X20383260Y-8764280D01*
X20383260Y-8734280D02*
X20353260Y-8764280D01*
X20355800Y-10552920D02*
X20385800Y-10582920D01*
X20385800Y-10552920D02*
X20355800Y-10582920D01*
X20355800Y-10552920D02*
X20385800Y-10582920D01*
X20385800Y-10552920D02*
X20355800Y-10582920D01*
X20358340Y-11330120D02*
X20388340Y-11360120D01*
X20388340Y-11330120D02*
X20358340Y-11360120D01*
X20358340Y-11330120D02*
X20388340Y-11360120D01*
X20388340Y-11330120D02*
X20358340Y-11360120D01*
X20360880Y-13148760D02*
X20390880Y-13178760D01*
X20390880Y-13148760D02*
X20360880Y-13178760D01*
X20360880Y-13148760D02*
X20390880Y-13178760D01*
X20390880Y-13148760D02*
X20360880Y-13178760D01*
X20368500Y-10957800D02*
X20398500Y-10987800D01*
X20398500Y-10957800D02*
X20368500Y-10987800D01*
X20432000Y-7859000D02*
X20462000Y-7889000D01*
X20462000Y-7859000D02*
X20432000Y-7889000D01*
X20432000Y-8595600D02*
X20462000Y-8625600D01*
X20462000Y-8595600D02*
X20432000Y-8625600D01*
X20432000Y-13574000D02*
X20462000Y-13604000D01*
X20462000Y-13574000D02*
X20432000Y-13604000D01*
X20480260Y-8734280D02*
X20510260Y-8764280D01*
X20510260Y-8734280D02*
X20480260Y-8764280D01*
X20480260Y-8734280D02*
X20510260Y-8764280D01*
X20510260Y-8734280D02*
X20480260Y-8764280D01*
X20482800Y-10552920D02*
X20512800Y-10582920D01*
X20512800Y-10552920D02*
X20482800Y-10582920D01*
X20482800Y-10552920D02*
X20512800Y-10582920D01*
X20512800Y-10552920D02*
X20482800Y-10582920D01*
X20485340Y-11330120D02*
X20515340Y-11360120D01*
X20515340Y-11330120D02*
X20485340Y-11360120D01*
X20485340Y-11330120D02*
X20515340Y-11360120D01*
X20515340Y-11330120D02*
X20485340Y-11360120D01*
X20487880Y-13148760D02*
X20517880Y-13178760D01*
X20517880Y-13148760D02*
X20487880Y-13178760D01*
X20487880Y-13148760D02*
X20517880Y-13178760D01*
X20517880Y-13148760D02*
X20487880Y-13178760D01*
X20559000Y-7732000D02*
X20589000Y-7762000D01*
X20589000Y-7732000D02*
X20559000Y-7762000D01*
X20559000Y-8240000D02*
X20589000Y-8270000D01*
X20589000Y-8240000D02*
X20559000Y-8270000D01*
X20581250Y-10945100D02*
X20611250Y-10975100D01*
X20611250Y-10945100D02*
X20581250Y-10975100D01*
X20607260Y-8734280D02*
X20637260Y-8764280D01*
X20637260Y-8734280D02*
X20607260Y-8764280D01*
X20607260Y-8734280D02*
X20637260Y-8764280D01*
X20637260Y-8734280D02*
X20607260Y-8764280D01*
X20609800Y-8595600D02*
X20639800Y-8625600D01*
X20639800Y-8595600D02*
X20609800Y-8625600D01*
X20609800Y-10552920D02*
X20639800Y-10582920D01*
X20639800Y-10552920D02*
X20609800Y-10582920D01*
X20609800Y-10552920D02*
X20639800Y-10582920D01*
X20639800Y-10552920D02*
X20609800Y-10582920D01*
X20612340Y-11330120D02*
X20642340Y-11360120D01*
X20642340Y-11330120D02*
X20612340Y-11360120D01*
X20612340Y-11330120D02*
X20642340Y-11360120D01*
X20642340Y-11330120D02*
X20612340Y-11360120D01*
X20614880Y-13148760D02*
X20644880Y-13178760D01*
X20644880Y-13148760D02*
X20614880Y-13178760D01*
X20614880Y-13148760D02*
X20644880Y-13178760D01*
X20644880Y-13148760D02*
X20614880Y-13178760D01*
X20635200Y-11211800D02*
X20665200Y-11241800D01*
X20665200Y-11211800D02*
X20635200Y-11241800D01*
X20686000Y-7859000D02*
X20716000Y-7889000D01*
X20716000Y-7859000D02*
X20686000Y-7889000D01*
X20686000Y-13574000D02*
X20716000Y-13604000D01*
X20716000Y-13574000D02*
X20686000Y-13604000D01*
X20740765Y-10072860D02*
X20770765Y-10102860D01*
X20770765Y-10072860D02*
X20740765Y-10102860D01*
X20745845Y-12668700D02*
X20775845Y-12698700D01*
X20775845Y-12668700D02*
X20745845Y-12698700D01*
X20762200Y-8595600D02*
X20792200Y-8625600D01*
X20792200Y-8595600D02*
X20762200Y-8625600D01*
X20813000Y-7732000D02*
X20843000Y-7762000D01*
X20843000Y-7732000D02*
X20813000Y-7762000D01*
X20834905Y-9466820D02*
X20864905Y-9496820D01*
X20864905Y-9466820D02*
X20834905Y-9496820D01*
X20834905Y-9466820D02*
X20864905Y-9496820D01*
X20864905Y-9466820D02*
X20834905Y-9496820D01*
X20838400Y-10856200D02*
X20868400Y-10886200D01*
X20868400Y-10856200D02*
X20838400Y-10886200D01*
X20839985Y-12062660D02*
X20869985Y-12092660D01*
X20869985Y-12062660D02*
X20839985Y-12092660D01*
X20839985Y-12062660D02*
X20869985Y-12092660D01*
X20869985Y-12062660D02*
X20839985Y-12092660D01*
X20863800Y-8519400D02*
X20893800Y-8549400D01*
X20893800Y-8519400D02*
X20863800Y-8549400D01*
X20892210Y-10156680D02*
X20922210Y-10186680D01*
X20922210Y-10156680D02*
X20892210Y-10186680D01*
X20892210Y-10156680D02*
X20922210Y-10186680D01*
X20922210Y-10156680D02*
X20892210Y-10186680D01*
X20897290Y-12752520D02*
X20927290Y-12782520D01*
X20927290Y-12752520D02*
X20897290Y-12782520D01*
X20897290Y-12752520D02*
X20927290Y-12782520D01*
X20927290Y-12752520D02*
X20897290Y-12782520D01*
X20914600Y-11059400D02*
X20944600Y-11089400D01*
X20944600Y-11059400D02*
X20914600Y-11089400D01*
X20940000Y-7605000D02*
X20970000Y-7635000D01*
X20970000Y-7605000D02*
X20940000Y-7635000D01*
X20940000Y-7859000D02*
X20970000Y-7889000D01*
X20970000Y-7859000D02*
X20940000Y-7889000D01*
X20940000Y-13574000D02*
X20970000Y-13604000D01*
X20970000Y-13574000D02*
X20940000Y-13604000D01*
X20965400Y-8367000D02*
X20995400Y-8397000D01*
X20995400Y-8367000D02*
X20965400Y-8397000D01*
X21011120Y-9621760D02*
X21041120Y-9651760D01*
X21041120Y-9621760D02*
X21011120Y-9651760D01*
X21016200Y-12217600D02*
X21046200Y-12247600D01*
X21046200Y-12217600D02*
X21016200Y-12247600D01*
X21051760Y-8734280D02*
X21081760Y-8764280D01*
X21081760Y-8734280D02*
X21051760Y-8764280D01*
X21051760Y-8734280D02*
X21081760Y-8764280D01*
X21081760Y-8734280D02*
X21051760Y-8764280D01*
X21054300Y-10552920D02*
X21084300Y-10582920D01*
X21084300Y-10552920D02*
X21054300Y-10582920D01*
X21054300Y-10552920D02*
X21084300Y-10582920D01*
X21084300Y-10552920D02*
X21054300Y-10582920D01*
X21056840Y-11330120D02*
X21086840Y-11360120D01*
X21086840Y-11330120D02*
X21056840Y-11360120D01*
X21056840Y-11330120D02*
X21086840Y-11360120D01*
X21086840Y-11330120D02*
X21056840Y-11360120D01*
X21059380Y-13148760D02*
X21089380Y-13178760D01*
X21089380Y-13148760D02*
X21059380Y-13178760D01*
X21059380Y-13148760D02*
X21089380Y-13178760D01*
X21089380Y-13148760D02*
X21059380Y-13178760D01*
X21067000Y-7478000D02*
X21097000Y-7508000D01*
X21097000Y-7478000D02*
X21067000Y-7508000D01*
X21067000Y-7732000D02*
X21097000Y-7762000D01*
X21097000Y-7732000D02*
X21067000Y-7762000D01*
X21067000Y-8214600D02*
X21097000Y-8244600D01*
X21097000Y-8214600D02*
X21067000Y-8244600D01*
X21067000Y-8519400D02*
X21097000Y-8549400D01*
X21097000Y-8519400D02*
X21067000Y-8549400D01*
X21070010Y-10232880D02*
X21100010Y-10262880D01*
X21100010Y-10232880D02*
X21070010Y-10262880D01*
X21070010Y-10232880D02*
X21100010Y-10262880D01*
X21100010Y-10232880D02*
X21070010Y-10262880D01*
X21075090Y-12828720D02*
X21105090Y-12858720D01*
X21105090Y-12828720D02*
X21075090Y-12858720D01*
X21075090Y-12828720D02*
X21105090Y-12858720D01*
X21105090Y-12828720D02*
X21075090Y-12858720D01*
X21146210Y-9851880D02*
X21176210Y-9881880D01*
X21176210Y-9851880D02*
X21146210Y-9881880D01*
X21146210Y-9851880D02*
X21176210Y-9881880D01*
X21176210Y-9851880D02*
X21146210Y-9881880D01*
X21151290Y-12447720D02*
X21181290Y-12477720D01*
X21181290Y-12447720D02*
X21151290Y-12477720D01*
X21151290Y-12447720D02*
X21181290Y-12477720D01*
X21181290Y-12447720D02*
X21151290Y-12477720D01*
X21168600Y-8367000D02*
X21198600Y-8397000D01*
X21198600Y-8367000D02*
X21168600Y-8397000D01*
X21168600Y-10907000D02*
X21198600Y-10937000D01*
X21198600Y-10907000D02*
X21168600Y-10937000D01*
X21168600Y-11059400D02*
X21198600Y-11089400D01*
X21198600Y-11059400D02*
X21168600Y-11089400D01*
X21178760Y-8734280D02*
X21208760Y-8764280D01*
X21208760Y-8734280D02*
X21178760Y-8764280D01*
X21178760Y-8734280D02*
X21208760Y-8764280D01*
X21208760Y-8734280D02*
X21178760Y-8764280D01*
X21181300Y-10552920D02*
X21211300Y-10582920D01*
X21211300Y-10552920D02*
X21181300Y-10582920D01*
X21181300Y-10552920D02*
X21211300Y-10582920D01*
X21211300Y-10552920D02*
X21181300Y-10582920D01*
X21183840Y-11330120D02*
X21213840Y-11360120D01*
X21213840Y-11330120D02*
X21183840Y-11360120D01*
X21183840Y-11330120D02*
X21213840Y-11360120D01*
X21213840Y-11330120D02*
X21183840Y-11360120D01*
X21186380Y-13148760D02*
X21216380Y-13178760D01*
X21216380Y-13148760D02*
X21186380Y-13178760D01*
X21186380Y-13148760D02*
X21216380Y-13178760D01*
X21216380Y-13148760D02*
X21186380Y-13178760D01*
X21194000Y-7351000D02*
X21224000Y-7381000D01*
X21224000Y-7351000D02*
X21194000Y-7381000D01*
X21194000Y-7605000D02*
X21224000Y-7635000D01*
X21224000Y-7605000D02*
X21194000Y-7635000D01*
X21194000Y-13574000D02*
X21224000Y-13604000D01*
X21224000Y-13574000D02*
X21194000Y-13604000D01*
X21213365Y-9540480D02*
X21243365Y-9570480D01*
X21243365Y-9540480D02*
X21213365Y-9570480D01*
X21213365Y-9540480D02*
X21243365Y-9570480D01*
X21243365Y-9540480D02*
X21213365Y-9570480D01*
X21218445Y-12136320D02*
X21248445Y-12166320D01*
X21248445Y-12136320D02*
X21218445Y-12166320D01*
X21218445Y-12136320D02*
X21248445Y-12166320D01*
X21248445Y-12136320D02*
X21218445Y-12166320D01*
X21257500Y-8214600D02*
X21287500Y-8244600D01*
X21287500Y-8214600D02*
X21257500Y-8244600D01*
X21257500Y-8519400D02*
X21287500Y-8549400D01*
X21287500Y-8519400D02*
X21257500Y-8549400D01*
X21295600Y-10907000D02*
X21325600Y-10937000D01*
X21325600Y-10907000D02*
X21295600Y-10937000D01*
X21312265Y-9780760D02*
X21342265Y-9810760D01*
X21342265Y-9780760D02*
X21312265Y-9810760D01*
X21317345Y-12376600D02*
X21347345Y-12406600D01*
X21347345Y-12376600D02*
X21317345Y-12406600D01*
X21321000Y-7224000D02*
X21351000Y-7254000D01*
X21351000Y-7224000D02*
X21321000Y-7254000D01*
X21321000Y-7478000D02*
X21351000Y-7508000D01*
X21351000Y-7478000D02*
X21321000Y-7508000D01*
X21359100Y-8367000D02*
X21389100Y-8397000D01*
X21389100Y-8367000D02*
X21359100Y-8397000D01*
X21371800Y-11059400D02*
X21401800Y-11089400D01*
X21401800Y-11059400D02*
X21371800Y-11089400D01*
X21371800Y-11211800D02*
X21401800Y-11241800D01*
X21401800Y-11211800D02*
X21371800Y-11241800D01*
X21448000Y-7097000D02*
X21478000Y-7127000D01*
X21478000Y-7097000D02*
X21448000Y-7127000D01*
X21448000Y-7351000D02*
X21478000Y-7381000D01*
X21478000Y-7351000D02*
X21448000Y-7381000D01*
X21448000Y-7859000D02*
X21478000Y-7889000D01*
X21478000Y-7859000D02*
X21448000Y-7889000D01*
X21448000Y-8214600D02*
X21478000Y-8244600D01*
X21478000Y-8214600D02*
X21448000Y-8244600D01*
X21448000Y-8519400D02*
X21478000Y-8549400D01*
X21478000Y-8519400D02*
X21448000Y-8549400D01*
X21448000Y-13574000D02*
X21478000Y-13604000D01*
X21478000Y-13574000D02*
X21448000Y-13604000D01*
X21492765Y-9464280D02*
X21522765Y-9494280D01*
X21522765Y-9464280D02*
X21492765Y-9494280D01*
X21492765Y-9464280D02*
X21522765Y-9494280D01*
X21522765Y-9464280D02*
X21492765Y-9494280D01*
X21497845Y-12060120D02*
X21527845Y-12090120D01*
X21527845Y-12060120D02*
X21497845Y-12090120D01*
X21497845Y-12060120D02*
X21527845Y-12090120D01*
X21527845Y-12060120D02*
X21497845Y-12090120D01*
X21498800Y-9383000D02*
X21528800Y-9413000D01*
X21528800Y-9383000D02*
X21498800Y-9413000D01*
X21498800Y-11933120D02*
X21528800Y-11963120D01*
X21528800Y-11933120D02*
X21498800Y-11963120D01*
X21549600Y-8367000D02*
X21579600Y-8397000D01*
X21579600Y-8367000D02*
X21549600Y-8397000D01*
X21575000Y-7224000D02*
X21605000Y-7254000D01*
X21605000Y-7224000D02*
X21575000Y-7254000D01*
X21575000Y-7732000D02*
X21605000Y-7762000D01*
X21605000Y-7732000D02*
X21575000Y-7762000D01*
X21575000Y-10907000D02*
X21605000Y-10937000D01*
X21605000Y-10907000D02*
X21575000Y-10937000D01*
X21623260Y-8734280D02*
X21653260Y-8764280D01*
X21653260Y-8734280D02*
X21623260Y-8764280D01*
X21623260Y-8734280D02*
X21653260Y-8764280D01*
X21653260Y-8734280D02*
X21623260Y-8764280D01*
X21625800Y-10552920D02*
X21655800Y-10582920D01*
X21655800Y-10552920D02*
X21625800Y-10582920D01*
X21625800Y-10552920D02*
X21655800Y-10582920D01*
X21655800Y-10552920D02*
X21625800Y-10582920D01*
X21628340Y-11330120D02*
X21658340Y-11360120D01*
X21658340Y-11330120D02*
X21628340Y-11360120D01*
X21628340Y-11330120D02*
X21658340Y-11360120D01*
X21658340Y-11330120D02*
X21628340Y-11360120D01*
X21630880Y-13148760D02*
X21660880Y-13178760D01*
X21660880Y-13148760D02*
X21630880Y-13178760D01*
X21630880Y-13148760D02*
X21660880Y-13178760D01*
X21660880Y-13148760D02*
X21630880Y-13178760D01*
X21638500Y-7859000D02*
X21668500Y-7889000D01*
X21668500Y-7859000D02*
X21638500Y-7889000D01*
X21638500Y-8214600D02*
X21668500Y-8244600D01*
X21668500Y-8214600D02*
X21638500Y-8244600D01*
X21638500Y-8519400D02*
X21668500Y-8549400D01*
X21668500Y-8519400D02*
X21638500Y-8549400D01*
X21702000Y-7097000D02*
X21732000Y-7127000D01*
X21732000Y-7097000D02*
X21702000Y-7127000D01*
X21702000Y-7605000D02*
X21732000Y-7635000D01*
X21732000Y-7605000D02*
X21702000Y-7635000D01*
X21702000Y-9662400D02*
X21732000Y-9692400D01*
X21732000Y-9662400D02*
X21702000Y-9692400D01*
X21702000Y-12253200D02*
X21732000Y-12283200D01*
X21732000Y-12253200D02*
X21702000Y-12283200D01*
X21702000Y-13574000D02*
X21732000Y-13604000D01*
X21732000Y-13574000D02*
X21702000Y-13604000D01*
X21727400Y-11059400D02*
X21757400Y-11089400D01*
X21757400Y-11059400D02*
X21727400Y-11089400D01*
X21740100Y-8367000D02*
X21770100Y-8397000D01*
X21770100Y-8367000D02*
X21740100Y-8397000D01*
X21750260Y-8734280D02*
X21780260Y-8764280D01*
X21780260Y-8734280D02*
X21750260Y-8764280D01*
X21750260Y-8734280D02*
X21780260Y-8764280D01*
X21780260Y-8734280D02*
X21750260Y-8764280D01*
X21752800Y-10552920D02*
X21782800Y-10582920D01*
X21782800Y-10552920D02*
X21752800Y-10582920D01*
X21752800Y-10552920D02*
X21782800Y-10582920D01*
X21782800Y-10552920D02*
X21752800Y-10582920D01*
X21755340Y-11330120D02*
X21785340Y-11360120D01*
X21785340Y-11330120D02*
X21755340Y-11360120D01*
X21755340Y-11330120D02*
X21785340Y-11360120D01*
X21785340Y-11330120D02*
X21755340Y-11360120D01*
X21757880Y-13148760D02*
X21787880Y-13178760D01*
X21787880Y-13148760D02*
X21757880Y-13178760D01*
X21757880Y-13148760D02*
X21787880Y-13178760D01*
X21787880Y-13148760D02*
X21757880Y-13178760D01*
X21765500Y-7732000D02*
X21795500Y-7762000D01*
X21795500Y-7732000D02*
X21765500Y-7762000D01*
X21826460Y-9750280D02*
X21856460Y-9780280D01*
X21856460Y-9750280D02*
X21826460Y-9780280D01*
X21829000Y-7859000D02*
X21859000Y-7889000D01*
X21859000Y-7859000D02*
X21829000Y-7889000D01*
X21829000Y-8214600D02*
X21859000Y-8244600D01*
X21859000Y-8214600D02*
X21829000Y-8244600D01*
X21829000Y-8519400D02*
X21859000Y-8549400D01*
X21859000Y-8519400D02*
X21829000Y-8549400D01*
X21829000Y-10907000D02*
X21859000Y-10937000D01*
X21859000Y-10907000D02*
X21829000Y-10937000D01*
X21831540Y-12346120D02*
X21861540Y-12376120D01*
X21861540Y-12346120D02*
X21831540Y-12376120D01*
X21878860Y-9447080D02*
X21908860Y-9477080D01*
X21908860Y-9447080D02*
X21878860Y-9477080D01*
X21878860Y-9447080D02*
X21908860Y-9477080D01*
X21908860Y-9447080D02*
X21878860Y-9477080D01*
X21883940Y-12042920D02*
X21913940Y-12072920D01*
X21913940Y-12042920D02*
X21883940Y-12072920D01*
X21883940Y-12042920D02*
X21913940Y-12072920D01*
X21913940Y-12042920D02*
X21883940Y-12072920D01*
X21892500Y-7605000D02*
X21922500Y-7635000D01*
X21922500Y-7605000D02*
X21892500Y-7635000D01*
X21930600Y-8367000D02*
X21960600Y-8397000D01*
X21960600Y-8367000D02*
X21930600Y-8397000D01*
X21956000Y-7732000D02*
X21986000Y-7762000D01*
X21986000Y-7732000D02*
X21956000Y-7762000D01*
X21956000Y-13574000D02*
X21986000Y-13604000D01*
X21986000Y-13574000D02*
X21956000Y-13604000D01*
X21981400Y-10780000D02*
X22011400Y-10810000D01*
X22011400Y-10780000D02*
X21981400Y-10810000D01*
X21981400Y-11059400D02*
X22011400Y-11089400D01*
X22011400Y-11059400D02*
X21981400Y-11089400D01*
X22006800Y-12812000D02*
X22036800Y-12842000D01*
X22036800Y-12812000D02*
X22006800Y-12842000D01*
X22019500Y-7859000D02*
X22049500Y-7889000D01*
X22049500Y-7859000D02*
X22019500Y-7889000D01*
X22019500Y-8214600D02*
X22049500Y-8244600D01*
X22049500Y-8214600D02*
X22019500Y-8244600D01*
X22019500Y-8519400D02*
X22049500Y-8549400D01*
X22049500Y-8519400D02*
X22019500Y-8549400D01*
X22029660Y-9801080D02*
X22059660Y-9831080D01*
X22059660Y-9801080D02*
X22029660Y-9831080D01*
X22034740Y-12396920D02*
X22064740Y-12426920D01*
X22064740Y-12396920D02*
X22034740Y-12426920D01*
X22055060Y-10055080D02*
X22085060Y-10085080D01*
X22085060Y-10055080D02*
X22055060Y-10085080D01*
X22060140Y-12650920D02*
X22090140Y-12680920D01*
X22090140Y-12650920D02*
X22060140Y-12680920D01*
X22083000Y-7605000D02*
X22113000Y-7635000D01*
X22113000Y-7605000D02*
X22083000Y-7635000D01*
X22083000Y-10907000D02*
X22113000Y-10937000D01*
X22113000Y-10907000D02*
X22083000Y-10937000D01*
X22108400Y-10246600D02*
X22138400Y-10276600D01*
X22138400Y-10246600D02*
X22108400Y-10276600D01*
X22121100Y-8367000D02*
X22151100Y-8397000D01*
X22151100Y-8367000D02*
X22121100Y-8397000D01*
X22146500Y-7732000D02*
X22176500Y-7762000D01*
X22176500Y-7732000D02*
X22146500Y-7762000D01*
X22194760Y-8734280D02*
X22224760Y-8764280D01*
X22224760Y-8734280D02*
X22194760Y-8764280D01*
X22194760Y-8734280D02*
X22224760Y-8764280D01*
X22224760Y-8734280D02*
X22194760Y-8764280D01*
X22197300Y-10552920D02*
X22227300Y-10582920D01*
X22227300Y-10552920D02*
X22197300Y-10582920D01*
X22197300Y-10552920D02*
X22227300Y-10582920D01*
X22227300Y-10552920D02*
X22197300Y-10582920D01*
X22199840Y-11330120D02*
X22229840Y-11360120D01*
X22229840Y-11330120D02*
X22199840Y-11360120D01*
X22199840Y-11330120D02*
X22229840Y-11360120D01*
X22229840Y-11330120D02*
X22199840Y-11360120D01*
X22202380Y-13148760D02*
X22232380Y-13178760D01*
X22232380Y-13148760D02*
X22202380Y-13178760D01*
X22202380Y-13148760D02*
X22232380Y-13178760D01*
X22232380Y-13148760D02*
X22202380Y-13178760D01*
X22210000Y-7859000D02*
X22240000Y-7889000D01*
X22240000Y-7859000D02*
X22210000Y-7889000D01*
X22210000Y-8214600D02*
X22240000Y-8244600D01*
X22240000Y-8214600D02*
X22210000Y-8244600D01*
X22210000Y-8519400D02*
X22240000Y-8549400D01*
X22240000Y-8519400D02*
X22210000Y-8549400D01*
X22210000Y-13574000D02*
X22240000Y-13604000D01*
X22240000Y-13574000D02*
X22210000Y-13604000D01*
X22235400Y-10094200D02*
X22265400Y-10124200D01*
X22265400Y-10094200D02*
X22235400Y-10124200D01*
X22235400Y-10780000D02*
X22265400Y-10810000D01*
X22265400Y-10780000D02*
X22235400Y-10810000D01*
X22235400Y-11059400D02*
X22265400Y-11089400D01*
X22265400Y-11059400D02*
X22235400Y-11089400D01*
X22235400Y-12710400D02*
X22265400Y-12740400D01*
X22265400Y-12710400D02*
X22235400Y-12740400D01*
X22273500Y-7605000D02*
X22303500Y-7635000D01*
X22303500Y-7605000D02*
X22273500Y-7635000D01*
X22311600Y-8367000D02*
X22341600Y-8397000D01*
X22341600Y-8367000D02*
X22311600Y-8397000D01*
X22321760Y-8734280D02*
X22351760Y-8764280D01*
X22351760Y-8734280D02*
X22321760Y-8764280D01*
X22321760Y-8734280D02*
X22351760Y-8764280D01*
X22351760Y-8734280D02*
X22321760Y-8764280D01*
X22324300Y-10552920D02*
X22354300Y-10582920D01*
X22354300Y-10552920D02*
X22324300Y-10582920D01*
X22324300Y-10552920D02*
X22354300Y-10582920D01*
X22354300Y-10552920D02*
X22324300Y-10582920D01*
X22326840Y-11330120D02*
X22356840Y-11360120D01*
X22356840Y-11330120D02*
X22326840Y-11360120D01*
X22326840Y-11330120D02*
X22356840Y-11360120D01*
X22356840Y-11330120D02*
X22326840Y-11360120D01*
X22329380Y-13148760D02*
X22359380Y-13178760D01*
X22359380Y-13148760D02*
X22329380Y-13178760D01*
X22329380Y-13148760D02*
X22359380Y-13178760D01*
X22359380Y-13148760D02*
X22329380Y-13178760D01*
X22337000Y-7732000D02*
X22367000Y-7762000D01*
X22367000Y-7732000D02*
X22337000Y-7762000D01*
X22337000Y-10907000D02*
X22367000Y-10937000D01*
X22367000Y-10907000D02*
X22337000Y-10937000D01*
X22400500Y-7859000D02*
X22430500Y-7889000D01*
X22430500Y-7859000D02*
X22400500Y-7889000D01*
X22400500Y-8214600D02*
X22430500Y-8244600D01*
X22430500Y-8214600D02*
X22400500Y-8244600D01*
X22400500Y-8519400D02*
X22430500Y-8549400D01*
X22430500Y-8519400D02*
X22400500Y-8549400D01*
X22433520Y-9475810D02*
X22463520Y-9505810D01*
X22463520Y-9475810D02*
X22433520Y-9505810D01*
X22433520Y-9475810D02*
X22463520Y-9505810D01*
X22463520Y-9475810D02*
X22433520Y-9505810D01*
X22438600Y-12071650D02*
X22468600Y-12101650D01*
X22468600Y-12071650D02*
X22438600Y-12101650D01*
X22438600Y-12071650D02*
X22468600Y-12101650D01*
X22468600Y-12071650D02*
X22438600Y-12101650D01*
X22464000Y-7605000D02*
X22494000Y-7635000D01*
X22494000Y-7605000D02*
X22464000Y-7635000D01*
X22464000Y-10780000D02*
X22494000Y-10810000D01*
X22494000Y-10780000D02*
X22464000Y-10810000D01*
X22464000Y-11059400D02*
X22494000Y-11089400D01*
X22494000Y-11059400D02*
X22464000Y-11089400D01*
X22464000Y-13574000D02*
X22494000Y-13604000D01*
X22494000Y-13574000D02*
X22464000Y-13604000D01*
X22502100Y-8367000D02*
X22532100Y-8397000D01*
X22532100Y-8367000D02*
X22502100Y-8397000D01*
X22527500Y-7732000D02*
X22557500Y-7762000D01*
X22557500Y-7732000D02*
X22527500Y-7762000D01*
X22591000Y-7859000D02*
X22621000Y-7889000D01*
X22621000Y-7859000D02*
X22591000Y-7889000D01*
X22591000Y-8214600D02*
X22621000Y-8244600D01*
X22621000Y-8214600D02*
X22591000Y-8244600D01*
X22591000Y-8519400D02*
X22621000Y-8549400D01*
X22621000Y-8519400D02*
X22591000Y-8549400D01*
X22591000Y-10907000D02*
X22621000Y-10937000D01*
X22621000Y-10907000D02*
X22591000Y-10937000D01*
X22591000Y-13447000D02*
X22621000Y-13477000D01*
X22621000Y-13447000D02*
X22591000Y-13477000D01*
X22654500Y-7605000D02*
X22684500Y-7635000D01*
X22684500Y-7605000D02*
X22654500Y-7635000D01*
X22692600Y-8367000D02*
X22722600Y-8397000D01*
X22722600Y-8367000D02*
X22692600Y-8397000D01*
X22718000Y-7732000D02*
X22748000Y-7762000D01*
X22748000Y-7732000D02*
X22718000Y-7762000D01*
X22718000Y-10780000D02*
X22748000Y-10810000D01*
X22748000Y-10780000D02*
X22718000Y-10810000D01*
X22718000Y-11059400D02*
X22748000Y-11089400D01*
X22748000Y-11059400D02*
X22718000Y-11089400D01*
X22718000Y-13574000D02*
X22748000Y-13604000D01*
X22748000Y-13574000D02*
X22718000Y-13604000D01*
X22781500Y-7859000D02*
X22811500Y-7889000D01*
X22811500Y-7859000D02*
X22781500Y-7889000D01*
X22781500Y-8214600D02*
X22811500Y-8244600D01*
X22811500Y-8214600D02*
X22781500Y-8244600D01*
X22781500Y-8519400D02*
X22811500Y-8549400D01*
X22811500Y-8519400D02*
X22781500Y-8549400D01*
X22829760Y-8734280D02*
X22859760Y-8764280D01*
X22859760Y-8734280D02*
X22829760Y-8764280D01*
X22829760Y-8734280D02*
X22859760Y-8764280D01*
X22859760Y-8734280D02*
X22829760Y-8764280D01*
X22832300Y-10552920D02*
X22862300Y-10582920D01*
X22862300Y-10552920D02*
X22832300Y-10582920D01*
X22832300Y-10552920D02*
X22862300Y-10582920D01*
X22862300Y-10552920D02*
X22832300Y-10582920D01*
X22834840Y-11330120D02*
X22864840Y-11360120D01*
X22864840Y-11330120D02*
X22834840Y-11360120D01*
X22834840Y-11330120D02*
X22864840Y-11360120D01*
X22864840Y-11330120D02*
X22834840Y-11360120D01*
X22837380Y-13148760D02*
X22867380Y-13178760D01*
X22867380Y-13148760D02*
X22837380Y-13178760D01*
X22837380Y-13148760D02*
X22867380Y-13178760D01*
X22867380Y-13148760D02*
X22837380Y-13178760D01*
X22845000Y-7605000D02*
X22875000Y-7635000D01*
X22875000Y-7605000D02*
X22845000Y-7635000D01*
X22845000Y-10653000D02*
X22875000Y-10683000D01*
X22875000Y-10653000D02*
X22845000Y-10683000D01*
X22845000Y-10907000D02*
X22875000Y-10937000D01*
X22875000Y-10907000D02*
X22845000Y-10937000D01*
X22845000Y-13447000D02*
X22875000Y-13477000D01*
X22875000Y-13447000D02*
X22845000Y-13477000D01*
X22870400Y-10221200D02*
X22900400Y-10251200D01*
X22900400Y-10221200D02*
X22870400Y-10251200D01*
X22870400Y-12837400D02*
X22900400Y-12867400D01*
X22900400Y-12837400D02*
X22870400Y-12867400D01*
X22883100Y-8367000D02*
X22913100Y-8397000D01*
X22913100Y-8367000D02*
X22883100Y-8397000D01*
X22908500Y-7732000D02*
X22938500Y-7762000D01*
X22938500Y-7732000D02*
X22908500Y-7762000D01*
X22956760Y-8734280D02*
X22986760Y-8764280D01*
X22986760Y-8734280D02*
X22956760Y-8764280D01*
X22956760Y-8734280D02*
X22986760Y-8764280D01*
X22986760Y-8734280D02*
X22956760Y-8764280D01*
X22959300Y-10552920D02*
X22989300Y-10582920D01*
X22989300Y-10552920D02*
X22959300Y-10582920D01*
X22959300Y-10552920D02*
X22989300Y-10582920D01*
X22989300Y-10552920D02*
X22959300Y-10582920D01*
X22961840Y-11330120D02*
X22991840Y-11360120D01*
X22991840Y-11330120D02*
X22961840Y-11360120D01*
X22961840Y-11330120D02*
X22991840Y-11360120D01*
X22991840Y-11330120D02*
X22961840Y-11360120D01*
X22964380Y-13148760D02*
X22994380Y-13178760D01*
X22994380Y-13148760D02*
X22964380Y-13178760D01*
X22964380Y-13148760D02*
X22994380Y-13178760D01*
X22994380Y-13148760D02*
X22964380Y-13178760D01*
X22972000Y-7859000D02*
X23002000Y-7889000D01*
X23002000Y-7859000D02*
X22972000Y-7889000D01*
X22972000Y-8214600D02*
X23002000Y-8244600D01*
X23002000Y-8214600D02*
X22972000Y-8244600D01*
X22972000Y-8519400D02*
X23002000Y-8549400D01*
X23002000Y-8519400D02*
X22972000Y-8549400D01*
X22972000Y-10780000D02*
X23002000Y-10810000D01*
X23002000Y-10780000D02*
X22972000Y-10810000D01*
X22972000Y-11059400D02*
X23002000Y-11089400D01*
X23002000Y-11059400D02*
X22972000Y-11089400D01*
X22972000Y-13574000D02*
X23002000Y-13604000D01*
X23002000Y-13574000D02*
X22972000Y-13604000D01*
X23035500Y-7605000D02*
X23065500Y-7635000D01*
X23065500Y-7605000D02*
X23035500Y-7635000D01*
X23073600Y-8367000D02*
X23103600Y-8397000D01*
X23103600Y-8367000D02*
X23073600Y-8397000D01*
X23083760Y-8734280D02*
X23113760Y-8764280D01*
X23113760Y-8734280D02*
X23083760Y-8764280D01*
X23083760Y-8734280D02*
X23113760Y-8764280D01*
X23113760Y-8734280D02*
X23083760Y-8764280D01*
X23086300Y-10552920D02*
X23116300Y-10582920D01*
X23116300Y-10552920D02*
X23086300Y-10582920D01*
X23086300Y-10552920D02*
X23116300Y-10582920D01*
X23116300Y-10552920D02*
X23086300Y-10582920D01*
X23088840Y-11330120D02*
X23118840Y-11360120D01*
X23118840Y-11330120D02*
X23088840Y-11360120D01*
X23088840Y-11330120D02*
X23118840Y-11360120D01*
X23118840Y-11330120D02*
X23088840Y-11360120D01*
X23091380Y-13148760D02*
X23121380Y-13178760D01*
X23121380Y-13148760D02*
X23091380Y-13178760D01*
X23091380Y-13148760D02*
X23121380Y-13178760D01*
X23121380Y-13148760D02*
X23091380Y-13178760D01*
X23099000Y-7732000D02*
X23129000Y-7762000D01*
X23129000Y-7732000D02*
X23099000Y-7762000D01*
X23099000Y-10653000D02*
X23129000Y-10683000D01*
X23129000Y-10653000D02*
X23099000Y-10683000D01*
X23099000Y-10907000D02*
X23129000Y-10937000D01*
X23129000Y-10907000D02*
X23099000Y-10937000D01*
X23099000Y-13447000D02*
X23129000Y-13477000D01*
X23129000Y-13447000D02*
X23099000Y-13477000D01*
X23149800Y-8838420D02*
X23179800Y-8868420D01*
X23179800Y-8838420D02*
X23149800Y-8868420D01*
X23149800Y-8838420D02*
X23179800Y-8868420D01*
X23179800Y-8838420D02*
X23149800Y-8868420D01*
X23149800Y-8965420D02*
X23179800Y-8995420D01*
X23179800Y-8965420D02*
X23149800Y-8995420D01*
X23149800Y-8965420D02*
X23179800Y-8995420D01*
X23179800Y-8965420D02*
X23149800Y-8995420D01*
X23149800Y-9092420D02*
X23179800Y-9122420D01*
X23179800Y-9092420D02*
X23149800Y-9122420D01*
X23149800Y-9092420D02*
X23179800Y-9122420D01*
X23179800Y-9092420D02*
X23149800Y-9122420D01*
X23149800Y-9600420D02*
X23179800Y-9630420D01*
X23179800Y-9600420D02*
X23149800Y-9630420D01*
X23149800Y-9600420D02*
X23179800Y-9630420D01*
X23179800Y-9600420D02*
X23149800Y-9630420D01*
X23149800Y-9727420D02*
X23179800Y-9757420D01*
X23179800Y-9727420D02*
X23149800Y-9757420D01*
X23149800Y-9727420D02*
X23179800Y-9757420D01*
X23179800Y-9727420D02*
X23149800Y-9757420D01*
X23149800Y-10235420D02*
X23179800Y-10265420D01*
X23179800Y-10235420D02*
X23149800Y-10265420D01*
X23149800Y-10235420D02*
X23179800Y-10265420D01*
X23179800Y-10235420D02*
X23149800Y-10265420D01*
X23149800Y-10362420D02*
X23179800Y-10392420D01*
X23179800Y-10362420D02*
X23149800Y-10392420D01*
X23149800Y-10362420D02*
X23179800Y-10392420D01*
X23179800Y-10362420D02*
X23149800Y-10392420D01*
X23149800Y-10489420D02*
X23179800Y-10519420D01*
X23179800Y-10489420D02*
X23149800Y-10519420D01*
X23149800Y-10489420D02*
X23179800Y-10519420D01*
X23179800Y-10489420D02*
X23149800Y-10519420D01*
X23154880Y-11434260D02*
X23184880Y-11464260D01*
X23184880Y-11434260D02*
X23154880Y-11464260D01*
X23154880Y-11434260D02*
X23184880Y-11464260D01*
X23184880Y-11434260D02*
X23154880Y-11464260D01*
X23154880Y-11561260D02*
X23184880Y-11591260D01*
X23184880Y-11561260D02*
X23154880Y-11591260D01*
X23154880Y-11561260D02*
X23184880Y-11591260D01*
X23184880Y-11561260D02*
X23154880Y-11591260D01*
X23154880Y-11688260D02*
X23184880Y-11718260D01*
X23184880Y-11688260D02*
X23154880Y-11718260D01*
X23154880Y-11688260D02*
X23184880Y-11718260D01*
X23184880Y-11688260D02*
X23154880Y-11718260D01*
X23154880Y-12196260D02*
X23184880Y-12226260D01*
X23184880Y-12196260D02*
X23154880Y-12226260D01*
X23154880Y-12196260D02*
X23184880Y-12226260D01*
X23184880Y-12196260D02*
X23154880Y-12226260D01*
X23154880Y-12323260D02*
X23184880Y-12353260D01*
X23184880Y-12323260D02*
X23154880Y-12353260D01*
X23154880Y-12323260D02*
X23184880Y-12353260D01*
X23184880Y-12323260D02*
X23154880Y-12353260D01*
X23154880Y-12831260D02*
X23184880Y-12861260D01*
X23184880Y-12831260D02*
X23154880Y-12861260D01*
X23154880Y-12831260D02*
X23184880Y-12861260D01*
X23184880Y-12831260D02*
X23154880Y-12861260D01*
X23154880Y-12958260D02*
X23184880Y-12988260D01*
X23184880Y-12958260D02*
X23154880Y-12988260D01*
X23154880Y-12958260D02*
X23184880Y-12988260D01*
X23184880Y-12958260D02*
X23154880Y-12988260D01*
X23154880Y-13085260D02*
X23184880Y-13115260D01*
X23184880Y-13085260D02*
X23154880Y-13115260D01*
X23154880Y-13085260D02*
X23184880Y-13115260D01*
X23184880Y-13085260D02*
X23154880Y-13115260D01*
X23162500Y-7859000D02*
X23192500Y-7889000D01*
X23192500Y-7859000D02*
X23162500Y-7889000D01*
X23162500Y-8214600D02*
X23192500Y-8244600D01*
X23192500Y-8214600D02*
X23162500Y-8244600D01*
X23162500Y-8519400D02*
X23192500Y-8549400D01*
X23192500Y-8519400D02*
X23162500Y-8549400D01*
X23226000Y-7605000D02*
X23256000Y-7635000D01*
X23256000Y-7605000D02*
X23226000Y-7635000D01*
X23226000Y-10780000D02*
X23256000Y-10810000D01*
X23256000Y-10780000D02*
X23226000Y-10810000D01*
X23226000Y-11059400D02*
X23256000Y-11089400D01*
X23256000Y-11059400D02*
X23226000Y-11089400D01*
X23226000Y-13574000D02*
X23256000Y-13604000D01*
X23256000Y-13574000D02*
X23226000Y-13604000D01*
X23264100Y-8367000D02*
X23294100Y-8397000D01*
X23294100Y-8367000D02*
X23264100Y-8397000D01*
X23289500Y-7732000D02*
X23319500Y-7762000D01*
X23319500Y-7732000D02*
X23289500Y-7762000D01*
X23353000Y-7859000D02*
X23383000Y-7889000D01*
X23383000Y-7859000D02*
X23353000Y-7889000D01*
X23353000Y-8214600D02*
X23383000Y-8244600D01*
X23383000Y-8214600D02*
X23353000Y-8244600D01*
X23353000Y-8519400D02*
X23383000Y-8549400D01*
X23383000Y-8519400D02*
X23353000Y-8549400D01*
X23353000Y-8798800D02*
X23383000Y-8828800D01*
X23383000Y-8798800D02*
X23353000Y-8828800D01*
X23353000Y-9103600D02*
X23383000Y-9133600D01*
X23383000Y-9103600D02*
X23353000Y-9133600D01*
X23353000Y-9586200D02*
X23383000Y-9616200D01*
X23383000Y-9586200D02*
X23353000Y-9616200D01*
X23353000Y-9865600D02*
X23383000Y-9895600D01*
X23383000Y-9865600D02*
X23353000Y-9895600D01*
X23353000Y-10119600D02*
X23383000Y-10149600D01*
X23383000Y-10119600D02*
X23353000Y-10149600D01*
X23353000Y-10373600D02*
X23383000Y-10403600D01*
X23383000Y-10373600D02*
X23353000Y-10403600D01*
X23353000Y-10653000D02*
X23383000Y-10683000D01*
X23383000Y-10653000D02*
X23353000Y-10683000D01*
X23353000Y-10907000D02*
X23383000Y-10937000D01*
X23383000Y-10907000D02*
X23353000Y-10937000D01*
X23353000Y-11186400D02*
X23383000Y-11216400D01*
X23383000Y-11186400D02*
X23353000Y-11216400D01*
X23353000Y-11440400D02*
X23383000Y-11470400D01*
X23383000Y-11440400D02*
X23353000Y-11470400D01*
X23353000Y-11719800D02*
X23383000Y-11749800D01*
X23383000Y-11719800D02*
X23353000Y-11749800D01*
X23353000Y-12126200D02*
X23383000Y-12156200D01*
X23383000Y-12126200D02*
X23353000Y-12156200D01*
X23353000Y-12431000D02*
X23383000Y-12461000D01*
X23383000Y-12431000D02*
X23353000Y-12461000D01*
X23353000Y-12659600D02*
X23383000Y-12689600D01*
X23383000Y-12659600D02*
X23353000Y-12689600D01*
X23353000Y-12939000D02*
X23383000Y-12969000D01*
X23383000Y-12939000D02*
X23353000Y-12969000D01*
X23353000Y-13193000D02*
X23383000Y-13223000D01*
X23383000Y-13193000D02*
X23353000Y-13223000D01*
X23353000Y-13447000D02*
X23383000Y-13477000D01*
X23383000Y-13447000D02*
X23353000Y-13477000D01*
X23416500Y-7605000D02*
X23446500Y-7635000D01*
X23446500Y-7605000D02*
X23416500Y-7635000D01*
X23454600Y-8367000D02*
X23484600Y-8397000D01*
X23484600Y-8367000D02*
X23454600Y-8397000D01*
X23454600Y-8671800D02*
X23484600Y-8701800D01*
X23484600Y-8671800D02*
X23454600Y-8701800D01*
X23454600Y-8976600D02*
X23484600Y-9006600D01*
X23484600Y-8976600D02*
X23454600Y-9006600D01*
X23480000Y-7732000D02*
X23510000Y-7762000D01*
X23510000Y-7732000D02*
X23480000Y-7762000D01*
X23480000Y-9459200D02*
X23510000Y-9489200D01*
X23510000Y-9459200D02*
X23480000Y-9489200D01*
X23480000Y-9713200D02*
X23510000Y-9743200D01*
X23510000Y-9713200D02*
X23480000Y-9743200D01*
X23480000Y-9992600D02*
X23510000Y-10022600D01*
X23510000Y-9992600D02*
X23480000Y-10022600D01*
X23480000Y-10246600D02*
X23510000Y-10276600D01*
X23510000Y-10246600D02*
X23480000Y-10276600D01*
X23480000Y-10500600D02*
X23510000Y-10530600D01*
X23510000Y-10500600D02*
X23480000Y-10530600D01*
X23480000Y-10780000D02*
X23510000Y-10810000D01*
X23510000Y-10780000D02*
X23480000Y-10810000D01*
X23480000Y-11059400D02*
X23510000Y-11089400D01*
X23510000Y-11059400D02*
X23480000Y-11089400D01*
X23480000Y-11313400D02*
X23510000Y-11343400D01*
X23510000Y-11313400D02*
X23480000Y-11343400D01*
X23480000Y-11592800D02*
X23510000Y-11622800D01*
X23510000Y-11592800D02*
X23480000Y-11622800D01*
X23480000Y-12278600D02*
X23510000Y-12308600D01*
X23510000Y-12278600D02*
X23480000Y-12308600D01*
X23480000Y-12558000D02*
X23510000Y-12588000D01*
X23510000Y-12558000D02*
X23480000Y-12588000D01*
X23480000Y-12812000D02*
X23510000Y-12842000D01*
X23510000Y-12812000D02*
X23480000Y-12842000D01*
X23480000Y-13066000D02*
X23510000Y-13096000D01*
X23510000Y-13066000D02*
X23480000Y-13096000D01*
X23480000Y-13320000D02*
X23510000Y-13350000D01*
X23510000Y-13320000D02*
X23480000Y-13350000D01*
X23480000Y-13574000D02*
X23510000Y-13604000D01*
X23510000Y-13574000D02*
X23480000Y-13604000D01*
X23543500Y-8214600D02*
X23573500Y-8244600D01*
X23573500Y-8214600D02*
X23543500Y-8244600D01*
X23543500Y-8519400D02*
X23573500Y-8549400D01*
X23573500Y-8519400D02*
X23543500Y-8549400D01*
X23607000Y-7605000D02*
X23637000Y-7635000D01*
X23637000Y-7605000D02*
X23607000Y-7635000D01*
X23607000Y-9586200D02*
X23637000Y-9616200D01*
X23637000Y-9586200D02*
X23607000Y-9616200D01*
X23607000Y-9865600D02*
X23637000Y-9895600D01*
X23637000Y-9865600D02*
X23607000Y-9895600D01*
X23607000Y-10119600D02*
X23637000Y-10149600D01*
X23637000Y-10119600D02*
X23607000Y-10149600D01*
X23607000Y-10373600D02*
X23637000Y-10403600D01*
X23637000Y-10373600D02*
X23607000Y-10403600D01*
X23607000Y-10653000D02*
X23637000Y-10683000D01*
X23637000Y-10653000D02*
X23607000Y-10683000D01*
X23607000Y-10907000D02*
X23637000Y-10937000D01*
X23637000Y-10907000D02*
X23607000Y-10937000D01*
X23607000Y-12126200D02*
X23637000Y-12156200D01*
X23637000Y-12126200D02*
X23607000Y-12156200D01*
X23607000Y-12431000D02*
X23637000Y-12461000D01*
X23637000Y-12431000D02*
X23607000Y-12461000D01*
X23607000Y-12685000D02*
X23637000Y-12715000D01*
X23637000Y-12685000D02*
X23607000Y-12715000D01*
X23607000Y-12913600D02*
X23637000Y-12943600D01*
X23637000Y-12913600D02*
X23607000Y-12943600D01*
X23607000Y-13193000D02*
X23637000Y-13223000D01*
X23637000Y-13193000D02*
X23607000Y-13223000D01*
X23607000Y-13447000D02*
X23637000Y-13477000D01*
X23637000Y-13447000D02*
X23607000Y-13477000D01*
X23645100Y-8367000D02*
X23675100Y-8397000D01*
X23675100Y-8367000D02*
X23645100Y-8397000D01*
X23734000Y-8214600D02*
X23764000Y-8244600D01*
X23764000Y-8214600D02*
X23734000Y-8244600D01*
X23734000Y-8519400D02*
X23764000Y-8549400D01*
X23764000Y-8519400D02*
X23734000Y-8549400D01*
X23734000Y-9713200D02*
X23764000Y-9743200D01*
X23764000Y-9713200D02*
X23734000Y-9743200D01*
X23734000Y-9992600D02*
X23764000Y-10022600D01*
X23764000Y-9992600D02*
X23734000Y-10022600D01*
X23734000Y-10246600D02*
X23764000Y-10276600D01*
X23764000Y-10246600D02*
X23734000Y-10276600D01*
X23734000Y-10500600D02*
X23764000Y-10530600D01*
X23764000Y-10500600D02*
X23734000Y-10530600D01*
X23734000Y-10780000D02*
X23764000Y-10810000D01*
X23764000Y-10780000D02*
X23734000Y-10810000D01*
X23734000Y-11059400D02*
X23764000Y-11089400D01*
X23764000Y-11059400D02*
X23734000Y-11089400D01*
X23734000Y-12278600D02*
X23764000Y-12308600D01*
X23764000Y-12278600D02*
X23734000Y-12308600D01*
X23734000Y-12558000D02*
X23764000Y-12588000D01*
X23764000Y-12558000D02*
X23734000Y-12588000D01*
X23734000Y-12786600D02*
X23764000Y-12816600D01*
X23764000Y-12786600D02*
X23734000Y-12816600D01*
X23734000Y-13066000D02*
X23764000Y-13096000D01*
X23764000Y-13066000D02*
X23734000Y-13096000D01*
X23734000Y-13320000D02*
X23764000Y-13350000D01*
X23764000Y-13320000D02*
X23734000Y-13350000D01*
X23734000Y-13574000D02*
X23764000Y-13604000D01*
X23764000Y-13574000D02*
X23734000Y-13604000D01*
X23835600Y-8367000D02*
X23865600Y-8397000D01*
X23865600Y-8367000D02*
X23835600Y-8397000D01*
X23861000Y-9586200D02*
X23891000Y-9616200D01*
X23891000Y-9586200D02*
X23861000Y-9616200D01*
X23861000Y-10119600D02*
X23891000Y-10149600D01*
X23891000Y-10119600D02*
X23861000Y-10149600D01*
X23861000Y-10373600D02*
X23891000Y-10403600D01*
X23891000Y-10373600D02*
X23861000Y-10403600D01*
X23861000Y-10653000D02*
X23891000Y-10683000D01*
X23891000Y-10653000D02*
X23861000Y-10683000D01*
X23861000Y-10907000D02*
X23891000Y-10937000D01*
X23891000Y-10907000D02*
X23861000Y-10937000D01*
X23861000Y-12126200D02*
X23891000Y-12156200D01*
X23891000Y-12126200D02*
X23861000Y-12156200D01*
X23861000Y-12659600D02*
X23891000Y-12689600D01*
X23891000Y-12659600D02*
X23861000Y-12689600D01*
X23861000Y-12913600D02*
X23891000Y-12943600D01*
X23891000Y-12913600D02*
X23861000Y-12943600D01*
X23861000Y-13193000D02*
X23891000Y-13223000D01*
X23891000Y-13193000D02*
X23861000Y-13223000D01*
X23861000Y-13447000D02*
X23891000Y-13477000D01*
X23891000Y-13447000D02*
X23861000Y-13477000D01*
X23924500Y-8214600D02*
X23954500Y-8244600D01*
X23954500Y-8214600D02*
X23924500Y-8244600D01*
X23924500Y-8519400D02*
X23954500Y-8549400D01*
X23954500Y-8519400D02*
X23924500Y-8549400D01*
X23988000Y-9154400D02*
X24018000Y-9184400D01*
X24018000Y-9154400D02*
X23988000Y-9184400D01*
X23988000Y-9459200D02*
X24018000Y-9489200D01*
X24018000Y-9459200D02*
X23988000Y-9489200D01*
X23988000Y-10246600D02*
X24018000Y-10276600D01*
X24018000Y-10246600D02*
X23988000Y-10276600D01*
X23988000Y-10500600D02*
X24018000Y-10530600D01*
X24018000Y-10500600D02*
X23988000Y-10530600D01*
X23988000Y-10780000D02*
X24018000Y-10810000D01*
X24018000Y-10780000D02*
X23988000Y-10810000D01*
X23988000Y-11059400D02*
X24018000Y-11089400D01*
X24018000Y-11059400D02*
X23988000Y-11089400D01*
X23988000Y-12786600D02*
X24018000Y-12816600D01*
X24018000Y-12786600D02*
X23988000Y-12816600D01*
X23988000Y-13066000D02*
X24018000Y-13096000D01*
X24018000Y-13066000D02*
X23988000Y-13096000D01*
X23988000Y-13320000D02*
X24018000Y-13350000D01*
X24018000Y-13320000D02*
X23988000Y-13350000D01*
X23988000Y-13574000D02*
X24018000Y-13604000D01*
X24018000Y-13574000D02*
X23988000Y-13604000D01*
X24013400Y-8062200D02*
X24043400Y-8092200D01*
X24043400Y-8062200D02*
X24013400Y-8092200D01*
X24026100Y-8367000D02*
X24056100Y-8397000D01*
X24056100Y-8367000D02*
X24026100Y-8397000D01*
X24115000Y-8214600D02*
X24145000Y-8244600D01*
X24145000Y-8214600D02*
X24115000Y-8244600D01*
X24115000Y-8519400D02*
X24145000Y-8549400D01*
X24145000Y-8519400D02*
X24115000Y-8549400D01*
X24115000Y-9306800D02*
X24145000Y-9336800D01*
X24145000Y-9306800D02*
X24115000Y-9336800D01*
X24115000Y-9586200D02*
X24145000Y-9616200D01*
X24145000Y-9586200D02*
X24115000Y-9616200D01*
X24115000Y-10119600D02*
X24145000Y-10149600D01*
X24145000Y-10119600D02*
X24115000Y-10149600D01*
X24115000Y-10373600D02*
X24145000Y-10403600D01*
X24145000Y-10373600D02*
X24115000Y-10403600D01*
X24115000Y-10653000D02*
X24145000Y-10683000D01*
X24145000Y-10653000D02*
X24115000Y-10683000D01*
X24115000Y-10907000D02*
X24145000Y-10937000D01*
X24145000Y-10907000D02*
X24115000Y-10937000D01*
X24115000Y-11846800D02*
X24145000Y-11876800D01*
X24145000Y-11846800D02*
X24115000Y-11876800D01*
X24115000Y-12126200D02*
X24145000Y-12156200D01*
X24145000Y-12126200D02*
X24115000Y-12156200D01*
X24115000Y-12913600D02*
X24145000Y-12943600D01*
X24145000Y-12913600D02*
X24115000Y-12943600D01*
X24115000Y-13193000D02*
X24145000Y-13223000D01*
X24145000Y-13193000D02*
X24115000Y-13223000D01*
X24115000Y-13447000D02*
X24145000Y-13477000D01*
X24145000Y-13447000D02*
X24115000Y-13477000D01*
X24203900Y-8062200D02*
X24233900Y-8092200D01*
X24233900Y-8062200D02*
X24203900Y-8092200D01*
X24216600Y-8367000D02*
X24246600Y-8397000D01*
X24246600Y-8367000D02*
X24216600Y-8397000D01*
X24242000Y-9154400D02*
X24272000Y-9184400D01*
X24272000Y-9154400D02*
X24242000Y-9184400D01*
X24242000Y-9459200D02*
X24272000Y-9489200D01*
X24272000Y-9459200D02*
X24242000Y-9489200D01*
X24242000Y-10246600D02*
X24272000Y-10276600D01*
X24272000Y-10246600D02*
X24242000Y-10276600D01*
X24242000Y-10500600D02*
X24272000Y-10530600D01*
X24272000Y-10500600D02*
X24242000Y-10530600D01*
X24242000Y-10780000D02*
X24272000Y-10810000D01*
X24272000Y-10780000D02*
X24242000Y-10810000D01*
X24242000Y-11059400D02*
X24272000Y-11089400D01*
X24272000Y-11059400D02*
X24242000Y-11089400D01*
X24242000Y-11694400D02*
X24272000Y-11724400D01*
X24272000Y-11694400D02*
X24242000Y-11724400D01*
X24242000Y-11999200D02*
X24272000Y-12029200D01*
X24272000Y-11999200D02*
X24242000Y-12029200D01*
X24242000Y-12786600D02*
X24272000Y-12816600D01*
X24272000Y-12786600D02*
X24242000Y-12816600D01*
X24242000Y-13066000D02*
X24272000Y-13096000D01*
X24272000Y-13066000D02*
X24242000Y-13096000D01*
X24242000Y-13320000D02*
X24272000Y-13350000D01*
X24272000Y-13320000D02*
X24242000Y-13350000D01*
X24242000Y-13574000D02*
X24272000Y-13604000D01*
X24272000Y-13574000D02*
X24242000Y-13604000D01*
X24305500Y-8214600D02*
X24335500Y-8244600D01*
X24335500Y-8214600D02*
X24305500Y-8244600D01*
X24305500Y-8519400D02*
X24335500Y-8549400D01*
X24335500Y-8519400D02*
X24305500Y-8549400D01*
X24369000Y-7732000D02*
X24399000Y-7762000D01*
X24399000Y-7732000D02*
X24369000Y-7762000D01*
X24369000Y-9306800D02*
X24399000Y-9336800D01*
X24399000Y-9306800D02*
X24369000Y-9336800D01*
X24369000Y-9586200D02*
X24399000Y-9616200D01*
X24399000Y-9586200D02*
X24369000Y-9616200D01*
X24369000Y-10119600D02*
X24399000Y-10149600D01*
X24399000Y-10119600D02*
X24369000Y-10149600D01*
X24369000Y-10373600D02*
X24399000Y-10403600D01*
X24399000Y-10373600D02*
X24369000Y-10403600D01*
X24369000Y-10653000D02*
X24399000Y-10683000D01*
X24399000Y-10653000D02*
X24369000Y-10683000D01*
X24369000Y-10907000D02*
X24399000Y-10937000D01*
X24399000Y-10907000D02*
X24369000Y-10937000D01*
X24369000Y-11846800D02*
X24399000Y-11876800D01*
X24399000Y-11846800D02*
X24369000Y-11876800D01*
X24369000Y-12126200D02*
X24399000Y-12156200D01*
X24399000Y-12126200D02*
X24369000Y-12156200D01*
X24369000Y-12913600D02*
X24399000Y-12943600D01*
X24399000Y-12913600D02*
X24369000Y-12943600D01*
X24369000Y-13193000D02*
X24399000Y-13223000D01*
X24399000Y-13193000D02*
X24369000Y-13223000D01*
X24369000Y-13447000D02*
X24399000Y-13477000D01*
X24399000Y-13447000D02*
X24369000Y-13477000D01*
X24394400Y-8062200D02*
X24424400Y-8092200D01*
X24424400Y-8062200D02*
X24394400Y-8092200D01*
X24407100Y-8367000D02*
X24437100Y-8397000D01*
X24437100Y-8367000D02*
X24407100Y-8397000D01*
X24496000Y-8214600D02*
X24526000Y-8244600D01*
X24526000Y-8214600D02*
X24496000Y-8244600D01*
X24496000Y-8519400D02*
X24526000Y-8549400D01*
X24526000Y-8519400D02*
X24496000Y-8549400D01*
X24496000Y-9154400D02*
X24526000Y-9184400D01*
X24526000Y-9154400D02*
X24496000Y-9184400D01*
X24496000Y-9459200D02*
X24526000Y-9489200D01*
X24526000Y-9459200D02*
X24496000Y-9489200D01*
X24496000Y-10246600D02*
X24526000Y-10276600D01*
X24526000Y-10246600D02*
X24496000Y-10276600D01*
X24496000Y-10500600D02*
X24526000Y-10530600D01*
X24526000Y-10500600D02*
X24496000Y-10530600D01*
X24496000Y-10780000D02*
X24526000Y-10810000D01*
X24526000Y-10780000D02*
X24496000Y-10810000D01*
X24496000Y-11059400D02*
X24526000Y-11089400D01*
X24526000Y-11059400D02*
X24496000Y-11089400D01*
X24496000Y-11694400D02*
X24526000Y-11724400D01*
X24526000Y-11694400D02*
X24496000Y-11724400D01*
X24496000Y-11999200D02*
X24526000Y-12029200D01*
X24526000Y-11999200D02*
X24496000Y-12029200D01*
X24496000Y-12786600D02*
X24526000Y-12816600D01*
X24526000Y-12786600D02*
X24496000Y-12816600D01*
X24496000Y-13066000D02*
X24526000Y-13096000D01*
X24526000Y-13066000D02*
X24496000Y-13096000D01*
X24496000Y-13320000D02*
X24526000Y-13350000D01*
X24526000Y-13320000D02*
X24496000Y-13350000D01*
X24496000Y-13574000D02*
X24526000Y-13604000D01*
X24526000Y-13574000D02*
X24496000Y-13604000D01*
X24559500Y-7732000D02*
X24589500Y-7762000D01*
X24589500Y-7732000D02*
X24559500Y-7762000D01*
X24597600Y-8062200D02*
X24627600Y-8092200D01*
X24627600Y-8062200D02*
X24597600Y-8092200D01*
X24597600Y-8367000D02*
X24627600Y-8397000D01*
X24627600Y-8367000D02*
X24597600Y-8397000D01*
X24623000Y-7605000D02*
X24653000Y-7635000D01*
X24653000Y-7605000D02*
X24623000Y-7635000D01*
X24623000Y-7859000D02*
X24653000Y-7889000D01*
X24653000Y-7859000D02*
X24623000Y-7889000D01*
X24623000Y-9306800D02*
X24653000Y-9336800D01*
X24653000Y-9306800D02*
X24623000Y-9336800D01*
X24623000Y-9586200D02*
X24653000Y-9616200D01*
X24653000Y-9586200D02*
X24623000Y-9616200D01*
X24623000Y-10119600D02*
X24653000Y-10149600D01*
X24653000Y-10119600D02*
X24623000Y-10149600D01*
X24623000Y-10373600D02*
X24653000Y-10403600D01*
X24653000Y-10373600D02*
X24623000Y-10403600D01*
X24623000Y-10653000D02*
X24653000Y-10683000D01*
X24653000Y-10653000D02*
X24623000Y-10683000D01*
X24623000Y-10907000D02*
X24653000Y-10937000D01*
X24653000Y-10907000D02*
X24623000Y-10937000D01*
X24623000Y-11846800D02*
X24653000Y-11876800D01*
X24653000Y-11846800D02*
X24623000Y-11876800D01*
X24623000Y-12126200D02*
X24653000Y-12156200D01*
X24653000Y-12126200D02*
X24623000Y-12156200D01*
X24623000Y-12913600D02*
X24653000Y-12943600D01*
X24653000Y-12913600D02*
X24623000Y-12943600D01*
X24623000Y-13193000D02*
X24653000Y-13223000D01*
X24653000Y-13193000D02*
X24623000Y-13223000D01*
X24623000Y-13447000D02*
X24653000Y-13477000D01*
X24653000Y-13447000D02*
X24623000Y-13477000D01*
X24699200Y-8214600D02*
X24729200Y-8244600D01*
X24729200Y-8214600D02*
X24699200Y-8244600D01*
X24711900Y-8519400D02*
X24741900Y-8549400D01*
X24741900Y-8519400D02*
X24711900Y-8549400D01*
X24750000Y-7732000D02*
X24780000Y-7762000D01*
X24780000Y-7732000D02*
X24750000Y-7762000D01*
X24750000Y-9154400D02*
X24780000Y-9184400D01*
X24780000Y-9154400D02*
X24750000Y-9184400D01*
X24750000Y-9459200D02*
X24780000Y-9489200D01*
X24780000Y-9459200D02*
X24750000Y-9489200D01*
X24750000Y-10780000D02*
X24780000Y-10810000D01*
X24780000Y-10780000D02*
X24750000Y-10810000D01*
X24750000Y-11034000D02*
X24780000Y-11064000D01*
X24780000Y-11034000D02*
X24750000Y-11064000D01*
X24750000Y-11694400D02*
X24780000Y-11724400D01*
X24780000Y-11694400D02*
X24750000Y-11724400D01*
X24750000Y-11999200D02*
X24780000Y-12029200D01*
X24780000Y-11999200D02*
X24750000Y-12029200D01*
X24750000Y-12786600D02*
X24780000Y-12816600D01*
X24780000Y-12786600D02*
X24750000Y-12816600D01*
X24750000Y-13066000D02*
X24780000Y-13096000D01*
X24780000Y-13066000D02*
X24750000Y-13096000D01*
X24750000Y-13320000D02*
X24780000Y-13350000D01*
X24780000Y-13320000D02*
X24750000Y-13350000D01*
X24750000Y-13574000D02*
X24780000Y-13604000D01*
X24780000Y-13574000D02*
X24750000Y-13604000D01*
D13*
X19801200Y-8741850D02*
G75*
G03*
X19801200Y-8741850I-40000J0D01*
G01*
X19801200Y-9503850D02*
G75*
G03*
X19801200Y-9503850I-40000J0D01*
G01*
X19801200Y-9868550D02*
G75*
G03*
X19801200Y-9868550I-40000J0D01*
G01*
X19801200Y-10630550D02*
G75*
G03*
X19801200Y-10630550I-40000J0D01*
G01*
X19801200Y-11328400D02*
G75*
G03*
X19801200Y-11328400I-40000J0D01*
G01*
X19801200Y-12090400D02*
G75*
G03*
X19801200Y-12090400I-40000J0D01*
G01*
X19801200Y-12475650D02*
G75*
G03*
X19801200Y-12475650I-40000J0D01*
G01*
X19801200Y-13237650D02*
G75*
G03*
X19801200Y-13237650I-40000J0D01*
G01*
D14*
X18084800Y-7575500D02*
X18084800Y-7664500D01*
X18040300Y-7620000D02*
X18129300Y-7620000D01*
X18338800Y-7575500D02*
X18338800Y-7664500D01*
X18294300Y-7620000D02*
X18383300Y-7620000D01*
X23774400Y-9048700D02*
X23774400Y-9137700D01*
X23729900Y-9093200D02*
X23818900Y-9093200D01*
X23774400Y-9302700D02*
X23774400Y-9391700D01*
X23729900Y-9347200D02*
X23818900Y-9347200D01*
X23779480Y-11644540D02*
X23779480Y-11733540D01*
X23734980Y-11689040D02*
X23823980Y-11689040D01*
X23779480Y-11898540D02*
X23779480Y-11987540D01*
X23734980Y-11943040D02*
X23823980Y-11943040D01*
X23876000Y-7575500D02*
X23876000Y-7664500D01*
X23831500Y-7620000D02*
X23920500Y-7620000D01*
X24130000Y-7575500D02*
X24130000Y-7664500D01*
X24085500Y-7620000D02*
X24174500Y-7620000D01*
D10*
X17814676Y-9612156D02*
X17814676Y-9541444D01*
X17743964Y-9541444D01*
X17743964Y-9612156D01*
X17814676Y-9612156D01*
X17814676Y-9866156D02*
X17814676Y-9795444D01*
X17743964Y-9795444D01*
X17743964Y-9866156D01*
X17814676Y-9866156D01*
X17814676Y-10120156D02*
X17814676Y-10049444D01*
X17743964Y-10049444D01*
X17743964Y-10120156D01*
X17814676Y-10120156D01*
X17814676Y-10374156D02*
X17814676Y-10303444D01*
X17743964Y-10303444D01*
X17743964Y-10374156D01*
X17814676Y-10374156D01*
X17814676Y-10628156D02*
X17814676Y-10557444D01*
X17743964Y-10557444D01*
X17743964Y-10628156D01*
X17814676Y-10628156D01*
X17814676Y-10882156D02*
X17814676Y-10811444D01*
X17743964Y-10811444D01*
X17743964Y-10882156D01*
X17814676Y-10882156D01*
X17814676Y-11136156D02*
X17814676Y-11065444D01*
X17743964Y-11065444D01*
X17743964Y-11136156D01*
X17814676Y-11136156D01*
X17814676Y-11390156D02*
X17814676Y-11319444D01*
X17743964Y-11319444D01*
X17743964Y-11390156D01*
X17814676Y-11390156D01*
X17814676Y-11644156D02*
X17814676Y-11573444D01*
X17743964Y-11573444D01*
X17743964Y-11644156D01*
X17814676Y-11644156D01*
X17814676Y-11898156D02*
X17814676Y-11827444D01*
X17743964Y-11827444D01*
X17743964Y-11898156D01*
X17814676Y-11898156D01*
X17814676Y-12152156D02*
X17814676Y-12081444D01*
X17743964Y-12081444D01*
X17743964Y-12152156D01*
X17814676Y-12152156D01*
X17814676Y-12406156D02*
X17814676Y-12335444D01*
X17743964Y-12335444D01*
X17743964Y-12406156D01*
X17814676Y-12406156D01*
X17814676Y-12660156D02*
X17814676Y-12589444D01*
X17743964Y-12589444D01*
X17743964Y-12660156D01*
X17814676Y-12660156D01*
X17814676Y-12914156D02*
X17814676Y-12843444D01*
X17743964Y-12843444D01*
X17743964Y-12914156D01*
X17814676Y-12914156D01*
X17814676Y-13168156D02*
X17814676Y-13097444D01*
X17743964Y-13097444D01*
X17743964Y-13168156D01*
X17814676Y-13168156D01*
X18069356Y-9611156D02*
X18069356Y-9540444D01*
X17998644Y-9540444D01*
X17998644Y-9611156D01*
X18069356Y-9611156D01*
X18069356Y-9865156D02*
X18069356Y-9794444D01*
X17998644Y-9794444D01*
X17998644Y-9865156D01*
X18069356Y-9865156D01*
X18069356Y-10119156D02*
X18069356Y-10048444D01*
X17998644Y-10048444D01*
X17998644Y-10119156D01*
X18069356Y-10119156D01*
X18069356Y-10373156D02*
X18069356Y-10302444D01*
X17998644Y-10302444D01*
X17998644Y-10373156D01*
X18069356Y-10373156D01*
X18069356Y-10627156D02*
X18069356Y-10556444D01*
X17998644Y-10556444D01*
X17998644Y-10627156D01*
X18069356Y-10627156D01*
X18069356Y-10881156D02*
X18069356Y-10810444D01*
X17998644Y-10810444D01*
X17998644Y-10881156D01*
X18069356Y-10881156D01*
X18069356Y-11135156D02*
X18069356Y-11064444D01*
X17998644Y-11064444D01*
X17998644Y-11135156D01*
X18069356Y-11135156D01*
X18069356Y-11389156D02*
X18069356Y-11318444D01*
X17998644Y-11318444D01*
X17998644Y-11389156D01*
X18069356Y-11389156D01*
X18069356Y-11643156D02*
X18069356Y-11572444D01*
X17998644Y-11572444D01*
X17998644Y-11643156D01*
X18069356Y-11643156D01*
X18069356Y-11897156D02*
X18069356Y-11826444D01*
X17998644Y-11826444D01*
X17998644Y-11897156D01*
X18069356Y-11897156D01*
X18069356Y-12151156D02*
X18069356Y-12080444D01*
X17998644Y-12080444D01*
X17998644Y-12151156D01*
X18069356Y-12151156D01*
X18069356Y-12405156D02*
X18069356Y-12334444D01*
X17998644Y-12334444D01*
X17998644Y-12405156D01*
X18069356Y-12405156D01*
X18069356Y-12659156D02*
X18069356Y-12588444D01*
X17998644Y-12588444D01*
X17998644Y-12659156D01*
X18069356Y-12659156D01*
X18069356Y-12913156D02*
X18069356Y-12842444D01*
X17998644Y-12842444D01*
X17998644Y-12913156D01*
X18069356Y-12913156D01*
X18069356Y-13167156D02*
X18069356Y-13096444D01*
X17998644Y-13096444D01*
X17998644Y-13167156D01*
X18069356Y-13167156D01*
X19466356Y-6702856D02*
X19466356Y-6632144D01*
X19395644Y-6632144D01*
X19395644Y-6702856D01*
X19466356Y-6702856D01*
X19466356Y-6956906D02*
X19466356Y-6886194D01*
X19395644Y-6886194D01*
X19395644Y-6956906D01*
X19466356Y-6956906D01*
X19720356Y-6702856D02*
X19720356Y-6632144D01*
X19649644Y-6632144D01*
X19649644Y-6702856D01*
X19720356Y-6702856D01*
X19720356Y-6956906D02*
X19720356Y-6886194D01*
X19649644Y-6886194D01*
X19649644Y-6956906D01*
X19720356Y-6956906D01*
X19974356Y-6702856D02*
X19974356Y-6632144D01*
X19903644Y-6632144D01*
X19903644Y-6702856D01*
X19974356Y-6702856D01*
X19974356Y-6956906D02*
X19974356Y-6886194D01*
X19903644Y-6886194D01*
X19903644Y-6956906D01*
X19974356Y-6956906D01*
X20228356Y-6702856D02*
X20228356Y-6632144D01*
X20157644Y-6632144D01*
X20157644Y-6702856D01*
X20228356Y-6702856D01*
X20228356Y-6956906D02*
X20228356Y-6886194D01*
X20157644Y-6886194D01*
X20157644Y-6956906D01*
X20228356Y-6956906D01*
X20482356Y-6702856D02*
X20482356Y-6632144D01*
X20411644Y-6632144D01*
X20411644Y-6702856D01*
X20482356Y-6702856D01*
X20482356Y-6956906D02*
X20482356Y-6886194D01*
X20411644Y-6886194D01*
X20411644Y-6956906D01*
X20482356Y-6956906D01*
X20736356Y-6702856D02*
X20736356Y-6632144D01*
X20665644Y-6632144D01*
X20665644Y-6702856D01*
X20736356Y-6702856D01*
X20736356Y-6956906D02*
X20736356Y-6886194D01*
X20665644Y-6886194D01*
X20665644Y-6956906D01*
X20736356Y-6956906D01*
X20990356Y-6702856D02*
X20990356Y-6632144D01*
X20919644Y-6632144D01*
X20919644Y-6702856D01*
X20990356Y-6702856D01*
X20990356Y-6956906D02*
X20990356Y-6886194D01*
X20919644Y-6886194D01*
X20919644Y-6956906D01*
X20990356Y-6956906D01*
X21244356Y-6702856D02*
X21244356Y-6632144D01*
X21173644Y-6632144D01*
X21173644Y-6702856D01*
X21244356Y-6702856D01*
X21244356Y-6956906D02*
X21244356Y-6886194D01*
X21173644Y-6886194D01*
X21173644Y-6956906D01*
X21244356Y-6956906D01*
X21498356Y-6702856D02*
X21498356Y-6632144D01*
X21427644Y-6632144D01*
X21427644Y-6702856D01*
X21498356Y-6702856D01*
X21498356Y-6956906D02*
X21498356Y-6886194D01*
X21427644Y-6886194D01*
X21427644Y-6956906D01*
X21498356Y-6956906D01*
X21752356Y-6702856D02*
X21752356Y-6632144D01*
X21681644Y-6632144D01*
X21681644Y-6702856D01*
X21752356Y-6702856D01*
X21752356Y-6956906D02*
X21752356Y-6886194D01*
X21681644Y-6886194D01*
X21681644Y-6956906D01*
X21752356Y-6956906D01*
X22006356Y-6702856D02*
X22006356Y-6632144D01*
X21935644Y-6632144D01*
X21935644Y-6702856D01*
X22006356Y-6702856D01*
X22006356Y-6956906D02*
X22006356Y-6886194D01*
X21935644Y-6886194D01*
X21935644Y-6956906D01*
X22006356Y-6956906D01*
X22260356Y-6702856D02*
X22260356Y-6632144D01*
X22189644Y-6632144D01*
X22189644Y-6702856D01*
X22260356Y-6702856D01*
X22260356Y-6956906D02*
X22260356Y-6886194D01*
X22189644Y-6886194D01*
X22189644Y-6956906D01*
X22260356Y-6956906D01*
X22514356Y-6702856D02*
X22514356Y-6632144D01*
X22443644Y-6632144D01*
X22443644Y-6702856D01*
X22514356Y-6702856D01*
X22514356Y-6956906D02*
X22514356Y-6886194D01*
X22443644Y-6886194D01*
X22443644Y-6956906D01*
X22514356Y-6956906D01*
X22768356Y-6702856D02*
X22768356Y-6632144D01*
X22697644Y-6632144D01*
X22697644Y-6702856D01*
X22768356Y-6702856D01*
X22768356Y-6956906D02*
X22768356Y-6886194D01*
X22697644Y-6886194D01*
X22697644Y-6956906D01*
X22768356Y-6956906D01*
X23022356Y-6702856D02*
X23022356Y-6632144D01*
X22951644Y-6632144D01*
X22951644Y-6702856D01*
X23022356Y-6702856D01*
X23022356Y-6956906D02*
X23022356Y-6886194D01*
X22951644Y-6886194D01*
X22951644Y-6956906D01*
X23022356Y-6956906D01*
D15*
X17830800Y-7212500D02*
X17931300Y-7112000D01*
X17830800Y-7011500D01*
X17730300Y-7112000D01*
X17830800Y-7212500D01*
X18846800Y-7212500D02*
X18947300Y-7112000D01*
X18846800Y-7011500D01*
X18746300Y-7112000D01*
X18846800Y-7212500D01*
X23622000Y-7212500D02*
X23722500Y-7112000D01*
X23622000Y-7011500D01*
X23521500Y-7112000D01*
X23622000Y-7212500D01*
X24282400Y-8939700D02*
X24382900Y-8839200D01*
X24282400Y-8738700D01*
X24181900Y-8839200D01*
X24282400Y-8939700D01*
X24282400Y-9955700D02*
X24382900Y-9855200D01*
X24282400Y-9754700D01*
X24181900Y-9855200D01*
X24282400Y-9955700D01*
X24287480Y-11535540D02*
X24387980Y-11435040D01*
X24287480Y-11334540D01*
X24186980Y-11435040D01*
X24287480Y-11535540D01*
X24287480Y-12551540D02*
X24387980Y-12451040D01*
X24287480Y-12350540D01*
X24186980Y-12451040D01*
X24287480Y-12551540D01*
X24638000Y-7212500D02*
X24738500Y-7112000D01*
X24638000Y-7011500D01*
X24537500Y-7112000D01*
X24638000Y-7212500D01*
D11*
X17744977Y-13999484D02*
X17744977Y-13799484D01*
X17744977Y-13799484D02*
X17792596Y-13799484D01*
X17792596Y-13799484D02*
X17821167Y-13809008D01*
X17821167Y-13809008D02*
X17840215Y-13828055D01*
X17840215Y-13828055D02*
X17849739Y-13847103D01*
X17849739Y-13847103D02*
X17859263Y-13885198D01*
X17859263Y-13885198D02*
X17859263Y-13913769D01*
X17859263Y-13913769D02*
X17849739Y-13951865D01*
X17849739Y-13951865D02*
X17840215Y-13970912D01*
X17840215Y-13970912D02*
X17821167Y-13989960D01*
X17821167Y-13989960D02*
X17792596Y-13999484D01*
X17792596Y-13999484D02*
X17744977Y-13999484D01*
X17944977Y-13999484D02*
X17944977Y-13866150D01*
X17944977Y-13904246D02*
X17954501Y-13885198D01*
X17954501Y-13885198D02*
X17964024Y-13875674D01*
X17964024Y-13875674D02*
X17983072Y-13866150D01*
X17983072Y-13866150D02*
X18002120Y-13866150D01*
X18068786Y-13999484D02*
X18068786Y-13866150D01*
X18068786Y-13799484D02*
X18059263Y-13809008D01*
X18059263Y-13809008D02*
X18068786Y-13818531D01*
X18068786Y-13818531D02*
X18078310Y-13809008D01*
X18078310Y-13809008D02*
X18068786Y-13799484D01*
X18068786Y-13799484D02*
X18068786Y-13818531D01*
X18192596Y-13999484D02*
X18173548Y-13989960D01*
X18173548Y-13989960D02*
X18164024Y-13970912D01*
X18164024Y-13970912D02*
X18164024Y-13799484D01*
X18297358Y-13999484D02*
X18278310Y-13989960D01*
X18278310Y-13989960D02*
X18268786Y-13970912D01*
X18268786Y-13970912D02*
X18268786Y-13799484D01*
X18525929Y-13999484D02*
X18525929Y-13799484D01*
X18525929Y-13799484D02*
X18592596Y-13942341D01*
X18592596Y-13942341D02*
X18659263Y-13799484D01*
X18659263Y-13799484D02*
X18659263Y-13999484D01*
X18840215Y-13999484D02*
X18840215Y-13894722D01*
X18840215Y-13894722D02*
X18830691Y-13875674D01*
X18830691Y-13875674D02*
X18811644Y-13866150D01*
X18811644Y-13866150D02*
X18773548Y-13866150D01*
X18773548Y-13866150D02*
X18754501Y-13875674D01*
X18840215Y-13989960D02*
X18821167Y-13999484D01*
X18821167Y-13999484D02*
X18773548Y-13999484D01*
X18773548Y-13999484D02*
X18754501Y-13989960D01*
X18754501Y-13989960D02*
X18744977Y-13970912D01*
X18744977Y-13970912D02*
X18744977Y-13951865D01*
X18744977Y-13951865D02*
X18754501Y-13932817D01*
X18754501Y-13932817D02*
X18773548Y-13923293D01*
X18773548Y-13923293D02*
X18821167Y-13923293D01*
X18821167Y-13923293D02*
X18840215Y-13913769D01*
X18935453Y-13866150D02*
X18935453Y-14066150D01*
X18935453Y-13875674D02*
X18954501Y-13866150D01*
X18954501Y-13866150D02*
X18992596Y-13866150D01*
X18992596Y-13866150D02*
X19011644Y-13875674D01*
X19011644Y-13875674D02*
X19021167Y-13885198D01*
X19021167Y-13885198D02*
X19030691Y-13904246D01*
X19030691Y-13904246D02*
X19030691Y-13961388D01*
X19030691Y-13961388D02*
X19021167Y-13980436D01*
X19021167Y-13980436D02*
X19011644Y-13989960D01*
X19011644Y-13989960D02*
X18992596Y-13999484D01*
X18992596Y-13999484D02*
X18954501Y-13999484D01*
X18954501Y-13999484D02*
X18935453Y-13989960D01*
X19116405Y-13980436D02*
X19125929Y-13989960D01*
X19125929Y-13989960D02*
X19116405Y-13999484D01*
X19116405Y-13999484D02*
X19106882Y-13989960D01*
X19106882Y-13989960D02*
X19116405Y-13980436D01*
X19116405Y-13980436D02*
X19116405Y-13999484D01*
X19116405Y-13875674D02*
X19125929Y-13885198D01*
X19125929Y-13885198D02*
X19116405Y-13894722D01*
X19116405Y-13894722D02*
X19106882Y-13885198D01*
X19106882Y-13885198D02*
X19116405Y-13875674D01*
X19116405Y-13875674D02*
X19116405Y-13894722D01*
D12*
X17454200Y-14313000D02*
X17484200Y-14343000D01*
X17484200Y-14313000D02*
X17454200Y-14343000D01*
D11*
X17783072Y-14219484D02*
X17802120Y-14219484D01*
X17802120Y-14219484D02*
X17821167Y-14229008D01*
X17821167Y-14229008D02*
X17830691Y-14238531D01*
X17830691Y-14238531D02*
X17840215Y-14257579D01*
X17840215Y-14257579D02*
X17849739Y-14295674D01*
X17849739Y-14295674D02*
X17849739Y-14343293D01*
X17849739Y-14343293D02*
X17840215Y-14381388D01*
X17840215Y-14381388D02*
X17830691Y-14400436D01*
X17830691Y-14400436D02*
X17821167Y-14409960D01*
X17821167Y-14409960D02*
X17802120Y-14419484D01*
X17802120Y-14419484D02*
X17783072Y-14419484D01*
X17783072Y-14419484D02*
X17764024Y-14409960D01*
X17764024Y-14409960D02*
X17754501Y-14400436D01*
X17754501Y-14400436D02*
X17744977Y-14381388D01*
X17744977Y-14381388D02*
X17735453Y-14343293D01*
X17735453Y-14343293D02*
X17735453Y-14295674D01*
X17735453Y-14295674D02*
X17744977Y-14257579D01*
X17744977Y-14257579D02*
X17754501Y-14238531D01*
X17754501Y-14238531D02*
X17764024Y-14229008D01*
X17764024Y-14229008D02*
X17783072Y-14219484D01*
X17935453Y-14400436D02*
X17944977Y-14409960D01*
X17944977Y-14409960D02*
X17935453Y-14419484D01*
X17935453Y-14419484D02*
X17925929Y-14409960D01*
X17925929Y-14409960D02*
X17935453Y-14400436D01*
X17935453Y-14400436D02*
X17935453Y-14419484D01*
X18011644Y-14219484D02*
X18135453Y-14219484D01*
X18135453Y-14219484D02*
X18068786Y-14295674D01*
X18068786Y-14295674D02*
X18097358Y-14295674D01*
X18097358Y-14295674D02*
X18116405Y-14305198D01*
X18116405Y-14305198D02*
X18125929Y-14314722D01*
X18125929Y-14314722D02*
X18135453Y-14333769D01*
X18135453Y-14333769D02*
X18135453Y-14381388D01*
X18135453Y-14381388D02*
X18125929Y-14400436D01*
X18125929Y-14400436D02*
X18116405Y-14409960D01*
X18116405Y-14409960D02*
X18097358Y-14419484D01*
X18097358Y-14419484D02*
X18040215Y-14419484D01*
X18040215Y-14419484D02*
X18021167Y-14409960D01*
X18021167Y-14409960D02*
X18011644Y-14400436D01*
X18259263Y-14219484D02*
X18278310Y-14219484D01*
X18278310Y-14219484D02*
X18297358Y-14229008D01*
X18297358Y-14229008D02*
X18306882Y-14238531D01*
X18306882Y-14238531D02*
X18316405Y-14257579D01*
X18316405Y-14257579D02*
X18325929Y-14295674D01*
X18325929Y-14295674D02*
X18325929Y-14343293D01*
X18325929Y-14343293D02*
X18316405Y-14381388D01*
X18316405Y-14381388D02*
X18306882Y-14400436D01*
X18306882Y-14400436D02*
X18297358Y-14409960D01*
X18297358Y-14409960D02*
X18278310Y-14419484D01*
X18278310Y-14419484D02*
X18259263Y-14419484D01*
X18259263Y-14419484D02*
X18240215Y-14409960D01*
X18240215Y-14409960D02*
X18230691Y-14400436D01*
X18230691Y-14400436D02*
X18221167Y-14381388D01*
X18221167Y-14381388D02*
X18211644Y-14343293D01*
X18211644Y-14343293D02*
X18211644Y-14295674D01*
X18211644Y-14295674D02*
X18221167Y-14257579D01*
X18221167Y-14257579D02*
X18230691Y-14238531D01*
X18230691Y-14238531D02*
X18240215Y-14229008D01*
X18240215Y-14229008D02*
X18259263Y-14219484D01*
X18449739Y-14219484D02*
X18468786Y-14219484D01*
X18468786Y-14219484D02*
X18487834Y-14229008D01*
X18487834Y-14229008D02*
X18497358Y-14238531D01*
X18497358Y-14238531D02*
X18506882Y-14257579D01*
X18506882Y-14257579D02*
X18516405Y-14295674D01*
X18516405Y-14295674D02*
X18516405Y-14343293D01*
X18516405Y-14343293D02*
X18506882Y-14381388D01*
X18506882Y-14381388D02*
X18497358Y-14400436D01*
X18497358Y-14400436D02*
X18487834Y-14409960D01*
X18487834Y-14409960D02*
X18468786Y-14419484D01*
X18468786Y-14419484D02*
X18449739Y-14419484D01*
X18449739Y-14419484D02*
X18430691Y-14409960D01*
X18430691Y-14409960D02*
X18421167Y-14400436D01*
X18421167Y-14400436D02*
X18411644Y-14381388D01*
X18411644Y-14381388D02*
X18402120Y-14343293D01*
X18402120Y-14343293D02*
X18402120Y-14295674D01*
X18402120Y-14295674D02*
X18411644Y-14257579D01*
X18411644Y-14257579D02*
X18421167Y-14238531D01*
X18421167Y-14238531D02*
X18430691Y-14229008D01*
X18430691Y-14229008D02*
X18449739Y-14219484D01*
X18602120Y-14419484D02*
X18602120Y-14286150D01*
X18602120Y-14305198D02*
X18611644Y-14295674D01*
X18611644Y-14295674D02*
X18630691Y-14286150D01*
X18630691Y-14286150D02*
X18659263Y-14286150D01*
X18659263Y-14286150D02*
X18678310Y-14295674D01*
X18678310Y-14295674D02*
X18687834Y-14314722D01*
X18687834Y-14314722D02*
X18687834Y-14419484D01*
X18687834Y-14314722D02*
X18697358Y-14295674D01*
X18697358Y-14295674D02*
X18716405Y-14286150D01*
X18716405Y-14286150D02*
X18744977Y-14286150D01*
X18744977Y-14286150D02*
X18764025Y-14295674D01*
X18764025Y-14295674D02*
X18773548Y-14314722D01*
X18773548Y-14314722D02*
X18773548Y-14419484D01*
X18868786Y-14419484D02*
X18868786Y-14286150D01*
X18868786Y-14305198D02*
X18878310Y-14295674D01*
X18878310Y-14295674D02*
X18897358Y-14286150D01*
X18897358Y-14286150D02*
X18925929Y-14286150D01*
X18925929Y-14286150D02*
X18944977Y-14295674D01*
X18944977Y-14295674D02*
X18954501Y-14314722D01*
X18954501Y-14314722D02*
X18954501Y-14419484D01*
X18954501Y-14314722D02*
X18964025Y-14295674D01*
X18964025Y-14295674D02*
X18983072Y-14286150D01*
X18983072Y-14286150D02*
X19011644Y-14286150D01*
X19011644Y-14286150D02*
X19030691Y-14295674D01*
X19030691Y-14295674D02*
X19040215Y-14314722D01*
X19040215Y-14314722D02*
X19040215Y-14419484D01*
X19430691Y-14209960D02*
X19259263Y-14467103D01*
X19687834Y-14219484D02*
X19706882Y-14219484D01*
X19706882Y-14219484D02*
X19725929Y-14229008D01*
X19725929Y-14229008D02*
X19735453Y-14238531D01*
X19735453Y-14238531D02*
X19744977Y-14257579D01*
X19744977Y-14257579D02*
X19754501Y-14295674D01*
X19754501Y-14295674D02*
X19754501Y-14343293D01*
X19754501Y-14343293D02*
X19744977Y-14381388D01*
X19744977Y-14381388D02*
X19735453Y-14400436D01*
X19735453Y-14400436D02*
X19725929Y-14409960D01*
X19725929Y-14409960D02*
X19706882Y-14419484D01*
X19706882Y-14419484D02*
X19687834Y-14419484D01*
X19687834Y-14419484D02*
X19668787Y-14409960D01*
X19668787Y-14409960D02*
X19659263Y-14400436D01*
X19659263Y-14400436D02*
X19649739Y-14381388D01*
X19649739Y-14381388D02*
X19640215Y-14343293D01*
X19640215Y-14343293D02*
X19640215Y-14295674D01*
X19640215Y-14295674D02*
X19649739Y-14257579D01*
X19649739Y-14257579D02*
X19659263Y-14238531D01*
X19659263Y-14238531D02*
X19668787Y-14229008D01*
X19668787Y-14229008D02*
X19687834Y-14219484D01*
X19840215Y-14400436D02*
X19849739Y-14409960D01*
X19849739Y-14409960D02*
X19840215Y-14419484D01*
X19840215Y-14419484D02*
X19830691Y-14409960D01*
X19830691Y-14409960D02*
X19840215Y-14400436D01*
X19840215Y-14400436D02*
X19840215Y-14419484D01*
X19973548Y-14219484D02*
X19992596Y-14219484D01*
X19992596Y-14219484D02*
X20011644Y-14229008D01*
X20011644Y-14229008D02*
X20021168Y-14238531D01*
X20021168Y-14238531D02*
X20030691Y-14257579D01*
X20030691Y-14257579D02*
X20040215Y-14295674D01*
X20040215Y-14295674D02*
X20040215Y-14343293D01*
X20040215Y-14343293D02*
X20030691Y-14381388D01*
X20030691Y-14381388D02*
X20021168Y-14400436D01*
X20021168Y-14400436D02*
X20011644Y-14409960D01*
X20011644Y-14409960D02*
X19992596Y-14419484D01*
X19992596Y-14419484D02*
X19973548Y-14419484D01*
X19973548Y-14419484D02*
X19954501Y-14409960D01*
X19954501Y-14409960D02*
X19944977Y-14400436D01*
X19944977Y-14400436D02*
X19935453Y-14381388D01*
X19935453Y-14381388D02*
X19925929Y-14343293D01*
X19925929Y-14343293D02*
X19925929Y-14295674D01*
X19925929Y-14295674D02*
X19935453Y-14257579D01*
X19935453Y-14257579D02*
X19944977Y-14238531D01*
X19944977Y-14238531D02*
X19954501Y-14229008D01*
X19954501Y-14229008D02*
X19973548Y-14219484D01*
X20230691Y-14419484D02*
X20116406Y-14419484D01*
X20173548Y-14419484D02*
X20173548Y-14219484D01*
X20173548Y-14219484D02*
X20154501Y-14248055D01*
X20154501Y-14248055D02*
X20135453Y-14267103D01*
X20135453Y-14267103D02*
X20116406Y-14276627D01*
X20421168Y-14419484D02*
X20306882Y-14419484D01*
X20364025Y-14419484D02*
X20364025Y-14219484D01*
X20364025Y-14219484D02*
X20344977Y-14248055D01*
X20344977Y-14248055D02*
X20325929Y-14267103D01*
X20325929Y-14267103D02*
X20306882Y-14276627D01*
X20535453Y-14305198D02*
X20516406Y-14295674D01*
X20516406Y-14295674D02*
X20506882Y-14286150D01*
X20506882Y-14286150D02*
X20497358Y-14267103D01*
X20497358Y-14267103D02*
X20497358Y-14257579D01*
X20497358Y-14257579D02*
X20506882Y-14238531D01*
X20506882Y-14238531D02*
X20516406Y-14229008D01*
X20516406Y-14229008D02*
X20535453Y-14219484D01*
X20535453Y-14219484D02*
X20573549Y-14219484D01*
X20573549Y-14219484D02*
X20592596Y-14229008D01*
X20592596Y-14229008D02*
X20602120Y-14238531D01*
X20602120Y-14238531D02*
X20611644Y-14257579D01*
X20611644Y-14257579D02*
X20611644Y-14267103D01*
X20611644Y-14267103D02*
X20602120Y-14286150D01*
X20602120Y-14286150D02*
X20592596Y-14295674D01*
X20592596Y-14295674D02*
X20573549Y-14305198D01*
X20573549Y-14305198D02*
X20535453Y-14305198D01*
X20535453Y-14305198D02*
X20516406Y-14314722D01*
X20516406Y-14314722D02*
X20506882Y-14324246D01*
X20506882Y-14324246D02*
X20497358Y-14343293D01*
X20497358Y-14343293D02*
X20497358Y-14381388D01*
X20497358Y-14381388D02*
X20506882Y-14400436D01*
X20506882Y-14400436D02*
X20516406Y-14409960D01*
X20516406Y-14409960D02*
X20535453Y-14419484D01*
X20535453Y-14419484D02*
X20573549Y-14419484D01*
X20573549Y-14419484D02*
X20592596Y-14409960D01*
X20592596Y-14409960D02*
X20602120Y-14400436D01*
X20602120Y-14400436D02*
X20611644Y-14381388D01*
X20611644Y-14381388D02*
X20611644Y-14343293D01*
X20611644Y-14343293D02*
X20602120Y-14324246D01*
X20602120Y-14324246D02*
X20592596Y-14314722D01*
X20592596Y-14314722D02*
X20573549Y-14305198D01*
X20687834Y-14219484D02*
X20687834Y-14257579D01*
X20764025Y-14219484D02*
X20764025Y-14257579D01*
X21059263Y-14495674D02*
X21049739Y-14486150D01*
X21049739Y-14486150D02*
X21030691Y-14457579D01*
X21030691Y-14457579D02*
X21021168Y-14438531D01*
X21021168Y-14438531D02*
X21011644Y-14409960D01*
X21011644Y-14409960D02*
X21002120Y-14362341D01*
X21002120Y-14362341D02*
X21002120Y-14324246D01*
X21002120Y-14324246D02*
X21011644Y-14276627D01*
X21011644Y-14276627D02*
X21021168Y-14248055D01*
X21021168Y-14248055D02*
X21030691Y-14229008D01*
X21030691Y-14229008D02*
X21049739Y-14200436D01*
X21049739Y-14200436D02*
X21059263Y-14190912D01*
X21221168Y-14219484D02*
X21183072Y-14219484D01*
X21183072Y-14219484D02*
X21164025Y-14229008D01*
X21164025Y-14229008D02*
X21154501Y-14238531D01*
X21154501Y-14238531D02*
X21135453Y-14267103D01*
X21135453Y-14267103D02*
X21125930Y-14305198D01*
X21125930Y-14305198D02*
X21125930Y-14381388D01*
X21125930Y-14381388D02*
X21135453Y-14400436D01*
X21135453Y-14400436D02*
X21144977Y-14409960D01*
X21144977Y-14409960D02*
X21164025Y-14419484D01*
X21164025Y-14419484D02*
X21202120Y-14419484D01*
X21202120Y-14419484D02*
X21221168Y-14409960D01*
X21221168Y-14409960D02*
X21230691Y-14400436D01*
X21230691Y-14400436D02*
X21240215Y-14381388D01*
X21240215Y-14381388D02*
X21240215Y-14333769D01*
X21240215Y-14333769D02*
X21230691Y-14314722D01*
X21230691Y-14314722D02*
X21221168Y-14305198D01*
X21221168Y-14305198D02*
X21202120Y-14295674D01*
X21202120Y-14295674D02*
X21164025Y-14295674D01*
X21164025Y-14295674D02*
X21144977Y-14305198D01*
X21144977Y-14305198D02*
X21135453Y-14314722D01*
X21135453Y-14314722D02*
X21125930Y-14333769D01*
X21411644Y-14219484D02*
X21373549Y-14219484D01*
X21373549Y-14219484D02*
X21354501Y-14229008D01*
X21354501Y-14229008D02*
X21344977Y-14238531D01*
X21344977Y-14238531D02*
X21325930Y-14267103D01*
X21325930Y-14267103D02*
X21316406Y-14305198D01*
X21316406Y-14305198D02*
X21316406Y-14381388D01*
X21316406Y-14381388D02*
X21325930Y-14400436D01*
X21325930Y-14400436D02*
X21335453Y-14409960D01*
X21335453Y-14409960D02*
X21354501Y-14419484D01*
X21354501Y-14419484D02*
X21392596Y-14419484D01*
X21392596Y-14419484D02*
X21411644Y-14409960D01*
X21411644Y-14409960D02*
X21421168Y-14400436D01*
X21421168Y-14400436D02*
X21430691Y-14381388D01*
X21430691Y-14381388D02*
X21430691Y-14333769D01*
X21430691Y-14333769D02*
X21421168Y-14314722D01*
X21421168Y-14314722D02*
X21411644Y-14305198D01*
X21411644Y-14305198D02*
X21392596Y-14295674D01*
X21392596Y-14295674D02*
X21354501Y-14295674D01*
X21354501Y-14295674D02*
X21335453Y-14305198D01*
X21335453Y-14305198D02*
X21325930Y-14314722D01*
X21325930Y-14314722D02*
X21316406Y-14333769D01*
X21602120Y-14286150D02*
X21602120Y-14419484D01*
X21554501Y-14209960D02*
X21506882Y-14352817D01*
X21506882Y-14352817D02*
X21630691Y-14352817D01*
X21859263Y-14419484D02*
X21859263Y-14219484D01*
X21944977Y-14419484D02*
X21944977Y-14314722D01*
X21944977Y-14314722D02*
X21935453Y-14295674D01*
X21935453Y-14295674D02*
X21916406Y-14286150D01*
X21916406Y-14286150D02*
X21887834Y-14286150D01*
X21887834Y-14286150D02*
X21868787Y-14295674D01*
X21868787Y-14295674D02*
X21859263Y-14305198D01*
X22068787Y-14419484D02*
X22049739Y-14409960D01*
X22049739Y-14409960D02*
X22040215Y-14400436D01*
X22040215Y-14400436D02*
X22030692Y-14381388D01*
X22030692Y-14381388D02*
X22030692Y-14324246D01*
X22030692Y-14324246D02*
X22040215Y-14305198D01*
X22040215Y-14305198D02*
X22049739Y-14295674D01*
X22049739Y-14295674D02*
X22068787Y-14286150D01*
X22068787Y-14286150D02*
X22097358Y-14286150D01*
X22097358Y-14286150D02*
X22116406Y-14295674D01*
X22116406Y-14295674D02*
X22125930Y-14305198D01*
X22125930Y-14305198D02*
X22135453Y-14324246D01*
X22135453Y-14324246D02*
X22135453Y-14381388D01*
X22135453Y-14381388D02*
X22125930Y-14400436D01*
X22125930Y-14400436D02*
X22116406Y-14409960D01*
X22116406Y-14409960D02*
X22097358Y-14419484D01*
X22097358Y-14419484D02*
X22068787Y-14419484D01*
X22249739Y-14419484D02*
X22230692Y-14409960D01*
X22230692Y-14409960D02*
X22221168Y-14390912D01*
X22221168Y-14390912D02*
X22221168Y-14219484D01*
X22402120Y-14409960D02*
X22383072Y-14419484D01*
X22383072Y-14419484D02*
X22344977Y-14419484D01*
X22344977Y-14419484D02*
X22325930Y-14409960D01*
X22325930Y-14409960D02*
X22316406Y-14390912D01*
X22316406Y-14390912D02*
X22316406Y-14314722D01*
X22316406Y-14314722D02*
X22325930Y-14295674D01*
X22325930Y-14295674D02*
X22344977Y-14286150D01*
X22344977Y-14286150D02*
X22383072Y-14286150D01*
X22383072Y-14286150D02*
X22402120Y-14295674D01*
X22402120Y-14295674D02*
X22411644Y-14314722D01*
X22411644Y-14314722D02*
X22411644Y-14333769D01*
X22411644Y-14333769D02*
X22316406Y-14352817D01*
X22487834Y-14409960D02*
X22506882Y-14419484D01*
X22506882Y-14419484D02*
X22544977Y-14419484D01*
X22544977Y-14419484D02*
X22564025Y-14409960D01*
X22564025Y-14409960D02*
X22573549Y-14390912D01*
X22573549Y-14390912D02*
X22573549Y-14381388D01*
X22573549Y-14381388D02*
X22564025Y-14362341D01*
X22564025Y-14362341D02*
X22544977Y-14352817D01*
X22544977Y-14352817D02*
X22516406Y-14352817D01*
X22516406Y-14352817D02*
X22497358Y-14343293D01*
X22497358Y-14343293D02*
X22487834Y-14324246D01*
X22487834Y-14324246D02*
X22487834Y-14314722D01*
X22487834Y-14314722D02*
X22497358Y-14295674D01*
X22497358Y-14295674D02*
X22516406Y-14286150D01*
X22516406Y-14286150D02*
X22544977Y-14286150D01*
X22544977Y-14286150D02*
X22564025Y-14295674D01*
X22640215Y-14495674D02*
X22649739Y-14486150D01*
X22649739Y-14486150D02*
X22668787Y-14457579D01*
X22668787Y-14457579D02*
X22678311Y-14438531D01*
X22678311Y-14438531D02*
X22687834Y-14409960D01*
X22687834Y-14409960D02*
X22697358Y-14362341D01*
X22697358Y-14362341D02*
X22697358Y-14324246D01*
X22697358Y-14324246D02*
X22687834Y-14276627D01*
X22687834Y-14276627D02*
X22678311Y-14248055D01*
X22678311Y-14248055D02*
X22668787Y-14229008D01*
X22668787Y-14229008D02*
X22649739Y-14200436D01*
X22649739Y-14200436D02*
X22640215Y-14190912D01*
D13*
X17484200Y-14592000D02*
G75*
G03*
X17484200Y-14592000I-40000J0D01*
G01*
D11*
X17783072Y-14483484D02*
X17802120Y-14483484D01*
X17802120Y-14483484D02*
X17821167Y-14493008D01*
X17821167Y-14493008D02*
X17830691Y-14502531D01*
X17830691Y-14502531D02*
X17840215Y-14521579D01*
X17840215Y-14521579D02*
X17849739Y-14559674D01*
X17849739Y-14559674D02*
X17849739Y-14607293D01*
X17849739Y-14607293D02*
X17840215Y-14645388D01*
X17840215Y-14645388D02*
X17830691Y-14664436D01*
X17830691Y-14664436D02*
X17821167Y-14673960D01*
X17821167Y-14673960D02*
X17802120Y-14683484D01*
X17802120Y-14683484D02*
X17783072Y-14683484D01*
X17783072Y-14683484D02*
X17764024Y-14673960D01*
X17764024Y-14673960D02*
X17754501Y-14664436D01*
X17754501Y-14664436D02*
X17744977Y-14645388D01*
X17744977Y-14645388D02*
X17735453Y-14607293D01*
X17735453Y-14607293D02*
X17735453Y-14559674D01*
X17735453Y-14559674D02*
X17744977Y-14521579D01*
X17744977Y-14521579D02*
X17754501Y-14502531D01*
X17754501Y-14502531D02*
X17764024Y-14493008D01*
X17764024Y-14493008D02*
X17783072Y-14483484D01*
X17935453Y-14664436D02*
X17944977Y-14673960D01*
X17944977Y-14673960D02*
X17935453Y-14683484D01*
X17935453Y-14683484D02*
X17925929Y-14673960D01*
X17925929Y-14673960D02*
X17935453Y-14664436D01*
X17935453Y-14664436D02*
X17935453Y-14683484D01*
X18059263Y-14569198D02*
X18040215Y-14559674D01*
X18040215Y-14559674D02*
X18030691Y-14550150D01*
X18030691Y-14550150D02*
X18021167Y-14531103D01*
X18021167Y-14531103D02*
X18021167Y-14521579D01*
X18021167Y-14521579D02*
X18030691Y-14502531D01*
X18030691Y-14502531D02*
X18040215Y-14493008D01*
X18040215Y-14493008D02*
X18059263Y-14483484D01*
X18059263Y-14483484D02*
X18097358Y-14483484D01*
X18097358Y-14483484D02*
X18116405Y-14493008D01*
X18116405Y-14493008D02*
X18125929Y-14502531D01*
X18125929Y-14502531D02*
X18135453Y-14521579D01*
X18135453Y-14521579D02*
X18135453Y-14531103D01*
X18135453Y-14531103D02*
X18125929Y-14550150D01*
X18125929Y-14550150D02*
X18116405Y-14559674D01*
X18116405Y-14559674D02*
X18097358Y-14569198D01*
X18097358Y-14569198D02*
X18059263Y-14569198D01*
X18059263Y-14569198D02*
X18040215Y-14578722D01*
X18040215Y-14578722D02*
X18030691Y-14588246D01*
X18030691Y-14588246D02*
X18021167Y-14607293D01*
X18021167Y-14607293D02*
X18021167Y-14645388D01*
X18021167Y-14645388D02*
X18030691Y-14664436D01*
X18030691Y-14664436D02*
X18040215Y-14673960D01*
X18040215Y-14673960D02*
X18059263Y-14683484D01*
X18059263Y-14683484D02*
X18097358Y-14683484D01*
X18097358Y-14683484D02*
X18116405Y-14673960D01*
X18116405Y-14673960D02*
X18125929Y-14664436D01*
X18125929Y-14664436D02*
X18135453Y-14645388D01*
X18135453Y-14645388D02*
X18135453Y-14607293D01*
X18135453Y-14607293D02*
X18125929Y-14588246D01*
X18125929Y-14588246D02*
X18116405Y-14578722D01*
X18116405Y-14578722D02*
X18097358Y-14569198D01*
X18259263Y-14483484D02*
X18278310Y-14483484D01*
X18278310Y-14483484D02*
X18297358Y-14493008D01*
X18297358Y-14493008D02*
X18306882Y-14502531D01*
X18306882Y-14502531D02*
X18316405Y-14521579D01*
X18316405Y-14521579D02*
X18325929Y-14559674D01*
X18325929Y-14559674D02*
X18325929Y-14607293D01*
X18325929Y-14607293D02*
X18316405Y-14645388D01*
X18316405Y-14645388D02*
X18306882Y-14664436D01*
X18306882Y-14664436D02*
X18297358Y-14673960D01*
X18297358Y-14673960D02*
X18278310Y-14683484D01*
X18278310Y-14683484D02*
X18259263Y-14683484D01*
X18259263Y-14683484D02*
X18240215Y-14673960D01*
X18240215Y-14673960D02*
X18230691Y-14664436D01*
X18230691Y-14664436D02*
X18221167Y-14645388D01*
X18221167Y-14645388D02*
X18211644Y-14607293D01*
X18211644Y-14607293D02*
X18211644Y-14559674D01*
X18211644Y-14559674D02*
X18221167Y-14521579D01*
X18221167Y-14521579D02*
X18230691Y-14502531D01*
X18230691Y-14502531D02*
X18240215Y-14493008D01*
X18240215Y-14493008D02*
X18259263Y-14483484D01*
X18449739Y-14483484D02*
X18468786Y-14483484D01*
X18468786Y-14483484D02*
X18487834Y-14493008D01*
X18487834Y-14493008D02*
X18497358Y-14502531D01*
X18497358Y-14502531D02*
X18506882Y-14521579D01*
X18506882Y-14521579D02*
X18516405Y-14559674D01*
X18516405Y-14559674D02*
X18516405Y-14607293D01*
X18516405Y-14607293D02*
X18506882Y-14645388D01*
X18506882Y-14645388D02*
X18497358Y-14664436D01*
X18497358Y-14664436D02*
X18487834Y-14673960D01*
X18487834Y-14673960D02*
X18468786Y-14683484D01*
X18468786Y-14683484D02*
X18449739Y-14683484D01*
X18449739Y-14683484D02*
X18430691Y-14673960D01*
X18430691Y-14673960D02*
X18421167Y-14664436D01*
X18421167Y-14664436D02*
X18411644Y-14645388D01*
X18411644Y-14645388D02*
X18402120Y-14607293D01*
X18402120Y-14607293D02*
X18402120Y-14559674D01*
X18402120Y-14559674D02*
X18411644Y-14521579D01*
X18411644Y-14521579D02*
X18421167Y-14502531D01*
X18421167Y-14502531D02*
X18430691Y-14493008D01*
X18430691Y-14493008D02*
X18449739Y-14483484D01*
X18602120Y-14683484D02*
X18602120Y-14550150D01*
X18602120Y-14569198D02*
X18611644Y-14559674D01*
X18611644Y-14559674D02*
X18630691Y-14550150D01*
X18630691Y-14550150D02*
X18659263Y-14550150D01*
X18659263Y-14550150D02*
X18678310Y-14559674D01*
X18678310Y-14559674D02*
X18687834Y-14578722D01*
X18687834Y-14578722D02*
X18687834Y-14683484D01*
X18687834Y-14578722D02*
X18697358Y-14559674D01*
X18697358Y-14559674D02*
X18716405Y-14550150D01*
X18716405Y-14550150D02*
X18744977Y-14550150D01*
X18744977Y-14550150D02*
X18764025Y-14559674D01*
X18764025Y-14559674D02*
X18773548Y-14578722D01*
X18773548Y-14578722D02*
X18773548Y-14683484D01*
X18868786Y-14683484D02*
X18868786Y-14550150D01*
X18868786Y-14569198D02*
X18878310Y-14559674D01*
X18878310Y-14559674D02*
X18897358Y-14550150D01*
X18897358Y-14550150D02*
X18925929Y-14550150D01*
X18925929Y-14550150D02*
X18944977Y-14559674D01*
X18944977Y-14559674D02*
X18954501Y-14578722D01*
X18954501Y-14578722D02*
X18954501Y-14683484D01*
X18954501Y-14578722D02*
X18964025Y-14559674D01*
X18964025Y-14559674D02*
X18983072Y-14550150D01*
X18983072Y-14550150D02*
X19011644Y-14550150D01*
X19011644Y-14550150D02*
X19030691Y-14559674D01*
X19030691Y-14559674D02*
X19040215Y-14578722D01*
X19040215Y-14578722D02*
X19040215Y-14683484D01*
X19430691Y-14473960D02*
X19259263Y-14731103D01*
X19687834Y-14483484D02*
X19706882Y-14483484D01*
X19706882Y-14483484D02*
X19725929Y-14493008D01*
X19725929Y-14493008D02*
X19735453Y-14502531D01*
X19735453Y-14502531D02*
X19744977Y-14521579D01*
X19744977Y-14521579D02*
X19754501Y-14559674D01*
X19754501Y-14559674D02*
X19754501Y-14607293D01*
X19754501Y-14607293D02*
X19744977Y-14645388D01*
X19744977Y-14645388D02*
X19735453Y-14664436D01*
X19735453Y-14664436D02*
X19725929Y-14673960D01*
X19725929Y-14673960D02*
X19706882Y-14683484D01*
X19706882Y-14683484D02*
X19687834Y-14683484D01*
X19687834Y-14683484D02*
X19668787Y-14673960D01*
X19668787Y-14673960D02*
X19659263Y-14664436D01*
X19659263Y-14664436D02*
X19649739Y-14645388D01*
X19649739Y-14645388D02*
X19640215Y-14607293D01*
X19640215Y-14607293D02*
X19640215Y-14559674D01*
X19640215Y-14559674D02*
X19649739Y-14521579D01*
X19649739Y-14521579D02*
X19659263Y-14502531D01*
X19659263Y-14502531D02*
X19668787Y-14493008D01*
X19668787Y-14493008D02*
X19687834Y-14483484D01*
X19840215Y-14664436D02*
X19849739Y-14673960D01*
X19849739Y-14673960D02*
X19840215Y-14683484D01*
X19840215Y-14683484D02*
X19830691Y-14673960D01*
X19830691Y-14673960D02*
X19840215Y-14664436D01*
X19840215Y-14664436D02*
X19840215Y-14683484D01*
X19973548Y-14483484D02*
X19992596Y-14483484D01*
X19992596Y-14483484D02*
X20011644Y-14493008D01*
X20011644Y-14493008D02*
X20021168Y-14502531D01*
X20021168Y-14502531D02*
X20030691Y-14521579D01*
X20030691Y-14521579D02*
X20040215Y-14559674D01*
X20040215Y-14559674D02*
X20040215Y-14607293D01*
X20040215Y-14607293D02*
X20030691Y-14645388D01*
X20030691Y-14645388D02*
X20021168Y-14664436D01*
X20021168Y-14664436D02*
X20011644Y-14673960D01*
X20011644Y-14673960D02*
X19992596Y-14683484D01*
X19992596Y-14683484D02*
X19973548Y-14683484D01*
X19973548Y-14683484D02*
X19954501Y-14673960D01*
X19954501Y-14673960D02*
X19944977Y-14664436D01*
X19944977Y-14664436D02*
X19935453Y-14645388D01*
X19935453Y-14645388D02*
X19925929Y-14607293D01*
X19925929Y-14607293D02*
X19925929Y-14559674D01*
X19925929Y-14559674D02*
X19935453Y-14521579D01*
X19935453Y-14521579D02*
X19944977Y-14502531D01*
X19944977Y-14502531D02*
X19954501Y-14493008D01*
X19954501Y-14493008D02*
X19973548Y-14483484D01*
X20106882Y-14483484D02*
X20230691Y-14483484D01*
X20230691Y-14483484D02*
X20164025Y-14559674D01*
X20164025Y-14559674D02*
X20192596Y-14559674D01*
X20192596Y-14559674D02*
X20211644Y-14569198D01*
X20211644Y-14569198D02*
X20221168Y-14578722D01*
X20221168Y-14578722D02*
X20230691Y-14597769D01*
X20230691Y-14597769D02*
X20230691Y-14645388D01*
X20230691Y-14645388D02*
X20221168Y-14664436D01*
X20221168Y-14664436D02*
X20211644Y-14673960D01*
X20211644Y-14673960D02*
X20192596Y-14683484D01*
X20192596Y-14683484D02*
X20135453Y-14683484D01*
X20135453Y-14683484D02*
X20116406Y-14673960D01*
X20116406Y-14673960D02*
X20106882Y-14664436D01*
X20421168Y-14683484D02*
X20306882Y-14683484D01*
X20364025Y-14683484D02*
X20364025Y-14483484D01*
X20364025Y-14483484D02*
X20344977Y-14512055D01*
X20344977Y-14512055D02*
X20325929Y-14531103D01*
X20325929Y-14531103D02*
X20306882Y-14540627D01*
X20602120Y-14483484D02*
X20506882Y-14483484D01*
X20506882Y-14483484D02*
X20497358Y-14578722D01*
X20497358Y-14578722D02*
X20506882Y-14569198D01*
X20506882Y-14569198D02*
X20525929Y-14559674D01*
X20525929Y-14559674D02*
X20573549Y-14559674D01*
X20573549Y-14559674D02*
X20592596Y-14569198D01*
X20592596Y-14569198D02*
X20602120Y-14578722D01*
X20602120Y-14578722D02*
X20611644Y-14597769D01*
X20611644Y-14597769D02*
X20611644Y-14645388D01*
X20611644Y-14645388D02*
X20602120Y-14664436D01*
X20602120Y-14664436D02*
X20592596Y-14673960D01*
X20592596Y-14673960D02*
X20573549Y-14683484D01*
X20573549Y-14683484D02*
X20525929Y-14683484D01*
X20525929Y-14683484D02*
X20506882Y-14673960D01*
X20506882Y-14673960D02*
X20497358Y-14664436D01*
X20687834Y-14483484D02*
X20687834Y-14521579D01*
X20764025Y-14483484D02*
X20764025Y-14521579D01*
X21059263Y-14759674D02*
X21049739Y-14750150D01*
X21049739Y-14750150D02*
X21030691Y-14721579D01*
X21030691Y-14721579D02*
X21021168Y-14702531D01*
X21021168Y-14702531D02*
X21011644Y-14673960D01*
X21011644Y-14673960D02*
X21002120Y-14626341D01*
X21002120Y-14626341D02*
X21002120Y-14588246D01*
X21002120Y-14588246D02*
X21011644Y-14540627D01*
X21011644Y-14540627D02*
X21021168Y-14512055D01*
X21021168Y-14512055D02*
X21030691Y-14493008D01*
X21030691Y-14493008D02*
X21049739Y-14464436D01*
X21049739Y-14464436D02*
X21059263Y-14454912D01*
X21164025Y-14569198D02*
X21144977Y-14559674D01*
X21144977Y-14559674D02*
X21135453Y-14550150D01*
X21135453Y-14550150D02*
X21125930Y-14531103D01*
X21125930Y-14531103D02*
X21125930Y-14521579D01*
X21125930Y-14521579D02*
X21135453Y-14502531D01*
X21135453Y-14502531D02*
X21144977Y-14493008D01*
X21144977Y-14493008D02*
X21164025Y-14483484D01*
X21164025Y-14483484D02*
X21202120Y-14483484D01*
X21202120Y-14483484D02*
X21221168Y-14493008D01*
X21221168Y-14493008D02*
X21230691Y-14502531D01*
X21230691Y-14502531D02*
X21240215Y-14521579D01*
X21240215Y-14521579D02*
X21240215Y-14531103D01*
X21240215Y-14531103D02*
X21230691Y-14550150D01*
X21230691Y-14550150D02*
X21221168Y-14559674D01*
X21221168Y-14559674D02*
X21202120Y-14569198D01*
X21202120Y-14569198D02*
X21164025Y-14569198D01*
X21164025Y-14569198D02*
X21144977Y-14578722D01*
X21144977Y-14578722D02*
X21135453Y-14588246D01*
X21135453Y-14588246D02*
X21125930Y-14607293D01*
X21125930Y-14607293D02*
X21125930Y-14645388D01*
X21125930Y-14645388D02*
X21135453Y-14664436D01*
X21135453Y-14664436D02*
X21144977Y-14673960D01*
X21144977Y-14673960D02*
X21164025Y-14683484D01*
X21164025Y-14683484D02*
X21202120Y-14683484D01*
X21202120Y-14683484D02*
X21221168Y-14673960D01*
X21221168Y-14673960D02*
X21230691Y-14664436D01*
X21230691Y-14664436D02*
X21240215Y-14645388D01*
X21240215Y-14645388D02*
X21240215Y-14607293D01*
X21240215Y-14607293D02*
X21230691Y-14588246D01*
X21230691Y-14588246D02*
X21221168Y-14578722D01*
X21221168Y-14578722D02*
X21202120Y-14569198D01*
X21478311Y-14683484D02*
X21478311Y-14483484D01*
X21564025Y-14683484D02*
X21564025Y-14578722D01*
X21564025Y-14578722D02*
X21554501Y-14559674D01*
X21554501Y-14559674D02*
X21535453Y-14550150D01*
X21535453Y-14550150D02*
X21506882Y-14550150D01*
X21506882Y-14550150D02*
X21487834Y-14559674D01*
X21487834Y-14559674D02*
X21478311Y-14569198D01*
X21687834Y-14683484D02*
X21668787Y-14673960D01*
X21668787Y-14673960D02*
X21659263Y-14664436D01*
X21659263Y-14664436D02*
X21649739Y-14645388D01*
X21649739Y-14645388D02*
X21649739Y-14588246D01*
X21649739Y-14588246D02*
X21659263Y-14569198D01*
X21659263Y-14569198D02*
X21668787Y-14559674D01*
X21668787Y-14559674D02*
X21687834Y-14550150D01*
X21687834Y-14550150D02*
X21716406Y-14550150D01*
X21716406Y-14550150D02*
X21735453Y-14559674D01*
X21735453Y-14559674D02*
X21744977Y-14569198D01*
X21744977Y-14569198D02*
X21754501Y-14588246D01*
X21754501Y-14588246D02*
X21754501Y-14645388D01*
X21754501Y-14645388D02*
X21744977Y-14664436D01*
X21744977Y-14664436D02*
X21735453Y-14673960D01*
X21735453Y-14673960D02*
X21716406Y-14683484D01*
X21716406Y-14683484D02*
X21687834Y-14683484D01*
X21868787Y-14683484D02*
X21849739Y-14673960D01*
X21849739Y-14673960D02*
X21840215Y-14654912D01*
X21840215Y-14654912D02*
X21840215Y-14483484D01*
X22021168Y-14673960D02*
X22002120Y-14683484D01*
X22002120Y-14683484D02*
X21964025Y-14683484D01*
X21964025Y-14683484D02*
X21944977Y-14673960D01*
X21944977Y-14673960D02*
X21935453Y-14654912D01*
X21935453Y-14654912D02*
X21935453Y-14578722D01*
X21935453Y-14578722D02*
X21944977Y-14559674D01*
X21944977Y-14559674D02*
X21964025Y-14550150D01*
X21964025Y-14550150D02*
X22002120Y-14550150D01*
X22002120Y-14550150D02*
X22021168Y-14559674D01*
X22021168Y-14559674D02*
X22030692Y-14578722D01*
X22030692Y-14578722D02*
X22030692Y-14597769D01*
X22030692Y-14597769D02*
X21935453Y-14616817D01*
X22106882Y-14673960D02*
X22125930Y-14683484D01*
X22125930Y-14683484D02*
X22164025Y-14683484D01*
X22164025Y-14683484D02*
X22183073Y-14673960D01*
X22183073Y-14673960D02*
X22192596Y-14654912D01*
X22192596Y-14654912D02*
X22192596Y-14645388D01*
X22192596Y-14645388D02*
X22183073Y-14626341D01*
X22183073Y-14626341D02*
X22164025Y-14616817D01*
X22164025Y-14616817D02*
X22135453Y-14616817D01*
X22135453Y-14616817D02*
X22116406Y-14607293D01*
X22116406Y-14607293D02*
X22106882Y-14588246D01*
X22106882Y-14588246D02*
X22106882Y-14578722D01*
X22106882Y-14578722D02*
X22116406Y-14559674D01*
X22116406Y-14559674D02*
X22135453Y-14550150D01*
X22135453Y-14550150D02*
X22164025Y-14550150D01*
X22164025Y-14550150D02*
X22183073Y-14559674D01*
X22259263Y-14759674D02*
X22268787Y-14750150D01*
X22268787Y-14750150D02*
X22287834Y-14721579D01*
X22287834Y-14721579D02*
X22297358Y-14702531D01*
X22297358Y-14702531D02*
X22306882Y-14673960D01*
X22306882Y-14673960D02*
X22316406Y-14626341D01*
X22316406Y-14626341D02*
X22316406Y-14588246D01*
X22316406Y-14588246D02*
X22306882Y-14540627D01*
X22306882Y-14540627D02*
X22297358Y-14512055D01*
X22297358Y-14512055D02*
X22287834Y-14493008D01*
X22287834Y-14493008D02*
X22268787Y-14464436D01*
X22268787Y-14464436D02*
X22259263Y-14454912D01*
D14*
X17439700Y-14811500D02*
X17439700Y-14900500D01*
X17395200Y-14856000D02*
X17484200Y-14856000D01*
D11*
X17783072Y-14747484D02*
X17802120Y-14747484D01*
X17802120Y-14747484D02*
X17821167Y-14757008D01*
X17821167Y-14757008D02*
X17830691Y-14766531D01*
X17830691Y-14766531D02*
X17840215Y-14785579D01*
X17840215Y-14785579D02*
X17849739Y-14823674D01*
X17849739Y-14823674D02*
X17849739Y-14871293D01*
X17849739Y-14871293D02*
X17840215Y-14909388D01*
X17840215Y-14909388D02*
X17830691Y-14928436D01*
X17830691Y-14928436D02*
X17821167Y-14937960D01*
X17821167Y-14937960D02*
X17802120Y-14947484D01*
X17802120Y-14947484D02*
X17783072Y-14947484D01*
X17783072Y-14947484D02*
X17764024Y-14937960D01*
X17764024Y-14937960D02*
X17754501Y-14928436D01*
X17754501Y-14928436D02*
X17744977Y-14909388D01*
X17744977Y-14909388D02*
X17735453Y-14871293D01*
X17735453Y-14871293D02*
X17735453Y-14823674D01*
X17735453Y-14823674D02*
X17744977Y-14785579D01*
X17744977Y-14785579D02*
X17754501Y-14766531D01*
X17754501Y-14766531D02*
X17764024Y-14757008D01*
X17764024Y-14757008D02*
X17783072Y-14747484D01*
X17935453Y-14928436D02*
X17944977Y-14937960D01*
X17944977Y-14937960D02*
X17935453Y-14947484D01*
X17935453Y-14947484D02*
X17925929Y-14937960D01*
X17925929Y-14937960D02*
X17935453Y-14928436D01*
X17935453Y-14928436D02*
X17935453Y-14947484D01*
X18059263Y-14833198D02*
X18040215Y-14823674D01*
X18040215Y-14823674D02*
X18030691Y-14814150D01*
X18030691Y-14814150D02*
X18021167Y-14795103D01*
X18021167Y-14795103D02*
X18021167Y-14785579D01*
X18021167Y-14785579D02*
X18030691Y-14766531D01*
X18030691Y-14766531D02*
X18040215Y-14757008D01*
X18040215Y-14757008D02*
X18059263Y-14747484D01*
X18059263Y-14747484D02*
X18097358Y-14747484D01*
X18097358Y-14747484D02*
X18116405Y-14757008D01*
X18116405Y-14757008D02*
X18125929Y-14766531D01*
X18125929Y-14766531D02*
X18135453Y-14785579D01*
X18135453Y-14785579D02*
X18135453Y-14795103D01*
X18135453Y-14795103D02*
X18125929Y-14814150D01*
X18125929Y-14814150D02*
X18116405Y-14823674D01*
X18116405Y-14823674D02*
X18097358Y-14833198D01*
X18097358Y-14833198D02*
X18059263Y-14833198D01*
X18059263Y-14833198D02*
X18040215Y-14842722D01*
X18040215Y-14842722D02*
X18030691Y-14852246D01*
X18030691Y-14852246D02*
X18021167Y-14871293D01*
X18021167Y-14871293D02*
X18021167Y-14909388D01*
X18021167Y-14909388D02*
X18030691Y-14928436D01*
X18030691Y-14928436D02*
X18040215Y-14937960D01*
X18040215Y-14937960D02*
X18059263Y-14947484D01*
X18059263Y-14947484D02*
X18097358Y-14947484D01*
X18097358Y-14947484D02*
X18116405Y-14937960D01*
X18116405Y-14937960D02*
X18125929Y-14928436D01*
X18125929Y-14928436D02*
X18135453Y-14909388D01*
X18135453Y-14909388D02*
X18135453Y-14871293D01*
X18135453Y-14871293D02*
X18125929Y-14852246D01*
X18125929Y-14852246D02*
X18116405Y-14842722D01*
X18116405Y-14842722D02*
X18097358Y-14833198D01*
X18230691Y-14947484D02*
X18268786Y-14947484D01*
X18268786Y-14947484D02*
X18287834Y-14937960D01*
X18287834Y-14937960D02*
X18297358Y-14928436D01*
X18297358Y-14928436D02*
X18316405Y-14899865D01*
X18316405Y-14899865D02*
X18325929Y-14861769D01*
X18325929Y-14861769D02*
X18325929Y-14785579D01*
X18325929Y-14785579D02*
X18316405Y-14766531D01*
X18316405Y-14766531D02*
X18306882Y-14757008D01*
X18306882Y-14757008D02*
X18287834Y-14747484D01*
X18287834Y-14747484D02*
X18249739Y-14747484D01*
X18249739Y-14747484D02*
X18230691Y-14757008D01*
X18230691Y-14757008D02*
X18221167Y-14766531D01*
X18221167Y-14766531D02*
X18211644Y-14785579D01*
X18211644Y-14785579D02*
X18211644Y-14833198D01*
X18211644Y-14833198D02*
X18221167Y-14852246D01*
X18221167Y-14852246D02*
X18230691Y-14861769D01*
X18230691Y-14861769D02*
X18249739Y-14871293D01*
X18249739Y-14871293D02*
X18287834Y-14871293D01*
X18287834Y-14871293D02*
X18306882Y-14861769D01*
X18306882Y-14861769D02*
X18316405Y-14852246D01*
X18316405Y-14852246D02*
X18325929Y-14833198D01*
X18449739Y-14747484D02*
X18468786Y-14747484D01*
X18468786Y-14747484D02*
X18487834Y-14757008D01*
X18487834Y-14757008D02*
X18497358Y-14766531D01*
X18497358Y-14766531D02*
X18506882Y-14785579D01*
X18506882Y-14785579D02*
X18516405Y-14823674D01*
X18516405Y-14823674D02*
X18516405Y-14871293D01*
X18516405Y-14871293D02*
X18506882Y-14909388D01*
X18506882Y-14909388D02*
X18497358Y-14928436D01*
X18497358Y-14928436D02*
X18487834Y-14937960D01*
X18487834Y-14937960D02*
X18468786Y-14947484D01*
X18468786Y-14947484D02*
X18449739Y-14947484D01*
X18449739Y-14947484D02*
X18430691Y-14937960D01*
X18430691Y-14937960D02*
X18421167Y-14928436D01*
X18421167Y-14928436D02*
X18411644Y-14909388D01*
X18411644Y-14909388D02*
X18402120Y-14871293D01*
X18402120Y-14871293D02*
X18402120Y-14823674D01*
X18402120Y-14823674D02*
X18411644Y-14785579D01*
X18411644Y-14785579D02*
X18421167Y-14766531D01*
X18421167Y-14766531D02*
X18430691Y-14757008D01*
X18430691Y-14757008D02*
X18449739Y-14747484D01*
X18602120Y-14947484D02*
X18602120Y-14814150D01*
X18602120Y-14833198D02*
X18611644Y-14823674D01*
X18611644Y-14823674D02*
X18630691Y-14814150D01*
X18630691Y-14814150D02*
X18659263Y-14814150D01*
X18659263Y-14814150D02*
X18678310Y-14823674D01*
X18678310Y-14823674D02*
X18687834Y-14842722D01*
X18687834Y-14842722D02*
X18687834Y-14947484D01*
X18687834Y-14842722D02*
X18697358Y-14823674D01*
X18697358Y-14823674D02*
X18716405Y-14814150D01*
X18716405Y-14814150D02*
X18744977Y-14814150D01*
X18744977Y-14814150D02*
X18764025Y-14823674D01*
X18764025Y-14823674D02*
X18773548Y-14842722D01*
X18773548Y-14842722D02*
X18773548Y-14947484D01*
X18868786Y-14947484D02*
X18868786Y-14814150D01*
X18868786Y-14833198D02*
X18878310Y-14823674D01*
X18878310Y-14823674D02*
X18897358Y-14814150D01*
X18897358Y-14814150D02*
X18925929Y-14814150D01*
X18925929Y-14814150D02*
X18944977Y-14823674D01*
X18944977Y-14823674D02*
X18954501Y-14842722D01*
X18954501Y-14842722D02*
X18954501Y-14947484D01*
X18954501Y-14842722D02*
X18964025Y-14823674D01*
X18964025Y-14823674D02*
X18983072Y-14814150D01*
X18983072Y-14814150D02*
X19011644Y-14814150D01*
X19011644Y-14814150D02*
X19030691Y-14823674D01*
X19030691Y-14823674D02*
X19040215Y-14842722D01*
X19040215Y-14842722D02*
X19040215Y-14947484D01*
X19430691Y-14737960D02*
X19259263Y-14995103D01*
X19687834Y-14747484D02*
X19706882Y-14747484D01*
X19706882Y-14747484D02*
X19725929Y-14757008D01*
X19725929Y-14757008D02*
X19735453Y-14766531D01*
X19735453Y-14766531D02*
X19744977Y-14785579D01*
X19744977Y-14785579D02*
X19754501Y-14823674D01*
X19754501Y-14823674D02*
X19754501Y-14871293D01*
X19754501Y-14871293D02*
X19744977Y-14909388D01*
X19744977Y-14909388D02*
X19735453Y-14928436D01*
X19735453Y-14928436D02*
X19725929Y-14937960D01*
X19725929Y-14937960D02*
X19706882Y-14947484D01*
X19706882Y-14947484D02*
X19687834Y-14947484D01*
X19687834Y-14947484D02*
X19668787Y-14937960D01*
X19668787Y-14937960D02*
X19659263Y-14928436D01*
X19659263Y-14928436D02*
X19649739Y-14909388D01*
X19649739Y-14909388D02*
X19640215Y-14871293D01*
X19640215Y-14871293D02*
X19640215Y-14823674D01*
X19640215Y-14823674D02*
X19649739Y-14785579D01*
X19649739Y-14785579D02*
X19659263Y-14766531D01*
X19659263Y-14766531D02*
X19668787Y-14757008D01*
X19668787Y-14757008D02*
X19687834Y-14747484D01*
X19840215Y-14928436D02*
X19849739Y-14937960D01*
X19849739Y-14937960D02*
X19840215Y-14947484D01*
X19840215Y-14947484D02*
X19830691Y-14937960D01*
X19830691Y-14937960D02*
X19840215Y-14928436D01*
X19840215Y-14928436D02*
X19840215Y-14947484D01*
X19973548Y-14747484D02*
X19992596Y-14747484D01*
X19992596Y-14747484D02*
X20011644Y-14757008D01*
X20011644Y-14757008D02*
X20021168Y-14766531D01*
X20021168Y-14766531D02*
X20030691Y-14785579D01*
X20030691Y-14785579D02*
X20040215Y-14823674D01*
X20040215Y-14823674D02*
X20040215Y-14871293D01*
X20040215Y-14871293D02*
X20030691Y-14909388D01*
X20030691Y-14909388D02*
X20021168Y-14928436D01*
X20021168Y-14928436D02*
X20011644Y-14937960D01*
X20011644Y-14937960D02*
X19992596Y-14947484D01*
X19992596Y-14947484D02*
X19973548Y-14947484D01*
X19973548Y-14947484D02*
X19954501Y-14937960D01*
X19954501Y-14937960D02*
X19944977Y-14928436D01*
X19944977Y-14928436D02*
X19935453Y-14909388D01*
X19935453Y-14909388D02*
X19925929Y-14871293D01*
X19925929Y-14871293D02*
X19925929Y-14823674D01*
X19925929Y-14823674D02*
X19935453Y-14785579D01*
X19935453Y-14785579D02*
X19944977Y-14766531D01*
X19944977Y-14766531D02*
X19954501Y-14757008D01*
X19954501Y-14757008D02*
X19973548Y-14747484D01*
X20106882Y-14747484D02*
X20230691Y-14747484D01*
X20230691Y-14747484D02*
X20164025Y-14823674D01*
X20164025Y-14823674D02*
X20192596Y-14823674D01*
X20192596Y-14823674D02*
X20211644Y-14833198D01*
X20211644Y-14833198D02*
X20221168Y-14842722D01*
X20221168Y-14842722D02*
X20230691Y-14861769D01*
X20230691Y-14861769D02*
X20230691Y-14909388D01*
X20230691Y-14909388D02*
X20221168Y-14928436D01*
X20221168Y-14928436D02*
X20211644Y-14937960D01*
X20211644Y-14937960D02*
X20192596Y-14947484D01*
X20192596Y-14947484D02*
X20135453Y-14947484D01*
X20135453Y-14947484D02*
X20116406Y-14937960D01*
X20116406Y-14937960D02*
X20106882Y-14928436D01*
X20411644Y-14747484D02*
X20316406Y-14747484D01*
X20316406Y-14747484D02*
X20306882Y-14842722D01*
X20306882Y-14842722D02*
X20316406Y-14833198D01*
X20316406Y-14833198D02*
X20335453Y-14823674D01*
X20335453Y-14823674D02*
X20383072Y-14823674D01*
X20383072Y-14823674D02*
X20402120Y-14833198D01*
X20402120Y-14833198D02*
X20411644Y-14842722D01*
X20411644Y-14842722D02*
X20421168Y-14861769D01*
X20421168Y-14861769D02*
X20421168Y-14909388D01*
X20421168Y-14909388D02*
X20411644Y-14928436D01*
X20411644Y-14928436D02*
X20402120Y-14937960D01*
X20402120Y-14937960D02*
X20383072Y-14947484D01*
X20383072Y-14947484D02*
X20335453Y-14947484D01*
X20335453Y-14947484D02*
X20316406Y-14937960D01*
X20316406Y-14937960D02*
X20306882Y-14928436D01*
X20544977Y-14747484D02*
X20564025Y-14747484D01*
X20564025Y-14747484D02*
X20583072Y-14757008D01*
X20583072Y-14757008D02*
X20592596Y-14766531D01*
X20592596Y-14766531D02*
X20602120Y-14785579D01*
X20602120Y-14785579D02*
X20611644Y-14823674D01*
X20611644Y-14823674D02*
X20611644Y-14871293D01*
X20611644Y-14871293D02*
X20602120Y-14909388D01*
X20602120Y-14909388D02*
X20592596Y-14928436D01*
X20592596Y-14928436D02*
X20583072Y-14937960D01*
X20583072Y-14937960D02*
X20564025Y-14947484D01*
X20564025Y-14947484D02*
X20544977Y-14947484D01*
X20544977Y-14947484D02*
X20525929Y-14937960D01*
X20525929Y-14937960D02*
X20516406Y-14928436D01*
X20516406Y-14928436D02*
X20506882Y-14909388D01*
X20506882Y-14909388D02*
X20497358Y-14871293D01*
X20497358Y-14871293D02*
X20497358Y-14823674D01*
X20497358Y-14823674D02*
X20506882Y-14785579D01*
X20506882Y-14785579D02*
X20516406Y-14766531D01*
X20516406Y-14766531D02*
X20525929Y-14757008D01*
X20525929Y-14757008D02*
X20544977Y-14747484D01*
X20687834Y-14747484D02*
X20687834Y-14785579D01*
X20764025Y-14747484D02*
X20764025Y-14785579D01*
X21059263Y-15023674D02*
X21049739Y-15014150D01*
X21049739Y-15014150D02*
X21030691Y-14985579D01*
X21030691Y-14985579D02*
X21021168Y-14966531D01*
X21021168Y-14966531D02*
X21011644Y-14937960D01*
X21011644Y-14937960D02*
X21002120Y-14890341D01*
X21002120Y-14890341D02*
X21002120Y-14852246D01*
X21002120Y-14852246D02*
X21011644Y-14804627D01*
X21011644Y-14804627D02*
X21021168Y-14776055D01*
X21021168Y-14776055D02*
X21030691Y-14757008D01*
X21030691Y-14757008D02*
X21049739Y-14728436D01*
X21049739Y-14728436D02*
X21059263Y-14718912D01*
X21164025Y-14833198D02*
X21144977Y-14823674D01*
X21144977Y-14823674D02*
X21135453Y-14814150D01*
X21135453Y-14814150D02*
X21125930Y-14795103D01*
X21125930Y-14795103D02*
X21125930Y-14785579D01*
X21125930Y-14785579D02*
X21135453Y-14766531D01*
X21135453Y-14766531D02*
X21144977Y-14757008D01*
X21144977Y-14757008D02*
X21164025Y-14747484D01*
X21164025Y-14747484D02*
X21202120Y-14747484D01*
X21202120Y-14747484D02*
X21221168Y-14757008D01*
X21221168Y-14757008D02*
X21230691Y-14766531D01*
X21230691Y-14766531D02*
X21240215Y-14785579D01*
X21240215Y-14785579D02*
X21240215Y-14795103D01*
X21240215Y-14795103D02*
X21230691Y-14814150D01*
X21230691Y-14814150D02*
X21221168Y-14823674D01*
X21221168Y-14823674D02*
X21202120Y-14833198D01*
X21202120Y-14833198D02*
X21164025Y-14833198D01*
X21164025Y-14833198D02*
X21144977Y-14842722D01*
X21144977Y-14842722D02*
X21135453Y-14852246D01*
X21135453Y-14852246D02*
X21125930Y-14871293D01*
X21125930Y-14871293D02*
X21125930Y-14909388D01*
X21125930Y-14909388D02*
X21135453Y-14928436D01*
X21135453Y-14928436D02*
X21144977Y-14937960D01*
X21144977Y-14937960D02*
X21164025Y-14947484D01*
X21164025Y-14947484D02*
X21202120Y-14947484D01*
X21202120Y-14947484D02*
X21221168Y-14937960D01*
X21221168Y-14937960D02*
X21230691Y-14928436D01*
X21230691Y-14928436D02*
X21240215Y-14909388D01*
X21240215Y-14909388D02*
X21240215Y-14871293D01*
X21240215Y-14871293D02*
X21230691Y-14852246D01*
X21230691Y-14852246D02*
X21221168Y-14842722D01*
X21221168Y-14842722D02*
X21202120Y-14833198D01*
X21478311Y-14947484D02*
X21478311Y-14747484D01*
X21564025Y-14947484D02*
X21564025Y-14842722D01*
X21564025Y-14842722D02*
X21554501Y-14823674D01*
X21554501Y-14823674D02*
X21535453Y-14814150D01*
X21535453Y-14814150D02*
X21506882Y-14814150D01*
X21506882Y-14814150D02*
X21487834Y-14823674D01*
X21487834Y-14823674D02*
X21478311Y-14833198D01*
X21687834Y-14947484D02*
X21668787Y-14937960D01*
X21668787Y-14937960D02*
X21659263Y-14928436D01*
X21659263Y-14928436D02*
X21649739Y-14909388D01*
X21649739Y-14909388D02*
X21649739Y-14852246D01*
X21649739Y-14852246D02*
X21659263Y-14833198D01*
X21659263Y-14833198D02*
X21668787Y-14823674D01*
X21668787Y-14823674D02*
X21687834Y-14814150D01*
X21687834Y-14814150D02*
X21716406Y-14814150D01*
X21716406Y-14814150D02*
X21735453Y-14823674D01*
X21735453Y-14823674D02*
X21744977Y-14833198D01*
X21744977Y-14833198D02*
X21754501Y-14852246D01*
X21754501Y-14852246D02*
X21754501Y-14909388D01*
X21754501Y-14909388D02*
X21744977Y-14928436D01*
X21744977Y-14928436D02*
X21735453Y-14937960D01*
X21735453Y-14937960D02*
X21716406Y-14947484D01*
X21716406Y-14947484D02*
X21687834Y-14947484D01*
X21868787Y-14947484D02*
X21849739Y-14937960D01*
X21849739Y-14937960D02*
X21840215Y-14918912D01*
X21840215Y-14918912D02*
X21840215Y-14747484D01*
X22021168Y-14937960D02*
X22002120Y-14947484D01*
X22002120Y-14947484D02*
X21964025Y-14947484D01*
X21964025Y-14947484D02*
X21944977Y-14937960D01*
X21944977Y-14937960D02*
X21935453Y-14918912D01*
X21935453Y-14918912D02*
X21935453Y-14842722D01*
X21935453Y-14842722D02*
X21944977Y-14823674D01*
X21944977Y-14823674D02*
X21964025Y-14814150D01*
X21964025Y-14814150D02*
X22002120Y-14814150D01*
X22002120Y-14814150D02*
X22021168Y-14823674D01*
X22021168Y-14823674D02*
X22030692Y-14842722D01*
X22030692Y-14842722D02*
X22030692Y-14861769D01*
X22030692Y-14861769D02*
X21935453Y-14880817D01*
X22106882Y-14937960D02*
X22125930Y-14947484D01*
X22125930Y-14947484D02*
X22164025Y-14947484D01*
X22164025Y-14947484D02*
X22183073Y-14937960D01*
X22183073Y-14937960D02*
X22192596Y-14918912D01*
X22192596Y-14918912D02*
X22192596Y-14909388D01*
X22192596Y-14909388D02*
X22183073Y-14890341D01*
X22183073Y-14890341D02*
X22164025Y-14880817D01*
X22164025Y-14880817D02*
X22135453Y-14880817D01*
X22135453Y-14880817D02*
X22116406Y-14871293D01*
X22116406Y-14871293D02*
X22106882Y-14852246D01*
X22106882Y-14852246D02*
X22106882Y-14842722D01*
X22106882Y-14842722D02*
X22116406Y-14823674D01*
X22116406Y-14823674D02*
X22135453Y-14814150D01*
X22135453Y-14814150D02*
X22164025Y-14814150D01*
X22164025Y-14814150D02*
X22183073Y-14823674D01*
X22259263Y-15023674D02*
X22268787Y-15014150D01*
X22268787Y-15014150D02*
X22287834Y-14985579D01*
X22287834Y-14985579D02*
X22297358Y-14966531D01*
X22297358Y-14966531D02*
X22306882Y-14937960D01*
X22306882Y-14937960D02*
X22316406Y-14890341D01*
X22316406Y-14890341D02*
X22316406Y-14852246D01*
X22316406Y-14852246D02*
X22306882Y-14804627D01*
X22306882Y-14804627D02*
X22297358Y-14776055D01*
X22297358Y-14776055D02*
X22287834Y-14757008D01*
X22287834Y-14757008D02*
X22268787Y-14728436D01*
X22268787Y-14728436D02*
X22259263Y-14718912D01*
D10*
X17469556Y-15155356D02*
X17469556Y-15084644D01*
X17398844Y-15084644D01*
X17398844Y-15155356D01*
X17469556Y-15155356D01*
D11*
X17849739Y-15211484D02*
X17735453Y-15211484D01*
X17792596Y-15211484D02*
X17792596Y-15011484D01*
X17792596Y-15011484D02*
X17773548Y-15040055D01*
X17773548Y-15040055D02*
X17754501Y-15059103D01*
X17754501Y-15059103D02*
X17735453Y-15068627D01*
X17935453Y-15192436D02*
X17944977Y-15201960D01*
X17944977Y-15201960D02*
X17935453Y-15211484D01*
X17935453Y-15211484D02*
X17925929Y-15201960D01*
X17925929Y-15201960D02*
X17935453Y-15192436D01*
X17935453Y-15192436D02*
X17935453Y-15211484D01*
X18068786Y-15011484D02*
X18087834Y-15011484D01*
X18087834Y-15011484D02*
X18106882Y-15021008D01*
X18106882Y-15021008D02*
X18116405Y-15030531D01*
X18116405Y-15030531D02*
X18125929Y-15049579D01*
X18125929Y-15049579D02*
X18135453Y-15087674D01*
X18135453Y-15087674D02*
X18135453Y-15135293D01*
X18135453Y-15135293D02*
X18125929Y-15173388D01*
X18125929Y-15173388D02*
X18116405Y-15192436D01*
X18116405Y-15192436D02*
X18106882Y-15201960D01*
X18106882Y-15201960D02*
X18087834Y-15211484D01*
X18087834Y-15211484D02*
X18068786Y-15211484D01*
X18068786Y-15211484D02*
X18049739Y-15201960D01*
X18049739Y-15201960D02*
X18040215Y-15192436D01*
X18040215Y-15192436D02*
X18030691Y-15173388D01*
X18030691Y-15173388D02*
X18021167Y-15135293D01*
X18021167Y-15135293D02*
X18021167Y-15087674D01*
X18021167Y-15087674D02*
X18030691Y-15049579D01*
X18030691Y-15049579D02*
X18040215Y-15030531D01*
X18040215Y-15030531D02*
X18049739Y-15021008D01*
X18049739Y-15021008D02*
X18068786Y-15011484D01*
X18259263Y-15011484D02*
X18278310Y-15011484D01*
X18278310Y-15011484D02*
X18297358Y-15021008D01*
X18297358Y-15021008D02*
X18306882Y-15030531D01*
X18306882Y-15030531D02*
X18316405Y-15049579D01*
X18316405Y-15049579D02*
X18325929Y-15087674D01*
X18325929Y-15087674D02*
X18325929Y-15135293D01*
X18325929Y-15135293D02*
X18316405Y-15173388D01*
X18316405Y-15173388D02*
X18306882Y-15192436D01*
X18306882Y-15192436D02*
X18297358Y-15201960D01*
X18297358Y-15201960D02*
X18278310Y-15211484D01*
X18278310Y-15211484D02*
X18259263Y-15211484D01*
X18259263Y-15211484D02*
X18240215Y-15201960D01*
X18240215Y-15201960D02*
X18230691Y-15192436D01*
X18230691Y-15192436D02*
X18221167Y-15173388D01*
X18221167Y-15173388D02*
X18211644Y-15135293D01*
X18211644Y-15135293D02*
X18211644Y-15087674D01*
X18211644Y-15087674D02*
X18221167Y-15049579D01*
X18221167Y-15049579D02*
X18230691Y-15030531D01*
X18230691Y-15030531D02*
X18240215Y-15021008D01*
X18240215Y-15021008D02*
X18259263Y-15011484D01*
X18449739Y-15011484D02*
X18468786Y-15011484D01*
X18468786Y-15011484D02*
X18487834Y-15021008D01*
X18487834Y-15021008D02*
X18497358Y-15030531D01*
X18497358Y-15030531D02*
X18506882Y-15049579D01*
X18506882Y-15049579D02*
X18516405Y-15087674D01*
X18516405Y-15087674D02*
X18516405Y-15135293D01*
X18516405Y-15135293D02*
X18506882Y-15173388D01*
X18506882Y-15173388D02*
X18497358Y-15192436D01*
X18497358Y-15192436D02*
X18487834Y-15201960D01*
X18487834Y-15201960D02*
X18468786Y-15211484D01*
X18468786Y-15211484D02*
X18449739Y-15211484D01*
X18449739Y-15211484D02*
X18430691Y-15201960D01*
X18430691Y-15201960D02*
X18421167Y-15192436D01*
X18421167Y-15192436D02*
X18411644Y-15173388D01*
X18411644Y-15173388D02*
X18402120Y-15135293D01*
X18402120Y-15135293D02*
X18402120Y-15087674D01*
X18402120Y-15087674D02*
X18411644Y-15049579D01*
X18411644Y-15049579D02*
X18421167Y-15030531D01*
X18421167Y-15030531D02*
X18430691Y-15021008D01*
X18430691Y-15021008D02*
X18449739Y-15011484D01*
X18602120Y-15211484D02*
X18602120Y-15078150D01*
X18602120Y-15097198D02*
X18611644Y-15087674D01*
X18611644Y-15087674D02*
X18630691Y-15078150D01*
X18630691Y-15078150D02*
X18659263Y-15078150D01*
X18659263Y-15078150D02*
X18678310Y-15087674D01*
X18678310Y-15087674D02*
X18687834Y-15106722D01*
X18687834Y-15106722D02*
X18687834Y-15211484D01*
X18687834Y-15106722D02*
X18697358Y-15087674D01*
X18697358Y-15087674D02*
X18716405Y-15078150D01*
X18716405Y-15078150D02*
X18744977Y-15078150D01*
X18744977Y-15078150D02*
X18764025Y-15087674D01*
X18764025Y-15087674D02*
X18773548Y-15106722D01*
X18773548Y-15106722D02*
X18773548Y-15211484D01*
X18868786Y-15211484D02*
X18868786Y-15078150D01*
X18868786Y-15097198D02*
X18878310Y-15087674D01*
X18878310Y-15087674D02*
X18897358Y-15078150D01*
X18897358Y-15078150D02*
X18925929Y-15078150D01*
X18925929Y-15078150D02*
X18944977Y-15087674D01*
X18944977Y-15087674D02*
X18954501Y-15106722D01*
X18954501Y-15106722D02*
X18954501Y-15211484D01*
X18954501Y-15106722D02*
X18964025Y-15087674D01*
X18964025Y-15087674D02*
X18983072Y-15078150D01*
X18983072Y-15078150D02*
X19011644Y-15078150D01*
X19011644Y-15078150D02*
X19030691Y-15087674D01*
X19030691Y-15087674D02*
X19040215Y-15106722D01*
X19040215Y-15106722D02*
X19040215Y-15211484D01*
X19430691Y-15001960D02*
X19259263Y-15259103D01*
X19687834Y-15011484D02*
X19706882Y-15011484D01*
X19706882Y-15011484D02*
X19725929Y-15021008D01*
X19725929Y-15021008D02*
X19735453Y-15030531D01*
X19735453Y-15030531D02*
X19744977Y-15049579D01*
X19744977Y-15049579D02*
X19754501Y-15087674D01*
X19754501Y-15087674D02*
X19754501Y-15135293D01*
X19754501Y-15135293D02*
X19744977Y-15173388D01*
X19744977Y-15173388D02*
X19735453Y-15192436D01*
X19735453Y-15192436D02*
X19725929Y-15201960D01*
X19725929Y-15201960D02*
X19706882Y-15211484D01*
X19706882Y-15211484D02*
X19687834Y-15211484D01*
X19687834Y-15211484D02*
X19668787Y-15201960D01*
X19668787Y-15201960D02*
X19659263Y-15192436D01*
X19659263Y-15192436D02*
X19649739Y-15173388D01*
X19649739Y-15173388D02*
X19640215Y-15135293D01*
X19640215Y-15135293D02*
X19640215Y-15087674D01*
X19640215Y-15087674D02*
X19649739Y-15049579D01*
X19649739Y-15049579D02*
X19659263Y-15030531D01*
X19659263Y-15030531D02*
X19668787Y-15021008D01*
X19668787Y-15021008D02*
X19687834Y-15011484D01*
X19840215Y-15192436D02*
X19849739Y-15201960D01*
X19849739Y-15201960D02*
X19840215Y-15211484D01*
X19840215Y-15211484D02*
X19830691Y-15201960D01*
X19830691Y-15201960D02*
X19840215Y-15192436D01*
X19840215Y-15192436D02*
X19840215Y-15211484D01*
X19973548Y-15011484D02*
X19992596Y-15011484D01*
X19992596Y-15011484D02*
X20011644Y-15021008D01*
X20011644Y-15021008D02*
X20021168Y-15030531D01*
X20021168Y-15030531D02*
X20030691Y-15049579D01*
X20030691Y-15049579D02*
X20040215Y-15087674D01*
X20040215Y-15087674D02*
X20040215Y-15135293D01*
X20040215Y-15135293D02*
X20030691Y-15173388D01*
X20030691Y-15173388D02*
X20021168Y-15192436D01*
X20021168Y-15192436D02*
X20011644Y-15201960D01*
X20011644Y-15201960D02*
X19992596Y-15211484D01*
X19992596Y-15211484D02*
X19973548Y-15211484D01*
X19973548Y-15211484D02*
X19954501Y-15201960D01*
X19954501Y-15201960D02*
X19944977Y-15192436D01*
X19944977Y-15192436D02*
X19935453Y-15173388D01*
X19935453Y-15173388D02*
X19925929Y-15135293D01*
X19925929Y-15135293D02*
X19925929Y-15087674D01*
X19925929Y-15087674D02*
X19935453Y-15049579D01*
X19935453Y-15049579D02*
X19944977Y-15030531D01*
X19944977Y-15030531D02*
X19954501Y-15021008D01*
X19954501Y-15021008D02*
X19973548Y-15011484D01*
X20106882Y-15011484D02*
X20230691Y-15011484D01*
X20230691Y-15011484D02*
X20164025Y-15087674D01*
X20164025Y-15087674D02*
X20192596Y-15087674D01*
X20192596Y-15087674D02*
X20211644Y-15097198D01*
X20211644Y-15097198D02*
X20221168Y-15106722D01*
X20221168Y-15106722D02*
X20230691Y-15125769D01*
X20230691Y-15125769D02*
X20230691Y-15173388D01*
X20230691Y-15173388D02*
X20221168Y-15192436D01*
X20221168Y-15192436D02*
X20211644Y-15201960D01*
X20211644Y-15201960D02*
X20192596Y-15211484D01*
X20192596Y-15211484D02*
X20135453Y-15211484D01*
X20135453Y-15211484D02*
X20116406Y-15201960D01*
X20116406Y-15201960D02*
X20106882Y-15192436D01*
X20325929Y-15211484D02*
X20364025Y-15211484D01*
X20364025Y-15211484D02*
X20383072Y-15201960D01*
X20383072Y-15201960D02*
X20392596Y-15192436D01*
X20392596Y-15192436D02*
X20411644Y-15163865D01*
X20411644Y-15163865D02*
X20421168Y-15125769D01*
X20421168Y-15125769D02*
X20421168Y-15049579D01*
X20421168Y-15049579D02*
X20411644Y-15030531D01*
X20411644Y-15030531D02*
X20402120Y-15021008D01*
X20402120Y-15021008D02*
X20383072Y-15011484D01*
X20383072Y-15011484D02*
X20344977Y-15011484D01*
X20344977Y-15011484D02*
X20325929Y-15021008D01*
X20325929Y-15021008D02*
X20316406Y-15030531D01*
X20316406Y-15030531D02*
X20306882Y-15049579D01*
X20306882Y-15049579D02*
X20306882Y-15097198D01*
X20306882Y-15097198D02*
X20316406Y-15116246D01*
X20316406Y-15116246D02*
X20325929Y-15125769D01*
X20325929Y-15125769D02*
X20344977Y-15135293D01*
X20344977Y-15135293D02*
X20383072Y-15135293D01*
X20383072Y-15135293D02*
X20402120Y-15125769D01*
X20402120Y-15125769D02*
X20411644Y-15116246D01*
X20411644Y-15116246D02*
X20421168Y-15097198D01*
X20592596Y-15078150D02*
X20592596Y-15211484D01*
X20544977Y-15001960D02*
X20497358Y-15144817D01*
X20497358Y-15144817D02*
X20621168Y-15144817D01*
X20687834Y-15011484D02*
X20687834Y-15049579D01*
X20764025Y-15011484D02*
X20764025Y-15049579D01*
X21059263Y-15287674D02*
X21049739Y-15278150D01*
X21049739Y-15278150D02*
X21030691Y-15249579D01*
X21030691Y-15249579D02*
X21021168Y-15230531D01*
X21021168Y-15230531D02*
X21011644Y-15201960D01*
X21011644Y-15201960D02*
X21002120Y-15154341D01*
X21002120Y-15154341D02*
X21002120Y-15116246D01*
X21002120Y-15116246D02*
X21011644Y-15068627D01*
X21011644Y-15068627D02*
X21021168Y-15040055D01*
X21021168Y-15040055D02*
X21030691Y-15021008D01*
X21030691Y-15021008D02*
X21049739Y-14992436D01*
X21049739Y-14992436D02*
X21059263Y-14982912D01*
X21221168Y-15011484D02*
X21183072Y-15011484D01*
X21183072Y-15011484D02*
X21164025Y-15021008D01*
X21164025Y-15021008D02*
X21154501Y-15030531D01*
X21154501Y-15030531D02*
X21135453Y-15059103D01*
X21135453Y-15059103D02*
X21125930Y-15097198D01*
X21125930Y-15097198D02*
X21125930Y-15173388D01*
X21125930Y-15173388D02*
X21135453Y-15192436D01*
X21135453Y-15192436D02*
X21144977Y-15201960D01*
X21144977Y-15201960D02*
X21164025Y-15211484D01*
X21164025Y-15211484D02*
X21202120Y-15211484D01*
X21202120Y-15211484D02*
X21221168Y-15201960D01*
X21221168Y-15201960D02*
X21230691Y-15192436D01*
X21230691Y-15192436D02*
X21240215Y-15173388D01*
X21240215Y-15173388D02*
X21240215Y-15125769D01*
X21240215Y-15125769D02*
X21230691Y-15106722D01*
X21230691Y-15106722D02*
X21221168Y-15097198D01*
X21221168Y-15097198D02*
X21202120Y-15087674D01*
X21202120Y-15087674D02*
X21164025Y-15087674D01*
X21164025Y-15087674D02*
X21144977Y-15097198D01*
X21144977Y-15097198D02*
X21135453Y-15106722D01*
X21135453Y-15106722D02*
X21125930Y-15125769D01*
X21364025Y-15011484D02*
X21383072Y-15011484D01*
X21383072Y-15011484D02*
X21402120Y-15021008D01*
X21402120Y-15021008D02*
X21411644Y-15030531D01*
X21411644Y-15030531D02*
X21421168Y-15049579D01*
X21421168Y-15049579D02*
X21430691Y-15087674D01*
X21430691Y-15087674D02*
X21430691Y-15135293D01*
X21430691Y-15135293D02*
X21421168Y-15173388D01*
X21421168Y-15173388D02*
X21411644Y-15192436D01*
X21411644Y-15192436D02*
X21402120Y-15201960D01*
X21402120Y-15201960D02*
X21383072Y-15211484D01*
X21383072Y-15211484D02*
X21364025Y-15211484D01*
X21364025Y-15211484D02*
X21344977Y-15201960D01*
X21344977Y-15201960D02*
X21335453Y-15192436D01*
X21335453Y-15192436D02*
X21325930Y-15173388D01*
X21325930Y-15173388D02*
X21316406Y-15135293D01*
X21316406Y-15135293D02*
X21316406Y-15087674D01*
X21316406Y-15087674D02*
X21325930Y-15049579D01*
X21325930Y-15049579D02*
X21335453Y-15030531D01*
X21335453Y-15030531D02*
X21344977Y-15021008D01*
X21344977Y-15021008D02*
X21364025Y-15011484D01*
X21668787Y-15211484D02*
X21668787Y-15011484D01*
X21754501Y-15211484D02*
X21754501Y-15106722D01*
X21754501Y-15106722D02*
X21744977Y-15087674D01*
X21744977Y-15087674D02*
X21725930Y-15078150D01*
X21725930Y-15078150D02*
X21697358Y-15078150D01*
X21697358Y-15078150D02*
X21678311Y-15087674D01*
X21678311Y-15087674D02*
X21668787Y-15097198D01*
X21878311Y-15211484D02*
X21859263Y-15201960D01*
X21859263Y-15201960D02*
X21849739Y-15192436D01*
X21849739Y-15192436D02*
X21840215Y-15173388D01*
X21840215Y-15173388D02*
X21840215Y-15116246D01*
X21840215Y-15116246D02*
X21849739Y-15097198D01*
X21849739Y-15097198D02*
X21859263Y-15087674D01*
X21859263Y-15087674D02*
X21878311Y-15078150D01*
X21878311Y-15078150D02*
X21906882Y-15078150D01*
X21906882Y-15078150D02*
X21925930Y-15087674D01*
X21925930Y-15087674D02*
X21935453Y-15097198D01*
X21935453Y-15097198D02*
X21944977Y-15116246D01*
X21944977Y-15116246D02*
X21944977Y-15173388D01*
X21944977Y-15173388D02*
X21935453Y-15192436D01*
X21935453Y-15192436D02*
X21925930Y-15201960D01*
X21925930Y-15201960D02*
X21906882Y-15211484D01*
X21906882Y-15211484D02*
X21878311Y-15211484D01*
X22059263Y-15211484D02*
X22040215Y-15201960D01*
X22040215Y-15201960D02*
X22030692Y-15182912D01*
X22030692Y-15182912D02*
X22030692Y-15011484D01*
X22211644Y-15201960D02*
X22192596Y-15211484D01*
X22192596Y-15211484D02*
X22154501Y-15211484D01*
X22154501Y-15211484D02*
X22135453Y-15201960D01*
X22135453Y-15201960D02*
X22125930Y-15182912D01*
X22125930Y-15182912D02*
X22125930Y-15106722D01*
X22125930Y-15106722D02*
X22135453Y-15087674D01*
X22135453Y-15087674D02*
X22154501Y-15078150D01*
X22154501Y-15078150D02*
X22192596Y-15078150D01*
X22192596Y-15078150D02*
X22211644Y-15087674D01*
X22211644Y-15087674D02*
X22221168Y-15106722D01*
X22221168Y-15106722D02*
X22221168Y-15125769D01*
X22221168Y-15125769D02*
X22125930Y-15144817D01*
X22297358Y-15201960D02*
X22316406Y-15211484D01*
X22316406Y-15211484D02*
X22354501Y-15211484D01*
X22354501Y-15211484D02*
X22373549Y-15201960D01*
X22373549Y-15201960D02*
X22383072Y-15182912D01*
X22383072Y-15182912D02*
X22383072Y-15173388D01*
X22383072Y-15173388D02*
X22373549Y-15154341D01*
X22373549Y-15154341D02*
X22354501Y-15144817D01*
X22354501Y-15144817D02*
X22325930Y-15144817D01*
X22325930Y-15144817D02*
X22306882Y-15135293D01*
X22306882Y-15135293D02*
X22297358Y-15116246D01*
X22297358Y-15116246D02*
X22297358Y-15106722D01*
X22297358Y-15106722D02*
X22306882Y-15087674D01*
X22306882Y-15087674D02*
X22325930Y-15078150D01*
X22325930Y-15078150D02*
X22354501Y-15078150D01*
X22354501Y-15078150D02*
X22373549Y-15087674D01*
X22449739Y-15287674D02*
X22459263Y-15278150D01*
X22459263Y-15278150D02*
X22478311Y-15249579D01*
X22478311Y-15249579D02*
X22487834Y-15230531D01*
X22487834Y-15230531D02*
X22497358Y-15201960D01*
X22497358Y-15201960D02*
X22506882Y-15154341D01*
X22506882Y-15154341D02*
X22506882Y-15116246D01*
X22506882Y-15116246D02*
X22497358Y-15068627D01*
X22497358Y-15068627D02*
X22487834Y-15040055D01*
X22487834Y-15040055D02*
X22478311Y-15021008D01*
X22478311Y-15021008D02*
X22459263Y-14992436D01*
X22459263Y-14992436D02*
X22449739Y-14982912D01*
X17384200Y-15484000D02*
X17484200Y-15384000D01*
X17384200Y-15284000D01*
X17284200Y-15384000D01*
X17384200Y-15484000D01*
X17735453Y-15294531D02*
X17744977Y-15285008D01*
X17744977Y-15285008D02*
X17764024Y-15275484D01*
X17764024Y-15275484D02*
X17811644Y-15275484D01*
X17811644Y-15275484D02*
X17830691Y-15285008D01*
X17830691Y-15285008D02*
X17840215Y-15294531D01*
X17840215Y-15294531D02*
X17849739Y-15313579D01*
X17849739Y-15313579D02*
X17849739Y-15332627D01*
X17849739Y-15332627D02*
X17840215Y-15361198D01*
X17840215Y-15361198D02*
X17725929Y-15475484D01*
X17725929Y-15475484D02*
X17849739Y-15475484D01*
X17935453Y-15456436D02*
X17944977Y-15465960D01*
X17944977Y-15465960D02*
X17935453Y-15475484D01*
X17935453Y-15475484D02*
X17925929Y-15465960D01*
X17925929Y-15465960D02*
X17935453Y-15456436D01*
X17935453Y-15456436D02*
X17935453Y-15475484D01*
X18068786Y-15275484D02*
X18087834Y-15275484D01*
X18087834Y-15275484D02*
X18106882Y-15285008D01*
X18106882Y-15285008D02*
X18116405Y-15294531D01*
X18116405Y-15294531D02*
X18125929Y-15313579D01*
X18125929Y-15313579D02*
X18135453Y-15351674D01*
X18135453Y-15351674D02*
X18135453Y-15399293D01*
X18135453Y-15399293D02*
X18125929Y-15437388D01*
X18125929Y-15437388D02*
X18116405Y-15456436D01*
X18116405Y-15456436D02*
X18106882Y-15465960D01*
X18106882Y-15465960D02*
X18087834Y-15475484D01*
X18087834Y-15475484D02*
X18068786Y-15475484D01*
X18068786Y-15475484D02*
X18049739Y-15465960D01*
X18049739Y-15465960D02*
X18040215Y-15456436D01*
X18040215Y-15456436D02*
X18030691Y-15437388D01*
X18030691Y-15437388D02*
X18021167Y-15399293D01*
X18021167Y-15399293D02*
X18021167Y-15351674D01*
X18021167Y-15351674D02*
X18030691Y-15313579D01*
X18030691Y-15313579D02*
X18040215Y-15294531D01*
X18040215Y-15294531D02*
X18049739Y-15285008D01*
X18049739Y-15285008D02*
X18068786Y-15275484D01*
X18325929Y-15475484D02*
X18211644Y-15475484D01*
X18268786Y-15475484D02*
X18268786Y-15275484D01*
X18268786Y-15275484D02*
X18249739Y-15304055D01*
X18249739Y-15304055D02*
X18230691Y-15323103D01*
X18230691Y-15323103D02*
X18211644Y-15332627D01*
X18449739Y-15275484D02*
X18468786Y-15275484D01*
X18468786Y-15275484D02*
X18487834Y-15285008D01*
X18487834Y-15285008D02*
X18497358Y-15294531D01*
X18497358Y-15294531D02*
X18506882Y-15313579D01*
X18506882Y-15313579D02*
X18516405Y-15351674D01*
X18516405Y-15351674D02*
X18516405Y-15399293D01*
X18516405Y-15399293D02*
X18506882Y-15437388D01*
X18506882Y-15437388D02*
X18497358Y-15456436D01*
X18497358Y-15456436D02*
X18487834Y-15465960D01*
X18487834Y-15465960D02*
X18468786Y-15475484D01*
X18468786Y-15475484D02*
X18449739Y-15475484D01*
X18449739Y-15475484D02*
X18430691Y-15465960D01*
X18430691Y-15465960D02*
X18421167Y-15456436D01*
X18421167Y-15456436D02*
X18411644Y-15437388D01*
X18411644Y-15437388D02*
X18402120Y-15399293D01*
X18402120Y-15399293D02*
X18402120Y-15351674D01*
X18402120Y-15351674D02*
X18411644Y-15313579D01*
X18411644Y-15313579D02*
X18421167Y-15294531D01*
X18421167Y-15294531D02*
X18430691Y-15285008D01*
X18430691Y-15285008D02*
X18449739Y-15275484D01*
X18602120Y-15475484D02*
X18602120Y-15342150D01*
X18602120Y-15361198D02*
X18611644Y-15351674D01*
X18611644Y-15351674D02*
X18630691Y-15342150D01*
X18630691Y-15342150D02*
X18659263Y-15342150D01*
X18659263Y-15342150D02*
X18678310Y-15351674D01*
X18678310Y-15351674D02*
X18687834Y-15370722D01*
X18687834Y-15370722D02*
X18687834Y-15475484D01*
X18687834Y-15370722D02*
X18697358Y-15351674D01*
X18697358Y-15351674D02*
X18716405Y-15342150D01*
X18716405Y-15342150D02*
X18744977Y-15342150D01*
X18744977Y-15342150D02*
X18764025Y-15351674D01*
X18764025Y-15351674D02*
X18773548Y-15370722D01*
X18773548Y-15370722D02*
X18773548Y-15475484D01*
X18868786Y-15475484D02*
X18868786Y-15342150D01*
X18868786Y-15361198D02*
X18878310Y-15351674D01*
X18878310Y-15351674D02*
X18897358Y-15342150D01*
X18897358Y-15342150D02*
X18925929Y-15342150D01*
X18925929Y-15342150D02*
X18944977Y-15351674D01*
X18944977Y-15351674D02*
X18954501Y-15370722D01*
X18954501Y-15370722D02*
X18954501Y-15475484D01*
X18954501Y-15370722D02*
X18964025Y-15351674D01*
X18964025Y-15351674D02*
X18983072Y-15342150D01*
X18983072Y-15342150D02*
X19011644Y-15342150D01*
X19011644Y-15342150D02*
X19030691Y-15351674D01*
X19030691Y-15351674D02*
X19040215Y-15370722D01*
X19040215Y-15370722D02*
X19040215Y-15475484D01*
X19430691Y-15265960D02*
X19259263Y-15523103D01*
X19687834Y-15275484D02*
X19706882Y-15275484D01*
X19706882Y-15275484D02*
X19725929Y-15285008D01*
X19725929Y-15285008D02*
X19735453Y-15294531D01*
X19735453Y-15294531D02*
X19744977Y-15313579D01*
X19744977Y-15313579D02*
X19754501Y-15351674D01*
X19754501Y-15351674D02*
X19754501Y-15399293D01*
X19754501Y-15399293D02*
X19744977Y-15437388D01*
X19744977Y-15437388D02*
X19735453Y-15456436D01*
X19735453Y-15456436D02*
X19725929Y-15465960D01*
X19725929Y-15465960D02*
X19706882Y-15475484D01*
X19706882Y-15475484D02*
X19687834Y-15475484D01*
X19687834Y-15475484D02*
X19668787Y-15465960D01*
X19668787Y-15465960D02*
X19659263Y-15456436D01*
X19659263Y-15456436D02*
X19649739Y-15437388D01*
X19649739Y-15437388D02*
X19640215Y-15399293D01*
X19640215Y-15399293D02*
X19640215Y-15351674D01*
X19640215Y-15351674D02*
X19649739Y-15313579D01*
X19649739Y-15313579D02*
X19659263Y-15294531D01*
X19659263Y-15294531D02*
X19668787Y-15285008D01*
X19668787Y-15285008D02*
X19687834Y-15275484D01*
X19840215Y-15456436D02*
X19849739Y-15465960D01*
X19849739Y-15465960D02*
X19840215Y-15475484D01*
X19840215Y-15475484D02*
X19830691Y-15465960D01*
X19830691Y-15465960D02*
X19840215Y-15456436D01*
X19840215Y-15456436D02*
X19840215Y-15475484D01*
X19973548Y-15275484D02*
X19992596Y-15275484D01*
X19992596Y-15275484D02*
X20011644Y-15285008D01*
X20011644Y-15285008D02*
X20021168Y-15294531D01*
X20021168Y-15294531D02*
X20030691Y-15313579D01*
X20030691Y-15313579D02*
X20040215Y-15351674D01*
X20040215Y-15351674D02*
X20040215Y-15399293D01*
X20040215Y-15399293D02*
X20030691Y-15437388D01*
X20030691Y-15437388D02*
X20021168Y-15456436D01*
X20021168Y-15456436D02*
X20011644Y-15465960D01*
X20011644Y-15465960D02*
X19992596Y-15475484D01*
X19992596Y-15475484D02*
X19973548Y-15475484D01*
X19973548Y-15475484D02*
X19954501Y-15465960D01*
X19954501Y-15465960D02*
X19944977Y-15456436D01*
X19944977Y-15456436D02*
X19935453Y-15437388D01*
X19935453Y-15437388D02*
X19925929Y-15399293D01*
X19925929Y-15399293D02*
X19925929Y-15351674D01*
X19925929Y-15351674D02*
X19935453Y-15313579D01*
X19935453Y-15313579D02*
X19944977Y-15294531D01*
X19944977Y-15294531D02*
X19954501Y-15285008D01*
X19954501Y-15285008D02*
X19973548Y-15275484D01*
X20106882Y-15275484D02*
X20240215Y-15275484D01*
X20240215Y-15275484D02*
X20154501Y-15475484D01*
X20325929Y-15475484D02*
X20364025Y-15475484D01*
X20364025Y-15475484D02*
X20383072Y-15465960D01*
X20383072Y-15465960D02*
X20392596Y-15456436D01*
X20392596Y-15456436D02*
X20411644Y-15427865D01*
X20411644Y-15427865D02*
X20421168Y-15389769D01*
X20421168Y-15389769D02*
X20421168Y-15313579D01*
X20421168Y-15313579D02*
X20411644Y-15294531D01*
X20411644Y-15294531D02*
X20402120Y-15285008D01*
X20402120Y-15285008D02*
X20383072Y-15275484D01*
X20383072Y-15275484D02*
X20344977Y-15275484D01*
X20344977Y-15275484D02*
X20325929Y-15285008D01*
X20325929Y-15285008D02*
X20316406Y-15294531D01*
X20316406Y-15294531D02*
X20306882Y-15313579D01*
X20306882Y-15313579D02*
X20306882Y-15361198D01*
X20306882Y-15361198D02*
X20316406Y-15380246D01*
X20316406Y-15380246D02*
X20325929Y-15389769D01*
X20325929Y-15389769D02*
X20344977Y-15399293D01*
X20344977Y-15399293D02*
X20383072Y-15399293D01*
X20383072Y-15399293D02*
X20402120Y-15389769D01*
X20402120Y-15389769D02*
X20411644Y-15380246D01*
X20411644Y-15380246D02*
X20421168Y-15361198D01*
X20611644Y-15475484D02*
X20497358Y-15475484D01*
X20554501Y-15475484D02*
X20554501Y-15275484D01*
X20554501Y-15275484D02*
X20535453Y-15304055D01*
X20535453Y-15304055D02*
X20516406Y-15323103D01*
X20516406Y-15323103D02*
X20497358Y-15332627D01*
X20687834Y-15275484D02*
X20687834Y-15313579D01*
X20764025Y-15275484D02*
X20764025Y-15313579D01*
X21059263Y-15551674D02*
X21049739Y-15542150D01*
X21049739Y-15542150D02*
X21030691Y-15513579D01*
X21030691Y-15513579D02*
X21021168Y-15494531D01*
X21021168Y-15494531D02*
X21011644Y-15465960D01*
X21011644Y-15465960D02*
X21002120Y-15418341D01*
X21002120Y-15418341D02*
X21002120Y-15380246D01*
X21002120Y-15380246D02*
X21011644Y-15332627D01*
X21011644Y-15332627D02*
X21021168Y-15304055D01*
X21021168Y-15304055D02*
X21030691Y-15285008D01*
X21030691Y-15285008D02*
X21049739Y-15256436D01*
X21049739Y-15256436D02*
X21059263Y-15246912D01*
X21164025Y-15361198D02*
X21144977Y-15351674D01*
X21144977Y-15351674D02*
X21135453Y-15342150D01*
X21135453Y-15342150D02*
X21125930Y-15323103D01*
X21125930Y-15323103D02*
X21125930Y-15313579D01*
X21125930Y-15313579D02*
X21135453Y-15294531D01*
X21135453Y-15294531D02*
X21144977Y-15285008D01*
X21144977Y-15285008D02*
X21164025Y-15275484D01*
X21164025Y-15275484D02*
X21202120Y-15275484D01*
X21202120Y-15275484D02*
X21221168Y-15285008D01*
X21221168Y-15285008D02*
X21230691Y-15294531D01*
X21230691Y-15294531D02*
X21240215Y-15313579D01*
X21240215Y-15313579D02*
X21240215Y-15323103D01*
X21240215Y-15323103D02*
X21230691Y-15342150D01*
X21230691Y-15342150D02*
X21221168Y-15351674D01*
X21221168Y-15351674D02*
X21202120Y-15361198D01*
X21202120Y-15361198D02*
X21164025Y-15361198D01*
X21164025Y-15361198D02*
X21144977Y-15370722D01*
X21144977Y-15370722D02*
X21135453Y-15380246D01*
X21135453Y-15380246D02*
X21125930Y-15399293D01*
X21125930Y-15399293D02*
X21125930Y-15437388D01*
X21125930Y-15437388D02*
X21135453Y-15456436D01*
X21135453Y-15456436D02*
X21144977Y-15465960D01*
X21144977Y-15465960D02*
X21164025Y-15475484D01*
X21164025Y-15475484D02*
X21202120Y-15475484D01*
X21202120Y-15475484D02*
X21221168Y-15465960D01*
X21221168Y-15465960D02*
X21230691Y-15456436D01*
X21230691Y-15456436D02*
X21240215Y-15437388D01*
X21240215Y-15437388D02*
X21240215Y-15399293D01*
X21240215Y-15399293D02*
X21230691Y-15380246D01*
X21230691Y-15380246D02*
X21221168Y-15370722D01*
X21221168Y-15370722D02*
X21202120Y-15361198D01*
X21478311Y-15475484D02*
X21478311Y-15275484D01*
X21564025Y-15475484D02*
X21564025Y-15370722D01*
X21564025Y-15370722D02*
X21554501Y-15351674D01*
X21554501Y-15351674D02*
X21535453Y-15342150D01*
X21535453Y-15342150D02*
X21506882Y-15342150D01*
X21506882Y-15342150D02*
X21487834Y-15351674D01*
X21487834Y-15351674D02*
X21478311Y-15361198D01*
X21687834Y-15475484D02*
X21668787Y-15465960D01*
X21668787Y-15465960D02*
X21659263Y-15456436D01*
X21659263Y-15456436D02*
X21649739Y-15437388D01*
X21649739Y-15437388D02*
X21649739Y-15380246D01*
X21649739Y-15380246D02*
X21659263Y-15361198D01*
X21659263Y-15361198D02*
X21668787Y-15351674D01*
X21668787Y-15351674D02*
X21687834Y-15342150D01*
X21687834Y-15342150D02*
X21716406Y-15342150D01*
X21716406Y-15342150D02*
X21735453Y-15351674D01*
X21735453Y-15351674D02*
X21744977Y-15361198D01*
X21744977Y-15361198D02*
X21754501Y-15380246D01*
X21754501Y-15380246D02*
X21754501Y-15437388D01*
X21754501Y-15437388D02*
X21744977Y-15456436D01*
X21744977Y-15456436D02*
X21735453Y-15465960D01*
X21735453Y-15465960D02*
X21716406Y-15475484D01*
X21716406Y-15475484D02*
X21687834Y-15475484D01*
X21868787Y-15475484D02*
X21849739Y-15465960D01*
X21849739Y-15465960D02*
X21840215Y-15446912D01*
X21840215Y-15446912D02*
X21840215Y-15275484D01*
X22021168Y-15465960D02*
X22002120Y-15475484D01*
X22002120Y-15475484D02*
X21964025Y-15475484D01*
X21964025Y-15475484D02*
X21944977Y-15465960D01*
X21944977Y-15465960D02*
X21935453Y-15446912D01*
X21935453Y-15446912D02*
X21935453Y-15370722D01*
X21935453Y-15370722D02*
X21944977Y-15351674D01*
X21944977Y-15351674D02*
X21964025Y-15342150D01*
X21964025Y-15342150D02*
X22002120Y-15342150D01*
X22002120Y-15342150D02*
X22021168Y-15351674D01*
X22021168Y-15351674D02*
X22030692Y-15370722D01*
X22030692Y-15370722D02*
X22030692Y-15389769D01*
X22030692Y-15389769D02*
X21935453Y-15408817D01*
X22106882Y-15465960D02*
X22125930Y-15475484D01*
X22125930Y-15475484D02*
X22164025Y-15475484D01*
X22164025Y-15475484D02*
X22183073Y-15465960D01*
X22183073Y-15465960D02*
X22192596Y-15446912D01*
X22192596Y-15446912D02*
X22192596Y-15437388D01*
X22192596Y-15437388D02*
X22183073Y-15418341D01*
X22183073Y-15418341D02*
X22164025Y-15408817D01*
X22164025Y-15408817D02*
X22135453Y-15408817D01*
X22135453Y-15408817D02*
X22116406Y-15399293D01*
X22116406Y-15399293D02*
X22106882Y-15380246D01*
X22106882Y-15380246D02*
X22106882Y-15370722D01*
X22106882Y-15370722D02*
X22116406Y-15351674D01*
X22116406Y-15351674D02*
X22135453Y-15342150D01*
X22135453Y-15342150D02*
X22164025Y-15342150D01*
X22164025Y-15342150D02*
X22183073Y-15351674D01*
X22259263Y-15551674D02*
X22268787Y-15542150D01*
X22268787Y-15542150D02*
X22287834Y-15513579D01*
X22287834Y-15513579D02*
X22297358Y-15494531D01*
X22297358Y-15494531D02*
X22306882Y-15465960D01*
X22306882Y-15465960D02*
X22316406Y-15418341D01*
X22316406Y-15418341D02*
X22316406Y-15380246D01*
X22316406Y-15380246D02*
X22306882Y-15332627D01*
X22306882Y-15332627D02*
X22297358Y-15304055D01*
X22297358Y-15304055D02*
X22287834Y-15285008D01*
X22287834Y-15285008D02*
X22268787Y-15256436D01*
X22268787Y-15256436D02*
X22259263Y-15246912D01*
M02*
