G04 #@! TF.GenerationSoftware,KiCad,Pcbnew,7.0.7*
G04 #@! TF.CreationDate,2023-12-28T09:15:15+02:00*
G04 #@! TF.ProjectId,AD3 Front End Amplifier,41443320-4672-46f6-9e74-20456e642041,rev?*
G04 #@! TF.SameCoordinates,Original*
G04 #@! TF.FileFunction,Copper,L2,Inr*
G04 #@! TF.FilePolarity,Positive*
%FSLAX46Y46*%
G04 Gerber Fmt 4.6, Leading zero omitted, Abs format (unit mm)*
G04 Created by KiCad (PCBNEW 7.0.7) date 2023-12-28 09:15:15*
%MOMM*%
%LPD*%
G01*
G04 APERTURE LIST*
G04 #@! TA.AperFunction,ComponentPad*
%ADD10R,1.600000X1.600000*%
G04 #@! TD*
G04 #@! TA.AperFunction,ComponentPad*
%ADD11O,1.600000X1.600000*%
G04 #@! TD*
G04 #@! TA.AperFunction,ComponentPad*
%ADD12O,1.600000X2.500000*%
G04 #@! TD*
G04 #@! TA.AperFunction,ComponentPad*
%ADD13O,3.500000X7.000000*%
G04 #@! TD*
G04 #@! TA.AperFunction,ComponentPad*
%ADD14R,1.700000X1.700000*%
G04 #@! TD*
G04 #@! TA.AperFunction,ComponentPad*
%ADD15O,1.700000X1.700000*%
G04 #@! TD*
G04 #@! TA.AperFunction,ComponentPad*
%ADD16O,2.500000X1.600000*%
G04 #@! TD*
G04 #@! TA.AperFunction,ComponentPad*
%ADD17O,7.000000X3.500000*%
G04 #@! TD*
G04 #@! TA.AperFunction,ViaPad*
%ADD18C,0.450000*%
G04 #@! TD*
G04 APERTURE END LIST*
D10*
X197612000Y-98685500D03*
D11*
X197612000Y-106305500D03*
D12*
X241300000Y-76200000D03*
D13*
X236220000Y-71120000D03*
D12*
X238760000Y-76200000D03*
D13*
X246380000Y-71120000D03*
D10*
X197612000Y-113284000D03*
D11*
X197612000Y-120904000D03*
D14*
X180340000Y-131318000D03*
D15*
X180340000Y-128778000D03*
X180340000Y-126238000D03*
X180340000Y-123698000D03*
X180340000Y-121158000D03*
X180340000Y-118618000D03*
X180340000Y-116078000D03*
X180340000Y-113538000D03*
X180340000Y-110998000D03*
X180340000Y-108458000D03*
X180340000Y-105918000D03*
X180340000Y-103378000D03*
X180340000Y-100838000D03*
X180340000Y-98298000D03*
X180340000Y-95758000D03*
D14*
X229870000Y-66675000D03*
D15*
X227330000Y-66675000D03*
X224790000Y-66675000D03*
X222250000Y-66675000D03*
X219710000Y-66675000D03*
X217170000Y-66675000D03*
X214630000Y-66675000D03*
X212090000Y-66675000D03*
X209550000Y-66675000D03*
X207010000Y-66675000D03*
X204470000Y-66675000D03*
X201930000Y-66675000D03*
X199390000Y-66675000D03*
X196850000Y-66675000D03*
X194310000Y-66675000D03*
D10*
X197612000Y-87418500D03*
D11*
X197612000Y-95038500D03*
D16*
X237794800Y-119430400D03*
D17*
X242874800Y-114350400D03*
D16*
X237794800Y-116890400D03*
D17*
X242874800Y-124510400D03*
D12*
X183388000Y-76200000D03*
D13*
X178308000Y-71120000D03*
D12*
X180848000Y-76200000D03*
D13*
X188468000Y-71120000D03*
D14*
X177793200Y-131328000D03*
D15*
X177793200Y-128788000D03*
X177793200Y-126248000D03*
X177793200Y-123708000D03*
X177793200Y-121168000D03*
X177793200Y-118628000D03*
X177793200Y-116088000D03*
X177793200Y-113548000D03*
X177793200Y-111008000D03*
X177793200Y-108468000D03*
X177793200Y-105928000D03*
X177793200Y-103388000D03*
X177793200Y-100848000D03*
X177793200Y-98308000D03*
X177793200Y-95768000D03*
D14*
X229870000Y-69215500D03*
D15*
X227330000Y-69215500D03*
X224790000Y-69215500D03*
X222250000Y-69215500D03*
X219710000Y-69215500D03*
X217170000Y-69215500D03*
X214630000Y-69215500D03*
X212090000Y-69215500D03*
X209550000Y-69215500D03*
X207010000Y-69215500D03*
X204470000Y-69215500D03*
X201930000Y-69215500D03*
X199390000Y-69215500D03*
X196850000Y-69215500D03*
X194310000Y-69215500D03*
D16*
X237744000Y-93472000D03*
D17*
X242824000Y-88392000D03*
D16*
X237744000Y-90932000D03*
D17*
X242824000Y-98552000D03*
D10*
X197612000Y-124756500D03*
D11*
X197612000Y-132376500D03*
D18*
X202438000Y-101869200D03*
X237490000Y-100076000D03*
X190500000Y-134620000D03*
X231698800Y-122112600D03*
X202488800Y-115127600D03*
X218989400Y-120579200D03*
X224790000Y-107950000D03*
X214630000Y-85344000D03*
X222173800Y-131637600D03*
X221361000Y-83820000D03*
X242570000Y-91694000D03*
X188722000Y-131572000D03*
X200660000Y-109474000D03*
X203835000Y-109728000D03*
X234950000Y-77470000D03*
X231698800Y-114492600D03*
X240411000Y-83820000D03*
X241300000Y-82296000D03*
X222173800Y-131637600D03*
X236220000Y-76200000D03*
X229717600Y-87492800D03*
X200914000Y-132334000D03*
X210667600Y-87492800D03*
X200914000Y-92202000D03*
X232410000Y-76200000D03*
X234950000Y-122936000D03*
X191516000Y-118872000D03*
X206222600Y-87492800D03*
X240030000Y-135890000D03*
X245110000Y-107950000D03*
X201930000Y-78740000D03*
X245110000Y-105156000D03*
X240030000Y-94742000D03*
X218465400Y-123611200D03*
X185420000Y-134620000D03*
X228473000Y-105679200D03*
X236220000Y-129286000D03*
X247650000Y-117094000D03*
X179070000Y-88900000D03*
X217652600Y-87492800D03*
X244094000Y-80772000D03*
X202438000Y-90439200D03*
X202438000Y-90439200D03*
X213360000Y-72390000D03*
X209550000Y-76200000D03*
X194564000Y-115062000D03*
X234696000Y-83820000D03*
X231063800Y-131637600D03*
X219456000Y-83820000D03*
X231698800Y-123382600D03*
X202412600Y-87492800D03*
X233680000Y-114554000D03*
X236220000Y-134620000D03*
X205003400Y-113451200D03*
X220497400Y-124119200D03*
X224790000Y-76200000D03*
X243840000Y-103886000D03*
X231698800Y-128462600D03*
X193040000Y-87630000D03*
X228854000Y-102362000D03*
X214630000Y-135890000D03*
X200914000Y-130810000D03*
X231013000Y-105679200D03*
X185420000Y-121412000D03*
X235585000Y-85344000D03*
X229870000Y-110744000D03*
X196850000Y-135890000D03*
X220751400Y-126659200D03*
X218440000Y-82296000D03*
X179070000Y-135890000D03*
X239395000Y-82296000D03*
X233680000Y-85344000D03*
X231648000Y-102504200D03*
X187706000Y-116840000D03*
X246380000Y-78740000D03*
X234950000Y-125730000D03*
X204470000Y-135890000D03*
X191516000Y-116332000D03*
X246380000Y-103886000D03*
X246126000Y-83820000D03*
X242570000Y-110744000D03*
X233680000Y-106680000D03*
X202488800Y-115127600D03*
X214630000Y-78740000D03*
X231648000Y-105044200D03*
X236220000Y-109220000D03*
X233680000Y-109220000D03*
X222504000Y-107950000D03*
X215646000Y-83820000D03*
X245745000Y-77470000D03*
X240284000Y-80772000D03*
X242570000Y-94742000D03*
X186690000Y-133858000D03*
X202488800Y-129097600D03*
X246380000Y-76200000D03*
X247650000Y-77470000D03*
X239395000Y-85344000D03*
X220700600Y-100700800D03*
X219710000Y-77470000D03*
X218414600Y-97652800D03*
X231648000Y-96154200D03*
X246380000Y-118618000D03*
X219710000Y-135890000D03*
X204978000Y-105679200D03*
X205003400Y-113451200D03*
X224485200Y-94908100D03*
X233680000Y-129540000D03*
X237490000Y-125730000D03*
X222250000Y-78740000D03*
X191262000Y-130556000D03*
X246380000Y-93218000D03*
X234950000Y-100076000D03*
X231648000Y-105044200D03*
X202488800Y-127827600D03*
X210820000Y-85344000D03*
X206298800Y-131637600D03*
X246380000Y-121412000D03*
X223443800Y-131637600D03*
X217703400Y-113451200D03*
X233680000Y-96012000D03*
X219964000Y-110744000D03*
X216535000Y-78740000D03*
X211963000Y-105679200D03*
X230987600Y-87492800D03*
X186690000Y-120396000D03*
X204470000Y-78740000D03*
X189230000Y-135890000D03*
X228600000Y-76200000D03*
X228600000Y-134620000D03*
X217170000Y-135890000D03*
X206248000Y-105679200D03*
X245110000Y-128016000D03*
X243840000Y-96012000D03*
X217805000Y-77470000D03*
X223443800Y-131637600D03*
X238760000Y-106680000D03*
X195580000Y-85090000D03*
X191008000Y-133858000D03*
X243840000Y-118618000D03*
X236220000Y-96012000D03*
X222885000Y-76200000D03*
X217703400Y-113451200D03*
X224485200Y-94908100D03*
X242570000Y-120142000D03*
X202438000Y-89169200D03*
X215128450Y-120751200D03*
X231038400Y-113451200D03*
X243840000Y-109220000D03*
X231648000Y-103774200D03*
X242570000Y-128016000D03*
X211836000Y-83820000D03*
X237490000Y-105156000D03*
X229870000Y-107950000D03*
X236220000Y-121412000D03*
X240030000Y-110744000D03*
X227965000Y-78740000D03*
X209550000Y-135890000D03*
X202488800Y-130367600D03*
X180340000Y-83820000D03*
X222250000Y-85344000D03*
X210693000Y-105679200D03*
X247650000Y-107950000D03*
X246380000Y-101346000D03*
X215900000Y-109220000D03*
X234950000Y-102616000D03*
X247142000Y-82296000D03*
X240030000Y-91694000D03*
X176530000Y-85090000D03*
X241300000Y-129286000D03*
X229743000Y-105679200D03*
X230886000Y-83820000D03*
X203733400Y-113451200D03*
X243205000Y-85344000D03*
X247650000Y-135890000D03*
X222250000Y-135890000D03*
X241300000Y-109220000D03*
X237490000Y-128016000D03*
X224790000Y-135890000D03*
X203682600Y-87492800D03*
X236601000Y-83820000D03*
X187706000Y-111760000D03*
X227330000Y-77470000D03*
X211662900Y-124627200D03*
X224155000Y-78740000D03*
X222250000Y-82296000D03*
X186690000Y-135890000D03*
X195707000Y-109474000D03*
X234950000Y-116078000D03*
X220980000Y-109220000D03*
X238760000Y-121412000D03*
X237490000Y-133350000D03*
X233680000Y-124460000D03*
X202488800Y-123382600D03*
X231063800Y-131637600D03*
X202488800Y-123382600D03*
X231648000Y-97424200D03*
X241300000Y-106680000D03*
X186690000Y-129540000D03*
X191516000Y-112268000D03*
X183134000Y-127508000D03*
X220345000Y-78740000D03*
X237490000Y-135890000D03*
X179070000Y-82550000D03*
X233045000Y-77470000D03*
X228981000Y-83820000D03*
X243840000Y-121412000D03*
X183896000Y-126746000D03*
X217424000Y-110744000D03*
X238760000Y-103886000D03*
X223520000Y-77470000D03*
X202488800Y-129097600D03*
X231775000Y-78740000D03*
X213741000Y-83820000D03*
X196088000Y-127254000D03*
X209122900Y-127675200D03*
X222123000Y-105679200D03*
X229743000Y-105679200D03*
X191770000Y-135890000D03*
X203758800Y-131637600D03*
X200914000Y-120396000D03*
X233680000Y-103886000D03*
X234950000Y-133350000D03*
X210743800Y-131637600D03*
X238760000Y-129286000D03*
X233680000Y-91186000D03*
X227076000Y-83820000D03*
X233680000Y-117348000D03*
X215900000Y-77470000D03*
X234950000Y-107950000D03*
X208499050Y-94818200D03*
X241300000Y-134620000D03*
X243840000Y-101346000D03*
X224155000Y-85344000D03*
X233680000Y-82296000D03*
X231648000Y-88534200D03*
X224536000Y-120866500D03*
X203708000Y-105679200D03*
X212013800Y-131637600D03*
X218440000Y-85344000D03*
X245110000Y-133350000D03*
X229768400Y-113451200D03*
X234950000Y-113284000D03*
X209550000Y-78740000D03*
X234950000Y-94742000D03*
X246380000Y-134620000D03*
X231698800Y-115762600D03*
X202488800Y-116397600D03*
X194056000Y-130810000D03*
X201930000Y-135890000D03*
X184150000Y-133858000D03*
X186690000Y-128270000D03*
X211937600Y-87492800D03*
X234315000Y-76200000D03*
X237490000Y-110744000D03*
X205028800Y-131637600D03*
X245110000Y-120142000D03*
X231698800Y-115762600D03*
X208549850Y-120776600D03*
X207010000Y-78740000D03*
X186690000Y-113030000D03*
X231698800Y-117032600D03*
X215900000Y-72390000D03*
X234696000Y-86868000D03*
X215077650Y-94792800D03*
X191516000Y-117602000D03*
X192278000Y-129540000D03*
X231698800Y-114492600D03*
X231140000Y-106680000D03*
X231140000Y-77470000D03*
X242570000Y-105156000D03*
X185166000Y-131572000D03*
X191770000Y-115062000D03*
X230505000Y-76200000D03*
X214630000Y-82296000D03*
X213360000Y-74930000D03*
X212334450Y-121513200D03*
X200914000Y-105410000D03*
X240030000Y-105156000D03*
X236220000Y-132080000D03*
X218989400Y-120579200D03*
X202438000Y-103139200D03*
X202488800Y-117667600D03*
X243840000Y-93218000D03*
X187960000Y-127000000D03*
X202438000Y-97424200D03*
X241300000Y-121412000D03*
X210820000Y-77470000D03*
X177800000Y-81280000D03*
X245110000Y-117094000D03*
X220345000Y-82296000D03*
X243205000Y-82296000D03*
X223418400Y-113451200D03*
X241300000Y-96012000D03*
X220218000Y-128270000D03*
X204952600Y-87492800D03*
X206248000Y-105679200D03*
X217678000Y-105679200D03*
X212725000Y-82296000D03*
X231775000Y-82296000D03*
X242570000Y-130810000D03*
X226060000Y-109220000D03*
X210743800Y-131637600D03*
X204470000Y-86106000D03*
X205740000Y-82550000D03*
X213106000Y-109220000D03*
X241300000Y-132080000D03*
X247650000Y-130810000D03*
X193040000Y-131826000D03*
X200914000Y-121920000D03*
X193040000Y-134620000D03*
X223266000Y-83820000D03*
X183134000Y-125984000D03*
X211963000Y-105679200D03*
X182880000Y-134620000D03*
X202438000Y-104409200D03*
X217652600Y-87492800D03*
X229717600Y-87492800D03*
X216433400Y-113451200D03*
X233680000Y-112014000D03*
X211836000Y-110744000D03*
X202412600Y-87492800D03*
X237490000Y-102616000D03*
X200914000Y-94996000D03*
X231698800Y-129732600D03*
X231648000Y-102504200D03*
X224536000Y-120866500D03*
X234950000Y-110744000D03*
X180340000Y-134620000D03*
X236220000Y-106680000D03*
X231013000Y-105679200D03*
X237490000Y-97282000D03*
X237490000Y-85344000D03*
X200914000Y-98044000D03*
X222504000Y-110744000D03*
X202488800Y-127827600D03*
X211612100Y-98668800D03*
X226060000Y-78740000D03*
X193294000Y-128524000D03*
X226695000Y-76200000D03*
X177800000Y-83820000D03*
X242570000Y-107950000D03*
X231038400Y-113451200D03*
X215128450Y-120751200D03*
X237490000Y-82296000D03*
X231698800Y-129732600D03*
X200914000Y-123444000D03*
X222097600Y-87492800D03*
X186944000Y-131572000D03*
X199390000Y-135890000D03*
X232410000Y-107950000D03*
X246380000Y-132080000D03*
X233680000Y-101346000D03*
X207772000Y-86106000D03*
X202463400Y-113451200D03*
X202488800Y-117667600D03*
X247650000Y-133350000D03*
X229870000Y-135890000D03*
X215077650Y-94792800D03*
X232410000Y-110744000D03*
X210820000Y-82296000D03*
X179070000Y-85090000D03*
X236220000Y-103886000D03*
X228473000Y-105679200D03*
X212283650Y-95554800D03*
X240030000Y-128016000D03*
X231775000Y-85344000D03*
X231698800Y-117032600D03*
X243840000Y-106680000D03*
X242316000Y-83820000D03*
X202438000Y-101869200D03*
X202488800Y-116397600D03*
X231140000Y-109220000D03*
X176530000Y-92710000D03*
X238760000Y-132080000D03*
X234950000Y-105156000D03*
X176530000Y-87630000D03*
X234950000Y-97282000D03*
X186690000Y-115570000D03*
X184150000Y-135890000D03*
X233680000Y-78740000D03*
X202488800Y-122112600D03*
X217678000Y-105679200D03*
X245110000Y-130810000D03*
X214630000Y-73660000D03*
X209296000Y-110744000D03*
X240030000Y-102616000D03*
X236220000Y-124460000D03*
X226060000Y-82296000D03*
X227965000Y-82296000D03*
X234950000Y-135890000D03*
X221615000Y-77470000D03*
X186690000Y-118110000D03*
X216535000Y-85344000D03*
X228498400Y-113451200D03*
X210820000Y-74930000D03*
X200914000Y-86106000D03*
X227330000Y-107950000D03*
X206273400Y-113451200D03*
X228600000Y-109220000D03*
X206298800Y-131637600D03*
X233680000Y-88138000D03*
X237490000Y-107950000D03*
X211836000Y-109220000D03*
X231648000Y-89804200D03*
X238760000Y-101346000D03*
X205962500Y-109601000D03*
X220980000Y-76200000D03*
X200914000Y-124968000D03*
X247650000Y-120142000D03*
X222123000Y-105679200D03*
X237490000Y-130810000D03*
X238760000Y-126746000D03*
X200914000Y-102870000D03*
X202692000Y-86106000D03*
X200914000Y-87630000D03*
X196850000Y-83820000D03*
X202438000Y-103139200D03*
X238760000Y-109220000D03*
X209804000Y-83820000D03*
X202438000Y-105679200D03*
X216382600Y-87492800D03*
X241300000Y-93218000D03*
X231648000Y-91074200D03*
X231698800Y-128462600D03*
X217551000Y-83820000D03*
X241300000Y-85344000D03*
X181610000Y-135890000D03*
X247650000Y-91694000D03*
X234696000Y-89916000D03*
X187706000Y-119380000D03*
X217728800Y-131637600D03*
X191516000Y-109728000D03*
X242570000Y-117094000D03*
X240030000Y-133350000D03*
X242570000Y-133350000D03*
X231648000Y-97424200D03*
X243840000Y-132080000D03*
X245110000Y-110744000D03*
X203200000Y-82550000D03*
X228600000Y-106680000D03*
X213868000Y-110744000D03*
X224155000Y-82296000D03*
X212283650Y-95554800D03*
X183388000Y-130556000D03*
X222148400Y-113451200D03*
X202438000Y-97424200D03*
X222097600Y-87492800D03*
X216458800Y-131637600D03*
X233680000Y-134620000D03*
X211937600Y-87492800D03*
X205740000Y-77470000D03*
X219075000Y-76200000D03*
X241300000Y-103886000D03*
X210850100Y-102478800D03*
X243840000Y-129286000D03*
X210718400Y-113451200D03*
X220446600Y-98160800D03*
X247650000Y-94742000D03*
X218440000Y-78740000D03*
X233680000Y-121412000D03*
X235585000Y-82296000D03*
X200914000Y-96520000D03*
X236220000Y-127000000D03*
X240030000Y-107950000D03*
X209122900Y-127675200D03*
X214630000Y-71120000D03*
X222148400Y-113451200D03*
X234950000Y-130810000D03*
X212334450Y-121513200D03*
X202438000Y-96154200D03*
X185420000Y-116840000D03*
X228854000Y-128524000D03*
X176530000Y-80010000D03*
X216458800Y-131637600D03*
X228523800Y-131637600D03*
X223418400Y-113451200D03*
X221234000Y-102616000D03*
X232791000Y-83820000D03*
X191516000Y-108458000D03*
X226060000Y-85344000D03*
X245110000Y-82296000D03*
X187960000Y-134620000D03*
X238506000Y-83820000D03*
X228447600Y-87492800D03*
X220345000Y-85344000D03*
X241300000Y-118618000D03*
X229793800Y-131637600D03*
X179070000Y-80010000D03*
X176530000Y-82550000D03*
X229870000Y-78740000D03*
X210718400Y-113451200D03*
X232410000Y-135890000D03*
X226060000Y-134620000D03*
X209072100Y-101716800D03*
X202488800Y-131637600D03*
X223393000Y-105679200D03*
X230987600Y-87492800D03*
X237490000Y-122936000D03*
X203200000Y-77470000D03*
X198120000Y-82550000D03*
X229768400Y-113451200D03*
X203708000Y-105679200D03*
X203733400Y-113451200D03*
X236220000Y-101346000D03*
X203758800Y-131637600D03*
X247650000Y-110490000D03*
X218938600Y-94620800D03*
X231648000Y-103774200D03*
X208788000Y-85344000D03*
X209072100Y-101716800D03*
X206273400Y-113451200D03*
X218440000Y-109220000D03*
X231648000Y-96154200D03*
X231648000Y-88534200D03*
X212090000Y-73660000D03*
X194310000Y-86360000D03*
X190500000Y-90170000D03*
X223520000Y-109220000D03*
X200660000Y-82550000D03*
X212725000Y-85344000D03*
X189230000Y-133858000D03*
X185928000Y-130556000D03*
X217170000Y-76200000D03*
X183388000Y-131572000D03*
X216535000Y-82296000D03*
X211988400Y-113451200D03*
X231648000Y-89804200D03*
X190246000Y-131572000D03*
X223367600Y-87492800D03*
X208534000Y-108712000D03*
X245110000Y-102616000D03*
X228523800Y-131637600D03*
X207010000Y-135890000D03*
X211612100Y-98668800D03*
X210693000Y-105679200D03*
X236220000Y-98806000D03*
X229870000Y-85344000D03*
X231140000Y-134620000D03*
X245110000Y-135890000D03*
X202488800Y-122112600D03*
X223393000Y-105679200D03*
X225171000Y-83820000D03*
X210850100Y-102478800D03*
X197993000Y-109474000D03*
X200914000Y-104140000D03*
X231698800Y-123382600D03*
X229235000Y-77470000D03*
X210900900Y-128437200D03*
X204952600Y-87492800D03*
X200914000Y-89154000D03*
X238760000Y-96012000D03*
X191516000Y-113538000D03*
X234950000Y-128270000D03*
X241300000Y-101346000D03*
X240030000Y-130810000D03*
X212090000Y-135890000D03*
X205028800Y-131637600D03*
X208499050Y-94818200D03*
X217728800Y-131637600D03*
X231698800Y-131002600D03*
X185420000Y-114300000D03*
X200914000Y-129286000D03*
X244221000Y-83820000D03*
X208549850Y-120776600D03*
X212013800Y-131637600D03*
X191516000Y-110998000D03*
X204978000Y-105679200D03*
X233680000Y-132080000D03*
X216408000Y-105679200D03*
X218938600Y-94620800D03*
X185420000Y-119380000D03*
X246380000Y-109220000D03*
X187706000Y-114300000D03*
X227330000Y-135890000D03*
X229793800Y-131637600D03*
X206222600Y-87492800D03*
X231698800Y-122112600D03*
X202438000Y-104409200D03*
X202463400Y-113451200D03*
X202488800Y-130367600D03*
X177800000Y-134620000D03*
X225425000Y-77470000D03*
X231648000Y-91074200D03*
X242189000Y-80772000D03*
X191770000Y-119888000D03*
X192024000Y-132842000D03*
X202438000Y-89169200D03*
X202438000Y-96154200D03*
X180340000Y-81280000D03*
X211988400Y-113451200D03*
X247650000Y-128016000D03*
X233680000Y-98806000D03*
X242570000Y-135890000D03*
X206248000Y-86106000D03*
X210667600Y-87492800D03*
X191770000Y-88900000D03*
X185420000Y-129540000D03*
X179070000Y-91440000D03*
X212090000Y-76200000D03*
X200914000Y-90678000D03*
X194310000Y-135890000D03*
X202438000Y-91709200D03*
X238760000Y-134620000D03*
X202438000Y-105679200D03*
X227965000Y-85344000D03*
X210900900Y-128437200D03*
X196088000Y-129286000D03*
X242570000Y-102616000D03*
X216408000Y-105679200D03*
X229870000Y-82296000D03*
X246380000Y-129286000D03*
X176530000Y-90170000D03*
X228498400Y-113451200D03*
X247269000Y-85344000D03*
X184658000Y-125984000D03*
X199898000Y-129286000D03*
X245110000Y-91694000D03*
X231698800Y-131002600D03*
X203682600Y-87492800D03*
X216433400Y-113451200D03*
X246126000Y-80772000D03*
X184404000Y-130556000D03*
X228447600Y-87492800D03*
X243840000Y-77470000D03*
X223367600Y-87492800D03*
X217170000Y-71120000D03*
X246380000Y-106680000D03*
X243840000Y-134620000D03*
X202438000Y-91709200D03*
X187960000Y-128270000D03*
X224790000Y-110744000D03*
X194564000Y-119888000D03*
X219964000Y-107950000D03*
X211662900Y-124627200D03*
X245110000Y-94742000D03*
X216382600Y-87492800D03*
X202488800Y-131637600D03*
X245110000Y-85344000D03*
X208280000Y-77470000D03*
X246380000Y-96012000D03*
X233680000Y-126746000D03*
X227330000Y-110744000D03*
X206502000Y-112268000D03*
X213868000Y-112268000D03*
X217170000Y-96774000D03*
X217170000Y-122682000D03*
X222504000Y-127254000D03*
X222504000Y-101092000D03*
X192786000Y-112776000D03*
X195326000Y-132842000D03*
X213323450Y-123916000D03*
X210261200Y-96367600D03*
X200660000Y-107950000D03*
X203200000Y-110998000D03*
X213272650Y-97957600D03*
X201041000Y-110549500D03*
X210312000Y-122326000D03*
X207608450Y-126837000D03*
X215138000Y-119481200D03*
X207557650Y-100878600D03*
X215138000Y-93980000D03*
X193548000Y-106934000D03*
X194776500Y-132334000D03*
X192786000Y-107188000D03*
G04 #@! TA.AperFunction,Conductor*
G36*
X179793692Y-126007685D02*
G01*
X179839447Y-126060489D01*
X179849391Y-126129647D01*
X179845631Y-126146933D01*
X179840000Y-126166111D01*
X179840000Y-126309888D01*
X179845631Y-126329067D01*
X179845630Y-126398936D01*
X179807855Y-126457714D01*
X179744299Y-126486738D01*
X179726653Y-126488000D01*
X179161320Y-126488000D01*
X179148196Y-126495166D01*
X179121838Y-126498000D01*
X178406547Y-126498000D01*
X178339508Y-126478315D01*
X178293753Y-126425511D01*
X178283809Y-126356353D01*
X178287569Y-126339067D01*
X178293200Y-126319888D01*
X178293200Y-126176111D01*
X178287569Y-126156933D01*
X178287570Y-126087064D01*
X178325345Y-126028286D01*
X178388901Y-125999262D01*
X178406547Y-125998000D01*
X178971880Y-125998000D01*
X178985004Y-125990834D01*
X179011362Y-125988000D01*
X179726653Y-125988000D01*
X179793692Y-126007685D01*
G37*
G04 #@! TD.AperFunction*
G04 #@! TA.AperFunction,Conductor*
G36*
X179793692Y-118387685D02*
G01*
X179839447Y-118440489D01*
X179849391Y-118509647D01*
X179845631Y-118526933D01*
X179840000Y-118546111D01*
X179840000Y-118689888D01*
X179845631Y-118709067D01*
X179845630Y-118778936D01*
X179807855Y-118837714D01*
X179744299Y-118866738D01*
X179726653Y-118868000D01*
X179161320Y-118868000D01*
X179148196Y-118875166D01*
X179121838Y-118878000D01*
X178406547Y-118878000D01*
X178339508Y-118858315D01*
X178293753Y-118805511D01*
X178283809Y-118736353D01*
X178287569Y-118719067D01*
X178293200Y-118699888D01*
X178293200Y-118556111D01*
X178287569Y-118536933D01*
X178287570Y-118467064D01*
X178325345Y-118408286D01*
X178388901Y-118379262D01*
X178406547Y-118378000D01*
X178971880Y-118378000D01*
X178985004Y-118370834D01*
X179011362Y-118368000D01*
X179726653Y-118368000D01*
X179793692Y-118387685D01*
G37*
G04 #@! TD.AperFunction*
G04 #@! TA.AperFunction,Conductor*
G36*
X217347512Y-67174507D02*
G01*
X217400315Y-67220262D01*
X217420000Y-67287301D01*
X217420000Y-68603198D01*
X217400315Y-68670237D01*
X217347511Y-68715992D01*
X217278355Y-68725936D01*
X217205766Y-68715500D01*
X217205763Y-68715500D01*
X217134237Y-68715500D01*
X217134233Y-68715500D01*
X217061644Y-68725936D01*
X216992486Y-68715992D01*
X216939683Y-68670236D01*
X216919999Y-68603198D01*
X216920000Y-68065000D01*
X216920000Y-67287301D01*
X216939685Y-67220262D01*
X216992489Y-67174507D01*
X217061647Y-67164563D01*
X217134237Y-67175000D01*
X217134238Y-67175000D01*
X217205762Y-67175000D01*
X217205763Y-67175000D01*
X217278353Y-67164563D01*
X217347512Y-67174507D01*
G37*
G04 #@! TD.AperFunction*
G04 #@! TA.AperFunction,Conductor*
G36*
X224967510Y-67174507D02*
G01*
X225020314Y-67220261D01*
X225039999Y-67287301D01*
X225040000Y-67825500D01*
X225040000Y-68603198D01*
X225020315Y-68670237D01*
X224967511Y-68715992D01*
X224898355Y-68725936D01*
X224825766Y-68715500D01*
X224825763Y-68715500D01*
X224754237Y-68715500D01*
X224754233Y-68715500D01*
X224681645Y-68725936D01*
X224612487Y-68715992D01*
X224559684Y-68670236D01*
X224540000Y-68603198D01*
X224540000Y-67287301D01*
X224559685Y-67220262D01*
X224612489Y-67174507D01*
X224681647Y-67164563D01*
X224754237Y-67175000D01*
X224754238Y-67175000D01*
X224825762Y-67175000D01*
X224825763Y-67175000D01*
X224898352Y-67164563D01*
X224967510Y-67174507D01*
G37*
G04 #@! TD.AperFunction*
G04 #@! TA.AperFunction,Conductor*
G36*
X250205677Y-63011685D02*
G01*
X250226319Y-63028319D01*
X250407681Y-63209681D01*
X250441166Y-63271004D01*
X250444000Y-63297362D01*
X250444000Y-136600638D01*
X250424315Y-136667677D01*
X250407681Y-136688319D01*
X250302819Y-136793181D01*
X250241496Y-136826666D01*
X250215138Y-136829500D01*
X175384000Y-136829500D01*
X175316961Y-136809815D01*
X175271206Y-136757011D01*
X175260000Y-136705500D01*
X175260000Y-128788000D01*
X176437541Y-128788000D01*
X176458136Y-129023403D01*
X176458138Y-129023413D01*
X176519294Y-129251655D01*
X176519296Y-129251659D01*
X176519297Y-129251663D01*
X176609307Y-129444690D01*
X176619165Y-129465830D01*
X176619167Y-129465834D01*
X176727481Y-129620521D01*
X176754701Y-129659396D01*
X176754706Y-129659402D01*
X176876630Y-129781326D01*
X176910115Y-129842649D01*
X176905131Y-129912341D01*
X176863259Y-129968274D01*
X176832283Y-129985189D01*
X176700869Y-130034203D01*
X176700864Y-130034206D01*
X176585655Y-130120452D01*
X176585652Y-130120455D01*
X176499406Y-130235664D01*
X176499402Y-130235671D01*
X176449108Y-130370517D01*
X176442701Y-130430116D01*
X176442700Y-130430135D01*
X176442700Y-132225870D01*
X176442701Y-132225876D01*
X176449108Y-132285483D01*
X176499402Y-132420328D01*
X176499406Y-132420335D01*
X176585652Y-132535544D01*
X176585655Y-132535547D01*
X176700864Y-132621793D01*
X176700871Y-132621797D01*
X176835717Y-132672091D01*
X176835716Y-132672091D01*
X176842644Y-132672835D01*
X176895327Y-132678500D01*
X178691072Y-132678499D01*
X178750683Y-132672091D01*
X178885531Y-132621796D01*
X178998970Y-132536875D01*
X179064430Y-132512459D01*
X179132703Y-132527310D01*
X179147589Y-132536876D01*
X179247669Y-132611796D01*
X179247671Y-132611797D01*
X179382517Y-132662091D01*
X179382516Y-132662091D01*
X179389444Y-132662835D01*
X179442127Y-132668500D01*
X181237872Y-132668499D01*
X181297483Y-132662091D01*
X181432331Y-132611796D01*
X181547546Y-132525546D01*
X181633796Y-132410331D01*
X181662264Y-132334003D01*
X194046409Y-132334003D01*
X194064712Y-132496455D01*
X194118710Y-132650774D01*
X194136788Y-132679544D01*
X194205692Y-132789204D01*
X194321296Y-132904808D01*
X194459725Y-132991789D01*
X194574352Y-133031899D01*
X194631127Y-133072620D01*
X194650438Y-133107984D01*
X194668211Y-133158776D01*
X194668212Y-133158777D01*
X194755192Y-133297204D01*
X194870796Y-133412808D01*
X195009225Y-133499789D01*
X195163539Y-133553786D01*
X195163542Y-133553786D01*
X195163544Y-133553787D01*
X195325996Y-133572091D01*
X195326000Y-133572091D01*
X195326004Y-133572091D01*
X195488455Y-133553787D01*
X195488456Y-133553786D01*
X195488461Y-133553786D01*
X195642775Y-133499789D01*
X195781204Y-133412808D01*
X195896808Y-133297204D01*
X195983789Y-133158775D01*
X196037786Y-133004461D01*
X196039214Y-132991789D01*
X196056091Y-132842003D01*
X196056091Y-132841996D01*
X196037787Y-132679544D01*
X196037786Y-132679542D01*
X196037786Y-132679539D01*
X195983789Y-132525225D01*
X195896808Y-132386796D01*
X195886513Y-132376501D01*
X196306532Y-132376501D01*
X196326364Y-132603186D01*
X196326366Y-132603197D01*
X196385258Y-132822988D01*
X196385261Y-132822997D01*
X196481431Y-133029232D01*
X196481432Y-133029234D01*
X196611954Y-133215641D01*
X196772858Y-133376545D01*
X196772861Y-133376547D01*
X196959266Y-133507068D01*
X197165504Y-133603239D01*
X197385308Y-133662135D01*
X197547230Y-133676301D01*
X197611998Y-133681968D01*
X197612000Y-133681968D01*
X197612002Y-133681968D01*
X197668673Y-133677009D01*
X197838692Y-133662135D01*
X198058496Y-133603239D01*
X198264734Y-133507068D01*
X198451139Y-133376547D01*
X198612047Y-133215639D01*
X198742568Y-133029234D01*
X198838739Y-132822996D01*
X198897635Y-132603192D01*
X198917468Y-132376500D01*
X198897635Y-132149808D01*
X198838739Y-131930004D01*
X198742568Y-131723766D01*
X198612047Y-131537361D01*
X198612045Y-131537358D01*
X198451141Y-131376454D01*
X198264734Y-131245932D01*
X198264732Y-131245931D01*
X198058497Y-131149761D01*
X198058488Y-131149758D01*
X197838697Y-131090866D01*
X197838693Y-131090865D01*
X197838692Y-131090865D01*
X197838691Y-131090864D01*
X197838686Y-131090864D01*
X197612002Y-131071032D01*
X197611998Y-131071032D01*
X197385313Y-131090864D01*
X197385302Y-131090866D01*
X197165511Y-131149758D01*
X197165502Y-131149761D01*
X196959267Y-131245931D01*
X196959265Y-131245932D01*
X196772858Y-131376454D01*
X196611954Y-131537358D01*
X196481432Y-131723765D01*
X196481431Y-131723767D01*
X196385261Y-131930002D01*
X196385258Y-131930011D01*
X196326366Y-132149802D01*
X196326364Y-132149813D01*
X196306532Y-132376498D01*
X196306532Y-132376501D01*
X195886513Y-132376501D01*
X195781204Y-132271192D01*
X195642775Y-132184211D01*
X195528146Y-132144100D01*
X195471371Y-132103379D01*
X195452061Y-132068014D01*
X195434289Y-132017225D01*
X195434287Y-132017222D01*
X195347308Y-131878796D01*
X195231704Y-131763192D01*
X195168957Y-131723765D01*
X195093274Y-131676210D01*
X194938955Y-131622212D01*
X194776504Y-131603909D01*
X194776496Y-131603909D01*
X194614044Y-131622212D01*
X194459725Y-131676210D01*
X194321295Y-131763192D01*
X194205692Y-131878795D01*
X194118710Y-132017225D01*
X194064712Y-132171544D01*
X194046409Y-132333996D01*
X194046409Y-132334003D01*
X181662264Y-132334003D01*
X181684091Y-132275483D01*
X181690500Y-132215873D01*
X181690499Y-130420128D01*
X181684091Y-130360517D01*
X181633796Y-130225669D01*
X181633795Y-130225668D01*
X181633793Y-130225664D01*
X181547547Y-130110455D01*
X181547544Y-130110452D01*
X181432335Y-130024206D01*
X181432328Y-130024202D01*
X181300917Y-129975189D01*
X181244983Y-129933318D01*
X181220566Y-129867853D01*
X181235418Y-129799580D01*
X181256563Y-129771332D01*
X181378495Y-129649401D01*
X181514035Y-129455830D01*
X181613903Y-129241663D01*
X181675063Y-129013408D01*
X181695659Y-128778000D01*
X181675063Y-128542592D01*
X181616584Y-128324344D01*
X181613905Y-128314344D01*
X181613904Y-128314343D01*
X181613903Y-128314337D01*
X181514035Y-128100171D01*
X181432756Y-127984091D01*
X181378494Y-127906597D01*
X181211402Y-127739506D01*
X181211401Y-127739505D01*
X181039686Y-127619269D01*
X181025405Y-127609269D01*
X180981781Y-127554692D01*
X180974588Y-127485193D01*
X181006110Y-127422839D01*
X181025405Y-127406119D01*
X181211082Y-127276105D01*
X181378105Y-127109082D01*
X181513600Y-126915578D01*
X181550240Y-126837003D01*
X206878359Y-126837003D01*
X206896662Y-126999455D01*
X206950660Y-127153774D01*
X206950661Y-127153775D01*
X207037642Y-127292204D01*
X207153246Y-127407808D01*
X207291675Y-127494789D01*
X207445989Y-127548786D01*
X207445992Y-127548786D01*
X207445994Y-127548787D01*
X207608446Y-127567091D01*
X207608450Y-127567091D01*
X207608454Y-127567091D01*
X207770905Y-127548787D01*
X207770906Y-127548786D01*
X207770911Y-127548786D01*
X207925225Y-127494789D01*
X208063654Y-127407808D01*
X208179258Y-127292204D01*
X208203261Y-127254003D01*
X221773909Y-127254003D01*
X221792212Y-127416455D01*
X221846210Y-127570774D01*
X221870398Y-127609269D01*
X221933192Y-127709204D01*
X222048796Y-127824808D01*
X222187225Y-127911789D01*
X222341539Y-127965786D01*
X222341542Y-127965786D01*
X222341544Y-127965787D01*
X222503996Y-127984091D01*
X222504000Y-127984091D01*
X222504004Y-127984091D01*
X222666455Y-127965787D01*
X222666456Y-127965786D01*
X222666461Y-127965786D01*
X222820775Y-127911789D01*
X222959204Y-127824808D01*
X223074808Y-127709204D01*
X223161789Y-127570775D01*
X223215786Y-127416461D01*
X223216761Y-127407807D01*
X223234091Y-127254003D01*
X223234091Y-127253996D01*
X223215787Y-127091544D01*
X223215786Y-127091542D01*
X223215786Y-127091539D01*
X223161789Y-126937225D01*
X223074808Y-126798796D01*
X222959204Y-126683192D01*
X222891515Y-126640660D01*
X222820774Y-126596210D01*
X222666455Y-126542212D01*
X222504004Y-126523909D01*
X222503996Y-126523909D01*
X222341544Y-126542212D01*
X222187225Y-126596210D01*
X222048795Y-126683192D01*
X221933192Y-126798795D01*
X221846210Y-126937225D01*
X221792212Y-127091544D01*
X221773909Y-127253996D01*
X221773909Y-127254003D01*
X208203261Y-127254003D01*
X208266239Y-127153775D01*
X208320236Y-126999461D01*
X208320237Y-126999455D01*
X208338541Y-126837003D01*
X208338541Y-126836996D01*
X208320237Y-126674544D01*
X208320236Y-126674542D01*
X208320236Y-126674539D01*
X208266239Y-126520225D01*
X208179258Y-126381796D01*
X208063654Y-126266192D01*
X207931028Y-126182857D01*
X207925224Y-126179210D01*
X207770905Y-126125212D01*
X207608454Y-126106909D01*
X207608446Y-126106909D01*
X207445994Y-126125212D01*
X207291675Y-126179210D01*
X207153245Y-126266192D01*
X207037642Y-126381795D01*
X206950660Y-126520225D01*
X206896662Y-126674544D01*
X206878359Y-126836996D01*
X206878359Y-126837003D01*
X181550240Y-126837003D01*
X181613429Y-126701492D01*
X181613432Y-126701486D01*
X181670636Y-126488000D01*
X180953347Y-126488000D01*
X180886308Y-126468315D01*
X180840553Y-126415511D01*
X180830609Y-126346353D01*
X180834369Y-126329067D01*
X180840000Y-126309888D01*
X180840000Y-126166111D01*
X180834369Y-126146933D01*
X180834370Y-126077064D01*
X180872145Y-126018286D01*
X180935701Y-125989262D01*
X180953347Y-125988000D01*
X181670636Y-125988000D01*
X181670635Y-125987999D01*
X181613432Y-125774513D01*
X181613429Y-125774507D01*
X181534093Y-125604370D01*
X196311500Y-125604370D01*
X196311501Y-125604376D01*
X196317908Y-125663983D01*
X196368202Y-125798828D01*
X196368206Y-125798835D01*
X196454452Y-125914044D01*
X196454455Y-125914047D01*
X196569664Y-126000293D01*
X196569671Y-126000297D01*
X196704517Y-126050591D01*
X196704516Y-126050591D01*
X196711444Y-126051335D01*
X196764127Y-126057000D01*
X198459872Y-126056999D01*
X198519483Y-126050591D01*
X198654331Y-126000296D01*
X198769546Y-125914046D01*
X198855796Y-125798831D01*
X198906091Y-125663983D01*
X198912500Y-125604373D01*
X198912499Y-123916003D01*
X212593359Y-123916003D01*
X212611662Y-124078455D01*
X212665660Y-124232774D01*
X212665661Y-124232775D01*
X212752642Y-124371204D01*
X212868246Y-124486808D01*
X213006675Y-124573789D01*
X213160989Y-124627786D01*
X213160992Y-124627786D01*
X213160994Y-124627787D01*
X213323446Y-124646091D01*
X213323450Y-124646091D01*
X213323454Y-124646091D01*
X213485905Y-124627787D01*
X213485906Y-124627786D01*
X213485911Y-124627786D01*
X213640225Y-124573789D01*
X213778654Y-124486808D01*
X213894258Y-124371204D01*
X213981239Y-124232775D01*
X214035236Y-124078461D01*
X214046775Y-123976050D01*
X214053541Y-123916003D01*
X214053541Y-123915996D01*
X214035237Y-123753544D01*
X214035236Y-123753542D01*
X214035236Y-123753539D01*
X213981239Y-123599225D01*
X213894258Y-123460796D01*
X213778654Y-123345192D01*
X213770055Y-123339789D01*
X213640224Y-123258210D01*
X213485905Y-123204212D01*
X213323454Y-123185909D01*
X213323446Y-123185909D01*
X213160994Y-123204212D01*
X213006675Y-123258210D01*
X212868245Y-123345192D01*
X212752642Y-123460795D01*
X212665660Y-123599225D01*
X212611662Y-123753544D01*
X212593359Y-123915996D01*
X212593359Y-123916003D01*
X198912499Y-123916003D01*
X198912499Y-123908628D01*
X198906091Y-123849017D01*
X198903579Y-123842283D01*
X198855797Y-123714171D01*
X198855793Y-123714164D01*
X198769547Y-123598955D01*
X198769544Y-123598952D01*
X198654335Y-123512706D01*
X198654328Y-123512702D01*
X198519482Y-123462408D01*
X198519483Y-123462408D01*
X198459883Y-123456001D01*
X198459881Y-123456000D01*
X198459873Y-123456000D01*
X198459864Y-123456000D01*
X196764129Y-123456000D01*
X196764123Y-123456001D01*
X196704516Y-123462408D01*
X196569671Y-123512702D01*
X196569664Y-123512706D01*
X196454455Y-123598952D01*
X196454452Y-123598955D01*
X196368206Y-123714164D01*
X196368202Y-123714171D01*
X196317908Y-123849017D01*
X196313281Y-123892061D01*
X196311501Y-123908623D01*
X196311500Y-123908635D01*
X196311500Y-125604370D01*
X181534093Y-125604370D01*
X181513600Y-125560422D01*
X181513599Y-125560420D01*
X181378113Y-125366926D01*
X181378108Y-125366920D01*
X181211078Y-125199890D01*
X181025405Y-125069879D01*
X180981780Y-125015302D01*
X180974588Y-124945804D01*
X181006110Y-124883449D01*
X181025406Y-124866730D01*
X181033244Y-124861242D01*
X181211401Y-124736495D01*
X181378495Y-124569401D01*
X181514035Y-124375830D01*
X181613903Y-124161663D01*
X181675063Y-123933408D01*
X181695659Y-123698000D01*
X181675063Y-123462592D01*
X181616584Y-123244344D01*
X181613905Y-123234344D01*
X181613904Y-123234343D01*
X181613903Y-123234337D01*
X181514035Y-123020171D01*
X181499054Y-122998775D01*
X181378494Y-122826597D01*
X181211402Y-122659506D01*
X181211396Y-122659501D01*
X181025842Y-122529575D01*
X180982217Y-122474998D01*
X180975023Y-122405500D01*
X181006546Y-122343145D01*
X181025842Y-122326425D01*
X181026445Y-122326003D01*
X209581909Y-122326003D01*
X209600212Y-122488455D01*
X209654210Y-122642774D01*
X209715713Y-122740654D01*
X209741192Y-122781204D01*
X209856796Y-122896808D01*
X209995225Y-122983789D01*
X210149539Y-123037786D01*
X210149542Y-123037786D01*
X210149544Y-123037787D01*
X210311996Y-123056091D01*
X210312000Y-123056091D01*
X210312004Y-123056091D01*
X210474455Y-123037787D01*
X210474456Y-123037786D01*
X210474461Y-123037786D01*
X210628775Y-122983789D01*
X210767204Y-122896808D01*
X210882808Y-122781204D01*
X210945140Y-122682003D01*
X216439909Y-122682003D01*
X216458212Y-122844455D01*
X216512210Y-122998774D01*
X216558744Y-123072832D01*
X216599192Y-123137204D01*
X216714796Y-123252808D01*
X216853225Y-123339789D01*
X217007539Y-123393786D01*
X217007542Y-123393786D01*
X217007544Y-123393787D01*
X217169996Y-123412091D01*
X217170000Y-123412091D01*
X217170004Y-123412091D01*
X217332455Y-123393787D01*
X217332456Y-123393786D01*
X217332461Y-123393786D01*
X217486775Y-123339789D01*
X217625204Y-123252808D01*
X217740808Y-123137204D01*
X217827789Y-122998775D01*
X217881786Y-122844461D01*
X217883799Y-122826594D01*
X217900091Y-122682003D01*
X217900091Y-122681996D01*
X217881787Y-122519544D01*
X217881786Y-122519542D01*
X217881786Y-122519539D01*
X217827789Y-122365225D01*
X217740808Y-122226796D01*
X217625204Y-122111192D01*
X217486774Y-122024210D01*
X217332455Y-121970212D01*
X217170004Y-121951909D01*
X217169996Y-121951909D01*
X217007544Y-121970212D01*
X216853225Y-122024210D01*
X216714795Y-122111192D01*
X216599192Y-122226795D01*
X216512210Y-122365225D01*
X216458212Y-122519544D01*
X216439909Y-122681996D01*
X216439909Y-122682003D01*
X210945140Y-122682003D01*
X210969789Y-122642775D01*
X211023786Y-122488461D01*
X211023787Y-122488455D01*
X211042091Y-122326003D01*
X211042091Y-122325996D01*
X211023787Y-122163544D01*
X211023786Y-122163542D01*
X211023786Y-122163539D01*
X210969789Y-122009225D01*
X210882808Y-121870796D01*
X210767204Y-121755192D01*
X210660269Y-121688000D01*
X210628774Y-121668210D01*
X210474455Y-121614212D01*
X210312004Y-121595909D01*
X210311996Y-121595909D01*
X210149544Y-121614212D01*
X209995225Y-121668210D01*
X209856795Y-121755192D01*
X209741192Y-121870795D01*
X209654210Y-122009225D01*
X209600212Y-122163544D01*
X209581909Y-122325996D01*
X209581909Y-122326003D01*
X181026445Y-122326003D01*
X181120135Y-122260400D01*
X181211401Y-122196495D01*
X181378495Y-122029401D01*
X181514035Y-121835830D01*
X181613903Y-121621663D01*
X181675063Y-121393408D01*
X181695659Y-121158000D01*
X181675063Y-120922592D01*
X181670082Y-120904001D01*
X196306532Y-120904001D01*
X196326364Y-121130686D01*
X196326366Y-121130697D01*
X196385258Y-121350488D01*
X196385261Y-121350497D01*
X196481431Y-121556732D01*
X196481432Y-121556734D01*
X196611954Y-121743141D01*
X196772858Y-121904045D01*
X196772861Y-121904047D01*
X196959266Y-122034568D01*
X197165504Y-122130739D01*
X197385308Y-122189635D01*
X197547230Y-122203801D01*
X197611998Y-122209468D01*
X197612000Y-122209468D01*
X197612002Y-122209468D01*
X197668673Y-122204509D01*
X197838692Y-122189635D01*
X198058496Y-122130739D01*
X198264734Y-122034568D01*
X198451139Y-121904047D01*
X198612047Y-121743139D01*
X198742568Y-121556734D01*
X198838739Y-121350496D01*
X198897635Y-121130692D01*
X198917468Y-120904000D01*
X198897635Y-120677308D01*
X198838739Y-120457504D01*
X198742568Y-120251266D01*
X198612047Y-120064861D01*
X198612045Y-120064858D01*
X198451141Y-119903954D01*
X198264734Y-119773432D01*
X198264732Y-119773431D01*
X198058497Y-119677261D01*
X198058488Y-119677258D01*
X197838697Y-119618366D01*
X197838693Y-119618365D01*
X197838692Y-119618365D01*
X197838691Y-119618364D01*
X197838686Y-119618364D01*
X197612002Y-119598532D01*
X197611998Y-119598532D01*
X197385313Y-119618364D01*
X197385302Y-119618366D01*
X197165511Y-119677258D01*
X197165502Y-119677261D01*
X196959267Y-119773431D01*
X196959265Y-119773432D01*
X196772858Y-119903954D01*
X196611954Y-120064858D01*
X196481432Y-120251265D01*
X196481431Y-120251267D01*
X196385261Y-120457502D01*
X196385258Y-120457511D01*
X196326366Y-120677302D01*
X196326364Y-120677313D01*
X196306532Y-120903998D01*
X196306532Y-120904001D01*
X181670082Y-120904001D01*
X181616584Y-120704344D01*
X181613905Y-120694344D01*
X181613904Y-120694343D01*
X181613903Y-120694337D01*
X181514035Y-120480171D01*
X181498169Y-120457511D01*
X181378494Y-120286597D01*
X181211402Y-120119506D01*
X181211401Y-120119505D01*
X181039686Y-119999269D01*
X181025405Y-119989269D01*
X180981781Y-119934692D01*
X180974588Y-119865193D01*
X181006110Y-119802839D01*
X181025405Y-119786119D01*
X181211082Y-119656105D01*
X181378105Y-119489082D01*
X181513600Y-119295578D01*
X181613429Y-119081492D01*
X181613432Y-119081486D01*
X181670636Y-118868000D01*
X180953347Y-118868000D01*
X180886308Y-118848315D01*
X180840553Y-118795511D01*
X180836885Y-118770000D01*
X212852000Y-118770000D01*
X213106000Y-119024000D01*
X214354586Y-119024000D01*
X214421625Y-119043685D01*
X214467380Y-119096489D01*
X214477324Y-119165647D01*
X214471628Y-119188953D01*
X214458715Y-119225854D01*
X214426212Y-119318744D01*
X214407909Y-119481196D01*
X214407909Y-119481203D01*
X214426212Y-119643655D01*
X214426213Y-119643660D01*
X214426214Y-119643661D01*
X214433379Y-119664139D01*
X214480210Y-119797974D01*
X214529801Y-119876897D01*
X214567192Y-119936404D01*
X214682796Y-120052008D01*
X214821225Y-120138989D01*
X214975539Y-120192986D01*
X214975542Y-120192986D01*
X214975544Y-120192987D01*
X215137996Y-120211291D01*
X215138000Y-120211291D01*
X215138004Y-120211291D01*
X215300455Y-120192987D01*
X215300456Y-120192986D01*
X215300461Y-120192986D01*
X215454775Y-120138989D01*
X215593204Y-120052008D01*
X215708808Y-119936404D01*
X215795789Y-119797975D01*
X215849786Y-119643661D01*
X215852636Y-119618366D01*
X215868091Y-119481203D01*
X215868091Y-119481196D01*
X215849787Y-119318744D01*
X215849786Y-119318742D01*
X215849786Y-119318739D01*
X215804371Y-119188953D01*
X215800811Y-119119175D01*
X215835540Y-119058548D01*
X215897533Y-119026321D01*
X215921414Y-119024000D01*
X216285234Y-119024000D01*
X216352273Y-119043685D01*
X216398028Y-119096489D01*
X216409227Y-119146758D01*
X216433400Y-121564000D01*
X219611400Y-121564000D01*
X219678439Y-121583685D01*
X219724194Y-121636489D01*
X219735400Y-121688000D01*
X219735400Y-124373199D01*
X219735400Y-124373200D01*
X225298000Y-124337746D01*
X225298000Y-124260400D01*
X238885185Y-124260400D01*
X241750739Y-124260400D01*
X241817778Y-124280085D01*
X241863533Y-124332889D01*
X241874579Y-124390679D01*
X241865914Y-124561565D01*
X241868646Y-124579402D01*
X241874502Y-124617623D01*
X241865196Y-124686870D01*
X241819930Y-124740093D01*
X241753074Y-124760395D01*
X241751932Y-124760400D01*
X238888593Y-124760400D01*
X238901175Y-124885476D01*
X238901176Y-124885479D01*
X238971008Y-125178507D01*
X238971010Y-125178516D01*
X239079274Y-125459616D01*
X239079281Y-125459631D01*
X239224048Y-125723795D01*
X239224052Y-125723801D01*
X239402735Y-125966311D01*
X239612155Y-126182851D01*
X239612162Y-126182857D01*
X239848568Y-126369545D01*
X240107748Y-126523057D01*
X240107766Y-126523066D01*
X240385083Y-126640660D01*
X240385100Y-126640665D01*
X240675626Y-126720248D01*
X240974184Y-126760400D01*
X242624800Y-126760400D01*
X242624800Y-125637100D01*
X242644485Y-125570061D01*
X242697289Y-125524306D01*
X242766447Y-125514362D01*
X242772105Y-125515350D01*
X242772597Y-125515400D01*
X242772601Y-125515400D01*
X242925767Y-125515400D01*
X242988255Y-125509045D01*
X243056940Y-125521846D01*
X243107803Y-125569749D01*
X243124799Y-125632409D01*
X243124799Y-126760399D01*
X243124800Y-126760400D01*
X244700036Y-126760400D01*
X244925364Y-126745315D01*
X244925373Y-126745313D01*
X245220558Y-126685316D01*
X245220573Y-126685312D01*
X245505143Y-126586498D01*
X245505146Y-126586496D01*
X245773998Y-126450640D01*
X246022364Y-126280145D01*
X246245771Y-126078085D01*
X246440264Y-125848038D01*
X246602354Y-125594128D01*
X246602355Y-125594126D01*
X246729151Y-125320885D01*
X246729156Y-125320871D01*
X246818405Y-125033165D01*
X246864415Y-124760400D01*
X243998861Y-124760400D01*
X243931822Y-124740715D01*
X243886067Y-124687911D01*
X243875020Y-124630120D01*
X243875138Y-124627787D01*
X243883686Y-124459235D01*
X243875098Y-124403175D01*
X243884404Y-124333930D01*
X243929670Y-124280707D01*
X243996526Y-124260405D01*
X243997668Y-124260400D01*
X246861007Y-124260400D01*
X246861007Y-124260399D01*
X246848424Y-124135323D01*
X246848423Y-124135320D01*
X246778591Y-123842292D01*
X246778589Y-123842283D01*
X246670325Y-123561183D01*
X246670318Y-123561168D01*
X246525551Y-123297004D01*
X246525547Y-123296998D01*
X246346864Y-123054488D01*
X246137444Y-122837948D01*
X246137437Y-122837942D01*
X245901031Y-122651254D01*
X245641851Y-122497742D01*
X245641833Y-122497733D01*
X245364516Y-122380139D01*
X245364499Y-122380134D01*
X245073973Y-122300551D01*
X244775417Y-122260400D01*
X243124800Y-122260400D01*
X243124800Y-123383699D01*
X243105115Y-123450738D01*
X243052311Y-123496493D01*
X242983153Y-123506437D01*
X242977497Y-123505450D01*
X242977003Y-123505400D01*
X242976999Y-123505400D01*
X242823833Y-123505400D01*
X242823831Y-123505400D01*
X242761344Y-123511754D01*
X242692657Y-123498952D01*
X242641795Y-123451048D01*
X242624800Y-123388390D01*
X242624800Y-122260400D01*
X241049564Y-122260400D01*
X240824235Y-122275484D01*
X240824226Y-122275486D01*
X240529041Y-122335483D01*
X240529026Y-122335487D01*
X240244456Y-122434301D01*
X240244453Y-122434303D01*
X239975601Y-122570159D01*
X239727235Y-122740654D01*
X239503828Y-122942714D01*
X239309335Y-123172761D01*
X239147245Y-123426671D01*
X239147244Y-123426673D01*
X239020448Y-123699914D01*
X239020443Y-123699928D01*
X238931194Y-123987634D01*
X238885185Y-124260400D01*
X225298000Y-124260400D01*
X225298000Y-121361361D01*
X225317685Y-121294322D01*
X225334314Y-121273685D01*
X227344481Y-119263519D01*
X227405804Y-119230034D01*
X227432162Y-119227200D01*
X228751838Y-119227200D01*
X228818877Y-119246885D01*
X228839518Y-119263518D01*
X229870000Y-120294000D01*
X236317852Y-120294000D01*
X236384891Y-120313685D01*
X236405528Y-120330314D01*
X236505659Y-120430445D01*
X236505662Y-120430448D01*
X236576672Y-120480169D01*
X236692066Y-120560968D01*
X236898304Y-120657139D01*
X237118108Y-120716035D01*
X237288016Y-120730900D01*
X238301584Y-120730900D01*
X238471492Y-120716035D01*
X238691296Y-120657139D01*
X238897534Y-120560968D01*
X239083939Y-120430447D01*
X239244847Y-120269539D01*
X239375368Y-120083134D01*
X239471539Y-119876896D01*
X239530435Y-119657092D01*
X239550268Y-119430400D01*
X239530435Y-119203708D01*
X239471539Y-118983904D01*
X239375368Y-118777666D01*
X239244847Y-118591261D01*
X239244845Y-118591258D01*
X239083941Y-118430354D01*
X238897534Y-118299832D01*
X238897532Y-118299831D01*
X238870449Y-118287202D01*
X238838932Y-118272505D01*
X238786494Y-118226334D01*
X238767342Y-118159140D01*
X238787558Y-118092259D01*
X238838934Y-118047741D01*
X238897284Y-118020532D01*
X239083620Y-117890057D01*
X239244457Y-117729220D01*
X239374934Y-117542882D01*
X239471065Y-117336726D01*
X239471069Y-117336717D01*
X239523672Y-117140400D01*
X238349674Y-117140400D01*
X238282635Y-117120715D01*
X238236880Y-117067911D01*
X238226936Y-116998753D01*
X238228783Y-116988807D01*
X238243568Y-116924028D01*
X238232849Y-116780994D01*
X238234621Y-116780861D01*
X238238208Y-116722264D01*
X238279501Y-116665902D01*
X238344711Y-116640813D01*
X238354829Y-116640400D01*
X239523672Y-116640400D01*
X239523672Y-116640399D01*
X239471069Y-116444082D01*
X239471065Y-116444073D01*
X239374934Y-116237917D01*
X239244457Y-116051579D01*
X239083620Y-115890742D01*
X238897282Y-115760265D01*
X238691126Y-115664134D01*
X238691117Y-115664130D01*
X238471410Y-115605260D01*
X238471399Y-115605258D01*
X238301563Y-115590400D01*
X238044800Y-115590400D01*
X238044800Y-116333811D01*
X238025115Y-116400850D01*
X237972311Y-116446605D01*
X237903153Y-116456549D01*
X237884251Y-116452302D01*
X237861875Y-116445400D01*
X237861873Y-116445400D01*
X237761454Y-116445400D01*
X237761446Y-116445400D01*
X237687280Y-116456579D01*
X237618055Y-116447106D01*
X237564941Y-116401711D01*
X237544802Y-116334806D01*
X237544799Y-116333964D01*
X237544800Y-115590400D01*
X237288037Y-115590400D01*
X237118200Y-115605258D01*
X237118189Y-115605260D01*
X236898482Y-115664130D01*
X236898473Y-115664134D01*
X236692317Y-115760265D01*
X236505979Y-115890742D01*
X236345142Y-116051579D01*
X236214665Y-116237917D01*
X236118534Y-116444073D01*
X236118530Y-116444082D01*
X236065927Y-116640399D01*
X236065928Y-116640400D01*
X237239926Y-116640400D01*
X237306965Y-116660085D01*
X237352720Y-116712889D01*
X237362664Y-116782047D01*
X237360817Y-116791993D01*
X237346032Y-116856770D01*
X237346031Y-116856770D01*
X237356751Y-116999806D01*
X237354978Y-116999938D01*
X237351392Y-117058536D01*
X237310099Y-117114898D01*
X237244889Y-117139987D01*
X237234771Y-117140400D01*
X236065928Y-117140400D01*
X236118530Y-117336717D01*
X236118534Y-117336726D01*
X236214665Y-117542882D01*
X236345142Y-117729220D01*
X236505979Y-117890057D01*
X236692318Y-118020534D01*
X236692320Y-118020535D01*
X236750665Y-118047742D01*
X236803105Y-118093914D01*
X236822257Y-118161107D01*
X236802042Y-118227989D01*
X236750667Y-118272505D01*
X236719151Y-118287202D01*
X236692064Y-118299833D01*
X236505658Y-118430354D01*
X236344754Y-118591258D01*
X236256624Y-118717123D01*
X236202048Y-118760748D01*
X236155049Y-118770000D01*
X230429362Y-118770000D01*
X230362323Y-118750315D01*
X230341681Y-118733681D01*
X228600000Y-116992000D01*
X212852000Y-116992000D01*
X212852000Y-118770000D01*
X180836885Y-118770000D01*
X180830609Y-118726353D01*
X180834369Y-118709067D01*
X180840000Y-118689888D01*
X180840000Y-118546111D01*
X180834369Y-118526933D01*
X180834370Y-118457064D01*
X180872145Y-118398286D01*
X180935701Y-118369262D01*
X180953347Y-118368000D01*
X181670636Y-118368000D01*
X181670635Y-118367999D01*
X181613432Y-118154513D01*
X181613429Y-118154507D01*
X181513600Y-117940422D01*
X181513599Y-117940420D01*
X181378113Y-117746926D01*
X181378108Y-117746920D01*
X181211078Y-117579890D01*
X181025405Y-117449879D01*
X180981780Y-117395302D01*
X180974588Y-117325804D01*
X181006110Y-117263449D01*
X181025406Y-117246730D01*
X181211401Y-117116495D01*
X181378495Y-116949401D01*
X181514035Y-116755830D01*
X181613903Y-116541663D01*
X181675063Y-116313408D01*
X181695659Y-116078000D01*
X181675063Y-115842592D01*
X181616584Y-115624344D01*
X181613905Y-115614344D01*
X181613904Y-115614343D01*
X181613903Y-115614337D01*
X181514035Y-115400171D01*
X181488923Y-115364306D01*
X181378494Y-115206597D01*
X181211402Y-115039506D01*
X181211396Y-115039501D01*
X181025842Y-114909575D01*
X180982217Y-114854998D01*
X180975023Y-114785500D01*
X181006546Y-114723145D01*
X181025842Y-114706425D01*
X181048026Y-114690891D01*
X181211401Y-114576495D01*
X181378495Y-114409401D01*
X181514035Y-114215830D01*
X181553186Y-114131870D01*
X196311500Y-114131870D01*
X196311501Y-114131876D01*
X196317908Y-114191483D01*
X196368202Y-114326328D01*
X196368206Y-114326335D01*
X196454452Y-114441544D01*
X196454455Y-114441547D01*
X196569664Y-114527793D01*
X196569671Y-114527797D01*
X196704517Y-114578091D01*
X196704516Y-114578091D01*
X196711444Y-114578835D01*
X196764127Y-114584500D01*
X198459872Y-114584499D01*
X198519483Y-114578091D01*
X198654331Y-114527796D01*
X198769546Y-114441546D01*
X198855796Y-114326331D01*
X198906091Y-114191483D01*
X198912500Y-114131873D01*
X198912500Y-114100400D01*
X238885185Y-114100400D01*
X241750739Y-114100400D01*
X241817778Y-114120085D01*
X241863533Y-114172889D01*
X241874579Y-114230679D01*
X241865914Y-114401565D01*
X241872038Y-114441544D01*
X241874502Y-114457623D01*
X241865196Y-114526870D01*
X241819930Y-114580093D01*
X241753074Y-114600395D01*
X241751932Y-114600400D01*
X238888593Y-114600400D01*
X238901175Y-114725476D01*
X238901176Y-114725479D01*
X238971008Y-115018507D01*
X238971010Y-115018516D01*
X239079274Y-115299616D01*
X239079281Y-115299631D01*
X239224048Y-115563795D01*
X239224052Y-115563801D01*
X239402735Y-115806311D01*
X239612155Y-116022851D01*
X239612162Y-116022857D01*
X239848568Y-116209545D01*
X240107748Y-116363057D01*
X240107766Y-116363066D01*
X240385083Y-116480660D01*
X240385100Y-116480665D01*
X240675626Y-116560248D01*
X240974184Y-116600400D01*
X242624800Y-116600400D01*
X242624800Y-115477100D01*
X242644485Y-115410061D01*
X242697289Y-115364306D01*
X242766447Y-115354362D01*
X242772105Y-115355350D01*
X242772597Y-115355400D01*
X242772601Y-115355400D01*
X242925767Y-115355400D01*
X242988255Y-115349045D01*
X243056940Y-115361846D01*
X243107803Y-115409749D01*
X243124799Y-115472409D01*
X243124799Y-116600399D01*
X243124800Y-116600400D01*
X244700036Y-116600400D01*
X244925364Y-116585315D01*
X244925373Y-116585313D01*
X245220558Y-116525316D01*
X245220573Y-116525312D01*
X245505143Y-116426498D01*
X245505146Y-116426496D01*
X245773998Y-116290640D01*
X246022364Y-116120145D01*
X246245771Y-115918085D01*
X246440264Y-115688038D01*
X246602354Y-115434128D01*
X246602355Y-115434126D01*
X246729151Y-115160885D01*
X246729156Y-115160871D01*
X246818405Y-114873165D01*
X246864415Y-114600400D01*
X243998861Y-114600400D01*
X243931822Y-114580715D01*
X243886067Y-114527911D01*
X243875020Y-114470120D01*
X243877592Y-114419396D01*
X243883686Y-114299235D01*
X243875098Y-114243175D01*
X243884404Y-114173930D01*
X243929670Y-114120707D01*
X243996526Y-114100405D01*
X243997668Y-114100400D01*
X246861007Y-114100400D01*
X246861007Y-114100399D01*
X246848424Y-113975323D01*
X246848423Y-113975320D01*
X246778591Y-113682292D01*
X246778589Y-113682283D01*
X246670325Y-113401183D01*
X246670318Y-113401168D01*
X246525551Y-113137004D01*
X246525547Y-113136998D01*
X246346864Y-112894488D01*
X246137444Y-112677948D01*
X246137437Y-112677942D01*
X245901031Y-112491254D01*
X245641851Y-112337742D01*
X245641833Y-112337733D01*
X245364516Y-112220139D01*
X245364499Y-112220134D01*
X245073973Y-112140551D01*
X244775417Y-112100400D01*
X243124800Y-112100400D01*
X243124800Y-113223699D01*
X243105115Y-113290738D01*
X243052311Y-113336493D01*
X242983153Y-113346437D01*
X242977497Y-113345450D01*
X242977003Y-113345400D01*
X242976999Y-113345400D01*
X242823833Y-113345400D01*
X242823831Y-113345400D01*
X242761344Y-113351754D01*
X242692657Y-113338952D01*
X242641795Y-113291048D01*
X242624800Y-113228390D01*
X242624800Y-112100400D01*
X241049564Y-112100400D01*
X240824235Y-112115484D01*
X240824226Y-112115486D01*
X240529041Y-112175483D01*
X240529026Y-112175487D01*
X240244456Y-112274301D01*
X240244453Y-112274303D01*
X239975601Y-112410159D01*
X239727235Y-112580654D01*
X239503828Y-112782714D01*
X239309335Y-113012761D01*
X239147245Y-113266671D01*
X239147244Y-113266673D01*
X239020448Y-113539914D01*
X239020443Y-113539928D01*
X238931194Y-113827634D01*
X238885185Y-114100400D01*
X198912500Y-114100400D01*
X198912499Y-112436128D01*
X198906091Y-112376517D01*
X198905139Y-112373965D01*
X198865618Y-112268003D01*
X205771909Y-112268003D01*
X205790212Y-112430455D01*
X205844210Y-112584774D01*
X205901907Y-112676597D01*
X205931192Y-112723204D01*
X206046796Y-112838808D01*
X206185225Y-112925789D01*
X206339539Y-112979786D01*
X206339542Y-112979786D01*
X206339544Y-112979787D01*
X206501996Y-112998091D01*
X206502000Y-112998091D01*
X206502004Y-112998091D01*
X206664455Y-112979787D01*
X206664456Y-112979786D01*
X206664461Y-112979786D01*
X206818775Y-112925789D01*
X206957204Y-112838808D01*
X207072808Y-112723204D01*
X207159789Y-112584775D01*
X207213786Y-112430461D01*
X207213787Y-112430455D01*
X207232091Y-112268003D01*
X213137909Y-112268003D01*
X213156212Y-112430455D01*
X213210210Y-112584774D01*
X213267907Y-112676597D01*
X213297192Y-112723204D01*
X213412796Y-112838808D01*
X213551225Y-112925789D01*
X213705539Y-112979786D01*
X213705542Y-112979786D01*
X213705544Y-112979787D01*
X213867996Y-112998091D01*
X213868000Y-112998091D01*
X213868004Y-112998091D01*
X214030455Y-112979787D01*
X214030456Y-112979786D01*
X214030461Y-112979786D01*
X214184775Y-112925789D01*
X214323204Y-112838808D01*
X214438808Y-112723204D01*
X214525789Y-112584775D01*
X214579786Y-112430461D01*
X214579787Y-112430455D01*
X214598091Y-112268003D01*
X214598091Y-112267996D01*
X214579787Y-112105544D01*
X214579786Y-112105542D01*
X214579786Y-112105539D01*
X214525789Y-111951225D01*
X214438808Y-111812796D01*
X214323204Y-111697192D01*
X214257312Y-111655789D01*
X214184774Y-111610210D01*
X214030455Y-111556212D01*
X213868004Y-111537909D01*
X213867996Y-111537909D01*
X213705544Y-111556212D01*
X213551225Y-111610210D01*
X213412795Y-111697192D01*
X213297192Y-111812795D01*
X213210210Y-111951225D01*
X213156212Y-112105544D01*
X213137909Y-112267996D01*
X213137909Y-112268003D01*
X207232091Y-112268003D01*
X207232091Y-112267996D01*
X207213787Y-112105544D01*
X207213786Y-112105542D01*
X207213786Y-112105539D01*
X207159789Y-111951225D01*
X207072808Y-111812796D01*
X206957204Y-111697192D01*
X206891312Y-111655789D01*
X206818774Y-111610210D01*
X206664455Y-111556212D01*
X206502004Y-111537909D01*
X206501996Y-111537909D01*
X206339544Y-111556212D01*
X206185225Y-111610210D01*
X206046795Y-111697192D01*
X205931192Y-111812795D01*
X205844210Y-111951225D01*
X205790212Y-112105544D01*
X205771909Y-112267996D01*
X205771909Y-112268003D01*
X198865618Y-112268003D01*
X198855797Y-112241671D01*
X198855793Y-112241664D01*
X198769547Y-112126455D01*
X198769544Y-112126452D01*
X198654335Y-112040206D01*
X198654328Y-112040202D01*
X198519482Y-111989908D01*
X198519483Y-111989908D01*
X198459883Y-111983501D01*
X198459881Y-111983500D01*
X198459873Y-111983500D01*
X198459864Y-111983500D01*
X196764129Y-111983500D01*
X196764123Y-111983501D01*
X196704516Y-111989908D01*
X196569671Y-112040202D01*
X196569664Y-112040206D01*
X196454455Y-112126452D01*
X196454452Y-112126455D01*
X196368206Y-112241664D01*
X196368202Y-112241671D01*
X196317908Y-112376517D01*
X196312110Y-112430455D01*
X196311501Y-112436123D01*
X196311500Y-112436135D01*
X196311500Y-114131870D01*
X181553186Y-114131870D01*
X181613903Y-114001663D01*
X181675063Y-113773408D01*
X181695659Y-113538000D01*
X181675063Y-113302592D01*
X181616584Y-113084344D01*
X181613905Y-113074344D01*
X181613904Y-113074343D01*
X181613903Y-113074337D01*
X181514035Y-112860171D01*
X181459800Y-112782714D01*
X181455101Y-112776003D01*
X192055909Y-112776003D01*
X192074212Y-112938455D01*
X192128210Y-113092774D01*
X192128211Y-113092775D01*
X192215192Y-113231204D01*
X192330796Y-113346808D01*
X192469225Y-113433789D01*
X192623539Y-113487786D01*
X192623542Y-113487786D01*
X192623544Y-113487787D01*
X192785996Y-113506091D01*
X192786000Y-113506091D01*
X192786004Y-113506091D01*
X192948455Y-113487787D01*
X192948456Y-113487786D01*
X192948461Y-113487786D01*
X193102775Y-113433789D01*
X193241204Y-113346808D01*
X193356808Y-113231204D01*
X193443789Y-113092775D01*
X193497786Y-112938461D01*
X193502741Y-112894488D01*
X193516091Y-112776003D01*
X193516091Y-112775996D01*
X193497787Y-112613544D01*
X193497786Y-112613542D01*
X193497786Y-112613539D01*
X193443789Y-112459225D01*
X193356808Y-112320796D01*
X193241204Y-112205192D01*
X193138329Y-112140551D01*
X193102774Y-112118210D01*
X192948455Y-112064212D01*
X192786004Y-112045909D01*
X192785996Y-112045909D01*
X192623544Y-112064212D01*
X192469225Y-112118210D01*
X192330795Y-112205192D01*
X192215192Y-112320795D01*
X192128210Y-112459225D01*
X192074212Y-112613544D01*
X192055909Y-112775996D01*
X192055909Y-112776003D01*
X181455101Y-112776003D01*
X181378494Y-112666597D01*
X181211402Y-112499506D01*
X181211396Y-112499501D01*
X181025842Y-112369575D01*
X180982217Y-112314998D01*
X180975023Y-112245500D01*
X181006546Y-112183145D01*
X181025842Y-112166425D01*
X181082929Y-112126452D01*
X181211401Y-112036495D01*
X181378495Y-111869401D01*
X181514035Y-111675830D01*
X181613903Y-111461663D01*
X181675063Y-111233408D01*
X181695659Y-110998000D01*
X181675063Y-110762592D01*
X181617966Y-110549503D01*
X200310909Y-110549503D01*
X200329212Y-110711955D01*
X200383210Y-110866274D01*
X200383211Y-110866275D01*
X200470192Y-111004704D01*
X200585796Y-111120308D01*
X200724225Y-111207289D01*
X200878539Y-111261286D01*
X200878542Y-111261286D01*
X200878544Y-111261287D01*
X201040996Y-111279591D01*
X201041000Y-111279591D01*
X201041004Y-111279591D01*
X201203455Y-111261287D01*
X201203456Y-111261286D01*
X201203461Y-111261286D01*
X201357775Y-111207289D01*
X201496204Y-111120308D01*
X201611808Y-111004704D01*
X201616019Y-110998003D01*
X202469909Y-110998003D01*
X202488212Y-111160455D01*
X202542210Y-111314774D01*
X202542211Y-111314775D01*
X202629192Y-111453204D01*
X202744796Y-111568808D01*
X202883225Y-111655789D01*
X203037539Y-111709786D01*
X203037542Y-111709786D01*
X203037544Y-111709787D01*
X203199996Y-111728091D01*
X203200000Y-111728091D01*
X203200004Y-111728091D01*
X203362455Y-111709787D01*
X203362456Y-111709786D01*
X203362461Y-111709786D01*
X203516775Y-111655789D01*
X203655204Y-111568808D01*
X203770808Y-111453204D01*
X203857789Y-111314775D01*
X203911786Y-111160461D01*
X203916310Y-111120308D01*
X203930091Y-110998003D01*
X203930091Y-110997996D01*
X203911787Y-110835544D01*
X203911786Y-110835542D01*
X203911786Y-110835539D01*
X203857789Y-110681225D01*
X203770808Y-110542796D01*
X203655204Y-110427192D01*
X203568691Y-110372832D01*
X203516774Y-110340210D01*
X203362455Y-110286212D01*
X203200004Y-110267909D01*
X203199996Y-110267909D01*
X203037544Y-110286212D01*
X202883225Y-110340210D01*
X202744795Y-110427192D01*
X202629192Y-110542795D01*
X202542210Y-110681225D01*
X202488212Y-110835544D01*
X202469909Y-110997996D01*
X202469909Y-110998003D01*
X201616019Y-110998003D01*
X201698789Y-110866275D01*
X201752786Y-110711961D01*
X201771091Y-110549500D01*
X201770510Y-110544344D01*
X201752787Y-110387044D01*
X201752786Y-110387042D01*
X201752786Y-110387039D01*
X201698789Y-110232725D01*
X201611808Y-110094296D01*
X201496204Y-109978692D01*
X201465662Y-109959501D01*
X201357774Y-109891710D01*
X201203455Y-109837712D01*
X201041004Y-109819409D01*
X201040996Y-109819409D01*
X200878544Y-109837712D01*
X200724225Y-109891710D01*
X200585795Y-109978692D01*
X200470192Y-110094295D01*
X200383210Y-110232725D01*
X200329212Y-110387044D01*
X200310909Y-110549496D01*
X200310909Y-110549503D01*
X181617966Y-110549503D01*
X181616584Y-110544344D01*
X181613905Y-110534344D01*
X181613904Y-110534343D01*
X181613903Y-110534337D01*
X181514035Y-110320171D01*
X181490259Y-110286214D01*
X181378494Y-110126597D01*
X181211402Y-109959506D01*
X181211396Y-109959501D01*
X181025842Y-109829575D01*
X180982217Y-109774998D01*
X180975023Y-109705500D01*
X181006546Y-109643145D01*
X181025842Y-109626425D01*
X181197115Y-109506498D01*
X181211401Y-109496495D01*
X181378495Y-109329401D01*
X181514035Y-109135830D01*
X181613903Y-108921663D01*
X181675063Y-108693408D01*
X181695659Y-108458000D01*
X181675063Y-108222592D01*
X181616584Y-108004344D01*
X181613905Y-107994344D01*
X181613904Y-107994343D01*
X181613903Y-107994337D01*
X181593230Y-107950003D01*
X199929909Y-107950003D01*
X199948212Y-108112455D01*
X200002210Y-108266774D01*
X200002211Y-108266775D01*
X200089192Y-108405204D01*
X200204796Y-108520808D01*
X200343225Y-108607789D01*
X200497539Y-108661786D01*
X200497542Y-108661786D01*
X200497544Y-108661787D01*
X200659996Y-108680091D01*
X200660000Y-108680091D01*
X200660004Y-108680091D01*
X200822455Y-108661787D01*
X200822456Y-108661786D01*
X200822461Y-108661786D01*
X200976775Y-108607789D01*
X201115204Y-108520808D01*
X201230808Y-108405204D01*
X201317789Y-108266775D01*
X201371786Y-108112461D01*
X201383969Y-108004335D01*
X201390091Y-107950003D01*
X201390091Y-107949996D01*
X201371787Y-107787544D01*
X201371786Y-107787542D01*
X201371786Y-107787539D01*
X201317789Y-107633225D01*
X201230808Y-107494796D01*
X201115204Y-107379192D01*
X201069479Y-107350461D01*
X200976774Y-107292210D01*
X200822455Y-107238212D01*
X200660004Y-107219909D01*
X200659996Y-107219909D01*
X200497544Y-107238212D01*
X200343225Y-107292210D01*
X200204795Y-107379192D01*
X200089192Y-107494795D01*
X200002210Y-107633225D01*
X199948212Y-107787544D01*
X199929909Y-107949996D01*
X199929909Y-107950003D01*
X181593230Y-107950003D01*
X181514035Y-107780171D01*
X181499078Y-107758809D01*
X181378494Y-107586597D01*
X181211402Y-107419506D01*
X181211396Y-107419501D01*
X181025842Y-107289575D01*
X180982217Y-107234998D01*
X180977352Y-107188003D01*
X192055909Y-107188003D01*
X192074212Y-107350455D01*
X192128210Y-107504774D01*
X192182475Y-107591135D01*
X192215192Y-107643204D01*
X192330796Y-107758808D01*
X192469225Y-107845789D01*
X192623539Y-107899786D01*
X192623542Y-107899786D01*
X192623544Y-107899787D01*
X192785996Y-107918091D01*
X192786000Y-107918091D01*
X192786004Y-107918091D01*
X192948455Y-107899787D01*
X192948456Y-107899786D01*
X192948461Y-107899786D01*
X193102775Y-107845789D01*
X193241204Y-107758808D01*
X193315174Y-107684837D01*
X193376493Y-107651355D01*
X193416735Y-107649301D01*
X193434965Y-107651355D01*
X193547997Y-107664091D01*
X193548000Y-107664091D01*
X193548004Y-107664091D01*
X193710455Y-107645787D01*
X193710456Y-107645786D01*
X193710461Y-107645786D01*
X193864775Y-107591789D01*
X194003204Y-107504808D01*
X194118808Y-107389204D01*
X194205789Y-107250775D01*
X194259786Y-107096461D01*
X194260917Y-107086425D01*
X194278091Y-106934003D01*
X194278091Y-106933996D01*
X194259787Y-106771544D01*
X194259786Y-106771542D01*
X194259786Y-106771539D01*
X194205789Y-106617225D01*
X194118808Y-106478796D01*
X194003204Y-106363192D01*
X193911390Y-106305501D01*
X196306532Y-106305501D01*
X196326364Y-106532186D01*
X196326366Y-106532197D01*
X196385258Y-106751988D01*
X196385261Y-106751997D01*
X196481431Y-106958232D01*
X196481432Y-106958234D01*
X196611954Y-107144641D01*
X196772858Y-107305545D01*
X196772861Y-107305547D01*
X196959266Y-107436068D01*
X197165504Y-107532239D01*
X197385308Y-107591135D01*
X197547230Y-107605301D01*
X197611998Y-107610968D01*
X197612000Y-107610968D01*
X197612002Y-107610968D01*
X197668672Y-107606009D01*
X197838692Y-107591135D01*
X198058496Y-107532239D01*
X198264734Y-107436068D01*
X198451139Y-107305547D01*
X198612047Y-107144639D01*
X198742568Y-106958234D01*
X198838739Y-106751996D01*
X198897635Y-106532192D01*
X198917468Y-106305500D01*
X198914905Y-106276210D01*
X198905037Y-106163413D01*
X198897635Y-106078808D01*
X198838739Y-105859004D01*
X198742568Y-105652766D01*
X198612047Y-105466361D01*
X198612045Y-105466358D01*
X198451141Y-105305454D01*
X198264734Y-105174932D01*
X198264732Y-105174931D01*
X198058497Y-105078761D01*
X198058488Y-105078758D01*
X197838697Y-105019866D01*
X197838693Y-105019865D01*
X197838692Y-105019865D01*
X197838691Y-105019864D01*
X197838686Y-105019864D01*
X197612002Y-105000032D01*
X197611998Y-105000032D01*
X197385313Y-105019864D01*
X197385302Y-105019866D01*
X197165511Y-105078758D01*
X197165502Y-105078761D01*
X196959267Y-105174931D01*
X196959265Y-105174932D01*
X196772858Y-105305454D01*
X196611954Y-105466358D01*
X196481432Y-105652765D01*
X196481431Y-105652767D01*
X196385261Y-105859002D01*
X196385258Y-105859011D01*
X196326366Y-106078802D01*
X196326364Y-106078813D01*
X196306532Y-106305498D01*
X196306532Y-106305501D01*
X193911390Y-106305501D01*
X193911385Y-106305498D01*
X193864774Y-106276210D01*
X193710455Y-106222212D01*
X193548004Y-106203909D01*
X193547996Y-106203909D01*
X193385544Y-106222212D01*
X193231225Y-106276210D01*
X193092797Y-106363191D01*
X193018828Y-106437160D01*
X192957504Y-106470644D01*
X192917264Y-106472698D01*
X192786004Y-106457909D01*
X192785996Y-106457909D01*
X192623544Y-106476212D01*
X192469225Y-106530210D01*
X192330795Y-106617192D01*
X192215192Y-106732795D01*
X192128210Y-106871225D01*
X192074212Y-107025544D01*
X192055909Y-107187996D01*
X192055909Y-107188003D01*
X180977352Y-107188003D01*
X180975023Y-107165500D01*
X181006546Y-107103145D01*
X181025842Y-107086425D01*
X181197115Y-106966498D01*
X181211401Y-106956495D01*
X181378495Y-106789401D01*
X181514035Y-106595830D01*
X181613903Y-106381663D01*
X181675063Y-106153408D01*
X181695659Y-105918000D01*
X181675063Y-105682592D01*
X181616584Y-105464344D01*
X181613905Y-105454344D01*
X181613904Y-105454343D01*
X181613903Y-105454337D01*
X181514035Y-105240171D01*
X181468355Y-105174932D01*
X181378494Y-105046597D01*
X181211402Y-104879506D01*
X181211396Y-104879501D01*
X181025842Y-104749575D01*
X180982217Y-104694998D01*
X180975023Y-104625500D01*
X181006546Y-104563145D01*
X181025842Y-104546425D01*
X181197115Y-104426498D01*
X181211401Y-104416495D01*
X181378495Y-104249401D01*
X181514035Y-104055830D01*
X181613903Y-103841663D01*
X181675063Y-103613408D01*
X181695659Y-103378000D01*
X181675063Y-103142592D01*
X181616584Y-102924344D01*
X181613905Y-102914344D01*
X181613904Y-102914343D01*
X181613903Y-102914337D01*
X181514035Y-102700171D01*
X181378495Y-102506599D01*
X181378494Y-102506597D01*
X181211402Y-102339506D01*
X181211396Y-102339501D01*
X181025842Y-102209575D01*
X180982217Y-102154998D01*
X180975023Y-102085500D01*
X181006546Y-102023145D01*
X181025842Y-102006425D01*
X181197115Y-101886498D01*
X181211401Y-101876495D01*
X181378495Y-101709401D01*
X181514035Y-101515830D01*
X181613903Y-101301663D01*
X181675063Y-101073408D01*
X181692107Y-100878603D01*
X206827559Y-100878603D01*
X206845862Y-101041055D01*
X206899860Y-101195374D01*
X206936987Y-101254461D01*
X206986842Y-101333804D01*
X207102446Y-101449408D01*
X207240875Y-101536389D01*
X207395189Y-101590386D01*
X207395192Y-101590386D01*
X207395194Y-101590387D01*
X207557646Y-101608691D01*
X207557650Y-101608691D01*
X207557654Y-101608691D01*
X207720105Y-101590387D01*
X207720106Y-101590386D01*
X207720111Y-101590386D01*
X207874425Y-101536389D01*
X208012854Y-101449408D01*
X208128458Y-101333804D01*
X208215439Y-101195375D01*
X208251611Y-101092003D01*
X221773909Y-101092003D01*
X221792212Y-101254455D01*
X221846210Y-101408774D01*
X221913478Y-101515830D01*
X221933192Y-101547204D01*
X222048796Y-101662808D01*
X222187225Y-101749789D01*
X222341539Y-101803786D01*
X222341542Y-101803786D01*
X222341544Y-101803787D01*
X222503996Y-101822091D01*
X222504000Y-101822091D01*
X222504004Y-101822091D01*
X222666455Y-101803787D01*
X222666456Y-101803786D01*
X222666461Y-101803786D01*
X222820775Y-101749789D01*
X222959204Y-101662808D01*
X223074808Y-101547204D01*
X223161789Y-101408775D01*
X223215786Y-101254461D01*
X223215787Y-101254455D01*
X223234091Y-101092003D01*
X223234091Y-101091996D01*
X223215787Y-100929544D01*
X223215786Y-100929542D01*
X223215786Y-100929539D01*
X223161789Y-100775225D01*
X223074808Y-100636796D01*
X222959204Y-100521192D01*
X222820774Y-100434210D01*
X222666455Y-100380212D01*
X222504004Y-100361909D01*
X222503996Y-100361909D01*
X222341544Y-100380212D01*
X222187225Y-100434210D01*
X222048795Y-100521192D01*
X221933192Y-100636795D01*
X221846210Y-100775225D01*
X221792212Y-100929544D01*
X221773909Y-101091996D01*
X221773909Y-101092003D01*
X208251611Y-101092003D01*
X208269436Y-101041061D01*
X208287741Y-100878600D01*
X208284293Y-100848000D01*
X208269437Y-100716144D01*
X208269436Y-100716142D01*
X208269436Y-100716139D01*
X208215439Y-100561825D01*
X208128458Y-100423396D01*
X208012854Y-100307792D01*
X207880228Y-100224457D01*
X207874424Y-100220810D01*
X207720105Y-100166812D01*
X207557654Y-100148509D01*
X207557646Y-100148509D01*
X207395194Y-100166812D01*
X207240875Y-100220810D01*
X207102445Y-100307792D01*
X206986842Y-100423395D01*
X206899860Y-100561825D01*
X206845862Y-100716144D01*
X206827559Y-100878596D01*
X206827559Y-100878603D01*
X181692107Y-100878603D01*
X181695659Y-100838000D01*
X181675063Y-100602592D01*
X181616584Y-100384344D01*
X181613905Y-100374344D01*
X181613904Y-100374343D01*
X181613903Y-100374337D01*
X181514035Y-100160171D01*
X181505870Y-100148509D01*
X181378494Y-99966597D01*
X181211402Y-99799506D01*
X181211396Y-99799501D01*
X181025842Y-99669575D01*
X180982217Y-99614998D01*
X180975023Y-99545500D01*
X180981155Y-99533370D01*
X196311500Y-99533370D01*
X196311501Y-99533376D01*
X196317908Y-99592983D01*
X196368202Y-99727828D01*
X196368206Y-99727835D01*
X196454452Y-99843044D01*
X196454455Y-99843047D01*
X196569664Y-99929293D01*
X196569671Y-99929297D01*
X196704517Y-99979591D01*
X196704516Y-99979591D01*
X196711444Y-99980335D01*
X196764127Y-99986000D01*
X198459872Y-99985999D01*
X198519483Y-99979591D01*
X198654331Y-99929296D01*
X198769546Y-99843046D01*
X198855796Y-99727831D01*
X198906091Y-99592983D01*
X198912500Y-99533373D01*
X198912499Y-97957603D01*
X212542559Y-97957603D01*
X212560862Y-98120055D01*
X212614860Y-98274374D01*
X212630205Y-98298795D01*
X212701842Y-98412804D01*
X212817446Y-98528408D01*
X212955875Y-98615389D01*
X213110189Y-98669386D01*
X213110192Y-98669386D01*
X213110194Y-98669387D01*
X213272646Y-98687691D01*
X213272650Y-98687691D01*
X213272654Y-98687691D01*
X213435105Y-98669387D01*
X213435106Y-98669386D01*
X213435111Y-98669386D01*
X213589425Y-98615389D01*
X213727854Y-98528408D01*
X213843458Y-98412804D01*
X213930439Y-98274375D01*
X213984436Y-98120061D01*
X213989784Y-98072596D01*
X214002741Y-97957603D01*
X214002741Y-97957596D01*
X213984437Y-97795144D01*
X213984436Y-97795142D01*
X213984436Y-97795139D01*
X213930439Y-97640825D01*
X213843458Y-97502396D01*
X213727854Y-97386792D01*
X213661037Y-97344808D01*
X213589424Y-97299810D01*
X213435105Y-97245812D01*
X213272654Y-97227509D01*
X213272646Y-97227509D01*
X213110194Y-97245812D01*
X212955875Y-97299810D01*
X212817445Y-97386792D01*
X212701842Y-97502395D01*
X212614860Y-97640825D01*
X212560862Y-97795144D01*
X212542559Y-97957596D01*
X212542559Y-97957603D01*
X198912499Y-97957603D01*
X198912499Y-97837628D01*
X198906091Y-97778017D01*
X198892481Y-97741528D01*
X198855797Y-97643171D01*
X198855793Y-97643164D01*
X198769547Y-97527955D01*
X198769544Y-97527952D01*
X198654335Y-97441706D01*
X198654328Y-97441702D01*
X198519482Y-97391408D01*
X198519483Y-97391408D01*
X198459883Y-97385001D01*
X198459881Y-97385000D01*
X198459873Y-97385000D01*
X198459864Y-97385000D01*
X196764129Y-97385000D01*
X196764123Y-97385001D01*
X196704516Y-97391408D01*
X196569671Y-97441702D01*
X196569664Y-97441706D01*
X196454455Y-97527952D01*
X196454452Y-97527955D01*
X196368206Y-97643164D01*
X196368202Y-97643171D01*
X196317908Y-97778017D01*
X196311853Y-97834344D01*
X196311501Y-97837623D01*
X196311500Y-97837635D01*
X196311500Y-99533370D01*
X180981155Y-99533370D01*
X181006546Y-99483145D01*
X181025842Y-99466425D01*
X181070364Y-99435250D01*
X181211401Y-99336495D01*
X181378495Y-99169401D01*
X181514035Y-98975830D01*
X181613903Y-98761663D01*
X181675063Y-98533408D01*
X181695659Y-98298000D01*
X181675063Y-98062592D01*
X181616584Y-97844344D01*
X181613905Y-97834344D01*
X181613904Y-97834343D01*
X181613903Y-97834337D01*
X181514035Y-97620171D01*
X181501850Y-97602768D01*
X181378494Y-97426597D01*
X181211402Y-97259506D01*
X181211396Y-97259501D01*
X181025842Y-97129575D01*
X180982217Y-97074998D01*
X180975023Y-97005500D01*
X181006546Y-96943145D01*
X181025842Y-96926425D01*
X181092798Y-96879542D01*
X181211401Y-96796495D01*
X181378495Y-96629401D01*
X181514035Y-96435830D01*
X181545850Y-96367603D01*
X209531109Y-96367603D01*
X209549412Y-96530055D01*
X209603410Y-96684374D01*
X209659724Y-96773996D01*
X209690392Y-96822804D01*
X209805996Y-96938408D01*
X209944425Y-97025389D01*
X210098739Y-97079386D01*
X210098742Y-97079386D01*
X210098744Y-97079387D01*
X210261196Y-97097691D01*
X210261200Y-97097691D01*
X210261204Y-97097691D01*
X210423655Y-97079387D01*
X210423656Y-97079386D01*
X210423661Y-97079386D01*
X210577975Y-97025389D01*
X210716404Y-96938408D01*
X210832008Y-96822804D01*
X210862672Y-96774003D01*
X216439909Y-96774003D01*
X216458212Y-96936455D01*
X216458213Y-96936460D01*
X216458214Y-96936461D01*
X216460553Y-96943145D01*
X216512210Y-97090774D01*
X216542874Y-97139575D01*
X216599192Y-97229204D01*
X216714796Y-97344808D01*
X216853225Y-97431789D01*
X217007539Y-97485786D01*
X217007542Y-97485786D01*
X217007544Y-97485787D01*
X217169996Y-97504091D01*
X217170000Y-97504091D01*
X217170004Y-97504091D01*
X217332455Y-97485787D01*
X217332456Y-97485786D01*
X217332461Y-97485786D01*
X217486775Y-97431789D01*
X217625204Y-97344808D01*
X217740808Y-97229204D01*
X217827789Y-97090775D01*
X217881786Y-96936461D01*
X217888199Y-96879548D01*
X217900091Y-96774003D01*
X217900091Y-96773996D01*
X217881787Y-96611544D01*
X217881786Y-96611542D01*
X217881786Y-96611539D01*
X217827789Y-96457225D01*
X217740808Y-96318796D01*
X217625204Y-96203192D01*
X217570895Y-96169067D01*
X217486774Y-96116210D01*
X217332455Y-96062212D01*
X217170004Y-96043909D01*
X217169996Y-96043909D01*
X217007544Y-96062212D01*
X216853225Y-96116210D01*
X216714795Y-96203192D01*
X216599192Y-96318795D01*
X216512210Y-96457225D01*
X216458212Y-96611544D01*
X216439909Y-96773996D01*
X216439909Y-96774003D01*
X210862672Y-96774003D01*
X210918989Y-96684375D01*
X210972986Y-96530061D01*
X210979088Y-96475903D01*
X210991291Y-96367603D01*
X210991291Y-96367596D01*
X210972987Y-96205144D01*
X210972986Y-96205142D01*
X210972986Y-96205139D01*
X210918989Y-96050825D01*
X210832008Y-95912396D01*
X210716404Y-95796792D01*
X210670582Y-95768000D01*
X210577974Y-95709810D01*
X210423655Y-95655812D01*
X210261204Y-95637509D01*
X210261196Y-95637509D01*
X210098744Y-95655812D01*
X209944425Y-95709810D01*
X209805995Y-95796792D01*
X209690392Y-95912395D01*
X209603410Y-96050825D01*
X209549412Y-96205144D01*
X209531109Y-96367596D01*
X209531109Y-96367603D01*
X181545850Y-96367603D01*
X181613903Y-96221663D01*
X181675063Y-95993408D01*
X181695659Y-95758000D01*
X181675063Y-95522592D01*
X181616584Y-95304344D01*
X181613905Y-95294344D01*
X181613904Y-95294343D01*
X181613903Y-95294337D01*
X181514035Y-95080171D01*
X181484858Y-95038501D01*
X196306532Y-95038501D01*
X196326364Y-95265186D01*
X196326366Y-95265197D01*
X196385258Y-95484988D01*
X196385261Y-95484997D01*
X196481431Y-95691232D01*
X196481432Y-95691234D01*
X196611954Y-95877641D01*
X196772858Y-96038545D01*
X196772861Y-96038547D01*
X196959266Y-96169068D01*
X197165504Y-96265239D01*
X197385308Y-96324135D01*
X197547230Y-96338301D01*
X197611998Y-96343968D01*
X197612000Y-96343968D01*
X197612002Y-96343968D01*
X197668672Y-96339009D01*
X197838692Y-96324135D01*
X198058496Y-96265239D01*
X198264734Y-96169068D01*
X198451139Y-96038547D01*
X198612047Y-95877639D01*
X198742568Y-95691234D01*
X198838739Y-95484996D01*
X198897635Y-95265192D01*
X198917468Y-95038500D01*
X198897635Y-94811808D01*
X198839265Y-94593967D01*
X198838741Y-94592011D01*
X198838738Y-94592002D01*
X198793084Y-94494097D01*
X198742568Y-94385766D01*
X198612047Y-94199361D01*
X198612045Y-94199358D01*
X198451141Y-94038454D01*
X198264734Y-93907932D01*
X198264732Y-93907931D01*
X198058497Y-93811761D01*
X198058488Y-93811758D01*
X197838697Y-93752866D01*
X197838693Y-93752865D01*
X197838692Y-93752865D01*
X197838691Y-93752864D01*
X197838686Y-93752864D01*
X197612002Y-93733032D01*
X197611998Y-93733032D01*
X197385313Y-93752864D01*
X197385302Y-93752866D01*
X197165511Y-93811758D01*
X197165502Y-93811761D01*
X196959267Y-93907931D01*
X196959265Y-93907932D01*
X196772858Y-94038454D01*
X196611954Y-94199358D01*
X196481432Y-94385765D01*
X196481431Y-94385767D01*
X196385261Y-94592002D01*
X196385258Y-94592011D01*
X196326366Y-94811802D01*
X196326364Y-94811813D01*
X196306532Y-95038498D01*
X196306532Y-95038501D01*
X181484858Y-95038501D01*
X181378494Y-94886597D01*
X181211402Y-94719506D01*
X181211395Y-94719501D01*
X181017834Y-94583967D01*
X181017830Y-94583965D01*
X181017829Y-94583964D01*
X180803663Y-94484097D01*
X180803659Y-94484096D01*
X180803655Y-94484094D01*
X180575413Y-94422938D01*
X180575403Y-94422936D01*
X180340001Y-94402341D01*
X180339999Y-94402341D01*
X180104596Y-94422936D01*
X180104586Y-94422938D01*
X179876344Y-94484094D01*
X179876335Y-94484098D01*
X179662171Y-94583964D01*
X179662169Y-94583965D01*
X179468597Y-94719505D01*
X179301508Y-94886594D01*
X179164673Y-95082015D01*
X179110096Y-95125639D01*
X179040597Y-95132832D01*
X178978243Y-95101310D01*
X178961523Y-95082014D01*
X178960231Y-95080169D01*
X178831695Y-94896599D01*
X178831694Y-94896597D01*
X178664602Y-94729506D01*
X178664595Y-94729501D01*
X178650319Y-94719505D01*
X178625721Y-94702281D01*
X178471034Y-94593967D01*
X178471030Y-94593965D01*
X178449583Y-94583964D01*
X178256863Y-94494097D01*
X178256859Y-94494096D01*
X178256855Y-94494094D01*
X178028613Y-94432938D01*
X178028603Y-94432936D01*
X177793201Y-94412341D01*
X177793199Y-94412341D01*
X177557796Y-94432936D01*
X177557786Y-94432938D01*
X177329544Y-94494094D01*
X177329535Y-94494098D01*
X177115371Y-94593964D01*
X177115369Y-94593965D01*
X176921797Y-94729505D01*
X176754705Y-94896597D01*
X176619165Y-95090169D01*
X176619164Y-95090171D01*
X176519298Y-95304335D01*
X176519294Y-95304344D01*
X176458138Y-95532586D01*
X176458136Y-95532596D01*
X176437541Y-95767999D01*
X176437541Y-95768000D01*
X176458136Y-96003403D01*
X176458138Y-96003413D01*
X176519294Y-96231655D01*
X176519296Y-96231659D01*
X176519297Y-96231663D01*
X176607929Y-96421734D01*
X176619165Y-96445830D01*
X176619167Y-96445834D01*
X176684643Y-96539342D01*
X176754701Y-96639396D01*
X176754706Y-96639402D01*
X176921797Y-96806493D01*
X176921803Y-96806498D01*
X177107358Y-96936425D01*
X177150983Y-96991002D01*
X177158177Y-97060500D01*
X177126654Y-97122855D01*
X177107358Y-97139575D01*
X176921797Y-97269505D01*
X176754705Y-97436597D01*
X176619165Y-97630169D01*
X176619164Y-97630171D01*
X176542236Y-97795144D01*
X176522426Y-97837628D01*
X176519298Y-97844335D01*
X176519294Y-97844344D01*
X176458138Y-98072586D01*
X176458136Y-98072596D01*
X176437541Y-98307999D01*
X176437541Y-98308000D01*
X176458136Y-98543403D01*
X176458138Y-98543413D01*
X176519294Y-98771655D01*
X176519296Y-98771659D01*
X176519297Y-98771663D01*
X176609307Y-98964690D01*
X176619165Y-98985830D01*
X176619167Y-98985834D01*
X176681438Y-99074765D01*
X176754701Y-99179396D01*
X176754706Y-99179402D01*
X176921797Y-99346493D01*
X176921803Y-99346498D01*
X177107358Y-99476425D01*
X177150983Y-99531002D01*
X177158177Y-99600500D01*
X177126654Y-99662855D01*
X177107358Y-99679575D01*
X176921797Y-99809505D01*
X176754705Y-99976597D01*
X176619165Y-100170169D01*
X176619164Y-100170171D01*
X176519298Y-100384335D01*
X176519294Y-100384344D01*
X176458138Y-100612586D01*
X176458136Y-100612596D01*
X176437541Y-100847999D01*
X176437541Y-100848000D01*
X176458136Y-101083403D01*
X176458138Y-101083413D01*
X176519294Y-101311655D01*
X176519296Y-101311659D01*
X176519297Y-101311663D01*
X176609307Y-101504690D01*
X176619165Y-101525830D01*
X176619167Y-101525834D01*
X176664368Y-101590387D01*
X176754701Y-101719396D01*
X176754706Y-101719402D01*
X176921797Y-101886493D01*
X176921803Y-101886498D01*
X177107358Y-102016425D01*
X177150983Y-102071002D01*
X177158177Y-102140500D01*
X177126654Y-102202855D01*
X177107358Y-102219575D01*
X176921797Y-102349505D01*
X176754705Y-102516597D01*
X176619165Y-102710169D01*
X176619164Y-102710171D01*
X176519298Y-102924335D01*
X176519294Y-102924344D01*
X176458138Y-103152586D01*
X176458136Y-103152596D01*
X176437541Y-103387999D01*
X176437541Y-103388000D01*
X176458136Y-103623403D01*
X176458138Y-103623413D01*
X176519294Y-103851655D01*
X176519296Y-103851659D01*
X176519297Y-103851663D01*
X176609307Y-104044690D01*
X176619165Y-104065830D01*
X176619167Y-104065834D01*
X176727481Y-104220521D01*
X176754701Y-104259396D01*
X176754706Y-104259402D01*
X176921797Y-104426493D01*
X176921803Y-104426498D01*
X177107358Y-104556425D01*
X177150983Y-104611002D01*
X177158177Y-104680500D01*
X177126654Y-104742855D01*
X177107358Y-104759575D01*
X176921797Y-104889505D01*
X176754705Y-105056597D01*
X176619165Y-105250169D01*
X176619164Y-105250171D01*
X176519298Y-105464335D01*
X176519294Y-105464344D01*
X176458138Y-105692586D01*
X176458136Y-105692596D01*
X176437541Y-105927999D01*
X176437541Y-105928000D01*
X176458136Y-106163403D01*
X176458138Y-106163413D01*
X176519294Y-106391655D01*
X176519296Y-106391659D01*
X176519297Y-106391663D01*
X176609307Y-106584690D01*
X176619165Y-106605830D01*
X176619167Y-106605834D01*
X176721506Y-106751988D01*
X176754701Y-106799396D01*
X176754706Y-106799402D01*
X176921797Y-106966493D01*
X176921803Y-106966498D01*
X177107358Y-107096425D01*
X177150983Y-107151002D01*
X177158177Y-107220500D01*
X177126654Y-107282855D01*
X177107358Y-107299575D01*
X176921797Y-107429505D01*
X176754705Y-107596597D01*
X176619165Y-107790169D01*
X176619164Y-107790171D01*
X176519298Y-108004335D01*
X176519294Y-108004344D01*
X176458138Y-108232586D01*
X176458136Y-108232596D01*
X176437541Y-108467999D01*
X176437541Y-108468000D01*
X176458136Y-108703403D01*
X176458138Y-108703413D01*
X176519294Y-108931655D01*
X176519296Y-108931659D01*
X176519297Y-108931663D01*
X176609307Y-109124690D01*
X176619165Y-109145830D01*
X176619167Y-109145834D01*
X176727481Y-109300521D01*
X176754701Y-109339396D01*
X176754706Y-109339402D01*
X176921797Y-109506493D01*
X176921803Y-109506498D01*
X177107358Y-109636425D01*
X177150983Y-109691002D01*
X177158177Y-109760500D01*
X177126654Y-109822855D01*
X177107358Y-109839575D01*
X176921797Y-109969505D01*
X176754705Y-110136597D01*
X176619165Y-110330169D01*
X176619164Y-110330171D01*
X176519298Y-110544335D01*
X176519294Y-110544344D01*
X176458138Y-110772586D01*
X176458136Y-110772596D01*
X176437541Y-111007999D01*
X176437541Y-111008000D01*
X176458136Y-111243403D01*
X176458138Y-111243413D01*
X176519294Y-111471655D01*
X176519296Y-111471659D01*
X176519297Y-111471663D01*
X176605157Y-111655789D01*
X176619165Y-111685830D01*
X176619167Y-111685834D01*
X176727481Y-111840521D01*
X176754701Y-111879396D01*
X176754706Y-111879402D01*
X176921797Y-112046493D01*
X176921803Y-112046498D01*
X177107358Y-112176425D01*
X177150983Y-112231002D01*
X177158177Y-112300500D01*
X177126654Y-112362855D01*
X177107358Y-112379575D01*
X176921797Y-112509505D01*
X176754705Y-112676597D01*
X176619165Y-112870169D01*
X176619164Y-112870171D01*
X176519298Y-113084335D01*
X176519294Y-113084344D01*
X176458138Y-113312586D01*
X176458136Y-113312596D01*
X176437541Y-113547999D01*
X176437541Y-113548000D01*
X176458136Y-113783403D01*
X176458138Y-113783413D01*
X176519294Y-114011655D01*
X176519296Y-114011659D01*
X176519297Y-114011663D01*
X176603148Y-114191482D01*
X176619165Y-114225830D01*
X176619167Y-114225834D01*
X176689539Y-114326335D01*
X176754701Y-114419396D01*
X176754706Y-114419402D01*
X176921797Y-114586493D01*
X176921803Y-114586498D01*
X177107358Y-114716425D01*
X177150983Y-114771002D01*
X177158177Y-114840500D01*
X177126654Y-114902855D01*
X177107358Y-114919575D01*
X176921797Y-115049505D01*
X176754705Y-115216597D01*
X176619165Y-115410169D01*
X176619164Y-115410171D01*
X176519298Y-115624335D01*
X176519294Y-115624344D01*
X176458138Y-115852586D01*
X176458136Y-115852596D01*
X176437541Y-116087999D01*
X176437541Y-116088000D01*
X176458136Y-116323403D01*
X176458138Y-116323413D01*
X176519294Y-116551655D01*
X176519296Y-116551659D01*
X176519297Y-116551663D01*
X176598850Y-116722264D01*
X176619165Y-116765830D01*
X176619167Y-116765834D01*
X176682842Y-116856770D01*
X176754701Y-116959396D01*
X176754706Y-116959402D01*
X176921797Y-117126493D01*
X176921803Y-117126498D01*
X177107794Y-117256730D01*
X177151419Y-117311307D01*
X177158613Y-117380805D01*
X177127090Y-117443160D01*
X177107795Y-117459880D01*
X176922122Y-117589890D01*
X176922120Y-117589891D01*
X176755091Y-117756920D01*
X176755086Y-117756926D01*
X176619600Y-117950420D01*
X176619599Y-117950422D01*
X176519770Y-118164507D01*
X176519767Y-118164513D01*
X176462564Y-118377999D01*
X176462564Y-118378000D01*
X177179853Y-118378000D01*
X177246892Y-118397685D01*
X177292647Y-118450489D01*
X177302591Y-118519647D01*
X177298831Y-118536933D01*
X177293200Y-118556111D01*
X177293200Y-118699888D01*
X177298831Y-118719067D01*
X177298830Y-118788936D01*
X177261055Y-118847714D01*
X177197499Y-118876738D01*
X177179853Y-118878000D01*
X176462564Y-118878000D01*
X176519767Y-119091486D01*
X176519770Y-119091492D01*
X176619599Y-119305578D01*
X176755094Y-119499082D01*
X176922117Y-119666105D01*
X177107795Y-119796119D01*
X177151419Y-119850696D01*
X177158612Y-119920195D01*
X177127090Y-119982549D01*
X177107795Y-119999269D01*
X176921794Y-120129508D01*
X176754705Y-120296597D01*
X176619165Y-120490169D01*
X176619164Y-120490171D01*
X176519298Y-120704335D01*
X176519294Y-120704344D01*
X176458138Y-120932586D01*
X176458136Y-120932596D01*
X176437541Y-121167999D01*
X176437541Y-121168000D01*
X176458136Y-121403403D01*
X176458138Y-121403413D01*
X176519294Y-121631655D01*
X176519296Y-121631659D01*
X176519297Y-121631663D01*
X176609307Y-121824690D01*
X176619165Y-121845830D01*
X176619167Y-121845834D01*
X176659929Y-121904047D01*
X176754701Y-122039396D01*
X176754706Y-122039402D01*
X176921797Y-122206493D01*
X176921803Y-122206498D01*
X177107358Y-122336425D01*
X177150983Y-122391002D01*
X177158177Y-122460500D01*
X177126654Y-122522855D01*
X177107358Y-122539575D01*
X176921797Y-122669505D01*
X176754705Y-122836597D01*
X176619165Y-123030169D01*
X176619164Y-123030171D01*
X176519298Y-123244335D01*
X176519294Y-123244344D01*
X176458138Y-123472586D01*
X176458136Y-123472596D01*
X176437541Y-123707999D01*
X176437541Y-123708000D01*
X176458136Y-123943403D01*
X176458138Y-123943413D01*
X176519294Y-124171655D01*
X176519296Y-124171659D01*
X176519297Y-124171663D01*
X176605922Y-124357430D01*
X176619165Y-124385830D01*
X176619167Y-124385834D01*
X176727481Y-124540521D01*
X176754701Y-124579396D01*
X176754706Y-124579402D01*
X176921797Y-124746493D01*
X176921803Y-124746498D01*
X177107794Y-124876730D01*
X177151419Y-124931307D01*
X177158613Y-125000805D01*
X177127090Y-125063160D01*
X177107795Y-125079880D01*
X176922122Y-125209890D01*
X176922120Y-125209891D01*
X176755091Y-125376920D01*
X176755086Y-125376926D01*
X176619600Y-125570420D01*
X176619599Y-125570422D01*
X176519770Y-125784507D01*
X176519767Y-125784513D01*
X176462564Y-125997999D01*
X176462564Y-125998000D01*
X177179853Y-125998000D01*
X177246892Y-126017685D01*
X177292647Y-126070489D01*
X177302591Y-126139647D01*
X177298831Y-126156933D01*
X177293200Y-126176111D01*
X177293200Y-126319888D01*
X177298831Y-126339067D01*
X177298830Y-126408936D01*
X177261055Y-126467714D01*
X177197499Y-126496738D01*
X177179853Y-126498000D01*
X176462564Y-126498000D01*
X176519767Y-126711486D01*
X176519770Y-126711492D01*
X176619599Y-126925578D01*
X176755094Y-127119082D01*
X176922117Y-127286105D01*
X177107795Y-127416119D01*
X177151419Y-127470696D01*
X177158612Y-127540195D01*
X177127090Y-127602549D01*
X177107795Y-127619269D01*
X176921794Y-127749508D01*
X176754705Y-127916597D01*
X176619165Y-128110169D01*
X176619164Y-128110171D01*
X176519298Y-128324335D01*
X176519294Y-128324344D01*
X176458138Y-128552586D01*
X176458136Y-128552596D01*
X176437541Y-128787999D01*
X176437541Y-128788000D01*
X175260000Y-128788000D01*
X175260000Y-92811600D01*
X212801200Y-92811600D01*
X213055200Y-93065600D01*
X214824764Y-93065600D01*
X214891803Y-93085285D01*
X214937558Y-93138089D01*
X214947502Y-93207247D01*
X214918477Y-93270803D01*
X214865718Y-93306642D01*
X214821225Y-93322210D01*
X214682795Y-93409192D01*
X214567192Y-93524795D01*
X214480210Y-93663225D01*
X214426212Y-93817544D01*
X214407909Y-93979996D01*
X214407909Y-93980003D01*
X214426212Y-94142455D01*
X214480210Y-94296774D01*
X214546543Y-94402341D01*
X214567192Y-94435204D01*
X214682796Y-94550808D01*
X214821225Y-94637789D01*
X214975539Y-94691786D01*
X214975542Y-94691786D01*
X214975544Y-94691787D01*
X215137996Y-94710091D01*
X215138000Y-94710091D01*
X215138004Y-94710091D01*
X215300455Y-94691787D01*
X215300456Y-94691786D01*
X215300461Y-94691786D01*
X215454775Y-94637789D01*
X215593204Y-94550808D01*
X215708808Y-94435204D01*
X215795789Y-94296775D01*
X215849786Y-94142461D01*
X215849787Y-94142455D01*
X215868091Y-93980003D01*
X215868091Y-93979996D01*
X215849787Y-93817544D01*
X215849786Y-93817542D01*
X215849786Y-93817539D01*
X215795789Y-93663225D01*
X215708808Y-93524796D01*
X215593204Y-93409192D01*
X215454774Y-93322210D01*
X215410282Y-93306642D01*
X215353506Y-93265920D01*
X215327758Y-93200967D01*
X215341214Y-93132406D01*
X215389601Y-93082003D01*
X215451236Y-93065600D01*
X216234434Y-93065600D01*
X216301473Y-93085285D01*
X216347228Y-93138089D01*
X216358427Y-93188358D01*
X216382600Y-95605600D01*
X219560600Y-95605600D01*
X219627639Y-95625285D01*
X219673394Y-95678089D01*
X219684600Y-95729600D01*
X219684599Y-98414799D01*
X219684600Y-98414798D01*
X219684600Y-98414800D01*
X225247200Y-98379346D01*
X225247200Y-98302000D01*
X238834385Y-98302000D01*
X241699939Y-98302000D01*
X241766978Y-98321685D01*
X241812733Y-98374489D01*
X241823779Y-98432279D01*
X241818651Y-98533413D01*
X241815114Y-98603164D01*
X241815114Y-98603165D01*
X241823702Y-98659223D01*
X241814396Y-98728470D01*
X241769130Y-98781693D01*
X241702274Y-98801995D01*
X241701132Y-98802000D01*
X238837793Y-98802000D01*
X238850375Y-98927076D01*
X238850376Y-98927079D01*
X238920208Y-99220107D01*
X238920210Y-99220116D01*
X239028474Y-99501216D01*
X239028481Y-99501231D01*
X239173248Y-99765395D01*
X239173252Y-99765401D01*
X239351935Y-100007911D01*
X239561355Y-100224451D01*
X239561362Y-100224457D01*
X239797768Y-100411145D01*
X240056948Y-100564657D01*
X240056966Y-100564666D01*
X240334283Y-100682260D01*
X240334300Y-100682265D01*
X240624826Y-100761848D01*
X240923384Y-100802000D01*
X242573999Y-100802000D01*
X242574000Y-99678700D01*
X242593685Y-99611661D01*
X242646489Y-99565906D01*
X242715647Y-99555962D01*
X242721305Y-99556950D01*
X242721797Y-99557000D01*
X242721801Y-99557000D01*
X242874967Y-99557000D01*
X242937455Y-99550645D01*
X243006141Y-99563446D01*
X243057004Y-99611349D01*
X243074000Y-99674009D01*
X243073999Y-100802000D01*
X244649236Y-100802000D01*
X244874564Y-100786915D01*
X244874573Y-100786913D01*
X245169758Y-100726916D01*
X245169773Y-100726912D01*
X245454343Y-100628098D01*
X245454346Y-100628096D01*
X245723198Y-100492240D01*
X245971564Y-100321745D01*
X246194971Y-100119685D01*
X246389464Y-99889638D01*
X246551554Y-99635728D01*
X246551555Y-99635726D01*
X246678351Y-99362485D01*
X246678356Y-99362471D01*
X246767605Y-99074765D01*
X246813615Y-98802000D01*
X243948061Y-98802000D01*
X243881022Y-98782315D01*
X243835267Y-98729511D01*
X243824220Y-98671720D01*
X243824338Y-98669387D01*
X243832886Y-98500835D01*
X243824298Y-98444775D01*
X243833604Y-98375530D01*
X243878870Y-98322307D01*
X243945726Y-98302005D01*
X243946868Y-98302000D01*
X246810207Y-98302000D01*
X246810207Y-98301999D01*
X246797624Y-98176923D01*
X246797623Y-98176920D01*
X246727791Y-97883892D01*
X246727789Y-97883883D01*
X246619525Y-97602783D01*
X246619518Y-97602768D01*
X246474751Y-97338604D01*
X246474747Y-97338598D01*
X246296064Y-97096088D01*
X246086644Y-96879548D01*
X246086637Y-96879542D01*
X245850231Y-96692854D01*
X245591051Y-96539342D01*
X245591033Y-96539333D01*
X245313716Y-96421739D01*
X245313699Y-96421734D01*
X245023173Y-96342151D01*
X244724617Y-96302000D01*
X243073999Y-96302000D01*
X243073999Y-97425299D01*
X243054314Y-97492339D01*
X243001510Y-97538093D01*
X242932352Y-97548037D01*
X242926696Y-97547050D01*
X242926203Y-97547000D01*
X242926199Y-97547000D01*
X242773033Y-97547000D01*
X242773031Y-97547000D01*
X242710543Y-97553354D01*
X242641856Y-97540552D01*
X242590994Y-97492648D01*
X242573999Y-97429990D01*
X242574000Y-96302000D01*
X240998764Y-96302000D01*
X240773435Y-96317084D01*
X240773426Y-96317086D01*
X240478241Y-96377083D01*
X240478226Y-96377087D01*
X240193656Y-96475901D01*
X240193653Y-96475903D01*
X239924801Y-96611759D01*
X239676435Y-96782254D01*
X239453028Y-96984314D01*
X239258535Y-97214361D01*
X239096445Y-97468271D01*
X239096444Y-97468273D01*
X238969648Y-97741514D01*
X238969643Y-97741528D01*
X238880394Y-98029234D01*
X238834385Y-98302000D01*
X225247200Y-98302000D01*
X225247200Y-95402962D01*
X225266885Y-95335923D01*
X225283519Y-95315281D01*
X227293681Y-93305119D01*
X227355004Y-93271634D01*
X227381362Y-93268800D01*
X228701038Y-93268800D01*
X228768077Y-93288485D01*
X228788718Y-93305118D01*
X229819200Y-94335600D01*
X236267052Y-94335600D01*
X236334091Y-94355285D01*
X236354728Y-94371914D01*
X236405750Y-94422936D01*
X236454862Y-94472048D01*
X236486352Y-94494097D01*
X236641266Y-94602568D01*
X236847504Y-94698739D01*
X237067308Y-94757635D01*
X237237216Y-94772500D01*
X238250784Y-94772500D01*
X238420692Y-94757635D01*
X238640496Y-94698739D01*
X238846734Y-94602568D01*
X239033139Y-94472047D01*
X239194047Y-94311139D01*
X239324568Y-94124734D01*
X239420739Y-93918496D01*
X239479635Y-93698692D01*
X239499468Y-93472000D01*
X239479635Y-93245308D01*
X239420739Y-93025504D01*
X239324568Y-92819266D01*
X239194047Y-92632861D01*
X239194045Y-92632858D01*
X239033141Y-92471954D01*
X238846734Y-92341432D01*
X238846732Y-92341431D01*
X238835275Y-92336088D01*
X238788132Y-92314105D01*
X238735694Y-92267934D01*
X238716542Y-92200740D01*
X238736758Y-92133859D01*
X238788134Y-92089341D01*
X238846484Y-92062132D01*
X239032820Y-91931657D01*
X239193657Y-91770820D01*
X239324134Y-91584482D01*
X239420265Y-91378326D01*
X239420269Y-91378317D01*
X239472872Y-91182000D01*
X238298874Y-91182000D01*
X238231835Y-91162315D01*
X238186080Y-91109511D01*
X238176136Y-91040353D01*
X238177983Y-91030407D01*
X238192768Y-90965628D01*
X238182049Y-90822594D01*
X238183821Y-90822461D01*
X238187408Y-90763864D01*
X238228701Y-90707502D01*
X238293911Y-90682413D01*
X238304029Y-90682000D01*
X239472872Y-90682000D01*
X239472872Y-90681999D01*
X239420269Y-90485682D01*
X239420265Y-90485673D01*
X239324134Y-90279517D01*
X239193657Y-90093179D01*
X239032820Y-89932342D01*
X238846482Y-89801865D01*
X238640326Y-89705734D01*
X238640317Y-89705730D01*
X238420610Y-89646860D01*
X238420599Y-89646858D01*
X238250763Y-89632000D01*
X237993999Y-89632000D01*
X237993999Y-90375411D01*
X237974314Y-90442451D01*
X237921510Y-90488205D01*
X237852352Y-90498149D01*
X237833449Y-90493902D01*
X237811074Y-90487000D01*
X237811073Y-90487000D01*
X237710654Y-90487000D01*
X237710646Y-90487000D01*
X237636481Y-90498179D01*
X237567256Y-90488706D01*
X237514143Y-90443311D01*
X237494003Y-90376407D01*
X237494000Y-90375564D01*
X237494000Y-89632000D01*
X237237237Y-89632000D01*
X237067400Y-89646858D01*
X237067389Y-89646860D01*
X236847682Y-89705730D01*
X236847673Y-89705734D01*
X236641517Y-89801865D01*
X236455179Y-89932342D01*
X236294342Y-90093179D01*
X236163865Y-90279517D01*
X236067734Y-90485673D01*
X236067730Y-90485682D01*
X236015127Y-90681999D01*
X236015128Y-90682000D01*
X237189126Y-90682000D01*
X237256165Y-90701685D01*
X237301920Y-90754489D01*
X237311864Y-90823647D01*
X237310017Y-90833593D01*
X237295232Y-90898370D01*
X237295231Y-90898370D01*
X237305951Y-91041406D01*
X237304178Y-91041538D01*
X237300592Y-91100136D01*
X237259299Y-91156498D01*
X237194089Y-91181587D01*
X237183971Y-91182000D01*
X236015128Y-91182000D01*
X236067730Y-91378317D01*
X236067734Y-91378326D01*
X236163865Y-91584482D01*
X236294342Y-91770820D01*
X236455179Y-91931657D01*
X236641518Y-92062134D01*
X236641520Y-92062135D01*
X236699865Y-92089342D01*
X236752305Y-92135514D01*
X236771457Y-92202707D01*
X236751242Y-92269589D01*
X236699867Y-92314105D01*
X236641268Y-92341431D01*
X236641264Y-92341433D01*
X236454858Y-92471954D01*
X236293954Y-92632858D01*
X236205824Y-92758723D01*
X236151248Y-92802348D01*
X236104249Y-92811600D01*
X230378562Y-92811600D01*
X230311523Y-92791915D01*
X230290881Y-92775281D01*
X228549200Y-91033600D01*
X212801200Y-91033600D01*
X212801200Y-92811600D01*
X175260000Y-92811600D01*
X175260000Y-88266370D01*
X196311500Y-88266370D01*
X196311501Y-88266376D01*
X196317908Y-88325983D01*
X196368202Y-88460828D01*
X196368206Y-88460835D01*
X196454452Y-88576044D01*
X196454455Y-88576047D01*
X196569664Y-88662293D01*
X196569671Y-88662297D01*
X196704517Y-88712591D01*
X196704516Y-88712591D01*
X196711444Y-88713335D01*
X196764127Y-88719000D01*
X198459872Y-88718999D01*
X198519483Y-88712591D01*
X198654331Y-88662296D01*
X198769546Y-88576046D01*
X198855796Y-88460831D01*
X198906091Y-88325983D01*
X198912500Y-88266373D01*
X198912500Y-88142000D01*
X238834385Y-88142000D01*
X241699939Y-88142000D01*
X241766978Y-88161685D01*
X241812733Y-88214489D01*
X241823779Y-88272279D01*
X241820303Y-88340835D01*
X241815114Y-88443164D01*
X241815114Y-88443165D01*
X241823702Y-88499223D01*
X241814396Y-88568470D01*
X241769130Y-88621693D01*
X241702274Y-88641995D01*
X241701132Y-88642000D01*
X238837793Y-88642000D01*
X238850375Y-88767076D01*
X238850376Y-88767079D01*
X238920208Y-89060107D01*
X238920210Y-89060116D01*
X239028474Y-89341216D01*
X239028481Y-89341231D01*
X239173248Y-89605395D01*
X239173252Y-89605401D01*
X239351935Y-89847911D01*
X239561355Y-90064451D01*
X239561362Y-90064457D01*
X239797768Y-90251145D01*
X240056948Y-90404657D01*
X240056966Y-90404666D01*
X240334283Y-90522260D01*
X240334300Y-90522265D01*
X240624826Y-90601848D01*
X240923384Y-90642000D01*
X242573999Y-90642000D01*
X242574000Y-89518700D01*
X242593685Y-89451661D01*
X242646489Y-89405906D01*
X242715647Y-89395962D01*
X242721305Y-89396950D01*
X242721797Y-89397000D01*
X242721801Y-89397000D01*
X242874967Y-89397000D01*
X242937455Y-89390645D01*
X243006141Y-89403446D01*
X243057004Y-89451349D01*
X243074000Y-89514009D01*
X243073999Y-90641999D01*
X243074000Y-90642000D01*
X244649236Y-90642000D01*
X244874564Y-90626915D01*
X244874573Y-90626913D01*
X245169758Y-90566916D01*
X245169773Y-90566912D01*
X245454343Y-90468098D01*
X245454346Y-90468096D01*
X245723198Y-90332240D01*
X245971564Y-90161745D01*
X246194971Y-89959685D01*
X246389464Y-89729638D01*
X246551554Y-89475728D01*
X246551555Y-89475726D01*
X246678351Y-89202485D01*
X246678356Y-89202471D01*
X246767605Y-88914765D01*
X246813615Y-88642000D01*
X243948061Y-88642000D01*
X243881022Y-88622315D01*
X243835267Y-88569511D01*
X243824220Y-88511720D01*
X243824854Y-88499223D01*
X243832886Y-88340835D01*
X243824298Y-88284775D01*
X243833604Y-88215530D01*
X243878870Y-88162307D01*
X243945726Y-88142005D01*
X243946868Y-88142000D01*
X246810207Y-88142000D01*
X246810207Y-88141999D01*
X246797624Y-88016923D01*
X246797623Y-88016920D01*
X246727791Y-87723892D01*
X246727789Y-87723883D01*
X246619525Y-87442783D01*
X246619518Y-87442768D01*
X246474751Y-87178604D01*
X246474747Y-87178598D01*
X246296064Y-86936088D01*
X246086644Y-86719548D01*
X246086637Y-86719542D01*
X245850231Y-86532854D01*
X245591051Y-86379342D01*
X245591033Y-86379333D01*
X245313716Y-86261739D01*
X245313699Y-86261734D01*
X245023173Y-86182151D01*
X244724617Y-86142000D01*
X243073999Y-86142000D01*
X243073999Y-87265299D01*
X243054314Y-87332339D01*
X243001510Y-87378093D01*
X242932352Y-87388037D01*
X242926696Y-87387050D01*
X242926203Y-87387000D01*
X242926199Y-87387000D01*
X242773033Y-87387000D01*
X242773031Y-87387000D01*
X242710543Y-87393354D01*
X242641856Y-87380552D01*
X242590994Y-87332648D01*
X242573999Y-87269990D01*
X242574000Y-86142000D01*
X240998764Y-86142000D01*
X240773435Y-86157084D01*
X240773426Y-86157086D01*
X240478241Y-86217083D01*
X240478226Y-86217087D01*
X240193656Y-86315901D01*
X240193653Y-86315903D01*
X239924801Y-86451759D01*
X239676435Y-86622254D01*
X239453028Y-86824314D01*
X239258535Y-87054361D01*
X239096445Y-87308271D01*
X239096444Y-87308273D01*
X238969648Y-87581514D01*
X238969643Y-87581528D01*
X238880394Y-87869234D01*
X238834385Y-88142000D01*
X198912500Y-88142000D01*
X198912499Y-86570628D01*
X198906091Y-86511017D01*
X198883989Y-86451759D01*
X198855797Y-86376171D01*
X198855793Y-86376164D01*
X198769547Y-86260955D01*
X198769544Y-86260952D01*
X198654335Y-86174706D01*
X198654328Y-86174702D01*
X198519482Y-86124408D01*
X198519483Y-86124408D01*
X198459883Y-86118001D01*
X198459881Y-86118000D01*
X198459873Y-86118000D01*
X198459864Y-86118000D01*
X196764129Y-86118000D01*
X196764123Y-86118001D01*
X196704516Y-86124408D01*
X196569671Y-86174702D01*
X196569664Y-86174706D01*
X196454455Y-86260952D01*
X196454452Y-86260955D01*
X196368206Y-86376164D01*
X196368202Y-86376171D01*
X196317908Y-86511017D01*
X196311501Y-86570616D01*
X196311501Y-86570623D01*
X196311500Y-86570635D01*
X196311500Y-88266370D01*
X175260000Y-88266370D01*
X175260000Y-76706763D01*
X179548000Y-76706763D01*
X179562858Y-76876599D01*
X179562860Y-76876610D01*
X179621730Y-77096317D01*
X179621734Y-77096326D01*
X179717865Y-77302482D01*
X179848342Y-77488820D01*
X180009179Y-77649657D01*
X180195517Y-77780134D01*
X180401673Y-77876265D01*
X180401679Y-77876268D01*
X180597998Y-77928871D01*
X180597998Y-76756588D01*
X180617683Y-76689549D01*
X180670486Y-76643794D01*
X180739645Y-76633850D01*
X180758548Y-76638097D01*
X180780927Y-76645000D01*
X180881345Y-76645000D01*
X180881346Y-76645000D01*
X180955519Y-76633820D01*
X181024742Y-76643293D01*
X181077857Y-76688687D01*
X181097997Y-76755591D01*
X181098000Y-76756435D01*
X181097999Y-77928871D01*
X181098000Y-77928872D01*
X181294317Y-77876269D01*
X181294326Y-77876265D01*
X181500482Y-77780134D01*
X181686820Y-77649657D01*
X181847657Y-77488820D01*
X181978132Y-77302484D01*
X182005341Y-77244134D01*
X182051513Y-77191695D01*
X182118707Y-77172542D01*
X182185588Y-77192757D01*
X182230106Y-77244133D01*
X182257431Y-77302732D01*
X182257432Y-77302734D01*
X182387954Y-77489141D01*
X182548858Y-77650045D01*
X182548861Y-77650047D01*
X182735266Y-77780568D01*
X182941504Y-77876739D01*
X183161308Y-77935635D01*
X183323230Y-77949801D01*
X183387998Y-77955468D01*
X183388000Y-77955468D01*
X183388002Y-77955468D01*
X183444673Y-77950509D01*
X183614692Y-77935635D01*
X183834496Y-77876739D01*
X184040734Y-77780568D01*
X184227139Y-77650047D01*
X184388047Y-77489139D01*
X184518568Y-77302734D01*
X184614739Y-77096496D01*
X184673635Y-76876692D01*
X184688500Y-76706784D01*
X184688500Y-76706763D01*
X237460000Y-76706763D01*
X237474858Y-76876599D01*
X237474860Y-76876610D01*
X237533730Y-77096317D01*
X237533734Y-77096326D01*
X237629865Y-77302482D01*
X237760342Y-77488820D01*
X237921179Y-77649657D01*
X238107517Y-77780134D01*
X238313673Y-77876265D01*
X238313679Y-77876268D01*
X238509998Y-77928871D01*
X238509999Y-77928871D01*
X238509999Y-76756588D01*
X238529684Y-76689549D01*
X238582488Y-76643794D01*
X238651646Y-76633850D01*
X238670544Y-76638095D01*
X238692927Y-76645000D01*
X238692928Y-76645000D01*
X238793345Y-76645000D01*
X238793346Y-76645000D01*
X238867518Y-76633820D01*
X238936741Y-76643292D01*
X238989855Y-76688687D01*
X239009996Y-76755591D01*
X239009999Y-76756435D01*
X239009999Y-77928871D01*
X239010000Y-77928872D01*
X239206317Y-77876269D01*
X239206326Y-77876265D01*
X239412482Y-77780134D01*
X239598820Y-77649657D01*
X239759657Y-77488820D01*
X239890132Y-77302484D01*
X239917341Y-77244134D01*
X239963513Y-77191695D01*
X240030707Y-77172542D01*
X240097588Y-77192757D01*
X240142106Y-77244133D01*
X240169431Y-77302732D01*
X240169432Y-77302734D01*
X240299954Y-77489141D01*
X240460858Y-77650045D01*
X240460861Y-77650047D01*
X240647266Y-77780568D01*
X240853504Y-77876739D01*
X241073308Y-77935635D01*
X241235230Y-77949801D01*
X241299998Y-77955468D01*
X241300000Y-77955468D01*
X241300002Y-77955468D01*
X241356673Y-77950509D01*
X241526692Y-77935635D01*
X241746496Y-77876739D01*
X241952734Y-77780568D01*
X242139139Y-77650047D01*
X242300047Y-77489139D01*
X242430568Y-77302734D01*
X242526739Y-77096496D01*
X242585635Y-76876692D01*
X242600500Y-76706784D01*
X242600500Y-75693216D01*
X242585635Y-75523308D01*
X242526739Y-75303504D01*
X242430568Y-75097266D01*
X242300047Y-74910861D01*
X242300045Y-74910858D01*
X242139141Y-74749954D01*
X241952734Y-74619432D01*
X241952732Y-74619431D01*
X241746497Y-74523261D01*
X241746488Y-74523258D01*
X241526697Y-74464366D01*
X241526693Y-74464365D01*
X241526692Y-74464365D01*
X241526691Y-74464364D01*
X241526686Y-74464364D01*
X241300002Y-74444532D01*
X241299998Y-74444532D01*
X241073313Y-74464364D01*
X241073302Y-74464366D01*
X240853511Y-74523258D01*
X240853502Y-74523261D01*
X240647267Y-74619431D01*
X240647265Y-74619432D01*
X240460858Y-74749954D01*
X240299954Y-74910858D01*
X240171982Y-75093624D01*
X240169432Y-75097266D01*
X240169315Y-75097518D01*
X240142106Y-75155867D01*
X240095933Y-75208306D01*
X240028739Y-75227457D01*
X239961858Y-75207241D01*
X239917342Y-75155865D01*
X239890135Y-75097520D01*
X239890134Y-75097518D01*
X239759657Y-74911179D01*
X239598820Y-74750342D01*
X239412482Y-74619865D01*
X239206328Y-74523734D01*
X239009999Y-74471127D01*
X239010000Y-75643411D01*
X238990315Y-75710450D01*
X238937511Y-75756205D01*
X238868353Y-75766149D01*
X238849451Y-75761902D01*
X238827075Y-75755000D01*
X238827073Y-75755000D01*
X238726654Y-75755000D01*
X238726646Y-75755000D01*
X238652480Y-75766179D01*
X238583255Y-75756706D01*
X238530141Y-75711311D01*
X238510002Y-75644406D01*
X238509999Y-75643564D01*
X238509999Y-74471127D01*
X238313672Y-74523734D01*
X238107517Y-74619865D01*
X237921179Y-74750342D01*
X237760342Y-74911179D01*
X237629865Y-75097517D01*
X237533734Y-75303673D01*
X237533730Y-75303682D01*
X237474860Y-75523389D01*
X237474858Y-75523400D01*
X237460000Y-75693237D01*
X237460000Y-75950000D01*
X238205126Y-75950000D01*
X238272165Y-75969685D01*
X238317920Y-76022489D01*
X238327864Y-76091647D01*
X238326017Y-76101593D01*
X238311232Y-76166370D01*
X238311231Y-76166370D01*
X238321951Y-76309406D01*
X238320178Y-76309538D01*
X238316592Y-76368136D01*
X238275299Y-76424498D01*
X238210089Y-76449587D01*
X238199971Y-76450000D01*
X237460000Y-76450000D01*
X237460000Y-76706763D01*
X184688500Y-76706763D01*
X184688500Y-75693216D01*
X184673635Y-75523308D01*
X184614739Y-75303504D01*
X184518568Y-75097266D01*
X184388047Y-74910861D01*
X184388045Y-74910858D01*
X184227141Y-74749954D01*
X184040734Y-74619432D01*
X184040732Y-74619431D01*
X183834497Y-74523261D01*
X183834488Y-74523258D01*
X183614697Y-74464366D01*
X183614693Y-74464365D01*
X183614692Y-74464365D01*
X183614691Y-74464364D01*
X183614686Y-74464364D01*
X183388002Y-74444532D01*
X183387998Y-74444532D01*
X183161313Y-74464364D01*
X183161302Y-74464366D01*
X182941511Y-74523258D01*
X182941502Y-74523261D01*
X182735267Y-74619431D01*
X182735265Y-74619432D01*
X182548858Y-74749954D01*
X182387954Y-74910858D01*
X182259982Y-75093624D01*
X182257432Y-75097266D01*
X182257315Y-75097518D01*
X182230106Y-75155867D01*
X182183933Y-75208306D01*
X182116739Y-75227457D01*
X182049858Y-75207241D01*
X182005342Y-75155865D01*
X181978135Y-75097520D01*
X181978134Y-75097518D01*
X181847657Y-74911179D01*
X181686820Y-74750342D01*
X181500482Y-74619865D01*
X181294328Y-74523734D01*
X181098000Y-74471127D01*
X181098000Y-75643411D01*
X181078315Y-75710450D01*
X181025511Y-75756205D01*
X180956353Y-75766149D01*
X180937451Y-75761902D01*
X180915075Y-75755000D01*
X180915073Y-75755000D01*
X180814654Y-75755000D01*
X180814646Y-75755000D01*
X180740480Y-75766179D01*
X180671255Y-75756706D01*
X180618141Y-75711311D01*
X180598002Y-75644406D01*
X180597999Y-75643564D01*
X180597999Y-74471127D01*
X180401672Y-74523734D01*
X180195517Y-74619865D01*
X180009179Y-74750342D01*
X179848342Y-74911179D01*
X179717865Y-75097517D01*
X179621734Y-75303673D01*
X179621730Y-75303682D01*
X179562860Y-75523389D01*
X179562858Y-75523400D01*
X179548000Y-75693237D01*
X179548000Y-75950000D01*
X180293126Y-75950000D01*
X180360165Y-75969685D01*
X180405920Y-76022489D01*
X180415864Y-76091647D01*
X180414017Y-76101593D01*
X180399232Y-76166370D01*
X180399231Y-76166370D01*
X180409951Y-76309406D01*
X180408178Y-76309538D01*
X180404592Y-76368136D01*
X180363299Y-76424498D01*
X180298089Y-76449587D01*
X180287971Y-76450000D01*
X179548000Y-76450000D01*
X179548000Y-76706763D01*
X175260000Y-76706763D01*
X175260000Y-72945236D01*
X176058000Y-72945236D01*
X176073084Y-73170564D01*
X176073086Y-73170573D01*
X176133083Y-73465758D01*
X176133087Y-73465773D01*
X176231901Y-73750343D01*
X176231903Y-73750346D01*
X176367759Y-74019198D01*
X176538254Y-74267564D01*
X176740314Y-74490971D01*
X176970361Y-74685464D01*
X177224271Y-74847554D01*
X177224273Y-74847555D01*
X177497514Y-74974351D01*
X177497528Y-74974356D01*
X177785234Y-75063605D01*
X178058000Y-75109614D01*
X178058000Y-72246700D01*
X178077685Y-72179661D01*
X178130489Y-72133906D01*
X178199647Y-72123962D01*
X178205305Y-72124950D01*
X178205797Y-72125000D01*
X178205801Y-72125000D01*
X178358967Y-72125000D01*
X178421455Y-72118645D01*
X178490141Y-72131446D01*
X178541004Y-72179349D01*
X178558000Y-72242009D01*
X178558000Y-75106207D01*
X178683076Y-75093624D01*
X178683079Y-75093623D01*
X178976107Y-75023791D01*
X178976116Y-75023789D01*
X179257216Y-74915525D01*
X179257231Y-74915518D01*
X179521395Y-74770751D01*
X179521401Y-74770747D01*
X179763911Y-74592064D01*
X179980451Y-74382644D01*
X179980457Y-74382637D01*
X180167145Y-74146231D01*
X180320657Y-73887051D01*
X180320666Y-73887033D01*
X180438260Y-73609716D01*
X180438265Y-73609699D01*
X180517848Y-73319173D01*
X180558000Y-73020616D01*
X180558000Y-72945236D01*
X186218000Y-72945236D01*
X186233084Y-73170564D01*
X186233086Y-73170573D01*
X186293083Y-73465758D01*
X186293087Y-73465773D01*
X186391901Y-73750343D01*
X186391903Y-73750346D01*
X186527759Y-74019198D01*
X186698254Y-74267564D01*
X186900314Y-74490971D01*
X187130361Y-74685464D01*
X187384271Y-74847554D01*
X187384273Y-74847555D01*
X187657514Y-74974351D01*
X187657528Y-74974356D01*
X187945234Y-75063605D01*
X188218000Y-75109614D01*
X188218000Y-72246700D01*
X188237685Y-72179661D01*
X188290489Y-72133906D01*
X188359647Y-72123962D01*
X188365305Y-72124950D01*
X188365797Y-72125000D01*
X188365801Y-72125000D01*
X188518967Y-72125000D01*
X188581455Y-72118645D01*
X188650141Y-72131446D01*
X188701004Y-72179349D01*
X188718000Y-72242009D01*
X188718000Y-75106207D01*
X188843076Y-75093624D01*
X188843079Y-75093623D01*
X189136107Y-75023791D01*
X189136116Y-75023789D01*
X189417216Y-74915525D01*
X189417231Y-74915518D01*
X189681395Y-74770751D01*
X189681401Y-74770747D01*
X189923911Y-74592064D01*
X190140451Y-74382644D01*
X190140457Y-74382637D01*
X190327145Y-74146231D01*
X190480657Y-73887051D01*
X190480666Y-73887033D01*
X190598260Y-73609716D01*
X190598265Y-73609699D01*
X190677848Y-73319173D01*
X190718000Y-73020616D01*
X190718000Y-72945236D01*
X233970000Y-72945236D01*
X233985084Y-73170564D01*
X233985086Y-73170573D01*
X234045083Y-73465758D01*
X234045087Y-73465773D01*
X234143901Y-73750343D01*
X234143903Y-73750346D01*
X234279759Y-74019198D01*
X234450254Y-74267564D01*
X234652314Y-74490971D01*
X234882361Y-74685464D01*
X235136271Y-74847554D01*
X235136273Y-74847555D01*
X235409514Y-74974351D01*
X235409528Y-74974356D01*
X235697234Y-75063605D01*
X235970000Y-75109614D01*
X235970000Y-72246700D01*
X235989685Y-72179661D01*
X236042489Y-72133906D01*
X236111647Y-72123962D01*
X236117305Y-72124950D01*
X236117797Y-72125000D01*
X236117801Y-72125000D01*
X236270967Y-72125000D01*
X236333455Y-72118645D01*
X236402141Y-72131446D01*
X236453004Y-72179349D01*
X236470000Y-72242009D01*
X236470000Y-75106207D01*
X236595076Y-75093624D01*
X236595079Y-75093623D01*
X236888107Y-75023791D01*
X236888116Y-75023789D01*
X237169216Y-74915525D01*
X237169231Y-74915518D01*
X237433395Y-74770751D01*
X237433401Y-74770747D01*
X237675911Y-74592064D01*
X237892451Y-74382644D01*
X237892457Y-74382637D01*
X238079145Y-74146231D01*
X238232657Y-73887051D01*
X238232666Y-73887033D01*
X238350260Y-73609716D01*
X238350265Y-73609699D01*
X238429848Y-73319173D01*
X238470000Y-73020616D01*
X238470000Y-72945236D01*
X244130000Y-72945236D01*
X244145084Y-73170564D01*
X244145086Y-73170573D01*
X244205083Y-73465758D01*
X244205087Y-73465773D01*
X244303901Y-73750343D01*
X244303903Y-73750346D01*
X244439759Y-74019198D01*
X244610254Y-74267564D01*
X244812314Y-74490971D01*
X245042361Y-74685464D01*
X245296271Y-74847554D01*
X245296273Y-74847555D01*
X245569514Y-74974351D01*
X245569528Y-74974356D01*
X245857234Y-75063605D01*
X246130000Y-75109614D01*
X246130000Y-72246700D01*
X246149685Y-72179661D01*
X246202489Y-72133906D01*
X246271647Y-72123962D01*
X246277305Y-72124950D01*
X246277797Y-72125000D01*
X246277801Y-72125000D01*
X246430967Y-72125000D01*
X246493455Y-72118645D01*
X246562141Y-72131446D01*
X246613004Y-72179349D01*
X246630000Y-72242009D01*
X246630000Y-75106207D01*
X246755076Y-75093624D01*
X246755079Y-75093623D01*
X247048107Y-75023791D01*
X247048116Y-75023789D01*
X247329216Y-74915525D01*
X247329231Y-74915518D01*
X247593395Y-74770751D01*
X247593401Y-74770747D01*
X247835911Y-74592064D01*
X248052451Y-74382644D01*
X248052457Y-74382637D01*
X248239145Y-74146231D01*
X248392657Y-73887051D01*
X248392666Y-73887033D01*
X248510260Y-73609716D01*
X248510265Y-73609699D01*
X248589848Y-73319173D01*
X248630000Y-73020616D01*
X248630000Y-71370000D01*
X247504061Y-71370000D01*
X247437022Y-71350315D01*
X247391267Y-71297511D01*
X247380220Y-71239720D01*
X247380854Y-71227223D01*
X247388886Y-71068835D01*
X247380298Y-71012775D01*
X247389604Y-70943530D01*
X247434870Y-70890307D01*
X247501726Y-70870005D01*
X247502868Y-70870000D01*
X248630000Y-70870000D01*
X248630000Y-69294764D01*
X248614915Y-69069435D01*
X248614913Y-69069426D01*
X248554916Y-68774241D01*
X248554912Y-68774226D01*
X248456098Y-68489656D01*
X248456096Y-68489653D01*
X248320240Y-68220801D01*
X248149745Y-67972435D01*
X247947685Y-67749028D01*
X247717638Y-67554535D01*
X247463728Y-67392445D01*
X247463726Y-67392444D01*
X247190485Y-67265648D01*
X247190471Y-67265643D01*
X246902765Y-67176394D01*
X246630000Y-67130384D01*
X246630000Y-69993299D01*
X246610315Y-70060338D01*
X246557511Y-70106093D01*
X246488353Y-70116037D01*
X246482697Y-70115050D01*
X246482203Y-70115000D01*
X246482199Y-70115000D01*
X246329033Y-70115000D01*
X246329031Y-70115000D01*
X246266544Y-70121354D01*
X246197857Y-70108552D01*
X246146995Y-70060648D01*
X246130000Y-69997990D01*
X246130000Y-67133792D01*
X246004922Y-67146375D01*
X246004920Y-67146376D01*
X245711892Y-67216208D01*
X245711883Y-67216210D01*
X245430783Y-67324474D01*
X245430768Y-67324481D01*
X245166604Y-67469248D01*
X245166598Y-67469252D01*
X244924088Y-67647935D01*
X244707548Y-67857355D01*
X244707542Y-67857362D01*
X244520854Y-68093768D01*
X244367342Y-68352948D01*
X244367333Y-68352966D01*
X244249739Y-68630283D01*
X244249734Y-68630300D01*
X244170151Y-68920826D01*
X244130000Y-69219383D01*
X244130000Y-70870000D01*
X245255939Y-70870000D01*
X245322978Y-70889685D01*
X245368733Y-70942489D01*
X245379779Y-71000279D01*
X245376303Y-71068835D01*
X245371114Y-71171164D01*
X245371114Y-71171165D01*
X245379702Y-71227223D01*
X245370396Y-71296470D01*
X245325130Y-71349693D01*
X245258274Y-71369995D01*
X245257132Y-71370000D01*
X244130000Y-71370000D01*
X244130000Y-72945236D01*
X238470000Y-72945236D01*
X238470000Y-71370000D01*
X237344061Y-71370000D01*
X237277022Y-71350315D01*
X237231267Y-71297511D01*
X237220220Y-71239720D01*
X237220854Y-71227223D01*
X237228886Y-71068835D01*
X237220298Y-71012775D01*
X237229604Y-70943530D01*
X237274870Y-70890307D01*
X237341726Y-70870005D01*
X237342868Y-70870000D01*
X238470000Y-70870000D01*
X238470000Y-69294764D01*
X238454915Y-69069435D01*
X238454913Y-69069426D01*
X238394916Y-68774241D01*
X238394912Y-68774226D01*
X238296098Y-68489656D01*
X238296096Y-68489653D01*
X238160240Y-68220801D01*
X237989745Y-67972435D01*
X237787685Y-67749028D01*
X237557638Y-67554535D01*
X237303728Y-67392445D01*
X237303726Y-67392444D01*
X237030485Y-67265648D01*
X237030471Y-67265643D01*
X236742765Y-67176394D01*
X236470000Y-67130384D01*
X236470000Y-69993299D01*
X236450315Y-70060338D01*
X236397511Y-70106093D01*
X236328353Y-70116037D01*
X236322697Y-70115050D01*
X236322203Y-70115000D01*
X236322199Y-70115000D01*
X236169033Y-70115000D01*
X236169031Y-70115000D01*
X236106544Y-70121354D01*
X236037857Y-70108552D01*
X235986995Y-70060648D01*
X235970000Y-69997990D01*
X235970000Y-67133792D01*
X235844922Y-67146375D01*
X235844920Y-67146376D01*
X235551892Y-67216208D01*
X235551883Y-67216210D01*
X235270783Y-67324474D01*
X235270768Y-67324481D01*
X235006604Y-67469248D01*
X235006598Y-67469252D01*
X234764088Y-67647935D01*
X234547548Y-67857355D01*
X234547542Y-67857362D01*
X234360854Y-68093768D01*
X234207342Y-68352948D01*
X234207333Y-68352966D01*
X234089739Y-68630283D01*
X234089734Y-68630300D01*
X234010151Y-68920826D01*
X233970000Y-69219383D01*
X233970000Y-70870000D01*
X235095939Y-70870000D01*
X235162978Y-70889685D01*
X235208733Y-70942489D01*
X235219779Y-71000279D01*
X235216303Y-71068835D01*
X235211114Y-71171164D01*
X235211114Y-71171165D01*
X235219702Y-71227223D01*
X235210396Y-71296470D01*
X235165130Y-71349693D01*
X235098274Y-71369995D01*
X235097132Y-71370000D01*
X233970000Y-71370000D01*
X233970000Y-72945236D01*
X190718000Y-72945236D01*
X190718000Y-71370000D01*
X189592061Y-71370000D01*
X189525022Y-71350315D01*
X189479267Y-71297511D01*
X189468220Y-71239720D01*
X189468854Y-71227223D01*
X189476886Y-71068835D01*
X189468298Y-71012775D01*
X189477604Y-70943530D01*
X189522870Y-70890307D01*
X189589726Y-70870005D01*
X189590868Y-70870000D01*
X190718000Y-70870000D01*
X190718000Y-69294764D01*
X190712694Y-69215500D01*
X192954341Y-69215500D01*
X192974936Y-69450903D01*
X192974938Y-69450913D01*
X193036094Y-69679155D01*
X193036096Y-69679159D01*
X193036097Y-69679163D01*
X193115801Y-69850088D01*
X193135965Y-69893330D01*
X193135967Y-69893334D01*
X193205964Y-69993299D01*
X193271505Y-70086901D01*
X193438599Y-70253995D01*
X193535384Y-70321765D01*
X193632165Y-70389532D01*
X193632167Y-70389533D01*
X193632170Y-70389535D01*
X193846337Y-70489403D01*
X194074592Y-70550563D01*
X194251034Y-70566000D01*
X194309999Y-70571159D01*
X194310000Y-70571159D01*
X194310001Y-70571159D01*
X194368966Y-70566000D01*
X194545408Y-70550563D01*
X194773663Y-70489403D01*
X194987830Y-70389535D01*
X195181401Y-70253995D01*
X195348495Y-70086901D01*
X195478426Y-69901340D01*
X195533001Y-69857717D01*
X195602499Y-69850523D01*
X195664854Y-69882046D01*
X195681574Y-69901341D01*
X195811505Y-70086901D01*
X195978599Y-70253995D01*
X196075384Y-70321765D01*
X196172165Y-70389532D01*
X196172167Y-70389533D01*
X196172170Y-70389535D01*
X196386337Y-70489403D01*
X196614592Y-70550563D01*
X196791034Y-70566000D01*
X196849999Y-70571159D01*
X196850000Y-70571159D01*
X196850001Y-70571159D01*
X196908966Y-70566000D01*
X197085408Y-70550563D01*
X197313663Y-70489403D01*
X197527830Y-70389535D01*
X197721401Y-70253995D01*
X197888495Y-70086901D01*
X198018426Y-69901341D01*
X198073002Y-69857717D01*
X198142500Y-69850523D01*
X198204855Y-69882046D01*
X198221575Y-69901342D01*
X198351500Y-70086895D01*
X198351505Y-70086901D01*
X198518599Y-70253995D01*
X198615384Y-70321765D01*
X198712165Y-70389532D01*
X198712167Y-70389533D01*
X198712170Y-70389535D01*
X198926337Y-70489403D01*
X199154592Y-70550563D01*
X199331034Y-70566000D01*
X199389999Y-70571159D01*
X199390000Y-70571159D01*
X199390001Y-70571159D01*
X199448966Y-70566000D01*
X199625408Y-70550563D01*
X199853663Y-70489403D01*
X200067830Y-70389535D01*
X200261401Y-70253995D01*
X200428495Y-70086901D01*
X200558426Y-69901340D01*
X200613001Y-69857717D01*
X200682499Y-69850523D01*
X200744854Y-69882046D01*
X200761574Y-69901341D01*
X200891505Y-70086901D01*
X201058599Y-70253995D01*
X201155384Y-70321765D01*
X201252165Y-70389532D01*
X201252167Y-70389533D01*
X201252170Y-70389535D01*
X201466337Y-70489403D01*
X201694592Y-70550563D01*
X201871034Y-70566000D01*
X201929999Y-70571159D01*
X201930000Y-70571159D01*
X201930001Y-70571159D01*
X201988966Y-70566000D01*
X202165408Y-70550563D01*
X202393663Y-70489403D01*
X202607830Y-70389535D01*
X202801401Y-70253995D01*
X202968495Y-70086901D01*
X203098426Y-69901341D01*
X203153002Y-69857717D01*
X203222500Y-69850523D01*
X203284855Y-69882046D01*
X203301575Y-69901342D01*
X203431500Y-70086895D01*
X203431505Y-70086901D01*
X203598599Y-70253995D01*
X203695384Y-70321765D01*
X203792165Y-70389532D01*
X203792167Y-70389533D01*
X203792170Y-70389535D01*
X204006337Y-70489403D01*
X204234592Y-70550563D01*
X204411034Y-70566000D01*
X204469999Y-70571159D01*
X204470000Y-70571159D01*
X204470001Y-70571159D01*
X204528966Y-70566000D01*
X204705408Y-70550563D01*
X204933663Y-70489403D01*
X205147830Y-70389535D01*
X205341401Y-70253995D01*
X205508495Y-70086901D01*
X205638426Y-69901340D01*
X205693001Y-69857717D01*
X205762499Y-69850523D01*
X205824854Y-69882046D01*
X205841574Y-69901341D01*
X205971505Y-70086901D01*
X206138599Y-70253995D01*
X206235384Y-70321765D01*
X206332165Y-70389532D01*
X206332167Y-70389533D01*
X206332170Y-70389535D01*
X206546337Y-70489403D01*
X206774592Y-70550563D01*
X206951034Y-70566000D01*
X207009999Y-70571159D01*
X207010000Y-70571159D01*
X207010001Y-70571159D01*
X207068966Y-70566000D01*
X207245408Y-70550563D01*
X207473663Y-70489403D01*
X207687830Y-70389535D01*
X207881401Y-70253995D01*
X208048495Y-70086901D01*
X208178426Y-69901341D01*
X208233002Y-69857717D01*
X208302500Y-69850523D01*
X208364855Y-69882046D01*
X208381575Y-69901342D01*
X208511500Y-70086895D01*
X208511505Y-70086901D01*
X208678599Y-70253995D01*
X208775384Y-70321765D01*
X208872165Y-70389532D01*
X208872167Y-70389533D01*
X208872170Y-70389535D01*
X209086337Y-70489403D01*
X209314592Y-70550563D01*
X209491034Y-70566000D01*
X209549999Y-70571159D01*
X209550000Y-70571159D01*
X209550001Y-70571159D01*
X209608966Y-70566000D01*
X209785408Y-70550563D01*
X210013663Y-70489403D01*
X210227830Y-70389535D01*
X210421401Y-70253995D01*
X210588495Y-70086901D01*
X210718426Y-69901341D01*
X210773002Y-69857717D01*
X210842500Y-69850523D01*
X210904855Y-69882046D01*
X210921575Y-69901342D01*
X211051500Y-70086895D01*
X211051505Y-70086901D01*
X211218599Y-70253995D01*
X211315384Y-70321765D01*
X211412165Y-70389532D01*
X211412167Y-70389533D01*
X211412170Y-70389535D01*
X211626337Y-70489403D01*
X211854592Y-70550563D01*
X212031034Y-70566000D01*
X212089999Y-70571159D01*
X212090000Y-70571159D01*
X212090001Y-70571159D01*
X212148966Y-70566000D01*
X212325408Y-70550563D01*
X212553663Y-70489403D01*
X212767830Y-70389535D01*
X212961401Y-70253995D01*
X213128495Y-70086901D01*
X213258426Y-69901341D01*
X213313002Y-69857717D01*
X213382500Y-69850523D01*
X213444855Y-69882046D01*
X213461575Y-69901342D01*
X213591500Y-70086895D01*
X213591505Y-70086901D01*
X213758599Y-70253995D01*
X213855384Y-70321765D01*
X213952165Y-70389532D01*
X213952167Y-70389533D01*
X213952170Y-70389535D01*
X214166337Y-70489403D01*
X214394592Y-70550563D01*
X214571034Y-70566000D01*
X214629999Y-70571159D01*
X214630000Y-70571159D01*
X214630001Y-70571159D01*
X214688966Y-70566000D01*
X214865408Y-70550563D01*
X215093663Y-70489403D01*
X215307830Y-70389535D01*
X215501401Y-70253995D01*
X215668495Y-70086901D01*
X215798730Y-69900905D01*
X215853307Y-69857281D01*
X215922805Y-69850087D01*
X215985160Y-69881610D01*
X216001879Y-69900905D01*
X216131890Y-70086578D01*
X216298917Y-70253605D01*
X216492421Y-70389100D01*
X216706507Y-70488929D01*
X216706516Y-70488933D01*
X216920000Y-70546134D01*
X216920000Y-69827801D01*
X216939685Y-69760762D01*
X216992489Y-69715007D01*
X217061647Y-69705063D01*
X217134237Y-69715500D01*
X217134238Y-69715500D01*
X217205762Y-69715500D01*
X217205763Y-69715500D01*
X217278353Y-69705063D01*
X217347512Y-69715007D01*
X217400315Y-69760762D01*
X217420000Y-69827801D01*
X217420000Y-70546133D01*
X217633483Y-70488933D01*
X217633492Y-70488929D01*
X217847578Y-70389100D01*
X218041082Y-70253605D01*
X218208105Y-70086582D01*
X218338119Y-69900905D01*
X218392696Y-69857281D01*
X218462195Y-69850088D01*
X218524549Y-69881610D01*
X218541269Y-69900905D01*
X218671505Y-70086901D01*
X218838599Y-70253995D01*
X218935384Y-70321765D01*
X219032165Y-70389532D01*
X219032167Y-70389533D01*
X219032170Y-70389535D01*
X219246337Y-70489403D01*
X219474592Y-70550563D01*
X219651034Y-70566000D01*
X219709999Y-70571159D01*
X219710000Y-70571159D01*
X219710001Y-70571159D01*
X219768966Y-70566000D01*
X219945408Y-70550563D01*
X220173663Y-70489403D01*
X220387830Y-70389535D01*
X220581401Y-70253995D01*
X220748495Y-70086901D01*
X220878426Y-69901341D01*
X220933002Y-69857717D01*
X221002500Y-69850523D01*
X221064855Y-69882046D01*
X221081575Y-69901342D01*
X221211500Y-70086895D01*
X221211505Y-70086901D01*
X221378599Y-70253995D01*
X221475384Y-70321765D01*
X221572165Y-70389532D01*
X221572167Y-70389533D01*
X221572170Y-70389535D01*
X221786337Y-70489403D01*
X222014592Y-70550563D01*
X222191034Y-70566000D01*
X222249999Y-70571159D01*
X222250000Y-70571159D01*
X222250001Y-70571159D01*
X222308966Y-70566000D01*
X222485408Y-70550563D01*
X222713663Y-70489403D01*
X222927830Y-70389535D01*
X223121401Y-70253995D01*
X223288495Y-70086901D01*
X223418730Y-69900905D01*
X223473307Y-69857281D01*
X223542805Y-69850087D01*
X223605160Y-69881610D01*
X223621879Y-69900905D01*
X223751890Y-70086578D01*
X223918917Y-70253605D01*
X224112421Y-70389100D01*
X224326507Y-70488929D01*
X224326516Y-70488933D01*
X224540000Y-70546134D01*
X224540000Y-69827801D01*
X224559685Y-69760762D01*
X224612489Y-69715007D01*
X224681647Y-69705063D01*
X224754237Y-69715500D01*
X224754238Y-69715500D01*
X224825762Y-69715500D01*
X224825763Y-69715500D01*
X224898353Y-69705063D01*
X224967512Y-69715007D01*
X225020315Y-69760762D01*
X225040000Y-69827801D01*
X225040000Y-70546134D01*
X225253483Y-70488933D01*
X225253492Y-70488929D01*
X225467578Y-70389100D01*
X225661082Y-70253605D01*
X225828105Y-70086582D01*
X225958119Y-69900905D01*
X226012696Y-69857281D01*
X226082195Y-69850088D01*
X226144549Y-69881610D01*
X226161269Y-69900905D01*
X226291505Y-70086901D01*
X226458599Y-70253995D01*
X226555384Y-70321764D01*
X226652165Y-70389532D01*
X226652167Y-70389533D01*
X226652170Y-70389535D01*
X226866337Y-70489403D01*
X227094592Y-70550563D01*
X227271034Y-70566000D01*
X227329999Y-70571159D01*
X227330000Y-70571159D01*
X227330001Y-70571159D01*
X227388966Y-70566000D01*
X227565408Y-70550563D01*
X227793663Y-70489403D01*
X228007830Y-70389535D01*
X228201401Y-70253995D01*
X228323329Y-70132066D01*
X228384648Y-70098584D01*
X228454340Y-70103568D01*
X228510274Y-70145439D01*
X228527189Y-70176417D01*
X228576202Y-70307828D01*
X228576206Y-70307835D01*
X228662452Y-70423044D01*
X228662455Y-70423047D01*
X228777664Y-70509293D01*
X228777671Y-70509297D01*
X228912517Y-70559591D01*
X228912516Y-70559591D01*
X228919444Y-70560335D01*
X228972127Y-70566000D01*
X230767872Y-70565999D01*
X230827483Y-70559591D01*
X230962331Y-70509296D01*
X231077546Y-70423046D01*
X231163796Y-70307831D01*
X231214091Y-70172983D01*
X231220500Y-70113373D01*
X231220499Y-68317628D01*
X231214091Y-68258017D01*
X231212810Y-68254583D01*
X231163797Y-68123171D01*
X231163795Y-68123168D01*
X231141786Y-68093768D01*
X231086234Y-68019559D01*
X231061817Y-67954098D01*
X231076668Y-67885824D01*
X231086230Y-67870945D01*
X231163796Y-67767331D01*
X231214091Y-67632483D01*
X231220500Y-67572873D01*
X231220499Y-65777128D01*
X231214091Y-65717517D01*
X231212810Y-65714083D01*
X231163797Y-65582671D01*
X231163793Y-65582664D01*
X231077547Y-65467455D01*
X231077544Y-65467452D01*
X230962335Y-65381206D01*
X230962328Y-65381202D01*
X230827482Y-65330908D01*
X230827483Y-65330908D01*
X230767883Y-65324501D01*
X230767881Y-65324500D01*
X230767873Y-65324500D01*
X230767864Y-65324500D01*
X228972129Y-65324500D01*
X228972123Y-65324501D01*
X228912516Y-65330908D01*
X228777671Y-65381202D01*
X228777664Y-65381206D01*
X228662455Y-65467452D01*
X228662452Y-65467455D01*
X228576206Y-65582664D01*
X228576203Y-65582669D01*
X228527189Y-65714083D01*
X228485317Y-65770016D01*
X228419853Y-65794433D01*
X228351580Y-65779581D01*
X228323326Y-65758430D01*
X228201402Y-65636506D01*
X228201395Y-65636501D01*
X228007834Y-65500967D01*
X228007830Y-65500965D01*
X228007829Y-65500964D01*
X227793663Y-65401097D01*
X227793659Y-65401096D01*
X227793655Y-65401094D01*
X227565413Y-65339938D01*
X227565403Y-65339936D01*
X227330001Y-65319341D01*
X227329999Y-65319341D01*
X227094596Y-65339936D01*
X227094586Y-65339938D01*
X226866344Y-65401094D01*
X226866335Y-65401098D01*
X226652171Y-65500964D01*
X226652169Y-65500965D01*
X226458597Y-65636505D01*
X226291508Y-65803594D01*
X226161269Y-65989595D01*
X226106692Y-66033219D01*
X226037193Y-66040412D01*
X225974839Y-66008890D01*
X225958119Y-65989594D01*
X225828113Y-65803926D01*
X225828108Y-65803920D01*
X225661082Y-65636894D01*
X225467578Y-65501399D01*
X225253492Y-65401570D01*
X225253486Y-65401567D01*
X225040000Y-65344364D01*
X225040000Y-66062698D01*
X225020315Y-66129737D01*
X224967511Y-66175492D01*
X224898355Y-66185436D01*
X224825766Y-66175000D01*
X224825763Y-66175000D01*
X224754237Y-66175000D01*
X224754233Y-66175000D01*
X224681645Y-66185436D01*
X224612487Y-66175492D01*
X224559684Y-66129736D01*
X224540000Y-66062698D01*
X224540000Y-65344364D01*
X224539999Y-65344364D01*
X224326513Y-65401567D01*
X224326507Y-65401570D01*
X224112422Y-65501399D01*
X224112420Y-65501400D01*
X223918926Y-65636886D01*
X223918920Y-65636891D01*
X223751891Y-65803920D01*
X223751890Y-65803922D01*
X223621880Y-65989595D01*
X223567303Y-66033219D01*
X223497804Y-66040412D01*
X223435450Y-66008890D01*
X223418730Y-65989594D01*
X223288494Y-65803597D01*
X223121402Y-65636506D01*
X223121395Y-65636501D01*
X222927834Y-65500967D01*
X222927830Y-65500965D01*
X222927830Y-65500964D01*
X222713663Y-65401097D01*
X222713659Y-65401096D01*
X222713655Y-65401094D01*
X222485413Y-65339938D01*
X222485403Y-65339936D01*
X222250001Y-65319341D01*
X222249999Y-65319341D01*
X222014596Y-65339936D01*
X222014586Y-65339938D01*
X221786344Y-65401094D01*
X221786335Y-65401098D01*
X221572171Y-65500964D01*
X221572169Y-65500965D01*
X221378597Y-65636505D01*
X221211505Y-65803597D01*
X221081575Y-65989158D01*
X221026998Y-66032783D01*
X220957500Y-66039977D01*
X220895145Y-66008454D01*
X220878425Y-65989158D01*
X220748494Y-65803597D01*
X220581402Y-65636506D01*
X220581395Y-65636501D01*
X220387834Y-65500967D01*
X220387830Y-65500965D01*
X220387829Y-65500964D01*
X220173663Y-65401097D01*
X220173659Y-65401096D01*
X220173655Y-65401094D01*
X219945413Y-65339938D01*
X219945403Y-65339936D01*
X219710001Y-65319341D01*
X219709999Y-65319341D01*
X219474596Y-65339936D01*
X219474586Y-65339938D01*
X219246344Y-65401094D01*
X219246335Y-65401098D01*
X219032171Y-65500964D01*
X219032169Y-65500965D01*
X218838597Y-65636505D01*
X218671508Y-65803594D01*
X218541269Y-65989595D01*
X218486692Y-66033219D01*
X218417193Y-66040412D01*
X218354839Y-66008890D01*
X218338119Y-65989594D01*
X218208113Y-65803926D01*
X218208108Y-65803920D01*
X218041082Y-65636894D01*
X217847578Y-65501399D01*
X217633492Y-65401570D01*
X217633486Y-65401567D01*
X217420000Y-65344364D01*
X217420000Y-66062698D01*
X217400315Y-66129737D01*
X217347511Y-66175492D01*
X217278355Y-66185436D01*
X217205766Y-66175000D01*
X217205763Y-66175000D01*
X217134237Y-66175000D01*
X217134233Y-66175000D01*
X217061645Y-66185436D01*
X216992487Y-66175492D01*
X216939684Y-66129736D01*
X216920000Y-66062698D01*
X216920000Y-65344364D01*
X216919999Y-65344364D01*
X216706513Y-65401567D01*
X216706507Y-65401570D01*
X216492422Y-65501399D01*
X216492420Y-65501400D01*
X216298926Y-65636886D01*
X216298920Y-65636891D01*
X216131891Y-65803920D01*
X216131890Y-65803922D01*
X216001880Y-65989595D01*
X215947303Y-66033219D01*
X215877804Y-66040412D01*
X215815450Y-66008890D01*
X215798730Y-65989594D01*
X215668494Y-65803597D01*
X215501402Y-65636506D01*
X215501395Y-65636501D01*
X215307834Y-65500967D01*
X215307830Y-65500965D01*
X215307830Y-65500964D01*
X215093663Y-65401097D01*
X215093659Y-65401096D01*
X215093655Y-65401094D01*
X214865413Y-65339938D01*
X214865403Y-65339936D01*
X214630001Y-65319341D01*
X214629999Y-65319341D01*
X214394596Y-65339936D01*
X214394586Y-65339938D01*
X214166344Y-65401094D01*
X214166335Y-65401098D01*
X213952171Y-65500964D01*
X213952169Y-65500965D01*
X213758597Y-65636505D01*
X213591505Y-65803597D01*
X213461575Y-65989158D01*
X213406998Y-66032783D01*
X213337500Y-66039977D01*
X213275145Y-66008454D01*
X213258425Y-65989158D01*
X213128494Y-65803597D01*
X212961402Y-65636506D01*
X212961395Y-65636501D01*
X212767834Y-65500967D01*
X212767830Y-65500965D01*
X212767829Y-65500964D01*
X212553663Y-65401097D01*
X212553659Y-65401096D01*
X212553655Y-65401094D01*
X212325413Y-65339938D01*
X212325403Y-65339936D01*
X212090001Y-65319341D01*
X212089999Y-65319341D01*
X211854596Y-65339936D01*
X211854586Y-65339938D01*
X211626344Y-65401094D01*
X211626335Y-65401098D01*
X211412171Y-65500964D01*
X211412169Y-65500965D01*
X211218597Y-65636505D01*
X211051508Y-65803594D01*
X210921574Y-65989159D01*
X210866997Y-66032784D01*
X210797498Y-66039976D01*
X210735144Y-66008454D01*
X210718424Y-65989158D01*
X210588494Y-65803597D01*
X210421402Y-65636506D01*
X210421395Y-65636501D01*
X210227834Y-65500967D01*
X210227830Y-65500965D01*
X210227829Y-65500964D01*
X210013663Y-65401097D01*
X210013659Y-65401096D01*
X210013655Y-65401094D01*
X209785413Y-65339938D01*
X209785403Y-65339936D01*
X209550001Y-65319341D01*
X209549999Y-65319341D01*
X209314596Y-65339936D01*
X209314586Y-65339938D01*
X209086344Y-65401094D01*
X209086335Y-65401098D01*
X208872171Y-65500964D01*
X208872169Y-65500965D01*
X208678597Y-65636505D01*
X208511508Y-65803594D01*
X208381574Y-65989159D01*
X208326997Y-66032784D01*
X208257498Y-66039976D01*
X208195144Y-66008454D01*
X208178424Y-65989158D01*
X208048494Y-65803597D01*
X207881402Y-65636506D01*
X207881395Y-65636501D01*
X207687834Y-65500967D01*
X207687830Y-65500965D01*
X207687829Y-65500964D01*
X207473663Y-65401097D01*
X207473659Y-65401096D01*
X207473655Y-65401094D01*
X207245413Y-65339938D01*
X207245403Y-65339936D01*
X207010001Y-65319341D01*
X207009999Y-65319341D01*
X206774596Y-65339936D01*
X206774586Y-65339938D01*
X206546344Y-65401094D01*
X206546335Y-65401098D01*
X206332171Y-65500964D01*
X206332169Y-65500965D01*
X206138597Y-65636505D01*
X205971505Y-65803597D01*
X205841575Y-65989158D01*
X205786998Y-66032783D01*
X205717500Y-66039977D01*
X205655145Y-66008454D01*
X205638425Y-65989158D01*
X205508494Y-65803597D01*
X205341402Y-65636506D01*
X205341395Y-65636501D01*
X205147834Y-65500967D01*
X205147830Y-65500965D01*
X205147829Y-65500964D01*
X204933663Y-65401097D01*
X204933659Y-65401096D01*
X204933655Y-65401094D01*
X204705413Y-65339938D01*
X204705403Y-65339936D01*
X204470001Y-65319341D01*
X204469999Y-65319341D01*
X204234596Y-65339936D01*
X204234586Y-65339938D01*
X204006344Y-65401094D01*
X204006335Y-65401098D01*
X203792171Y-65500964D01*
X203792169Y-65500965D01*
X203598597Y-65636505D01*
X203431505Y-65803597D01*
X203301575Y-65989158D01*
X203246998Y-66032783D01*
X203177500Y-66039977D01*
X203115145Y-66008454D01*
X203098425Y-65989158D01*
X202968494Y-65803597D01*
X202801402Y-65636506D01*
X202801395Y-65636501D01*
X202607834Y-65500967D01*
X202607830Y-65500965D01*
X202607830Y-65500964D01*
X202393663Y-65401097D01*
X202393659Y-65401096D01*
X202393655Y-65401094D01*
X202165413Y-65339938D01*
X202165403Y-65339936D01*
X201930001Y-65319341D01*
X201929999Y-65319341D01*
X201694596Y-65339936D01*
X201694586Y-65339938D01*
X201466344Y-65401094D01*
X201466335Y-65401098D01*
X201252171Y-65500964D01*
X201252169Y-65500965D01*
X201058597Y-65636505D01*
X200891505Y-65803597D01*
X200761575Y-65989158D01*
X200706998Y-66032783D01*
X200637500Y-66039977D01*
X200575145Y-66008454D01*
X200558425Y-65989158D01*
X200428494Y-65803597D01*
X200261402Y-65636506D01*
X200261395Y-65636501D01*
X200067834Y-65500967D01*
X200067830Y-65500965D01*
X200067829Y-65500964D01*
X199853663Y-65401097D01*
X199853659Y-65401096D01*
X199853655Y-65401094D01*
X199625413Y-65339938D01*
X199625403Y-65339936D01*
X199390001Y-65319341D01*
X199389999Y-65319341D01*
X199154596Y-65339936D01*
X199154586Y-65339938D01*
X198926344Y-65401094D01*
X198926335Y-65401098D01*
X198712171Y-65500964D01*
X198712169Y-65500965D01*
X198518597Y-65636505D01*
X198351505Y-65803597D01*
X198221575Y-65989158D01*
X198166998Y-66032783D01*
X198097500Y-66039977D01*
X198035145Y-66008454D01*
X198018425Y-65989158D01*
X197888494Y-65803597D01*
X197721402Y-65636506D01*
X197721395Y-65636501D01*
X197527834Y-65500967D01*
X197527830Y-65500965D01*
X197527829Y-65500964D01*
X197313663Y-65401097D01*
X197313659Y-65401096D01*
X197313655Y-65401094D01*
X197085413Y-65339938D01*
X197085403Y-65339936D01*
X196850001Y-65319341D01*
X196849999Y-65319341D01*
X196614596Y-65339936D01*
X196614586Y-65339938D01*
X196386344Y-65401094D01*
X196386335Y-65401098D01*
X196172171Y-65500964D01*
X196172169Y-65500965D01*
X195978597Y-65636505D01*
X195811505Y-65803597D01*
X195681575Y-65989158D01*
X195626998Y-66032783D01*
X195557500Y-66039977D01*
X195495145Y-66008454D01*
X195478425Y-65989158D01*
X195348494Y-65803597D01*
X195181402Y-65636506D01*
X195181395Y-65636501D01*
X194987834Y-65500967D01*
X194987830Y-65500965D01*
X194987830Y-65500964D01*
X194773663Y-65401097D01*
X194773659Y-65401096D01*
X194773655Y-65401094D01*
X194545413Y-65339938D01*
X194545403Y-65339936D01*
X194310001Y-65319341D01*
X194309999Y-65319341D01*
X194074596Y-65339936D01*
X194074586Y-65339938D01*
X193846344Y-65401094D01*
X193846335Y-65401098D01*
X193632171Y-65500964D01*
X193632169Y-65500965D01*
X193438597Y-65636505D01*
X193271505Y-65803597D01*
X193135965Y-65997169D01*
X193135964Y-65997171D01*
X193036098Y-66211335D01*
X193036094Y-66211344D01*
X192974938Y-66439586D01*
X192974936Y-66439596D01*
X192954341Y-66674999D01*
X192954341Y-66675000D01*
X192974936Y-66910403D01*
X192974938Y-66910413D01*
X193036094Y-67138655D01*
X193036096Y-67138659D01*
X193036097Y-67138663D01*
X193115801Y-67309588D01*
X193135965Y-67352830D01*
X193135967Y-67352834D01*
X193244281Y-67507521D01*
X193271504Y-67546400D01*
X193271506Y-67546402D01*
X193438597Y-67713493D01*
X193438603Y-67713498D01*
X193624515Y-67843675D01*
X193668140Y-67898252D01*
X193675334Y-67967750D01*
X193643811Y-68030105D01*
X193624515Y-68046825D01*
X193438597Y-68177005D01*
X193271505Y-68344097D01*
X193135965Y-68537669D01*
X193135964Y-68537671D01*
X193036098Y-68751835D01*
X193036094Y-68751844D01*
X192974938Y-68980086D01*
X192974936Y-68980096D01*
X192954341Y-69215499D01*
X192954341Y-69215500D01*
X190712694Y-69215500D01*
X190702915Y-69069435D01*
X190702913Y-69069426D01*
X190642916Y-68774241D01*
X190642912Y-68774226D01*
X190544098Y-68489656D01*
X190544096Y-68489653D01*
X190408240Y-68220801D01*
X190237745Y-67972435D01*
X190035685Y-67749028D01*
X189805638Y-67554535D01*
X189551728Y-67392445D01*
X189551726Y-67392444D01*
X189278485Y-67265648D01*
X189278471Y-67265643D01*
X188990765Y-67176394D01*
X188717999Y-67130384D01*
X188717999Y-69993299D01*
X188698314Y-70060338D01*
X188645510Y-70106093D01*
X188576352Y-70116037D01*
X188570696Y-70115050D01*
X188570203Y-70115000D01*
X188570199Y-70115000D01*
X188417033Y-70115000D01*
X188417031Y-70115000D01*
X188354544Y-70121354D01*
X188285857Y-70108552D01*
X188234995Y-70060648D01*
X188218000Y-69997990D01*
X188218000Y-67133792D01*
X188092922Y-67146375D01*
X188092920Y-67146376D01*
X187799892Y-67216208D01*
X187799883Y-67216210D01*
X187518783Y-67324474D01*
X187518768Y-67324481D01*
X187254604Y-67469248D01*
X187254598Y-67469252D01*
X187012088Y-67647935D01*
X186795548Y-67857355D01*
X186795542Y-67857362D01*
X186608854Y-68093768D01*
X186455342Y-68352948D01*
X186455333Y-68352966D01*
X186337739Y-68630283D01*
X186337734Y-68630300D01*
X186258151Y-68920826D01*
X186218000Y-69219383D01*
X186218000Y-70870000D01*
X187343939Y-70870000D01*
X187410978Y-70889685D01*
X187456733Y-70942489D01*
X187467779Y-71000279D01*
X187464303Y-71068835D01*
X187459114Y-71171164D01*
X187459114Y-71171165D01*
X187467702Y-71227223D01*
X187458396Y-71296470D01*
X187413130Y-71349693D01*
X187346274Y-71369995D01*
X187345132Y-71370000D01*
X186218000Y-71370000D01*
X186218000Y-72945236D01*
X180558000Y-72945236D01*
X180558000Y-71370000D01*
X179432061Y-71370000D01*
X179365022Y-71350315D01*
X179319267Y-71297511D01*
X179308220Y-71239720D01*
X179308854Y-71227223D01*
X179316886Y-71068835D01*
X179308298Y-71012775D01*
X179317604Y-70943530D01*
X179362870Y-70890307D01*
X179429726Y-70870005D01*
X179430868Y-70870000D01*
X180558000Y-70870000D01*
X180558000Y-69294764D01*
X180542915Y-69069435D01*
X180542913Y-69069426D01*
X180482916Y-68774241D01*
X180482912Y-68774226D01*
X180384098Y-68489656D01*
X180384096Y-68489653D01*
X180248240Y-68220801D01*
X180077745Y-67972435D01*
X179875685Y-67749028D01*
X179645638Y-67554535D01*
X179391728Y-67392445D01*
X179391726Y-67392444D01*
X179118485Y-67265648D01*
X179118471Y-67265643D01*
X178830765Y-67176394D01*
X178558000Y-67130384D01*
X178558000Y-69993299D01*
X178538315Y-70060338D01*
X178485511Y-70106093D01*
X178416353Y-70116037D01*
X178410697Y-70115050D01*
X178410203Y-70115000D01*
X178410199Y-70115000D01*
X178257033Y-70115000D01*
X178257031Y-70115000D01*
X178194544Y-70121354D01*
X178125857Y-70108552D01*
X178074995Y-70060648D01*
X178058000Y-69997990D01*
X178058000Y-67133792D01*
X177932922Y-67146375D01*
X177932920Y-67146376D01*
X177639892Y-67216208D01*
X177639883Y-67216210D01*
X177358783Y-67324474D01*
X177358768Y-67324481D01*
X177094604Y-67469248D01*
X177094598Y-67469252D01*
X176852088Y-67647935D01*
X176635548Y-67857355D01*
X176635542Y-67857362D01*
X176448854Y-68093768D01*
X176295342Y-68352948D01*
X176295333Y-68352966D01*
X176177739Y-68630283D01*
X176177734Y-68630300D01*
X176098151Y-68920826D01*
X176058000Y-69219383D01*
X176058000Y-70870000D01*
X177183939Y-70870000D01*
X177250978Y-70889685D01*
X177296733Y-70942489D01*
X177307779Y-71000279D01*
X177304303Y-71068835D01*
X177299114Y-71171164D01*
X177299114Y-71171165D01*
X177307702Y-71227223D01*
X177298396Y-71296470D01*
X177253130Y-71349693D01*
X177186274Y-71369995D01*
X177185132Y-71370000D01*
X176058000Y-71370000D01*
X176058000Y-72945236D01*
X175260000Y-72945236D01*
X175260000Y-63116000D01*
X175279685Y-63048961D01*
X175332489Y-63003206D01*
X175384000Y-62992000D01*
X250138638Y-62992000D01*
X250205677Y-63011685D01*
G37*
G04 #@! TD.AperFunction*
M02*
