G04 #@! TF.GenerationSoftware,KiCad,Pcbnew,7.0.7*
G04 #@! TF.CreationDate,2023-12-28T09:15:15+02:00*
G04 #@! TF.ProjectId,AD3 Front End Amplifier,41443320-4672-46f6-9e74-20456e642041,rev?*
G04 #@! TF.SameCoordinates,Original*
G04 #@! TF.FileFunction,Copper,L4,Bot*
G04 #@! TF.FilePolarity,Positive*
%FSLAX46Y46*%
G04 Gerber Fmt 4.6, Leading zero omitted, Abs format (unit mm)*
G04 Created by KiCad (PCBNEW 7.0.7) date 2023-12-28 09:15:15*
%MOMM*%
%LPD*%
G01*
G04 APERTURE LIST*
G04 Aperture macros list*
%AMRoundRect*
0 Rectangle with rounded corners*
0 $1 Rounding radius*
0 $2 $3 $4 $5 $6 $7 $8 $9 X,Y pos of 4 corners*
0 Add a 4 corners polygon primitive as box body*
4,1,4,$2,$3,$4,$5,$6,$7,$8,$9,$2,$3,0*
0 Add four circle primitives for the rounded corners*
1,1,$1+$1,$2,$3*
1,1,$1+$1,$4,$5*
1,1,$1+$1,$6,$7*
1,1,$1+$1,$8,$9*
0 Add four rect primitives between the rounded corners*
20,1,$1+$1,$2,$3,$4,$5,0*
20,1,$1+$1,$4,$5,$6,$7,0*
20,1,$1+$1,$6,$7,$8,$9,0*
20,1,$1+$1,$8,$9,$2,$3,0*%
G04 Aperture macros list end*
G04 #@! TA.AperFunction,ComponentPad*
%ADD10R,1.600000X1.600000*%
G04 #@! TD*
G04 #@! TA.AperFunction,ComponentPad*
%ADD11O,1.600000X1.600000*%
G04 #@! TD*
G04 #@! TA.AperFunction,ComponentPad*
%ADD12O,1.600000X2.500000*%
G04 #@! TD*
G04 #@! TA.AperFunction,ComponentPad*
%ADD13O,3.500000X7.000000*%
G04 #@! TD*
G04 #@! TA.AperFunction,ComponentPad*
%ADD14R,1.700000X1.700000*%
G04 #@! TD*
G04 #@! TA.AperFunction,ComponentPad*
%ADD15O,1.700000X1.700000*%
G04 #@! TD*
G04 #@! TA.AperFunction,ComponentPad*
%ADD16O,2.500000X1.600000*%
G04 #@! TD*
G04 #@! TA.AperFunction,ComponentPad*
%ADD17O,7.000000X3.500000*%
G04 #@! TD*
G04 #@! TA.AperFunction,SMDPad,CuDef*
%ADD18RoundRect,0.237500X0.237500X-0.287500X0.237500X0.287500X-0.237500X0.287500X-0.237500X-0.287500X0*%
G04 #@! TD*
G04 #@! TA.AperFunction,SMDPad,CuDef*
%ADD19RoundRect,0.155000X0.212500X0.155000X-0.212500X0.155000X-0.212500X-0.155000X0.212500X-0.155000X0*%
G04 #@! TD*
G04 #@! TA.AperFunction,SMDPad,CuDef*
%ADD20R,0.900000X0.600000*%
G04 #@! TD*
G04 #@! TA.AperFunction,SMDPad,CuDef*
%ADD21RoundRect,0.155000X0.155000X-0.212500X0.155000X0.212500X-0.155000X0.212500X-0.155000X-0.212500X0*%
G04 #@! TD*
G04 #@! TA.AperFunction,SMDPad,CuDef*
%ADD22RoundRect,0.150000X-0.512500X-0.150000X0.512500X-0.150000X0.512500X0.150000X-0.512500X0.150000X0*%
G04 #@! TD*
G04 #@! TA.AperFunction,ViaPad*
%ADD23C,0.450000*%
G04 #@! TD*
G04 #@! TA.AperFunction,Conductor*
%ADD24C,0.500000*%
G04 #@! TD*
G04 #@! TA.AperFunction,Conductor*
%ADD25C,0.250000*%
G04 #@! TD*
G04 #@! TA.AperFunction,Conductor*
%ADD26C,0.349000*%
G04 #@! TD*
G04 APERTURE END LIST*
D10*
X197612000Y-98685500D03*
D11*
X197612000Y-106305500D03*
D12*
X241300000Y-76200000D03*
D13*
X236220000Y-71120000D03*
D12*
X238760000Y-76200000D03*
D13*
X246380000Y-71120000D03*
D10*
X197612000Y-113284000D03*
D11*
X197612000Y-120904000D03*
D14*
X180340000Y-131318000D03*
D15*
X180340000Y-128778000D03*
X180340000Y-126238000D03*
X180340000Y-123698000D03*
X180340000Y-121158000D03*
X180340000Y-118618000D03*
X180340000Y-116078000D03*
X180340000Y-113538000D03*
X180340000Y-110998000D03*
X180340000Y-108458000D03*
X180340000Y-105918000D03*
X180340000Y-103378000D03*
X180340000Y-100838000D03*
X180340000Y-98298000D03*
X180340000Y-95758000D03*
D14*
X229870000Y-66675000D03*
D15*
X227330000Y-66675000D03*
X224790000Y-66675000D03*
X222250000Y-66675000D03*
X219710000Y-66675000D03*
X217170000Y-66675000D03*
X214630000Y-66675000D03*
X212090000Y-66675000D03*
X209550000Y-66675000D03*
X207010000Y-66675000D03*
X204470000Y-66675000D03*
X201930000Y-66675000D03*
X199390000Y-66675000D03*
X196850000Y-66675000D03*
X194310000Y-66675000D03*
D10*
X197612000Y-87418500D03*
D11*
X197612000Y-95038500D03*
D16*
X237794800Y-119430400D03*
D17*
X242874800Y-114350400D03*
D16*
X237794800Y-116890400D03*
D17*
X242874800Y-124510400D03*
D12*
X183388000Y-76200000D03*
D13*
X178308000Y-71120000D03*
D12*
X180848000Y-76200000D03*
D13*
X188468000Y-71120000D03*
D14*
X177793200Y-131328000D03*
D15*
X177793200Y-128788000D03*
X177793200Y-126248000D03*
X177793200Y-123708000D03*
X177793200Y-121168000D03*
X177793200Y-118628000D03*
X177793200Y-116088000D03*
X177793200Y-113548000D03*
X177793200Y-111008000D03*
X177793200Y-108468000D03*
X177793200Y-105928000D03*
X177793200Y-103388000D03*
X177793200Y-100848000D03*
X177793200Y-98308000D03*
X177793200Y-95768000D03*
D14*
X229870000Y-69215500D03*
D15*
X227330000Y-69215500D03*
X224790000Y-69215500D03*
X222250000Y-69215500D03*
X219710000Y-69215500D03*
X217170000Y-69215500D03*
X214630000Y-69215500D03*
X212090000Y-69215500D03*
X209550000Y-69215500D03*
X207010000Y-69215500D03*
X204470000Y-69215500D03*
X201930000Y-69215500D03*
X199390000Y-69215500D03*
X196850000Y-69215500D03*
X194310000Y-69215500D03*
D16*
X237744000Y-93472000D03*
D17*
X242824000Y-88392000D03*
D16*
X237744000Y-90932000D03*
D17*
X242824000Y-98552000D03*
D10*
X197612000Y-124756500D03*
D11*
X197612000Y-132376500D03*
D18*
X195580000Y-118336000D03*
X195580000Y-116586000D03*
D19*
X195580000Y-120396000D03*
X194445000Y-120396000D03*
D20*
X205099000Y-109662000D03*
X205099000Y-108712000D03*
X205099000Y-107762000D03*
X207899000Y-107762000D03*
X207899000Y-109662000D03*
D19*
X195580000Y-114554000D03*
X194445000Y-114554000D03*
D21*
X209801000Y-109728000D03*
X209801000Y-108593000D03*
X201041000Y-110549500D03*
X201041000Y-109414500D03*
X194945000Y-110676500D03*
X194945000Y-109541500D03*
D22*
X196982500Y-110424000D03*
X196982500Y-109474000D03*
X196982500Y-108524000D03*
X199257500Y-108524000D03*
X199257500Y-110424000D03*
D19*
X192786000Y-120396000D03*
X191651000Y-120396000D03*
D18*
X192786000Y-118336000D03*
X192786000Y-116586000D03*
D21*
X203197000Y-109847000D03*
X203197000Y-108712000D03*
D19*
X192786000Y-114554000D03*
X191651000Y-114554000D03*
D23*
X202438000Y-101869200D03*
X237490000Y-100076000D03*
X190500000Y-134620000D03*
X231698800Y-122112600D03*
X202488800Y-115127600D03*
X218989400Y-120579200D03*
X224790000Y-107950000D03*
X214630000Y-85344000D03*
X222173800Y-131637600D03*
X221361000Y-83820000D03*
X242570000Y-91694000D03*
X188722000Y-131572000D03*
X200660000Y-109474000D03*
X203835000Y-109728000D03*
X234950000Y-77470000D03*
X231698800Y-114492600D03*
X240411000Y-83820000D03*
X241300000Y-82296000D03*
X222173800Y-131637600D03*
X236220000Y-76200000D03*
X229717600Y-87492800D03*
X200914000Y-132334000D03*
X210667600Y-87492800D03*
X200914000Y-92202000D03*
X232410000Y-76200000D03*
X234950000Y-122936000D03*
X191516000Y-118872000D03*
X206222600Y-87492800D03*
X240030000Y-135890000D03*
X245110000Y-107950000D03*
X201930000Y-78740000D03*
X245110000Y-105156000D03*
X240030000Y-94742000D03*
X218465400Y-123611200D03*
X185420000Y-134620000D03*
X228473000Y-105679200D03*
X236220000Y-129286000D03*
X247650000Y-117094000D03*
X179070000Y-88900000D03*
X217652600Y-87492800D03*
X244094000Y-80772000D03*
X202438000Y-90439200D03*
X202438000Y-90439200D03*
X213360000Y-72390000D03*
X209550000Y-76200000D03*
X194564000Y-115062000D03*
X234696000Y-83820000D03*
X231063800Y-131637600D03*
X219456000Y-83820000D03*
X231698800Y-123382600D03*
X202412600Y-87492800D03*
X233680000Y-114554000D03*
X236220000Y-134620000D03*
X205003400Y-113451200D03*
X220497400Y-124119200D03*
X224790000Y-76200000D03*
X243840000Y-103886000D03*
X231698800Y-128462600D03*
X193040000Y-87630000D03*
X228854000Y-102362000D03*
X214630000Y-135890000D03*
X200914000Y-130810000D03*
X231013000Y-105679200D03*
X185420000Y-121412000D03*
X235585000Y-85344000D03*
X229870000Y-110744000D03*
X196850000Y-135890000D03*
X220751400Y-126659200D03*
X218440000Y-82296000D03*
X179070000Y-135890000D03*
X239395000Y-82296000D03*
X233680000Y-85344000D03*
X231648000Y-102504200D03*
X187706000Y-116840000D03*
X246380000Y-78740000D03*
X234950000Y-125730000D03*
X204470000Y-135890000D03*
X191516000Y-116332000D03*
X246380000Y-103886000D03*
X246126000Y-83820000D03*
X242570000Y-110744000D03*
X233680000Y-106680000D03*
X202488800Y-115127600D03*
X214630000Y-78740000D03*
X231648000Y-105044200D03*
X236220000Y-109220000D03*
X233680000Y-109220000D03*
X222504000Y-107950000D03*
X215646000Y-83820000D03*
X245745000Y-77470000D03*
X240284000Y-80772000D03*
X242570000Y-94742000D03*
X186690000Y-133858000D03*
X202488800Y-129097600D03*
X246380000Y-76200000D03*
X247650000Y-77470000D03*
X239395000Y-85344000D03*
X220700600Y-100700800D03*
X219710000Y-77470000D03*
X218414600Y-97652800D03*
X231648000Y-96154200D03*
X246380000Y-118618000D03*
X219710000Y-135890000D03*
X204978000Y-105679200D03*
X205003400Y-113451200D03*
X224485200Y-94908100D03*
X233680000Y-129540000D03*
X237490000Y-125730000D03*
X222250000Y-78740000D03*
X191262000Y-130556000D03*
X246380000Y-93218000D03*
X234950000Y-100076000D03*
X231648000Y-105044200D03*
X202488800Y-127827600D03*
X210820000Y-85344000D03*
X206298800Y-131637600D03*
X246380000Y-121412000D03*
X223443800Y-131637600D03*
X217703400Y-113451200D03*
X233680000Y-96012000D03*
X219964000Y-110744000D03*
X216535000Y-78740000D03*
X211963000Y-105679200D03*
X230987600Y-87492800D03*
X186690000Y-120396000D03*
X204470000Y-78740000D03*
X189230000Y-135890000D03*
X228600000Y-76200000D03*
X228600000Y-134620000D03*
X217170000Y-135890000D03*
X206248000Y-105679200D03*
X245110000Y-128016000D03*
X243840000Y-96012000D03*
X217805000Y-77470000D03*
X223443800Y-131637600D03*
X238760000Y-106680000D03*
X195580000Y-85090000D03*
X191008000Y-133858000D03*
X243840000Y-118618000D03*
X236220000Y-96012000D03*
X222885000Y-76200000D03*
X217703400Y-113451200D03*
X224485200Y-94908100D03*
X242570000Y-120142000D03*
X202438000Y-89169200D03*
X215128450Y-120751200D03*
X231038400Y-113451200D03*
X243840000Y-109220000D03*
X231648000Y-103774200D03*
X242570000Y-128016000D03*
X211836000Y-83820000D03*
X237490000Y-105156000D03*
X229870000Y-107950000D03*
X236220000Y-121412000D03*
X240030000Y-110744000D03*
X227965000Y-78740000D03*
X209550000Y-135890000D03*
X202488800Y-130367600D03*
X180340000Y-83820000D03*
X222250000Y-85344000D03*
X210693000Y-105679200D03*
X247650000Y-107950000D03*
X246380000Y-101346000D03*
X215900000Y-109220000D03*
X234950000Y-102616000D03*
X247142000Y-82296000D03*
X240030000Y-91694000D03*
X176530000Y-85090000D03*
X241300000Y-129286000D03*
X229743000Y-105679200D03*
X230886000Y-83820000D03*
X203733400Y-113451200D03*
X243205000Y-85344000D03*
X247650000Y-135890000D03*
X222250000Y-135890000D03*
X241300000Y-109220000D03*
X237490000Y-128016000D03*
X224790000Y-135890000D03*
X203682600Y-87492800D03*
X236601000Y-83820000D03*
X187706000Y-111760000D03*
X227330000Y-77470000D03*
X211662900Y-124627200D03*
X224155000Y-78740000D03*
X222250000Y-82296000D03*
X186690000Y-135890000D03*
X195707000Y-109474000D03*
X234950000Y-116078000D03*
X220980000Y-109220000D03*
X238760000Y-121412000D03*
X237490000Y-133350000D03*
X233680000Y-124460000D03*
X202488800Y-123382600D03*
X231063800Y-131637600D03*
X202488800Y-123382600D03*
X231648000Y-97424200D03*
X241300000Y-106680000D03*
X186690000Y-129540000D03*
X191516000Y-112268000D03*
X183134000Y-127508000D03*
X220345000Y-78740000D03*
X237490000Y-135890000D03*
X179070000Y-82550000D03*
X233045000Y-77470000D03*
X228981000Y-83820000D03*
X243840000Y-121412000D03*
X183896000Y-126746000D03*
X217424000Y-110744000D03*
X238760000Y-103886000D03*
X223520000Y-77470000D03*
X202488800Y-129097600D03*
X231775000Y-78740000D03*
X213741000Y-83820000D03*
X196088000Y-127254000D03*
X209122900Y-127675200D03*
X222123000Y-105679200D03*
X229743000Y-105679200D03*
X191770000Y-135890000D03*
X203758800Y-131637600D03*
X200914000Y-120396000D03*
X233680000Y-103886000D03*
X234950000Y-133350000D03*
X210743800Y-131637600D03*
X238760000Y-129286000D03*
X233680000Y-91186000D03*
X227076000Y-83820000D03*
X233680000Y-117348000D03*
X215900000Y-77470000D03*
X234950000Y-107950000D03*
X208499050Y-94818200D03*
X241300000Y-134620000D03*
X243840000Y-101346000D03*
X224155000Y-85344000D03*
X233680000Y-82296000D03*
X231648000Y-88534200D03*
X224536000Y-120866500D03*
X203708000Y-105679200D03*
X212013800Y-131637600D03*
X218440000Y-85344000D03*
X245110000Y-133350000D03*
X229768400Y-113451200D03*
X234950000Y-113284000D03*
X209550000Y-78740000D03*
X234950000Y-94742000D03*
X246380000Y-134620000D03*
X231698800Y-115762600D03*
X202488800Y-116397600D03*
X194056000Y-130810000D03*
X201930000Y-135890000D03*
X184150000Y-133858000D03*
X186690000Y-128270000D03*
X211937600Y-87492800D03*
X234315000Y-76200000D03*
X237490000Y-110744000D03*
X205028800Y-131637600D03*
X245110000Y-120142000D03*
X231698800Y-115762600D03*
X208549850Y-120776600D03*
X207010000Y-78740000D03*
X186690000Y-113030000D03*
X231698800Y-117032600D03*
X215900000Y-72390000D03*
X234696000Y-86868000D03*
X215077650Y-94792800D03*
X191516000Y-117602000D03*
X192278000Y-129540000D03*
X231698800Y-114492600D03*
X231140000Y-106680000D03*
X231140000Y-77470000D03*
X242570000Y-105156000D03*
X185166000Y-131572000D03*
X191770000Y-115062000D03*
X230505000Y-76200000D03*
X214630000Y-82296000D03*
X213360000Y-74930000D03*
X212334450Y-121513200D03*
X200914000Y-105410000D03*
X240030000Y-105156000D03*
X236220000Y-132080000D03*
X218989400Y-120579200D03*
X202438000Y-103139200D03*
X202488800Y-117667600D03*
X243840000Y-93218000D03*
X187960000Y-127000000D03*
X202438000Y-97424200D03*
X241300000Y-121412000D03*
X210820000Y-77470000D03*
X177800000Y-81280000D03*
X245110000Y-117094000D03*
X220345000Y-82296000D03*
X243205000Y-82296000D03*
X223418400Y-113451200D03*
X241300000Y-96012000D03*
X220218000Y-128270000D03*
X204952600Y-87492800D03*
X206248000Y-105679200D03*
X217678000Y-105679200D03*
X212725000Y-82296000D03*
X231775000Y-82296000D03*
X242570000Y-130810000D03*
X226060000Y-109220000D03*
X210743800Y-131637600D03*
X204470000Y-86106000D03*
X205740000Y-82550000D03*
X213106000Y-109220000D03*
X241300000Y-132080000D03*
X247650000Y-130810000D03*
X193040000Y-131826000D03*
X200914000Y-121920000D03*
X193040000Y-134620000D03*
X223266000Y-83820000D03*
X183134000Y-125984000D03*
X211963000Y-105679200D03*
X182880000Y-134620000D03*
X202438000Y-104409200D03*
X217652600Y-87492800D03*
X229717600Y-87492800D03*
X216433400Y-113451200D03*
X233680000Y-112014000D03*
X211836000Y-110744000D03*
X202412600Y-87492800D03*
X237490000Y-102616000D03*
X200914000Y-94996000D03*
X231698800Y-129732600D03*
X231648000Y-102504200D03*
X224536000Y-120866500D03*
X234950000Y-110744000D03*
X180340000Y-134620000D03*
X236220000Y-106680000D03*
X231013000Y-105679200D03*
X237490000Y-97282000D03*
X237490000Y-85344000D03*
X200914000Y-98044000D03*
X222504000Y-110744000D03*
X202488800Y-127827600D03*
X211612100Y-98668800D03*
X226060000Y-78740000D03*
X193294000Y-128524000D03*
X226695000Y-76200000D03*
X177800000Y-83820000D03*
X242570000Y-107950000D03*
X231038400Y-113451200D03*
X215128450Y-120751200D03*
X237490000Y-82296000D03*
X231698800Y-129732600D03*
X200914000Y-123444000D03*
X222097600Y-87492800D03*
X186944000Y-131572000D03*
X199390000Y-135890000D03*
X232410000Y-107950000D03*
X246380000Y-132080000D03*
X233680000Y-101346000D03*
X207772000Y-86106000D03*
X202463400Y-113451200D03*
X202488800Y-117667600D03*
X247650000Y-133350000D03*
X229870000Y-135890000D03*
X215077650Y-94792800D03*
X232410000Y-110744000D03*
X210820000Y-82296000D03*
X179070000Y-85090000D03*
X236220000Y-103886000D03*
X228473000Y-105679200D03*
X212283650Y-95554800D03*
X240030000Y-128016000D03*
X231775000Y-85344000D03*
X231698800Y-117032600D03*
X243840000Y-106680000D03*
X242316000Y-83820000D03*
X202438000Y-101869200D03*
X202488800Y-116397600D03*
X231140000Y-109220000D03*
X176530000Y-92710000D03*
X238760000Y-132080000D03*
X234950000Y-105156000D03*
X176530000Y-87630000D03*
X234950000Y-97282000D03*
X186690000Y-115570000D03*
X184150000Y-135890000D03*
X233680000Y-78740000D03*
X202488800Y-122112600D03*
X217678000Y-105679200D03*
X245110000Y-130810000D03*
X214630000Y-73660000D03*
X209296000Y-110744000D03*
X240030000Y-102616000D03*
X236220000Y-124460000D03*
X226060000Y-82296000D03*
X227965000Y-82296000D03*
X234950000Y-135890000D03*
X221615000Y-77470000D03*
X186690000Y-118110000D03*
X216535000Y-85344000D03*
X228498400Y-113451200D03*
X210820000Y-74930000D03*
X200914000Y-86106000D03*
X227330000Y-107950000D03*
X206273400Y-113451200D03*
X228600000Y-109220000D03*
X206298800Y-131637600D03*
X233680000Y-88138000D03*
X237490000Y-107950000D03*
X211836000Y-109220000D03*
X231648000Y-89804200D03*
X238760000Y-101346000D03*
X205962500Y-109601000D03*
X220980000Y-76200000D03*
X200914000Y-124968000D03*
X247650000Y-120142000D03*
X222123000Y-105679200D03*
X237490000Y-130810000D03*
X238760000Y-126746000D03*
X200914000Y-102870000D03*
X202692000Y-86106000D03*
X200914000Y-87630000D03*
X196850000Y-83820000D03*
X202438000Y-103139200D03*
X238760000Y-109220000D03*
X209804000Y-83820000D03*
X202438000Y-105679200D03*
X216382600Y-87492800D03*
X241300000Y-93218000D03*
X231648000Y-91074200D03*
X231698800Y-128462600D03*
X217551000Y-83820000D03*
X241300000Y-85344000D03*
X181610000Y-135890000D03*
X247650000Y-91694000D03*
X234696000Y-89916000D03*
X187706000Y-119380000D03*
X217728800Y-131637600D03*
X191516000Y-109728000D03*
X242570000Y-117094000D03*
X240030000Y-133350000D03*
X242570000Y-133350000D03*
X231648000Y-97424200D03*
X243840000Y-132080000D03*
X245110000Y-110744000D03*
X203200000Y-82550000D03*
X228600000Y-106680000D03*
X213868000Y-110744000D03*
X224155000Y-82296000D03*
X212283650Y-95554800D03*
X183388000Y-130556000D03*
X222148400Y-113451200D03*
X202438000Y-97424200D03*
X222097600Y-87492800D03*
X216458800Y-131637600D03*
X233680000Y-134620000D03*
X211937600Y-87492800D03*
X205740000Y-77470000D03*
X219075000Y-76200000D03*
X241300000Y-103886000D03*
X210850100Y-102478800D03*
X243840000Y-129286000D03*
X210718400Y-113451200D03*
X220446600Y-98160800D03*
X247650000Y-94742000D03*
X218440000Y-78740000D03*
X233680000Y-121412000D03*
X235585000Y-82296000D03*
X200914000Y-96520000D03*
X236220000Y-127000000D03*
X240030000Y-107950000D03*
X209122900Y-127675200D03*
X214630000Y-71120000D03*
X222148400Y-113451200D03*
X234950000Y-130810000D03*
X212334450Y-121513200D03*
X202438000Y-96154200D03*
X185420000Y-116840000D03*
X228854000Y-128524000D03*
X176530000Y-80010000D03*
X216458800Y-131637600D03*
X228523800Y-131637600D03*
X223418400Y-113451200D03*
X221234000Y-102616000D03*
X232791000Y-83820000D03*
X191516000Y-108458000D03*
X226060000Y-85344000D03*
X245110000Y-82296000D03*
X187960000Y-134620000D03*
X238506000Y-83820000D03*
X228447600Y-87492800D03*
X220345000Y-85344000D03*
X241300000Y-118618000D03*
X229793800Y-131637600D03*
X179070000Y-80010000D03*
X176530000Y-82550000D03*
X229870000Y-78740000D03*
X210718400Y-113451200D03*
X232410000Y-135890000D03*
X226060000Y-134620000D03*
X209072100Y-101716800D03*
X202488800Y-131637600D03*
X223393000Y-105679200D03*
X230987600Y-87492800D03*
X237490000Y-122936000D03*
X203200000Y-77470000D03*
X198120000Y-82550000D03*
X229768400Y-113451200D03*
X203708000Y-105679200D03*
X203733400Y-113451200D03*
X236220000Y-101346000D03*
X203758800Y-131637600D03*
X247650000Y-110490000D03*
X218938600Y-94620800D03*
X231648000Y-103774200D03*
X208788000Y-85344000D03*
X209072100Y-101716800D03*
X206273400Y-113451200D03*
X218440000Y-109220000D03*
X231648000Y-96154200D03*
X231648000Y-88534200D03*
X212090000Y-73660000D03*
X194310000Y-86360000D03*
X190500000Y-90170000D03*
X223520000Y-109220000D03*
X200660000Y-82550000D03*
X212725000Y-85344000D03*
X189230000Y-133858000D03*
X185928000Y-130556000D03*
X217170000Y-76200000D03*
X183388000Y-131572000D03*
X216535000Y-82296000D03*
X211988400Y-113451200D03*
X231648000Y-89804200D03*
X190246000Y-131572000D03*
X223367600Y-87492800D03*
X208534000Y-108712000D03*
X245110000Y-102616000D03*
X228523800Y-131637600D03*
X207010000Y-135890000D03*
X211612100Y-98668800D03*
X210693000Y-105679200D03*
X236220000Y-98806000D03*
X229870000Y-85344000D03*
X231140000Y-134620000D03*
X245110000Y-135890000D03*
X202488800Y-122112600D03*
X223393000Y-105679200D03*
X225171000Y-83820000D03*
X210850100Y-102478800D03*
X197993000Y-109474000D03*
X200914000Y-104140000D03*
X231698800Y-123382600D03*
X229235000Y-77470000D03*
X210900900Y-128437200D03*
X204952600Y-87492800D03*
X200914000Y-89154000D03*
X238760000Y-96012000D03*
X191516000Y-113538000D03*
X234950000Y-128270000D03*
X241300000Y-101346000D03*
X240030000Y-130810000D03*
X212090000Y-135890000D03*
X205028800Y-131637600D03*
X208499050Y-94818200D03*
X217728800Y-131637600D03*
X231698800Y-131002600D03*
X185420000Y-114300000D03*
X200914000Y-129286000D03*
X244221000Y-83820000D03*
X208549850Y-120776600D03*
X212013800Y-131637600D03*
X191516000Y-110998000D03*
X204978000Y-105679200D03*
X233680000Y-132080000D03*
X216408000Y-105679200D03*
X218938600Y-94620800D03*
X185420000Y-119380000D03*
X246380000Y-109220000D03*
X187706000Y-114300000D03*
X227330000Y-135890000D03*
X229793800Y-131637600D03*
X206222600Y-87492800D03*
X231698800Y-122112600D03*
X202438000Y-104409200D03*
X202463400Y-113451200D03*
X202488800Y-130367600D03*
X177800000Y-134620000D03*
X225425000Y-77470000D03*
X231648000Y-91074200D03*
X242189000Y-80772000D03*
X191770000Y-119888000D03*
X192024000Y-132842000D03*
X202438000Y-89169200D03*
X202438000Y-96154200D03*
X180340000Y-81280000D03*
X211988400Y-113451200D03*
X247650000Y-128016000D03*
X233680000Y-98806000D03*
X242570000Y-135890000D03*
X206248000Y-86106000D03*
X210667600Y-87492800D03*
X191770000Y-88900000D03*
X185420000Y-129540000D03*
X179070000Y-91440000D03*
X212090000Y-76200000D03*
X200914000Y-90678000D03*
X194310000Y-135890000D03*
X202438000Y-91709200D03*
X238760000Y-134620000D03*
X202438000Y-105679200D03*
X227965000Y-85344000D03*
X210900900Y-128437200D03*
X196088000Y-129286000D03*
X242570000Y-102616000D03*
X216408000Y-105679200D03*
X229870000Y-82296000D03*
X246380000Y-129286000D03*
X176530000Y-90170000D03*
X228498400Y-113451200D03*
X247269000Y-85344000D03*
X184658000Y-125984000D03*
X199898000Y-129286000D03*
X245110000Y-91694000D03*
X231698800Y-131002600D03*
X203682600Y-87492800D03*
X216433400Y-113451200D03*
X246126000Y-80772000D03*
X184404000Y-130556000D03*
X228447600Y-87492800D03*
X243840000Y-77470000D03*
X223367600Y-87492800D03*
X217170000Y-71120000D03*
X246380000Y-106680000D03*
X243840000Y-134620000D03*
X202438000Y-91709200D03*
X187960000Y-128270000D03*
X224790000Y-110744000D03*
X194564000Y-119888000D03*
X219964000Y-107950000D03*
X211662900Y-124627200D03*
X245110000Y-94742000D03*
X216382600Y-87492800D03*
X202488800Y-131637600D03*
X245110000Y-85344000D03*
X208280000Y-77470000D03*
X246380000Y-96012000D03*
X233680000Y-126746000D03*
X227330000Y-110744000D03*
X206502000Y-112268000D03*
X213868000Y-112268000D03*
X217170000Y-96774000D03*
X217170000Y-122682000D03*
X222504000Y-127254000D03*
X222504000Y-101092000D03*
X192786000Y-112776000D03*
X195326000Y-132842000D03*
X213323450Y-123916000D03*
X210261200Y-96367600D03*
X200660000Y-107950000D03*
X203200000Y-110998000D03*
X213272650Y-97957600D03*
X201041000Y-110549500D03*
X210312000Y-122326000D03*
X207608450Y-126837000D03*
X215138000Y-119481200D03*
X207557650Y-100878600D03*
X215138000Y-93980000D03*
X193548000Y-106934000D03*
X194776500Y-132334000D03*
X192786000Y-107188000D03*
D24*
X194445000Y-114943000D02*
X194564000Y-115062000D01*
X194945000Y-109474000D02*
X195707000Y-109474000D01*
X208653000Y-108593000D02*
X208534000Y-108712000D01*
X203835000Y-109728000D02*
X203716000Y-109847000D01*
X191651000Y-114554000D02*
X191651000Y-114943000D01*
X200719500Y-109414500D02*
X200660000Y-109474000D01*
X194445000Y-114554000D02*
X194445000Y-114943000D01*
X201041000Y-109414500D02*
X200719500Y-109414500D01*
X194445000Y-120396000D02*
X194445000Y-120007000D01*
X196982500Y-109474000D02*
X197993000Y-109474000D01*
X205070500Y-109662000D02*
X205901500Y-109662000D01*
X209801000Y-108593000D02*
X208653000Y-108593000D01*
X203716000Y-109847000D02*
X203197000Y-109847000D01*
X191651000Y-120007000D02*
X191770000Y-119888000D01*
X191651000Y-114943000D02*
X191770000Y-115062000D01*
X205425000Y-109662000D02*
X205486000Y-109601000D01*
X194445000Y-120007000D02*
X194564000Y-119888000D01*
X191651000Y-120396000D02*
X191651000Y-120007000D01*
X201168000Y-118136050D02*
X202184000Y-119152050D01*
X201930000Y-111506000D02*
X202692000Y-112268000D01*
X213868000Y-112268000D02*
X214647650Y-111488350D01*
X207834000Y-128586000D02*
X208026000Y-128586000D01*
X195580000Y-114554000D02*
X195580000Y-112014000D01*
X202603901Y-108712000D02*
X204594000Y-108712000D01*
X196088000Y-111506000D02*
X201676000Y-111506000D01*
X201676000Y-111506000D02*
X201930000Y-111506000D01*
X215701505Y-122682000D02*
X217170000Y-122682000D01*
X195580000Y-114554000D02*
X195602500Y-114576500D01*
X214647650Y-99296350D02*
X217170000Y-96774000D01*
X202692000Y-112268000D02*
X206502000Y-112268000D01*
X205232000Y-125984000D02*
X207834000Y-128586000D01*
X195580000Y-112014000D02*
X196088000Y-111506000D01*
X202378000Y-111058000D02*
X202378000Y-108937901D01*
X195580000Y-116586000D02*
X195580000Y-114554000D01*
X208026000Y-128586000D02*
X209797505Y-128586000D01*
X209797505Y-128586000D02*
X215701505Y-122682000D01*
X201168000Y-111506000D02*
X201168000Y-118136050D01*
X203708000Y-119152050D02*
X204154000Y-119598051D01*
X201930000Y-111506000D02*
X202378000Y-111058000D01*
X214647650Y-111488350D02*
X214647650Y-99296350D01*
X204154000Y-119598051D02*
X205232000Y-120676051D01*
X202378000Y-108937901D02*
X202603901Y-108712000D01*
X205232000Y-120676051D02*
X205232000Y-125984000D01*
X202184000Y-119152050D02*
X203708000Y-119152050D01*
X200406000Y-113792000D02*
X200406000Y-118364000D01*
X192786000Y-116586000D02*
X192786000Y-114554000D01*
D25*
X202740729Y-107762000D02*
X201978729Y-108524000D01*
X205099000Y-107762000D02*
X202740729Y-107762000D01*
D24*
X192786000Y-109220000D02*
X195700500Y-106305500D01*
D25*
X201978729Y-108524000D02*
X200796828Y-108524000D01*
D24*
X198862000Y-114534000D02*
X198862000Y-131126500D01*
D25*
X194916177Y-108524000D02*
X194310000Y-109130177D01*
X198552173Y-109220000D02*
X197856173Y-108524000D01*
D24*
X220472000Y-129286000D02*
X222504000Y-127254000D01*
X222504000Y-101092000D02*
X222250000Y-101092000D01*
X192786000Y-112776000D02*
X192786000Y-114554000D01*
D25*
X200100828Y-109220000D02*
X198552173Y-109220000D01*
D24*
X214453906Y-93472000D02*
X208534000Y-93472000D01*
D25*
X196982500Y-108524000D02*
X194916177Y-108524000D01*
X194310000Y-110041500D02*
X194945000Y-110676500D01*
D24*
X195197500Y-110424000D02*
X194945000Y-110676500D01*
X204470000Y-126238000D02*
X207518000Y-129286000D01*
X197612000Y-113284000D02*
X198862000Y-114534000D01*
D25*
X200796828Y-108524000D02*
X200100828Y-109220000D01*
X194310000Y-109130177D02*
X194310000Y-110041500D01*
D24*
X194945000Y-110617000D02*
X192786000Y-112776000D01*
X203454000Y-119888000D02*
X204470000Y-120904000D01*
X214645906Y-93280000D02*
X214453906Y-93472000D01*
X192786000Y-112776000D02*
X192786000Y-109220000D01*
X198862000Y-131126500D02*
X197612000Y-132376500D01*
X195700500Y-106305500D02*
X197612000Y-106305500D01*
X197612000Y-113284000D02*
X199898000Y-113284000D01*
X208534000Y-93472000D02*
X207137000Y-94869000D01*
X215708000Y-93280000D02*
X214645906Y-93280000D01*
X222250000Y-101092000D02*
X219089600Y-97931600D01*
X202107395Y-94869000D02*
X207137000Y-94869000D01*
X219089600Y-96661600D02*
X215708000Y-93280000D01*
X199898000Y-113284000D02*
X200406000Y-113792000D01*
X197612000Y-87418500D02*
X197612000Y-90373605D01*
X201930000Y-119888000D02*
X203454000Y-119888000D01*
D25*
X197856173Y-108524000D02*
X196982500Y-108524000D01*
D24*
X200406000Y-118364000D02*
X201930000Y-119888000D01*
X207518000Y-129286000D02*
X220472000Y-129286000D01*
X196982500Y-110424000D02*
X195197500Y-110424000D01*
X219089600Y-97931600D02*
X219089600Y-96661600D01*
X207137000Y-94869000D02*
X195700500Y-106305500D01*
X197612000Y-90373605D02*
X202107395Y-94869000D01*
X204470000Y-120904000D02*
X204470000Y-126238000D01*
D25*
X195326000Y-132842000D02*
X195326000Y-127000000D01*
X197569500Y-124756500D02*
X197612000Y-124756500D01*
X195326000Y-127000000D02*
X197569500Y-124756500D01*
D24*
X206857650Y-101446894D02*
X206857650Y-100588651D01*
X210261200Y-96367600D02*
X210261200Y-97754400D01*
X210312000Y-118872000D02*
X210312000Y-122326000D01*
X208280000Y-112268000D02*
X208280000Y-116840000D01*
X207010377Y-105871418D02*
X207010377Y-101599622D01*
X199257500Y-110424000D02*
X200915500Y-110424000D01*
X206527595Y-106354200D02*
X207010377Y-105871418D01*
X208280000Y-116840000D02*
X210312000Y-118872000D01*
X207010377Y-101599622D02*
X206857650Y-101446894D01*
X203200000Y-110998000D02*
X207010000Y-110998000D01*
X200660000Y-107950000D02*
X202255800Y-106354200D01*
X210058000Y-97957600D02*
X213247650Y-97957600D01*
X210261200Y-97754400D02*
X210058000Y-97957600D01*
X200915500Y-110424000D02*
X201041000Y-110549500D01*
X209488701Y-97957600D02*
X210058000Y-97957600D01*
X202255800Y-106354200D02*
X206527595Y-106354200D01*
X207010000Y-110998000D02*
X208280000Y-112268000D01*
X206857650Y-100588651D02*
X209488701Y-97957600D01*
X213947650Y-94968205D02*
X213947650Y-102790350D01*
X209801000Y-109728000D02*
X213360000Y-113287000D01*
X214376000Y-119481200D02*
X214376000Y-120426245D01*
X209735000Y-109662000D02*
X207899000Y-109662000D01*
X213947650Y-102790350D02*
X212852000Y-103886000D01*
X213360000Y-113287000D02*
X213360000Y-118872000D01*
X209801000Y-109728000D02*
X209889099Y-109728000D01*
X212852000Y-106765099D02*
X212852000Y-103886000D01*
X213360000Y-118872000D02*
X213969200Y-119481200D01*
X210286705Y-103886000D02*
X207557650Y-101156945D01*
X209889099Y-109728000D02*
X212852000Y-106765099D01*
X209801000Y-109728000D02*
X209735000Y-109662000D01*
X215138000Y-93980000D02*
X214935855Y-93980000D01*
X214376000Y-120426245D02*
X207965245Y-126837000D01*
X207557650Y-101156945D02*
X207557650Y-100878600D01*
X212852000Y-103886000D02*
X210286705Y-103886000D01*
X207965245Y-126837000D02*
X207788468Y-126837000D01*
D25*
X207788468Y-126837000D02*
X207608450Y-126837000D01*
D24*
X214935855Y-93980000D02*
X213947650Y-94968205D01*
X213969200Y-119481200D02*
X215138000Y-119481200D01*
D25*
X202692000Y-75692000D02*
X208153500Y-75692000D01*
X188976000Y-89408000D02*
X202692000Y-75692000D01*
X180340000Y-116078000D02*
X188976000Y-107442000D01*
X208153500Y-75692000D02*
X214630000Y-69215500D01*
X188976000Y-107442000D02*
X188976000Y-89408000D01*
X179073200Y-112268000D02*
X177793200Y-113548000D01*
X210725000Y-68040000D02*
X210725000Y-69702201D01*
X212090000Y-66675000D02*
X210725000Y-68040000D01*
X201997604Y-74100396D02*
X187452000Y-88646000D01*
X180731701Y-112268000D02*
X179073200Y-112268000D01*
X187452000Y-88646000D02*
X187452000Y-105547701D01*
X206326805Y-74100396D02*
X201997604Y-74100396D01*
X210725000Y-69702201D02*
X206326805Y-74100396D01*
X187452000Y-105547701D02*
X180731701Y-112268000D01*
X208185000Y-69702201D02*
X204867003Y-73020198D01*
X204867003Y-73020198D02*
X201553802Y-73020198D01*
X180731701Y-109728000D02*
X179073200Y-109728000D01*
X209550000Y-66675000D02*
X208185000Y-68040000D01*
X179073200Y-109728000D02*
X177793200Y-111008000D01*
X208185000Y-68040000D02*
X208185000Y-69702201D01*
X186436000Y-104023701D02*
X180731701Y-109728000D01*
X201553802Y-73020198D02*
X186436000Y-88138000D01*
X186436000Y-88138000D02*
X186436000Y-104023701D01*
X205645000Y-68040000D02*
X205645000Y-69702201D01*
X207010000Y-66675000D02*
X205645000Y-68040000D01*
X180731701Y-107188000D02*
X179073200Y-107188000D01*
X185420000Y-87630000D02*
X185420000Y-102499701D01*
X179073200Y-107188000D02*
X177793200Y-108468000D01*
X185420000Y-102499701D02*
X180731701Y-107188000D01*
X203465201Y-71882000D02*
X201168000Y-71882000D01*
X205645000Y-69702201D02*
X203465201Y-71882000D01*
X201168000Y-71882000D02*
X185420000Y-87630000D01*
X184368000Y-87291980D02*
X184368000Y-101011701D01*
X203105000Y-68040000D02*
X203105000Y-69702201D01*
X204470000Y-66675000D02*
X203105000Y-68040000D01*
X180731701Y-104648000D02*
X179073200Y-104648000D01*
X179073200Y-104648000D02*
X177793200Y-105928000D01*
X201874211Y-70932990D02*
X200726990Y-70932990D01*
X203105000Y-69702201D02*
X201874211Y-70932990D01*
X184368000Y-101011701D02*
X180731701Y-104648000D01*
X200726990Y-70932990D02*
X184368000Y-87291980D01*
X183468000Y-99371701D02*
X183468000Y-86919188D01*
X200755000Y-69632188D02*
X200755000Y-67850000D01*
X179168200Y-102013000D02*
X180826701Y-102013000D01*
X183468000Y-86919188D02*
X200755000Y-69632188D01*
X177793200Y-103388000D02*
X179168200Y-102013000D01*
X200755000Y-67850000D02*
X201930000Y-66675000D01*
X180826701Y-102013000D02*
X183468000Y-99371701D01*
X182568000Y-97731701D02*
X182568000Y-86546396D01*
X179168200Y-99473000D02*
X180826701Y-99473000D01*
X177793200Y-100848000D02*
X179168200Y-99473000D01*
X198215000Y-67850000D02*
X199390000Y-66675000D01*
X182568000Y-86546396D02*
X198215000Y-70899396D01*
X180826701Y-99473000D02*
X182568000Y-97731701D01*
X198215000Y-70899396D02*
X198215000Y-67850000D01*
X195485000Y-68040000D02*
X196850000Y-66675000D01*
X178978200Y-97123000D02*
X180636701Y-97123000D01*
X180636701Y-97123000D02*
X181610000Y-96149701D01*
X195485000Y-72231000D02*
X195485000Y-68040000D01*
X177793200Y-98308000D02*
X178978200Y-97123000D01*
X181610000Y-96149701D02*
X181610000Y-86106000D01*
X181610000Y-86106000D02*
X195485000Y-72231000D01*
X191008000Y-75184000D02*
X177793200Y-88398800D01*
X191008000Y-69977000D02*
X191008000Y-75184000D01*
X177793200Y-88398800D02*
X177793200Y-95768000D01*
X194310000Y-66675000D02*
X191008000Y-69977000D01*
X197612000Y-102870000D02*
X197612000Y-98685500D01*
X193548000Y-106934000D02*
X197612000Y-102870000D01*
X202184000Y-74676000D02*
X206629500Y-74676000D01*
X187960000Y-88900000D02*
X202184000Y-74676000D01*
X187960000Y-105918000D02*
X187960000Y-88900000D01*
X180340000Y-113538000D02*
X187960000Y-105918000D01*
X206629500Y-74676000D02*
X212090000Y-69215500D01*
X180340000Y-110998000D02*
X186944000Y-104394000D01*
X205295302Y-73470198D02*
X209550000Y-69215500D01*
X201740198Y-73470198D02*
X205295302Y-73470198D01*
X186944000Y-104394000D02*
X186944000Y-88266396D01*
X186944000Y-88266396D02*
X201740198Y-73470198D01*
X185928000Y-95504000D02*
X185870000Y-95446000D01*
X185928000Y-102870000D02*
X185928000Y-95504000D01*
X180340000Y-108458000D02*
X185928000Y-102870000D01*
X203893500Y-72332000D02*
X207010000Y-69215500D01*
X185870000Y-95446000D02*
X185870000Y-87816396D01*
X201354396Y-72332000D02*
X203893500Y-72332000D01*
X185870000Y-87816396D02*
X201354396Y-72332000D01*
X200913386Y-71382990D02*
X184916188Y-87380188D01*
X184916188Y-87380188D02*
X184916188Y-101341812D01*
X184916188Y-101341812D02*
X180340000Y-105918000D01*
X202302510Y-71382990D02*
X200913386Y-71382990D01*
X204470000Y-69215500D02*
X202302510Y-71382990D01*
X183918000Y-87105584D02*
X183918000Y-87122000D01*
X183918000Y-87122000D02*
X183918000Y-99800000D01*
X201808084Y-69215500D02*
X183918000Y-87105584D01*
X201930000Y-69215500D02*
X201808084Y-69215500D01*
X183918000Y-99800000D02*
X180340000Y-103378000D01*
X183018000Y-98160000D02*
X180340000Y-100838000D01*
X199390000Y-70360792D02*
X183018000Y-86732792D01*
X183018000Y-86732792D02*
X183018000Y-98160000D01*
X199390000Y-69215500D02*
X199390000Y-70360792D01*
X180340000Y-98298000D02*
X182118000Y-96520000D01*
X182118000Y-96520000D02*
X182118000Y-86360000D01*
X182118000Y-86360000D02*
X196850000Y-71628000D01*
X196850000Y-71628000D02*
X196850000Y-69215500D01*
X194310000Y-72644000D02*
X194310000Y-69215500D01*
X180340000Y-86614000D02*
X194310000Y-72644000D01*
X180340000Y-95758000D02*
X180340000Y-86614000D01*
D24*
X181209000Y-124948000D02*
X193274000Y-124948000D01*
D26*
X179007700Y-124922500D02*
X181183500Y-124922500D01*
D24*
X187706000Y-122428000D02*
X181102000Y-122428000D01*
X195580000Y-122642000D02*
X195580000Y-121372000D01*
D26*
X177793200Y-123708000D02*
X179073200Y-122428000D01*
D24*
X181183500Y-124922500D02*
X181209000Y-124948000D01*
X193274000Y-124948000D02*
X195580000Y-122642000D01*
X189738000Y-120396000D02*
X187706000Y-122428000D01*
D26*
X181183500Y-124922500D02*
X181229000Y-124968000D01*
X179073200Y-122428000D02*
X181102000Y-122428000D01*
X221025500Y-67899500D02*
X221025500Y-69977000D01*
D24*
X205983350Y-84492200D02*
X197193800Y-84492200D01*
X219960050Y-70515500D02*
X205983350Y-84492200D01*
D26*
X177793200Y-123708000D02*
X179007700Y-124922500D01*
D24*
X189738000Y-91948000D02*
X189738000Y-120396000D01*
X195580000Y-121372000D02*
X195580000Y-120396000D01*
X220487000Y-70515500D02*
X219960050Y-70515500D01*
D26*
X222250000Y-66675000D02*
X221025500Y-67899500D01*
D24*
X197193800Y-84492200D02*
X189738000Y-91948000D01*
X221025500Y-69977000D02*
X220487000Y-70515500D01*
X195580000Y-118336000D02*
X195580000Y-120396000D01*
D25*
X214630000Y-66675000D02*
X213265000Y-68040000D01*
X188468000Y-107071701D02*
X180636701Y-114903000D01*
X213265000Y-68040000D02*
X213265000Y-69702201D01*
X207783201Y-75184000D02*
X202438000Y-75184000D01*
X202438000Y-75184000D02*
X188468000Y-89154000D01*
X180636701Y-114903000D02*
X178978200Y-114903000D01*
X178978200Y-114903000D02*
X177793200Y-116088000D01*
X188468000Y-89154000D02*
X188468000Y-107071701D01*
X213265000Y-69702201D02*
X207783201Y-75184000D01*
D24*
X190500000Y-120650000D02*
X187452000Y-123698000D01*
X191223099Y-122047000D02*
X192786000Y-120484099D01*
X180340000Y-123698000D02*
X187452000Y-123698000D01*
X219583500Y-71882000D02*
X206273300Y-85192200D01*
X192786000Y-120484099D02*
X192786000Y-120396000D01*
X221742000Y-71882000D02*
X219583500Y-71882000D01*
X197509800Y-85192200D02*
X190500000Y-92202000D01*
X190500000Y-92202000D02*
X190500000Y-120650000D01*
X206273300Y-85192200D02*
X197509800Y-85192200D01*
X189103000Y-122047000D02*
X191223099Y-122047000D01*
X222250000Y-69215500D02*
X222250000Y-71374000D01*
X192786000Y-118336000D02*
X192786000Y-120396000D01*
X222250000Y-71374000D02*
X221742000Y-71882000D01*
X187452000Y-123698000D02*
X189103000Y-122047000D01*
D25*
X194776500Y-132334000D02*
X194776500Y-125342000D01*
X197612000Y-122506500D02*
X197612000Y-120904000D01*
X194776500Y-125342000D02*
X197612000Y-122506500D01*
X192786000Y-99864500D02*
X197612000Y-95038500D01*
X192786000Y-107188000D02*
X192786000Y-99864500D01*
M02*
