G04 #@! TF.GenerationSoftware,KiCad,Pcbnew,7.0.7*
G04 #@! TF.CreationDate,2023-12-28T09:15:15+02:00*
G04 #@! TF.ProjectId,AD3 Front End Amplifier,41443320-4672-46f6-9e74-20456e642041,rev?*
G04 #@! TF.SameCoordinates,Original*
G04 #@! TF.FileFunction,Legend,Bot*
G04 #@! TF.FilePolarity,Positive*
%FSLAX46Y46*%
G04 Gerber Fmt 4.6, Leading zero omitted, Abs format (unit mm)*
G04 Created by KiCad (PCBNEW 7.0.7) date 2023-12-28 09:15:15*
%MOMM*%
%LPD*%
G01*
G04 APERTURE LIST*
G04 Aperture macros list*
%AMRoundRect*
0 Rectangle with rounded corners*
0 $1 Rounding radius*
0 $2 $3 $4 $5 $6 $7 $8 $9 X,Y pos of 4 corners*
0 Add a 4 corners polygon primitive as box body*
4,1,4,$2,$3,$4,$5,$6,$7,$8,$9,$2,$3,0*
0 Add four circle primitives for the rounded corners*
1,1,$1+$1,$2,$3*
1,1,$1+$1,$4,$5*
1,1,$1+$1,$6,$7*
1,1,$1+$1,$8,$9*
0 Add four rect primitives between the rounded corners*
20,1,$1+$1,$2,$3,$4,$5,0*
20,1,$1+$1,$4,$5,$6,$7,0*
20,1,$1+$1,$6,$7,$8,$9,0*
20,1,$1+$1,$8,$9,$2,$3,0*%
G04 Aperture macros list end*
%ADD10C,0.200000*%
%ADD11C,0.400000*%
%ADD12C,0.150000*%
%ADD13C,0.120000*%
%ADD14R,1.600000X1.600000*%
%ADD15O,1.600000X1.600000*%
%ADD16O,1.600000X2.500000*%
%ADD17O,3.500000X7.000000*%
%ADD18R,1.700000X1.700000*%
%ADD19O,1.700000X1.700000*%
%ADD20O,2.500000X1.600000*%
%ADD21O,7.000000X3.500000*%
%ADD22RoundRect,0.237500X0.237500X-0.287500X0.237500X0.287500X-0.237500X0.287500X-0.237500X-0.287500X0*%
%ADD23RoundRect,0.155000X0.212500X0.155000X-0.212500X0.155000X-0.212500X-0.155000X0.212500X-0.155000X0*%
%ADD24R,0.900000X0.600000*%
%ADD25RoundRect,0.155000X0.155000X-0.212500X0.155000X0.212500X-0.155000X0.212500X-0.155000X-0.212500X0*%
%ADD26RoundRect,0.150000X-0.512500X-0.150000X0.512500X-0.150000X0.512500X0.150000X-0.512500X0.150000X0*%
G04 APERTURE END LIST*
D10*
X232468945Y-127216504D02*
X231992755Y-127216504D01*
X232564183Y-127502219D02*
X232230850Y-126502219D01*
X232230850Y-126502219D02*
X231897517Y-127502219D01*
X231564183Y-127502219D02*
X231564183Y-126502219D01*
X231564183Y-126502219D02*
X231326088Y-126502219D01*
X231326088Y-126502219D02*
X231183231Y-126549838D01*
X231183231Y-126549838D02*
X231087993Y-126645076D01*
X231087993Y-126645076D02*
X231040374Y-126740314D01*
X231040374Y-126740314D02*
X230992755Y-126930790D01*
X230992755Y-126930790D02*
X230992755Y-127073647D01*
X230992755Y-127073647D02*
X231040374Y-127264123D01*
X231040374Y-127264123D02*
X231087993Y-127359361D01*
X231087993Y-127359361D02*
X231183231Y-127454600D01*
X231183231Y-127454600D02*
X231326088Y-127502219D01*
X231326088Y-127502219D02*
X231564183Y-127502219D01*
X230659421Y-126502219D02*
X230040374Y-126502219D01*
X230040374Y-126502219D02*
X230373707Y-126883171D01*
X230373707Y-126883171D02*
X230230850Y-126883171D01*
X230230850Y-126883171D02*
X230135612Y-126930790D01*
X230135612Y-126930790D02*
X230087993Y-126978409D01*
X230087993Y-126978409D02*
X230040374Y-127073647D01*
X230040374Y-127073647D02*
X230040374Y-127311742D01*
X230040374Y-127311742D02*
X230087993Y-127406980D01*
X230087993Y-127406980D02*
X230135612Y-127454600D01*
X230135612Y-127454600D02*
X230230850Y-127502219D01*
X230230850Y-127502219D02*
X230516564Y-127502219D01*
X230516564Y-127502219D02*
X230611802Y-127454600D01*
X230611802Y-127454600D02*
X230659421Y-127406980D01*
X228373707Y-127502219D02*
X228849897Y-127502219D01*
X228849897Y-127502219D02*
X228849897Y-126502219D01*
X227897516Y-127502219D02*
X227992754Y-127454600D01*
X227992754Y-127454600D02*
X228040373Y-127406980D01*
X228040373Y-127406980D02*
X228087992Y-127311742D01*
X228087992Y-127311742D02*
X228087992Y-127026028D01*
X228087992Y-127026028D02*
X228040373Y-126930790D01*
X228040373Y-126930790D02*
X227992754Y-126883171D01*
X227992754Y-126883171D02*
X227897516Y-126835552D01*
X227897516Y-126835552D02*
X227754659Y-126835552D01*
X227754659Y-126835552D02*
X227659421Y-126883171D01*
X227659421Y-126883171D02*
X227611802Y-126930790D01*
X227611802Y-126930790D02*
X227564183Y-127026028D01*
X227564183Y-127026028D02*
X227564183Y-127311742D01*
X227564183Y-127311742D02*
X227611802Y-127406980D01*
X227611802Y-127406980D02*
X227659421Y-127454600D01*
X227659421Y-127454600D02*
X227754659Y-127502219D01*
X227754659Y-127502219D02*
X227897516Y-127502219D01*
X227230849Y-126835552D02*
X227040373Y-127502219D01*
X227040373Y-127502219D02*
X226849897Y-127026028D01*
X226849897Y-127026028D02*
X226659421Y-127502219D01*
X226659421Y-127502219D02*
X226468945Y-126835552D01*
X225326087Y-127502219D02*
X225326087Y-126502219D01*
X225326087Y-126502219D02*
X224754659Y-127502219D01*
X224754659Y-127502219D02*
X224754659Y-126502219D01*
X224135611Y-127502219D02*
X224230849Y-127454600D01*
X224230849Y-127454600D02*
X224278468Y-127406980D01*
X224278468Y-127406980D02*
X224326087Y-127311742D01*
X224326087Y-127311742D02*
X224326087Y-127026028D01*
X224326087Y-127026028D02*
X224278468Y-126930790D01*
X224278468Y-126930790D02*
X224230849Y-126883171D01*
X224230849Y-126883171D02*
X224135611Y-126835552D01*
X224135611Y-126835552D02*
X223992754Y-126835552D01*
X223992754Y-126835552D02*
X223897516Y-126883171D01*
X223897516Y-126883171D02*
X223849897Y-126930790D01*
X223849897Y-126930790D02*
X223802278Y-127026028D01*
X223802278Y-127026028D02*
X223802278Y-127311742D01*
X223802278Y-127311742D02*
X223849897Y-127406980D01*
X223849897Y-127406980D02*
X223897516Y-127454600D01*
X223897516Y-127454600D02*
X223992754Y-127502219D01*
X223992754Y-127502219D02*
X224135611Y-127502219D01*
X223373706Y-127502219D02*
X223373706Y-126835552D01*
X223373706Y-126502219D02*
X223421325Y-126549838D01*
X223421325Y-126549838D02*
X223373706Y-126597457D01*
X223373706Y-126597457D02*
X223326087Y-126549838D01*
X223326087Y-126549838D02*
X223373706Y-126502219D01*
X223373706Y-126502219D02*
X223373706Y-126597457D01*
X222945135Y-127454600D02*
X222849897Y-127502219D01*
X222849897Y-127502219D02*
X222659421Y-127502219D01*
X222659421Y-127502219D02*
X222564183Y-127454600D01*
X222564183Y-127454600D02*
X222516564Y-127359361D01*
X222516564Y-127359361D02*
X222516564Y-127311742D01*
X222516564Y-127311742D02*
X222564183Y-127216504D01*
X222564183Y-127216504D02*
X222659421Y-127168885D01*
X222659421Y-127168885D02*
X222802278Y-127168885D01*
X222802278Y-127168885D02*
X222897516Y-127121266D01*
X222897516Y-127121266D02*
X222945135Y-127026028D01*
X222945135Y-127026028D02*
X222945135Y-126978409D01*
X222945135Y-126978409D02*
X222897516Y-126883171D01*
X222897516Y-126883171D02*
X222802278Y-126835552D01*
X222802278Y-126835552D02*
X222659421Y-126835552D01*
X222659421Y-126835552D02*
X222564183Y-126883171D01*
X221707040Y-127454600D02*
X221802278Y-127502219D01*
X221802278Y-127502219D02*
X221992754Y-127502219D01*
X221992754Y-127502219D02*
X222087992Y-127454600D01*
X222087992Y-127454600D02*
X222135611Y-127359361D01*
X222135611Y-127359361D02*
X222135611Y-126978409D01*
X222135611Y-126978409D02*
X222087992Y-126883171D01*
X222087992Y-126883171D02*
X221992754Y-126835552D01*
X221992754Y-126835552D02*
X221802278Y-126835552D01*
X221802278Y-126835552D02*
X221707040Y-126883171D01*
X221707040Y-126883171D02*
X221659421Y-126978409D01*
X221659421Y-126978409D02*
X221659421Y-127073647D01*
X221659421Y-127073647D02*
X222135611Y-127168885D01*
X220516563Y-127216504D02*
X220040373Y-127216504D01*
X220611801Y-127502219D02*
X220278468Y-126502219D01*
X220278468Y-126502219D02*
X219945135Y-127502219D01*
X219611801Y-127502219D02*
X219611801Y-126835552D01*
X219611801Y-126930790D02*
X219564182Y-126883171D01*
X219564182Y-126883171D02*
X219468944Y-126835552D01*
X219468944Y-126835552D02*
X219326087Y-126835552D01*
X219326087Y-126835552D02*
X219230849Y-126883171D01*
X219230849Y-126883171D02*
X219183230Y-126978409D01*
X219183230Y-126978409D02*
X219183230Y-127502219D01*
X219183230Y-126978409D02*
X219135611Y-126883171D01*
X219135611Y-126883171D02*
X219040373Y-126835552D01*
X219040373Y-126835552D02*
X218897516Y-126835552D01*
X218897516Y-126835552D02*
X218802277Y-126883171D01*
X218802277Y-126883171D02*
X218754658Y-126978409D01*
X218754658Y-126978409D02*
X218754658Y-127502219D01*
X218278468Y-126835552D02*
X218278468Y-127835552D01*
X218278468Y-126883171D02*
X218183230Y-126835552D01*
X218183230Y-126835552D02*
X217992754Y-126835552D01*
X217992754Y-126835552D02*
X217897516Y-126883171D01*
X217897516Y-126883171D02*
X217849897Y-126930790D01*
X217849897Y-126930790D02*
X217802278Y-127026028D01*
X217802278Y-127026028D02*
X217802278Y-127311742D01*
X217802278Y-127311742D02*
X217849897Y-127406980D01*
X217849897Y-127406980D02*
X217897516Y-127454600D01*
X217897516Y-127454600D02*
X217992754Y-127502219D01*
X217992754Y-127502219D02*
X218183230Y-127502219D01*
X218183230Y-127502219D02*
X218278468Y-127454600D01*
X217230849Y-127502219D02*
X217326087Y-127454600D01*
X217326087Y-127454600D02*
X217373706Y-127359361D01*
X217373706Y-127359361D02*
X217373706Y-126502219D01*
X216849896Y-127502219D02*
X216849896Y-126835552D01*
X216849896Y-126502219D02*
X216897515Y-126549838D01*
X216897515Y-126549838D02*
X216849896Y-126597457D01*
X216849896Y-126597457D02*
X216802277Y-126549838D01*
X216802277Y-126549838D02*
X216849896Y-126502219D01*
X216849896Y-126502219D02*
X216849896Y-126597457D01*
X216516563Y-126835552D02*
X216135611Y-126835552D01*
X216373706Y-127502219D02*
X216373706Y-126645076D01*
X216373706Y-126645076D02*
X216326087Y-126549838D01*
X216326087Y-126549838D02*
X216230849Y-126502219D01*
X216230849Y-126502219D02*
X216135611Y-126502219D01*
X215802277Y-127502219D02*
X215802277Y-126835552D01*
X215802277Y-126502219D02*
X215849896Y-126549838D01*
X215849896Y-126549838D02*
X215802277Y-126597457D01*
X215802277Y-126597457D02*
X215754658Y-126549838D01*
X215754658Y-126549838D02*
X215802277Y-126502219D01*
X215802277Y-126502219D02*
X215802277Y-126597457D01*
X214945135Y-127454600D02*
X215040373Y-127502219D01*
X215040373Y-127502219D02*
X215230849Y-127502219D01*
X215230849Y-127502219D02*
X215326087Y-127454600D01*
X215326087Y-127454600D02*
X215373706Y-127359361D01*
X215373706Y-127359361D02*
X215373706Y-126978409D01*
X215373706Y-126978409D02*
X215326087Y-126883171D01*
X215326087Y-126883171D02*
X215230849Y-126835552D01*
X215230849Y-126835552D02*
X215040373Y-126835552D01*
X215040373Y-126835552D02*
X214945135Y-126883171D01*
X214945135Y-126883171D02*
X214897516Y-126978409D01*
X214897516Y-126978409D02*
X214897516Y-127073647D01*
X214897516Y-127073647D02*
X215373706Y-127168885D01*
X214468944Y-127502219D02*
X214468944Y-126835552D01*
X214468944Y-127026028D02*
X214421325Y-126930790D01*
X214421325Y-126930790D02*
X214373706Y-126883171D01*
X214373706Y-126883171D02*
X214278468Y-126835552D01*
X214278468Y-126835552D02*
X214183230Y-126835552D01*
X213183229Y-126835552D02*
X212945134Y-127502219D01*
X212945134Y-127502219D02*
X212707039Y-126835552D01*
X212135610Y-126502219D02*
X212040372Y-126502219D01*
X212040372Y-126502219D02*
X211945134Y-126549838D01*
X211945134Y-126549838D02*
X211897515Y-126597457D01*
X211897515Y-126597457D02*
X211849896Y-126692695D01*
X211849896Y-126692695D02*
X211802277Y-126883171D01*
X211802277Y-126883171D02*
X211802277Y-127121266D01*
X211802277Y-127121266D02*
X211849896Y-127311742D01*
X211849896Y-127311742D02*
X211897515Y-127406980D01*
X211897515Y-127406980D02*
X211945134Y-127454600D01*
X211945134Y-127454600D02*
X212040372Y-127502219D01*
X212040372Y-127502219D02*
X212135610Y-127502219D01*
X212135610Y-127502219D02*
X212230848Y-127454600D01*
X212230848Y-127454600D02*
X212278467Y-127406980D01*
X212278467Y-127406980D02*
X212326086Y-127311742D01*
X212326086Y-127311742D02*
X212373705Y-127121266D01*
X212373705Y-127121266D02*
X212373705Y-126883171D01*
X212373705Y-126883171D02*
X212326086Y-126692695D01*
X212326086Y-126692695D02*
X212278467Y-126597457D01*
X212278467Y-126597457D02*
X212230848Y-126549838D01*
X212230848Y-126549838D02*
X212135610Y-126502219D01*
X211373705Y-127406980D02*
X211326086Y-127454600D01*
X211326086Y-127454600D02*
X211373705Y-127502219D01*
X211373705Y-127502219D02*
X211421324Y-127454600D01*
X211421324Y-127454600D02*
X211373705Y-127406980D01*
X211373705Y-127406980D02*
X211373705Y-127502219D01*
X210992753Y-126502219D02*
X210373706Y-126502219D01*
X210373706Y-126502219D02*
X210707039Y-126883171D01*
X210707039Y-126883171D02*
X210564182Y-126883171D01*
X210564182Y-126883171D02*
X210468944Y-126930790D01*
X210468944Y-126930790D02*
X210421325Y-126978409D01*
X210421325Y-126978409D02*
X210373706Y-127073647D01*
X210373706Y-127073647D02*
X210373706Y-127311742D01*
X210373706Y-127311742D02*
X210421325Y-127406980D01*
X210421325Y-127406980D02*
X210468944Y-127454600D01*
X210468944Y-127454600D02*
X210564182Y-127502219D01*
X210564182Y-127502219D02*
X210849896Y-127502219D01*
X210849896Y-127502219D02*
X210945134Y-127454600D01*
X210945134Y-127454600D02*
X210992753Y-127406980D01*
D11*
X232559652Y-125083438D02*
X232559652Y-123083438D01*
X231607271Y-123750104D02*
X231607271Y-125083438D01*
X231607271Y-123940580D02*
X231512033Y-123845342D01*
X231512033Y-123845342D02*
X231321557Y-123750104D01*
X231321557Y-123750104D02*
X231035842Y-123750104D01*
X231035842Y-123750104D02*
X230845366Y-123845342D01*
X230845366Y-123845342D02*
X230750128Y-124035819D01*
X230750128Y-124035819D02*
X230750128Y-125083438D01*
X230083461Y-123750104D02*
X229321557Y-123750104D01*
X229797747Y-125083438D02*
X229797747Y-123369152D01*
X229797747Y-123369152D02*
X229702509Y-123178676D01*
X229702509Y-123178676D02*
X229512033Y-123083438D01*
X229512033Y-123083438D02*
X229321557Y-123083438D01*
X228654890Y-125083438D02*
X228654890Y-123750104D01*
X228654890Y-123083438D02*
X228750128Y-123178676D01*
X228750128Y-123178676D02*
X228654890Y-123273914D01*
X228654890Y-123273914D02*
X228559652Y-123178676D01*
X228559652Y-123178676D02*
X228654890Y-123083438D01*
X228654890Y-123083438D02*
X228654890Y-123273914D01*
X227702509Y-123750104D02*
X227702509Y-125083438D01*
X227702509Y-123940580D02*
X227607271Y-123845342D01*
X227607271Y-123845342D02*
X227416795Y-123750104D01*
X227416795Y-123750104D02*
X227131080Y-123750104D01*
X227131080Y-123750104D02*
X226940604Y-123845342D01*
X226940604Y-123845342D02*
X226845366Y-124035819D01*
X226845366Y-124035819D02*
X226845366Y-125083438D01*
X225035842Y-123750104D02*
X225035842Y-125083438D01*
X225892985Y-123750104D02*
X225892985Y-124797723D01*
X225892985Y-124797723D02*
X225797747Y-124988200D01*
X225797747Y-124988200D02*
X225607271Y-125083438D01*
X225607271Y-125083438D02*
X225321556Y-125083438D01*
X225321556Y-125083438D02*
X225131080Y-124988200D01*
X225131080Y-124988200D02*
X225035842Y-124892961D01*
X224178699Y-124988200D02*
X223988223Y-125083438D01*
X223988223Y-125083438D02*
X223607271Y-125083438D01*
X223607271Y-125083438D02*
X223416794Y-124988200D01*
X223416794Y-124988200D02*
X223321556Y-124797723D01*
X223321556Y-124797723D02*
X223321556Y-124702485D01*
X223321556Y-124702485D02*
X223416794Y-124512009D01*
X223416794Y-124512009D02*
X223607271Y-124416771D01*
X223607271Y-124416771D02*
X223892985Y-124416771D01*
X223892985Y-124416771D02*
X224083461Y-124321533D01*
X224083461Y-124321533D02*
X224178699Y-124131057D01*
X224178699Y-124131057D02*
X224178699Y-124035819D01*
X224178699Y-124035819D02*
X224083461Y-123845342D01*
X224083461Y-123845342D02*
X223892985Y-123750104D01*
X223892985Y-123750104D02*
X223607271Y-123750104D01*
X223607271Y-123750104D02*
X223416794Y-123845342D01*
X220940603Y-124035819D02*
X220273936Y-124035819D01*
X219988222Y-125083438D02*
X220940603Y-125083438D01*
X220940603Y-125083438D02*
X220940603Y-123083438D01*
X220940603Y-123083438D02*
X219988222Y-123083438D01*
X218845365Y-125083438D02*
X219035841Y-124988200D01*
X219035841Y-124988200D02*
X219131079Y-124797723D01*
X219131079Y-124797723D02*
X219131079Y-123083438D01*
X217321555Y-124988200D02*
X217512031Y-125083438D01*
X217512031Y-125083438D02*
X217892984Y-125083438D01*
X217892984Y-125083438D02*
X218083460Y-124988200D01*
X218083460Y-124988200D02*
X218178698Y-124797723D01*
X218178698Y-124797723D02*
X218178698Y-124035819D01*
X218178698Y-124035819D02*
X218083460Y-123845342D01*
X218083460Y-123845342D02*
X217892984Y-123750104D01*
X217892984Y-123750104D02*
X217512031Y-123750104D01*
X217512031Y-123750104D02*
X217321555Y-123845342D01*
X217321555Y-123845342D02*
X217226317Y-124035819D01*
X217226317Y-124035819D02*
X217226317Y-124226295D01*
X217226317Y-124226295D02*
X218178698Y-124416771D01*
X215512031Y-124988200D02*
X215702507Y-125083438D01*
X215702507Y-125083438D02*
X216083460Y-125083438D01*
X216083460Y-125083438D02*
X216273936Y-124988200D01*
X216273936Y-124988200D02*
X216369174Y-124892961D01*
X216369174Y-124892961D02*
X216464412Y-124702485D01*
X216464412Y-124702485D02*
X216464412Y-124131057D01*
X216464412Y-124131057D02*
X216369174Y-123940580D01*
X216369174Y-123940580D02*
X216273936Y-123845342D01*
X216273936Y-123845342D02*
X216083460Y-123750104D01*
X216083460Y-123750104D02*
X215702507Y-123750104D01*
X215702507Y-123750104D02*
X215512031Y-123845342D01*
X214940602Y-123750104D02*
X214178698Y-123750104D01*
X214654888Y-123083438D02*
X214654888Y-124797723D01*
X214654888Y-124797723D02*
X214559650Y-124988200D01*
X214559650Y-124988200D02*
X214369174Y-125083438D01*
X214369174Y-125083438D02*
X214178698Y-125083438D01*
X213512031Y-125083438D02*
X213512031Y-123750104D01*
X213512031Y-124131057D02*
X213416793Y-123940580D01*
X213416793Y-123940580D02*
X213321555Y-123845342D01*
X213321555Y-123845342D02*
X213131079Y-123750104D01*
X213131079Y-123750104D02*
X212940602Y-123750104D01*
X211988222Y-125083438D02*
X212178698Y-124988200D01*
X212178698Y-124988200D02*
X212273936Y-124892961D01*
X212273936Y-124892961D02*
X212369174Y-124702485D01*
X212369174Y-124702485D02*
X212369174Y-124131057D01*
X212369174Y-124131057D02*
X212273936Y-123940580D01*
X212273936Y-123940580D02*
X212178698Y-123845342D01*
X212178698Y-123845342D02*
X211988222Y-123750104D01*
X211988222Y-123750104D02*
X211702507Y-123750104D01*
X211702507Y-123750104D02*
X211512031Y-123845342D01*
X211512031Y-123845342D02*
X211416793Y-123940580D01*
X211416793Y-123940580D02*
X211321555Y-124131057D01*
X211321555Y-124131057D02*
X211321555Y-124702485D01*
X211321555Y-124702485D02*
X211416793Y-124892961D01*
X211416793Y-124892961D02*
X211512031Y-124988200D01*
X211512031Y-124988200D02*
X211702507Y-125083438D01*
X211702507Y-125083438D02*
X211988222Y-125083438D01*
X210464412Y-123750104D02*
X210464412Y-125083438D01*
X210464412Y-123940580D02*
X210369174Y-123845342D01*
X210369174Y-123845342D02*
X210178698Y-123750104D01*
X210178698Y-123750104D02*
X209892983Y-123750104D01*
X209892983Y-123750104D02*
X209702507Y-123845342D01*
X209702507Y-123845342D02*
X209607269Y-124035819D01*
X209607269Y-124035819D02*
X209607269Y-125083438D01*
X208654888Y-125083438D02*
X208654888Y-123750104D01*
X208654888Y-123083438D02*
X208750126Y-123178676D01*
X208750126Y-123178676D02*
X208654888Y-123273914D01*
X208654888Y-123273914D02*
X208559650Y-123178676D01*
X208559650Y-123178676D02*
X208654888Y-123083438D01*
X208654888Y-123083438D02*
X208654888Y-123273914D01*
X206845364Y-124988200D02*
X207035840Y-125083438D01*
X207035840Y-125083438D02*
X207416793Y-125083438D01*
X207416793Y-125083438D02*
X207607269Y-124988200D01*
X207607269Y-124988200D02*
X207702507Y-124892961D01*
X207702507Y-124892961D02*
X207797745Y-124702485D01*
X207797745Y-124702485D02*
X207797745Y-124131057D01*
X207797745Y-124131057D02*
X207702507Y-123940580D01*
X207702507Y-123940580D02*
X207607269Y-123845342D01*
X207607269Y-123845342D02*
X207416793Y-123750104D01*
X207416793Y-123750104D02*
X207035840Y-123750104D01*
X207035840Y-123750104D02*
X206845364Y-123845342D01*
X206083459Y-124988200D02*
X205892983Y-125083438D01*
X205892983Y-125083438D02*
X205512031Y-125083438D01*
X205512031Y-125083438D02*
X205321554Y-124988200D01*
X205321554Y-124988200D02*
X205226316Y-124797723D01*
X205226316Y-124797723D02*
X205226316Y-124702485D01*
X205226316Y-124702485D02*
X205321554Y-124512009D01*
X205321554Y-124512009D02*
X205512031Y-124416771D01*
X205512031Y-124416771D02*
X205797745Y-124416771D01*
X205797745Y-124416771D02*
X205988221Y-124321533D01*
X205988221Y-124321533D02*
X206083459Y-124131057D01*
X206083459Y-124131057D02*
X206083459Y-124035819D01*
X206083459Y-124035819D02*
X205988221Y-123845342D01*
X205988221Y-123845342D02*
X205797745Y-123750104D01*
X205797745Y-123750104D02*
X205512031Y-123750104D01*
X205512031Y-123750104D02*
X205321554Y-123845342D01*
D12*
X196941009Y-115675285D02*
X196941009Y-115341952D01*
X197464819Y-115341952D02*
X196464819Y-115341952D01*
X196464819Y-115341952D02*
X196464819Y-115818142D01*
X196941009Y-116532428D02*
X196988628Y-116675285D01*
X196988628Y-116675285D02*
X197036247Y-116722904D01*
X197036247Y-116722904D02*
X197131485Y-116770523D01*
X197131485Y-116770523D02*
X197274342Y-116770523D01*
X197274342Y-116770523D02*
X197369580Y-116722904D01*
X197369580Y-116722904D02*
X197417200Y-116675285D01*
X197417200Y-116675285D02*
X197464819Y-116580047D01*
X197464819Y-116580047D02*
X197464819Y-116199095D01*
X197464819Y-116199095D02*
X196464819Y-116199095D01*
X196464819Y-116199095D02*
X196464819Y-116532428D01*
X196464819Y-116532428D02*
X196512438Y-116627666D01*
X196512438Y-116627666D02*
X196560057Y-116675285D01*
X196560057Y-116675285D02*
X196655295Y-116722904D01*
X196655295Y-116722904D02*
X196750533Y-116722904D01*
X196750533Y-116722904D02*
X196845771Y-116675285D01*
X196845771Y-116675285D02*
X196893390Y-116627666D01*
X196893390Y-116627666D02*
X196941009Y-116532428D01*
X196941009Y-116532428D02*
X196941009Y-116199095D01*
X197464819Y-117722904D02*
X197464819Y-117151476D01*
X197464819Y-117437190D02*
X196464819Y-117437190D01*
X196464819Y-117437190D02*
X196607676Y-117341952D01*
X196607676Y-117341952D02*
X196702914Y-117246714D01*
X196702914Y-117246714D02*
X196750533Y-117151476D01*
X196464819Y-118341952D02*
X196464819Y-118437190D01*
X196464819Y-118437190D02*
X196512438Y-118532428D01*
X196512438Y-118532428D02*
X196560057Y-118580047D01*
X196560057Y-118580047D02*
X196655295Y-118627666D01*
X196655295Y-118627666D02*
X196845771Y-118675285D01*
X196845771Y-118675285D02*
X197083866Y-118675285D01*
X197083866Y-118675285D02*
X197274342Y-118627666D01*
X197274342Y-118627666D02*
X197369580Y-118580047D01*
X197369580Y-118580047D02*
X197417200Y-118532428D01*
X197417200Y-118532428D02*
X197464819Y-118437190D01*
X197464819Y-118437190D02*
X197464819Y-118341952D01*
X197464819Y-118341952D02*
X197417200Y-118246714D01*
X197417200Y-118246714D02*
X197369580Y-118199095D01*
X197369580Y-118199095D02*
X197274342Y-118151476D01*
X197274342Y-118151476D02*
X197083866Y-118103857D01*
X197083866Y-118103857D02*
X196845771Y-118103857D01*
X196845771Y-118103857D02*
X196655295Y-118151476D01*
X196655295Y-118151476D02*
X196560057Y-118199095D01*
X196560057Y-118199095D02*
X196512438Y-118246714D01*
X196512438Y-118246714D02*
X196464819Y-118341952D01*
X197464819Y-119627666D02*
X197464819Y-119056238D01*
X197464819Y-119341952D02*
X196464819Y-119341952D01*
X196464819Y-119341952D02*
X196607676Y-119246714D01*
X196607676Y-119246714D02*
X196702914Y-119151476D01*
X196702914Y-119151476D02*
X196750533Y-119056238D01*
X196131547Y-122279580D02*
X196179166Y-122327200D01*
X196179166Y-122327200D02*
X196322023Y-122374819D01*
X196322023Y-122374819D02*
X196417261Y-122374819D01*
X196417261Y-122374819D02*
X196560118Y-122327200D01*
X196560118Y-122327200D02*
X196655356Y-122231961D01*
X196655356Y-122231961D02*
X196702975Y-122136723D01*
X196702975Y-122136723D02*
X196750594Y-121946247D01*
X196750594Y-121946247D02*
X196750594Y-121803390D01*
X196750594Y-121803390D02*
X196702975Y-121612914D01*
X196702975Y-121612914D02*
X196655356Y-121517676D01*
X196655356Y-121517676D02*
X196560118Y-121422438D01*
X196560118Y-121422438D02*
X196417261Y-121374819D01*
X196417261Y-121374819D02*
X196322023Y-121374819D01*
X196322023Y-121374819D02*
X196179166Y-121422438D01*
X196179166Y-121422438D02*
X196131547Y-121470057D01*
X195179166Y-122374819D02*
X195750594Y-122374819D01*
X195464880Y-122374819D02*
X195464880Y-121374819D01*
X195464880Y-121374819D02*
X195560118Y-121517676D01*
X195560118Y-121517676D02*
X195655356Y-121612914D01*
X195655356Y-121612914D02*
X195750594Y-121660533D01*
X194560118Y-121374819D02*
X194464880Y-121374819D01*
X194464880Y-121374819D02*
X194369642Y-121422438D01*
X194369642Y-121422438D02*
X194322023Y-121470057D01*
X194322023Y-121470057D02*
X194274404Y-121565295D01*
X194274404Y-121565295D02*
X194226785Y-121755771D01*
X194226785Y-121755771D02*
X194226785Y-121993866D01*
X194226785Y-121993866D02*
X194274404Y-122184342D01*
X194274404Y-122184342D02*
X194322023Y-122279580D01*
X194322023Y-122279580D02*
X194369642Y-122327200D01*
X194369642Y-122327200D02*
X194464880Y-122374819D01*
X194464880Y-122374819D02*
X194560118Y-122374819D01*
X194560118Y-122374819D02*
X194655356Y-122327200D01*
X194655356Y-122327200D02*
X194702975Y-122279580D01*
X194702975Y-122279580D02*
X194750594Y-122184342D01*
X194750594Y-122184342D02*
X194798213Y-121993866D01*
X194798213Y-121993866D02*
X194798213Y-121755771D01*
X194798213Y-121755771D02*
X194750594Y-121565295D01*
X194750594Y-121565295D02*
X194702975Y-121470057D01*
X194702975Y-121470057D02*
X194655356Y-121422438D01*
X194655356Y-121422438D02*
X194560118Y-121374819D01*
X193274404Y-122374819D02*
X193845832Y-122374819D01*
X193560118Y-122374819D02*
X193560118Y-121374819D01*
X193560118Y-121374819D02*
X193655356Y-121517676D01*
X193655356Y-121517676D02*
X193750594Y-121612914D01*
X193750594Y-121612914D02*
X193845832Y-121660533D01*
X196131547Y-113643580D02*
X196179166Y-113691200D01*
X196179166Y-113691200D02*
X196322023Y-113738819D01*
X196322023Y-113738819D02*
X196417261Y-113738819D01*
X196417261Y-113738819D02*
X196560118Y-113691200D01*
X196560118Y-113691200D02*
X196655356Y-113595961D01*
X196655356Y-113595961D02*
X196702975Y-113500723D01*
X196702975Y-113500723D02*
X196750594Y-113310247D01*
X196750594Y-113310247D02*
X196750594Y-113167390D01*
X196750594Y-113167390D02*
X196702975Y-112976914D01*
X196702975Y-112976914D02*
X196655356Y-112881676D01*
X196655356Y-112881676D02*
X196560118Y-112786438D01*
X196560118Y-112786438D02*
X196417261Y-112738819D01*
X196417261Y-112738819D02*
X196322023Y-112738819D01*
X196322023Y-112738819D02*
X196179166Y-112786438D01*
X196179166Y-112786438D02*
X196131547Y-112834057D01*
X195179166Y-113738819D02*
X195750594Y-113738819D01*
X195464880Y-113738819D02*
X195464880Y-112738819D01*
X195464880Y-112738819D02*
X195560118Y-112881676D01*
X195560118Y-112881676D02*
X195655356Y-112976914D01*
X195655356Y-112976914D02*
X195750594Y-113024533D01*
X194560118Y-112738819D02*
X194464880Y-112738819D01*
X194464880Y-112738819D02*
X194369642Y-112786438D01*
X194369642Y-112786438D02*
X194322023Y-112834057D01*
X194322023Y-112834057D02*
X194274404Y-112929295D01*
X194274404Y-112929295D02*
X194226785Y-113119771D01*
X194226785Y-113119771D02*
X194226785Y-113357866D01*
X194226785Y-113357866D02*
X194274404Y-113548342D01*
X194274404Y-113548342D02*
X194322023Y-113643580D01*
X194322023Y-113643580D02*
X194369642Y-113691200D01*
X194369642Y-113691200D02*
X194464880Y-113738819D01*
X194464880Y-113738819D02*
X194560118Y-113738819D01*
X194560118Y-113738819D02*
X194655356Y-113691200D01*
X194655356Y-113691200D02*
X194702975Y-113643580D01*
X194702975Y-113643580D02*
X194750594Y-113548342D01*
X194750594Y-113548342D02*
X194798213Y-113357866D01*
X194798213Y-113357866D02*
X194798213Y-113119771D01*
X194798213Y-113119771D02*
X194750594Y-112929295D01*
X194750594Y-112929295D02*
X194702975Y-112834057D01*
X194702975Y-112834057D02*
X194655356Y-112786438D01*
X194655356Y-112786438D02*
X194560118Y-112738819D01*
X193893451Y-112738819D02*
X193274404Y-112738819D01*
X193274404Y-112738819D02*
X193607737Y-113119771D01*
X193607737Y-113119771D02*
X193464880Y-113119771D01*
X193464880Y-113119771D02*
X193369642Y-113167390D01*
X193369642Y-113167390D02*
X193322023Y-113215009D01*
X193322023Y-113215009D02*
X193274404Y-113310247D01*
X193274404Y-113310247D02*
X193274404Y-113548342D01*
X193274404Y-113548342D02*
X193322023Y-113643580D01*
X193322023Y-113643580D02*
X193369642Y-113691200D01*
X193369642Y-113691200D02*
X193464880Y-113738819D01*
X193464880Y-113738819D02*
X193750594Y-113738819D01*
X193750594Y-113738819D02*
X193845832Y-113691200D01*
X193845832Y-113691200D02*
X193893451Y-113643580D01*
X211320580Y-108041452D02*
X211368200Y-107993833D01*
X211368200Y-107993833D02*
X211415819Y-107850976D01*
X211415819Y-107850976D02*
X211415819Y-107755738D01*
X211415819Y-107755738D02*
X211368200Y-107612881D01*
X211368200Y-107612881D02*
X211272961Y-107517643D01*
X211272961Y-107517643D02*
X211177723Y-107470024D01*
X211177723Y-107470024D02*
X210987247Y-107422405D01*
X210987247Y-107422405D02*
X210844390Y-107422405D01*
X210844390Y-107422405D02*
X210653914Y-107470024D01*
X210653914Y-107470024D02*
X210558676Y-107517643D01*
X210558676Y-107517643D02*
X210463438Y-107612881D01*
X210463438Y-107612881D02*
X210415819Y-107755738D01*
X210415819Y-107755738D02*
X210415819Y-107850976D01*
X210415819Y-107850976D02*
X210463438Y-107993833D01*
X210463438Y-107993833D02*
X210511057Y-108041452D01*
X211415819Y-108993833D02*
X211415819Y-108422405D01*
X211415819Y-108708119D02*
X210415819Y-108708119D01*
X210415819Y-108708119D02*
X210558676Y-108612881D01*
X210558676Y-108612881D02*
X210653914Y-108517643D01*
X210653914Y-108517643D02*
X210701533Y-108422405D01*
X210415819Y-109612881D02*
X210415819Y-109708119D01*
X210415819Y-109708119D02*
X210463438Y-109803357D01*
X210463438Y-109803357D02*
X210511057Y-109850976D01*
X210511057Y-109850976D02*
X210606295Y-109898595D01*
X210606295Y-109898595D02*
X210796771Y-109946214D01*
X210796771Y-109946214D02*
X211034866Y-109946214D01*
X211034866Y-109946214D02*
X211225342Y-109898595D01*
X211225342Y-109898595D02*
X211320580Y-109850976D01*
X211320580Y-109850976D02*
X211368200Y-109803357D01*
X211368200Y-109803357D02*
X211415819Y-109708119D01*
X211415819Y-109708119D02*
X211415819Y-109612881D01*
X211415819Y-109612881D02*
X211368200Y-109517643D01*
X211368200Y-109517643D02*
X211320580Y-109470024D01*
X211320580Y-109470024D02*
X211225342Y-109422405D01*
X211225342Y-109422405D02*
X211034866Y-109374786D01*
X211034866Y-109374786D02*
X210796771Y-109374786D01*
X210796771Y-109374786D02*
X210606295Y-109422405D01*
X210606295Y-109422405D02*
X210511057Y-109470024D01*
X210511057Y-109470024D02*
X210463438Y-109517643D01*
X210463438Y-109517643D02*
X210415819Y-109612881D01*
X210844390Y-110517643D02*
X210796771Y-110422405D01*
X210796771Y-110422405D02*
X210749152Y-110374786D01*
X210749152Y-110374786D02*
X210653914Y-110327167D01*
X210653914Y-110327167D02*
X210606295Y-110327167D01*
X210606295Y-110327167D02*
X210511057Y-110374786D01*
X210511057Y-110374786D02*
X210463438Y-110422405D01*
X210463438Y-110422405D02*
X210415819Y-110517643D01*
X210415819Y-110517643D02*
X210415819Y-110708119D01*
X210415819Y-110708119D02*
X210463438Y-110803357D01*
X210463438Y-110803357D02*
X210511057Y-110850976D01*
X210511057Y-110850976D02*
X210606295Y-110898595D01*
X210606295Y-110898595D02*
X210653914Y-110898595D01*
X210653914Y-110898595D02*
X210749152Y-110850976D01*
X210749152Y-110850976D02*
X210796771Y-110803357D01*
X210796771Y-110803357D02*
X210844390Y-110708119D01*
X210844390Y-110708119D02*
X210844390Y-110517643D01*
X210844390Y-110517643D02*
X210892009Y-110422405D01*
X210892009Y-110422405D02*
X210939628Y-110374786D01*
X210939628Y-110374786D02*
X211034866Y-110327167D01*
X211034866Y-110327167D02*
X211225342Y-110327167D01*
X211225342Y-110327167D02*
X211320580Y-110374786D01*
X211320580Y-110374786D02*
X211368200Y-110422405D01*
X211368200Y-110422405D02*
X211415819Y-110517643D01*
X211415819Y-110517643D02*
X211415819Y-110708119D01*
X211415819Y-110708119D02*
X211368200Y-110803357D01*
X211368200Y-110803357D02*
X211320580Y-110850976D01*
X211320580Y-110850976D02*
X211225342Y-110898595D01*
X211225342Y-110898595D02*
X211034866Y-110898595D01*
X211034866Y-110898595D02*
X210939628Y-110850976D01*
X210939628Y-110850976D02*
X210892009Y-110803357D01*
X210892009Y-110803357D02*
X210844390Y-110708119D01*
X202560580Y-108862952D02*
X202608200Y-108815333D01*
X202608200Y-108815333D02*
X202655819Y-108672476D01*
X202655819Y-108672476D02*
X202655819Y-108577238D01*
X202655819Y-108577238D02*
X202608200Y-108434381D01*
X202608200Y-108434381D02*
X202512961Y-108339143D01*
X202512961Y-108339143D02*
X202417723Y-108291524D01*
X202417723Y-108291524D02*
X202227247Y-108243905D01*
X202227247Y-108243905D02*
X202084390Y-108243905D01*
X202084390Y-108243905D02*
X201893914Y-108291524D01*
X201893914Y-108291524D02*
X201798676Y-108339143D01*
X201798676Y-108339143D02*
X201703438Y-108434381D01*
X201703438Y-108434381D02*
X201655819Y-108577238D01*
X201655819Y-108577238D02*
X201655819Y-108672476D01*
X201655819Y-108672476D02*
X201703438Y-108815333D01*
X201703438Y-108815333D02*
X201751057Y-108862952D01*
X202655819Y-109815333D02*
X202655819Y-109243905D01*
X202655819Y-109529619D02*
X201655819Y-109529619D01*
X201655819Y-109529619D02*
X201798676Y-109434381D01*
X201798676Y-109434381D02*
X201893914Y-109339143D01*
X201893914Y-109339143D02*
X201941533Y-109243905D01*
X201655819Y-110434381D02*
X201655819Y-110529619D01*
X201655819Y-110529619D02*
X201703438Y-110624857D01*
X201703438Y-110624857D02*
X201751057Y-110672476D01*
X201751057Y-110672476D02*
X201846295Y-110720095D01*
X201846295Y-110720095D02*
X202036771Y-110767714D01*
X202036771Y-110767714D02*
X202274866Y-110767714D01*
X202274866Y-110767714D02*
X202465342Y-110720095D01*
X202465342Y-110720095D02*
X202560580Y-110672476D01*
X202560580Y-110672476D02*
X202608200Y-110624857D01*
X202608200Y-110624857D02*
X202655819Y-110529619D01*
X202655819Y-110529619D02*
X202655819Y-110434381D01*
X202655819Y-110434381D02*
X202608200Y-110339143D01*
X202608200Y-110339143D02*
X202560580Y-110291524D01*
X202560580Y-110291524D02*
X202465342Y-110243905D01*
X202465342Y-110243905D02*
X202274866Y-110196286D01*
X202274866Y-110196286D02*
X202036771Y-110196286D01*
X202036771Y-110196286D02*
X201846295Y-110243905D01*
X201846295Y-110243905D02*
X201751057Y-110291524D01*
X201751057Y-110291524D02*
X201703438Y-110339143D01*
X201703438Y-110339143D02*
X201655819Y-110434381D01*
X201655819Y-111101048D02*
X201655819Y-111767714D01*
X201655819Y-111767714D02*
X202655819Y-111339143D01*
X196464580Y-108989952D02*
X196512200Y-108942333D01*
X196512200Y-108942333D02*
X196559819Y-108799476D01*
X196559819Y-108799476D02*
X196559819Y-108704238D01*
X196559819Y-108704238D02*
X196512200Y-108561381D01*
X196512200Y-108561381D02*
X196416961Y-108466143D01*
X196416961Y-108466143D02*
X196321723Y-108418524D01*
X196321723Y-108418524D02*
X196131247Y-108370905D01*
X196131247Y-108370905D02*
X195988390Y-108370905D01*
X195988390Y-108370905D02*
X195797914Y-108418524D01*
X195797914Y-108418524D02*
X195702676Y-108466143D01*
X195702676Y-108466143D02*
X195607438Y-108561381D01*
X195607438Y-108561381D02*
X195559819Y-108704238D01*
X195559819Y-108704238D02*
X195559819Y-108799476D01*
X195559819Y-108799476D02*
X195607438Y-108942333D01*
X195607438Y-108942333D02*
X195655057Y-108989952D01*
X196559819Y-109942333D02*
X196559819Y-109370905D01*
X196559819Y-109656619D02*
X195559819Y-109656619D01*
X195559819Y-109656619D02*
X195702676Y-109561381D01*
X195702676Y-109561381D02*
X195797914Y-109466143D01*
X195797914Y-109466143D02*
X195845533Y-109370905D01*
X195559819Y-110561381D02*
X195559819Y-110656619D01*
X195559819Y-110656619D02*
X195607438Y-110751857D01*
X195607438Y-110751857D02*
X195655057Y-110799476D01*
X195655057Y-110799476D02*
X195750295Y-110847095D01*
X195750295Y-110847095D02*
X195940771Y-110894714D01*
X195940771Y-110894714D02*
X196178866Y-110894714D01*
X196178866Y-110894714D02*
X196369342Y-110847095D01*
X196369342Y-110847095D02*
X196464580Y-110799476D01*
X196464580Y-110799476D02*
X196512200Y-110751857D01*
X196512200Y-110751857D02*
X196559819Y-110656619D01*
X196559819Y-110656619D02*
X196559819Y-110561381D01*
X196559819Y-110561381D02*
X196512200Y-110466143D01*
X196512200Y-110466143D02*
X196464580Y-110418524D01*
X196464580Y-110418524D02*
X196369342Y-110370905D01*
X196369342Y-110370905D02*
X196178866Y-110323286D01*
X196178866Y-110323286D02*
X195940771Y-110323286D01*
X195940771Y-110323286D02*
X195750295Y-110370905D01*
X195750295Y-110370905D02*
X195655057Y-110418524D01*
X195655057Y-110418524D02*
X195607438Y-110466143D01*
X195607438Y-110466143D02*
X195559819Y-110561381D01*
X195559819Y-111751857D02*
X195559819Y-111561381D01*
X195559819Y-111561381D02*
X195607438Y-111466143D01*
X195607438Y-111466143D02*
X195655057Y-111418524D01*
X195655057Y-111418524D02*
X195797914Y-111323286D01*
X195797914Y-111323286D02*
X195988390Y-111275667D01*
X195988390Y-111275667D02*
X196369342Y-111275667D01*
X196369342Y-111275667D02*
X196464580Y-111323286D01*
X196464580Y-111323286D02*
X196512200Y-111370905D01*
X196512200Y-111370905D02*
X196559819Y-111466143D01*
X196559819Y-111466143D02*
X196559819Y-111656619D01*
X196559819Y-111656619D02*
X196512200Y-111751857D01*
X196512200Y-111751857D02*
X196464580Y-111799476D01*
X196464580Y-111799476D02*
X196369342Y-111847095D01*
X196369342Y-111847095D02*
X196131247Y-111847095D01*
X196131247Y-111847095D02*
X196036009Y-111799476D01*
X196036009Y-111799476D02*
X195988390Y-111751857D01*
X195988390Y-111751857D02*
X195940771Y-111656619D01*
X195940771Y-111656619D02*
X195940771Y-111466143D01*
X195940771Y-111466143D02*
X195988390Y-111370905D01*
X195988390Y-111370905D02*
X196036009Y-111323286D01*
X196036009Y-111323286D02*
X196131247Y-111275667D01*
X199834285Y-111328819D02*
X199834285Y-112138342D01*
X199834285Y-112138342D02*
X199786666Y-112233580D01*
X199786666Y-112233580D02*
X199739047Y-112281200D01*
X199739047Y-112281200D02*
X199643809Y-112328819D01*
X199643809Y-112328819D02*
X199453333Y-112328819D01*
X199453333Y-112328819D02*
X199358095Y-112281200D01*
X199358095Y-112281200D02*
X199310476Y-112233580D01*
X199310476Y-112233580D02*
X199262857Y-112138342D01*
X199262857Y-112138342D02*
X199262857Y-111328819D01*
X198262857Y-112328819D02*
X198834285Y-112328819D01*
X198548571Y-112328819D02*
X198548571Y-111328819D01*
X198548571Y-111328819D02*
X198643809Y-111471676D01*
X198643809Y-111471676D02*
X198739047Y-111566914D01*
X198739047Y-111566914D02*
X198834285Y-111614533D01*
X197643809Y-111328819D02*
X197548571Y-111328819D01*
X197548571Y-111328819D02*
X197453333Y-111376438D01*
X197453333Y-111376438D02*
X197405714Y-111424057D01*
X197405714Y-111424057D02*
X197358095Y-111519295D01*
X197358095Y-111519295D02*
X197310476Y-111709771D01*
X197310476Y-111709771D02*
X197310476Y-111947866D01*
X197310476Y-111947866D02*
X197358095Y-112138342D01*
X197358095Y-112138342D02*
X197405714Y-112233580D01*
X197405714Y-112233580D02*
X197453333Y-112281200D01*
X197453333Y-112281200D02*
X197548571Y-112328819D01*
X197548571Y-112328819D02*
X197643809Y-112328819D01*
X197643809Y-112328819D02*
X197739047Y-112281200D01*
X197739047Y-112281200D02*
X197786666Y-112233580D01*
X197786666Y-112233580D02*
X197834285Y-112138342D01*
X197834285Y-112138342D02*
X197881904Y-111947866D01*
X197881904Y-111947866D02*
X197881904Y-111709771D01*
X197881904Y-111709771D02*
X197834285Y-111519295D01*
X197834285Y-111519295D02*
X197786666Y-111424057D01*
X197786666Y-111424057D02*
X197739047Y-111376438D01*
X197739047Y-111376438D02*
X197643809Y-111328819D01*
X196358095Y-112328819D02*
X196929523Y-112328819D01*
X196643809Y-112328819D02*
X196643809Y-111328819D01*
X196643809Y-111328819D02*
X196739047Y-111471676D01*
X196739047Y-111471676D02*
X196834285Y-111566914D01*
X196834285Y-111566914D02*
X196929523Y-111614533D01*
X193337547Y-122279580D02*
X193385166Y-122327200D01*
X193385166Y-122327200D02*
X193528023Y-122374819D01*
X193528023Y-122374819D02*
X193623261Y-122374819D01*
X193623261Y-122374819D02*
X193766118Y-122327200D01*
X193766118Y-122327200D02*
X193861356Y-122231961D01*
X193861356Y-122231961D02*
X193908975Y-122136723D01*
X193908975Y-122136723D02*
X193956594Y-121946247D01*
X193956594Y-121946247D02*
X193956594Y-121803390D01*
X193956594Y-121803390D02*
X193908975Y-121612914D01*
X193908975Y-121612914D02*
X193861356Y-121517676D01*
X193861356Y-121517676D02*
X193766118Y-121422438D01*
X193766118Y-121422438D02*
X193623261Y-121374819D01*
X193623261Y-121374819D02*
X193528023Y-121374819D01*
X193528023Y-121374819D02*
X193385166Y-121422438D01*
X193385166Y-121422438D02*
X193337547Y-121470057D01*
X192385166Y-122374819D02*
X192956594Y-122374819D01*
X192670880Y-122374819D02*
X192670880Y-121374819D01*
X192670880Y-121374819D02*
X192766118Y-121517676D01*
X192766118Y-121517676D02*
X192861356Y-121612914D01*
X192861356Y-121612914D02*
X192956594Y-121660533D01*
X191766118Y-121374819D02*
X191670880Y-121374819D01*
X191670880Y-121374819D02*
X191575642Y-121422438D01*
X191575642Y-121422438D02*
X191528023Y-121470057D01*
X191528023Y-121470057D02*
X191480404Y-121565295D01*
X191480404Y-121565295D02*
X191432785Y-121755771D01*
X191432785Y-121755771D02*
X191432785Y-121993866D01*
X191432785Y-121993866D02*
X191480404Y-122184342D01*
X191480404Y-122184342D02*
X191528023Y-122279580D01*
X191528023Y-122279580D02*
X191575642Y-122327200D01*
X191575642Y-122327200D02*
X191670880Y-122374819D01*
X191670880Y-122374819D02*
X191766118Y-122374819D01*
X191766118Y-122374819D02*
X191861356Y-122327200D01*
X191861356Y-122327200D02*
X191908975Y-122279580D01*
X191908975Y-122279580D02*
X191956594Y-122184342D01*
X191956594Y-122184342D02*
X192004213Y-121993866D01*
X192004213Y-121993866D02*
X192004213Y-121755771D01*
X192004213Y-121755771D02*
X191956594Y-121565295D01*
X191956594Y-121565295D02*
X191908975Y-121470057D01*
X191908975Y-121470057D02*
X191861356Y-121422438D01*
X191861356Y-121422438D02*
X191766118Y-121374819D01*
X191051832Y-121470057D02*
X191004213Y-121422438D01*
X191004213Y-121422438D02*
X190908975Y-121374819D01*
X190908975Y-121374819D02*
X190670880Y-121374819D01*
X190670880Y-121374819D02*
X190575642Y-121422438D01*
X190575642Y-121422438D02*
X190528023Y-121470057D01*
X190528023Y-121470057D02*
X190480404Y-121565295D01*
X190480404Y-121565295D02*
X190480404Y-121660533D01*
X190480404Y-121660533D02*
X190528023Y-121803390D01*
X190528023Y-121803390D02*
X191099451Y-122374819D01*
X191099451Y-122374819D02*
X190480404Y-122374819D01*
X194147009Y-115675285D02*
X194147009Y-115341952D01*
X194670819Y-115341952D02*
X193670819Y-115341952D01*
X193670819Y-115341952D02*
X193670819Y-115818142D01*
X194147009Y-116532428D02*
X194194628Y-116675285D01*
X194194628Y-116675285D02*
X194242247Y-116722904D01*
X194242247Y-116722904D02*
X194337485Y-116770523D01*
X194337485Y-116770523D02*
X194480342Y-116770523D01*
X194480342Y-116770523D02*
X194575580Y-116722904D01*
X194575580Y-116722904D02*
X194623200Y-116675285D01*
X194623200Y-116675285D02*
X194670819Y-116580047D01*
X194670819Y-116580047D02*
X194670819Y-116199095D01*
X194670819Y-116199095D02*
X193670819Y-116199095D01*
X193670819Y-116199095D02*
X193670819Y-116532428D01*
X193670819Y-116532428D02*
X193718438Y-116627666D01*
X193718438Y-116627666D02*
X193766057Y-116675285D01*
X193766057Y-116675285D02*
X193861295Y-116722904D01*
X193861295Y-116722904D02*
X193956533Y-116722904D01*
X193956533Y-116722904D02*
X194051771Y-116675285D01*
X194051771Y-116675285D02*
X194099390Y-116627666D01*
X194099390Y-116627666D02*
X194147009Y-116532428D01*
X194147009Y-116532428D02*
X194147009Y-116199095D01*
X194670819Y-117722904D02*
X194670819Y-117151476D01*
X194670819Y-117437190D02*
X193670819Y-117437190D01*
X193670819Y-117437190D02*
X193813676Y-117341952D01*
X193813676Y-117341952D02*
X193908914Y-117246714D01*
X193908914Y-117246714D02*
X193956533Y-117151476D01*
X193670819Y-118341952D02*
X193670819Y-118437190D01*
X193670819Y-118437190D02*
X193718438Y-118532428D01*
X193718438Y-118532428D02*
X193766057Y-118580047D01*
X193766057Y-118580047D02*
X193861295Y-118627666D01*
X193861295Y-118627666D02*
X194051771Y-118675285D01*
X194051771Y-118675285D02*
X194289866Y-118675285D01*
X194289866Y-118675285D02*
X194480342Y-118627666D01*
X194480342Y-118627666D02*
X194575580Y-118580047D01*
X194575580Y-118580047D02*
X194623200Y-118532428D01*
X194623200Y-118532428D02*
X194670819Y-118437190D01*
X194670819Y-118437190D02*
X194670819Y-118341952D01*
X194670819Y-118341952D02*
X194623200Y-118246714D01*
X194623200Y-118246714D02*
X194575580Y-118199095D01*
X194575580Y-118199095D02*
X194480342Y-118151476D01*
X194480342Y-118151476D02*
X194289866Y-118103857D01*
X194289866Y-118103857D02*
X194051771Y-118103857D01*
X194051771Y-118103857D02*
X193861295Y-118151476D01*
X193861295Y-118151476D02*
X193766057Y-118199095D01*
X193766057Y-118199095D02*
X193718438Y-118246714D01*
X193718438Y-118246714D02*
X193670819Y-118341952D01*
X193766057Y-119056238D02*
X193718438Y-119103857D01*
X193718438Y-119103857D02*
X193670819Y-119199095D01*
X193670819Y-119199095D02*
X193670819Y-119437190D01*
X193670819Y-119437190D02*
X193718438Y-119532428D01*
X193718438Y-119532428D02*
X193766057Y-119580047D01*
X193766057Y-119580047D02*
X193861295Y-119627666D01*
X193861295Y-119627666D02*
X193956533Y-119627666D01*
X193956533Y-119627666D02*
X194099390Y-119580047D01*
X194099390Y-119580047D02*
X194670819Y-119008619D01*
X194670819Y-119008619D02*
X194670819Y-119627666D01*
X204716580Y-108160452D02*
X204764200Y-108112833D01*
X204764200Y-108112833D02*
X204811819Y-107969976D01*
X204811819Y-107969976D02*
X204811819Y-107874738D01*
X204811819Y-107874738D02*
X204764200Y-107731881D01*
X204764200Y-107731881D02*
X204668961Y-107636643D01*
X204668961Y-107636643D02*
X204573723Y-107589024D01*
X204573723Y-107589024D02*
X204383247Y-107541405D01*
X204383247Y-107541405D02*
X204240390Y-107541405D01*
X204240390Y-107541405D02*
X204049914Y-107589024D01*
X204049914Y-107589024D02*
X203954676Y-107636643D01*
X203954676Y-107636643D02*
X203859438Y-107731881D01*
X203859438Y-107731881D02*
X203811819Y-107874738D01*
X203811819Y-107874738D02*
X203811819Y-107969976D01*
X203811819Y-107969976D02*
X203859438Y-108112833D01*
X203859438Y-108112833D02*
X203907057Y-108160452D01*
X204811819Y-109112833D02*
X204811819Y-108541405D01*
X204811819Y-108827119D02*
X203811819Y-108827119D01*
X203811819Y-108827119D02*
X203954676Y-108731881D01*
X203954676Y-108731881D02*
X204049914Y-108636643D01*
X204049914Y-108636643D02*
X204097533Y-108541405D01*
X203811819Y-109731881D02*
X203811819Y-109827119D01*
X203811819Y-109827119D02*
X203859438Y-109922357D01*
X203859438Y-109922357D02*
X203907057Y-109969976D01*
X203907057Y-109969976D02*
X204002295Y-110017595D01*
X204002295Y-110017595D02*
X204192771Y-110065214D01*
X204192771Y-110065214D02*
X204430866Y-110065214D01*
X204430866Y-110065214D02*
X204621342Y-110017595D01*
X204621342Y-110017595D02*
X204716580Y-109969976D01*
X204716580Y-109969976D02*
X204764200Y-109922357D01*
X204764200Y-109922357D02*
X204811819Y-109827119D01*
X204811819Y-109827119D02*
X204811819Y-109731881D01*
X204811819Y-109731881D02*
X204764200Y-109636643D01*
X204764200Y-109636643D02*
X204716580Y-109589024D01*
X204716580Y-109589024D02*
X204621342Y-109541405D01*
X204621342Y-109541405D02*
X204430866Y-109493786D01*
X204430866Y-109493786D02*
X204192771Y-109493786D01*
X204192771Y-109493786D02*
X204002295Y-109541405D01*
X204002295Y-109541405D02*
X203907057Y-109589024D01*
X203907057Y-109589024D02*
X203859438Y-109636643D01*
X203859438Y-109636643D02*
X203811819Y-109731881D01*
X203811819Y-110969976D02*
X203811819Y-110493786D01*
X203811819Y-110493786D02*
X204288009Y-110446167D01*
X204288009Y-110446167D02*
X204240390Y-110493786D01*
X204240390Y-110493786D02*
X204192771Y-110589024D01*
X204192771Y-110589024D02*
X204192771Y-110827119D01*
X204192771Y-110827119D02*
X204240390Y-110922357D01*
X204240390Y-110922357D02*
X204288009Y-110969976D01*
X204288009Y-110969976D02*
X204383247Y-111017595D01*
X204383247Y-111017595D02*
X204621342Y-111017595D01*
X204621342Y-111017595D02*
X204716580Y-110969976D01*
X204716580Y-110969976D02*
X204764200Y-110922357D01*
X204764200Y-110922357D02*
X204811819Y-110827119D01*
X204811819Y-110827119D02*
X204811819Y-110589024D01*
X204811819Y-110589024D02*
X204764200Y-110493786D01*
X204764200Y-110493786D02*
X204716580Y-110446167D01*
X193337547Y-113643580D02*
X193385166Y-113691200D01*
X193385166Y-113691200D02*
X193528023Y-113738819D01*
X193528023Y-113738819D02*
X193623261Y-113738819D01*
X193623261Y-113738819D02*
X193766118Y-113691200D01*
X193766118Y-113691200D02*
X193861356Y-113595961D01*
X193861356Y-113595961D02*
X193908975Y-113500723D01*
X193908975Y-113500723D02*
X193956594Y-113310247D01*
X193956594Y-113310247D02*
X193956594Y-113167390D01*
X193956594Y-113167390D02*
X193908975Y-112976914D01*
X193908975Y-112976914D02*
X193861356Y-112881676D01*
X193861356Y-112881676D02*
X193766118Y-112786438D01*
X193766118Y-112786438D02*
X193623261Y-112738819D01*
X193623261Y-112738819D02*
X193528023Y-112738819D01*
X193528023Y-112738819D02*
X193385166Y-112786438D01*
X193385166Y-112786438D02*
X193337547Y-112834057D01*
X192385166Y-113738819D02*
X192956594Y-113738819D01*
X192670880Y-113738819D02*
X192670880Y-112738819D01*
X192670880Y-112738819D02*
X192766118Y-112881676D01*
X192766118Y-112881676D02*
X192861356Y-112976914D01*
X192861356Y-112976914D02*
X192956594Y-113024533D01*
X191766118Y-112738819D02*
X191670880Y-112738819D01*
X191670880Y-112738819D02*
X191575642Y-112786438D01*
X191575642Y-112786438D02*
X191528023Y-112834057D01*
X191528023Y-112834057D02*
X191480404Y-112929295D01*
X191480404Y-112929295D02*
X191432785Y-113119771D01*
X191432785Y-113119771D02*
X191432785Y-113357866D01*
X191432785Y-113357866D02*
X191480404Y-113548342D01*
X191480404Y-113548342D02*
X191528023Y-113643580D01*
X191528023Y-113643580D02*
X191575642Y-113691200D01*
X191575642Y-113691200D02*
X191670880Y-113738819D01*
X191670880Y-113738819D02*
X191766118Y-113738819D01*
X191766118Y-113738819D02*
X191861356Y-113691200D01*
X191861356Y-113691200D02*
X191908975Y-113643580D01*
X191908975Y-113643580D02*
X191956594Y-113548342D01*
X191956594Y-113548342D02*
X192004213Y-113357866D01*
X192004213Y-113357866D02*
X192004213Y-113119771D01*
X192004213Y-113119771D02*
X191956594Y-112929295D01*
X191956594Y-112929295D02*
X191908975Y-112834057D01*
X191908975Y-112834057D02*
X191861356Y-112786438D01*
X191861356Y-112786438D02*
X191766118Y-112738819D01*
X190575642Y-113072152D02*
X190575642Y-113738819D01*
X190813737Y-112691200D02*
X191051832Y-113405485D01*
X191051832Y-113405485D02*
X190432785Y-113405485D01*
D13*
X195070000Y-117632267D02*
X195070000Y-117289733D01*
X196090000Y-117632267D02*
X196090000Y-117289733D01*
X195128335Y-120756000D02*
X194896665Y-120756000D01*
X195128335Y-120036000D02*
X194896665Y-120036000D01*
D10*
X204649000Y-110212000D02*
X205549000Y-110212000D01*
X205899000Y-107262000D02*
X205899000Y-110162000D01*
X205899000Y-110162000D02*
X207099000Y-110162000D01*
X207099000Y-107262000D02*
X205899000Y-107262000D01*
X207099000Y-110162000D02*
X207099000Y-107262000D01*
D13*
X195128335Y-114914000D02*
X194896665Y-114914000D01*
X195128335Y-114194000D02*
X194896665Y-114194000D01*
X209441000Y-109276335D02*
X209441000Y-109044665D01*
X210161000Y-109276335D02*
X210161000Y-109044665D01*
X200681000Y-110097835D02*
X200681000Y-109866165D01*
X201401000Y-110097835D02*
X201401000Y-109866165D01*
X194585000Y-110224835D02*
X194585000Y-109993165D01*
X195305000Y-110224835D02*
X195305000Y-109993165D01*
X198120000Y-107914000D02*
X197320000Y-107914000D01*
X198120000Y-107914000D02*
X198920000Y-107914000D01*
X198120000Y-111034000D02*
X196320000Y-111034000D01*
X198120000Y-111034000D02*
X198920000Y-111034000D01*
X192334335Y-120756000D02*
X192102665Y-120756000D01*
X192334335Y-120036000D02*
X192102665Y-120036000D01*
X192276000Y-117632267D02*
X192276000Y-117289733D01*
X193296000Y-117632267D02*
X193296000Y-117289733D01*
X202837000Y-109395335D02*
X202837000Y-109163665D01*
X203557000Y-109395335D02*
X203557000Y-109163665D01*
X192334335Y-114914000D02*
X192102665Y-114914000D01*
X192334335Y-114194000D02*
X192102665Y-114194000D01*
%LPC*%
D14*
X197612000Y-98685500D03*
D15*
X197612000Y-106305500D03*
D16*
X241300000Y-76200000D03*
D17*
X236220000Y-71120000D03*
D16*
X238760000Y-76200000D03*
D17*
X246380000Y-71120000D03*
D14*
X197612000Y-113284000D03*
D15*
X197612000Y-120904000D03*
D18*
X180340000Y-131318000D03*
D19*
X180340000Y-128778000D03*
X180340000Y-126238000D03*
X180340000Y-123698000D03*
X180340000Y-121158000D03*
X180340000Y-118618000D03*
X180340000Y-116078000D03*
X180340000Y-113538000D03*
X180340000Y-110998000D03*
X180340000Y-108458000D03*
X180340000Y-105918000D03*
X180340000Y-103378000D03*
X180340000Y-100838000D03*
X180340000Y-98298000D03*
X180340000Y-95758000D03*
D18*
X229870000Y-66675000D03*
D19*
X227330000Y-66675000D03*
X224790000Y-66675000D03*
X222250000Y-66675000D03*
X219710000Y-66675000D03*
X217170000Y-66675000D03*
X214630000Y-66675000D03*
X212090000Y-66675000D03*
X209550000Y-66675000D03*
X207010000Y-66675000D03*
X204470000Y-66675000D03*
X201930000Y-66675000D03*
X199390000Y-66675000D03*
X196850000Y-66675000D03*
X194310000Y-66675000D03*
D14*
X197612000Y-87418500D03*
D15*
X197612000Y-95038500D03*
D20*
X237794800Y-119430400D03*
D21*
X242874800Y-114350400D03*
D20*
X237794800Y-116890400D03*
D21*
X242874800Y-124510400D03*
D16*
X183388000Y-76200000D03*
D17*
X178308000Y-71120000D03*
D16*
X180848000Y-76200000D03*
D17*
X188468000Y-71120000D03*
D18*
X177793200Y-131328000D03*
D19*
X177793200Y-128788000D03*
X177793200Y-126248000D03*
X177793200Y-123708000D03*
X177793200Y-121168000D03*
X177793200Y-118628000D03*
X177793200Y-116088000D03*
X177793200Y-113548000D03*
X177793200Y-111008000D03*
X177793200Y-108468000D03*
X177793200Y-105928000D03*
X177793200Y-103388000D03*
X177793200Y-100848000D03*
X177793200Y-98308000D03*
X177793200Y-95768000D03*
D18*
X229870000Y-69215500D03*
D19*
X227330000Y-69215500D03*
X224790000Y-69215500D03*
X222250000Y-69215500D03*
X219710000Y-69215500D03*
X217170000Y-69215500D03*
X214630000Y-69215500D03*
X212090000Y-69215500D03*
X209550000Y-69215500D03*
X207010000Y-69215500D03*
X204470000Y-69215500D03*
X201930000Y-69215500D03*
X199390000Y-69215500D03*
X196850000Y-69215500D03*
X194310000Y-69215500D03*
D20*
X237744000Y-93472000D03*
D21*
X242824000Y-88392000D03*
D20*
X237744000Y-90932000D03*
D21*
X242824000Y-98552000D03*
D14*
X197612000Y-124756500D03*
D15*
X197612000Y-132376500D03*
D22*
X195580000Y-118336000D03*
X195580000Y-116586000D03*
D23*
X195580000Y-120396000D03*
X194445000Y-120396000D03*
D24*
X205099000Y-109662000D03*
X205099000Y-108712000D03*
X205099000Y-107762000D03*
X207899000Y-107762000D03*
X207899000Y-109662000D03*
D23*
X195580000Y-114554000D03*
X194445000Y-114554000D03*
D25*
X209801000Y-109728000D03*
X209801000Y-108593000D03*
X201041000Y-110549500D03*
X201041000Y-109414500D03*
X194945000Y-110676500D03*
X194945000Y-109541500D03*
D26*
X196982500Y-110424000D03*
X196982500Y-109474000D03*
X196982500Y-108524000D03*
X199257500Y-108524000D03*
X199257500Y-110424000D03*
D23*
X192786000Y-120396000D03*
X191651000Y-120396000D03*
D22*
X192786000Y-118336000D03*
X192786000Y-116586000D03*
D25*
X203197000Y-109847000D03*
X203197000Y-108712000D03*
D23*
X192786000Y-114554000D03*
X191651000Y-114554000D03*
%LPD*%
M02*
