G04 #@! TF.GenerationSoftware,KiCad,Pcbnew,7.0.7*
G04 #@! TF.CreationDate,2023-11-11T11:47:43+00:00*
G04 #@! TF.ProjectId,AD3 Front End Amplifier,41443320-4672-46f6-9e74-20456e642041,rev?*
G04 #@! TF.SameCoordinates,Original*
G04 #@! TF.FileFunction,Legend,Bot*
G04 #@! TF.FilePolarity,Positive*
%FSLAX46Y46*%
G04 Gerber Fmt 4.6, Leading zero omitted, Abs format (unit mm)*
G04 Created by KiCad (PCBNEW 7.0.7) date 2023-11-11 11:47:43*
%MOMM*%
%LPD*%
G01*
G04 APERTURE LIST*
G04 Aperture macros list*
%AMRoundRect*
0 Rectangle with rounded corners*
0 $1 Rounding radius*
0 $2 $3 $4 $5 $6 $7 $8 $9 X,Y pos of 4 corners*
0 Add a 4 corners polygon primitive as box body*
4,1,4,$2,$3,$4,$5,$6,$7,$8,$9,$2,$3,0*
0 Add four circle primitives for the rounded corners*
1,1,$1+$1,$2,$3*
1,1,$1+$1,$4,$5*
1,1,$1+$1,$6,$7*
1,1,$1+$1,$8,$9*
0 Add four rect primitives between the rounded corners*
20,1,$1+$1,$2,$3,$4,$5,0*
20,1,$1+$1,$4,$5,$6,$7,0*
20,1,$1+$1,$6,$7,$8,$9,0*
20,1,$1+$1,$8,$9,$2,$3,0*%
G04 Aperture macros list end*
%ADD10C,0.200000*%
%ADD11C,0.400000*%
%ADD12C,0.150000*%
%ADD13C,0.010000*%
%ADD14C,0.120000*%
%ADD15R,1.600000X1.600000*%
%ADD16O,1.600000X1.600000*%
%ADD17O,2.500000X1.600000*%
%ADD18O,7.000000X3.500000*%
%ADD19RoundRect,0.150000X-0.512500X-0.150000X0.512500X-0.150000X0.512500X0.150000X-0.512500X0.150000X0*%
%ADD20R,1.700000X1.700000*%
%ADD21O,1.700000X1.700000*%
%ADD22O,1.600000X2.500000*%
%ADD23O,3.500000X7.000000*%
%ADD24R,0.900000X0.600000*%
%ADD25RoundRect,0.237500X0.237500X-0.287500X0.237500X0.287500X-0.237500X0.287500X-0.237500X-0.287500X0*%
%ADD26RoundRect,0.155000X0.212500X0.155000X-0.212500X0.155000X-0.212500X-0.155000X0.212500X-0.155000X0*%
%ADD27RoundRect,0.155000X0.155000X-0.212500X0.155000X0.212500X-0.155000X0.212500X-0.155000X-0.212500X0*%
G04 APERTURE END LIST*
D10*
X232468945Y-127216504D02*
X231992755Y-127216504D01*
X232564183Y-127502219D02*
X232230850Y-126502219D01*
X232230850Y-126502219D02*
X231897517Y-127502219D01*
X231564183Y-127502219D02*
X231564183Y-126502219D01*
X231564183Y-126502219D02*
X231326088Y-126502219D01*
X231326088Y-126502219D02*
X231183231Y-126549838D01*
X231183231Y-126549838D02*
X231087993Y-126645076D01*
X231087993Y-126645076D02*
X231040374Y-126740314D01*
X231040374Y-126740314D02*
X230992755Y-126930790D01*
X230992755Y-126930790D02*
X230992755Y-127073647D01*
X230992755Y-127073647D02*
X231040374Y-127264123D01*
X231040374Y-127264123D02*
X231087993Y-127359361D01*
X231087993Y-127359361D02*
X231183231Y-127454600D01*
X231183231Y-127454600D02*
X231326088Y-127502219D01*
X231326088Y-127502219D02*
X231564183Y-127502219D01*
X230659421Y-126502219D02*
X230040374Y-126502219D01*
X230040374Y-126502219D02*
X230373707Y-126883171D01*
X230373707Y-126883171D02*
X230230850Y-126883171D01*
X230230850Y-126883171D02*
X230135612Y-126930790D01*
X230135612Y-126930790D02*
X230087993Y-126978409D01*
X230087993Y-126978409D02*
X230040374Y-127073647D01*
X230040374Y-127073647D02*
X230040374Y-127311742D01*
X230040374Y-127311742D02*
X230087993Y-127406980D01*
X230087993Y-127406980D02*
X230135612Y-127454600D01*
X230135612Y-127454600D02*
X230230850Y-127502219D01*
X230230850Y-127502219D02*
X230516564Y-127502219D01*
X230516564Y-127502219D02*
X230611802Y-127454600D01*
X230611802Y-127454600D02*
X230659421Y-127406980D01*
X228373707Y-127502219D02*
X228849897Y-127502219D01*
X228849897Y-127502219D02*
X228849897Y-126502219D01*
X227897516Y-127502219D02*
X227992754Y-127454600D01*
X227992754Y-127454600D02*
X228040373Y-127406980D01*
X228040373Y-127406980D02*
X228087992Y-127311742D01*
X228087992Y-127311742D02*
X228087992Y-127026028D01*
X228087992Y-127026028D02*
X228040373Y-126930790D01*
X228040373Y-126930790D02*
X227992754Y-126883171D01*
X227992754Y-126883171D02*
X227897516Y-126835552D01*
X227897516Y-126835552D02*
X227754659Y-126835552D01*
X227754659Y-126835552D02*
X227659421Y-126883171D01*
X227659421Y-126883171D02*
X227611802Y-126930790D01*
X227611802Y-126930790D02*
X227564183Y-127026028D01*
X227564183Y-127026028D02*
X227564183Y-127311742D01*
X227564183Y-127311742D02*
X227611802Y-127406980D01*
X227611802Y-127406980D02*
X227659421Y-127454600D01*
X227659421Y-127454600D02*
X227754659Y-127502219D01*
X227754659Y-127502219D02*
X227897516Y-127502219D01*
X227230849Y-126835552D02*
X227040373Y-127502219D01*
X227040373Y-127502219D02*
X226849897Y-127026028D01*
X226849897Y-127026028D02*
X226659421Y-127502219D01*
X226659421Y-127502219D02*
X226468945Y-126835552D01*
X225326087Y-127502219D02*
X225326087Y-126502219D01*
X225326087Y-126502219D02*
X224754659Y-127502219D01*
X224754659Y-127502219D02*
X224754659Y-126502219D01*
X224135611Y-127502219D02*
X224230849Y-127454600D01*
X224230849Y-127454600D02*
X224278468Y-127406980D01*
X224278468Y-127406980D02*
X224326087Y-127311742D01*
X224326087Y-127311742D02*
X224326087Y-127026028D01*
X224326087Y-127026028D02*
X224278468Y-126930790D01*
X224278468Y-126930790D02*
X224230849Y-126883171D01*
X224230849Y-126883171D02*
X224135611Y-126835552D01*
X224135611Y-126835552D02*
X223992754Y-126835552D01*
X223992754Y-126835552D02*
X223897516Y-126883171D01*
X223897516Y-126883171D02*
X223849897Y-126930790D01*
X223849897Y-126930790D02*
X223802278Y-127026028D01*
X223802278Y-127026028D02*
X223802278Y-127311742D01*
X223802278Y-127311742D02*
X223849897Y-127406980D01*
X223849897Y-127406980D02*
X223897516Y-127454600D01*
X223897516Y-127454600D02*
X223992754Y-127502219D01*
X223992754Y-127502219D02*
X224135611Y-127502219D01*
X223373706Y-127502219D02*
X223373706Y-126835552D01*
X223373706Y-126502219D02*
X223421325Y-126549838D01*
X223421325Y-126549838D02*
X223373706Y-126597457D01*
X223373706Y-126597457D02*
X223326087Y-126549838D01*
X223326087Y-126549838D02*
X223373706Y-126502219D01*
X223373706Y-126502219D02*
X223373706Y-126597457D01*
X222945135Y-127454600D02*
X222849897Y-127502219D01*
X222849897Y-127502219D02*
X222659421Y-127502219D01*
X222659421Y-127502219D02*
X222564183Y-127454600D01*
X222564183Y-127454600D02*
X222516564Y-127359361D01*
X222516564Y-127359361D02*
X222516564Y-127311742D01*
X222516564Y-127311742D02*
X222564183Y-127216504D01*
X222564183Y-127216504D02*
X222659421Y-127168885D01*
X222659421Y-127168885D02*
X222802278Y-127168885D01*
X222802278Y-127168885D02*
X222897516Y-127121266D01*
X222897516Y-127121266D02*
X222945135Y-127026028D01*
X222945135Y-127026028D02*
X222945135Y-126978409D01*
X222945135Y-126978409D02*
X222897516Y-126883171D01*
X222897516Y-126883171D02*
X222802278Y-126835552D01*
X222802278Y-126835552D02*
X222659421Y-126835552D01*
X222659421Y-126835552D02*
X222564183Y-126883171D01*
X221707040Y-127454600D02*
X221802278Y-127502219D01*
X221802278Y-127502219D02*
X221992754Y-127502219D01*
X221992754Y-127502219D02*
X222087992Y-127454600D01*
X222087992Y-127454600D02*
X222135611Y-127359361D01*
X222135611Y-127359361D02*
X222135611Y-126978409D01*
X222135611Y-126978409D02*
X222087992Y-126883171D01*
X222087992Y-126883171D02*
X221992754Y-126835552D01*
X221992754Y-126835552D02*
X221802278Y-126835552D01*
X221802278Y-126835552D02*
X221707040Y-126883171D01*
X221707040Y-126883171D02*
X221659421Y-126978409D01*
X221659421Y-126978409D02*
X221659421Y-127073647D01*
X221659421Y-127073647D02*
X222135611Y-127168885D01*
X220516563Y-127216504D02*
X220040373Y-127216504D01*
X220611801Y-127502219D02*
X220278468Y-126502219D01*
X220278468Y-126502219D02*
X219945135Y-127502219D01*
X219611801Y-127502219D02*
X219611801Y-126835552D01*
X219611801Y-126930790D02*
X219564182Y-126883171D01*
X219564182Y-126883171D02*
X219468944Y-126835552D01*
X219468944Y-126835552D02*
X219326087Y-126835552D01*
X219326087Y-126835552D02*
X219230849Y-126883171D01*
X219230849Y-126883171D02*
X219183230Y-126978409D01*
X219183230Y-126978409D02*
X219183230Y-127502219D01*
X219183230Y-126978409D02*
X219135611Y-126883171D01*
X219135611Y-126883171D02*
X219040373Y-126835552D01*
X219040373Y-126835552D02*
X218897516Y-126835552D01*
X218897516Y-126835552D02*
X218802277Y-126883171D01*
X218802277Y-126883171D02*
X218754658Y-126978409D01*
X218754658Y-126978409D02*
X218754658Y-127502219D01*
X218278468Y-126835552D02*
X218278468Y-127835552D01*
X218278468Y-126883171D02*
X218183230Y-126835552D01*
X218183230Y-126835552D02*
X217992754Y-126835552D01*
X217992754Y-126835552D02*
X217897516Y-126883171D01*
X217897516Y-126883171D02*
X217849897Y-126930790D01*
X217849897Y-126930790D02*
X217802278Y-127026028D01*
X217802278Y-127026028D02*
X217802278Y-127311742D01*
X217802278Y-127311742D02*
X217849897Y-127406980D01*
X217849897Y-127406980D02*
X217897516Y-127454600D01*
X217897516Y-127454600D02*
X217992754Y-127502219D01*
X217992754Y-127502219D02*
X218183230Y-127502219D01*
X218183230Y-127502219D02*
X218278468Y-127454600D01*
X217230849Y-127502219D02*
X217326087Y-127454600D01*
X217326087Y-127454600D02*
X217373706Y-127359361D01*
X217373706Y-127359361D02*
X217373706Y-126502219D01*
X216849896Y-127502219D02*
X216849896Y-126835552D01*
X216849896Y-126502219D02*
X216897515Y-126549838D01*
X216897515Y-126549838D02*
X216849896Y-126597457D01*
X216849896Y-126597457D02*
X216802277Y-126549838D01*
X216802277Y-126549838D02*
X216849896Y-126502219D01*
X216849896Y-126502219D02*
X216849896Y-126597457D01*
X216516563Y-126835552D02*
X216135611Y-126835552D01*
X216373706Y-127502219D02*
X216373706Y-126645076D01*
X216373706Y-126645076D02*
X216326087Y-126549838D01*
X216326087Y-126549838D02*
X216230849Y-126502219D01*
X216230849Y-126502219D02*
X216135611Y-126502219D01*
X215802277Y-127502219D02*
X215802277Y-126835552D01*
X215802277Y-126502219D02*
X215849896Y-126549838D01*
X215849896Y-126549838D02*
X215802277Y-126597457D01*
X215802277Y-126597457D02*
X215754658Y-126549838D01*
X215754658Y-126549838D02*
X215802277Y-126502219D01*
X215802277Y-126502219D02*
X215802277Y-126597457D01*
X214945135Y-127454600D02*
X215040373Y-127502219D01*
X215040373Y-127502219D02*
X215230849Y-127502219D01*
X215230849Y-127502219D02*
X215326087Y-127454600D01*
X215326087Y-127454600D02*
X215373706Y-127359361D01*
X215373706Y-127359361D02*
X215373706Y-126978409D01*
X215373706Y-126978409D02*
X215326087Y-126883171D01*
X215326087Y-126883171D02*
X215230849Y-126835552D01*
X215230849Y-126835552D02*
X215040373Y-126835552D01*
X215040373Y-126835552D02*
X214945135Y-126883171D01*
X214945135Y-126883171D02*
X214897516Y-126978409D01*
X214897516Y-126978409D02*
X214897516Y-127073647D01*
X214897516Y-127073647D02*
X215373706Y-127168885D01*
X214468944Y-127502219D02*
X214468944Y-126835552D01*
X214468944Y-127026028D02*
X214421325Y-126930790D01*
X214421325Y-126930790D02*
X214373706Y-126883171D01*
X214373706Y-126883171D02*
X214278468Y-126835552D01*
X214278468Y-126835552D02*
X214183230Y-126835552D01*
X213183229Y-126835552D02*
X212945134Y-127502219D01*
X212945134Y-127502219D02*
X212707039Y-126835552D01*
X212135610Y-126502219D02*
X212040372Y-126502219D01*
X212040372Y-126502219D02*
X211945134Y-126549838D01*
X211945134Y-126549838D02*
X211897515Y-126597457D01*
X211897515Y-126597457D02*
X211849896Y-126692695D01*
X211849896Y-126692695D02*
X211802277Y-126883171D01*
X211802277Y-126883171D02*
X211802277Y-127121266D01*
X211802277Y-127121266D02*
X211849896Y-127311742D01*
X211849896Y-127311742D02*
X211897515Y-127406980D01*
X211897515Y-127406980D02*
X211945134Y-127454600D01*
X211945134Y-127454600D02*
X212040372Y-127502219D01*
X212040372Y-127502219D02*
X212135610Y-127502219D01*
X212135610Y-127502219D02*
X212230848Y-127454600D01*
X212230848Y-127454600D02*
X212278467Y-127406980D01*
X212278467Y-127406980D02*
X212326086Y-127311742D01*
X212326086Y-127311742D02*
X212373705Y-127121266D01*
X212373705Y-127121266D02*
X212373705Y-126883171D01*
X212373705Y-126883171D02*
X212326086Y-126692695D01*
X212326086Y-126692695D02*
X212278467Y-126597457D01*
X212278467Y-126597457D02*
X212230848Y-126549838D01*
X212230848Y-126549838D02*
X212135610Y-126502219D01*
X211373705Y-127406980D02*
X211326086Y-127454600D01*
X211326086Y-127454600D02*
X211373705Y-127502219D01*
X211373705Y-127502219D02*
X211421324Y-127454600D01*
X211421324Y-127454600D02*
X211373705Y-127406980D01*
X211373705Y-127406980D02*
X211373705Y-127502219D01*
X210945134Y-126597457D02*
X210897515Y-126549838D01*
X210897515Y-126549838D02*
X210802277Y-126502219D01*
X210802277Y-126502219D02*
X210564182Y-126502219D01*
X210564182Y-126502219D02*
X210468944Y-126549838D01*
X210468944Y-126549838D02*
X210421325Y-126597457D01*
X210421325Y-126597457D02*
X210373706Y-126692695D01*
X210373706Y-126692695D02*
X210373706Y-126787933D01*
X210373706Y-126787933D02*
X210421325Y-126930790D01*
X210421325Y-126930790D02*
X210992753Y-127502219D01*
X210992753Y-127502219D02*
X210373706Y-127502219D01*
D11*
X232559652Y-125083438D02*
X232559652Y-123083438D01*
X231607271Y-123750104D02*
X231607271Y-125083438D01*
X231607271Y-123940580D02*
X231512033Y-123845342D01*
X231512033Y-123845342D02*
X231321557Y-123750104D01*
X231321557Y-123750104D02*
X231035842Y-123750104D01*
X231035842Y-123750104D02*
X230845366Y-123845342D01*
X230845366Y-123845342D02*
X230750128Y-124035819D01*
X230750128Y-124035819D02*
X230750128Y-125083438D01*
X230083461Y-123750104D02*
X229321557Y-123750104D01*
X229797747Y-125083438D02*
X229797747Y-123369152D01*
X229797747Y-123369152D02*
X229702509Y-123178676D01*
X229702509Y-123178676D02*
X229512033Y-123083438D01*
X229512033Y-123083438D02*
X229321557Y-123083438D01*
X228654890Y-125083438D02*
X228654890Y-123750104D01*
X228654890Y-123083438D02*
X228750128Y-123178676D01*
X228750128Y-123178676D02*
X228654890Y-123273914D01*
X228654890Y-123273914D02*
X228559652Y-123178676D01*
X228559652Y-123178676D02*
X228654890Y-123083438D01*
X228654890Y-123083438D02*
X228654890Y-123273914D01*
X227702509Y-123750104D02*
X227702509Y-125083438D01*
X227702509Y-123940580D02*
X227607271Y-123845342D01*
X227607271Y-123845342D02*
X227416795Y-123750104D01*
X227416795Y-123750104D02*
X227131080Y-123750104D01*
X227131080Y-123750104D02*
X226940604Y-123845342D01*
X226940604Y-123845342D02*
X226845366Y-124035819D01*
X226845366Y-124035819D02*
X226845366Y-125083438D01*
X225035842Y-123750104D02*
X225035842Y-125083438D01*
X225892985Y-123750104D02*
X225892985Y-124797723D01*
X225892985Y-124797723D02*
X225797747Y-124988200D01*
X225797747Y-124988200D02*
X225607271Y-125083438D01*
X225607271Y-125083438D02*
X225321556Y-125083438D01*
X225321556Y-125083438D02*
X225131080Y-124988200D01*
X225131080Y-124988200D02*
X225035842Y-124892961D01*
X224178699Y-124988200D02*
X223988223Y-125083438D01*
X223988223Y-125083438D02*
X223607271Y-125083438D01*
X223607271Y-125083438D02*
X223416794Y-124988200D01*
X223416794Y-124988200D02*
X223321556Y-124797723D01*
X223321556Y-124797723D02*
X223321556Y-124702485D01*
X223321556Y-124702485D02*
X223416794Y-124512009D01*
X223416794Y-124512009D02*
X223607271Y-124416771D01*
X223607271Y-124416771D02*
X223892985Y-124416771D01*
X223892985Y-124416771D02*
X224083461Y-124321533D01*
X224083461Y-124321533D02*
X224178699Y-124131057D01*
X224178699Y-124131057D02*
X224178699Y-124035819D01*
X224178699Y-124035819D02*
X224083461Y-123845342D01*
X224083461Y-123845342D02*
X223892985Y-123750104D01*
X223892985Y-123750104D02*
X223607271Y-123750104D01*
X223607271Y-123750104D02*
X223416794Y-123845342D01*
X220940603Y-124035819D02*
X220273936Y-124035819D01*
X219988222Y-125083438D02*
X220940603Y-125083438D01*
X220940603Y-125083438D02*
X220940603Y-123083438D01*
X220940603Y-123083438D02*
X219988222Y-123083438D01*
X218845365Y-125083438D02*
X219035841Y-124988200D01*
X219035841Y-124988200D02*
X219131079Y-124797723D01*
X219131079Y-124797723D02*
X219131079Y-123083438D01*
X217321555Y-124988200D02*
X217512031Y-125083438D01*
X217512031Y-125083438D02*
X217892984Y-125083438D01*
X217892984Y-125083438D02*
X218083460Y-124988200D01*
X218083460Y-124988200D02*
X218178698Y-124797723D01*
X218178698Y-124797723D02*
X218178698Y-124035819D01*
X218178698Y-124035819D02*
X218083460Y-123845342D01*
X218083460Y-123845342D02*
X217892984Y-123750104D01*
X217892984Y-123750104D02*
X217512031Y-123750104D01*
X217512031Y-123750104D02*
X217321555Y-123845342D01*
X217321555Y-123845342D02*
X217226317Y-124035819D01*
X217226317Y-124035819D02*
X217226317Y-124226295D01*
X217226317Y-124226295D02*
X218178698Y-124416771D01*
X215512031Y-124988200D02*
X215702507Y-125083438D01*
X215702507Y-125083438D02*
X216083460Y-125083438D01*
X216083460Y-125083438D02*
X216273936Y-124988200D01*
X216273936Y-124988200D02*
X216369174Y-124892961D01*
X216369174Y-124892961D02*
X216464412Y-124702485D01*
X216464412Y-124702485D02*
X216464412Y-124131057D01*
X216464412Y-124131057D02*
X216369174Y-123940580D01*
X216369174Y-123940580D02*
X216273936Y-123845342D01*
X216273936Y-123845342D02*
X216083460Y-123750104D01*
X216083460Y-123750104D02*
X215702507Y-123750104D01*
X215702507Y-123750104D02*
X215512031Y-123845342D01*
X214940602Y-123750104D02*
X214178698Y-123750104D01*
X214654888Y-123083438D02*
X214654888Y-124797723D01*
X214654888Y-124797723D02*
X214559650Y-124988200D01*
X214559650Y-124988200D02*
X214369174Y-125083438D01*
X214369174Y-125083438D02*
X214178698Y-125083438D01*
X213512031Y-125083438D02*
X213512031Y-123750104D01*
X213512031Y-124131057D02*
X213416793Y-123940580D01*
X213416793Y-123940580D02*
X213321555Y-123845342D01*
X213321555Y-123845342D02*
X213131079Y-123750104D01*
X213131079Y-123750104D02*
X212940602Y-123750104D01*
X211988222Y-125083438D02*
X212178698Y-124988200D01*
X212178698Y-124988200D02*
X212273936Y-124892961D01*
X212273936Y-124892961D02*
X212369174Y-124702485D01*
X212369174Y-124702485D02*
X212369174Y-124131057D01*
X212369174Y-124131057D02*
X212273936Y-123940580D01*
X212273936Y-123940580D02*
X212178698Y-123845342D01*
X212178698Y-123845342D02*
X211988222Y-123750104D01*
X211988222Y-123750104D02*
X211702507Y-123750104D01*
X211702507Y-123750104D02*
X211512031Y-123845342D01*
X211512031Y-123845342D02*
X211416793Y-123940580D01*
X211416793Y-123940580D02*
X211321555Y-124131057D01*
X211321555Y-124131057D02*
X211321555Y-124702485D01*
X211321555Y-124702485D02*
X211416793Y-124892961D01*
X211416793Y-124892961D02*
X211512031Y-124988200D01*
X211512031Y-124988200D02*
X211702507Y-125083438D01*
X211702507Y-125083438D02*
X211988222Y-125083438D01*
X210464412Y-123750104D02*
X210464412Y-125083438D01*
X210464412Y-123940580D02*
X210369174Y-123845342D01*
X210369174Y-123845342D02*
X210178698Y-123750104D01*
X210178698Y-123750104D02*
X209892983Y-123750104D01*
X209892983Y-123750104D02*
X209702507Y-123845342D01*
X209702507Y-123845342D02*
X209607269Y-124035819D01*
X209607269Y-124035819D02*
X209607269Y-125083438D01*
X208654888Y-125083438D02*
X208654888Y-123750104D01*
X208654888Y-123083438D02*
X208750126Y-123178676D01*
X208750126Y-123178676D02*
X208654888Y-123273914D01*
X208654888Y-123273914D02*
X208559650Y-123178676D01*
X208559650Y-123178676D02*
X208654888Y-123083438D01*
X208654888Y-123083438D02*
X208654888Y-123273914D01*
X206845364Y-124988200D02*
X207035840Y-125083438D01*
X207035840Y-125083438D02*
X207416793Y-125083438D01*
X207416793Y-125083438D02*
X207607269Y-124988200D01*
X207607269Y-124988200D02*
X207702507Y-124892961D01*
X207702507Y-124892961D02*
X207797745Y-124702485D01*
X207797745Y-124702485D02*
X207797745Y-124131057D01*
X207797745Y-124131057D02*
X207702507Y-123940580D01*
X207702507Y-123940580D02*
X207607269Y-123845342D01*
X207607269Y-123845342D02*
X207416793Y-123750104D01*
X207416793Y-123750104D02*
X207035840Y-123750104D01*
X207035840Y-123750104D02*
X206845364Y-123845342D01*
X206083459Y-124988200D02*
X205892983Y-125083438D01*
X205892983Y-125083438D02*
X205512031Y-125083438D01*
X205512031Y-125083438D02*
X205321554Y-124988200D01*
X205321554Y-124988200D02*
X205226316Y-124797723D01*
X205226316Y-124797723D02*
X205226316Y-124702485D01*
X205226316Y-124702485D02*
X205321554Y-124512009D01*
X205321554Y-124512009D02*
X205512031Y-124416771D01*
X205512031Y-124416771D02*
X205797745Y-124416771D01*
X205797745Y-124416771D02*
X205988221Y-124321533D01*
X205988221Y-124321533D02*
X206083459Y-124131057D01*
X206083459Y-124131057D02*
X206083459Y-124035819D01*
X206083459Y-124035819D02*
X205988221Y-123845342D01*
X205988221Y-123845342D02*
X205797745Y-123750104D01*
X205797745Y-123750104D02*
X205512031Y-123750104D01*
X205512031Y-123750104D02*
X205321554Y-123845342D01*
D12*
X199834285Y-110566819D02*
X199834285Y-111376342D01*
X199834285Y-111376342D02*
X199786666Y-111471580D01*
X199786666Y-111471580D02*
X199739047Y-111519200D01*
X199739047Y-111519200D02*
X199643809Y-111566819D01*
X199643809Y-111566819D02*
X199453333Y-111566819D01*
X199453333Y-111566819D02*
X199358095Y-111519200D01*
X199358095Y-111519200D02*
X199310476Y-111471580D01*
X199310476Y-111471580D02*
X199262857Y-111376342D01*
X199262857Y-111376342D02*
X199262857Y-110566819D01*
X198262857Y-111566819D02*
X198834285Y-111566819D01*
X198548571Y-111566819D02*
X198548571Y-110566819D01*
X198548571Y-110566819D02*
X198643809Y-110709676D01*
X198643809Y-110709676D02*
X198739047Y-110804914D01*
X198739047Y-110804914D02*
X198834285Y-110852533D01*
X197643809Y-110566819D02*
X197548571Y-110566819D01*
X197548571Y-110566819D02*
X197453333Y-110614438D01*
X197453333Y-110614438D02*
X197405714Y-110662057D01*
X197405714Y-110662057D02*
X197358095Y-110757295D01*
X197358095Y-110757295D02*
X197310476Y-110947771D01*
X197310476Y-110947771D02*
X197310476Y-111185866D01*
X197310476Y-111185866D02*
X197358095Y-111376342D01*
X197358095Y-111376342D02*
X197405714Y-111471580D01*
X197405714Y-111471580D02*
X197453333Y-111519200D01*
X197453333Y-111519200D02*
X197548571Y-111566819D01*
X197548571Y-111566819D02*
X197643809Y-111566819D01*
X197643809Y-111566819D02*
X197739047Y-111519200D01*
X197739047Y-111519200D02*
X197786666Y-111471580D01*
X197786666Y-111471580D02*
X197834285Y-111376342D01*
X197834285Y-111376342D02*
X197881904Y-111185866D01*
X197881904Y-111185866D02*
X197881904Y-110947771D01*
X197881904Y-110947771D02*
X197834285Y-110757295D01*
X197834285Y-110757295D02*
X197786666Y-110662057D01*
X197786666Y-110662057D02*
X197739047Y-110614438D01*
X197739047Y-110614438D02*
X197643809Y-110566819D01*
X196405714Y-110566819D02*
X196881904Y-110566819D01*
X196881904Y-110566819D02*
X196929523Y-111043009D01*
X196929523Y-111043009D02*
X196881904Y-110995390D01*
X196881904Y-110995390D02*
X196786666Y-110947771D01*
X196786666Y-110947771D02*
X196548571Y-110947771D01*
X196548571Y-110947771D02*
X196453333Y-110995390D01*
X196453333Y-110995390D02*
X196405714Y-111043009D01*
X196405714Y-111043009D02*
X196358095Y-111138247D01*
X196358095Y-111138247D02*
X196358095Y-111376342D01*
X196358095Y-111376342D02*
X196405714Y-111471580D01*
X196405714Y-111471580D02*
X196453333Y-111519200D01*
X196453333Y-111519200D02*
X196548571Y-111566819D01*
X196548571Y-111566819D02*
X196786666Y-111566819D01*
X196786666Y-111566819D02*
X196881904Y-111519200D01*
X196881904Y-111519200D02*
X196929523Y-111471580D01*
X194147009Y-115675285D02*
X194147009Y-115341952D01*
X194670819Y-115341952D02*
X193670819Y-115341952D01*
X193670819Y-115341952D02*
X193670819Y-115818142D01*
X194147009Y-116532428D02*
X194194628Y-116675285D01*
X194194628Y-116675285D02*
X194242247Y-116722904D01*
X194242247Y-116722904D02*
X194337485Y-116770523D01*
X194337485Y-116770523D02*
X194480342Y-116770523D01*
X194480342Y-116770523D02*
X194575580Y-116722904D01*
X194575580Y-116722904D02*
X194623200Y-116675285D01*
X194623200Y-116675285D02*
X194670819Y-116580047D01*
X194670819Y-116580047D02*
X194670819Y-116199095D01*
X194670819Y-116199095D02*
X193670819Y-116199095D01*
X193670819Y-116199095D02*
X193670819Y-116532428D01*
X193670819Y-116532428D02*
X193718438Y-116627666D01*
X193718438Y-116627666D02*
X193766057Y-116675285D01*
X193766057Y-116675285D02*
X193861295Y-116722904D01*
X193861295Y-116722904D02*
X193956533Y-116722904D01*
X193956533Y-116722904D02*
X194051771Y-116675285D01*
X194051771Y-116675285D02*
X194099390Y-116627666D01*
X194099390Y-116627666D02*
X194147009Y-116532428D01*
X194147009Y-116532428D02*
X194147009Y-116199095D01*
X194670819Y-117722904D02*
X194670819Y-117151476D01*
X194670819Y-117437190D02*
X193670819Y-117437190D01*
X193670819Y-117437190D02*
X193813676Y-117341952D01*
X193813676Y-117341952D02*
X193908914Y-117246714D01*
X193908914Y-117246714D02*
X193956533Y-117151476D01*
X193670819Y-118341952D02*
X193670819Y-118437190D01*
X193670819Y-118437190D02*
X193718438Y-118532428D01*
X193718438Y-118532428D02*
X193766057Y-118580047D01*
X193766057Y-118580047D02*
X193861295Y-118627666D01*
X193861295Y-118627666D02*
X194051771Y-118675285D01*
X194051771Y-118675285D02*
X194289866Y-118675285D01*
X194289866Y-118675285D02*
X194480342Y-118627666D01*
X194480342Y-118627666D02*
X194575580Y-118580047D01*
X194575580Y-118580047D02*
X194623200Y-118532428D01*
X194623200Y-118532428D02*
X194670819Y-118437190D01*
X194670819Y-118437190D02*
X194670819Y-118341952D01*
X194670819Y-118341952D02*
X194623200Y-118246714D01*
X194623200Y-118246714D02*
X194575580Y-118199095D01*
X194575580Y-118199095D02*
X194480342Y-118151476D01*
X194480342Y-118151476D02*
X194289866Y-118103857D01*
X194289866Y-118103857D02*
X194051771Y-118103857D01*
X194051771Y-118103857D02*
X193861295Y-118151476D01*
X193861295Y-118151476D02*
X193766057Y-118199095D01*
X193766057Y-118199095D02*
X193718438Y-118246714D01*
X193718438Y-118246714D02*
X193670819Y-118341952D01*
X193766057Y-119056238D02*
X193718438Y-119103857D01*
X193718438Y-119103857D02*
X193670819Y-119199095D01*
X193670819Y-119199095D02*
X193670819Y-119437190D01*
X193670819Y-119437190D02*
X193718438Y-119532428D01*
X193718438Y-119532428D02*
X193766057Y-119580047D01*
X193766057Y-119580047D02*
X193861295Y-119627666D01*
X193861295Y-119627666D02*
X193956533Y-119627666D01*
X193956533Y-119627666D02*
X194099390Y-119580047D01*
X194099390Y-119580047D02*
X194670819Y-119008619D01*
X194670819Y-119008619D02*
X194670819Y-119627666D01*
X198211009Y-115675285D02*
X198211009Y-115341952D01*
X198734819Y-115341952D02*
X197734819Y-115341952D01*
X197734819Y-115341952D02*
X197734819Y-115818142D01*
X198211009Y-116532428D02*
X198258628Y-116675285D01*
X198258628Y-116675285D02*
X198306247Y-116722904D01*
X198306247Y-116722904D02*
X198401485Y-116770523D01*
X198401485Y-116770523D02*
X198544342Y-116770523D01*
X198544342Y-116770523D02*
X198639580Y-116722904D01*
X198639580Y-116722904D02*
X198687200Y-116675285D01*
X198687200Y-116675285D02*
X198734819Y-116580047D01*
X198734819Y-116580047D02*
X198734819Y-116199095D01*
X198734819Y-116199095D02*
X197734819Y-116199095D01*
X197734819Y-116199095D02*
X197734819Y-116532428D01*
X197734819Y-116532428D02*
X197782438Y-116627666D01*
X197782438Y-116627666D02*
X197830057Y-116675285D01*
X197830057Y-116675285D02*
X197925295Y-116722904D01*
X197925295Y-116722904D02*
X198020533Y-116722904D01*
X198020533Y-116722904D02*
X198115771Y-116675285D01*
X198115771Y-116675285D02*
X198163390Y-116627666D01*
X198163390Y-116627666D02*
X198211009Y-116532428D01*
X198211009Y-116532428D02*
X198211009Y-116199095D01*
X198734819Y-117722904D02*
X198734819Y-117151476D01*
X198734819Y-117437190D02*
X197734819Y-117437190D01*
X197734819Y-117437190D02*
X197877676Y-117341952D01*
X197877676Y-117341952D02*
X197972914Y-117246714D01*
X197972914Y-117246714D02*
X198020533Y-117151476D01*
X197734819Y-118341952D02*
X197734819Y-118437190D01*
X197734819Y-118437190D02*
X197782438Y-118532428D01*
X197782438Y-118532428D02*
X197830057Y-118580047D01*
X197830057Y-118580047D02*
X197925295Y-118627666D01*
X197925295Y-118627666D02*
X198115771Y-118675285D01*
X198115771Y-118675285D02*
X198353866Y-118675285D01*
X198353866Y-118675285D02*
X198544342Y-118627666D01*
X198544342Y-118627666D02*
X198639580Y-118580047D01*
X198639580Y-118580047D02*
X198687200Y-118532428D01*
X198687200Y-118532428D02*
X198734819Y-118437190D01*
X198734819Y-118437190D02*
X198734819Y-118341952D01*
X198734819Y-118341952D02*
X198687200Y-118246714D01*
X198687200Y-118246714D02*
X198639580Y-118199095D01*
X198639580Y-118199095D02*
X198544342Y-118151476D01*
X198544342Y-118151476D02*
X198353866Y-118103857D01*
X198353866Y-118103857D02*
X198115771Y-118103857D01*
X198115771Y-118103857D02*
X197925295Y-118151476D01*
X197925295Y-118151476D02*
X197830057Y-118199095D01*
X197830057Y-118199095D02*
X197782438Y-118246714D01*
X197782438Y-118246714D02*
X197734819Y-118341952D01*
X198734819Y-119627666D02*
X198734819Y-119056238D01*
X198734819Y-119341952D02*
X197734819Y-119341952D01*
X197734819Y-119341952D02*
X197877676Y-119246714D01*
X197877676Y-119246714D02*
X197972914Y-119151476D01*
X197972914Y-119151476D02*
X198020533Y-119056238D01*
X193337547Y-113643580D02*
X193385166Y-113691200D01*
X193385166Y-113691200D02*
X193528023Y-113738819D01*
X193528023Y-113738819D02*
X193623261Y-113738819D01*
X193623261Y-113738819D02*
X193766118Y-113691200D01*
X193766118Y-113691200D02*
X193861356Y-113595961D01*
X193861356Y-113595961D02*
X193908975Y-113500723D01*
X193908975Y-113500723D02*
X193956594Y-113310247D01*
X193956594Y-113310247D02*
X193956594Y-113167390D01*
X193956594Y-113167390D02*
X193908975Y-112976914D01*
X193908975Y-112976914D02*
X193861356Y-112881676D01*
X193861356Y-112881676D02*
X193766118Y-112786438D01*
X193766118Y-112786438D02*
X193623261Y-112738819D01*
X193623261Y-112738819D02*
X193528023Y-112738819D01*
X193528023Y-112738819D02*
X193385166Y-112786438D01*
X193385166Y-112786438D02*
X193337547Y-112834057D01*
X192385166Y-113738819D02*
X192956594Y-113738819D01*
X192670880Y-113738819D02*
X192670880Y-112738819D01*
X192670880Y-112738819D02*
X192766118Y-112881676D01*
X192766118Y-112881676D02*
X192861356Y-112976914D01*
X192861356Y-112976914D02*
X192956594Y-113024533D01*
X192004213Y-112834057D02*
X191956594Y-112786438D01*
X191956594Y-112786438D02*
X191861356Y-112738819D01*
X191861356Y-112738819D02*
X191623261Y-112738819D01*
X191623261Y-112738819D02*
X191528023Y-112786438D01*
X191528023Y-112786438D02*
X191480404Y-112834057D01*
X191480404Y-112834057D02*
X191432785Y-112929295D01*
X191432785Y-112929295D02*
X191432785Y-113024533D01*
X191432785Y-113024533D02*
X191480404Y-113167390D01*
X191480404Y-113167390D02*
X192051832Y-113738819D01*
X192051832Y-113738819D02*
X191432785Y-113738819D01*
X190575642Y-113072152D02*
X190575642Y-113738819D01*
X190813737Y-112691200D02*
X191051832Y-113405485D01*
X191051832Y-113405485D02*
X190432785Y-113405485D01*
X193337547Y-122279580D02*
X193385166Y-122327200D01*
X193385166Y-122327200D02*
X193528023Y-122374819D01*
X193528023Y-122374819D02*
X193623261Y-122374819D01*
X193623261Y-122374819D02*
X193766118Y-122327200D01*
X193766118Y-122327200D02*
X193861356Y-122231961D01*
X193861356Y-122231961D02*
X193908975Y-122136723D01*
X193908975Y-122136723D02*
X193956594Y-121946247D01*
X193956594Y-121946247D02*
X193956594Y-121803390D01*
X193956594Y-121803390D02*
X193908975Y-121612914D01*
X193908975Y-121612914D02*
X193861356Y-121517676D01*
X193861356Y-121517676D02*
X193766118Y-121422438D01*
X193766118Y-121422438D02*
X193623261Y-121374819D01*
X193623261Y-121374819D02*
X193528023Y-121374819D01*
X193528023Y-121374819D02*
X193385166Y-121422438D01*
X193385166Y-121422438D02*
X193337547Y-121470057D01*
X192385166Y-122374819D02*
X192956594Y-122374819D01*
X192670880Y-122374819D02*
X192670880Y-121374819D01*
X192670880Y-121374819D02*
X192766118Y-121517676D01*
X192766118Y-121517676D02*
X192861356Y-121612914D01*
X192861356Y-121612914D02*
X192956594Y-121660533D01*
X192004213Y-121470057D02*
X191956594Y-121422438D01*
X191956594Y-121422438D02*
X191861356Y-121374819D01*
X191861356Y-121374819D02*
X191623261Y-121374819D01*
X191623261Y-121374819D02*
X191528023Y-121422438D01*
X191528023Y-121422438D02*
X191480404Y-121470057D01*
X191480404Y-121470057D02*
X191432785Y-121565295D01*
X191432785Y-121565295D02*
X191432785Y-121660533D01*
X191432785Y-121660533D02*
X191480404Y-121803390D01*
X191480404Y-121803390D02*
X192051832Y-122374819D01*
X192051832Y-122374819D02*
X191432785Y-122374819D01*
X191099451Y-121374819D02*
X190480404Y-121374819D01*
X190480404Y-121374819D02*
X190813737Y-121755771D01*
X190813737Y-121755771D02*
X190670880Y-121755771D01*
X190670880Y-121755771D02*
X190575642Y-121803390D01*
X190575642Y-121803390D02*
X190528023Y-121851009D01*
X190528023Y-121851009D02*
X190480404Y-121946247D01*
X190480404Y-121946247D02*
X190480404Y-122184342D01*
X190480404Y-122184342D02*
X190528023Y-122279580D01*
X190528023Y-122279580D02*
X190575642Y-122327200D01*
X190575642Y-122327200D02*
X190670880Y-122374819D01*
X190670880Y-122374819D02*
X190956594Y-122374819D01*
X190956594Y-122374819D02*
X191051832Y-122327200D01*
X191051832Y-122327200D02*
X191099451Y-122279580D01*
X197401547Y-113643580D02*
X197449166Y-113691200D01*
X197449166Y-113691200D02*
X197592023Y-113738819D01*
X197592023Y-113738819D02*
X197687261Y-113738819D01*
X197687261Y-113738819D02*
X197830118Y-113691200D01*
X197830118Y-113691200D02*
X197925356Y-113595961D01*
X197925356Y-113595961D02*
X197972975Y-113500723D01*
X197972975Y-113500723D02*
X198020594Y-113310247D01*
X198020594Y-113310247D02*
X198020594Y-113167390D01*
X198020594Y-113167390D02*
X197972975Y-112976914D01*
X197972975Y-112976914D02*
X197925356Y-112881676D01*
X197925356Y-112881676D02*
X197830118Y-112786438D01*
X197830118Y-112786438D02*
X197687261Y-112738819D01*
X197687261Y-112738819D02*
X197592023Y-112738819D01*
X197592023Y-112738819D02*
X197449166Y-112786438D01*
X197449166Y-112786438D02*
X197401547Y-112834057D01*
X196449166Y-113738819D02*
X197020594Y-113738819D01*
X196734880Y-113738819D02*
X196734880Y-112738819D01*
X196734880Y-112738819D02*
X196830118Y-112881676D01*
X196830118Y-112881676D02*
X196925356Y-112976914D01*
X196925356Y-112976914D02*
X197020594Y-113024533D01*
X196068213Y-112834057D02*
X196020594Y-112786438D01*
X196020594Y-112786438D02*
X195925356Y-112738819D01*
X195925356Y-112738819D02*
X195687261Y-112738819D01*
X195687261Y-112738819D02*
X195592023Y-112786438D01*
X195592023Y-112786438D02*
X195544404Y-112834057D01*
X195544404Y-112834057D02*
X195496785Y-112929295D01*
X195496785Y-112929295D02*
X195496785Y-113024533D01*
X195496785Y-113024533D02*
X195544404Y-113167390D01*
X195544404Y-113167390D02*
X196115832Y-113738819D01*
X196115832Y-113738819D02*
X195496785Y-113738819D01*
X195115832Y-112834057D02*
X195068213Y-112786438D01*
X195068213Y-112786438D02*
X194972975Y-112738819D01*
X194972975Y-112738819D02*
X194734880Y-112738819D01*
X194734880Y-112738819D02*
X194639642Y-112786438D01*
X194639642Y-112786438D02*
X194592023Y-112834057D01*
X194592023Y-112834057D02*
X194544404Y-112929295D01*
X194544404Y-112929295D02*
X194544404Y-113024533D01*
X194544404Y-113024533D02*
X194592023Y-113167390D01*
X194592023Y-113167390D02*
X195163451Y-113738819D01*
X195163451Y-113738819D02*
X194544404Y-113738819D01*
X197401547Y-122279580D02*
X197449166Y-122327200D01*
X197449166Y-122327200D02*
X197592023Y-122374819D01*
X197592023Y-122374819D02*
X197687261Y-122374819D01*
X197687261Y-122374819D02*
X197830118Y-122327200D01*
X197830118Y-122327200D02*
X197925356Y-122231961D01*
X197925356Y-122231961D02*
X197972975Y-122136723D01*
X197972975Y-122136723D02*
X198020594Y-121946247D01*
X198020594Y-121946247D02*
X198020594Y-121803390D01*
X198020594Y-121803390D02*
X197972975Y-121612914D01*
X197972975Y-121612914D02*
X197925356Y-121517676D01*
X197925356Y-121517676D02*
X197830118Y-121422438D01*
X197830118Y-121422438D02*
X197687261Y-121374819D01*
X197687261Y-121374819D02*
X197592023Y-121374819D01*
X197592023Y-121374819D02*
X197449166Y-121422438D01*
X197449166Y-121422438D02*
X197401547Y-121470057D01*
X196449166Y-122374819D02*
X197020594Y-122374819D01*
X196734880Y-122374819D02*
X196734880Y-121374819D01*
X196734880Y-121374819D02*
X196830118Y-121517676D01*
X196830118Y-121517676D02*
X196925356Y-121612914D01*
X196925356Y-121612914D02*
X197020594Y-121660533D01*
X196068213Y-121470057D02*
X196020594Y-121422438D01*
X196020594Y-121422438D02*
X195925356Y-121374819D01*
X195925356Y-121374819D02*
X195687261Y-121374819D01*
X195687261Y-121374819D02*
X195592023Y-121422438D01*
X195592023Y-121422438D02*
X195544404Y-121470057D01*
X195544404Y-121470057D02*
X195496785Y-121565295D01*
X195496785Y-121565295D02*
X195496785Y-121660533D01*
X195496785Y-121660533D02*
X195544404Y-121803390D01*
X195544404Y-121803390D02*
X196115832Y-122374819D01*
X196115832Y-122374819D02*
X195496785Y-122374819D01*
X194544404Y-122374819D02*
X195115832Y-122374819D01*
X194830118Y-122374819D02*
X194830118Y-121374819D01*
X194830118Y-121374819D02*
X194925356Y-121517676D01*
X194925356Y-121517676D02*
X195020594Y-121612914D01*
X195020594Y-121612914D02*
X195115832Y-121660533D01*
X211320580Y-108041452D02*
X211368200Y-107993833D01*
X211368200Y-107993833D02*
X211415819Y-107850976D01*
X211415819Y-107850976D02*
X211415819Y-107755738D01*
X211415819Y-107755738D02*
X211368200Y-107612881D01*
X211368200Y-107612881D02*
X211272961Y-107517643D01*
X211272961Y-107517643D02*
X211177723Y-107470024D01*
X211177723Y-107470024D02*
X210987247Y-107422405D01*
X210987247Y-107422405D02*
X210844390Y-107422405D01*
X210844390Y-107422405D02*
X210653914Y-107470024D01*
X210653914Y-107470024D02*
X210558676Y-107517643D01*
X210558676Y-107517643D02*
X210463438Y-107612881D01*
X210463438Y-107612881D02*
X210415819Y-107755738D01*
X210415819Y-107755738D02*
X210415819Y-107850976D01*
X210415819Y-107850976D02*
X210463438Y-107993833D01*
X210463438Y-107993833D02*
X210511057Y-108041452D01*
X211415819Y-108993833D02*
X211415819Y-108422405D01*
X211415819Y-108708119D02*
X210415819Y-108708119D01*
X210415819Y-108708119D02*
X210558676Y-108612881D01*
X210558676Y-108612881D02*
X210653914Y-108517643D01*
X210653914Y-108517643D02*
X210701533Y-108422405D01*
X210511057Y-109374786D02*
X210463438Y-109422405D01*
X210463438Y-109422405D02*
X210415819Y-109517643D01*
X210415819Y-109517643D02*
X210415819Y-109755738D01*
X210415819Y-109755738D02*
X210463438Y-109850976D01*
X210463438Y-109850976D02*
X210511057Y-109898595D01*
X210511057Y-109898595D02*
X210606295Y-109946214D01*
X210606295Y-109946214D02*
X210701533Y-109946214D01*
X210701533Y-109946214D02*
X210844390Y-109898595D01*
X210844390Y-109898595D02*
X211415819Y-109327167D01*
X211415819Y-109327167D02*
X211415819Y-109946214D01*
X210415819Y-110565262D02*
X210415819Y-110660500D01*
X210415819Y-110660500D02*
X210463438Y-110755738D01*
X210463438Y-110755738D02*
X210511057Y-110803357D01*
X210511057Y-110803357D02*
X210606295Y-110850976D01*
X210606295Y-110850976D02*
X210796771Y-110898595D01*
X210796771Y-110898595D02*
X211034866Y-110898595D01*
X211034866Y-110898595D02*
X211225342Y-110850976D01*
X211225342Y-110850976D02*
X211320580Y-110803357D01*
X211320580Y-110803357D02*
X211368200Y-110755738D01*
X211368200Y-110755738D02*
X211415819Y-110660500D01*
X211415819Y-110660500D02*
X211415819Y-110565262D01*
X211415819Y-110565262D02*
X211368200Y-110470024D01*
X211368200Y-110470024D02*
X211320580Y-110422405D01*
X211320580Y-110422405D02*
X211225342Y-110374786D01*
X211225342Y-110374786D02*
X211034866Y-110327167D01*
X211034866Y-110327167D02*
X210796771Y-110327167D01*
X210796771Y-110327167D02*
X210606295Y-110374786D01*
X210606295Y-110374786D02*
X210511057Y-110422405D01*
X210511057Y-110422405D02*
X210463438Y-110470024D01*
X210463438Y-110470024D02*
X210415819Y-110565262D01*
X202560580Y-108100952D02*
X202608200Y-108053333D01*
X202608200Y-108053333D02*
X202655819Y-107910476D01*
X202655819Y-107910476D02*
X202655819Y-107815238D01*
X202655819Y-107815238D02*
X202608200Y-107672381D01*
X202608200Y-107672381D02*
X202512961Y-107577143D01*
X202512961Y-107577143D02*
X202417723Y-107529524D01*
X202417723Y-107529524D02*
X202227247Y-107481905D01*
X202227247Y-107481905D02*
X202084390Y-107481905D01*
X202084390Y-107481905D02*
X201893914Y-107529524D01*
X201893914Y-107529524D02*
X201798676Y-107577143D01*
X201798676Y-107577143D02*
X201703438Y-107672381D01*
X201703438Y-107672381D02*
X201655819Y-107815238D01*
X201655819Y-107815238D02*
X201655819Y-107910476D01*
X201655819Y-107910476D02*
X201703438Y-108053333D01*
X201703438Y-108053333D02*
X201751057Y-108100952D01*
X202655819Y-109053333D02*
X202655819Y-108481905D01*
X202655819Y-108767619D02*
X201655819Y-108767619D01*
X201655819Y-108767619D02*
X201798676Y-108672381D01*
X201798676Y-108672381D02*
X201893914Y-108577143D01*
X201893914Y-108577143D02*
X201941533Y-108481905D01*
X202655819Y-110005714D02*
X202655819Y-109434286D01*
X202655819Y-109720000D02*
X201655819Y-109720000D01*
X201655819Y-109720000D02*
X201798676Y-109624762D01*
X201798676Y-109624762D02*
X201893914Y-109529524D01*
X201893914Y-109529524D02*
X201941533Y-109434286D01*
X202655819Y-110481905D02*
X202655819Y-110672381D01*
X202655819Y-110672381D02*
X202608200Y-110767619D01*
X202608200Y-110767619D02*
X202560580Y-110815238D01*
X202560580Y-110815238D02*
X202417723Y-110910476D01*
X202417723Y-110910476D02*
X202227247Y-110958095D01*
X202227247Y-110958095D02*
X201846295Y-110958095D01*
X201846295Y-110958095D02*
X201751057Y-110910476D01*
X201751057Y-110910476D02*
X201703438Y-110862857D01*
X201703438Y-110862857D02*
X201655819Y-110767619D01*
X201655819Y-110767619D02*
X201655819Y-110577143D01*
X201655819Y-110577143D02*
X201703438Y-110481905D01*
X201703438Y-110481905D02*
X201751057Y-110434286D01*
X201751057Y-110434286D02*
X201846295Y-110386667D01*
X201846295Y-110386667D02*
X202084390Y-110386667D01*
X202084390Y-110386667D02*
X202179628Y-110434286D01*
X202179628Y-110434286D02*
X202227247Y-110481905D01*
X202227247Y-110481905D02*
X202274866Y-110577143D01*
X202274866Y-110577143D02*
X202274866Y-110767619D01*
X202274866Y-110767619D02*
X202227247Y-110862857D01*
X202227247Y-110862857D02*
X202179628Y-110910476D01*
X202179628Y-110910476D02*
X202084390Y-110958095D01*
X196464580Y-108227952D02*
X196512200Y-108180333D01*
X196512200Y-108180333D02*
X196559819Y-108037476D01*
X196559819Y-108037476D02*
X196559819Y-107942238D01*
X196559819Y-107942238D02*
X196512200Y-107799381D01*
X196512200Y-107799381D02*
X196416961Y-107704143D01*
X196416961Y-107704143D02*
X196321723Y-107656524D01*
X196321723Y-107656524D02*
X196131247Y-107608905D01*
X196131247Y-107608905D02*
X195988390Y-107608905D01*
X195988390Y-107608905D02*
X195797914Y-107656524D01*
X195797914Y-107656524D02*
X195702676Y-107704143D01*
X195702676Y-107704143D02*
X195607438Y-107799381D01*
X195607438Y-107799381D02*
X195559819Y-107942238D01*
X195559819Y-107942238D02*
X195559819Y-108037476D01*
X195559819Y-108037476D02*
X195607438Y-108180333D01*
X195607438Y-108180333D02*
X195655057Y-108227952D01*
X196559819Y-109180333D02*
X196559819Y-108608905D01*
X196559819Y-108894619D02*
X195559819Y-108894619D01*
X195559819Y-108894619D02*
X195702676Y-108799381D01*
X195702676Y-108799381D02*
X195797914Y-108704143D01*
X195797914Y-108704143D02*
X195845533Y-108608905D01*
X196559819Y-110132714D02*
X196559819Y-109561286D01*
X196559819Y-109847000D02*
X195559819Y-109847000D01*
X195559819Y-109847000D02*
X195702676Y-109751762D01*
X195702676Y-109751762D02*
X195797914Y-109656524D01*
X195797914Y-109656524D02*
X195845533Y-109561286D01*
X195988390Y-110704143D02*
X195940771Y-110608905D01*
X195940771Y-110608905D02*
X195893152Y-110561286D01*
X195893152Y-110561286D02*
X195797914Y-110513667D01*
X195797914Y-110513667D02*
X195750295Y-110513667D01*
X195750295Y-110513667D02*
X195655057Y-110561286D01*
X195655057Y-110561286D02*
X195607438Y-110608905D01*
X195607438Y-110608905D02*
X195559819Y-110704143D01*
X195559819Y-110704143D02*
X195559819Y-110894619D01*
X195559819Y-110894619D02*
X195607438Y-110989857D01*
X195607438Y-110989857D02*
X195655057Y-111037476D01*
X195655057Y-111037476D02*
X195750295Y-111085095D01*
X195750295Y-111085095D02*
X195797914Y-111085095D01*
X195797914Y-111085095D02*
X195893152Y-111037476D01*
X195893152Y-111037476D02*
X195940771Y-110989857D01*
X195940771Y-110989857D02*
X195988390Y-110894619D01*
X195988390Y-110894619D02*
X195988390Y-110704143D01*
X195988390Y-110704143D02*
X196036009Y-110608905D01*
X196036009Y-110608905D02*
X196083628Y-110561286D01*
X196083628Y-110561286D02*
X196178866Y-110513667D01*
X196178866Y-110513667D02*
X196369342Y-110513667D01*
X196369342Y-110513667D02*
X196464580Y-110561286D01*
X196464580Y-110561286D02*
X196512200Y-110608905D01*
X196512200Y-110608905D02*
X196559819Y-110704143D01*
X196559819Y-110704143D02*
X196559819Y-110894619D01*
X196559819Y-110894619D02*
X196512200Y-110989857D01*
X196512200Y-110989857D02*
X196464580Y-111037476D01*
X196464580Y-111037476D02*
X196369342Y-111085095D01*
X196369342Y-111085095D02*
X196178866Y-111085095D01*
X196178866Y-111085095D02*
X196083628Y-111037476D01*
X196083628Y-111037476D02*
X196036009Y-110989857D01*
X196036009Y-110989857D02*
X195988390Y-110894619D01*
X204716580Y-108160452D02*
X204764200Y-108112833D01*
X204764200Y-108112833D02*
X204811819Y-107969976D01*
X204811819Y-107969976D02*
X204811819Y-107874738D01*
X204811819Y-107874738D02*
X204764200Y-107731881D01*
X204764200Y-107731881D02*
X204668961Y-107636643D01*
X204668961Y-107636643D02*
X204573723Y-107589024D01*
X204573723Y-107589024D02*
X204383247Y-107541405D01*
X204383247Y-107541405D02*
X204240390Y-107541405D01*
X204240390Y-107541405D02*
X204049914Y-107589024D01*
X204049914Y-107589024D02*
X203954676Y-107636643D01*
X203954676Y-107636643D02*
X203859438Y-107731881D01*
X203859438Y-107731881D02*
X203811819Y-107874738D01*
X203811819Y-107874738D02*
X203811819Y-107969976D01*
X203811819Y-107969976D02*
X203859438Y-108112833D01*
X203859438Y-108112833D02*
X203907057Y-108160452D01*
X204811819Y-109112833D02*
X204811819Y-108541405D01*
X204811819Y-108827119D02*
X203811819Y-108827119D01*
X203811819Y-108827119D02*
X203954676Y-108731881D01*
X203954676Y-108731881D02*
X204049914Y-108636643D01*
X204049914Y-108636643D02*
X204097533Y-108541405D01*
X204811819Y-110065214D02*
X204811819Y-109493786D01*
X204811819Y-109779500D02*
X203811819Y-109779500D01*
X203811819Y-109779500D02*
X203954676Y-109684262D01*
X203954676Y-109684262D02*
X204049914Y-109589024D01*
X204049914Y-109589024D02*
X204097533Y-109493786D01*
X203811819Y-110398548D02*
X203811819Y-111065214D01*
X203811819Y-111065214D02*
X204811819Y-110636643D01*
D13*
X198666674Y-73524679D02*
X198684432Y-73526886D01*
X198730233Y-73531555D01*
X198762257Y-73533415D01*
X198771756Y-73533131D01*
X198810726Y-73530052D01*
X198857840Y-73524679D01*
X198872915Y-73522832D01*
X198910890Y-73522107D01*
X198938675Y-73533571D01*
X198970326Y-73561873D01*
X199016257Y-73607804D01*
X199016257Y-73867945D01*
X199015899Y-73944820D01*
X199014784Y-74018114D01*
X199013048Y-74076150D01*
X199010833Y-74114337D01*
X199008279Y-74128086D01*
X199007744Y-74128049D01*
X198989192Y-74121207D01*
X198957847Y-74106132D01*
X198915392Y-74084178D01*
X198911396Y-73855760D01*
X198907400Y-73627343D01*
X198820314Y-73627343D01*
X198816343Y-73877714D01*
X198815084Y-73945773D01*
X198813282Y-74018518D01*
X198811329Y-74076270D01*
X198809388Y-74114352D01*
X198807623Y-74128086D01*
X198807115Y-74128038D01*
X198789518Y-74122985D01*
X198757166Y-74112151D01*
X198711457Y-74096217D01*
X198711235Y-73876294D01*
X198711012Y-73838091D01*
X198709469Y-73763854D01*
X198706708Y-73701855D01*
X198703023Y-73657692D01*
X198698708Y-73636959D01*
X198683268Y-73625869D01*
X198651759Y-73622444D01*
X198617114Y-73627343D01*
X198613143Y-73877714D01*
X198611722Y-73941337D01*
X198608775Y-74016644D01*
X198604921Y-74075714D01*
X198600458Y-74114282D01*
X198595683Y-74128086D01*
X198577059Y-74123718D01*
X198545226Y-74111242D01*
X198508257Y-74094398D01*
X198508257Y-73607804D01*
X198554188Y-73561873D01*
X198564680Y-73551573D01*
X198593745Y-73528680D01*
X198623057Y-73521265D01*
X198666674Y-73524679D01*
G36*
X198666674Y-73524679D02*
G01*
X198684432Y-73526886D01*
X198730233Y-73531555D01*
X198762257Y-73533415D01*
X198771756Y-73533131D01*
X198810726Y-73530052D01*
X198857840Y-73524679D01*
X198872915Y-73522832D01*
X198910890Y-73522107D01*
X198938675Y-73533571D01*
X198970326Y-73561873D01*
X199016257Y-73607804D01*
X199016257Y-73867945D01*
X199015899Y-73944820D01*
X199014784Y-74018114D01*
X199013048Y-74076150D01*
X199010833Y-74114337D01*
X199008279Y-74128086D01*
X199007744Y-74128049D01*
X198989192Y-74121207D01*
X198957847Y-74106132D01*
X198915392Y-74084178D01*
X198911396Y-73855760D01*
X198907400Y-73627343D01*
X198820314Y-73627343D01*
X198816343Y-73877714D01*
X198815084Y-73945773D01*
X198813282Y-74018518D01*
X198811329Y-74076270D01*
X198809388Y-74114352D01*
X198807623Y-74128086D01*
X198807115Y-74128038D01*
X198789518Y-74122985D01*
X198757166Y-74112151D01*
X198711457Y-74096217D01*
X198711235Y-73876294D01*
X198711012Y-73838091D01*
X198709469Y-73763854D01*
X198706708Y-73701855D01*
X198703023Y-73657692D01*
X198698708Y-73636959D01*
X198683268Y-73625869D01*
X198651759Y-73622444D01*
X198617114Y-73627343D01*
X198613143Y-73877714D01*
X198611722Y-73941337D01*
X198608775Y-74016644D01*
X198604921Y-74075714D01*
X198600458Y-74114282D01*
X198595683Y-74128086D01*
X198577059Y-74123718D01*
X198545226Y-74111242D01*
X198508257Y-74094398D01*
X198508257Y-73607804D01*
X198554188Y-73561873D01*
X198564680Y-73551573D01*
X198593745Y-73528680D01*
X198623057Y-73521265D01*
X198666674Y-73524679D01*
G37*
X194259769Y-73528465D02*
X194331355Y-73564293D01*
X194391626Y-73624113D01*
X194396714Y-73632127D01*
X194413270Y-73678658D01*
X194424427Y-73743448D01*
X194429840Y-73818273D01*
X194429167Y-73894904D01*
X194422063Y-73965118D01*
X194408185Y-74020688D01*
X194390351Y-74057699D01*
X194340145Y-74115267D01*
X194272115Y-74151038D01*
X194188842Y-74163335D01*
X194166602Y-74162669D01*
X194101109Y-74149053D01*
X194047313Y-74114751D01*
X193997943Y-74055662D01*
X193995005Y-74051278D01*
X193981713Y-74027701D01*
X193973068Y-74001051D01*
X193968096Y-73964841D01*
X193965826Y-73912587D01*
X193965322Y-73842808D01*
X194110429Y-73842808D01*
X194111875Y-73904850D01*
X194119093Y-73963958D01*
X194133994Y-74001314D01*
X194158364Y-74020848D01*
X194193992Y-74026486D01*
X194207560Y-74025365D01*
X194245570Y-74004806D01*
X194270688Y-73958701D01*
X194282752Y-73887487D01*
X194281598Y-73791601D01*
X194281134Y-73785431D01*
X194274371Y-73732522D01*
X194262329Y-73698971D01*
X194241995Y-73675984D01*
X194207903Y-73654452D01*
X194174186Y-73653320D01*
X194139457Y-73678143D01*
X194133416Y-73684675D01*
X194121583Y-73704221D01*
X194114596Y-73732614D01*
X194111273Y-73776570D01*
X194110429Y-73842808D01*
X193965322Y-73842808D01*
X193965286Y-73837800D01*
X193965299Y-73822065D01*
X193966086Y-73751881D01*
X193968790Y-73702978D01*
X193974394Y-73668822D01*
X193983881Y-73642876D01*
X193998232Y-73618603D01*
X194001763Y-73613567D01*
X194039122Y-73573857D01*
X194081689Y-73543908D01*
X194103548Y-73534190D01*
X194182092Y-73517980D01*
X194259769Y-73528465D01*
G36*
X194259769Y-73528465D02*
G01*
X194331355Y-73564293D01*
X194391626Y-73624113D01*
X194396714Y-73632127D01*
X194413270Y-73678658D01*
X194424427Y-73743448D01*
X194429840Y-73818273D01*
X194429167Y-73894904D01*
X194422063Y-73965118D01*
X194408185Y-74020688D01*
X194390351Y-74057699D01*
X194340145Y-74115267D01*
X194272115Y-74151038D01*
X194188842Y-74163335D01*
X194166602Y-74162669D01*
X194101109Y-74149053D01*
X194047313Y-74114751D01*
X193997943Y-74055662D01*
X193995005Y-74051278D01*
X193981713Y-74027701D01*
X193973068Y-74001051D01*
X193968096Y-73964841D01*
X193965826Y-73912587D01*
X193965322Y-73842808D01*
X194110429Y-73842808D01*
X194111875Y-73904850D01*
X194119093Y-73963958D01*
X194133994Y-74001314D01*
X194158364Y-74020848D01*
X194193992Y-74026486D01*
X194207560Y-74025365D01*
X194245570Y-74004806D01*
X194270688Y-73958701D01*
X194282752Y-73887487D01*
X194281598Y-73791601D01*
X194281134Y-73785431D01*
X194274371Y-73732522D01*
X194262329Y-73698971D01*
X194241995Y-73675984D01*
X194207903Y-73654452D01*
X194174186Y-73653320D01*
X194139457Y-73678143D01*
X194133416Y-73684675D01*
X194121583Y-73704221D01*
X194114596Y-73732614D01*
X194111273Y-73776570D01*
X194110429Y-73842808D01*
X193965322Y-73842808D01*
X193965286Y-73837800D01*
X193965299Y-73822065D01*
X193966086Y-73751881D01*
X193968790Y-73702978D01*
X193974394Y-73668822D01*
X193983881Y-73642876D01*
X193998232Y-73618603D01*
X194001763Y-73613567D01*
X194039122Y-73573857D01*
X194081689Y-73543908D01*
X194103548Y-73534190D01*
X194182092Y-73517980D01*
X194259769Y-73528465D01*
G37*
X200307335Y-73522770D02*
X200338615Y-73525717D01*
X200376347Y-73534717D01*
X200406506Y-73554280D01*
X200441592Y-73590733D01*
X200446280Y-73596057D01*
X200477823Y-73637031D01*
X200492872Y-73672717D01*
X200496714Y-73715034D01*
X200496714Y-73777221D01*
X200453258Y-73760818D01*
X200421576Y-73741644D01*
X200394038Y-73696653D01*
X200388289Y-73682248D01*
X200356145Y-73641454D01*
X200312389Y-73620919D01*
X200264746Y-73622765D01*
X200220943Y-73649114D01*
X200205889Y-73665545D01*
X200192237Y-73690333D01*
X200196507Y-73712856D01*
X200221084Y-73736036D01*
X200268349Y-73762798D01*
X200340686Y-73796066D01*
X200489457Y-73861184D01*
X200493405Y-73925692D01*
X200491662Y-73973936D01*
X200469719Y-74034904D01*
X200442021Y-74068503D01*
X200384595Y-74106034D01*
X200316473Y-74124994D01*
X200246053Y-74123493D01*
X200181733Y-74099645D01*
X200167574Y-74090487D01*
X200135096Y-74062151D01*
X200112884Y-74026305D01*
X200099196Y-73977616D01*
X200092285Y-73910751D01*
X200091372Y-73866753D01*
X200179007Y-73866753D01*
X200182631Y-73906743D01*
X200191758Y-73945848D01*
X200220227Y-73995116D01*
X200261322Y-74022878D01*
X200310410Y-74026636D01*
X200362856Y-74003891D01*
X200377391Y-73992519D01*
X200394990Y-73966780D01*
X200387632Y-73941343D01*
X200354152Y-73914186D01*
X200293386Y-73883286D01*
X200283331Y-73878810D01*
X200235249Y-73857983D01*
X200199274Y-73843335D01*
X200182556Y-73837800D01*
X200180023Y-73841874D01*
X200179007Y-73866753D01*
X200091372Y-73866753D01*
X200090410Y-73820378D01*
X200090693Y-73781695D01*
X200094238Y-73705479D01*
X200103517Y-73649706D01*
X200120625Y-73608387D01*
X200147656Y-73575533D01*
X200186708Y-73545154D01*
X200211555Y-73531340D01*
X200251385Y-73522035D01*
X200307335Y-73522770D01*
G36*
X200307335Y-73522770D02*
G01*
X200338615Y-73525717D01*
X200376347Y-73534717D01*
X200406506Y-73554280D01*
X200441592Y-73590733D01*
X200446280Y-73596057D01*
X200477823Y-73637031D01*
X200492872Y-73672717D01*
X200496714Y-73715034D01*
X200496714Y-73777221D01*
X200453258Y-73760818D01*
X200421576Y-73741644D01*
X200394038Y-73696653D01*
X200388289Y-73682248D01*
X200356145Y-73641454D01*
X200312389Y-73620919D01*
X200264746Y-73622765D01*
X200220943Y-73649114D01*
X200205889Y-73665545D01*
X200192237Y-73690333D01*
X200196507Y-73712856D01*
X200221084Y-73736036D01*
X200268349Y-73762798D01*
X200340686Y-73796066D01*
X200489457Y-73861184D01*
X200493405Y-73925692D01*
X200491662Y-73973936D01*
X200469719Y-74034904D01*
X200442021Y-74068503D01*
X200384595Y-74106034D01*
X200316473Y-74124994D01*
X200246053Y-74123493D01*
X200181733Y-74099645D01*
X200167574Y-74090487D01*
X200135096Y-74062151D01*
X200112884Y-74026305D01*
X200099196Y-73977616D01*
X200092285Y-73910751D01*
X200091372Y-73866753D01*
X200179007Y-73866753D01*
X200182631Y-73906743D01*
X200191758Y-73945848D01*
X200220227Y-73995116D01*
X200261322Y-74022878D01*
X200310410Y-74026636D01*
X200362856Y-74003891D01*
X200377391Y-73992519D01*
X200394990Y-73966780D01*
X200387632Y-73941343D01*
X200354152Y-73914186D01*
X200293386Y-73883286D01*
X200283331Y-73878810D01*
X200235249Y-73857983D01*
X200199274Y-73843335D01*
X200182556Y-73837800D01*
X200180023Y-73841874D01*
X200179007Y-73866753D01*
X200091372Y-73866753D01*
X200090410Y-73820378D01*
X200090693Y-73781695D01*
X200094238Y-73705479D01*
X200103517Y-73649706D01*
X200120625Y-73608387D01*
X200147656Y-73575533D01*
X200186708Y-73545154D01*
X200211555Y-73531340D01*
X200251385Y-73522035D01*
X200307335Y-73522770D01*
G37*
X195670775Y-73518509D02*
X195705732Y-73531844D01*
X195731903Y-73544677D01*
X195748987Y-73561220D01*
X195758914Y-73586535D01*
X195763614Y-73625684D01*
X195765018Y-73683732D01*
X195765057Y-73765739D01*
X195765256Y-73831105D01*
X195766441Y-73893827D01*
X195769271Y-73936666D01*
X195774391Y-73964780D01*
X195782447Y-73983325D01*
X195794086Y-73997457D01*
X195822697Y-74017400D01*
X195870761Y-74024917D01*
X195918312Y-74005921D01*
X195921450Y-74003489D01*
X195931231Y-73992252D01*
X195938447Y-73974230D01*
X195943701Y-73944974D01*
X195947598Y-73900038D01*
X195950744Y-73834972D01*
X195953743Y-73745330D01*
X195961000Y-73505303D01*
X196022686Y-73532956D01*
X196084371Y-73560609D01*
X196084371Y-73779754D01*
X196084116Y-73839289D01*
X196081914Y-73922108D01*
X196076339Y-73983773D01*
X196066059Y-74029252D01*
X196049742Y-74063516D01*
X196026057Y-74091534D01*
X195993672Y-74118277D01*
X195947093Y-74145220D01*
X195873713Y-74162809D01*
X195799980Y-74155178D01*
X195732190Y-74123320D01*
X195676634Y-74068230D01*
X195665119Y-74050984D01*
X195655568Y-74031438D01*
X195648794Y-74006802D01*
X195644181Y-73972289D01*
X195641112Y-73923111D01*
X195638971Y-73854481D01*
X195637141Y-73761611D01*
X195632596Y-73503993D01*
X195670775Y-73518509D01*
G36*
X195670775Y-73518509D02*
G01*
X195705732Y-73531844D01*
X195731903Y-73544677D01*
X195748987Y-73561220D01*
X195758914Y-73586535D01*
X195763614Y-73625684D01*
X195765018Y-73683732D01*
X195765057Y-73765739D01*
X195765256Y-73831105D01*
X195766441Y-73893827D01*
X195769271Y-73936666D01*
X195774391Y-73964780D01*
X195782447Y-73983325D01*
X195794086Y-73997457D01*
X195822697Y-74017400D01*
X195870761Y-74024917D01*
X195918312Y-74005921D01*
X195921450Y-74003489D01*
X195931231Y-73992252D01*
X195938447Y-73974230D01*
X195943701Y-73944974D01*
X195947598Y-73900038D01*
X195950744Y-73834972D01*
X195953743Y-73745330D01*
X195961000Y-73505303D01*
X196022686Y-73532956D01*
X196084371Y-73560609D01*
X196084371Y-73779754D01*
X196084116Y-73839289D01*
X196081914Y-73922108D01*
X196076339Y-73983773D01*
X196066059Y-74029252D01*
X196049742Y-74063516D01*
X196026057Y-74091534D01*
X195993672Y-74118277D01*
X195947093Y-74145220D01*
X195873713Y-74162809D01*
X195799980Y-74155178D01*
X195732190Y-74123320D01*
X195676634Y-74068230D01*
X195665119Y-74050984D01*
X195655568Y-74031438D01*
X195648794Y-74006802D01*
X195644181Y-73972289D01*
X195641112Y-73923111D01*
X195638971Y-73854481D01*
X195637141Y-73761611D01*
X195632596Y-73503993D01*
X195670775Y-73518509D01*
G37*
X199617828Y-73523019D02*
X199646946Y-73535330D01*
X199647819Y-73535728D01*
X199662940Y-73543644D01*
X199673109Y-73554505D01*
X199679309Y-73573529D01*
X199682522Y-73605931D01*
X199683730Y-73656929D01*
X199683914Y-73731739D01*
X199684286Y-73779196D01*
X199688250Y-73868385D01*
X199697327Y-73933713D01*
X199712476Y-73978607D01*
X199734655Y-74006493D01*
X199764825Y-74020797D01*
X199769010Y-74021794D01*
X199825520Y-74022573D01*
X199869590Y-73997256D01*
X199900028Y-73946498D01*
X199905456Y-73931825D01*
X199917829Y-73899351D01*
X199924095Y-73884428D01*
X199936964Y-73886484D01*
X199965067Y-73897643D01*
X199991279Y-73916073D01*
X200003229Y-73950902D01*
X199999664Y-73975849D01*
X199977765Y-74026453D01*
X199942356Y-74073872D01*
X199900948Y-74106666D01*
X199883600Y-74114248D01*
X199817911Y-74126924D01*
X199748171Y-74121903D01*
X199688247Y-74099645D01*
X199663327Y-74082920D01*
X199638090Y-74058957D01*
X199620088Y-74028474D01*
X199608142Y-73986977D01*
X199601070Y-73929968D01*
X199597692Y-73852953D01*
X199596829Y-73751435D01*
X199596998Y-73698973D01*
X199597847Y-73627285D01*
X199599289Y-73570075D01*
X199601186Y-73532191D01*
X199603403Y-73518486D01*
X199617828Y-73523019D01*
G36*
X199617828Y-73523019D02*
G01*
X199646946Y-73535330D01*
X199647819Y-73535728D01*
X199662940Y-73543644D01*
X199673109Y-73554505D01*
X199679309Y-73573529D01*
X199682522Y-73605931D01*
X199683730Y-73656929D01*
X199683914Y-73731739D01*
X199684286Y-73779196D01*
X199688250Y-73868385D01*
X199697327Y-73933713D01*
X199712476Y-73978607D01*
X199734655Y-74006493D01*
X199764825Y-74020797D01*
X199769010Y-74021794D01*
X199825520Y-74022573D01*
X199869590Y-73997256D01*
X199900028Y-73946498D01*
X199905456Y-73931825D01*
X199917829Y-73899351D01*
X199924095Y-73884428D01*
X199936964Y-73886484D01*
X199965067Y-73897643D01*
X199991279Y-73916073D01*
X200003229Y-73950902D01*
X199999664Y-73975849D01*
X199977765Y-74026453D01*
X199942356Y-74073872D01*
X199900948Y-74106666D01*
X199883600Y-74114248D01*
X199817911Y-74126924D01*
X199748171Y-74121903D01*
X199688247Y-74099645D01*
X199663327Y-74082920D01*
X199638090Y-74058957D01*
X199620088Y-74028474D01*
X199608142Y-73986977D01*
X199601070Y-73929968D01*
X199597692Y-73852953D01*
X199596829Y-73751435D01*
X199596998Y-73698973D01*
X199597847Y-73627285D01*
X199599289Y-73570075D01*
X199601186Y-73532191D01*
X199603403Y-73518486D01*
X199617828Y-73523019D01*
G37*
X198280264Y-73531623D02*
X198342855Y-73567055D01*
X198392221Y-73623582D01*
X198398182Y-73634005D01*
X198406055Y-73652267D01*
X198411894Y-73675571D01*
X198416001Y-73707915D01*
X198418675Y-73753296D01*
X198420219Y-73815713D01*
X198420933Y-73899163D01*
X198421117Y-74007642D01*
X198421171Y-74344399D01*
X198374000Y-74324638D01*
X198361528Y-74319230D01*
X198341676Y-74307015D01*
X198330313Y-74288518D01*
X198324067Y-74256171D01*
X198319571Y-74202407D01*
X198315465Y-74154134D01*
X198310037Y-74122443D01*
X198302261Y-74110617D01*
X198290543Y-74113788D01*
X198260682Y-74124933D01*
X198207316Y-74127696D01*
X198149907Y-74117375D01*
X198100375Y-74095139D01*
X198073124Y-74074557D01*
X198038135Y-74034400D01*
X198015726Y-73982914D01*
X198003810Y-73914432D01*
X198000458Y-73827353D01*
X198101857Y-73827353D01*
X198102163Y-73876878D01*
X198104278Y-73925218D01*
X198109610Y-73956413D01*
X198119540Y-73977353D01*
X198135450Y-73994927D01*
X198144796Y-74002841D01*
X198193224Y-74024157D01*
X198243960Y-74020802D01*
X198288013Y-73992893D01*
X198297496Y-73981827D01*
X198309061Y-73960991D01*
X198315748Y-73931894D01*
X198318827Y-73887619D01*
X198319571Y-73821252D01*
X198319228Y-73768423D01*
X198317058Y-73720638D01*
X198311693Y-73689791D01*
X198301783Y-73669065D01*
X198285979Y-73651644D01*
X198282276Y-73648295D01*
X198234701Y-73623581D01*
X198184365Y-73626110D01*
X198137483Y-73655712D01*
X198123523Y-73671047D01*
X198111840Y-73691378D01*
X198105314Y-73719486D01*
X198102476Y-73762450D01*
X198101857Y-73827353D01*
X198000458Y-73827353D01*
X198000302Y-73823286D01*
X198001463Y-73766687D01*
X198009655Y-73689538D01*
X198027481Y-73631724D01*
X198057025Y-73587578D01*
X198100375Y-73551432D01*
X198141668Y-73530537D01*
X198211013Y-73518910D01*
X198280264Y-73531623D01*
G36*
X198280264Y-73531623D02*
G01*
X198342855Y-73567055D01*
X198392221Y-73623582D01*
X198398182Y-73634005D01*
X198406055Y-73652267D01*
X198411894Y-73675571D01*
X198416001Y-73707915D01*
X198418675Y-73753296D01*
X198420219Y-73815713D01*
X198420933Y-73899163D01*
X198421117Y-74007642D01*
X198421171Y-74344399D01*
X198374000Y-74324638D01*
X198361528Y-74319230D01*
X198341676Y-74307015D01*
X198330313Y-74288518D01*
X198324067Y-74256171D01*
X198319571Y-74202407D01*
X198315465Y-74154134D01*
X198310037Y-74122443D01*
X198302261Y-74110617D01*
X198290543Y-74113788D01*
X198260682Y-74124933D01*
X198207316Y-74127696D01*
X198149907Y-74117375D01*
X198100375Y-74095139D01*
X198073124Y-74074557D01*
X198038135Y-74034400D01*
X198015726Y-73982914D01*
X198003810Y-73914432D01*
X198000458Y-73827353D01*
X198101857Y-73827353D01*
X198102163Y-73876878D01*
X198104278Y-73925218D01*
X198109610Y-73956413D01*
X198119540Y-73977353D01*
X198135450Y-73994927D01*
X198144796Y-74002841D01*
X198193224Y-74024157D01*
X198243960Y-74020802D01*
X198288013Y-73992893D01*
X198297496Y-73981827D01*
X198309061Y-73960991D01*
X198315748Y-73931894D01*
X198318827Y-73887619D01*
X198319571Y-73821252D01*
X198319228Y-73768423D01*
X198317058Y-73720638D01*
X198311693Y-73689791D01*
X198301783Y-73669065D01*
X198285979Y-73651644D01*
X198282276Y-73648295D01*
X198234701Y-73623581D01*
X198184365Y-73626110D01*
X198137483Y-73655712D01*
X198123523Y-73671047D01*
X198111840Y-73691378D01*
X198105314Y-73719486D01*
X198102476Y-73762450D01*
X198101857Y-73827353D01*
X198000458Y-73827353D01*
X198000302Y-73823286D01*
X198001463Y-73766687D01*
X198009655Y-73689538D01*
X198027481Y-73631724D01*
X198057025Y-73587578D01*
X198100375Y-73551432D01*
X198141668Y-73530537D01*
X198211013Y-73518910D01*
X198280264Y-73531623D01*
G37*
X196830215Y-73518532D02*
X196848027Y-73523580D01*
X196880491Y-73534420D01*
X196926200Y-73550354D01*
X196926177Y-73755763D01*
X196926143Y-73774049D01*
X196924222Y-73869374D01*
X196918322Y-73941457D01*
X196906999Y-73995187D01*
X196888813Y-74035451D01*
X196862321Y-74067139D01*
X196826082Y-74095139D01*
X196790737Y-74112667D01*
X196734227Y-74126215D01*
X196678644Y-74126985D01*
X196635914Y-74113805D01*
X196632702Y-74111985D01*
X196622795Y-74112180D01*
X196616025Y-74127428D01*
X196611139Y-74162387D01*
X196606886Y-74221711D01*
X196599629Y-74343453D01*
X196552457Y-74323556D01*
X196505286Y-74303658D01*
X196505286Y-73906491D01*
X196505481Y-73803502D01*
X196506002Y-73710859D01*
X196506801Y-73632300D01*
X196507828Y-73571561D01*
X196509037Y-73532377D01*
X196510377Y-73518486D01*
X196510901Y-73518532D01*
X196528713Y-73523580D01*
X196561177Y-73534420D01*
X196606886Y-73550354D01*
X196606886Y-73754827D01*
X196607176Y-73835168D01*
X196608526Y-73893438D01*
X196611631Y-73933091D01*
X196617188Y-73959382D01*
X196625893Y-73977564D01*
X196638444Y-73992893D01*
X196647001Y-74001045D01*
X196693272Y-74023625D01*
X196744272Y-74021625D01*
X196791007Y-73994927D01*
X196797811Y-73988302D01*
X196808707Y-73974544D01*
X196816164Y-73956358D01*
X196820831Y-73928823D01*
X196823358Y-73887019D01*
X196824398Y-73826027D01*
X196824600Y-73740927D01*
X196824697Y-73697766D01*
X196825326Y-73626776D01*
X196826444Y-73569924D01*
X196827937Y-73532172D01*
X196829691Y-73518486D01*
X196830215Y-73518532D01*
G36*
X196830215Y-73518532D02*
G01*
X196848027Y-73523580D01*
X196880491Y-73534420D01*
X196926200Y-73550354D01*
X196926177Y-73755763D01*
X196926143Y-73774049D01*
X196924222Y-73869374D01*
X196918322Y-73941457D01*
X196906999Y-73995187D01*
X196888813Y-74035451D01*
X196862321Y-74067139D01*
X196826082Y-74095139D01*
X196790737Y-74112667D01*
X196734227Y-74126215D01*
X196678644Y-74126985D01*
X196635914Y-74113805D01*
X196632702Y-74111985D01*
X196622795Y-74112180D01*
X196616025Y-74127428D01*
X196611139Y-74162387D01*
X196606886Y-74221711D01*
X196599629Y-74343453D01*
X196552457Y-74323556D01*
X196505286Y-74303658D01*
X196505286Y-73906491D01*
X196505481Y-73803502D01*
X196506002Y-73710859D01*
X196506801Y-73632300D01*
X196507828Y-73571561D01*
X196509037Y-73532377D01*
X196510377Y-73518486D01*
X196510901Y-73518532D01*
X196528713Y-73523580D01*
X196561177Y-73534420D01*
X196606886Y-73550354D01*
X196606886Y-73754827D01*
X196607176Y-73835168D01*
X196608526Y-73893438D01*
X196611631Y-73933091D01*
X196617188Y-73959382D01*
X196625893Y-73977564D01*
X196638444Y-73992893D01*
X196647001Y-74001045D01*
X196693272Y-74023625D01*
X196744272Y-74021625D01*
X196791007Y-73994927D01*
X196797811Y-73988302D01*
X196808707Y-73974544D01*
X196816164Y-73956358D01*
X196820831Y-73928823D01*
X196823358Y-73887019D01*
X196824398Y-73826027D01*
X196824600Y-73740927D01*
X196824697Y-73697766D01*
X196825326Y-73626776D01*
X196826444Y-73569924D01*
X196827937Y-73532172D01*
X196829691Y-73518486D01*
X196830215Y-73518532D01*
G37*
X197341470Y-73518577D02*
X197360763Y-73525890D01*
X197392716Y-73541322D01*
X197436876Y-73564158D01*
X197431629Y-73769922D01*
X197431264Y-73783568D01*
X197427096Y-73879349D01*
X197419732Y-73951538D01*
X197407670Y-74004942D01*
X197389407Y-74044367D01*
X197363440Y-74074620D01*
X197328267Y-74100507D01*
X197327616Y-74100913D01*
X197270744Y-74122032D01*
X197204967Y-74125600D01*
X197141517Y-74112431D01*
X197091624Y-74083339D01*
X197069675Y-74060673D01*
X197027496Y-73992918D01*
X197013286Y-73919050D01*
X197013286Y-73868230D01*
X197060001Y-73887872D01*
X197092308Y-73907692D01*
X197117769Y-73948840D01*
X197120384Y-73957325D01*
X197148522Y-74000549D01*
X197190933Y-74023897D01*
X197239630Y-74024900D01*
X197286627Y-74001086D01*
X197293643Y-73994944D01*
X197317107Y-73968255D01*
X197320981Y-73944986D01*
X197303232Y-73922138D01*
X197261821Y-73896713D01*
X197194714Y-73865712D01*
X197190176Y-73863748D01*
X197115678Y-73829010D01*
X197064797Y-73798237D01*
X197033475Y-73767512D01*
X197017657Y-73732918D01*
X197013286Y-73690538D01*
X197019014Y-73643554D01*
X197047938Y-73583415D01*
X197098822Y-73540212D01*
X197135626Y-73527241D01*
X197187566Y-73520144D01*
X197238001Y-73521660D01*
X197274017Y-73532368D01*
X197277842Y-73535034D01*
X197288002Y-73553663D01*
X197280952Y-73586495D01*
X197268703Y-73612265D01*
X197249061Y-73622994D01*
X197211809Y-73622461D01*
X197160092Y-73625538D01*
X197126299Y-73646788D01*
X197114886Y-73686123D01*
X197114896Y-73687253D01*
X197121813Y-73710087D01*
X197145341Y-73731037D01*
X197191086Y-73755185D01*
X197253296Y-73784259D01*
X197294501Y-73800075D01*
X197318288Y-73799056D01*
X197329403Y-73778163D01*
X197332592Y-73734359D01*
X197332600Y-73664607D01*
X197332956Y-73621548D01*
X197334587Y-73568374D01*
X197337239Y-73531978D01*
X197340578Y-73518486D01*
X197341470Y-73518577D01*
G36*
X197341470Y-73518577D02*
G01*
X197360763Y-73525890D01*
X197392716Y-73541322D01*
X197436876Y-73564158D01*
X197431629Y-73769922D01*
X197431264Y-73783568D01*
X197427096Y-73879349D01*
X197419732Y-73951538D01*
X197407670Y-74004942D01*
X197389407Y-74044367D01*
X197363440Y-74074620D01*
X197328267Y-74100507D01*
X197327616Y-74100913D01*
X197270744Y-74122032D01*
X197204967Y-74125600D01*
X197141517Y-74112431D01*
X197091624Y-74083339D01*
X197069675Y-74060673D01*
X197027496Y-73992918D01*
X197013286Y-73919050D01*
X197013286Y-73868230D01*
X197060001Y-73887872D01*
X197092308Y-73907692D01*
X197117769Y-73948840D01*
X197120384Y-73957325D01*
X197148522Y-74000549D01*
X197190933Y-74023897D01*
X197239630Y-74024900D01*
X197286627Y-74001086D01*
X197293643Y-73994944D01*
X197317107Y-73968255D01*
X197320981Y-73944986D01*
X197303232Y-73922138D01*
X197261821Y-73896713D01*
X197194714Y-73865712D01*
X197190176Y-73863748D01*
X197115678Y-73829010D01*
X197064797Y-73798237D01*
X197033475Y-73767512D01*
X197017657Y-73732918D01*
X197013286Y-73690538D01*
X197019014Y-73643554D01*
X197047938Y-73583415D01*
X197098822Y-73540212D01*
X197135626Y-73527241D01*
X197187566Y-73520144D01*
X197238001Y-73521660D01*
X197274017Y-73532368D01*
X197277842Y-73535034D01*
X197288002Y-73553663D01*
X197280952Y-73586495D01*
X197268703Y-73612265D01*
X197249061Y-73622994D01*
X197211809Y-73622461D01*
X197160092Y-73625538D01*
X197126299Y-73646788D01*
X197114886Y-73686123D01*
X197114896Y-73687253D01*
X197121813Y-73710087D01*
X197145341Y-73731037D01*
X197191086Y-73755185D01*
X197253296Y-73784259D01*
X197294501Y-73800075D01*
X197318288Y-73799056D01*
X197329403Y-73778163D01*
X197332592Y-73734359D01*
X197332600Y-73664607D01*
X197332956Y-73621548D01*
X197334587Y-73568374D01*
X197337239Y-73531978D01*
X197340578Y-73518486D01*
X197341470Y-73518577D01*
G37*
X198626675Y-74709657D02*
X198649046Y-74725416D01*
X198687267Y-74757967D01*
X198737979Y-74804267D01*
X198797819Y-74861274D01*
X198863429Y-74925942D01*
X199080352Y-75143228D01*
X198911399Y-75391747D01*
X198742447Y-75640267D01*
X198793817Y-75751405D01*
X198793969Y-75751734D01*
X198824817Y-75822582D01*
X198856339Y-75901477D01*
X198881734Y-75971400D01*
X198885577Y-75982678D01*
X198904953Y-76035033D01*
X198922426Y-76075717D01*
X198934612Y-76096713D01*
X198939574Y-76099678D01*
X198969366Y-76109625D01*
X199019953Y-76122495D01*
X199085806Y-76136947D01*
X199161400Y-76151645D01*
X199184043Y-76155790D01*
X199265962Y-76170884D01*
X199342400Y-76185101D01*
X199405663Y-76197005D01*
X199448057Y-76205161D01*
X199524257Y-76220201D01*
X199524257Y-76537508D01*
X199524240Y-76576524D01*
X199523918Y-76671708D01*
X199522967Y-76742745D01*
X199521104Y-76793266D01*
X199518045Y-76826902D01*
X199513506Y-76847282D01*
X199507205Y-76858038D01*
X199498857Y-76862801D01*
X199490776Y-76864730D01*
X199457828Y-76871555D01*
X199405264Y-76881978D01*
X199338431Y-76894982D01*
X199262672Y-76909551D01*
X199183335Y-76924667D01*
X199105763Y-76939315D01*
X199035302Y-76952477D01*
X198977298Y-76963137D01*
X198937096Y-76970279D01*
X198920041Y-76972886D01*
X198918888Y-76974459D01*
X198909615Y-76994881D01*
X198893568Y-77033955D01*
X198873365Y-77085371D01*
X198845328Y-77154647D01*
X198810814Y-77234710D01*
X198778462Y-77305272D01*
X198771048Y-77321111D01*
X198750245Y-77370707D01*
X198737781Y-77408962D01*
X198736137Y-77428644D01*
X198736985Y-77430038D01*
X198750452Y-77450580D01*
X198777150Y-77490484D01*
X198814461Y-77545860D01*
X198859766Y-77612823D01*
X198910448Y-77687483D01*
X198967555Y-77772308D01*
X199010393Y-77838200D01*
X199039540Y-77886522D01*
X199056683Y-77920267D01*
X199063505Y-77942428D01*
X199061694Y-77955998D01*
X199061085Y-77957016D01*
X199044703Y-77976790D01*
X199011305Y-78012825D01*
X198964329Y-78061549D01*
X198907214Y-78119388D01*
X198843397Y-78182773D01*
X198777198Y-78247095D01*
X198712352Y-78307553D01*
X198664701Y-78348345D01*
X198633010Y-78370516D01*
X198616042Y-78375111D01*
X198613825Y-78374079D01*
X198590476Y-78360163D01*
X198548088Y-78332970D01*
X198490631Y-78295111D01*
X198422077Y-78249197D01*
X198346399Y-78197840D01*
X198099702Y-78029374D01*
X197988294Y-78079938D01*
X197985057Y-78081403D01*
X197916657Y-78111035D01*
X197844093Y-78140507D01*
X197782543Y-78163642D01*
X197782271Y-78163738D01*
X197733405Y-78181633D01*
X197695788Y-78196747D01*
X197677543Y-78205816D01*
X197677248Y-78206145D01*
X197671054Y-78224718D01*
X197660861Y-78266955D01*
X197647652Y-78328304D01*
X197632410Y-78404211D01*
X197616119Y-78490125D01*
X197615551Y-78493204D01*
X197599287Y-78580872D01*
X197584392Y-78660259D01*
X197571829Y-78726299D01*
X197562562Y-78773921D01*
X197557556Y-78798057D01*
X197557236Y-78799395D01*
X197553940Y-78809727D01*
X197547262Y-78817494D01*
X197533538Y-78823060D01*
X197509105Y-78826793D01*
X197470298Y-78829058D01*
X197413454Y-78830222D01*
X197334910Y-78830652D01*
X197231000Y-78830714D01*
X197217944Y-78830714D01*
X197117067Y-78830629D01*
X197041144Y-78830135D01*
X196986509Y-78828865D01*
X196949500Y-78826453D01*
X196926453Y-78822533D01*
X196913704Y-78816738D01*
X196907589Y-78808701D01*
X196904444Y-78798057D01*
X196904354Y-78797675D01*
X196899186Y-78772653D01*
X196889791Y-78724319D01*
X196877133Y-78657740D01*
X196862175Y-78577986D01*
X196845881Y-78490125D01*
X196844552Y-78482936D01*
X196828309Y-78397660D01*
X196813195Y-78322758D01*
X196800192Y-78262781D01*
X196790285Y-78222283D01*
X196784456Y-78205816D01*
X196784425Y-78205790D01*
X196766057Y-78196680D01*
X196728360Y-78181543D01*
X196679457Y-78163642D01*
X196676703Y-78162670D01*
X196614183Y-78139041D01*
X196541457Y-78109405D01*
X196473706Y-78079938D01*
X196362297Y-78029374D01*
X196115601Y-78197840D01*
X196098225Y-78209689D01*
X196023798Y-78260053D01*
X195957386Y-78304388D01*
X195902961Y-78340084D01*
X195864494Y-78364529D01*
X195845958Y-78375111D01*
X195833257Y-78372685D01*
X195804421Y-78353890D01*
X195759857Y-78316670D01*
X195698330Y-78259980D01*
X195618602Y-78182773D01*
X195611468Y-78175745D01*
X195548204Y-78112778D01*
X195492010Y-78055732D01*
X195446323Y-78008183D01*
X195414586Y-77973703D01*
X195400236Y-77955869D01*
X195400190Y-77955783D01*
X195398367Y-77942205D01*
X195405090Y-77920180D01*
X195422054Y-77886696D01*
X195450956Y-77838739D01*
X195493492Y-77773296D01*
X195551356Y-77687355D01*
X195561217Y-77672849D01*
X195611087Y-77599365D01*
X195655095Y-77534313D01*
X195690620Y-77481583D01*
X195715041Y-77445064D01*
X195725736Y-77428644D01*
X195726542Y-77425166D01*
X195721482Y-77399215D01*
X195706323Y-77356841D01*
X195683537Y-77305272D01*
X195652571Y-77237830D01*
X195617996Y-77157805D01*
X195588634Y-77085371D01*
X195581355Y-77066623D01*
X195562290Y-77018754D01*
X195548285Y-76985404D01*
X195541959Y-76972886D01*
X195534975Y-76971950D01*
X195503587Y-76966539D01*
X195452213Y-76957194D01*
X195386198Y-76944931D01*
X195310887Y-76930768D01*
X195231625Y-76915720D01*
X195153757Y-76900805D01*
X195082630Y-76887039D01*
X195023588Y-76875438D01*
X194981978Y-76867020D01*
X194963143Y-76862801D01*
X194960020Y-76861611D01*
X194952409Y-76855195D01*
X194946746Y-76841535D01*
X194942749Y-76817001D01*
X194940134Y-76777962D01*
X194938616Y-76720787D01*
X194937914Y-76641846D01*
X194937743Y-76537508D01*
X194937743Y-76220201D01*
X195013943Y-76205161D01*
X195023160Y-76203358D01*
X195072109Y-76194020D01*
X195139795Y-76181331D01*
X195218522Y-76166727D01*
X195300600Y-76151645D01*
X195332922Y-76145578D01*
X195405145Y-76130819D01*
X195465334Y-76116863D01*
X195507960Y-76105048D01*
X195527490Y-76096713D01*
X195536340Y-76083095D01*
X195552452Y-76047062D01*
X195568935Y-76000428D01*
X195574737Y-75982966D01*
X195596094Y-75925642D01*
X195623641Y-75857799D01*
X195652893Y-75790645D01*
X195668537Y-75755570D01*
X195690826Y-75703178D01*
X195706143Y-75663942D01*
X195711838Y-75644437D01*
X195711522Y-75642964D01*
X195700719Y-75622271D01*
X195676362Y-75582335D01*
X195640919Y-75527028D01*
X195596864Y-75460219D01*
X195546668Y-75385780D01*
X195381499Y-75143377D01*
X195598497Y-74926017D01*
X195619484Y-74905101D01*
X195683658Y-74842495D01*
X195741010Y-74788505D01*
X195788180Y-74746174D01*
X195821808Y-74718543D01*
X195838533Y-74708657D01*
X195856697Y-74716179D01*
X195894735Y-74737773D01*
X195948274Y-74770849D01*
X196013116Y-74812809D01*
X196085060Y-74861057D01*
X196155725Y-74908709D01*
X196219474Y-74950672D01*
X196271487Y-74983835D01*
X196307721Y-75005622D01*
X196324133Y-75013457D01*
X196325095Y-75013386D01*
X196346897Y-75005662D01*
X196385560Y-74987677D01*
X196433388Y-74962987D01*
X196433890Y-74962716D01*
X196497413Y-74930901D01*
X196540940Y-74915358D01*
X196567948Y-74915315D01*
X196581910Y-74930000D01*
X196587820Y-74944456D01*
X196603771Y-74983169D01*
X196628340Y-75042684D01*
X196660221Y-75119835D01*
X196698107Y-75211459D01*
X196740690Y-75314393D01*
X196786663Y-75425474D01*
X196828333Y-75526528D01*
X196870732Y-75630220D01*
X196908244Y-75722881D01*
X196939612Y-75801358D01*
X196963575Y-75862500D01*
X196978877Y-75903157D01*
X196984257Y-75920175D01*
X196973982Y-75935781D01*
X196945437Y-75961838D01*
X196905029Y-75992113D01*
X196808021Y-76071316D01*
X196721207Y-76172525D01*
X196657678Y-76283884D01*
X196617823Y-76402107D01*
X196602035Y-76523905D01*
X196610704Y-76645990D01*
X196644222Y-76765075D01*
X196702979Y-76877871D01*
X196787368Y-76981089D01*
X196831369Y-77021287D01*
X196936789Y-77092362D01*
X197049590Y-77138699D01*
X197166475Y-77161401D01*
X197284147Y-77161572D01*
X197399310Y-77140313D01*
X197508665Y-77098730D01*
X197608917Y-77037924D01*
X197696767Y-76958999D01*
X197768920Y-76863059D01*
X197822078Y-76751205D01*
X197852943Y-76624543D01*
X197858608Y-76563493D01*
X197850815Y-76431224D01*
X197815716Y-76305734D01*
X197754351Y-76189241D01*
X197667757Y-76083961D01*
X197556971Y-75992113D01*
X197518069Y-75963070D01*
X197488896Y-75936728D01*
X197477743Y-75920200D01*
X197482190Y-75905791D01*
X197496622Y-75867185D01*
X197519827Y-75807799D01*
X197550548Y-75730785D01*
X197587526Y-75639297D01*
X197629504Y-75536484D01*
X197675222Y-75425498D01*
X197716822Y-75324928D01*
X197759778Y-75221053D01*
X197798171Y-75128181D01*
X197830695Y-75049475D01*
X197856042Y-74988101D01*
X197872905Y-74947221D01*
X197879975Y-74930000D01*
X197880057Y-74929796D01*
X197894202Y-74915255D01*
X197921341Y-74915421D01*
X197964977Y-74931073D01*
X198028612Y-74962987D01*
X198033621Y-74965674D01*
X198080875Y-74989850D01*
X198118189Y-75006963D01*
X198137867Y-75013457D01*
X198153995Y-75005782D01*
X198190041Y-74984129D01*
X198241908Y-74951072D01*
X198305555Y-74909190D01*
X198376940Y-74861057D01*
X198447276Y-74813869D01*
X198512330Y-74771733D01*
X198566180Y-74738422D01*
X198604626Y-74716531D01*
X198623466Y-74708657D01*
X198626675Y-74709657D01*
G36*
X198626675Y-74709657D02*
G01*
X198649046Y-74725416D01*
X198687267Y-74757967D01*
X198737979Y-74804267D01*
X198797819Y-74861274D01*
X198863429Y-74925942D01*
X199080352Y-75143228D01*
X198911399Y-75391747D01*
X198742447Y-75640267D01*
X198793817Y-75751405D01*
X198793969Y-75751734D01*
X198824817Y-75822582D01*
X198856339Y-75901477D01*
X198881734Y-75971400D01*
X198885577Y-75982678D01*
X198904953Y-76035033D01*
X198922426Y-76075717D01*
X198934612Y-76096713D01*
X198939574Y-76099678D01*
X198969366Y-76109625D01*
X199019953Y-76122495D01*
X199085806Y-76136947D01*
X199161400Y-76151645D01*
X199184043Y-76155790D01*
X199265962Y-76170884D01*
X199342400Y-76185101D01*
X199405663Y-76197005D01*
X199448057Y-76205161D01*
X199524257Y-76220201D01*
X199524257Y-76537508D01*
X199524240Y-76576524D01*
X199523918Y-76671708D01*
X199522967Y-76742745D01*
X199521104Y-76793266D01*
X199518045Y-76826902D01*
X199513506Y-76847282D01*
X199507205Y-76858038D01*
X199498857Y-76862801D01*
X199490776Y-76864730D01*
X199457828Y-76871555D01*
X199405264Y-76881978D01*
X199338431Y-76894982D01*
X199262672Y-76909551D01*
X199183335Y-76924667D01*
X199105763Y-76939315D01*
X199035302Y-76952477D01*
X198977298Y-76963137D01*
X198937096Y-76970279D01*
X198920041Y-76972886D01*
X198918888Y-76974459D01*
X198909615Y-76994881D01*
X198893568Y-77033955D01*
X198873365Y-77085371D01*
X198845328Y-77154647D01*
X198810814Y-77234710D01*
X198778462Y-77305272D01*
X198771048Y-77321111D01*
X198750245Y-77370707D01*
X198737781Y-77408962D01*
X198736137Y-77428644D01*
X198736985Y-77430038D01*
X198750452Y-77450580D01*
X198777150Y-77490484D01*
X198814461Y-77545860D01*
X198859766Y-77612823D01*
X198910448Y-77687483D01*
X198967555Y-77772308D01*
X199010393Y-77838200D01*
X199039540Y-77886522D01*
X199056683Y-77920267D01*
X199063505Y-77942428D01*
X199061694Y-77955998D01*
X199061085Y-77957016D01*
X199044703Y-77976790D01*
X199011305Y-78012825D01*
X198964329Y-78061549D01*
X198907214Y-78119388D01*
X198843397Y-78182773D01*
X198777198Y-78247095D01*
X198712352Y-78307553D01*
X198664701Y-78348345D01*
X198633010Y-78370516D01*
X198616042Y-78375111D01*
X198613825Y-78374079D01*
X198590476Y-78360163D01*
X198548088Y-78332970D01*
X198490631Y-78295111D01*
X198422077Y-78249197D01*
X198346399Y-78197840D01*
X198099702Y-78029374D01*
X197988294Y-78079938D01*
X197985057Y-78081403D01*
X197916657Y-78111035D01*
X197844093Y-78140507D01*
X197782543Y-78163642D01*
X197782271Y-78163738D01*
X197733405Y-78181633D01*
X197695788Y-78196747D01*
X197677543Y-78205816D01*
X197677248Y-78206145D01*
X197671054Y-78224718D01*
X197660861Y-78266955D01*
X197647652Y-78328304D01*
X197632410Y-78404211D01*
X197616119Y-78490125D01*
X197615551Y-78493204D01*
X197599287Y-78580872D01*
X197584392Y-78660259D01*
X197571829Y-78726299D01*
X197562562Y-78773921D01*
X197557556Y-78798057D01*
X197557236Y-78799395D01*
X197553940Y-78809727D01*
X197547262Y-78817494D01*
X197533538Y-78823060D01*
X197509105Y-78826793D01*
X197470298Y-78829058D01*
X197413454Y-78830222D01*
X197334910Y-78830652D01*
X197231000Y-78830714D01*
X197217944Y-78830714D01*
X197117067Y-78830629D01*
X197041144Y-78830135D01*
X196986509Y-78828865D01*
X196949500Y-78826453D01*
X196926453Y-78822533D01*
X196913704Y-78816738D01*
X196907589Y-78808701D01*
X196904444Y-78798057D01*
X196904354Y-78797675D01*
X196899186Y-78772653D01*
X196889791Y-78724319D01*
X196877133Y-78657740D01*
X196862175Y-78577986D01*
X196845881Y-78490125D01*
X196844552Y-78482936D01*
X196828309Y-78397660D01*
X196813195Y-78322758D01*
X196800192Y-78262781D01*
X196790285Y-78222283D01*
X196784456Y-78205816D01*
X196784425Y-78205790D01*
X196766057Y-78196680D01*
X196728360Y-78181543D01*
X196679457Y-78163642D01*
X196676703Y-78162670D01*
X196614183Y-78139041D01*
X196541457Y-78109405D01*
X196473706Y-78079938D01*
X196362297Y-78029374D01*
X196115601Y-78197840D01*
X196098225Y-78209689D01*
X196023798Y-78260053D01*
X195957386Y-78304388D01*
X195902961Y-78340084D01*
X195864494Y-78364529D01*
X195845958Y-78375111D01*
X195833257Y-78372685D01*
X195804421Y-78353890D01*
X195759857Y-78316670D01*
X195698330Y-78259980D01*
X195618602Y-78182773D01*
X195611468Y-78175745D01*
X195548204Y-78112778D01*
X195492010Y-78055732D01*
X195446323Y-78008183D01*
X195414586Y-77973703D01*
X195400236Y-77955869D01*
X195400190Y-77955783D01*
X195398367Y-77942205D01*
X195405090Y-77920180D01*
X195422054Y-77886696D01*
X195450956Y-77838739D01*
X195493492Y-77773296D01*
X195551356Y-77687355D01*
X195561217Y-77672849D01*
X195611087Y-77599365D01*
X195655095Y-77534313D01*
X195690620Y-77481583D01*
X195715041Y-77445064D01*
X195725736Y-77428644D01*
X195726542Y-77425166D01*
X195721482Y-77399215D01*
X195706323Y-77356841D01*
X195683537Y-77305272D01*
X195652571Y-77237830D01*
X195617996Y-77157805D01*
X195588634Y-77085371D01*
X195581355Y-77066623D01*
X195562290Y-77018754D01*
X195548285Y-76985404D01*
X195541959Y-76972886D01*
X195534975Y-76971950D01*
X195503587Y-76966539D01*
X195452213Y-76957194D01*
X195386198Y-76944931D01*
X195310887Y-76930768D01*
X195231625Y-76915720D01*
X195153757Y-76900805D01*
X195082630Y-76887039D01*
X195023588Y-76875438D01*
X194981978Y-76867020D01*
X194963143Y-76862801D01*
X194960020Y-76861611D01*
X194952409Y-76855195D01*
X194946746Y-76841535D01*
X194942749Y-76817001D01*
X194940134Y-76777962D01*
X194938616Y-76720787D01*
X194937914Y-76641846D01*
X194937743Y-76537508D01*
X194937743Y-76220201D01*
X195013943Y-76205161D01*
X195023160Y-76203358D01*
X195072109Y-76194020D01*
X195139795Y-76181331D01*
X195218522Y-76166727D01*
X195300600Y-76151645D01*
X195332922Y-76145578D01*
X195405145Y-76130819D01*
X195465334Y-76116863D01*
X195507960Y-76105048D01*
X195527490Y-76096713D01*
X195536340Y-76083095D01*
X195552452Y-76047062D01*
X195568935Y-76000428D01*
X195574737Y-75982966D01*
X195596094Y-75925642D01*
X195623641Y-75857799D01*
X195652893Y-75790645D01*
X195668537Y-75755570D01*
X195690826Y-75703178D01*
X195706143Y-75663942D01*
X195711838Y-75644437D01*
X195711522Y-75642964D01*
X195700719Y-75622271D01*
X195676362Y-75582335D01*
X195640919Y-75527028D01*
X195596864Y-75460219D01*
X195546668Y-75385780D01*
X195381499Y-75143377D01*
X195598497Y-74926017D01*
X195619484Y-74905101D01*
X195683658Y-74842495D01*
X195741010Y-74788505D01*
X195788180Y-74746174D01*
X195821808Y-74718543D01*
X195838533Y-74708657D01*
X195856697Y-74716179D01*
X195894735Y-74737773D01*
X195948274Y-74770849D01*
X196013116Y-74812809D01*
X196085060Y-74861057D01*
X196155725Y-74908709D01*
X196219474Y-74950672D01*
X196271487Y-74983835D01*
X196307721Y-75005622D01*
X196324133Y-75013457D01*
X196325095Y-75013386D01*
X196346897Y-75005662D01*
X196385560Y-74987677D01*
X196433388Y-74962987D01*
X196433890Y-74962716D01*
X196497413Y-74930901D01*
X196540940Y-74915358D01*
X196567948Y-74915315D01*
X196581910Y-74930000D01*
X196587820Y-74944456D01*
X196603771Y-74983169D01*
X196628340Y-75042684D01*
X196660221Y-75119835D01*
X196698107Y-75211459D01*
X196740690Y-75314393D01*
X196786663Y-75425474D01*
X196828333Y-75526528D01*
X196870732Y-75630220D01*
X196908244Y-75722881D01*
X196939612Y-75801358D01*
X196963575Y-75862500D01*
X196978877Y-75903157D01*
X196984257Y-75920175D01*
X196973982Y-75935781D01*
X196945437Y-75961838D01*
X196905029Y-75992113D01*
X196808021Y-76071316D01*
X196721207Y-76172525D01*
X196657678Y-76283884D01*
X196617823Y-76402107D01*
X196602035Y-76523905D01*
X196610704Y-76645990D01*
X196644222Y-76765075D01*
X196702979Y-76877871D01*
X196787368Y-76981089D01*
X196831369Y-77021287D01*
X196936789Y-77092362D01*
X197049590Y-77138699D01*
X197166475Y-77161401D01*
X197284147Y-77161572D01*
X197399310Y-77140313D01*
X197508665Y-77098730D01*
X197608917Y-77037924D01*
X197696767Y-76958999D01*
X197768920Y-76863059D01*
X197822078Y-76751205D01*
X197852943Y-76624543D01*
X197858608Y-76563493D01*
X197850815Y-76431224D01*
X197815716Y-76305734D01*
X197754351Y-76189241D01*
X197667757Y-76083961D01*
X197556971Y-75992113D01*
X197518069Y-75963070D01*
X197488896Y-75936728D01*
X197477743Y-75920200D01*
X197482190Y-75905791D01*
X197496622Y-75867185D01*
X197519827Y-75807799D01*
X197550548Y-75730785D01*
X197587526Y-75639297D01*
X197629504Y-75536484D01*
X197675222Y-75425498D01*
X197716822Y-75324928D01*
X197759778Y-75221053D01*
X197798171Y-75128181D01*
X197830695Y-75049475D01*
X197856042Y-74988101D01*
X197872905Y-74947221D01*
X197879975Y-74930000D01*
X197880057Y-74929796D01*
X197894202Y-74915255D01*
X197921341Y-74915421D01*
X197964977Y-74931073D01*
X198028612Y-74962987D01*
X198033621Y-74965674D01*
X198080875Y-74989850D01*
X198118189Y-75006963D01*
X198137867Y-75013457D01*
X198153995Y-75005782D01*
X198190041Y-74984129D01*
X198241908Y-74951072D01*
X198305555Y-74909190D01*
X198376940Y-74861057D01*
X198447276Y-74813869D01*
X198512330Y-74771733D01*
X198566180Y-74738422D01*
X198604626Y-74716531D01*
X198623466Y-74708657D01*
X198626675Y-74709657D01*
G37*
X199443656Y-73523019D02*
X199472774Y-73535330D01*
X199509743Y-73552174D01*
X199509743Y-73768279D01*
X199509507Y-73823673D01*
X199507271Y-73907793D01*
X199501577Y-73970200D01*
X199491097Y-74015642D01*
X199474503Y-74048867D01*
X199450469Y-74074622D01*
X199417667Y-74097656D01*
X199375876Y-74116665D01*
X199298713Y-74128086D01*
X199263505Y-74126780D01*
X199232401Y-74118879D01*
X199203441Y-74099183D01*
X199166169Y-74062516D01*
X199142199Y-74036622D01*
X199117230Y-74003003D01*
X199105969Y-73971494D01*
X199103343Y-73931515D01*
X199103343Y-73866083D01*
X199147965Y-73889158D01*
X199183327Y-73917276D01*
X199207549Y-73955152D01*
X199211709Y-73965449D01*
X199243406Y-74005363D01*
X199287446Y-74025376D01*
X199335469Y-74023428D01*
X199379114Y-73997457D01*
X199397580Y-73976365D01*
X199408337Y-73949381D01*
X199396822Y-73925366D01*
X199361019Y-73901209D01*
X199298910Y-73873801D01*
X199289485Y-73870015D01*
X199232942Y-73845241D01*
X199184420Y-73820811D01*
X199153549Y-73801514D01*
X199122629Y-73767047D01*
X199102073Y-73712043D01*
X199104256Y-73653017D01*
X199128576Y-73597155D01*
X199174432Y-73551645D01*
X199211562Y-73532273D01*
X199283289Y-73518708D01*
X199323148Y-73520538D01*
X199360047Y-73530432D01*
X199374203Y-73551194D01*
X199368909Y-73585387D01*
X199367369Y-73589908D01*
X199355158Y-73613884D01*
X199334826Y-73622958D01*
X199296092Y-73622351D01*
X199268743Y-73621526D01*
X199236743Y-73628608D01*
X199214818Y-73649781D01*
X199202330Y-73675848D01*
X199200938Y-73703155D01*
X199201002Y-73703315D01*
X199217193Y-73718070D01*
X199251845Y-73739543D01*
X199296679Y-73763542D01*
X199343418Y-73785875D01*
X199383783Y-73802348D01*
X199409496Y-73808771D01*
X199413321Y-73802482D01*
X199418136Y-73772885D01*
X199421434Y-73724553D01*
X199422657Y-73663628D01*
X199422942Y-73621458D01*
X199424282Y-73568347D01*
X199426472Y-73531975D01*
X199429231Y-73518486D01*
X199443656Y-73523019D01*
G36*
X199443656Y-73523019D02*
G01*
X199472774Y-73535330D01*
X199509743Y-73552174D01*
X199509743Y-73768279D01*
X199509507Y-73823673D01*
X199507271Y-73907793D01*
X199501577Y-73970200D01*
X199491097Y-74015642D01*
X199474503Y-74048867D01*
X199450469Y-74074622D01*
X199417667Y-74097656D01*
X199375876Y-74116665D01*
X199298713Y-74128086D01*
X199263505Y-74126780D01*
X199232401Y-74118879D01*
X199203441Y-74099183D01*
X199166169Y-74062516D01*
X199142199Y-74036622D01*
X199117230Y-74003003D01*
X199105969Y-73971494D01*
X199103343Y-73931515D01*
X199103343Y-73866083D01*
X199147965Y-73889158D01*
X199183327Y-73917276D01*
X199207549Y-73955152D01*
X199211709Y-73965449D01*
X199243406Y-74005363D01*
X199287446Y-74025376D01*
X199335469Y-74023428D01*
X199379114Y-73997457D01*
X199397580Y-73976365D01*
X199408337Y-73949381D01*
X199396822Y-73925366D01*
X199361019Y-73901209D01*
X199298910Y-73873801D01*
X199289485Y-73870015D01*
X199232942Y-73845241D01*
X199184420Y-73820811D01*
X199153549Y-73801514D01*
X199122629Y-73767047D01*
X199102073Y-73712043D01*
X199104256Y-73653017D01*
X199128576Y-73597155D01*
X199174432Y-73551645D01*
X199211562Y-73532273D01*
X199283289Y-73518708D01*
X199323148Y-73520538D01*
X199360047Y-73530432D01*
X199374203Y-73551194D01*
X199368909Y-73585387D01*
X199367369Y-73589908D01*
X199355158Y-73613884D01*
X199334826Y-73622958D01*
X199296092Y-73622351D01*
X199268743Y-73621526D01*
X199236743Y-73628608D01*
X199214818Y-73649781D01*
X199202330Y-73675848D01*
X199200938Y-73703155D01*
X199201002Y-73703315D01*
X199217193Y-73718070D01*
X199251845Y-73739543D01*
X199296679Y-73763542D01*
X199343418Y-73785875D01*
X199383783Y-73802348D01*
X199409496Y-73808771D01*
X199413321Y-73802482D01*
X199418136Y-73772885D01*
X199421434Y-73724553D01*
X199422657Y-73663628D01*
X199422942Y-73621458D01*
X199424282Y-73568347D01*
X199426472Y-73531975D01*
X199429231Y-73518486D01*
X199443656Y-73523019D01*
G37*
X195393711Y-73539903D02*
X195453804Y-73583938D01*
X195500171Y-73648678D01*
X195500950Y-73650239D01*
X195516357Y-73690442D01*
X195527643Y-73736134D01*
X195533630Y-73779028D01*
X195533139Y-73810840D01*
X195524993Y-73823286D01*
X195517756Y-73822529D01*
X195483149Y-73808765D01*
X195443922Y-73783454D01*
X195410552Y-73754155D01*
X195393517Y-73728428D01*
X195375808Y-73693529D01*
X195339515Y-73661788D01*
X195297370Y-73649114D01*
X195281923Y-73652779D01*
X195251431Y-73671226D01*
X195224872Y-73696834D01*
X195213514Y-73720066D01*
X195213518Y-73720152D01*
X195226404Y-73730821D01*
X195260759Y-73750067D01*
X195311407Y-73775187D01*
X195373171Y-73803476D01*
X195373511Y-73803626D01*
X195440612Y-73833502D01*
X195485589Y-73855027D01*
X195512855Y-73871563D01*
X195526822Y-73886469D01*
X195531903Y-73903107D01*
X195532510Y-73924838D01*
X195527167Y-73976914D01*
X195500749Y-74047665D01*
X195456527Y-74103265D01*
X195399303Y-74141761D01*
X195333880Y-74161203D01*
X195265063Y-74159641D01*
X195197653Y-74135122D01*
X195136456Y-74085698D01*
X195102550Y-74036788D01*
X195078194Y-73966973D01*
X195074233Y-73930252D01*
X195213514Y-73930252D01*
X195221034Y-73970085D01*
X195247103Y-74006283D01*
X195284846Y-74025050D01*
X195326923Y-74023155D01*
X195365995Y-73997368D01*
X195381353Y-73979549D01*
X195385000Y-73965987D01*
X195370209Y-73953051D01*
X195333356Y-73933667D01*
X195332275Y-73933119D01*
X195288795Y-73912413D01*
X195249898Y-73895895D01*
X195225222Y-73888907D01*
X195215324Y-73898247D01*
X195213514Y-73930252D01*
X195074233Y-73930252D01*
X195068701Y-73878945D01*
X195073316Y-73768922D01*
X195075922Y-73745613D01*
X195095340Y-73662648D01*
X195130427Y-73599552D01*
X195183788Y-73551192D01*
X195186804Y-73549196D01*
X195254638Y-73520815D01*
X195325465Y-73518289D01*
X195393711Y-73539903D01*
G36*
X195393711Y-73539903D02*
G01*
X195453804Y-73583938D01*
X195500171Y-73648678D01*
X195500950Y-73650239D01*
X195516357Y-73690442D01*
X195527643Y-73736134D01*
X195533630Y-73779028D01*
X195533139Y-73810840D01*
X195524993Y-73823286D01*
X195517756Y-73822529D01*
X195483149Y-73808765D01*
X195443922Y-73783454D01*
X195410552Y-73754155D01*
X195393517Y-73728428D01*
X195375808Y-73693529D01*
X195339515Y-73661788D01*
X195297370Y-73649114D01*
X195281923Y-73652779D01*
X195251431Y-73671226D01*
X195224872Y-73696834D01*
X195213514Y-73720066D01*
X195213518Y-73720152D01*
X195226404Y-73730821D01*
X195260759Y-73750067D01*
X195311407Y-73775187D01*
X195373171Y-73803476D01*
X195373511Y-73803626D01*
X195440612Y-73833502D01*
X195485589Y-73855027D01*
X195512855Y-73871563D01*
X195526822Y-73886469D01*
X195531903Y-73903107D01*
X195532510Y-73924838D01*
X195527167Y-73976914D01*
X195500749Y-74047665D01*
X195456527Y-74103265D01*
X195399303Y-74141761D01*
X195333880Y-74161203D01*
X195265063Y-74159641D01*
X195197653Y-74135122D01*
X195136456Y-74085698D01*
X195102550Y-74036788D01*
X195078194Y-73966973D01*
X195074233Y-73930252D01*
X195213514Y-73930252D01*
X195221034Y-73970085D01*
X195247103Y-74006283D01*
X195284846Y-74025050D01*
X195326923Y-74023155D01*
X195365995Y-73997368D01*
X195381353Y-73979549D01*
X195385000Y-73965987D01*
X195370209Y-73953051D01*
X195333356Y-73933667D01*
X195332275Y-73933119D01*
X195288795Y-73912413D01*
X195249898Y-73895895D01*
X195225222Y-73888907D01*
X195215324Y-73898247D01*
X195213514Y-73930252D01*
X195074233Y-73930252D01*
X195068701Y-73878945D01*
X195073316Y-73768922D01*
X195075922Y-73745613D01*
X195095340Y-73662648D01*
X195130427Y-73599552D01*
X195183788Y-73551192D01*
X195186804Y-73549196D01*
X195254638Y-73520815D01*
X195325465Y-73518289D01*
X195393711Y-73539903D01*
G37*
X197538102Y-73522548D02*
X197570362Y-73534856D01*
X197577959Y-73538455D01*
X197589824Y-73546602D01*
X197598006Y-73559996D01*
X197603357Y-73583392D01*
X197606731Y-73621545D01*
X197608981Y-73679210D01*
X197610960Y-73761143D01*
X197611502Y-73785093D01*
X197613597Y-73860734D01*
X197616317Y-73913672D01*
X197620485Y-73948925D01*
X197626921Y-73971513D01*
X197636450Y-73986456D01*
X197649894Y-73998773D01*
X197689695Y-74020366D01*
X197738659Y-74024524D01*
X197782471Y-74008001D01*
X197813992Y-73973790D01*
X197826086Y-73924886D01*
X197826422Y-73911593D01*
X197833028Y-73887528D01*
X197852530Y-73883856D01*
X197890717Y-73898187D01*
X197899562Y-73902783D01*
X197923466Y-73929814D01*
X197923939Y-73970006D01*
X197901164Y-74025591D01*
X197880273Y-74055883D01*
X197826858Y-74098916D01*
X197760926Y-74123245D01*
X197690426Y-74126557D01*
X197623309Y-74106533D01*
X197618727Y-74103997D01*
X197581296Y-74074943D01*
X197547830Y-74037590D01*
X197541993Y-74029148D01*
X197530835Y-74009447D01*
X197522864Y-73986065D01*
X197517382Y-73953933D01*
X197513693Y-73907981D01*
X197511101Y-73843141D01*
X197508908Y-73754343D01*
X197508598Y-73739331D01*
X197507600Y-73642001D01*
X197509006Y-73573066D01*
X197512836Y-73532052D01*
X197519111Y-73518486D01*
X197538102Y-73522548D01*
G36*
X197538102Y-73522548D02*
G01*
X197570362Y-73534856D01*
X197577959Y-73538455D01*
X197589824Y-73546602D01*
X197598006Y-73559996D01*
X197603357Y-73583392D01*
X197606731Y-73621545D01*
X197608981Y-73679210D01*
X197610960Y-73761143D01*
X197611502Y-73785093D01*
X197613597Y-73860734D01*
X197616317Y-73913672D01*
X197620485Y-73948925D01*
X197626921Y-73971513D01*
X197636450Y-73986456D01*
X197649894Y-73998773D01*
X197689695Y-74020366D01*
X197738659Y-74024524D01*
X197782471Y-74008001D01*
X197813992Y-73973790D01*
X197826086Y-73924886D01*
X197826422Y-73911593D01*
X197833028Y-73887528D01*
X197852530Y-73883856D01*
X197890717Y-73898187D01*
X197899562Y-73902783D01*
X197923466Y-73929814D01*
X197923939Y-73970006D01*
X197901164Y-74025591D01*
X197880273Y-74055883D01*
X197826858Y-74098916D01*
X197760926Y-74123245D01*
X197690426Y-74126557D01*
X197623309Y-74106533D01*
X197618727Y-74103997D01*
X197581296Y-74074943D01*
X197547830Y-74037590D01*
X197541993Y-74029148D01*
X197530835Y-74009447D01*
X197522864Y-73986065D01*
X197517382Y-73953933D01*
X197513693Y-73907981D01*
X197511101Y-73843141D01*
X197508908Y-73754343D01*
X197508598Y-73739331D01*
X197507600Y-73642001D01*
X197509006Y-73573066D01*
X197512836Y-73532052D01*
X197519111Y-73518486D01*
X197538102Y-73522548D01*
G37*
X194559376Y-73302586D02*
X194581764Y-73311352D01*
X194610679Y-73325231D01*
X194616858Y-73328192D01*
X194642587Y-73342689D01*
X194656024Y-73359935D01*
X194661166Y-73388692D01*
X194662010Y-73437717D01*
X194662048Y-73525743D01*
X194752724Y-73525743D01*
X194808502Y-73528185D01*
X194852360Y-73538092D01*
X194888782Y-73558114D01*
X194891497Y-73560071D01*
X194928454Y-73593131D01*
X194954174Y-73633069D01*
X194970394Y-73685343D01*
X194978852Y-73755412D01*
X194981286Y-73848733D01*
X194980747Y-73916831D01*
X194978293Y-73968413D01*
X194972842Y-74004184D01*
X194963314Y-74030985D01*
X194948629Y-74055662D01*
X194935148Y-74074520D01*
X194886201Y-74125432D01*
X194830744Y-74153082D01*
X194761072Y-74161835D01*
X194681336Y-74153110D01*
X194612405Y-74121815D01*
X194557887Y-74066619D01*
X194553777Y-74060776D01*
X194544192Y-74045247D01*
X194536849Y-74027502D01*
X194531388Y-74003710D01*
X194527450Y-73970042D01*
X194524677Y-73922667D01*
X194522708Y-73857755D01*
X194522472Y-73844397D01*
X194661971Y-73844397D01*
X194662650Y-73881870D01*
X194670017Y-73950020D01*
X194686832Y-73994670D01*
X194714766Y-74019074D01*
X194755491Y-74026486D01*
X194772650Y-74024906D01*
X194802340Y-74009234D01*
X194821969Y-73974309D01*
X194832812Y-73917099D01*
X194836143Y-73834570D01*
X194836118Y-73821303D01*
X194834739Y-73761416D01*
X194830313Y-73722268D01*
X194821539Y-73696847D01*
X194807114Y-73678143D01*
X194806216Y-73677250D01*
X194770763Y-73653048D01*
X194736404Y-73655433D01*
X194697597Y-73684740D01*
X194688105Y-73694756D01*
X194674124Y-73715292D01*
X194666240Y-73742003D01*
X194662755Y-73782501D01*
X194661971Y-73844397D01*
X194522472Y-73844397D01*
X194521185Y-73771476D01*
X194519748Y-73660000D01*
X194519349Y-73627661D01*
X194518071Y-73519545D01*
X194517815Y-73436814D01*
X194519366Y-73376574D01*
X194523510Y-73335927D01*
X194531036Y-73311977D01*
X194542729Y-73301829D01*
X194559376Y-73302586D01*
G36*
X194559376Y-73302586D02*
G01*
X194581764Y-73311352D01*
X194610679Y-73325231D01*
X194616858Y-73328192D01*
X194642587Y-73342689D01*
X194656024Y-73359935D01*
X194661166Y-73388692D01*
X194662010Y-73437717D01*
X194662048Y-73525743D01*
X194752724Y-73525743D01*
X194808502Y-73528185D01*
X194852360Y-73538092D01*
X194888782Y-73558114D01*
X194891497Y-73560071D01*
X194928454Y-73593131D01*
X194954174Y-73633069D01*
X194970394Y-73685343D01*
X194978852Y-73755412D01*
X194981286Y-73848733D01*
X194980747Y-73916831D01*
X194978293Y-73968413D01*
X194972842Y-74004184D01*
X194963314Y-74030985D01*
X194948629Y-74055662D01*
X194935148Y-74074520D01*
X194886201Y-74125432D01*
X194830744Y-74153082D01*
X194761072Y-74161835D01*
X194681336Y-74153110D01*
X194612405Y-74121815D01*
X194557887Y-74066619D01*
X194553777Y-74060776D01*
X194544192Y-74045247D01*
X194536849Y-74027502D01*
X194531388Y-74003710D01*
X194527450Y-73970042D01*
X194524677Y-73922667D01*
X194522708Y-73857755D01*
X194522472Y-73844397D01*
X194661971Y-73844397D01*
X194662650Y-73881870D01*
X194670017Y-73950020D01*
X194686832Y-73994670D01*
X194714766Y-74019074D01*
X194755491Y-74026486D01*
X194772650Y-74024906D01*
X194802340Y-74009234D01*
X194821969Y-73974309D01*
X194832812Y-73917099D01*
X194836143Y-73834570D01*
X194836118Y-73821303D01*
X194834739Y-73761416D01*
X194830313Y-73722268D01*
X194821539Y-73696847D01*
X194807114Y-73678143D01*
X194806216Y-73677250D01*
X194770763Y-73653048D01*
X194736404Y-73655433D01*
X194697597Y-73684740D01*
X194688105Y-73694756D01*
X194674124Y-73715292D01*
X194666240Y-73742003D01*
X194662755Y-73782501D01*
X194661971Y-73844397D01*
X194522472Y-73844397D01*
X194521185Y-73771476D01*
X194519748Y-73660000D01*
X194519349Y-73627661D01*
X194518071Y-73519545D01*
X194517815Y-73436814D01*
X194519366Y-73376574D01*
X194523510Y-73335927D01*
X194531036Y-73311977D01*
X194542729Y-73301829D01*
X194559376Y-73302586D01*
G37*
X229060764Y-74857461D02*
X229143616Y-74867422D01*
X229212113Y-74881988D01*
X229242965Y-74891636D01*
X229320270Y-74921877D01*
X229397321Y-74959383D01*
X229466800Y-75000386D01*
X229521385Y-75041121D01*
X229544084Y-75060495D01*
X229566799Y-75078338D01*
X229578221Y-75085222D01*
X229579463Y-75083576D01*
X229582272Y-75065795D01*
X229584224Y-75032630D01*
X229584955Y-74989267D01*
X229584955Y-74893311D01*
X230443104Y-74893311D01*
X230408839Y-74954026D01*
X230403645Y-74963132D01*
X230395285Y-74977751D01*
X230387712Y-74991827D01*
X230380888Y-75006460D01*
X230374773Y-75022751D01*
X230369327Y-75041802D01*
X230364513Y-75064714D01*
X230360292Y-75092587D01*
X230356623Y-75126522D01*
X230353469Y-75167621D01*
X230350789Y-75216985D01*
X230348546Y-75275714D01*
X230346701Y-75344910D01*
X230345213Y-75425674D01*
X230344045Y-75519106D01*
X230343156Y-75626308D01*
X230342509Y-75748380D01*
X230342064Y-75886424D01*
X230341782Y-76041541D01*
X230341625Y-76214832D01*
X230341552Y-76407397D01*
X230341526Y-76620338D01*
X230341507Y-76854755D01*
X230341311Y-78539622D01*
X229435983Y-78539622D01*
X229460415Y-78502933D01*
X229466682Y-78493353D01*
X229492792Y-78447019D01*
X229510531Y-78399898D01*
X229522092Y-78344749D01*
X229529669Y-78274333D01*
X229530161Y-78267350D01*
X229531938Y-78229359D01*
X229533556Y-78175424D01*
X229535001Y-78108297D01*
X229536260Y-78030729D01*
X229537320Y-77945472D01*
X229538171Y-77855276D01*
X229538797Y-77762893D01*
X229539188Y-77671075D01*
X229539330Y-77582573D01*
X229539210Y-77500138D01*
X229538817Y-77426521D01*
X229538138Y-77364474D01*
X229537159Y-77316749D01*
X229535868Y-77286096D01*
X229534253Y-77275267D01*
X229526043Y-77279667D01*
X229504353Y-77294638D01*
X229474986Y-77316552D01*
X229426121Y-77350764D01*
X229337875Y-77397286D01*
X229239084Y-77430954D01*
X229126490Y-77452769D01*
X228996836Y-77463735D01*
X228904330Y-77464781D01*
X228782989Y-77454986D01*
X228672901Y-77430826D01*
X228569611Y-77391215D01*
X228468662Y-77335068D01*
X228423497Y-77304117D01*
X228318089Y-77212885D01*
X228226462Y-77103894D01*
X228148668Y-76977274D01*
X228084759Y-76833155D01*
X228034786Y-76671668D01*
X227998802Y-76492941D01*
X227976857Y-76297105D01*
X227971100Y-76141066D01*
X228800217Y-76141066D01*
X228802670Y-76234280D01*
X228807739Y-76322406D01*
X228815381Y-76400212D01*
X228825552Y-76462467D01*
X228826833Y-76468334D01*
X228855874Y-76578879D01*
X228890390Y-76669425D01*
X228931544Y-76742047D01*
X228980501Y-76798819D01*
X229038426Y-76841816D01*
X229070380Y-76857385D01*
X229143216Y-76876278D01*
X229224557Y-76879535D01*
X229309681Y-76867611D01*
X229393867Y-76840960D01*
X229472392Y-76800038D01*
X229539800Y-76756470D01*
X229539800Y-75606279D01*
X229469244Y-75559911D01*
X229428583Y-75536209D01*
X229374454Y-75510361D01*
X229325311Y-75492171D01*
X229261835Y-75476449D01*
X229165669Y-75465459D01*
X229081100Y-75473635D01*
X229007781Y-75501195D01*
X228945363Y-75548358D01*
X228893498Y-75615342D01*
X228851840Y-75702367D01*
X228820038Y-75809650D01*
X228817455Y-75821991D01*
X228809000Y-75883228D01*
X228803337Y-75960308D01*
X228800424Y-76047998D01*
X228800217Y-76141066D01*
X227971100Y-76141066D01*
X227969006Y-76084289D01*
X227969732Y-76006842D01*
X227978311Y-75855406D01*
X227997167Y-75718717D01*
X228027163Y-75592724D01*
X228069164Y-75473375D01*
X228124031Y-75356619D01*
X228190833Y-75245821D01*
X228281637Y-75132261D01*
X228385292Y-75036789D01*
X228501113Y-74959927D01*
X228628414Y-74902203D01*
X228766511Y-74864142D01*
X228804207Y-74858334D01*
X228883248Y-74852604D01*
X228971371Y-74852417D01*
X229060764Y-74857461D01*
G36*
X229060764Y-74857461D02*
G01*
X229143616Y-74867422D01*
X229212113Y-74881988D01*
X229242965Y-74891636D01*
X229320270Y-74921877D01*
X229397321Y-74959383D01*
X229466800Y-75000386D01*
X229521385Y-75041121D01*
X229544084Y-75060495D01*
X229566799Y-75078338D01*
X229578221Y-75085222D01*
X229579463Y-75083576D01*
X229582272Y-75065795D01*
X229584224Y-75032630D01*
X229584955Y-74989267D01*
X229584955Y-74893311D01*
X230443104Y-74893311D01*
X230408839Y-74954026D01*
X230403645Y-74963132D01*
X230395285Y-74977751D01*
X230387712Y-74991827D01*
X230380888Y-75006460D01*
X230374773Y-75022751D01*
X230369327Y-75041802D01*
X230364513Y-75064714D01*
X230360292Y-75092587D01*
X230356623Y-75126522D01*
X230353469Y-75167621D01*
X230350789Y-75216985D01*
X230348546Y-75275714D01*
X230346701Y-75344910D01*
X230345213Y-75425674D01*
X230344045Y-75519106D01*
X230343156Y-75626308D01*
X230342509Y-75748380D01*
X230342064Y-75886424D01*
X230341782Y-76041541D01*
X230341625Y-76214832D01*
X230341552Y-76407397D01*
X230341526Y-76620338D01*
X230341507Y-76854755D01*
X230341311Y-78539622D01*
X229435983Y-78539622D01*
X229460415Y-78502933D01*
X229466682Y-78493353D01*
X229492792Y-78447019D01*
X229510531Y-78399898D01*
X229522092Y-78344749D01*
X229529669Y-78274333D01*
X229530161Y-78267350D01*
X229531938Y-78229359D01*
X229533556Y-78175424D01*
X229535001Y-78108297D01*
X229536260Y-78030729D01*
X229537320Y-77945472D01*
X229538171Y-77855276D01*
X229538797Y-77762893D01*
X229539188Y-77671075D01*
X229539330Y-77582573D01*
X229539210Y-77500138D01*
X229538817Y-77426521D01*
X229538138Y-77364474D01*
X229537159Y-77316749D01*
X229535868Y-77286096D01*
X229534253Y-77275267D01*
X229526043Y-77279667D01*
X229504353Y-77294638D01*
X229474986Y-77316552D01*
X229426121Y-77350764D01*
X229337875Y-77397286D01*
X229239084Y-77430954D01*
X229126490Y-77452769D01*
X228996836Y-77463735D01*
X228904330Y-77464781D01*
X228782989Y-77454986D01*
X228672901Y-77430826D01*
X228569611Y-77391215D01*
X228468662Y-77335068D01*
X228423497Y-77304117D01*
X228318089Y-77212885D01*
X228226462Y-77103894D01*
X228148668Y-76977274D01*
X228084759Y-76833155D01*
X228034786Y-76671668D01*
X227998802Y-76492941D01*
X227976857Y-76297105D01*
X227971100Y-76141066D01*
X228800217Y-76141066D01*
X228802670Y-76234280D01*
X228807739Y-76322406D01*
X228815381Y-76400212D01*
X228825552Y-76462467D01*
X228826833Y-76468334D01*
X228855874Y-76578879D01*
X228890390Y-76669425D01*
X228931544Y-76742047D01*
X228980501Y-76798819D01*
X229038426Y-76841816D01*
X229070380Y-76857385D01*
X229143216Y-76876278D01*
X229224557Y-76879535D01*
X229309681Y-76867611D01*
X229393867Y-76840960D01*
X229472392Y-76800038D01*
X229539800Y-76756470D01*
X229539800Y-75606279D01*
X229469244Y-75559911D01*
X229428583Y-75536209D01*
X229374454Y-75510361D01*
X229325311Y-75492171D01*
X229261835Y-75476449D01*
X229165669Y-75465459D01*
X229081100Y-75473635D01*
X229007781Y-75501195D01*
X228945363Y-75548358D01*
X228893498Y-75615342D01*
X228851840Y-75702367D01*
X228820038Y-75809650D01*
X228817455Y-75821991D01*
X228809000Y-75883228D01*
X228803337Y-75960308D01*
X228800424Y-76047998D01*
X228800217Y-76141066D01*
X227971100Y-76141066D01*
X227969006Y-76084289D01*
X227969732Y-76006842D01*
X227978311Y-75855406D01*
X227997167Y-75718717D01*
X228027163Y-75592724D01*
X228069164Y-75473375D01*
X228124031Y-75356619D01*
X228190833Y-75245821D01*
X228281637Y-75132261D01*
X228385292Y-75036789D01*
X228501113Y-74959927D01*
X228628414Y-74902203D01*
X228766511Y-74864142D01*
X228804207Y-74858334D01*
X228883248Y-74852604D01*
X228971371Y-74852417D01*
X229060764Y-74857461D01*
G37*
X229065666Y-73346733D02*
X229072645Y-73354809D01*
X229078117Y-73365407D01*
X229082137Y-73381251D01*
X229084928Y-73405227D01*
X229086712Y-73440226D01*
X229087711Y-73489136D01*
X229088148Y-73554846D01*
X229088244Y-73640244D01*
X229088244Y-73911178D01*
X229234180Y-73911178D01*
X229245280Y-73911179D01*
X229301798Y-73911404D01*
X229340642Y-73912543D01*
X229366035Y-73915343D01*
X229382196Y-73920550D01*
X229393348Y-73928911D01*
X229403711Y-73941174D01*
X229419559Y-73971862D01*
X229416457Y-74005642D01*
X229390813Y-74038178D01*
X229385871Y-74041895D01*
X229375662Y-74046731D01*
X229360236Y-74050494D01*
X229337114Y-74053317D01*
X229303817Y-74055330D01*
X229257863Y-74056667D01*
X229196772Y-74057458D01*
X229118065Y-74057837D01*
X229019260Y-74057933D01*
X228999233Y-74057932D01*
X228905110Y-74057842D01*
X228830595Y-74057502D01*
X228773189Y-74056761D01*
X228730389Y-74055465D01*
X228699696Y-74053463D01*
X228678609Y-74050604D01*
X228664627Y-74046734D01*
X228655250Y-74041702D01*
X228647978Y-74035355D01*
X228629172Y-74002638D01*
X228627725Y-73965061D01*
X228644083Y-73931822D01*
X228645443Y-73930369D01*
X228656646Y-73922008D01*
X228673748Y-73916453D01*
X228700918Y-73913160D01*
X228742322Y-73911582D01*
X228802127Y-73911178D01*
X228941489Y-73911178D01*
X228941489Y-73647411D01*
X228941564Y-73571583D01*
X228941972Y-73504917D01*
X228942954Y-73455133D01*
X228944750Y-73419216D01*
X228947601Y-73394150D01*
X228951747Y-73376919D01*
X228957429Y-73364508D01*
X228964886Y-73353900D01*
X228967176Y-73351094D01*
X228998354Y-73328452D01*
X229032734Y-73326888D01*
X229065666Y-73346733D01*
G36*
X229065666Y-73346733D02*
G01*
X229072645Y-73354809D01*
X229078117Y-73365407D01*
X229082137Y-73381251D01*
X229084928Y-73405227D01*
X229086712Y-73440226D01*
X229087711Y-73489136D01*
X229088148Y-73554846D01*
X229088244Y-73640244D01*
X229088244Y-73911178D01*
X229234180Y-73911178D01*
X229245280Y-73911179D01*
X229301798Y-73911404D01*
X229340642Y-73912543D01*
X229366035Y-73915343D01*
X229382196Y-73920550D01*
X229393348Y-73928911D01*
X229403711Y-73941174D01*
X229419559Y-73971862D01*
X229416457Y-74005642D01*
X229390813Y-74038178D01*
X229385871Y-74041895D01*
X229375662Y-74046731D01*
X229360236Y-74050494D01*
X229337114Y-74053317D01*
X229303817Y-74055330D01*
X229257863Y-74056667D01*
X229196772Y-74057458D01*
X229118065Y-74057837D01*
X229019260Y-74057933D01*
X228999233Y-74057932D01*
X228905110Y-74057842D01*
X228830595Y-74057502D01*
X228773189Y-74056761D01*
X228730389Y-74055465D01*
X228699696Y-74053463D01*
X228678609Y-74050604D01*
X228664627Y-74046734D01*
X228655250Y-74041702D01*
X228647978Y-74035355D01*
X228629172Y-74002638D01*
X228627725Y-73965061D01*
X228644083Y-73931822D01*
X228645443Y-73930369D01*
X228656646Y-73922008D01*
X228673748Y-73916453D01*
X228700918Y-73913160D01*
X228742322Y-73911582D01*
X228802127Y-73911178D01*
X228941489Y-73911178D01*
X228941489Y-73647411D01*
X228941564Y-73571583D01*
X228941972Y-73504917D01*
X228942954Y-73455133D01*
X228944750Y-73419216D01*
X228947601Y-73394150D01*
X228951747Y-73376919D01*
X228957429Y-73364508D01*
X228964886Y-73353900D01*
X228967176Y-73351094D01*
X228998354Y-73328452D01*
X229032734Y-73326888D01*
X229065666Y-73346733D01*
G37*
X218124418Y-73324531D02*
X218231278Y-73328959D01*
X218320506Y-73339047D01*
X218395304Y-73355635D01*
X218458875Y-73379565D01*
X218514421Y-73411679D01*
X218565146Y-73452818D01*
X218571134Y-73458670D01*
X218608001Y-73507179D01*
X218639101Y-73567987D01*
X218660583Y-73632231D01*
X218668600Y-73691044D01*
X218667321Y-73712261D01*
X218655009Y-73769677D01*
X218632480Y-73829587D01*
X218603250Y-73883637D01*
X218570833Y-73923468D01*
X218551292Y-73940490D01*
X218496580Y-73979678D01*
X218436277Y-74009807D01*
X218367081Y-74031768D01*
X218285689Y-74046450D01*
X218188800Y-74054741D01*
X218073111Y-74057533D01*
X218033629Y-74057934D01*
X217987918Y-74058347D01*
X217952117Y-74056543D01*
X217925026Y-74050261D01*
X217905444Y-74037241D01*
X217892170Y-74015222D01*
X217884002Y-73981945D01*
X217879740Y-73935149D01*
X217879143Y-73911178D01*
X218025133Y-73911178D01*
X218101333Y-73911192D01*
X218104361Y-73911183D01*
X218155481Y-73909218D01*
X218215584Y-73904493D01*
X218272292Y-73897965D01*
X218322250Y-73888669D01*
X218397002Y-73862400D01*
X218454511Y-73823101D01*
X218496012Y-73770067D01*
X218517229Y-73718800D01*
X218518647Y-73670974D01*
X218500365Y-73620039D01*
X218470695Y-73574122D01*
X218423998Y-73531713D01*
X218362608Y-73501910D01*
X218283462Y-73482774D01*
X218281972Y-73482536D01*
X218233001Y-73476744D01*
X218174307Y-73472604D01*
X218118266Y-73470996D01*
X218025133Y-73470911D01*
X218025133Y-73911178D01*
X217879143Y-73911178D01*
X217878183Y-73872573D01*
X217878130Y-73791959D01*
X217878378Y-73691044D01*
X217878417Y-73615383D01*
X217878672Y-73537474D01*
X217879316Y-73477464D01*
X217880520Y-73432736D01*
X217882457Y-73400674D01*
X217885297Y-73378660D01*
X217889212Y-73364076D01*
X217894374Y-73354306D01*
X217900955Y-73346733D01*
X217907923Y-73340499D01*
X217920921Y-73333199D01*
X217940069Y-73328446D01*
X217969472Y-73325708D01*
X218013238Y-73324455D01*
X218075472Y-73324155D01*
X218124418Y-73324531D01*
G36*
X218124418Y-73324531D02*
G01*
X218231278Y-73328959D01*
X218320506Y-73339047D01*
X218395304Y-73355635D01*
X218458875Y-73379565D01*
X218514421Y-73411679D01*
X218565146Y-73452818D01*
X218571134Y-73458670D01*
X218608001Y-73507179D01*
X218639101Y-73567987D01*
X218660583Y-73632231D01*
X218668600Y-73691044D01*
X218667321Y-73712261D01*
X218655009Y-73769677D01*
X218632480Y-73829587D01*
X218603250Y-73883637D01*
X218570833Y-73923468D01*
X218551292Y-73940490D01*
X218496580Y-73979678D01*
X218436277Y-74009807D01*
X218367081Y-74031768D01*
X218285689Y-74046450D01*
X218188800Y-74054741D01*
X218073111Y-74057533D01*
X218033629Y-74057934D01*
X217987918Y-74058347D01*
X217952117Y-74056543D01*
X217925026Y-74050261D01*
X217905444Y-74037241D01*
X217892170Y-74015222D01*
X217884002Y-73981945D01*
X217879740Y-73935149D01*
X217879143Y-73911178D01*
X218025133Y-73911178D01*
X218101333Y-73911192D01*
X218104361Y-73911183D01*
X218155481Y-73909218D01*
X218215584Y-73904493D01*
X218272292Y-73897965D01*
X218322250Y-73888669D01*
X218397002Y-73862400D01*
X218454511Y-73823101D01*
X218496012Y-73770067D01*
X218517229Y-73718800D01*
X218518647Y-73670974D01*
X218500365Y-73620039D01*
X218470695Y-73574122D01*
X218423998Y-73531713D01*
X218362608Y-73501910D01*
X218283462Y-73482774D01*
X218281972Y-73482536D01*
X218233001Y-73476744D01*
X218174307Y-73472604D01*
X218118266Y-73470996D01*
X218025133Y-73470911D01*
X218025133Y-73911178D01*
X217879143Y-73911178D01*
X217878183Y-73872573D01*
X217878130Y-73791959D01*
X217878378Y-73691044D01*
X217878417Y-73615383D01*
X217878672Y-73537474D01*
X217879316Y-73477464D01*
X217880520Y-73432736D01*
X217882457Y-73400674D01*
X217885297Y-73378660D01*
X217889212Y-73364076D01*
X217894374Y-73354306D01*
X217900955Y-73346733D01*
X217907923Y-73340499D01*
X217920921Y-73333199D01*
X217940069Y-73328446D01*
X217969472Y-73325708D01*
X218013238Y-73324455D01*
X218075472Y-73324155D01*
X218124418Y-73324531D01*
G37*
X227230954Y-73331259D02*
X227236319Y-73335956D01*
X227252148Y-73358107D01*
X227274350Y-73394868D01*
X227300767Y-73442585D01*
X227329240Y-73497607D01*
X227409014Y-73656850D01*
X227482201Y-73510258D01*
X227491897Y-73490968D01*
X227518875Y-73438620D01*
X227542904Y-73393830D01*
X227561668Y-73360846D01*
X227572854Y-73343911D01*
X227574000Y-73342668D01*
X227602121Y-73327381D01*
X227637183Y-73325698D01*
X227668224Y-73338267D01*
X227670650Y-73341116D01*
X227682910Y-73361741D01*
X227702648Y-73399292D01*
X227728552Y-73451120D01*
X227759315Y-73514577D01*
X227793625Y-73587015D01*
X227830175Y-73665784D01*
X227850415Y-73709907D01*
X227887188Y-73790635D01*
X227915645Y-73854313D01*
X227936669Y-73903248D01*
X227951146Y-73939743D01*
X227959961Y-73966105D01*
X227963996Y-73984639D01*
X227964138Y-73997648D01*
X227961270Y-74007439D01*
X227946613Y-74028322D01*
X227920010Y-74048623D01*
X227919255Y-74048965D01*
X227899665Y-74055966D01*
X227882210Y-74056496D01*
X227865298Y-74048522D01*
X227847337Y-74030011D01*
X227826737Y-73998929D01*
X227801905Y-73953244D01*
X227771250Y-73890922D01*
X227733180Y-73809929D01*
X227718546Y-73778546D01*
X227688797Y-73715362D01*
X227662703Y-73660756D01*
X227641708Y-73617710D01*
X227627261Y-73589207D01*
X227620809Y-73578230D01*
X227619450Y-73578811D01*
X227609458Y-73592758D01*
X227592167Y-73622296D01*
X227569570Y-73663913D01*
X227543662Y-73714097D01*
X227527689Y-73745586D01*
X227498739Y-73800939D01*
X227476251Y-73839956D01*
X227458035Y-73865434D01*
X227441904Y-73880169D01*
X227425670Y-73886958D01*
X227407143Y-73888600D01*
X227396640Y-73888125D01*
X227380524Y-73883918D01*
X227365210Y-73873054D01*
X227348612Y-73852781D01*
X227328643Y-73820346D01*
X227303217Y-73772996D01*
X227270248Y-73707978D01*
X227260515Y-73688723D01*
X227236057Y-73642054D01*
X227215822Y-73605891D01*
X227201689Y-73583503D01*
X227195540Y-73578155D01*
X227194173Y-73581427D01*
X227184798Y-73602336D01*
X227167938Y-73639275D01*
X227145021Y-73689126D01*
X227117480Y-73748774D01*
X227086745Y-73815102D01*
X227060030Y-73872323D01*
X227030407Y-73934312D01*
X227007336Y-73980051D01*
X226989357Y-74012092D01*
X226975010Y-74032986D01*
X226962834Y-74045282D01*
X226951368Y-74051534D01*
X226941958Y-74054426D01*
X226916853Y-74054575D01*
X226889710Y-74039232D01*
X226888410Y-74038247D01*
X226866326Y-74015612D01*
X226855277Y-73993387D01*
X226855231Y-73992747D01*
X226859772Y-73975085D01*
X226872636Y-73940519D01*
X226892395Y-73892174D01*
X226917619Y-73833175D01*
X226946881Y-73766645D01*
X226978750Y-73695709D01*
X227011799Y-73623493D01*
X227044599Y-73553120D01*
X227075720Y-73487715D01*
X227103735Y-73430403D01*
X227127214Y-73384308D01*
X227144728Y-73352554D01*
X227154849Y-73338267D01*
X227189257Y-73324898D01*
X227230954Y-73331259D01*
G36*
X227230954Y-73331259D02*
G01*
X227236319Y-73335956D01*
X227252148Y-73358107D01*
X227274350Y-73394868D01*
X227300767Y-73442585D01*
X227329240Y-73497607D01*
X227409014Y-73656850D01*
X227482201Y-73510258D01*
X227491897Y-73490968D01*
X227518875Y-73438620D01*
X227542904Y-73393830D01*
X227561668Y-73360846D01*
X227572854Y-73343911D01*
X227574000Y-73342668D01*
X227602121Y-73327381D01*
X227637183Y-73325698D01*
X227668224Y-73338267D01*
X227670650Y-73341116D01*
X227682910Y-73361741D01*
X227702648Y-73399292D01*
X227728552Y-73451120D01*
X227759315Y-73514577D01*
X227793625Y-73587015D01*
X227830175Y-73665784D01*
X227850415Y-73709907D01*
X227887188Y-73790635D01*
X227915645Y-73854313D01*
X227936669Y-73903248D01*
X227951146Y-73939743D01*
X227959961Y-73966105D01*
X227963996Y-73984639D01*
X227964138Y-73997648D01*
X227961270Y-74007439D01*
X227946613Y-74028322D01*
X227920010Y-74048623D01*
X227919255Y-74048965D01*
X227899665Y-74055966D01*
X227882210Y-74056496D01*
X227865298Y-74048522D01*
X227847337Y-74030011D01*
X227826737Y-73998929D01*
X227801905Y-73953244D01*
X227771250Y-73890922D01*
X227733180Y-73809929D01*
X227718546Y-73778546D01*
X227688797Y-73715362D01*
X227662703Y-73660756D01*
X227641708Y-73617710D01*
X227627261Y-73589207D01*
X227620809Y-73578230D01*
X227619450Y-73578811D01*
X227609458Y-73592758D01*
X227592167Y-73622296D01*
X227569570Y-73663913D01*
X227543662Y-73714097D01*
X227527689Y-73745586D01*
X227498739Y-73800939D01*
X227476251Y-73839956D01*
X227458035Y-73865434D01*
X227441904Y-73880169D01*
X227425670Y-73886958D01*
X227407143Y-73888600D01*
X227396640Y-73888125D01*
X227380524Y-73883918D01*
X227365210Y-73873054D01*
X227348612Y-73852781D01*
X227328643Y-73820346D01*
X227303217Y-73772996D01*
X227270248Y-73707978D01*
X227260515Y-73688723D01*
X227236057Y-73642054D01*
X227215822Y-73605891D01*
X227201689Y-73583503D01*
X227195540Y-73578155D01*
X227194173Y-73581427D01*
X227184798Y-73602336D01*
X227167938Y-73639275D01*
X227145021Y-73689126D01*
X227117480Y-73748774D01*
X227086745Y-73815102D01*
X227060030Y-73872323D01*
X227030407Y-73934312D01*
X227007336Y-73980051D01*
X226989357Y-74012092D01*
X226975010Y-74032986D01*
X226962834Y-74045282D01*
X226951368Y-74051534D01*
X226941958Y-74054426D01*
X226916853Y-74054575D01*
X226889710Y-74039232D01*
X226888410Y-74038247D01*
X226866326Y-74015612D01*
X226855277Y-73993387D01*
X226855231Y-73992747D01*
X226859772Y-73975085D01*
X226872636Y-73940519D01*
X226892395Y-73892174D01*
X226917619Y-73833175D01*
X226946881Y-73766645D01*
X226978750Y-73695709D01*
X227011799Y-73623493D01*
X227044599Y-73553120D01*
X227075720Y-73487715D01*
X227103735Y-73430403D01*
X227127214Y-73384308D01*
X227144728Y-73352554D01*
X227154849Y-73338267D01*
X227189257Y-73324898D01*
X227230954Y-73331259D01*
G37*
X221209804Y-74385476D02*
X221394633Y-74385570D01*
X221561627Y-74385757D01*
X221711710Y-74386061D01*
X221845804Y-74386506D01*
X221964834Y-74387115D01*
X222069721Y-74387911D01*
X222161390Y-74388920D01*
X222240763Y-74390163D01*
X222308763Y-74391665D01*
X222366314Y-74393449D01*
X222414338Y-74395539D01*
X222453760Y-74397958D01*
X222485501Y-74400730D01*
X222510486Y-74403879D01*
X222529636Y-74407428D01*
X222543877Y-74411402D01*
X222554129Y-74415822D01*
X222561318Y-74420714D01*
X222566365Y-74426100D01*
X222570195Y-74432004D01*
X222573729Y-74438451D01*
X222577892Y-74445463D01*
X222578975Y-74447313D01*
X222581187Y-74452820D01*
X222583214Y-74461132D01*
X222585062Y-74473191D01*
X222586739Y-74489937D01*
X222588255Y-74512313D01*
X222589617Y-74541260D01*
X222590833Y-74577720D01*
X222591911Y-74622633D01*
X222592860Y-74676943D01*
X222593688Y-74741590D01*
X222594403Y-74817516D01*
X222595013Y-74905662D01*
X222595526Y-75006971D01*
X222595950Y-75122383D01*
X222596294Y-75252840D01*
X222596566Y-75399284D01*
X222596773Y-75562656D01*
X222596924Y-75743899D01*
X222597028Y-75943952D01*
X222597092Y-76163759D01*
X222597124Y-76404261D01*
X222597133Y-76666398D01*
X222597133Y-78857969D01*
X222558751Y-78896351D01*
X222531645Y-78920089D01*
X222504747Y-78931889D01*
X222468440Y-78934733D01*
X222416511Y-78934733D01*
X222416511Y-78846794D01*
X222414573Y-78796898D01*
X222395801Y-78686477D01*
X222358783Y-78585013D01*
X222305631Y-78493848D01*
X222238454Y-78414327D01*
X222159362Y-78347795D01*
X222070466Y-78295594D01*
X221973875Y-78259070D01*
X221871700Y-78239566D01*
X221766050Y-78238427D01*
X221659036Y-78256995D01*
X221552768Y-78296616D01*
X221455781Y-78354484D01*
X221370707Y-78429316D01*
X221301985Y-78517385D01*
X221251082Y-78616384D01*
X221219465Y-78724007D01*
X221208600Y-78837946D01*
X221208600Y-78934733D01*
X219588247Y-78934733D01*
X219377103Y-78934720D01*
X219172980Y-78934670D01*
X218989314Y-78934570D01*
X218825009Y-78934408D01*
X218678971Y-78934171D01*
X218550106Y-78933847D01*
X218437317Y-78933425D01*
X218339512Y-78932891D01*
X218255596Y-78932233D01*
X218184473Y-78931439D01*
X218125050Y-78930496D01*
X218076232Y-78929392D01*
X218036923Y-78928116D01*
X218006031Y-78926653D01*
X217982459Y-78924993D01*
X217965114Y-78923122D01*
X217952901Y-78921028D01*
X217944725Y-78918700D01*
X217939492Y-78916124D01*
X217933496Y-78912555D01*
X217926721Y-78909022D01*
X217920522Y-78905512D01*
X217914874Y-78901082D01*
X217909753Y-78894792D01*
X217905131Y-78885699D01*
X217900985Y-78872861D01*
X217897287Y-78855338D01*
X217894013Y-78832187D01*
X217891137Y-78802466D01*
X217888633Y-78765235D01*
X217886476Y-78719551D01*
X217884640Y-78664473D01*
X217883100Y-78599059D01*
X217881830Y-78522367D01*
X217880805Y-78433456D01*
X217879999Y-78331383D01*
X217879966Y-78325133D01*
X218182803Y-78325133D01*
X219242686Y-78325133D01*
X219204689Y-78262034D01*
X219190007Y-78236995D01*
X219175469Y-78209414D01*
X219163373Y-78181300D01*
X219153468Y-78150449D01*
X219145506Y-78114656D01*
X219139239Y-78071717D01*
X219134418Y-78019426D01*
X219130794Y-77955581D01*
X219128119Y-77877975D01*
X219126143Y-77784406D01*
X219124618Y-77672667D01*
X219123296Y-77540555D01*
X219122387Y-77420566D01*
X219121980Y-77303937D01*
X219122233Y-77208469D01*
X219123143Y-77134444D01*
X219124707Y-77082145D01*
X219126921Y-77051851D01*
X219129780Y-77043844D01*
X219132839Y-77047142D01*
X219150994Y-77068592D01*
X219180725Y-77105111D01*
X219220361Y-77154558D01*
X219268229Y-77214793D01*
X219322657Y-77283673D01*
X219381973Y-77359057D01*
X219444505Y-77438804D01*
X219508579Y-77520772D01*
X219572525Y-77602820D01*
X219634669Y-77682806D01*
X219693339Y-77758589D01*
X219746863Y-77828027D01*
X219793570Y-77888979D01*
X219831786Y-77939304D01*
X219859839Y-77976860D01*
X219876057Y-77999505D01*
X219921365Y-78071788D01*
X219961339Y-78151537D01*
X219982870Y-78219812D01*
X219986173Y-78277156D01*
X219980884Y-78325133D01*
X221112644Y-78324883D01*
X221073133Y-78294278D01*
X221063752Y-78286911D01*
X221000817Y-78232562D01*
X220932003Y-78164741D01*
X220855404Y-78081484D01*
X220769112Y-77980822D01*
X220751948Y-77960153D01*
X220711167Y-77910591D01*
X220661412Y-77849674D01*
X220604045Y-77779102D01*
X220540431Y-77700576D01*
X220471931Y-77615796D01*
X220399910Y-77526463D01*
X220325730Y-77434278D01*
X220310483Y-77415298D01*
X221321489Y-77415298D01*
X221322496Y-77415751D01*
X221339695Y-77417197D01*
X221376344Y-77418520D01*
X221430038Y-77419684D01*
X221498370Y-77420653D01*
X221578936Y-77421389D01*
X221669330Y-77421858D01*
X221767147Y-77422022D01*
X222212805Y-77422022D01*
X222215880Y-76245155D01*
X222218955Y-75068289D01*
X222245593Y-75009378D01*
X222257515Y-74984817D01*
X222274754Y-74954566D01*
X222287926Y-74937440D01*
X222295924Y-74929409D01*
X222303622Y-74914507D01*
X222299740Y-74913235D01*
X222276480Y-74911209D01*
X222234126Y-74909374D01*
X222174868Y-74907773D01*
X222100893Y-74906451D01*
X222014390Y-74905452D01*
X221917548Y-74904820D01*
X221812555Y-74904600D01*
X221743644Y-74904651D01*
X221645393Y-74904909D01*
X221555970Y-74905363D01*
X221477667Y-74905990D01*
X221412777Y-74906765D01*
X221363589Y-74907665D01*
X221332396Y-74908666D01*
X221321489Y-74909743D01*
X221322678Y-74912963D01*
X221332824Y-74930548D01*
X221349960Y-74956842D01*
X221358460Y-74969309D01*
X221367671Y-74983378D01*
X221375767Y-74997649D01*
X221382815Y-75013521D01*
X221388883Y-75032391D01*
X221394039Y-75055659D01*
X221398349Y-75084722D01*
X221401881Y-75120979D01*
X221404703Y-75165830D01*
X221406882Y-75220672D01*
X221408486Y-75286903D01*
X221409581Y-75365923D01*
X221410235Y-75459129D01*
X221410516Y-75567921D01*
X221410491Y-75693697D01*
X221410228Y-75837855D01*
X221409794Y-76001793D01*
X221409255Y-76186911D01*
X221408721Y-76365768D01*
X221408195Y-76524626D01*
X221407650Y-76663684D01*
X221407055Y-76784335D01*
X221406381Y-76887972D01*
X221405597Y-76975989D01*
X221404674Y-77049777D01*
X221403581Y-77110731D01*
X221402288Y-77160243D01*
X221400765Y-77199707D01*
X221398981Y-77230516D01*
X221396908Y-77254062D01*
X221394514Y-77271740D01*
X221391770Y-77284941D01*
X221388644Y-77295060D01*
X221385108Y-77303489D01*
X221381209Y-77311625D01*
X221361562Y-77348456D01*
X221342775Y-77378609D01*
X221341728Y-77380092D01*
X221327398Y-77402341D01*
X221321489Y-77415298D01*
X220310483Y-77415298D01*
X220250754Y-77340940D01*
X220176347Y-77248152D01*
X220103869Y-77157612D01*
X220034686Y-77071022D01*
X219970159Y-76990082D01*
X219911653Y-76916494D01*
X219860530Y-76851956D01*
X219818153Y-76798171D01*
X219785885Y-76756838D01*
X219765090Y-76729658D01*
X219757131Y-76718332D01*
X219758889Y-76714229D01*
X219771770Y-76693666D01*
X219796115Y-76657439D01*
X219830753Y-76607176D01*
X219874514Y-76544508D01*
X219926225Y-76471064D01*
X219984716Y-76388473D01*
X220048816Y-76298364D01*
X220117354Y-76202369D01*
X220189157Y-76102115D01*
X220263056Y-75999232D01*
X220337879Y-75895350D01*
X220412455Y-75792099D01*
X220485613Y-75691108D01*
X220556181Y-75594006D01*
X220622989Y-75502423D01*
X220684865Y-75417989D01*
X220740639Y-75342333D01*
X220789138Y-75277084D01*
X220829193Y-75223872D01*
X220859631Y-75184327D01*
X220880056Y-75158974D01*
X220926101Y-75104705D01*
X220976388Y-75048225D01*
X221023185Y-74998331D01*
X221114349Y-74904600D01*
X219959910Y-74904600D01*
X219960544Y-74980800D01*
X219959426Y-75022840D01*
X219953696Y-75058666D01*
X219941110Y-75096228D01*
X219919432Y-75144423D01*
X219916211Y-75151103D01*
X219890812Y-75200641D01*
X219864004Y-75248631D01*
X219841083Y-75285534D01*
X219836515Y-75292166D01*
X219814484Y-75323407D01*
X219782307Y-75368346D01*
X219741543Y-75424853D01*
X219693755Y-75490796D01*
X219640502Y-75564043D01*
X219583345Y-75642464D01*
X219523845Y-75723928D01*
X219463563Y-75806302D01*
X219404060Y-75887456D01*
X219346895Y-75965258D01*
X219293630Y-76037577D01*
X219245826Y-76102282D01*
X219205043Y-76157241D01*
X219172842Y-76200324D01*
X219150784Y-76229398D01*
X219140429Y-76242333D01*
X219135956Y-76246649D01*
X219131764Y-76248688D01*
X219128357Y-76246074D01*
X219125675Y-76237014D01*
X219123659Y-76219715D01*
X219122252Y-76192386D01*
X219121395Y-76153235D01*
X219121030Y-76100467D01*
X219121097Y-76032293D01*
X219121540Y-75946918D01*
X219122298Y-75842551D01*
X219123315Y-75717400D01*
X219123692Y-75672700D01*
X219124831Y-75551605D01*
X219126028Y-75450312D01*
X219127364Y-75366738D01*
X219128923Y-75298796D01*
X219130785Y-75244401D01*
X219133034Y-75201468D01*
X219135752Y-75167911D01*
X219139021Y-75141645D01*
X219142922Y-75120584D01*
X219147539Y-75102643D01*
X219155808Y-75076230D01*
X219179417Y-75014228D01*
X219205315Y-74961427D01*
X219230465Y-74924355D01*
X219231661Y-74922925D01*
X219233832Y-74918576D01*
X219231672Y-74914974D01*
X219223356Y-74912049D01*
X219207060Y-74909731D01*
X219180959Y-74907949D01*
X219143229Y-74906633D01*
X219092044Y-74905714D01*
X219025580Y-74905122D01*
X218942013Y-74904785D01*
X218839517Y-74904635D01*
X218716268Y-74904600D01*
X218184704Y-74904600D01*
X218223477Y-74962217D01*
X218229568Y-74971107D01*
X218240024Y-74985931D01*
X218249421Y-74999578D01*
X218257817Y-75013235D01*
X218265267Y-75028089D01*
X218271827Y-75045330D01*
X218277554Y-75066145D01*
X218282505Y-75091720D01*
X218286734Y-75123245D01*
X218290299Y-75161907D01*
X218293256Y-75208893D01*
X218295660Y-75265392D01*
X218297569Y-75332591D01*
X218299038Y-75411678D01*
X218300124Y-75503840D01*
X218300882Y-75610266D01*
X218301370Y-75732143D01*
X218301642Y-75870659D01*
X218301757Y-76027001D01*
X218301769Y-76202358D01*
X218301735Y-76397918D01*
X218301711Y-76614867D01*
X218301720Y-76737487D01*
X218301757Y-76942553D01*
X218301773Y-77126884D01*
X218301712Y-77291666D01*
X218301516Y-77438084D01*
X218301130Y-77567326D01*
X218300495Y-77680578D01*
X218299556Y-77779025D01*
X218298255Y-77863856D01*
X218296536Y-77936256D01*
X218294341Y-77997411D01*
X218291615Y-78048508D01*
X218288299Y-78090733D01*
X218284338Y-78125273D01*
X218279675Y-78153314D01*
X218274253Y-78176042D01*
X218268014Y-78194644D01*
X218260903Y-78210307D01*
X218252862Y-78224216D01*
X218243834Y-78237559D01*
X218233764Y-78251521D01*
X218222593Y-78267289D01*
X218182803Y-78325133D01*
X217879966Y-78325133D01*
X217879386Y-78215208D01*
X217878941Y-78083989D01*
X217878638Y-77936784D01*
X217878452Y-77772651D01*
X217878358Y-77590648D01*
X217878329Y-77389835D01*
X217878339Y-77169268D01*
X217878364Y-76928008D01*
X217878378Y-76665111D01*
X217878378Y-76622960D01*
X217878354Y-76362332D01*
X217878315Y-76123204D01*
X217878292Y-75904640D01*
X217878313Y-75705705D01*
X217878407Y-75525465D01*
X217878605Y-75362985D01*
X217878937Y-75217330D01*
X217879431Y-75087566D01*
X217880117Y-74972757D01*
X217881024Y-74871970D01*
X217882183Y-74784270D01*
X217883622Y-74708721D01*
X217885371Y-74644389D01*
X217887460Y-74590339D01*
X217889917Y-74545637D01*
X217892773Y-74509348D01*
X217896057Y-74480537D01*
X217899798Y-74458269D01*
X217904026Y-74441610D01*
X217908771Y-74429625D01*
X217914061Y-74421379D01*
X217919927Y-74415938D01*
X217926398Y-74412366D01*
X217933503Y-74409730D01*
X217941272Y-74407094D01*
X217949734Y-74403523D01*
X217954092Y-74401855D01*
X217962605Y-74399889D01*
X217975306Y-74398089D01*
X217993115Y-74396445D01*
X218016951Y-74394953D01*
X218047734Y-74393603D01*
X218086383Y-74392389D01*
X218133818Y-74391303D01*
X218190957Y-74390339D01*
X218258721Y-74389489D01*
X218338029Y-74388747D01*
X218429801Y-74388103D01*
X218534956Y-74387553D01*
X218654413Y-74387087D01*
X218789092Y-74386700D01*
X218939912Y-74386384D01*
X219107794Y-74386131D01*
X219293655Y-74385934D01*
X219498417Y-74385787D01*
X219722998Y-74385682D01*
X219968318Y-74385611D01*
X220235296Y-74385568D01*
X220273679Y-74385563D01*
X220539078Y-74385520D01*
X220782950Y-74385475D01*
X221006217Y-74385452D01*
X221209804Y-74385476D01*
G36*
X221209804Y-74385476D02*
G01*
X221394633Y-74385570D01*
X221561627Y-74385757D01*
X221711710Y-74386061D01*
X221845804Y-74386506D01*
X221964834Y-74387115D01*
X222069721Y-74387911D01*
X222161390Y-74388920D01*
X222240763Y-74390163D01*
X222308763Y-74391665D01*
X222366314Y-74393449D01*
X222414338Y-74395539D01*
X222453760Y-74397958D01*
X222485501Y-74400730D01*
X222510486Y-74403879D01*
X222529636Y-74407428D01*
X222543877Y-74411402D01*
X222554129Y-74415822D01*
X222561318Y-74420714D01*
X222566365Y-74426100D01*
X222570195Y-74432004D01*
X222573729Y-74438451D01*
X222577892Y-74445463D01*
X222578975Y-74447313D01*
X222581187Y-74452820D01*
X222583214Y-74461132D01*
X222585062Y-74473191D01*
X222586739Y-74489937D01*
X222588255Y-74512313D01*
X222589617Y-74541260D01*
X222590833Y-74577720D01*
X222591911Y-74622633D01*
X222592860Y-74676943D01*
X222593688Y-74741590D01*
X222594403Y-74817516D01*
X222595013Y-74905662D01*
X222595526Y-75006971D01*
X222595950Y-75122383D01*
X222596294Y-75252840D01*
X222596566Y-75399284D01*
X222596773Y-75562656D01*
X222596924Y-75743899D01*
X222597028Y-75943952D01*
X222597092Y-76163759D01*
X222597124Y-76404261D01*
X222597133Y-76666398D01*
X222597133Y-78857969D01*
X222558751Y-78896351D01*
X222531645Y-78920089D01*
X222504747Y-78931889D01*
X222468440Y-78934733D01*
X222416511Y-78934733D01*
X222416511Y-78846794D01*
X222414573Y-78796898D01*
X222395801Y-78686477D01*
X222358783Y-78585013D01*
X222305631Y-78493848D01*
X222238454Y-78414327D01*
X222159362Y-78347795D01*
X222070466Y-78295594D01*
X221973875Y-78259070D01*
X221871700Y-78239566D01*
X221766050Y-78238427D01*
X221659036Y-78256995D01*
X221552768Y-78296616D01*
X221455781Y-78354484D01*
X221370707Y-78429316D01*
X221301985Y-78517385D01*
X221251082Y-78616384D01*
X221219465Y-78724007D01*
X221208600Y-78837946D01*
X221208600Y-78934733D01*
X219588247Y-78934733D01*
X219377103Y-78934720D01*
X219172980Y-78934670D01*
X218989314Y-78934570D01*
X218825009Y-78934408D01*
X218678971Y-78934171D01*
X218550106Y-78933847D01*
X218437317Y-78933425D01*
X218339512Y-78932891D01*
X218255596Y-78932233D01*
X218184473Y-78931439D01*
X218125050Y-78930496D01*
X218076232Y-78929392D01*
X218036923Y-78928116D01*
X218006031Y-78926653D01*
X217982459Y-78924993D01*
X217965114Y-78923122D01*
X217952901Y-78921028D01*
X217944725Y-78918700D01*
X217939492Y-78916124D01*
X217933496Y-78912555D01*
X217926721Y-78909022D01*
X217920522Y-78905512D01*
X217914874Y-78901082D01*
X217909753Y-78894792D01*
X217905131Y-78885699D01*
X217900985Y-78872861D01*
X217897287Y-78855338D01*
X217894013Y-78832187D01*
X217891137Y-78802466D01*
X217888633Y-78765235D01*
X217886476Y-78719551D01*
X217884640Y-78664473D01*
X217883100Y-78599059D01*
X217881830Y-78522367D01*
X217880805Y-78433456D01*
X217879999Y-78331383D01*
X217879966Y-78325133D01*
X218182803Y-78325133D01*
X219242686Y-78325133D01*
X219204689Y-78262034D01*
X219190007Y-78236995D01*
X219175469Y-78209414D01*
X219163373Y-78181300D01*
X219153468Y-78150449D01*
X219145506Y-78114656D01*
X219139239Y-78071717D01*
X219134418Y-78019426D01*
X219130794Y-77955581D01*
X219128119Y-77877975D01*
X219126143Y-77784406D01*
X219124618Y-77672667D01*
X219123296Y-77540555D01*
X219122387Y-77420566D01*
X219121980Y-77303937D01*
X219122233Y-77208469D01*
X219123143Y-77134444D01*
X219124707Y-77082145D01*
X219126921Y-77051851D01*
X219129780Y-77043844D01*
X219132839Y-77047142D01*
X219150994Y-77068592D01*
X219180725Y-77105111D01*
X219220361Y-77154558D01*
X219268229Y-77214793D01*
X219322657Y-77283673D01*
X219381973Y-77359057D01*
X219444505Y-77438804D01*
X219508579Y-77520772D01*
X219572525Y-77602820D01*
X219634669Y-77682806D01*
X219693339Y-77758589D01*
X219746863Y-77828027D01*
X219793570Y-77888979D01*
X219831786Y-77939304D01*
X219859839Y-77976860D01*
X219876057Y-77999505D01*
X219921365Y-78071788D01*
X219961339Y-78151537D01*
X219982870Y-78219812D01*
X219986173Y-78277156D01*
X219980884Y-78325133D01*
X221112644Y-78324883D01*
X221073133Y-78294278D01*
X221063752Y-78286911D01*
X221000817Y-78232562D01*
X220932003Y-78164741D01*
X220855404Y-78081484D01*
X220769112Y-77980822D01*
X220751948Y-77960153D01*
X220711167Y-77910591D01*
X220661412Y-77849674D01*
X220604045Y-77779102D01*
X220540431Y-77700576D01*
X220471931Y-77615796D01*
X220399910Y-77526463D01*
X220325730Y-77434278D01*
X220310483Y-77415298D01*
X221321489Y-77415298D01*
X221322496Y-77415751D01*
X221339695Y-77417197D01*
X221376344Y-77418520D01*
X221430038Y-77419684D01*
X221498370Y-77420653D01*
X221578936Y-77421389D01*
X221669330Y-77421858D01*
X221767147Y-77422022D01*
X222212805Y-77422022D01*
X222215880Y-76245155D01*
X222218955Y-75068289D01*
X222245593Y-75009378D01*
X222257515Y-74984817D01*
X222274754Y-74954566D01*
X222287926Y-74937440D01*
X222295924Y-74929409D01*
X222303622Y-74914507D01*
X222299740Y-74913235D01*
X222276480Y-74911209D01*
X222234126Y-74909374D01*
X222174868Y-74907773D01*
X222100893Y-74906451D01*
X222014390Y-74905452D01*
X221917548Y-74904820D01*
X221812555Y-74904600D01*
X221743644Y-74904651D01*
X221645393Y-74904909D01*
X221555970Y-74905363D01*
X221477667Y-74905990D01*
X221412777Y-74906765D01*
X221363589Y-74907665D01*
X221332396Y-74908666D01*
X221321489Y-74909743D01*
X221322678Y-74912963D01*
X221332824Y-74930548D01*
X221349960Y-74956842D01*
X221358460Y-74969309D01*
X221367671Y-74983378D01*
X221375767Y-74997649D01*
X221382815Y-75013521D01*
X221388883Y-75032391D01*
X221394039Y-75055659D01*
X221398349Y-75084722D01*
X221401881Y-75120979D01*
X221404703Y-75165830D01*
X221406882Y-75220672D01*
X221408486Y-75286903D01*
X221409581Y-75365923D01*
X221410235Y-75459129D01*
X221410516Y-75567921D01*
X221410491Y-75693697D01*
X221410228Y-75837855D01*
X221409794Y-76001793D01*
X221409255Y-76186911D01*
X221408721Y-76365768D01*
X221408195Y-76524626D01*
X221407650Y-76663684D01*
X221407055Y-76784335D01*
X221406381Y-76887972D01*
X221405597Y-76975989D01*
X221404674Y-77049777D01*
X221403581Y-77110731D01*
X221402288Y-77160243D01*
X221400765Y-77199707D01*
X221398981Y-77230516D01*
X221396908Y-77254062D01*
X221394514Y-77271740D01*
X221391770Y-77284941D01*
X221388644Y-77295060D01*
X221385108Y-77303489D01*
X221381209Y-77311625D01*
X221361562Y-77348456D01*
X221342775Y-77378609D01*
X221341728Y-77380092D01*
X221327398Y-77402341D01*
X221321489Y-77415298D01*
X220310483Y-77415298D01*
X220250754Y-77340940D01*
X220176347Y-77248152D01*
X220103869Y-77157612D01*
X220034686Y-77071022D01*
X219970159Y-76990082D01*
X219911653Y-76916494D01*
X219860530Y-76851956D01*
X219818153Y-76798171D01*
X219785885Y-76756838D01*
X219765090Y-76729658D01*
X219757131Y-76718332D01*
X219758889Y-76714229D01*
X219771770Y-76693666D01*
X219796115Y-76657439D01*
X219830753Y-76607176D01*
X219874514Y-76544508D01*
X219926225Y-76471064D01*
X219984716Y-76388473D01*
X220048816Y-76298364D01*
X220117354Y-76202369D01*
X220189157Y-76102115D01*
X220263056Y-75999232D01*
X220337879Y-75895350D01*
X220412455Y-75792099D01*
X220485613Y-75691108D01*
X220556181Y-75594006D01*
X220622989Y-75502423D01*
X220684865Y-75417989D01*
X220740639Y-75342333D01*
X220789138Y-75277084D01*
X220829193Y-75223872D01*
X220859631Y-75184327D01*
X220880056Y-75158974D01*
X220926101Y-75104705D01*
X220976388Y-75048225D01*
X221023185Y-74998331D01*
X221114349Y-74904600D01*
X219959910Y-74904600D01*
X219960544Y-74980800D01*
X219959426Y-75022840D01*
X219953696Y-75058666D01*
X219941110Y-75096228D01*
X219919432Y-75144423D01*
X219916211Y-75151103D01*
X219890812Y-75200641D01*
X219864004Y-75248631D01*
X219841083Y-75285534D01*
X219836515Y-75292166D01*
X219814484Y-75323407D01*
X219782307Y-75368346D01*
X219741543Y-75424853D01*
X219693755Y-75490796D01*
X219640502Y-75564043D01*
X219583345Y-75642464D01*
X219523845Y-75723928D01*
X219463563Y-75806302D01*
X219404060Y-75887456D01*
X219346895Y-75965258D01*
X219293630Y-76037577D01*
X219245826Y-76102282D01*
X219205043Y-76157241D01*
X219172842Y-76200324D01*
X219150784Y-76229398D01*
X219140429Y-76242333D01*
X219135956Y-76246649D01*
X219131764Y-76248688D01*
X219128357Y-76246074D01*
X219125675Y-76237014D01*
X219123659Y-76219715D01*
X219122252Y-76192386D01*
X219121395Y-76153235D01*
X219121030Y-76100467D01*
X219121097Y-76032293D01*
X219121540Y-75946918D01*
X219122298Y-75842551D01*
X219123315Y-75717400D01*
X219123692Y-75672700D01*
X219124831Y-75551605D01*
X219126028Y-75450312D01*
X219127364Y-75366738D01*
X219128923Y-75298796D01*
X219130785Y-75244401D01*
X219133034Y-75201468D01*
X219135752Y-75167911D01*
X219139021Y-75141645D01*
X219142922Y-75120584D01*
X219147539Y-75102643D01*
X219155808Y-75076230D01*
X219179417Y-75014228D01*
X219205315Y-74961427D01*
X219230465Y-74924355D01*
X219231661Y-74922925D01*
X219233832Y-74918576D01*
X219231672Y-74914974D01*
X219223356Y-74912049D01*
X219207060Y-74909731D01*
X219180959Y-74907949D01*
X219143229Y-74906633D01*
X219092044Y-74905714D01*
X219025580Y-74905122D01*
X218942013Y-74904785D01*
X218839517Y-74904635D01*
X218716268Y-74904600D01*
X218184704Y-74904600D01*
X218223477Y-74962217D01*
X218229568Y-74971107D01*
X218240024Y-74985931D01*
X218249421Y-74999578D01*
X218257817Y-75013235D01*
X218265267Y-75028089D01*
X218271827Y-75045330D01*
X218277554Y-75066145D01*
X218282505Y-75091720D01*
X218286734Y-75123245D01*
X218290299Y-75161907D01*
X218293256Y-75208893D01*
X218295660Y-75265392D01*
X218297569Y-75332591D01*
X218299038Y-75411678D01*
X218300124Y-75503840D01*
X218300882Y-75610266D01*
X218301370Y-75732143D01*
X218301642Y-75870659D01*
X218301757Y-76027001D01*
X218301769Y-76202358D01*
X218301735Y-76397918D01*
X218301711Y-76614867D01*
X218301720Y-76737487D01*
X218301757Y-76942553D01*
X218301773Y-77126884D01*
X218301712Y-77291666D01*
X218301516Y-77438084D01*
X218301130Y-77567326D01*
X218300495Y-77680578D01*
X218299556Y-77779025D01*
X218298255Y-77863856D01*
X218296536Y-77936256D01*
X218294341Y-77997411D01*
X218291615Y-78048508D01*
X218288299Y-78090733D01*
X218284338Y-78125273D01*
X218279675Y-78153314D01*
X218274253Y-78176042D01*
X218268014Y-78194644D01*
X218260903Y-78210307D01*
X218252862Y-78224216D01*
X218243834Y-78237559D01*
X218233764Y-78251521D01*
X218222593Y-78267289D01*
X218182803Y-78325133D01*
X217879966Y-78325133D01*
X217879386Y-78215208D01*
X217878941Y-78083989D01*
X217878638Y-77936784D01*
X217878452Y-77772651D01*
X217878358Y-77590648D01*
X217878329Y-77389835D01*
X217878339Y-77169268D01*
X217878364Y-76928008D01*
X217878378Y-76665111D01*
X217878378Y-76622960D01*
X217878354Y-76362332D01*
X217878315Y-76123204D01*
X217878292Y-75904640D01*
X217878313Y-75705705D01*
X217878407Y-75525465D01*
X217878605Y-75362985D01*
X217878937Y-75217330D01*
X217879431Y-75087566D01*
X217880117Y-74972757D01*
X217881024Y-74871970D01*
X217882183Y-74784270D01*
X217883622Y-74708721D01*
X217885371Y-74644389D01*
X217887460Y-74590339D01*
X217889917Y-74545637D01*
X217892773Y-74509348D01*
X217896057Y-74480537D01*
X217899798Y-74458269D01*
X217904026Y-74441610D01*
X217908771Y-74429625D01*
X217914061Y-74421379D01*
X217919927Y-74415938D01*
X217926398Y-74412366D01*
X217933503Y-74409730D01*
X217941272Y-74407094D01*
X217949734Y-74403523D01*
X217954092Y-74401855D01*
X217962605Y-74399889D01*
X217975306Y-74398089D01*
X217993115Y-74396445D01*
X218016951Y-74394953D01*
X218047734Y-74393603D01*
X218086383Y-74392389D01*
X218133818Y-74391303D01*
X218190957Y-74390339D01*
X218258721Y-74389489D01*
X218338029Y-74388747D01*
X218429801Y-74388103D01*
X218534956Y-74387553D01*
X218654413Y-74387087D01*
X218789092Y-74386700D01*
X218939912Y-74386384D01*
X219107794Y-74386131D01*
X219293655Y-74385934D01*
X219498417Y-74385787D01*
X219722998Y-74385682D01*
X219968318Y-74385611D01*
X220235296Y-74385568D01*
X220273679Y-74385563D01*
X220539078Y-74385520D01*
X220782950Y-74385475D01*
X221006217Y-74385452D01*
X221209804Y-74385476D01*
G37*
X221847302Y-78375053D02*
X221891800Y-78382574D01*
X221943066Y-78394998D01*
X222033566Y-78432888D01*
X222112655Y-78487164D01*
X222178472Y-78555230D01*
X222229160Y-78634489D01*
X222262860Y-78722346D01*
X222277714Y-78816205D01*
X222271864Y-78913470D01*
X222245601Y-79009780D01*
X222200582Y-79098506D01*
X222139627Y-79173581D01*
X222064816Y-79233359D01*
X221978232Y-79276191D01*
X221881957Y-79300429D01*
X221778072Y-79304424D01*
X221700438Y-79294150D01*
X221617687Y-79266947D01*
X221542594Y-79221516D01*
X221470702Y-79155698D01*
X221432154Y-79111433D01*
X221392744Y-79053039D01*
X221367554Y-78992414D01*
X221354139Y-78923135D01*
X221350052Y-78838778D01*
X221350331Y-78792693D01*
X221352540Y-78751550D01*
X221358106Y-78719418D01*
X221368414Y-78688878D01*
X221384852Y-78652511D01*
X221398800Y-78625272D01*
X221457335Y-78539571D01*
X221529381Y-78470383D01*
X221613053Y-78419259D01*
X221706469Y-78387750D01*
X221739566Y-78380775D01*
X221780040Y-78373906D01*
X221813001Y-78372081D01*
X221847302Y-78375053D01*
G36*
X221847302Y-78375053D02*
G01*
X221891800Y-78382574D01*
X221943066Y-78394998D01*
X222033566Y-78432888D01*
X222112655Y-78487164D01*
X222178472Y-78555230D01*
X222229160Y-78634489D01*
X222262860Y-78722346D01*
X222277714Y-78816205D01*
X222271864Y-78913470D01*
X222245601Y-79009780D01*
X222200582Y-79098506D01*
X222139627Y-79173581D01*
X222064816Y-79233359D01*
X221978232Y-79276191D01*
X221881957Y-79300429D01*
X221778072Y-79304424D01*
X221700438Y-79294150D01*
X221617687Y-79266947D01*
X221542594Y-79221516D01*
X221470702Y-79155698D01*
X221432154Y-79111433D01*
X221392744Y-79053039D01*
X221367554Y-78992414D01*
X221354139Y-78923135D01*
X221350052Y-78838778D01*
X221350331Y-78792693D01*
X221352540Y-78751550D01*
X221358106Y-78719418D01*
X221368414Y-78688878D01*
X221384852Y-78652511D01*
X221398800Y-78625272D01*
X221457335Y-78539571D01*
X221529381Y-78470383D01*
X221613053Y-78419259D01*
X221706469Y-78387750D01*
X221739566Y-78380775D01*
X221780040Y-78373906D01*
X221813001Y-78372081D01*
X221847302Y-78375053D01*
G37*
X223518117Y-73328364D02*
X223531561Y-73338793D01*
X223545073Y-73354526D01*
X223551318Y-73363009D01*
X223556950Y-73373587D01*
X223561161Y-73387745D01*
X223564113Y-73408197D01*
X223565968Y-73437658D01*
X223566887Y-73478839D01*
X223567032Y-73534456D01*
X223566565Y-73607221D01*
X223565648Y-73699849D01*
X223562333Y-74014801D01*
X223535682Y-74036367D01*
X223509617Y-74052559D01*
X223476759Y-74055330D01*
X223442228Y-74036377D01*
X223437916Y-74032792D01*
X223429784Y-74024263D01*
X223423755Y-74012671D01*
X223419394Y-73994765D01*
X223416266Y-73967294D01*
X223413937Y-73927006D01*
X223411971Y-73870649D01*
X223409933Y-73794971D01*
X223404289Y-73575122D01*
X223223666Y-73738916D01*
X223136928Y-73817549D01*
X223061157Y-73885942D01*
X222999020Y-73941292D01*
X222948922Y-73984662D01*
X222909265Y-74017119D01*
X222878452Y-74039727D01*
X222854886Y-74053552D01*
X222836970Y-74059657D01*
X222823107Y-74059108D01*
X222811699Y-74052971D01*
X222801150Y-74042309D01*
X222789864Y-74028189D01*
X222785411Y-74022228D01*
X222779412Y-74011732D01*
X222774833Y-73997907D01*
X222771481Y-73978002D01*
X222769167Y-73949268D01*
X222767699Y-73908955D01*
X222766887Y-73854313D01*
X222766540Y-73782593D01*
X222766466Y-73691044D01*
X222766489Y-73632514D01*
X222766708Y-73553427D01*
X222767317Y-73492484D01*
X222768508Y-73446938D01*
X222770471Y-73414037D01*
X222773397Y-73391032D01*
X222777477Y-73375174D01*
X222782903Y-73363714D01*
X222789864Y-73353900D01*
X222820292Y-73329507D01*
X222855235Y-73326628D01*
X222892216Y-73345718D01*
X222896400Y-73349193D01*
X222904576Y-73357721D01*
X222910636Y-73369272D01*
X222915019Y-73387104D01*
X222918161Y-73414476D01*
X222920498Y-73454646D01*
X222922469Y-73510872D01*
X222924511Y-73586411D01*
X222930155Y-73805542D01*
X223195444Y-73564901D01*
X223269278Y-73498125D01*
X223334458Y-73440009D01*
X223386652Y-73395051D01*
X223427727Y-73362129D01*
X223459545Y-73340121D01*
X223483974Y-73327906D01*
X223502876Y-73324361D01*
X223518117Y-73328364D01*
G36*
X223518117Y-73328364D02*
G01*
X223531561Y-73338793D01*
X223545073Y-73354526D01*
X223551318Y-73363009D01*
X223556950Y-73373587D01*
X223561161Y-73387745D01*
X223564113Y-73408197D01*
X223565968Y-73437658D01*
X223566887Y-73478839D01*
X223567032Y-73534456D01*
X223566565Y-73607221D01*
X223565648Y-73699849D01*
X223562333Y-74014801D01*
X223535682Y-74036367D01*
X223509617Y-74052559D01*
X223476759Y-74055330D01*
X223442228Y-74036377D01*
X223437916Y-74032792D01*
X223429784Y-74024263D01*
X223423755Y-74012671D01*
X223419394Y-73994765D01*
X223416266Y-73967294D01*
X223413937Y-73927006D01*
X223411971Y-73870649D01*
X223409933Y-73794971D01*
X223404289Y-73575122D01*
X223223666Y-73738916D01*
X223136928Y-73817549D01*
X223061157Y-73885942D01*
X222999020Y-73941292D01*
X222948922Y-73984662D01*
X222909265Y-74017119D01*
X222878452Y-74039727D01*
X222854886Y-74053552D01*
X222836970Y-74059657D01*
X222823107Y-74059108D01*
X222811699Y-74052971D01*
X222801150Y-74042309D01*
X222789864Y-74028189D01*
X222785411Y-74022228D01*
X222779412Y-74011732D01*
X222774833Y-73997907D01*
X222771481Y-73978002D01*
X222769167Y-73949268D01*
X222767699Y-73908955D01*
X222766887Y-73854313D01*
X222766540Y-73782593D01*
X222766466Y-73691044D01*
X222766489Y-73632514D01*
X222766708Y-73553427D01*
X222767317Y-73492484D01*
X222768508Y-73446938D01*
X222770471Y-73414037D01*
X222773397Y-73391032D01*
X222777477Y-73375174D01*
X222782903Y-73363714D01*
X222789864Y-73353900D01*
X222820292Y-73329507D01*
X222855235Y-73326628D01*
X222892216Y-73345718D01*
X222896400Y-73349193D01*
X222904576Y-73357721D01*
X222910636Y-73369272D01*
X222915019Y-73387104D01*
X222918161Y-73414476D01*
X222920498Y-73454646D01*
X222922469Y-73510872D01*
X222924511Y-73586411D01*
X222930155Y-73805542D01*
X223195444Y-73564901D01*
X223269278Y-73498125D01*
X223334458Y-73440009D01*
X223386652Y-73395051D01*
X223427727Y-73362129D01*
X223459545Y-73340121D01*
X223483974Y-73327906D01*
X223502876Y-73324361D01*
X223518117Y-73328364D01*
G37*
X219393686Y-73324167D02*
X219474833Y-73324349D01*
X219537325Y-73324902D01*
X219583891Y-73326018D01*
X219617259Y-73327887D01*
X219640156Y-73330702D01*
X219655312Y-73334654D01*
X219665454Y-73339934D01*
X219673311Y-73346733D01*
X219688037Y-73368333D01*
X219695889Y-73397533D01*
X219690390Y-73421440D01*
X219673311Y-73448333D01*
X219668332Y-73452941D01*
X219658557Y-73459228D01*
X219644441Y-73463854D01*
X219622946Y-73467070D01*
X219591032Y-73469130D01*
X219545658Y-73470288D01*
X219483787Y-73470798D01*
X219402378Y-73470911D01*
X219154022Y-73470911D01*
X219154022Y-73628955D01*
X219315199Y-73628955D01*
X219351017Y-73629101D01*
X219416641Y-73630824D01*
X219463882Y-73635259D01*
X219495617Y-73643363D01*
X219514723Y-73656094D01*
X219524077Y-73674408D01*
X219526555Y-73699262D01*
X219525758Y-73719518D01*
X219520506Y-73741344D01*
X219507712Y-73756696D01*
X219484372Y-73766691D01*
X219447483Y-73772447D01*
X219394041Y-73775081D01*
X219321042Y-73775711D01*
X219152895Y-73775711D01*
X219156281Y-73840622D01*
X219159666Y-73905533D01*
X219407383Y-73908582D01*
X219469974Y-73909461D01*
X219538435Y-73910905D01*
X219589339Y-73912836D01*
X219625592Y-73915486D01*
X219650099Y-73919090D01*
X219665765Y-73923879D01*
X219675494Y-73930087D01*
X219681509Y-73936490D01*
X219694518Y-73968172D01*
X219690957Y-74003858D01*
X219671182Y-74034916D01*
X219667931Y-74037839D01*
X219658951Y-74044190D01*
X219646847Y-74049043D01*
X219628841Y-74052597D01*
X219602153Y-74055054D01*
X219564003Y-74056615D01*
X219511614Y-74057482D01*
X219442206Y-74057854D01*
X219352999Y-74057933D01*
X219298266Y-74057917D01*
X219221169Y-74057725D01*
X219162223Y-74057140D01*
X219118636Y-74055949D01*
X219087617Y-74053936D01*
X219066375Y-74050888D01*
X219052118Y-74046591D01*
X219042055Y-74040828D01*
X219033394Y-74033388D01*
X219031609Y-74031707D01*
X219024365Y-74024168D01*
X219018723Y-74015150D01*
X219014483Y-74002016D01*
X219011444Y-73982128D01*
X219009406Y-73952849D01*
X219008170Y-73911542D01*
X219007535Y-73855569D01*
X219007300Y-73782293D01*
X219007266Y-73689077D01*
X219007303Y-73616287D01*
X219007552Y-73538111D01*
X219008188Y-73477897D01*
X219009385Y-73433018D01*
X219011316Y-73400848D01*
X219014154Y-73378761D01*
X219018073Y-73364130D01*
X219023245Y-73354330D01*
X219029844Y-73346733D01*
X219033178Y-73343556D01*
X219041700Y-73337446D01*
X219053702Y-73332771D01*
X219071913Y-73329341D01*
X219099060Y-73326964D01*
X219137871Y-73325448D01*
X219191076Y-73324602D01*
X219261402Y-73324235D01*
X219351578Y-73324155D01*
X219393686Y-73324167D01*
G36*
X219393686Y-73324167D02*
G01*
X219474833Y-73324349D01*
X219537325Y-73324902D01*
X219583891Y-73326018D01*
X219617259Y-73327887D01*
X219640156Y-73330702D01*
X219655312Y-73334654D01*
X219665454Y-73339934D01*
X219673311Y-73346733D01*
X219688037Y-73368333D01*
X219695889Y-73397533D01*
X219690390Y-73421440D01*
X219673311Y-73448333D01*
X219668332Y-73452941D01*
X219658557Y-73459228D01*
X219644441Y-73463854D01*
X219622946Y-73467070D01*
X219591032Y-73469130D01*
X219545658Y-73470288D01*
X219483787Y-73470798D01*
X219402378Y-73470911D01*
X219154022Y-73470911D01*
X219154022Y-73628955D01*
X219315199Y-73628955D01*
X219351017Y-73629101D01*
X219416641Y-73630824D01*
X219463882Y-73635259D01*
X219495617Y-73643363D01*
X219514723Y-73656094D01*
X219524077Y-73674408D01*
X219526555Y-73699262D01*
X219525758Y-73719518D01*
X219520506Y-73741344D01*
X219507712Y-73756696D01*
X219484372Y-73766691D01*
X219447483Y-73772447D01*
X219394041Y-73775081D01*
X219321042Y-73775711D01*
X219152895Y-73775711D01*
X219156281Y-73840622D01*
X219159666Y-73905533D01*
X219407383Y-73908582D01*
X219469974Y-73909461D01*
X219538435Y-73910905D01*
X219589339Y-73912836D01*
X219625592Y-73915486D01*
X219650099Y-73919090D01*
X219665765Y-73923879D01*
X219675494Y-73930087D01*
X219681509Y-73936490D01*
X219694518Y-73968172D01*
X219690957Y-74003858D01*
X219671182Y-74034916D01*
X219667931Y-74037839D01*
X219658951Y-74044190D01*
X219646847Y-74049043D01*
X219628841Y-74052597D01*
X219602153Y-74055054D01*
X219564003Y-74056615D01*
X219511614Y-74057482D01*
X219442206Y-74057854D01*
X219352999Y-74057933D01*
X219298266Y-74057917D01*
X219221169Y-74057725D01*
X219162223Y-74057140D01*
X219118636Y-74055949D01*
X219087617Y-74053936D01*
X219066375Y-74050888D01*
X219052118Y-74046591D01*
X219042055Y-74040828D01*
X219033394Y-74033388D01*
X219031609Y-74031707D01*
X219024365Y-74024168D01*
X219018723Y-74015150D01*
X219014483Y-74002016D01*
X219011444Y-73982128D01*
X219009406Y-73952849D01*
X219008170Y-73911542D01*
X219007535Y-73855569D01*
X219007300Y-73782293D01*
X219007266Y-73689077D01*
X219007303Y-73616287D01*
X219007552Y-73538111D01*
X219008188Y-73477897D01*
X219009385Y-73433018D01*
X219011316Y-73400848D01*
X219014154Y-73378761D01*
X219018073Y-73364130D01*
X219023245Y-73354330D01*
X219029844Y-73346733D01*
X219033178Y-73343556D01*
X219041700Y-73337446D01*
X219053702Y-73332771D01*
X219071913Y-73329341D01*
X219099060Y-73326964D01*
X219137871Y-73325448D01*
X219191076Y-73324602D01*
X219261402Y-73324235D01*
X219351578Y-73324155D01*
X219393686Y-73324167D01*
G37*
X224308069Y-73324162D02*
X224395094Y-73324428D01*
X224462746Y-73325194D01*
X224513701Y-73326608D01*
X224550633Y-73328820D01*
X224576217Y-73331978D01*
X224593129Y-73336231D01*
X224604043Y-73341729D01*
X224614536Y-73351715D01*
X224627797Y-73382832D01*
X224626614Y-73418720D01*
X224610450Y-73450267D01*
X224608261Y-73452543D01*
X224599573Y-73458811D01*
X224586231Y-73463477D01*
X224565248Y-73466773D01*
X224533637Y-73468932D01*
X224488410Y-73470186D01*
X224426580Y-73470769D01*
X224345161Y-73470911D01*
X224098555Y-73470911D01*
X224098555Y-73628955D01*
X224260994Y-73628955D01*
X224296662Y-73629036D01*
X224352432Y-73629833D01*
X224391570Y-73631838D01*
X224418024Y-73635479D01*
X224435741Y-73641188D01*
X224448671Y-73649393D01*
X224452314Y-73652577D01*
X224470722Y-73683552D01*
X224471356Y-73719888D01*
X224453817Y-73753507D01*
X224453755Y-73753576D01*
X224444084Y-73762202D01*
X224430791Y-73768258D01*
X224410083Y-73772189D01*
X224378172Y-73774444D01*
X224331266Y-73775469D01*
X224265576Y-73775711D01*
X224097429Y-73775711D01*
X224100814Y-73840622D01*
X224104200Y-73905533D01*
X224346277Y-73908586D01*
X224371293Y-73908914D01*
X224452913Y-73910394D01*
X224515232Y-73912778D01*
X224560846Y-73916773D01*
X224592348Y-73923087D01*
X224612333Y-73932426D01*
X224623396Y-73945497D01*
X224628131Y-73963008D01*
X224629133Y-73985665D01*
X224629127Y-73988030D01*
X224627973Y-74008061D01*
X224623176Y-74023854D01*
X224612368Y-74035910D01*
X224593183Y-74044733D01*
X224563255Y-74050825D01*
X224520217Y-74054689D01*
X224461701Y-74056826D01*
X224385343Y-74057740D01*
X224288774Y-74057933D01*
X223998594Y-74057933D01*
X223975197Y-74028189D01*
X223970248Y-74021505D01*
X223964404Y-74010934D01*
X223959943Y-73996847D01*
X223956679Y-73976522D01*
X223954426Y-73947235D01*
X223952998Y-73906263D01*
X223952208Y-73850883D01*
X223951871Y-73778372D01*
X223951800Y-73686006D01*
X223951829Y-73620089D01*
X223952061Y-73541772D01*
X223952681Y-73481504D01*
X223953874Y-73436607D01*
X223955821Y-73404398D01*
X223958706Y-73382200D01*
X223962712Y-73367331D01*
X223968021Y-73357111D01*
X223974817Y-73348862D01*
X223979332Y-73344205D01*
X223987562Y-73337718D01*
X223998922Y-73332806D01*
X224016190Y-73329251D01*
X224042145Y-73326833D01*
X224079564Y-73325333D01*
X224131227Y-73324533D01*
X224199911Y-73324213D01*
X224288394Y-73324155D01*
X224308069Y-73324162D01*
G36*
X224308069Y-73324162D02*
G01*
X224395094Y-73324428D01*
X224462746Y-73325194D01*
X224513701Y-73326608D01*
X224550633Y-73328820D01*
X224576217Y-73331978D01*
X224593129Y-73336231D01*
X224604043Y-73341729D01*
X224614536Y-73351715D01*
X224627797Y-73382832D01*
X224626614Y-73418720D01*
X224610450Y-73450267D01*
X224608261Y-73452543D01*
X224599573Y-73458811D01*
X224586231Y-73463477D01*
X224565248Y-73466773D01*
X224533637Y-73468932D01*
X224488410Y-73470186D01*
X224426580Y-73470769D01*
X224345161Y-73470911D01*
X224098555Y-73470911D01*
X224098555Y-73628955D01*
X224260994Y-73628955D01*
X224296662Y-73629036D01*
X224352432Y-73629833D01*
X224391570Y-73631838D01*
X224418024Y-73635479D01*
X224435741Y-73641188D01*
X224448671Y-73649393D01*
X224452314Y-73652577D01*
X224470722Y-73683552D01*
X224471356Y-73719888D01*
X224453817Y-73753507D01*
X224453755Y-73753576D01*
X224444084Y-73762202D01*
X224430791Y-73768258D01*
X224410083Y-73772189D01*
X224378172Y-73774444D01*
X224331266Y-73775469D01*
X224265576Y-73775711D01*
X224097429Y-73775711D01*
X224100814Y-73840622D01*
X224104200Y-73905533D01*
X224346277Y-73908586D01*
X224371293Y-73908914D01*
X224452913Y-73910394D01*
X224515232Y-73912778D01*
X224560846Y-73916773D01*
X224592348Y-73923087D01*
X224612333Y-73932426D01*
X224623396Y-73945497D01*
X224628131Y-73963008D01*
X224629133Y-73985665D01*
X224629127Y-73988030D01*
X224627973Y-74008061D01*
X224623176Y-74023854D01*
X224612368Y-74035910D01*
X224593183Y-74044733D01*
X224563255Y-74050825D01*
X224520217Y-74054689D01*
X224461701Y-74056826D01*
X224385343Y-74057740D01*
X224288774Y-74057933D01*
X223998594Y-74057933D01*
X223975197Y-74028189D01*
X223970248Y-74021505D01*
X223964404Y-74010934D01*
X223959943Y-73996847D01*
X223956679Y-73976522D01*
X223954426Y-73947235D01*
X223952998Y-73906263D01*
X223952208Y-73850883D01*
X223951871Y-73778372D01*
X223951800Y-73686006D01*
X223951829Y-73620089D01*
X223952061Y-73541772D01*
X223952681Y-73481504D01*
X223953874Y-73436607D01*
X223955821Y-73404398D01*
X223958706Y-73382200D01*
X223962712Y-73367331D01*
X223968021Y-73357111D01*
X223974817Y-73348862D01*
X223979332Y-73344205D01*
X223987562Y-73337718D01*
X223998922Y-73332806D01*
X224016190Y-73329251D01*
X224042145Y-73326833D01*
X224079564Y-73325333D01*
X224131227Y-73324533D01*
X224199911Y-73324213D01*
X224288394Y-73324155D01*
X224308069Y-73324162D01*
G37*
X228372472Y-73347918D02*
X228376348Y-73352584D01*
X228381814Y-73362051D01*
X228386021Y-73375733D01*
X228389133Y-73396252D01*
X228391313Y-73426232D01*
X228392724Y-73468296D01*
X228393529Y-73525068D01*
X228393893Y-73599170D01*
X228393978Y-73693227D01*
X228393978Y-74014773D01*
X228367327Y-74036353D01*
X228343614Y-74051123D01*
X228320600Y-74057933D01*
X228299594Y-74052051D01*
X228273873Y-74036353D01*
X228247222Y-74014773D01*
X228247222Y-73367316D01*
X228273873Y-73345736D01*
X228305233Y-73328261D01*
X228341034Y-73327425D01*
X228372472Y-73347918D01*
G36*
X228372472Y-73347918D02*
G01*
X228376348Y-73352584D01*
X228381814Y-73362051D01*
X228386021Y-73375733D01*
X228389133Y-73396252D01*
X228391313Y-73426232D01*
X228392724Y-73468296D01*
X228393529Y-73525068D01*
X228393893Y-73599170D01*
X228393978Y-73693227D01*
X228393978Y-74014773D01*
X228367327Y-74036353D01*
X228343614Y-74051123D01*
X228320600Y-74057933D01*
X228299594Y-74052051D01*
X228273873Y-74036353D01*
X228247222Y-74014773D01*
X228247222Y-73367316D01*
X228273873Y-73345736D01*
X228305233Y-73328261D01*
X228341034Y-73327425D01*
X228372472Y-73347918D01*
G37*
X229745144Y-73329396D02*
X229776047Y-73353900D01*
X229785056Y-73367103D01*
X229792508Y-73385639D01*
X229796876Y-73411667D01*
X229798931Y-73450213D01*
X229799444Y-73506300D01*
X229799444Y-73628955D01*
X230296155Y-73628955D01*
X230296155Y-73494129D01*
X230296228Y-73458338D01*
X230296991Y-73412008D01*
X230299167Y-73381474D01*
X230303464Y-73362443D01*
X230310588Y-73350626D01*
X230321245Y-73341729D01*
X230353496Y-73326659D01*
X230388783Y-73329327D01*
X230419514Y-73353900D01*
X230424169Y-73360155D01*
X230430105Y-73370679D01*
X230434636Y-73384609D01*
X230437952Y-73404683D01*
X230440241Y-73433640D01*
X230441692Y-73474220D01*
X230442495Y-73529160D01*
X230442838Y-73601201D01*
X230442911Y-73693080D01*
X230442911Y-74002515D01*
X230415202Y-74030224D01*
X230383823Y-74052467D01*
X230350594Y-74055156D01*
X230318733Y-74035355D01*
X230310447Y-74025585D01*
X230303035Y-74009693D01*
X230298698Y-73985725D01*
X230296662Y-73948852D01*
X230296155Y-73894244D01*
X230296155Y-73775711D01*
X229799444Y-73775711D01*
X229799444Y-73891224D01*
X229799006Y-73942922D01*
X229797042Y-73977446D01*
X229792526Y-74000022D01*
X229784433Y-74015874D01*
X229771735Y-74030224D01*
X229740357Y-74052467D01*
X229707128Y-74055156D01*
X229675266Y-74035355D01*
X229669634Y-74029165D01*
X229664544Y-74020959D01*
X229660457Y-74009183D01*
X229657279Y-73991724D01*
X229654913Y-73966470D01*
X229653262Y-73931310D01*
X229652231Y-73884131D01*
X229651723Y-73822823D01*
X229651641Y-73745273D01*
X229651891Y-73649369D01*
X229652375Y-73533000D01*
X229652443Y-73518825D01*
X229653029Y-73457063D01*
X229654352Y-73413380D01*
X229656897Y-73383999D01*
X229661152Y-73365145D01*
X229667604Y-73353041D01*
X229676738Y-73343911D01*
X229710196Y-73326494D01*
X229745144Y-73329396D01*
G36*
X229745144Y-73329396D02*
G01*
X229776047Y-73353900D01*
X229785056Y-73367103D01*
X229792508Y-73385639D01*
X229796876Y-73411667D01*
X229798931Y-73450213D01*
X229799444Y-73506300D01*
X229799444Y-73628955D01*
X230296155Y-73628955D01*
X230296155Y-73494129D01*
X230296228Y-73458338D01*
X230296991Y-73412008D01*
X230299167Y-73381474D01*
X230303464Y-73362443D01*
X230310588Y-73350626D01*
X230321245Y-73341729D01*
X230353496Y-73326659D01*
X230388783Y-73329327D01*
X230419514Y-73353900D01*
X230424169Y-73360155D01*
X230430105Y-73370679D01*
X230434636Y-73384609D01*
X230437952Y-73404683D01*
X230440241Y-73433640D01*
X230441692Y-73474220D01*
X230442495Y-73529160D01*
X230442838Y-73601201D01*
X230442911Y-73693080D01*
X230442911Y-74002515D01*
X230415202Y-74030224D01*
X230383823Y-74052467D01*
X230350594Y-74055156D01*
X230318733Y-74035355D01*
X230310447Y-74025585D01*
X230303035Y-74009693D01*
X230298698Y-73985725D01*
X230296662Y-73948852D01*
X230296155Y-73894244D01*
X230296155Y-73775711D01*
X229799444Y-73775711D01*
X229799444Y-73891224D01*
X229799006Y-73942922D01*
X229797042Y-73977446D01*
X229792526Y-74000022D01*
X229784433Y-74015874D01*
X229771735Y-74030224D01*
X229740357Y-74052467D01*
X229707128Y-74055156D01*
X229675266Y-74035355D01*
X229669634Y-74029165D01*
X229664544Y-74020959D01*
X229660457Y-74009183D01*
X229657279Y-73991724D01*
X229654913Y-73966470D01*
X229653262Y-73931310D01*
X229652231Y-73884131D01*
X229651723Y-73822823D01*
X229651641Y-73745273D01*
X229651891Y-73649369D01*
X229652375Y-73533000D01*
X229652443Y-73518825D01*
X229653029Y-73457063D01*
X229654352Y-73413380D01*
X229656897Y-73383999D01*
X229661152Y-73365145D01*
X229667604Y-73353041D01*
X229676738Y-73343911D01*
X229710196Y-73326494D01*
X229745144Y-73329396D01*
G37*
X222163642Y-73328414D02*
X222246131Y-73338660D01*
X222317714Y-73356530D01*
X222374772Y-73381492D01*
X222413689Y-73413012D01*
X222415064Y-73414988D01*
X222422152Y-73440214D01*
X222426391Y-73487465D01*
X222427800Y-73556929D01*
X222426940Y-73619162D01*
X222422220Y-73666544D01*
X222410530Y-73698647D01*
X222388761Y-73718200D01*
X222353802Y-73727930D01*
X222302544Y-73730567D01*
X222231877Y-73728839D01*
X222183257Y-73725827D01*
X222133061Y-73717634D01*
X222100567Y-73703581D01*
X222083108Y-73682346D01*
X222078017Y-73652606D01*
X222078123Y-73648064D01*
X222086825Y-73613270D01*
X222110835Y-73589853D01*
X222152100Y-73576653D01*
X222212569Y-73572511D01*
X222281044Y-73572511D01*
X222281044Y-73534159D01*
X222280994Y-73525024D01*
X222278773Y-73507773D01*
X222269506Y-73497479D01*
X222248125Y-73490541D01*
X222209564Y-73483359D01*
X222204090Y-73482425D01*
X222107140Y-73472522D01*
X222017148Y-73475441D01*
X221936240Y-73490171D01*
X221866541Y-73515701D01*
X221810176Y-73551022D01*
X221769271Y-73595121D01*
X221745949Y-73646988D01*
X221742337Y-73705612D01*
X221747855Y-73734506D01*
X221774539Y-73790396D01*
X221820727Y-73836055D01*
X221885709Y-73870892D01*
X221968771Y-73894310D01*
X221993445Y-73898759D01*
X222082774Y-73909258D01*
X222162581Y-73908029D01*
X222240674Y-73895094D01*
X222275817Y-73888304D01*
X222321255Y-73887287D01*
X222352570Y-73899818D01*
X222372723Y-73926605D01*
X222379107Y-73954852D01*
X222369621Y-73986076D01*
X222360292Y-73999501D01*
X222326057Y-74023033D01*
X222273435Y-74040905D01*
X222204919Y-74052401D01*
X222123000Y-74056808D01*
X222025850Y-74052821D01*
X221919843Y-74036506D01*
X221826031Y-74008455D01*
X221747235Y-73969548D01*
X221686281Y-73920666D01*
X221660211Y-73887805D01*
X221630703Y-73838606D01*
X221605432Y-73784748D01*
X221587782Y-73733581D01*
X221581142Y-73692456D01*
X221582702Y-73672741D01*
X221595643Y-73621408D01*
X221618806Y-73564882D01*
X221648698Y-73510965D01*
X221681827Y-73467461D01*
X221692023Y-73457113D01*
X221759108Y-73405338D01*
X221839234Y-73365446D01*
X221925444Y-73341044D01*
X221980408Y-73332932D01*
X222073861Y-73326327D01*
X222163642Y-73328414D01*
G36*
X222163642Y-73328414D02*
G01*
X222246131Y-73338660D01*
X222317714Y-73356530D01*
X222374772Y-73381492D01*
X222413689Y-73413012D01*
X222415064Y-73414988D01*
X222422152Y-73440214D01*
X222426391Y-73487465D01*
X222427800Y-73556929D01*
X222426940Y-73619162D01*
X222422220Y-73666544D01*
X222410530Y-73698647D01*
X222388761Y-73718200D01*
X222353802Y-73727930D01*
X222302544Y-73730567D01*
X222231877Y-73728839D01*
X222183257Y-73725827D01*
X222133061Y-73717634D01*
X222100567Y-73703581D01*
X222083108Y-73682346D01*
X222078017Y-73652606D01*
X222078123Y-73648064D01*
X222086825Y-73613270D01*
X222110835Y-73589853D01*
X222152100Y-73576653D01*
X222212569Y-73572511D01*
X222281044Y-73572511D01*
X222281044Y-73534159D01*
X222280994Y-73525024D01*
X222278773Y-73507773D01*
X222269506Y-73497479D01*
X222248125Y-73490541D01*
X222209564Y-73483359D01*
X222204090Y-73482425D01*
X222107140Y-73472522D01*
X222017148Y-73475441D01*
X221936240Y-73490171D01*
X221866541Y-73515701D01*
X221810176Y-73551022D01*
X221769271Y-73595121D01*
X221745949Y-73646988D01*
X221742337Y-73705612D01*
X221747855Y-73734506D01*
X221774539Y-73790396D01*
X221820727Y-73836055D01*
X221885709Y-73870892D01*
X221968771Y-73894310D01*
X221993445Y-73898759D01*
X222082774Y-73909258D01*
X222162581Y-73908029D01*
X222240674Y-73895094D01*
X222275817Y-73888304D01*
X222321255Y-73887287D01*
X222352570Y-73899818D01*
X222372723Y-73926605D01*
X222379107Y-73954852D01*
X222369621Y-73986076D01*
X222360292Y-73999501D01*
X222326057Y-74023033D01*
X222273435Y-74040905D01*
X222204919Y-74052401D01*
X222123000Y-74056808D01*
X222025850Y-74052821D01*
X221919843Y-74036506D01*
X221826031Y-74008455D01*
X221747235Y-73969548D01*
X221686281Y-73920666D01*
X221660211Y-73887805D01*
X221630703Y-73838606D01*
X221605432Y-73784748D01*
X221587782Y-73733581D01*
X221581142Y-73692456D01*
X221582702Y-73672741D01*
X221595643Y-73621408D01*
X221618806Y-73564882D01*
X221648698Y-73510965D01*
X221681827Y-73467461D01*
X221692023Y-73457113D01*
X221759108Y-73405338D01*
X221839234Y-73365446D01*
X221925444Y-73341044D01*
X221980408Y-73332932D01*
X222073861Y-73326327D01*
X222163642Y-73328414D01*
G37*
X225180286Y-73324749D02*
X225215082Y-73325047D01*
X225313565Y-73328478D01*
X225394527Y-73336161D01*
X225461621Y-73348718D01*
X225518504Y-73366773D01*
X225568831Y-73390948D01*
X225572190Y-73392865D01*
X225630002Y-73429583D01*
X225672356Y-73466549D01*
X225705172Y-73510034D01*
X225734372Y-73566311D01*
X225738654Y-73575927D01*
X225761231Y-73639113D01*
X225768203Y-73694491D01*
X225759601Y-73749517D01*
X225735459Y-73811649D01*
X225734663Y-73813342D01*
X225694212Y-73882764D01*
X225643527Y-73939362D01*
X225580802Y-73983930D01*
X225504226Y-74017259D01*
X225411991Y-74040139D01*
X225302288Y-74053364D01*
X225173309Y-74057725D01*
X225169737Y-74057730D01*
X225109717Y-74057590D01*
X225067786Y-74056554D01*
X225039672Y-74053960D01*
X225021103Y-74049147D01*
X225007806Y-74041456D01*
X224995509Y-74030224D01*
X224967800Y-74002515D01*
X224967800Y-73693080D01*
X224967825Y-73631474D01*
X224968050Y-73552689D01*
X224968668Y-73491979D01*
X224969225Y-73470911D01*
X225125844Y-73470911D01*
X225125844Y-73911178D01*
X225213333Y-73910730D01*
X225280253Y-73908254D01*
X225372651Y-73897002D01*
X225451966Y-73877463D01*
X225513940Y-73850489D01*
X225544880Y-73829760D01*
X225573000Y-73799994D01*
X225596340Y-73757566D01*
X225603467Y-73741600D01*
X225615291Y-73709098D01*
X225617721Y-73684667D01*
X225612108Y-73659939D01*
X225606382Y-73644061D01*
X225573452Y-73584153D01*
X225526114Y-73538400D01*
X225462348Y-73505264D01*
X225380139Y-73483210D01*
X225377345Y-73482708D01*
X225331060Y-73476745D01*
X225274664Y-73472517D01*
X225219726Y-73470911D01*
X225125844Y-73470911D01*
X224969225Y-73470911D01*
X224969867Y-73446604D01*
X224971837Y-73413825D01*
X224974765Y-73390905D01*
X224978842Y-73375103D01*
X224984257Y-73363681D01*
X224991197Y-73353900D01*
X225014594Y-73324155D01*
X225180286Y-73324749D01*
G36*
X225180286Y-73324749D02*
G01*
X225215082Y-73325047D01*
X225313565Y-73328478D01*
X225394527Y-73336161D01*
X225461621Y-73348718D01*
X225518504Y-73366773D01*
X225568831Y-73390948D01*
X225572190Y-73392865D01*
X225630002Y-73429583D01*
X225672356Y-73466549D01*
X225705172Y-73510034D01*
X225734372Y-73566311D01*
X225738654Y-73575927D01*
X225761231Y-73639113D01*
X225768203Y-73694491D01*
X225759601Y-73749517D01*
X225735459Y-73811649D01*
X225734663Y-73813342D01*
X225694212Y-73882764D01*
X225643527Y-73939362D01*
X225580802Y-73983930D01*
X225504226Y-74017259D01*
X225411991Y-74040139D01*
X225302288Y-74053364D01*
X225173309Y-74057725D01*
X225169737Y-74057730D01*
X225109717Y-74057590D01*
X225067786Y-74056554D01*
X225039672Y-74053960D01*
X225021103Y-74049147D01*
X225007806Y-74041456D01*
X224995509Y-74030224D01*
X224967800Y-74002515D01*
X224967800Y-73693080D01*
X224967825Y-73631474D01*
X224968050Y-73552689D01*
X224968668Y-73491979D01*
X224969225Y-73470911D01*
X225125844Y-73470911D01*
X225125844Y-73911178D01*
X225213333Y-73910730D01*
X225280253Y-73908254D01*
X225372651Y-73897002D01*
X225451966Y-73877463D01*
X225513940Y-73850489D01*
X225544880Y-73829760D01*
X225573000Y-73799994D01*
X225596340Y-73757566D01*
X225603467Y-73741600D01*
X225615291Y-73709098D01*
X225617721Y-73684667D01*
X225612108Y-73659939D01*
X225606382Y-73644061D01*
X225573452Y-73584153D01*
X225526114Y-73538400D01*
X225462348Y-73505264D01*
X225380139Y-73483210D01*
X225377345Y-73482708D01*
X225331060Y-73476745D01*
X225274664Y-73472517D01*
X225219726Y-73470911D01*
X225125844Y-73470911D01*
X224969225Y-73470911D01*
X224969867Y-73446604D01*
X224971837Y-73413825D01*
X224974765Y-73390905D01*
X224978842Y-73375103D01*
X224984257Y-73363681D01*
X224991197Y-73353900D01*
X225014594Y-73324155D01*
X225180286Y-73324749D01*
G37*
X224503622Y-74851860D02*
X224651327Y-74864864D01*
X224789221Y-74889867D01*
X224922986Y-74927682D01*
X224946438Y-74936111D01*
X224994388Y-74955592D01*
X225050860Y-74980527D01*
X225112621Y-75009278D01*
X225176437Y-75040210D01*
X225239074Y-75071685D01*
X225297297Y-75102066D01*
X225347873Y-75129717D01*
X225387567Y-75153001D01*
X225413146Y-75170282D01*
X225421375Y-75179921D01*
X225419924Y-75183016D01*
X225408750Y-75202921D01*
X225387866Y-75238580D01*
X225358735Y-75287541D01*
X225322819Y-75347354D01*
X225281580Y-75415567D01*
X225236483Y-75489729D01*
X225055215Y-75786992D01*
X225008685Y-75742461D01*
X224917277Y-75664135D01*
X224803666Y-75589561D01*
X224685878Y-75535526D01*
X224565441Y-75502710D01*
X224443883Y-75491789D01*
X224402415Y-75493132D01*
X224284920Y-75511388D01*
X224174911Y-75550383D01*
X224073570Y-75609330D01*
X223982079Y-75687443D01*
X223901620Y-75783936D01*
X223833373Y-75898022D01*
X223817092Y-75932276D01*
X223771018Y-76055760D01*
X223735894Y-76194082D01*
X223711803Y-76343439D01*
X223698827Y-76500027D01*
X223697051Y-76660044D01*
X223706557Y-76819686D01*
X223727428Y-76975150D01*
X223759748Y-77122634D01*
X223803601Y-77258333D01*
X223841018Y-77344924D01*
X223905815Y-77458312D01*
X223981228Y-77551930D01*
X224067582Y-77626041D01*
X224165205Y-77680906D01*
X224274423Y-77716788D01*
X224395561Y-77733949D01*
X224464962Y-77735120D01*
X224587832Y-77720859D01*
X224703336Y-77685759D01*
X224810047Y-77630318D01*
X224906536Y-77555036D01*
X224922280Y-77540560D01*
X224952850Y-77514038D01*
X224975191Y-77496862D01*
X224985309Y-77492213D01*
X224987294Y-77494403D01*
X225001759Y-77513279D01*
X225025600Y-77546603D01*
X225056971Y-77591620D01*
X225094026Y-77645575D01*
X225134917Y-77705715D01*
X225177798Y-77769282D01*
X225220822Y-77833524D01*
X225262143Y-77895685D01*
X225299914Y-77953009D01*
X225332288Y-78002743D01*
X225357418Y-78042132D01*
X225373458Y-78068420D01*
X225378561Y-78078853D01*
X225373950Y-78083059D01*
X225354733Y-78088067D01*
X225345162Y-78090614D01*
X225317191Y-78101751D01*
X225275552Y-78120198D01*
X225224005Y-78144275D01*
X225166310Y-78172301D01*
X225155043Y-78177846D01*
X224977313Y-78257111D01*
X224807510Y-78316615D01*
X224643570Y-78356755D01*
X224483429Y-78377929D01*
X224325023Y-78380534D01*
X224166289Y-78364967D01*
X224070732Y-78347477D01*
X223906442Y-78302436D01*
X223752411Y-78239344D01*
X223606491Y-78157085D01*
X223466534Y-78054543D01*
X223330392Y-77930601D01*
X223286527Y-77885339D01*
X223174242Y-77753135D01*
X223081028Y-77615168D01*
X223004281Y-77467250D01*
X222941397Y-77305197D01*
X222937580Y-77293609D01*
X222887493Y-77107608D01*
X222854101Y-76911479D01*
X222837416Y-76709432D01*
X222837449Y-76505675D01*
X222854209Y-76304419D01*
X222887708Y-76109872D01*
X222937956Y-75926244D01*
X222981810Y-75808947D01*
X223059652Y-75646049D01*
X223153172Y-75492134D01*
X223260178Y-75350329D01*
X223378481Y-75223761D01*
X223505889Y-75115559D01*
X223583394Y-75062880D01*
X223710275Y-74993250D01*
X223847757Y-74934532D01*
X223989284Y-74889413D01*
X224128298Y-74860578D01*
X224142403Y-74858894D01*
X224185847Y-74855566D01*
X224243277Y-74852725D01*
X224308878Y-74850627D01*
X224376833Y-74849532D01*
X224503622Y-74851860D01*
G36*
X224503622Y-74851860D02*
G01*
X224651327Y-74864864D01*
X224789221Y-74889867D01*
X224922986Y-74927682D01*
X224946438Y-74936111D01*
X224994388Y-74955592D01*
X225050860Y-74980527D01*
X225112621Y-75009278D01*
X225176437Y-75040210D01*
X225239074Y-75071685D01*
X225297297Y-75102066D01*
X225347873Y-75129717D01*
X225387567Y-75153001D01*
X225413146Y-75170282D01*
X225421375Y-75179921D01*
X225419924Y-75183016D01*
X225408750Y-75202921D01*
X225387866Y-75238580D01*
X225358735Y-75287541D01*
X225322819Y-75347354D01*
X225281580Y-75415567D01*
X225236483Y-75489729D01*
X225055215Y-75786992D01*
X225008685Y-75742461D01*
X224917277Y-75664135D01*
X224803666Y-75589561D01*
X224685878Y-75535526D01*
X224565441Y-75502710D01*
X224443883Y-75491789D01*
X224402415Y-75493132D01*
X224284920Y-75511388D01*
X224174911Y-75550383D01*
X224073570Y-75609330D01*
X223982079Y-75687443D01*
X223901620Y-75783936D01*
X223833373Y-75898022D01*
X223817092Y-75932276D01*
X223771018Y-76055760D01*
X223735894Y-76194082D01*
X223711803Y-76343439D01*
X223698827Y-76500027D01*
X223697051Y-76660044D01*
X223706557Y-76819686D01*
X223727428Y-76975150D01*
X223759748Y-77122634D01*
X223803601Y-77258333D01*
X223841018Y-77344924D01*
X223905815Y-77458312D01*
X223981228Y-77551930D01*
X224067582Y-77626041D01*
X224165205Y-77680906D01*
X224274423Y-77716788D01*
X224395561Y-77733949D01*
X224464962Y-77735120D01*
X224587832Y-77720859D01*
X224703336Y-77685759D01*
X224810047Y-77630318D01*
X224906536Y-77555036D01*
X224922280Y-77540560D01*
X224952850Y-77514038D01*
X224975191Y-77496862D01*
X224985309Y-77492213D01*
X224987294Y-77494403D01*
X225001759Y-77513279D01*
X225025600Y-77546603D01*
X225056971Y-77591620D01*
X225094026Y-77645575D01*
X225134917Y-77705715D01*
X225177798Y-77769282D01*
X225220822Y-77833524D01*
X225262143Y-77895685D01*
X225299914Y-77953009D01*
X225332288Y-78002743D01*
X225357418Y-78042132D01*
X225373458Y-78068420D01*
X225378561Y-78078853D01*
X225373950Y-78083059D01*
X225354733Y-78088067D01*
X225345162Y-78090614D01*
X225317191Y-78101751D01*
X225275552Y-78120198D01*
X225224005Y-78144275D01*
X225166310Y-78172301D01*
X225155043Y-78177846D01*
X224977313Y-78257111D01*
X224807510Y-78316615D01*
X224643570Y-78356755D01*
X224483429Y-78377929D01*
X224325023Y-78380534D01*
X224166289Y-78364967D01*
X224070732Y-78347477D01*
X223906442Y-78302436D01*
X223752411Y-78239344D01*
X223606491Y-78157085D01*
X223466534Y-78054543D01*
X223330392Y-77930601D01*
X223286527Y-77885339D01*
X223174242Y-77753135D01*
X223081028Y-77615168D01*
X223004281Y-77467250D01*
X222941397Y-77305197D01*
X222937580Y-77293609D01*
X222887493Y-77107608D01*
X222854101Y-76911479D01*
X222837416Y-76709432D01*
X222837449Y-76505675D01*
X222854209Y-76304419D01*
X222887708Y-76109872D01*
X222937956Y-75926244D01*
X222981810Y-75808947D01*
X223059652Y-75646049D01*
X223153172Y-75492134D01*
X223260178Y-75350329D01*
X223378481Y-75223761D01*
X223505889Y-75115559D01*
X223583394Y-75062880D01*
X223710275Y-74993250D01*
X223847757Y-74934532D01*
X223989284Y-74889413D01*
X224128298Y-74860578D01*
X224142403Y-74858894D01*
X224185847Y-74855566D01*
X224243277Y-74852725D01*
X224308878Y-74850627D01*
X224376833Y-74849532D01*
X224503622Y-74851860D01*
G37*
X221231178Y-73346733D02*
X221236484Y-73352602D01*
X221241934Y-73361686D01*
X221246100Y-73375027D01*
X221249154Y-73395243D01*
X221251268Y-73424951D01*
X221252614Y-73466768D01*
X221253362Y-73523311D01*
X221253686Y-73597198D01*
X221253755Y-73691044D01*
X221253716Y-73766706D01*
X221253461Y-73844615D01*
X221252817Y-73904625D01*
X221251613Y-73949352D01*
X221249676Y-73981415D01*
X221246836Y-74003429D01*
X221242921Y-74018013D01*
X221237758Y-74027782D01*
X221231178Y-74035355D01*
X221201994Y-74054377D01*
X221168863Y-74053537D01*
X221134709Y-74030224D01*
X221107000Y-74002515D01*
X221107000Y-73689463D01*
X221107041Y-73605433D01*
X221107299Y-73531211D01*
X221107970Y-73474459D01*
X221109248Y-73432488D01*
X221111327Y-73402611D01*
X221114401Y-73382139D01*
X221118666Y-73368386D01*
X221124316Y-73358663D01*
X221131545Y-73350283D01*
X221163009Y-73328819D01*
X221198174Y-73327053D01*
X221231178Y-73346733D01*
G36*
X221231178Y-73346733D02*
G01*
X221236484Y-73352602D01*
X221241934Y-73361686D01*
X221246100Y-73375027D01*
X221249154Y-73395243D01*
X221251268Y-73424951D01*
X221252614Y-73466768D01*
X221253362Y-73523311D01*
X221253686Y-73597198D01*
X221253755Y-73691044D01*
X221253716Y-73766706D01*
X221253461Y-73844615D01*
X221252817Y-73904625D01*
X221251613Y-73949352D01*
X221249676Y-73981415D01*
X221246836Y-74003429D01*
X221242921Y-74018013D01*
X221237758Y-74027782D01*
X221231178Y-74035355D01*
X221201994Y-74054377D01*
X221168863Y-74053537D01*
X221134709Y-74030224D01*
X221107000Y-74002515D01*
X221107000Y-73689463D01*
X221107041Y-73605433D01*
X221107299Y-73531211D01*
X221107970Y-73474459D01*
X221109248Y-73432488D01*
X221111327Y-73402611D01*
X221114401Y-73382139D01*
X221118666Y-73368386D01*
X221124316Y-73358663D01*
X221131545Y-73350283D01*
X221163009Y-73328819D01*
X221198174Y-73327053D01*
X221231178Y-73346733D01*
G37*
X226406925Y-74857341D02*
X226490278Y-74867334D01*
X226559349Y-74882022D01*
X226645813Y-74912251D01*
X226755714Y-74966943D01*
X226853044Y-75034457D01*
X226915133Y-75085444D01*
X226918395Y-74989378D01*
X226921657Y-74893311D01*
X227344550Y-74893311D01*
X227355457Y-74893314D01*
X227449944Y-74893620D01*
X227536669Y-74894384D01*
X227613163Y-74895549D01*
X227676957Y-74897058D01*
X227725582Y-74898853D01*
X227756567Y-74900879D01*
X227767444Y-74903078D01*
X227767422Y-74903537D01*
X227760386Y-74919090D01*
X227744566Y-74941929D01*
X227740266Y-74947362D01*
X227729223Y-74961394D01*
X227719689Y-74974814D01*
X227711539Y-74989278D01*
X227704648Y-75006444D01*
X227698889Y-75027966D01*
X227694138Y-75055502D01*
X227690269Y-75090708D01*
X227687156Y-75135240D01*
X227684675Y-75190754D01*
X227682700Y-75258907D01*
X227681106Y-75341355D01*
X227679766Y-75439754D01*
X227678556Y-75555761D01*
X227677351Y-75691032D01*
X227676025Y-75847222D01*
X227674772Y-75989988D01*
X227673349Y-76135058D01*
X227671824Y-76260973D01*
X227670067Y-76369564D01*
X227667949Y-76462666D01*
X227665340Y-76542109D01*
X227662110Y-76609727D01*
X227658131Y-76667351D01*
X227653272Y-76716815D01*
X227647403Y-76759950D01*
X227640396Y-76798590D01*
X227632120Y-76834566D01*
X227622446Y-76869711D01*
X227611244Y-76905858D01*
X227598384Y-76944839D01*
X227582910Y-76987909D01*
X227540006Y-77080129D01*
X227486265Y-77159901D01*
X227417424Y-77234035D01*
X227339815Y-77297595D01*
X227235239Y-77359275D01*
X227115756Y-77406798D01*
X226980492Y-77440433D01*
X226828574Y-77460448D01*
X226659128Y-77467111D01*
X226601110Y-77466713D01*
X226535602Y-77464665D01*
X226474307Y-77460296D01*
X226412903Y-77452965D01*
X226347068Y-77442031D01*
X226272480Y-77426853D01*
X226184816Y-77406791D01*
X226079755Y-77381203D01*
X226051194Y-77374180D01*
X225975946Y-77356224D01*
X225905612Y-77340180D01*
X225844433Y-77326972D01*
X225796646Y-77317526D01*
X225766489Y-77312769D01*
X225738217Y-77309090D01*
X225711940Y-77303813D01*
X225701941Y-77299058D01*
X225705048Y-77290219D01*
X225715806Y-77262928D01*
X225733136Y-77220094D01*
X225755874Y-77164575D01*
X225782853Y-77099228D01*
X225812910Y-77026911D01*
X225819507Y-77011121D01*
X225858093Y-76920516D01*
X225889232Y-76850783D01*
X225913083Y-76801595D01*
X225929802Y-76772626D01*
X225939546Y-76763548D01*
X225947234Y-76765595D01*
X225973585Y-76775240D01*
X226012018Y-76790810D01*
X226057178Y-76810185D01*
X226151707Y-76848186D01*
X226288520Y-76889220D01*
X226429711Y-76914388D01*
X226467686Y-76918389D01*
X226570941Y-76920553D01*
X226658048Y-76907378D01*
X226729871Y-76878244D01*
X226787269Y-76832534D01*
X226831104Y-76769628D01*
X226862238Y-76688908D01*
X226881530Y-76589755D01*
X226888950Y-76530776D01*
X226727064Y-76537555D01*
X226600505Y-76539187D01*
X226449049Y-76532806D01*
X226300604Y-76518223D01*
X226164422Y-76496118D01*
X226099755Y-76481179D01*
X225967510Y-76438259D01*
X225845238Y-76381660D01*
X225735315Y-76312983D01*
X225640117Y-76233830D01*
X225562020Y-76145804D01*
X225503401Y-76050507D01*
X225479405Y-75998136D01*
X225453768Y-75927410D01*
X225437522Y-75856188D01*
X225429178Y-75777288D01*
X225427310Y-75686718D01*
X226187248Y-75686718D01*
X226194480Y-75758307D01*
X226219204Y-75821355D01*
X226263751Y-75879242D01*
X226318681Y-75926192D01*
X226391106Y-75966039D01*
X226477660Y-75993737D01*
X226580330Y-76009904D01*
X226701106Y-76015158D01*
X226709993Y-76015143D01*
X226765340Y-76014345D01*
X226812264Y-76012512D01*
X226846047Y-76009889D01*
X226861972Y-76006726D01*
X226866057Y-76000259D01*
X226870428Y-75978125D01*
X226873396Y-75939012D01*
X226875086Y-75881061D01*
X226875622Y-75802414D01*
X226875622Y-75606538D01*
X226830952Y-75550027D01*
X226818215Y-75534788D01*
X226771396Y-75492156D01*
X226710745Y-75456328D01*
X226700103Y-75451150D01*
X226661324Y-75434255D01*
X226626308Y-75424091D01*
X226586278Y-75418675D01*
X226532459Y-75416022D01*
X226514352Y-75415617D01*
X226438989Y-75418460D01*
X226378257Y-75430380D01*
X226326548Y-75452963D01*
X226278254Y-75487789D01*
X226273197Y-75492202D01*
X226224728Y-75547840D01*
X226196541Y-75611667D01*
X226187248Y-75686718D01*
X225427310Y-75686718D01*
X225427245Y-75683533D01*
X225427739Y-75649637D01*
X225431368Y-75574798D01*
X225438978Y-75512599D01*
X225451312Y-75456016D01*
X225495687Y-75329924D01*
X225558600Y-75215321D01*
X225638762Y-75114432D01*
X225735260Y-75028076D01*
X225847178Y-74957068D01*
X225973603Y-74902224D01*
X226113622Y-74864362D01*
X226149851Y-74858649D01*
X226228845Y-74852687D01*
X226317159Y-74852354D01*
X226406925Y-74857341D01*
G36*
X226406925Y-74857341D02*
G01*
X226490278Y-74867334D01*
X226559349Y-74882022D01*
X226645813Y-74912251D01*
X226755714Y-74966943D01*
X226853044Y-75034457D01*
X226915133Y-75085444D01*
X226918395Y-74989378D01*
X226921657Y-74893311D01*
X227344550Y-74893311D01*
X227355457Y-74893314D01*
X227449944Y-74893620D01*
X227536669Y-74894384D01*
X227613163Y-74895549D01*
X227676957Y-74897058D01*
X227725582Y-74898853D01*
X227756567Y-74900879D01*
X227767444Y-74903078D01*
X227767422Y-74903537D01*
X227760386Y-74919090D01*
X227744566Y-74941929D01*
X227740266Y-74947362D01*
X227729223Y-74961394D01*
X227719689Y-74974814D01*
X227711539Y-74989278D01*
X227704648Y-75006444D01*
X227698889Y-75027966D01*
X227694138Y-75055502D01*
X227690269Y-75090708D01*
X227687156Y-75135240D01*
X227684675Y-75190754D01*
X227682700Y-75258907D01*
X227681106Y-75341355D01*
X227679766Y-75439754D01*
X227678556Y-75555761D01*
X227677351Y-75691032D01*
X227676025Y-75847222D01*
X227674772Y-75989988D01*
X227673349Y-76135058D01*
X227671824Y-76260973D01*
X227670067Y-76369564D01*
X227667949Y-76462666D01*
X227665340Y-76542109D01*
X227662110Y-76609727D01*
X227658131Y-76667351D01*
X227653272Y-76716815D01*
X227647403Y-76759950D01*
X227640396Y-76798590D01*
X227632120Y-76834566D01*
X227622446Y-76869711D01*
X227611244Y-76905858D01*
X227598384Y-76944839D01*
X227582910Y-76987909D01*
X227540006Y-77080129D01*
X227486265Y-77159901D01*
X227417424Y-77234035D01*
X227339815Y-77297595D01*
X227235239Y-77359275D01*
X227115756Y-77406798D01*
X226980492Y-77440433D01*
X226828574Y-77460448D01*
X226659128Y-77467111D01*
X226601110Y-77466713D01*
X226535602Y-77464665D01*
X226474307Y-77460296D01*
X226412903Y-77452965D01*
X226347068Y-77442031D01*
X226272480Y-77426853D01*
X226184816Y-77406791D01*
X226079755Y-77381203D01*
X226051194Y-77374180D01*
X225975946Y-77356224D01*
X225905612Y-77340180D01*
X225844433Y-77326972D01*
X225796646Y-77317526D01*
X225766489Y-77312769D01*
X225738217Y-77309090D01*
X225711940Y-77303813D01*
X225701941Y-77299058D01*
X225705048Y-77290219D01*
X225715806Y-77262928D01*
X225733136Y-77220094D01*
X225755874Y-77164575D01*
X225782853Y-77099228D01*
X225812910Y-77026911D01*
X225819507Y-77011121D01*
X225858093Y-76920516D01*
X225889232Y-76850783D01*
X225913083Y-76801595D01*
X225929802Y-76772626D01*
X225939546Y-76763548D01*
X225947234Y-76765595D01*
X225973585Y-76775240D01*
X226012018Y-76790810D01*
X226057178Y-76810185D01*
X226151707Y-76848186D01*
X226288520Y-76889220D01*
X226429711Y-76914388D01*
X226467686Y-76918389D01*
X226570941Y-76920553D01*
X226658048Y-76907378D01*
X226729871Y-76878244D01*
X226787269Y-76832534D01*
X226831104Y-76769628D01*
X226862238Y-76688908D01*
X226881530Y-76589755D01*
X226888950Y-76530776D01*
X226727064Y-76537555D01*
X226600505Y-76539187D01*
X226449049Y-76532806D01*
X226300604Y-76518223D01*
X226164422Y-76496118D01*
X226099755Y-76481179D01*
X225967510Y-76438259D01*
X225845238Y-76381660D01*
X225735315Y-76312983D01*
X225640117Y-76233830D01*
X225562020Y-76145804D01*
X225503401Y-76050507D01*
X225479405Y-75998136D01*
X225453768Y-75927410D01*
X225437522Y-75856188D01*
X225429178Y-75777288D01*
X225427310Y-75686718D01*
X226187248Y-75686718D01*
X226194480Y-75758307D01*
X226219204Y-75821355D01*
X226263751Y-75879242D01*
X226318681Y-75926192D01*
X226391106Y-75966039D01*
X226477660Y-75993737D01*
X226580330Y-76009904D01*
X226701106Y-76015158D01*
X226709993Y-76015143D01*
X226765340Y-76014345D01*
X226812264Y-76012512D01*
X226846047Y-76009889D01*
X226861972Y-76006726D01*
X226866057Y-76000259D01*
X226870428Y-75978125D01*
X226873396Y-75939012D01*
X226875086Y-75881061D01*
X226875622Y-75802414D01*
X226875622Y-75606538D01*
X226830952Y-75550027D01*
X226818215Y-75534788D01*
X226771396Y-75492156D01*
X226710745Y-75456328D01*
X226700103Y-75451150D01*
X226661324Y-75434255D01*
X226626308Y-75424091D01*
X226586278Y-75418675D01*
X226532459Y-75416022D01*
X226514352Y-75415617D01*
X226438989Y-75418460D01*
X226378257Y-75430380D01*
X226326548Y-75452963D01*
X226278254Y-75487789D01*
X226273197Y-75492202D01*
X226224728Y-75547840D01*
X226196541Y-75611667D01*
X226187248Y-75686718D01*
X225427310Y-75686718D01*
X225427245Y-75683533D01*
X225427739Y-75649637D01*
X225431368Y-75574798D01*
X225438978Y-75512599D01*
X225451312Y-75456016D01*
X225495687Y-75329924D01*
X225558600Y-75215321D01*
X225638762Y-75114432D01*
X225735260Y-75028076D01*
X225847178Y-74957068D01*
X225973603Y-74902224D01*
X226113622Y-74864362D01*
X226149851Y-74858649D01*
X226228845Y-74852687D01*
X226317159Y-74852354D01*
X226406925Y-74857341D01*
G37*
X220448256Y-73328259D02*
X220528308Y-73336265D01*
X220593487Y-73350797D01*
X220647183Y-73372851D01*
X220692784Y-73403424D01*
X220733677Y-73443514D01*
X220753798Y-73469741D01*
X220765424Y-73499288D01*
X220768333Y-73539005D01*
X220768192Y-73550974D01*
X220764319Y-73583655D01*
X220751935Y-73610181D01*
X220726770Y-73641029D01*
X220705558Y-73663169D01*
X220679162Y-73685715D01*
X220649445Y-73704083D01*
X220613215Y-73719339D01*
X220567283Y-73732551D01*
X220508456Y-73744786D01*
X220433544Y-73757111D01*
X220339355Y-73770594D01*
X220294043Y-73777604D01*
X220226089Y-73792163D01*
X220176953Y-73808663D01*
X220147386Y-73826561D01*
X220138136Y-73845315D01*
X220149952Y-73864385D01*
X220183584Y-73883229D01*
X220186630Y-73884443D01*
X220232989Y-73896521D01*
X220295639Y-73904721D01*
X220369073Y-73908881D01*
X220447783Y-73908839D01*
X220526261Y-73904431D01*
X220599000Y-73895495D01*
X220602927Y-73894846D01*
X220651743Y-73887139D01*
X220683995Y-73883527D01*
X220704992Y-73884124D01*
X220720046Y-73889046D01*
X220734466Y-73898404D01*
X220735636Y-73899275D01*
X220760153Y-73929649D01*
X220764946Y-73965150D01*
X220749140Y-73999731D01*
X220744594Y-74004187D01*
X220714980Y-74019327D01*
X220667998Y-74032450D01*
X220607694Y-74043250D01*
X220538112Y-74051419D01*
X220463297Y-74056649D01*
X220387294Y-74058633D01*
X220314147Y-74057064D01*
X220247900Y-74051634D01*
X220192600Y-74042036D01*
X220141717Y-74027175D01*
X220070405Y-73994042D01*
X220019248Y-73951360D01*
X219988425Y-73899295D01*
X219978111Y-73838017D01*
X219979048Y-73806768D01*
X219984840Y-73781971D01*
X219999647Y-73760301D01*
X220027620Y-73732951D01*
X220035598Y-73725622D01*
X220059308Y-73704719D01*
X220081702Y-73687749D01*
X220105735Y-73673795D01*
X220134363Y-73661944D01*
X220170540Y-73651280D01*
X220217220Y-73640889D01*
X220277359Y-73629854D01*
X220353910Y-73617262D01*
X220449829Y-73602196D01*
X220468192Y-73599162D01*
X220530522Y-73585542D01*
X220575740Y-73569808D01*
X220602024Y-73552737D01*
X220607553Y-73535103D01*
X220604932Y-73530832D01*
X220587000Y-73515767D01*
X220558874Y-73499133D01*
X220546074Y-73493143D01*
X220524776Y-73485950D01*
X220498390Y-73481173D01*
X220462546Y-73478354D01*
X220412872Y-73477036D01*
X220345000Y-73476763D01*
X220327215Y-73476836D01*
X220259594Y-73477947D01*
X220194655Y-73480172D01*
X220139030Y-73483238D01*
X220099349Y-73486873D01*
X220063838Y-73490941D01*
X220034585Y-73491724D01*
X220015685Y-73487124D01*
X220000571Y-73476449D01*
X219996915Y-73472856D01*
X219980573Y-73441082D01*
X219981893Y-73405428D01*
X220000850Y-73374810D01*
X220021220Y-73363204D01*
X220057204Y-73350509D01*
X220099628Y-73340459D01*
X220103078Y-73339860D01*
X220145748Y-73334644D01*
X220203134Y-73330270D01*
X220268151Y-73327182D01*
X220333711Y-73325823D01*
X220349943Y-73325782D01*
X220448256Y-73328259D01*
G36*
X220448256Y-73328259D02*
G01*
X220528308Y-73336265D01*
X220593487Y-73350797D01*
X220647183Y-73372851D01*
X220692784Y-73403424D01*
X220733677Y-73443514D01*
X220753798Y-73469741D01*
X220765424Y-73499288D01*
X220768333Y-73539005D01*
X220768192Y-73550974D01*
X220764319Y-73583655D01*
X220751935Y-73610181D01*
X220726770Y-73641029D01*
X220705558Y-73663169D01*
X220679162Y-73685715D01*
X220649445Y-73704083D01*
X220613215Y-73719339D01*
X220567283Y-73732551D01*
X220508456Y-73744786D01*
X220433544Y-73757111D01*
X220339355Y-73770594D01*
X220294043Y-73777604D01*
X220226089Y-73792163D01*
X220176953Y-73808663D01*
X220147386Y-73826561D01*
X220138136Y-73845315D01*
X220149952Y-73864385D01*
X220183584Y-73883229D01*
X220186630Y-73884443D01*
X220232989Y-73896521D01*
X220295639Y-73904721D01*
X220369073Y-73908881D01*
X220447783Y-73908839D01*
X220526261Y-73904431D01*
X220599000Y-73895495D01*
X220602927Y-73894846D01*
X220651743Y-73887139D01*
X220683995Y-73883527D01*
X220704992Y-73884124D01*
X220720046Y-73889046D01*
X220734466Y-73898404D01*
X220735636Y-73899275D01*
X220760153Y-73929649D01*
X220764946Y-73965150D01*
X220749140Y-73999731D01*
X220744594Y-74004187D01*
X220714980Y-74019327D01*
X220667998Y-74032450D01*
X220607694Y-74043250D01*
X220538112Y-74051419D01*
X220463297Y-74056649D01*
X220387294Y-74058633D01*
X220314147Y-74057064D01*
X220247900Y-74051634D01*
X220192600Y-74042036D01*
X220141717Y-74027175D01*
X220070405Y-73994042D01*
X220019248Y-73951360D01*
X219988425Y-73899295D01*
X219978111Y-73838017D01*
X219979048Y-73806768D01*
X219984840Y-73781971D01*
X219999647Y-73760301D01*
X220027620Y-73732951D01*
X220035598Y-73725622D01*
X220059308Y-73704719D01*
X220081702Y-73687749D01*
X220105735Y-73673795D01*
X220134363Y-73661944D01*
X220170540Y-73651280D01*
X220217220Y-73640889D01*
X220277359Y-73629854D01*
X220353910Y-73617262D01*
X220449829Y-73602196D01*
X220468192Y-73599162D01*
X220530522Y-73585542D01*
X220575740Y-73569808D01*
X220602024Y-73552737D01*
X220607553Y-73535103D01*
X220604932Y-73530832D01*
X220587000Y-73515767D01*
X220558874Y-73499133D01*
X220546074Y-73493143D01*
X220524776Y-73485950D01*
X220498390Y-73481173D01*
X220462546Y-73478354D01*
X220412872Y-73477036D01*
X220345000Y-73476763D01*
X220327215Y-73476836D01*
X220259594Y-73477947D01*
X220194655Y-73480172D01*
X220139030Y-73483238D01*
X220099349Y-73486873D01*
X220063838Y-73490941D01*
X220034585Y-73491724D01*
X220015685Y-73487124D01*
X220000571Y-73476449D01*
X219996915Y-73472856D01*
X219980573Y-73441082D01*
X219981893Y-73405428D01*
X220000850Y-73374810D01*
X220021220Y-73363204D01*
X220057204Y-73350509D01*
X220099628Y-73340459D01*
X220103078Y-73339860D01*
X220145748Y-73334644D01*
X220203134Y-73330270D01*
X220268151Y-73327182D01*
X220333711Y-73325823D01*
X220349943Y-73325782D01*
X220448256Y-73328259D01*
G37*
D14*
X198120000Y-107152000D02*
X197320000Y-107152000D01*
X198120000Y-110272000D02*
X196320000Y-110272000D01*
X198120000Y-110272000D02*
X198920000Y-110272000D01*
X198120000Y-107152000D02*
X198920000Y-107152000D01*
D10*
X205899000Y-110162000D02*
X207099000Y-110162000D01*
X207099000Y-110162000D02*
X207099000Y-107262000D01*
X207099000Y-107262000D02*
X205899000Y-107262000D01*
X205899000Y-107262000D02*
X205899000Y-110162000D01*
X204649000Y-110212000D02*
X205549000Y-110212000D01*
D14*
X192276000Y-117632267D02*
X192276000Y-117289733D01*
X193296000Y-117632267D02*
X193296000Y-117289733D01*
X196340000Y-117632267D02*
X196340000Y-117289733D01*
X197360000Y-117632267D02*
X197360000Y-117289733D01*
X192334335Y-114194000D02*
X192102665Y-114194000D01*
X192334335Y-114914000D02*
X192102665Y-114914000D01*
X192334335Y-120036000D02*
X192102665Y-120036000D01*
X192334335Y-120756000D02*
X192102665Y-120756000D01*
X196398335Y-114194000D02*
X196166665Y-114194000D01*
X196398335Y-114914000D02*
X196166665Y-114914000D01*
X196398335Y-120036000D02*
X196166665Y-120036000D01*
X196398335Y-120756000D02*
X196166665Y-120756000D01*
X210161000Y-109276335D02*
X210161000Y-109044665D01*
X209441000Y-109276335D02*
X209441000Y-109044665D01*
X201401000Y-109335835D02*
X201401000Y-109104165D01*
X200681000Y-109335835D02*
X200681000Y-109104165D01*
X195305000Y-109462835D02*
X195305000Y-109231165D01*
X194585000Y-109462835D02*
X194585000Y-109231165D01*
X203557000Y-109395335D02*
X203557000Y-109163665D01*
X202837000Y-109395335D02*
X202837000Y-109163665D01*
%LPC*%
D15*
X192024000Y-103674500D03*
D16*
X192024000Y-111294500D03*
D17*
X236270800Y-91846400D03*
D18*
X241350800Y-96926400D03*
X241350800Y-86766400D03*
D17*
X236270800Y-89306400D03*
D19*
X196982500Y-109662000D03*
X196982500Y-108712000D03*
X196982500Y-107762000D03*
X199257500Y-107762000D03*
X199257500Y-109662000D03*
D15*
X192024000Y-123698000D03*
D16*
X192024000Y-131318000D03*
D17*
X236220000Y-118872000D03*
D18*
X241300000Y-123952000D03*
X241300000Y-113792000D03*
D17*
X236220000Y-116332000D03*
D20*
X180340000Y-131318000D03*
D21*
X180340000Y-128778000D03*
X180340000Y-126238000D03*
X180340000Y-123698000D03*
X180340000Y-121158000D03*
X180340000Y-118618000D03*
X180340000Y-116078000D03*
X180340000Y-113538000D03*
X180340000Y-110998000D03*
X180340000Y-108458000D03*
X180340000Y-105918000D03*
X180340000Y-103378000D03*
X180340000Y-100838000D03*
X180340000Y-98298000D03*
X180340000Y-95758000D03*
D20*
X229870000Y-69215500D03*
D21*
X227330000Y-69215500D03*
X224790000Y-69215500D03*
X222250000Y-69215500D03*
X219710000Y-69215500D03*
X217170000Y-69215500D03*
X214630000Y-69215500D03*
X212090000Y-69215500D03*
X209550000Y-69215500D03*
X207010000Y-69215500D03*
X204470000Y-69215500D03*
X201930000Y-69215500D03*
X199390000Y-69215500D03*
X196850000Y-69215500D03*
X194310000Y-69215500D03*
D20*
X177793200Y-131328000D03*
D21*
X177793200Y-128788000D03*
X177793200Y-126248000D03*
X177793200Y-123708000D03*
X177793200Y-121168000D03*
X177793200Y-118628000D03*
X177793200Y-116088000D03*
X177793200Y-113548000D03*
X177793200Y-111008000D03*
X177793200Y-108468000D03*
X177793200Y-105928000D03*
X177793200Y-103388000D03*
X177793200Y-100848000D03*
X177793200Y-98308000D03*
X177793200Y-95768000D03*
X194310000Y-66675000D03*
X196850000Y-66675000D03*
X199390000Y-66675000D03*
X201930000Y-66675000D03*
X204470000Y-66675000D03*
X207010000Y-66675000D03*
X209550000Y-66675000D03*
X212090000Y-66675000D03*
X214630000Y-66675000D03*
X217170000Y-66675000D03*
X219710000Y-66675000D03*
X222250000Y-66675000D03*
X224790000Y-66675000D03*
X227330000Y-66675000D03*
D20*
X229870000Y-66675000D03*
D22*
X180340000Y-76200000D03*
D23*
X177800000Y-71120000D03*
X187960000Y-71120000D03*
D22*
X182880000Y-76200000D03*
X241300000Y-76200000D03*
D23*
X246380000Y-71120000D03*
X236220000Y-71120000D03*
D22*
X238760000Y-76200000D03*
D24*
X205099000Y-109662000D03*
X205099000Y-108712000D03*
X205099000Y-107762000D03*
X207899000Y-107762000D03*
X207899000Y-109662000D03*
D25*
X192786000Y-118336000D03*
X192786000Y-116586000D03*
X196850000Y-118336000D03*
X196850000Y-116586000D03*
D26*
X192786000Y-114554000D03*
X191651000Y-114554000D03*
X192786000Y-120396000D03*
X191651000Y-120396000D03*
X196850000Y-114554000D03*
X195715000Y-114554000D03*
X196850000Y-120396000D03*
X195715000Y-120396000D03*
D27*
X209801000Y-109728000D03*
X209801000Y-108593000D03*
X201041000Y-109787500D03*
X201041000Y-108652500D03*
X194945000Y-109914500D03*
X194945000Y-108779500D03*
X203197000Y-109847000D03*
X203197000Y-108712000D03*
%LPD*%
M02*
