G04 #@! TF.GenerationSoftware,KiCad,Pcbnew,7.0.7*
G04 #@! TF.CreationDate,2023-10-29T13:55:44+00:00*
G04 #@! TF.ProjectId,AD3 Front End Amplifier,41443320-4672-46f6-9e74-20456e642041,rev?*
G04 #@! TF.SameCoordinates,Original*
G04 #@! TF.FileFunction,Copper,L3,Inr*
G04 #@! TF.FilePolarity,Positive*
%FSLAX46Y46*%
G04 Gerber Fmt 4.6, Leading zero omitted, Abs format (unit mm)*
G04 Created by KiCad (PCBNEW 7.0.7) date 2023-10-29 13:55:44*
%MOMM*%
%LPD*%
G01*
G04 APERTURE LIST*
G04 #@! TA.AperFunction,ComponentPad*
%ADD10R,1.700000X1.700000*%
G04 #@! TD*
G04 #@! TA.AperFunction,ComponentPad*
%ADD11O,1.700000X1.700000*%
G04 #@! TD*
G04 #@! TA.AperFunction,ComponentPad*
%ADD12R,1.600000X1.600000*%
G04 #@! TD*
G04 #@! TA.AperFunction,ComponentPad*
%ADD13O,1.600000X1.600000*%
G04 #@! TD*
G04 #@! TA.AperFunction,ComponentPad*
%ADD14O,1.600000X2.500000*%
G04 #@! TD*
G04 #@! TA.AperFunction,ComponentPad*
%ADD15O,3.500000X7.000000*%
G04 #@! TD*
G04 #@! TA.AperFunction,ComponentPad*
%ADD16C,1.600000*%
G04 #@! TD*
G04 #@! TA.AperFunction,ViaPad*
%ADD17C,0.450000*%
G04 #@! TD*
G04 #@! TA.AperFunction,Conductor*
%ADD18C,1.250000*%
G04 #@! TD*
G04 #@! TA.AperFunction,Conductor*
%ADD19C,0.349000*%
G04 #@! TD*
G04 APERTURE END LIST*
D10*
X154938200Y-138425000D03*
D11*
X154938200Y-135885000D03*
X154938200Y-133345000D03*
X154938200Y-130805000D03*
X154938200Y-128265000D03*
X154938200Y-125725000D03*
X154938200Y-123185000D03*
X154938200Y-120645000D03*
X154938200Y-118105000D03*
X154938200Y-115565000D03*
X154938200Y-113025000D03*
X154938200Y-110485000D03*
X154938200Y-107945000D03*
X154938200Y-105405000D03*
X154938200Y-102865000D03*
D10*
X157480000Y-138399600D03*
D11*
X157480000Y-135859600D03*
X157480000Y-133319600D03*
X157480000Y-130779600D03*
X157480000Y-128239600D03*
X157480000Y-125699600D03*
X157480000Y-123159600D03*
X157480000Y-120619600D03*
X157480000Y-118079600D03*
X157480000Y-115539600D03*
X157480000Y-112999600D03*
X157480000Y-110459600D03*
X157480000Y-107919600D03*
X157480000Y-105379600D03*
X157480000Y-102839600D03*
D12*
X111760000Y-111506000D03*
D13*
X119380000Y-111506000D03*
D12*
X139700000Y-111506000D03*
D13*
X132080000Y-111506000D03*
X137160000Y-127508000D03*
D12*
X144780000Y-127508000D03*
D13*
X109220000Y-127762000D03*
D12*
X116840000Y-127762000D03*
D11*
X94234000Y-102870000D03*
X94234000Y-105410000D03*
X94234000Y-107950000D03*
X94234000Y-110490000D03*
X94234000Y-113030000D03*
X94234000Y-115570000D03*
X94234000Y-118110000D03*
X94234000Y-120650000D03*
X94234000Y-123190000D03*
X94234000Y-125730000D03*
X94234000Y-128270000D03*
X94234000Y-130810000D03*
X94234000Y-133350000D03*
X94234000Y-135890000D03*
D10*
X94234000Y-138430000D03*
D11*
X91694000Y-102870000D03*
X91694000Y-105410000D03*
X91694000Y-107950000D03*
X91694000Y-110490000D03*
X91694000Y-113030000D03*
X91694000Y-115570000D03*
X91694000Y-118110000D03*
X91694000Y-120650000D03*
X91694000Y-123190000D03*
X91694000Y-125730000D03*
X91694000Y-128270000D03*
X91694000Y-130810000D03*
X91694000Y-133350000D03*
X91694000Y-135890000D03*
D10*
X91694000Y-138430000D03*
D14*
X111760000Y-103886000D03*
D15*
X116840000Y-98806000D03*
X106680000Y-98806000D03*
D14*
X109220000Y-103886000D03*
X139700000Y-104140000D03*
D15*
X144780000Y-99060000D03*
X134620000Y-99060000D03*
D14*
X137160000Y-104140000D03*
X147320000Y-139700000D03*
D15*
X149860000Y-144780000D03*
X139700000Y-144780000D03*
D14*
X144780000Y-139700000D03*
X116840000Y-139700000D03*
D15*
X111760000Y-144780000D03*
X121920000Y-144780000D03*
D14*
X119380000Y-139700000D03*
D16*
X144860000Y-133604000D03*
X139860000Y-133604000D03*
X111920000Y-133604000D03*
X116920000Y-133604000D03*
D17*
X99060000Y-142748000D03*
X99060000Y-136144000D03*
X127000000Y-144272000D03*
X128524000Y-137668000D03*
X131826000Y-149860000D03*
X135636000Y-137160000D03*
X104394000Y-149098000D03*
X106172000Y-134874000D03*
X103378000Y-130810000D03*
X103632000Y-125984000D03*
X97282000Y-133096000D03*
X97282000Y-126238000D03*
X100584000Y-127508000D03*
X100076000Y-132080000D03*
X132842000Y-144526000D03*
X130048000Y-145034000D03*
X132842000Y-147574000D03*
X129032000Y-144780000D03*
X132334000Y-147066000D03*
X104140000Y-146812000D03*
X104648000Y-147320000D03*
X104648000Y-144526000D03*
X101854000Y-144780000D03*
X100838000Y-146050000D03*
X128524000Y-134112000D03*
X100584000Y-134366000D03*
X105156000Y-137922000D03*
X107950000Y-135636000D03*
X133350000Y-137922000D03*
X135890000Y-135636000D03*
X130476000Y-133408278D03*
X102748500Y-133693500D03*
X130302000Y-135382000D03*
X131318000Y-137160000D03*
X102240500Y-135471500D03*
X103256500Y-137249500D03*
D18*
X108676638Y-125583000D02*
X149644000Y-125583000D01*
X149644000Y-125583000D02*
X153416000Y-129355000D01*
X104973638Y-129286000D02*
X108676638Y-125583000D01*
X96012000Y-129286000D02*
X104973638Y-129286000D01*
D19*
X153641500Y-129580500D02*
X153416000Y-129355000D01*
X156280900Y-129580500D02*
X153641500Y-129580500D01*
X157480000Y-130779600D02*
X156280900Y-129580500D01*
X93009500Y-129494500D02*
X96565500Y-129494500D01*
X91694000Y-130810000D02*
X93009500Y-129494500D01*
D18*
X101634000Y-131860000D02*
X100584000Y-130810000D01*
X100584000Y-130810000D02*
X94234000Y-130810000D01*
X103812925Y-131860000D02*
X101634000Y-131860000D01*
X104867925Y-130805000D02*
X103812925Y-131860000D01*
X154938200Y-130805000D02*
X104867925Y-130805000D01*
G04 #@! TA.AperFunction,Conductor*
G36*
X93687692Y-133119685D02*
G01*
X93733447Y-133172489D01*
X93743391Y-133241647D01*
X93739631Y-133258933D01*
X93734000Y-133278111D01*
X93734000Y-133421888D01*
X93739631Y-133441067D01*
X93739630Y-133510936D01*
X93701855Y-133569714D01*
X93638299Y-133598738D01*
X93620653Y-133600000D01*
X92307347Y-133600000D01*
X92240308Y-133580315D01*
X92194553Y-133527511D01*
X92184609Y-133458353D01*
X92188369Y-133441067D01*
X92194000Y-133421888D01*
X92194000Y-133278111D01*
X92188369Y-133258933D01*
X92188370Y-133189064D01*
X92226145Y-133130286D01*
X92289701Y-133101262D01*
X92307347Y-133100000D01*
X93620653Y-133100000D01*
X93687692Y-133119685D01*
G37*
G04 #@! TD.AperFunction*
G04 #@! TA.AperFunction,Conductor*
G36*
X156933692Y-133089285D02*
G01*
X156979447Y-133142089D01*
X156989391Y-133211247D01*
X156985631Y-133228533D01*
X156980000Y-133247711D01*
X156980000Y-133391488D01*
X156985631Y-133410667D01*
X156985630Y-133480536D01*
X156947855Y-133539314D01*
X156884299Y-133568338D01*
X156866653Y-133569600D01*
X156319122Y-133569600D01*
X156277796Y-133592166D01*
X156251438Y-133595000D01*
X155551547Y-133595000D01*
X155484508Y-133575315D01*
X155438753Y-133522511D01*
X155428809Y-133453353D01*
X155432569Y-133436067D01*
X155438200Y-133416888D01*
X155438200Y-133273111D01*
X155432569Y-133253933D01*
X155432570Y-133184064D01*
X155470345Y-133125286D01*
X155533901Y-133096262D01*
X155551547Y-133095000D01*
X156099078Y-133095000D01*
X156140404Y-133072434D01*
X156166762Y-133069600D01*
X156866653Y-133069600D01*
X156933692Y-133089285D01*
G37*
G04 #@! TD.AperFunction*
G04 #@! TA.AperFunction,Conductor*
G36*
X93687692Y-125499685D02*
G01*
X93733447Y-125552489D01*
X93743391Y-125621647D01*
X93739631Y-125638933D01*
X93734000Y-125658111D01*
X93734000Y-125801888D01*
X93739631Y-125821067D01*
X93739630Y-125890936D01*
X93701855Y-125949714D01*
X93638299Y-125978738D01*
X93620653Y-125980000D01*
X92307347Y-125980000D01*
X92240308Y-125960315D01*
X92194553Y-125907511D01*
X92184609Y-125838353D01*
X92188369Y-125821067D01*
X92194000Y-125801888D01*
X92194000Y-125658111D01*
X92188369Y-125638933D01*
X92188370Y-125569064D01*
X92226145Y-125510286D01*
X92289701Y-125481262D01*
X92307347Y-125480000D01*
X93620653Y-125480000D01*
X93687692Y-125499685D01*
G37*
G04 #@! TD.AperFunction*
G04 #@! TA.AperFunction,Conductor*
G36*
X156933692Y-125469285D02*
G01*
X156979447Y-125522089D01*
X156989391Y-125591247D01*
X156985631Y-125608533D01*
X156980000Y-125627711D01*
X156980000Y-125771488D01*
X156985631Y-125790667D01*
X156985630Y-125860536D01*
X156947855Y-125919314D01*
X156884299Y-125948338D01*
X156866653Y-125949600D01*
X156319122Y-125949600D01*
X156277796Y-125972166D01*
X156251438Y-125975000D01*
X155551547Y-125975000D01*
X155484508Y-125955315D01*
X155438753Y-125902511D01*
X155428809Y-125833353D01*
X155432569Y-125816067D01*
X155438200Y-125796888D01*
X155438200Y-125653111D01*
X155432569Y-125633933D01*
X155432570Y-125564064D01*
X155470345Y-125505286D01*
X155533901Y-125476262D01*
X155551547Y-125475000D01*
X156099078Y-125475000D01*
X156140404Y-125452434D01*
X156166762Y-125449600D01*
X156866653Y-125449600D01*
X156933692Y-125469285D01*
G37*
G04 #@! TD.AperFunction*
G04 #@! TA.AperFunction,Conductor*
G36*
X160217039Y-90443685D02*
G01*
X160262794Y-90496489D01*
X160274000Y-90548000D01*
X160274000Y-153038000D01*
X160254315Y-153105039D01*
X160201511Y-153150794D01*
X160150000Y-153162000D01*
X89786000Y-153162000D01*
X89718961Y-153142315D01*
X89673206Y-153089511D01*
X89662000Y-153038000D01*
X89662000Y-149098000D01*
X103563953Y-149098000D01*
X103582092Y-149270576D01*
X103582093Y-149270579D01*
X103635712Y-149435608D01*
X103722477Y-149585887D01*
X103722476Y-149585887D01*
X103813897Y-149687420D01*
X103838590Y-149714845D01*
X103978975Y-149816842D01*
X103978976Y-149816842D01*
X104137495Y-149887420D01*
X104137501Y-149887422D01*
X104307236Y-149923500D01*
X104307237Y-149923500D01*
X104480762Y-149923500D01*
X104480764Y-149923500D01*
X104650499Y-149887422D01*
X104650501Y-149887420D01*
X104650504Y-149887420D01*
X104712090Y-149860000D01*
X130995953Y-149860000D01*
X131014092Y-150032576D01*
X131014093Y-150032579D01*
X131067712Y-150197608D01*
X131154477Y-150347887D01*
X131154476Y-150347887D01*
X131154478Y-150347889D01*
X131270590Y-150476845D01*
X131410976Y-150578842D01*
X131569495Y-150649420D01*
X131569501Y-150649422D01*
X131739236Y-150685500D01*
X131739237Y-150685500D01*
X131912762Y-150685500D01*
X131912764Y-150685500D01*
X132082499Y-150649422D01*
X132082501Y-150649420D01*
X132082504Y-150649420D01*
X132135899Y-150625646D01*
X132241024Y-150578842D01*
X132381410Y-150476845D01*
X132497522Y-150347889D01*
X132584286Y-150197611D01*
X132637908Y-150032576D01*
X132656047Y-149860000D01*
X132637908Y-149687424D01*
X132584286Y-149522389D01*
X132497522Y-149372111D01*
X132381410Y-149243155D01*
X132241024Y-149141158D01*
X132241023Y-149141157D01*
X132082504Y-149070579D01*
X132082498Y-149070577D01*
X131948841Y-149042168D01*
X131912764Y-149034500D01*
X131739236Y-149034500D01*
X131709483Y-149040824D01*
X131569501Y-149070577D01*
X131569496Y-149070579D01*
X131410977Y-149141157D01*
X131410972Y-149141160D01*
X131270591Y-149243153D01*
X131270589Y-149243155D01*
X131154477Y-149372112D01*
X131067712Y-149522391D01*
X131014093Y-149687420D01*
X131014092Y-149687424D01*
X130995953Y-149860000D01*
X104712090Y-149860000D01*
X104712092Y-149859999D01*
X104809024Y-149816842D01*
X104949410Y-149714845D01*
X105065522Y-149585889D01*
X105152286Y-149435611D01*
X105205908Y-149270576D01*
X105224047Y-149098000D01*
X105205908Y-148925424D01*
X105170160Y-148815400D01*
X105152287Y-148760391D01*
X105148380Y-148753624D01*
X105065522Y-148610111D01*
X105034375Y-148575518D01*
X104949411Y-148481156D01*
X104809023Y-148379157D01*
X104650504Y-148308579D01*
X104650498Y-148308577D01*
X104516840Y-148280168D01*
X104480764Y-148272500D01*
X104307236Y-148272500D01*
X104277483Y-148278824D01*
X104137501Y-148308577D01*
X104137496Y-148308579D01*
X103978977Y-148379157D01*
X103978972Y-148379160D01*
X103838591Y-148481153D01*
X103838589Y-148481155D01*
X103722477Y-148610112D01*
X103635712Y-148760391D01*
X103582093Y-148925420D01*
X103582092Y-148925424D01*
X103563953Y-149098000D01*
X89662000Y-149098000D01*
X89662000Y-146605236D01*
X109510000Y-146605236D01*
X109525084Y-146830564D01*
X109525086Y-146830573D01*
X109585083Y-147125758D01*
X109585087Y-147125773D01*
X109683901Y-147410343D01*
X109683903Y-147410346D01*
X109819759Y-147679198D01*
X109990254Y-147927564D01*
X110192314Y-148150971D01*
X110422361Y-148345464D01*
X110676271Y-148507554D01*
X110676273Y-148507555D01*
X110949514Y-148634351D01*
X110949528Y-148634356D01*
X111237234Y-148723605D01*
X111510000Y-148769614D01*
X111510000Y-146399125D01*
X111529685Y-146332086D01*
X111582489Y-146286331D01*
X111644240Y-146275549D01*
X111661870Y-146277009D01*
X111697957Y-146280000D01*
X111697959Y-146280000D01*
X111822041Y-146280000D01*
X111822043Y-146280000D01*
X111858129Y-146277009D01*
X111875760Y-146275549D01*
X111944196Y-146289630D01*
X111994155Y-146338475D01*
X112010000Y-146399125D01*
X112010000Y-148766207D01*
X112135076Y-148753624D01*
X112135079Y-148753623D01*
X112428107Y-148683791D01*
X112428116Y-148683789D01*
X112709216Y-148575525D01*
X112709231Y-148575518D01*
X112973395Y-148430751D01*
X112973401Y-148430747D01*
X113215911Y-148252064D01*
X113432451Y-148042644D01*
X113432457Y-148042637D01*
X113619145Y-147806231D01*
X113772657Y-147547051D01*
X113772666Y-147547033D01*
X113890260Y-147269716D01*
X113890265Y-147269699D01*
X113969848Y-146979173D01*
X114010000Y-146680616D01*
X114010000Y-146605236D01*
X119670000Y-146605236D01*
X119685084Y-146830564D01*
X119685086Y-146830573D01*
X119745083Y-147125758D01*
X119745087Y-147125773D01*
X119843901Y-147410343D01*
X119843903Y-147410346D01*
X119979759Y-147679198D01*
X120150254Y-147927564D01*
X120352314Y-148150971D01*
X120582361Y-148345464D01*
X120836271Y-148507554D01*
X120836273Y-148507555D01*
X121109514Y-148634351D01*
X121109528Y-148634356D01*
X121397234Y-148723605D01*
X121670000Y-148769614D01*
X121670000Y-146399125D01*
X121689685Y-146332086D01*
X121742489Y-146286331D01*
X121804240Y-146275549D01*
X121821870Y-146277009D01*
X121857957Y-146280000D01*
X121857959Y-146280000D01*
X121982041Y-146280000D01*
X121982043Y-146280000D01*
X122035759Y-146275549D01*
X122104195Y-146289630D01*
X122154154Y-146338475D01*
X122169999Y-146399125D01*
X122169999Y-148766207D01*
X122295076Y-148753624D01*
X122295079Y-148753623D01*
X122588107Y-148683791D01*
X122588116Y-148683789D01*
X122869216Y-148575525D01*
X122869231Y-148575518D01*
X123133395Y-148430751D01*
X123133401Y-148430747D01*
X123375911Y-148252064D01*
X123592451Y-148042644D01*
X123592457Y-148042637D01*
X123779145Y-147806231D01*
X123932657Y-147547051D01*
X123932666Y-147547033D01*
X124050260Y-147269716D01*
X124050265Y-147269699D01*
X124129848Y-146979173D01*
X124170000Y-146680616D01*
X124170000Y-146605236D01*
X137450000Y-146605236D01*
X137465084Y-146830564D01*
X137465086Y-146830573D01*
X137525083Y-147125758D01*
X137525087Y-147125773D01*
X137623901Y-147410343D01*
X137623903Y-147410346D01*
X137759759Y-147679198D01*
X137930254Y-147927564D01*
X138132314Y-148150971D01*
X138362361Y-148345464D01*
X138616271Y-148507554D01*
X138616273Y-148507555D01*
X138889514Y-148634351D01*
X138889528Y-148634356D01*
X139177234Y-148723605D01*
X139450000Y-148769614D01*
X139450000Y-146399125D01*
X139469685Y-146332086D01*
X139522489Y-146286331D01*
X139584240Y-146275549D01*
X139601870Y-146277009D01*
X139637957Y-146280000D01*
X139637959Y-146280000D01*
X139762041Y-146280000D01*
X139762043Y-146280000D01*
X139798129Y-146277009D01*
X139815760Y-146275549D01*
X139884196Y-146289630D01*
X139934155Y-146338475D01*
X139950000Y-146399125D01*
X139950000Y-148766207D01*
X140075076Y-148753624D01*
X140075079Y-148753623D01*
X140368107Y-148683791D01*
X140368116Y-148683789D01*
X140649216Y-148575525D01*
X140649231Y-148575518D01*
X140913395Y-148430751D01*
X140913401Y-148430747D01*
X141155911Y-148252064D01*
X141372451Y-148042644D01*
X141372457Y-148042637D01*
X141559145Y-147806231D01*
X141712657Y-147547051D01*
X141712666Y-147547033D01*
X141830260Y-147269716D01*
X141830265Y-147269699D01*
X141909848Y-146979173D01*
X141950000Y-146680616D01*
X141950000Y-146605236D01*
X147610000Y-146605236D01*
X147625084Y-146830564D01*
X147625086Y-146830573D01*
X147685083Y-147125758D01*
X147685087Y-147125773D01*
X147783901Y-147410343D01*
X147783903Y-147410346D01*
X147919759Y-147679198D01*
X148090254Y-147927564D01*
X148292314Y-148150971D01*
X148522361Y-148345464D01*
X148776271Y-148507554D01*
X148776273Y-148507555D01*
X149049514Y-148634351D01*
X149049528Y-148634356D01*
X149337234Y-148723605D01*
X149610000Y-148769614D01*
X149610000Y-146399125D01*
X149629685Y-146332086D01*
X149682489Y-146286331D01*
X149744240Y-146275549D01*
X149761870Y-146277009D01*
X149797957Y-146280000D01*
X149797959Y-146280000D01*
X149922041Y-146280000D01*
X149922043Y-146280000D01*
X149958129Y-146277009D01*
X149975760Y-146275549D01*
X150044196Y-146289630D01*
X150094155Y-146338475D01*
X150110000Y-146399125D01*
X150110000Y-148766207D01*
X150235076Y-148753624D01*
X150235079Y-148753623D01*
X150528107Y-148683791D01*
X150528116Y-148683789D01*
X150809216Y-148575525D01*
X150809231Y-148575518D01*
X151073395Y-148430751D01*
X151073401Y-148430747D01*
X151315911Y-148252064D01*
X151532451Y-148042644D01*
X151532457Y-148042637D01*
X151719145Y-147806231D01*
X151872657Y-147547051D01*
X151872666Y-147547033D01*
X151990260Y-147269716D01*
X151990265Y-147269699D01*
X152069848Y-146979173D01*
X152110000Y-146680616D01*
X152110000Y-145030000D01*
X151484000Y-145030000D01*
X151416961Y-145010315D01*
X151371206Y-144957511D01*
X151360000Y-144906000D01*
X151360000Y-144654000D01*
X151379685Y-144586961D01*
X151432489Y-144541206D01*
X151484000Y-144530000D01*
X152110000Y-144530000D01*
X152110000Y-142954764D01*
X152094915Y-142729435D01*
X152094913Y-142729426D01*
X152034916Y-142434241D01*
X152034912Y-142434226D01*
X151936098Y-142149656D01*
X151936096Y-142149653D01*
X151800240Y-141880801D01*
X151629745Y-141632435D01*
X151427685Y-141409028D01*
X151197638Y-141214535D01*
X150943728Y-141052445D01*
X150943726Y-141052444D01*
X150670485Y-140925648D01*
X150670471Y-140925643D01*
X150382765Y-140836394D01*
X150110000Y-140790384D01*
X150110000Y-143160874D01*
X150090315Y-143227913D01*
X150037511Y-143273668D01*
X149975762Y-143284451D01*
X149935549Y-143281119D01*
X149922043Y-143280000D01*
X149797957Y-143280000D01*
X149784450Y-143281119D01*
X149744238Y-143284451D01*
X149675802Y-143270368D01*
X149625844Y-143221522D01*
X149610000Y-143160874D01*
X149610000Y-140793792D01*
X149484922Y-140806375D01*
X149484920Y-140806376D01*
X149191892Y-140876208D01*
X149191883Y-140876210D01*
X148910783Y-140984474D01*
X148910768Y-140984481D01*
X148646604Y-141129248D01*
X148646598Y-141129252D01*
X148404088Y-141307935D01*
X148187548Y-141517355D01*
X148187542Y-141517362D01*
X148000854Y-141753768D01*
X147847342Y-142012948D01*
X147847333Y-142012966D01*
X147729739Y-142290283D01*
X147729734Y-142290300D01*
X147650151Y-142580826D01*
X147610000Y-142879383D01*
X147610000Y-144530000D01*
X148236000Y-144530000D01*
X148303039Y-144549685D01*
X148348794Y-144602489D01*
X148360000Y-144654000D01*
X148360000Y-144906000D01*
X148340315Y-144973039D01*
X148287511Y-145018794D01*
X148236000Y-145030000D01*
X147610000Y-145030000D01*
X147610000Y-146605236D01*
X141950000Y-146605236D01*
X141950000Y-145030000D01*
X141324000Y-145030000D01*
X141256961Y-145010315D01*
X141211206Y-144957511D01*
X141200000Y-144906000D01*
X141200000Y-144654000D01*
X141219685Y-144586961D01*
X141272489Y-144541206D01*
X141324000Y-144530000D01*
X141950000Y-144530000D01*
X141950000Y-142954764D01*
X141934915Y-142729435D01*
X141934913Y-142729426D01*
X141874916Y-142434241D01*
X141874912Y-142434226D01*
X141776098Y-142149656D01*
X141776096Y-142149653D01*
X141640240Y-141880801D01*
X141469745Y-141632435D01*
X141267685Y-141409028D01*
X141037638Y-141214535D01*
X140783728Y-141052445D01*
X140783726Y-141052444D01*
X140510485Y-140925648D01*
X140510471Y-140925643D01*
X140222765Y-140836394D01*
X139950000Y-140790384D01*
X139950000Y-143160874D01*
X139930315Y-143227913D01*
X139877511Y-143273668D01*
X139815762Y-143284451D01*
X139775549Y-143281119D01*
X139762043Y-143280000D01*
X139637957Y-143280000D01*
X139624450Y-143281119D01*
X139584238Y-143284451D01*
X139515802Y-143270368D01*
X139465844Y-143221522D01*
X139450000Y-143160874D01*
X139450000Y-140793792D01*
X139324922Y-140806375D01*
X139324920Y-140806376D01*
X139031892Y-140876208D01*
X139031883Y-140876210D01*
X138750783Y-140984474D01*
X138750768Y-140984481D01*
X138486604Y-141129248D01*
X138486598Y-141129252D01*
X138244088Y-141307935D01*
X138027548Y-141517355D01*
X138027542Y-141517362D01*
X137840854Y-141753768D01*
X137687342Y-142012948D01*
X137687333Y-142012966D01*
X137569739Y-142290283D01*
X137569734Y-142290300D01*
X137490151Y-142580826D01*
X137450000Y-142879383D01*
X137450000Y-144530000D01*
X138076000Y-144530000D01*
X138143039Y-144549685D01*
X138188794Y-144602489D01*
X138200000Y-144654000D01*
X138200000Y-144906000D01*
X138180315Y-144973039D01*
X138127511Y-145018794D01*
X138076000Y-145030000D01*
X137450000Y-145030000D01*
X137450000Y-146605236D01*
X124170000Y-146605236D01*
X124170000Y-145030000D01*
X123544000Y-145030000D01*
X123476961Y-145010315D01*
X123431206Y-144957511D01*
X123420000Y-144906000D01*
X123420000Y-144654000D01*
X123439685Y-144586961D01*
X123492489Y-144541206D01*
X123544000Y-144530000D01*
X124170000Y-144530000D01*
X124170000Y-144272000D01*
X126169953Y-144272000D01*
X126188092Y-144444576D01*
X126188093Y-144444579D01*
X126241712Y-144609608D01*
X126328477Y-144759887D01*
X126328476Y-144759887D01*
X126421867Y-144863608D01*
X126444590Y-144888845D01*
X126584975Y-144990841D01*
X126584976Y-144990842D01*
X126743495Y-145061420D01*
X126743501Y-145061422D01*
X126913236Y-145097500D01*
X126913237Y-145097500D01*
X127086762Y-145097500D01*
X127086764Y-145097500D01*
X127256499Y-145061422D01*
X127256501Y-145061420D01*
X127256504Y-145061420D01*
X127318090Y-145034000D01*
X129217953Y-145034000D01*
X129236092Y-145206576D01*
X129236093Y-145206579D01*
X129289712Y-145371608D01*
X129376477Y-145521887D01*
X129376476Y-145521887D01*
X129376478Y-145521889D01*
X129492590Y-145650845D01*
X129632975Y-145752841D01*
X129632976Y-145752842D01*
X129791495Y-145823420D01*
X129791501Y-145823422D01*
X129961236Y-145859500D01*
X129961237Y-145859500D01*
X130134762Y-145859500D01*
X130134764Y-145859500D01*
X130304499Y-145823422D01*
X130304501Y-145823420D01*
X130304504Y-145823420D01*
X130358444Y-145799404D01*
X130463024Y-145752842D01*
X130603410Y-145650845D01*
X130719522Y-145521889D01*
X130806286Y-145371611D01*
X130859908Y-145206576D01*
X130878047Y-145034000D01*
X130859908Y-144861424D01*
X130806286Y-144696389D01*
X130719522Y-144546111D01*
X130701414Y-144526000D01*
X132011953Y-144526000D01*
X132030092Y-144698576D01*
X132030093Y-144698579D01*
X132083712Y-144863608D01*
X132170477Y-145013887D01*
X132170476Y-145013887D01*
X132263867Y-145117608D01*
X132286590Y-145142845D01*
X132374308Y-145206576D01*
X132426976Y-145244842D01*
X132585495Y-145315420D01*
X132585501Y-145315422D01*
X132755236Y-145351500D01*
X132755237Y-145351500D01*
X132928762Y-145351500D01*
X132928764Y-145351500D01*
X133098499Y-145315422D01*
X133098501Y-145315420D01*
X133098504Y-145315420D01*
X133151899Y-145291646D01*
X133257024Y-145244842D01*
X133397410Y-145142845D01*
X133513522Y-145013889D01*
X133600286Y-144863611D01*
X133653908Y-144698576D01*
X133672047Y-144526000D01*
X133653908Y-144353424D01*
X133618160Y-144243400D01*
X133600287Y-144188391D01*
X133592782Y-144175392D01*
X133513522Y-144038111D01*
X133420133Y-143934391D01*
X133397411Y-143909156D01*
X133257023Y-143807157D01*
X133098504Y-143736579D01*
X133098498Y-143736577D01*
X132964840Y-143708168D01*
X132928764Y-143700500D01*
X132755236Y-143700500D01*
X132725483Y-143706824D01*
X132585501Y-143736577D01*
X132585496Y-143736579D01*
X132426977Y-143807157D01*
X132426972Y-143807160D01*
X132286591Y-143909153D01*
X132286589Y-143909155D01*
X132170477Y-144038112D01*
X132083712Y-144188391D01*
X132042525Y-144315157D01*
X132030092Y-144353424D01*
X132011953Y-144526000D01*
X130701414Y-144526000D01*
X130626133Y-144442391D01*
X130603411Y-144417156D01*
X130463023Y-144315157D01*
X130304504Y-144244579D01*
X130304498Y-144244577D01*
X130170841Y-144216168D01*
X130134764Y-144208500D01*
X129961236Y-144208500D01*
X129931483Y-144214824D01*
X129791501Y-144244577D01*
X129791496Y-144244579D01*
X129632977Y-144315157D01*
X129632972Y-144315160D01*
X129492591Y-144417153D01*
X129492589Y-144417155D01*
X129376477Y-144546112D01*
X129289712Y-144696391D01*
X129236093Y-144861420D01*
X129236092Y-144861424D01*
X129217953Y-145034000D01*
X127318090Y-145034000D01*
X127327074Y-145030000D01*
X127415024Y-144990842D01*
X127555410Y-144888845D01*
X127671522Y-144759889D01*
X127758286Y-144609611D01*
X127811908Y-144444576D01*
X127830047Y-144272000D01*
X127811908Y-144099424D01*
X127765557Y-143956766D01*
X127758287Y-143934391D01*
X127758286Y-143934389D01*
X127671522Y-143784111D01*
X127555410Y-143655155D01*
X127485216Y-143604156D01*
X127415023Y-143553157D01*
X127256504Y-143482579D01*
X127256498Y-143482577D01*
X127122840Y-143454168D01*
X127086764Y-143446500D01*
X126913236Y-143446500D01*
X126883483Y-143452824D01*
X126743501Y-143482577D01*
X126743496Y-143482579D01*
X126584977Y-143553157D01*
X126584972Y-143553160D01*
X126444591Y-143655153D01*
X126444589Y-143655155D01*
X126328477Y-143784112D01*
X126241712Y-143934391D01*
X126200525Y-144061157D01*
X126188092Y-144099424D01*
X126169953Y-144272000D01*
X124170000Y-144272000D01*
X124170000Y-142954764D01*
X124154915Y-142729435D01*
X124154913Y-142729426D01*
X124094916Y-142434241D01*
X124094912Y-142434226D01*
X123996098Y-142149656D01*
X123996096Y-142149653D01*
X123860240Y-141880801D01*
X123689745Y-141632435D01*
X123487685Y-141409028D01*
X123257638Y-141214535D01*
X123003728Y-141052445D01*
X123003726Y-141052444D01*
X122730485Y-140925648D01*
X122730471Y-140925643D01*
X122442765Y-140836394D01*
X122170000Y-140790384D01*
X122170000Y-143160874D01*
X122150315Y-143227913D01*
X122097511Y-143273668D01*
X122035762Y-143284451D01*
X121995549Y-143281119D01*
X121982043Y-143280000D01*
X121857957Y-143280000D01*
X121844450Y-143281119D01*
X121804238Y-143284451D01*
X121735802Y-143270368D01*
X121685844Y-143221522D01*
X121670000Y-143160874D01*
X121670000Y-140793792D01*
X121544922Y-140806375D01*
X121544920Y-140806376D01*
X121251892Y-140876208D01*
X121251883Y-140876210D01*
X120970783Y-140984474D01*
X120970768Y-140984481D01*
X120706604Y-141129248D01*
X120706598Y-141129252D01*
X120464088Y-141307935D01*
X120247548Y-141517355D01*
X120247542Y-141517362D01*
X120060854Y-141753768D01*
X119907342Y-142012948D01*
X119907333Y-142012966D01*
X119789739Y-142290283D01*
X119789734Y-142290300D01*
X119710151Y-142580826D01*
X119670000Y-142879383D01*
X119670000Y-144530000D01*
X120296000Y-144530000D01*
X120363039Y-144549685D01*
X120408794Y-144602489D01*
X120420000Y-144654000D01*
X120420000Y-144906000D01*
X120400315Y-144973039D01*
X120347511Y-145018794D01*
X120296000Y-145030000D01*
X119670000Y-145030000D01*
X119670000Y-146605236D01*
X114010000Y-146605236D01*
X114010000Y-145030000D01*
X113384000Y-145030000D01*
X113316961Y-145010315D01*
X113271206Y-144957511D01*
X113260000Y-144906000D01*
X113260000Y-144654000D01*
X113279685Y-144586961D01*
X113332489Y-144541206D01*
X113384000Y-144530000D01*
X114010000Y-144530000D01*
X114010000Y-142954764D01*
X113994915Y-142729435D01*
X113994913Y-142729426D01*
X113934916Y-142434241D01*
X113934912Y-142434226D01*
X113836098Y-142149656D01*
X113836096Y-142149653D01*
X113700240Y-141880801D01*
X113529745Y-141632435D01*
X113327685Y-141409028D01*
X113097638Y-141214535D01*
X112843728Y-141052445D01*
X112843726Y-141052444D01*
X112570485Y-140925648D01*
X112570471Y-140925643D01*
X112282765Y-140836394D01*
X112010000Y-140790384D01*
X112010000Y-143160874D01*
X111990315Y-143227913D01*
X111937511Y-143273668D01*
X111875762Y-143284451D01*
X111835549Y-143281119D01*
X111822043Y-143280000D01*
X111697957Y-143280000D01*
X111684450Y-143281119D01*
X111644238Y-143284451D01*
X111575802Y-143270368D01*
X111525844Y-143221522D01*
X111510000Y-143160874D01*
X111509999Y-140793792D01*
X111384922Y-140806375D01*
X111384920Y-140806376D01*
X111091892Y-140876208D01*
X111091883Y-140876210D01*
X110810783Y-140984474D01*
X110810768Y-140984481D01*
X110546604Y-141129248D01*
X110546598Y-141129252D01*
X110304088Y-141307935D01*
X110087548Y-141517355D01*
X110087542Y-141517362D01*
X109900854Y-141753768D01*
X109747342Y-142012948D01*
X109747333Y-142012966D01*
X109629739Y-142290283D01*
X109629734Y-142290300D01*
X109550151Y-142580826D01*
X109510000Y-142879383D01*
X109510000Y-144530000D01*
X110136000Y-144530000D01*
X110203039Y-144549685D01*
X110248794Y-144602489D01*
X110260000Y-144654000D01*
X110260000Y-144906000D01*
X110240315Y-144973039D01*
X110187511Y-145018794D01*
X110136000Y-145030000D01*
X109510000Y-145030000D01*
X109510000Y-146605236D01*
X89662000Y-146605236D01*
X89662000Y-144780000D01*
X101023953Y-144780000D01*
X101042092Y-144952576D01*
X101042093Y-144952579D01*
X101095712Y-145117608D01*
X101182477Y-145267887D01*
X101182476Y-145267887D01*
X101275867Y-145371608D01*
X101298590Y-145396845D01*
X101438976Y-145498842D01*
X101597495Y-145569420D01*
X101597501Y-145569422D01*
X101767236Y-145605500D01*
X101767237Y-145605500D01*
X101940762Y-145605500D01*
X101940764Y-145605500D01*
X102110499Y-145569422D01*
X102110501Y-145569420D01*
X102110504Y-145569420D01*
X102163899Y-145545646D01*
X102269024Y-145498842D01*
X102409410Y-145396845D01*
X102525522Y-145267889D01*
X102612286Y-145117611D01*
X102665908Y-144952576D01*
X102684047Y-144780000D01*
X102665908Y-144607424D01*
X102639452Y-144526000D01*
X103817953Y-144526000D01*
X103836092Y-144698576D01*
X103836093Y-144698579D01*
X103889712Y-144863608D01*
X103976477Y-145013887D01*
X103976476Y-145013887D01*
X104069867Y-145117608D01*
X104092590Y-145142845D01*
X104180308Y-145206576D01*
X104232976Y-145244842D01*
X104391495Y-145315420D01*
X104391501Y-145315422D01*
X104561236Y-145351500D01*
X104561237Y-145351500D01*
X104734762Y-145351500D01*
X104734764Y-145351500D01*
X104904499Y-145315422D01*
X104904501Y-145315420D01*
X104904504Y-145315420D01*
X104957899Y-145291646D01*
X105063024Y-145244842D01*
X105203410Y-145142845D01*
X105319522Y-145013889D01*
X105406286Y-144863611D01*
X105459908Y-144698576D01*
X105478047Y-144526000D01*
X105459908Y-144353424D01*
X105424159Y-144243400D01*
X105406287Y-144188391D01*
X105398782Y-144175392D01*
X105319522Y-144038111D01*
X105226133Y-143934391D01*
X105203411Y-143909156D01*
X105063023Y-143807157D01*
X104904504Y-143736579D01*
X104904498Y-143736577D01*
X104770840Y-143708168D01*
X104734764Y-143700500D01*
X104561236Y-143700500D01*
X104531483Y-143706824D01*
X104391501Y-143736577D01*
X104391496Y-143736579D01*
X104232977Y-143807157D01*
X104232972Y-143807160D01*
X104092591Y-143909153D01*
X104092589Y-143909155D01*
X103976477Y-144038112D01*
X103889712Y-144188391D01*
X103848525Y-144315157D01*
X103836092Y-144353424D01*
X103817953Y-144526000D01*
X102639452Y-144526000D01*
X102612286Y-144442389D01*
X102525522Y-144292111D01*
X102432133Y-144188391D01*
X102409411Y-144163156D01*
X102269023Y-144061157D01*
X102110504Y-143990579D01*
X102110498Y-143990577D01*
X101976841Y-143962168D01*
X101940764Y-143954500D01*
X101767236Y-143954500D01*
X101737483Y-143960824D01*
X101597501Y-143990577D01*
X101597496Y-143990579D01*
X101438977Y-144061157D01*
X101438972Y-144061160D01*
X101298591Y-144163153D01*
X101298589Y-144163155D01*
X101182477Y-144292112D01*
X101095712Y-144442391D01*
X101043695Y-144602489D01*
X101042092Y-144607424D01*
X101023953Y-144780000D01*
X89662000Y-144780000D01*
X89662000Y-142748000D01*
X98229953Y-142748000D01*
X98248092Y-142920576D01*
X98248093Y-142920579D01*
X98301712Y-143085608D01*
X98388477Y-143235887D01*
X98388476Y-143235887D01*
X98428196Y-143280000D01*
X98504590Y-143364845D01*
X98616978Y-143446500D01*
X98644976Y-143466842D01*
X98803495Y-143537420D01*
X98803501Y-143537422D01*
X98973236Y-143573500D01*
X98973237Y-143573500D01*
X99146762Y-143573500D01*
X99146764Y-143573500D01*
X99316499Y-143537422D01*
X99316501Y-143537420D01*
X99316504Y-143537420D01*
X99439680Y-143482578D01*
X99475024Y-143466842D01*
X99615410Y-143364845D01*
X99731522Y-143235889D01*
X99818286Y-143085611D01*
X99871908Y-142920576D01*
X99890047Y-142748000D01*
X99871908Y-142575424D01*
X99818286Y-142410389D01*
X99731522Y-142260111D01*
X99615410Y-142131155D01*
X99475024Y-142029158D01*
X99475023Y-142029157D01*
X99316504Y-141958579D01*
X99316498Y-141958577D01*
X99182841Y-141930168D01*
X99146764Y-141922500D01*
X98973236Y-141922500D01*
X98943483Y-141928824D01*
X98803501Y-141958577D01*
X98803496Y-141958579D01*
X98644977Y-142029157D01*
X98644972Y-142029160D01*
X98504591Y-142131153D01*
X98504589Y-142131155D01*
X98388477Y-142260112D01*
X98301712Y-142410391D01*
X98248093Y-142575420D01*
X98248092Y-142575424D01*
X98229953Y-142748000D01*
X89662000Y-142748000D01*
X89662000Y-140206784D01*
X115539500Y-140206784D01*
X115554364Y-140376687D01*
X115554366Y-140376697D01*
X115613258Y-140596488D01*
X115613261Y-140596497D01*
X115709431Y-140802732D01*
X115709432Y-140802734D01*
X115839954Y-140989141D01*
X116000858Y-141150045D01*
X116000861Y-141150047D01*
X116187266Y-141280568D01*
X116393504Y-141376739D01*
X116613308Y-141435635D01*
X116775230Y-141449801D01*
X116839998Y-141455468D01*
X116840000Y-141455468D01*
X116840002Y-141455468D01*
X116896672Y-141450509D01*
X117066692Y-141435635D01*
X117286496Y-141376739D01*
X117492734Y-141280568D01*
X117679139Y-141150047D01*
X117840047Y-140989139D01*
X117970568Y-140802734D01*
X117997895Y-140744129D01*
X118044064Y-140691695D01*
X118111257Y-140672542D01*
X118178139Y-140692757D01*
X118222657Y-140744133D01*
X118249865Y-140802482D01*
X118380342Y-140988820D01*
X118541179Y-141149657D01*
X118727517Y-141280134D01*
X118933673Y-141376265D01*
X118933682Y-141376269D01*
X119129999Y-141428872D01*
X119130000Y-141428871D01*
X119130000Y-140256588D01*
X119149685Y-140189549D01*
X119202489Y-140143794D01*
X119271647Y-140133850D01*
X119290551Y-140138097D01*
X119312925Y-140144999D01*
X119312926Y-140145000D01*
X119312927Y-140145000D01*
X119413345Y-140145000D01*
X119413346Y-140145000D01*
X119487519Y-140133820D01*
X119556742Y-140143293D01*
X119609857Y-140188687D01*
X119629997Y-140255591D01*
X119630000Y-140256435D01*
X119630000Y-141428872D01*
X119826317Y-141376269D01*
X119826326Y-141376265D01*
X120032482Y-141280134D01*
X120218820Y-141149657D01*
X120379657Y-140988820D01*
X120510134Y-140802482D01*
X120606265Y-140596326D01*
X120606269Y-140596317D01*
X120665139Y-140376610D01*
X120665141Y-140376599D01*
X120679998Y-140206784D01*
X143479500Y-140206784D01*
X143494364Y-140376687D01*
X143494366Y-140376697D01*
X143553258Y-140596488D01*
X143553261Y-140596497D01*
X143649431Y-140802732D01*
X143649432Y-140802734D01*
X143779954Y-140989141D01*
X143940858Y-141150045D01*
X143940861Y-141150047D01*
X144127266Y-141280568D01*
X144333504Y-141376739D01*
X144553308Y-141435635D01*
X144715230Y-141449801D01*
X144779998Y-141455468D01*
X144780000Y-141455468D01*
X144780002Y-141455468D01*
X144836673Y-141450509D01*
X145006692Y-141435635D01*
X145226496Y-141376739D01*
X145432734Y-141280568D01*
X145619139Y-141150047D01*
X145780047Y-140989139D01*
X145910568Y-140802734D01*
X145937895Y-140744129D01*
X145984064Y-140691695D01*
X146051257Y-140672542D01*
X146118139Y-140692757D01*
X146162657Y-140744133D01*
X146189865Y-140802482D01*
X146320342Y-140988820D01*
X146481179Y-141149657D01*
X146667517Y-141280134D01*
X146873673Y-141376265D01*
X146873682Y-141376269D01*
X147069999Y-141428872D01*
X147070000Y-141428871D01*
X147070000Y-140256588D01*
X147089685Y-140189549D01*
X147142489Y-140143794D01*
X147211647Y-140133850D01*
X147230551Y-140138097D01*
X147252925Y-140144999D01*
X147252926Y-140145000D01*
X147252927Y-140145000D01*
X147353345Y-140145000D01*
X147353346Y-140145000D01*
X147427519Y-140133820D01*
X147496742Y-140143293D01*
X147549857Y-140188687D01*
X147569997Y-140255591D01*
X147570000Y-140256435D01*
X147570000Y-141428872D01*
X147766317Y-141376269D01*
X147766326Y-141376265D01*
X147972482Y-141280134D01*
X148158820Y-141149657D01*
X148319657Y-140988820D01*
X148450134Y-140802482D01*
X148546265Y-140596326D01*
X148546269Y-140596317D01*
X148605139Y-140376610D01*
X148605141Y-140376599D01*
X148620000Y-140206763D01*
X148620000Y-139950000D01*
X147874874Y-139950000D01*
X147807835Y-139930315D01*
X147762080Y-139877511D01*
X147752136Y-139808353D01*
X147753983Y-139798407D01*
X147759882Y-139772560D01*
X147768768Y-139733630D01*
X147767345Y-139714636D01*
X147758049Y-139590594D01*
X147759821Y-139590461D01*
X147763408Y-139531864D01*
X147804701Y-139475502D01*
X147869911Y-139450413D01*
X147880029Y-139450000D01*
X148620000Y-139450000D01*
X148620000Y-139193237D01*
X148605141Y-139023400D01*
X148605139Y-139023389D01*
X148546269Y-138803682D01*
X148546265Y-138803673D01*
X148450134Y-138597517D01*
X148319657Y-138411179D01*
X148158820Y-138250342D01*
X147972482Y-138119865D01*
X147766328Y-138023734D01*
X147570000Y-137971127D01*
X147570000Y-139143411D01*
X147550315Y-139210450D01*
X147497511Y-139256205D01*
X147428353Y-139266149D01*
X147409451Y-139261902D01*
X147387075Y-139255000D01*
X147387073Y-139255000D01*
X147286654Y-139255000D01*
X147286646Y-139255000D01*
X147212481Y-139266179D01*
X147143256Y-139256706D01*
X147090143Y-139211311D01*
X147070003Y-139144407D01*
X147070000Y-139143564D01*
X147070000Y-137971127D01*
X146873671Y-138023734D01*
X146667517Y-138119865D01*
X146481179Y-138250342D01*
X146320342Y-138411179D01*
X146189867Y-138597515D01*
X146162657Y-138655867D01*
X146116484Y-138708306D01*
X146049290Y-138727457D01*
X145982409Y-138707241D01*
X145937893Y-138655865D01*
X145910570Y-138597271D01*
X145910567Y-138597265D01*
X145780045Y-138410858D01*
X145619141Y-138249954D01*
X145432734Y-138119432D01*
X145432732Y-138119431D01*
X145226497Y-138023261D01*
X145226488Y-138023258D01*
X145006697Y-137964366D01*
X145006693Y-137964365D01*
X145006692Y-137964365D01*
X145006691Y-137964364D01*
X145006686Y-137964364D01*
X144780002Y-137944532D01*
X144779998Y-137944532D01*
X144553313Y-137964364D01*
X144553302Y-137964366D01*
X144333511Y-138023258D01*
X144333502Y-138023261D01*
X144127267Y-138119431D01*
X144127265Y-138119432D01*
X143940858Y-138249954D01*
X143779954Y-138410858D01*
X143649432Y-138597265D01*
X143649431Y-138597267D01*
X143553261Y-138803502D01*
X143553258Y-138803511D01*
X143494366Y-139023302D01*
X143494364Y-139023312D01*
X143479500Y-139193216D01*
X143479500Y-140206784D01*
X120679998Y-140206784D01*
X120680000Y-140206763D01*
X120680000Y-139950000D01*
X119934874Y-139950000D01*
X119867835Y-139930315D01*
X119822080Y-139877511D01*
X119812136Y-139808353D01*
X119813983Y-139798407D01*
X119819882Y-139772560D01*
X119828768Y-139733630D01*
X119827345Y-139714636D01*
X119818049Y-139590594D01*
X119819821Y-139590461D01*
X119823408Y-139531864D01*
X119864701Y-139475502D01*
X119929911Y-139450413D01*
X119940029Y-139450000D01*
X120679999Y-139450000D01*
X120679999Y-139193236D01*
X120665141Y-139023400D01*
X120665139Y-139023389D01*
X120606269Y-138803682D01*
X120606265Y-138803673D01*
X120510134Y-138597517D01*
X120379657Y-138411179D01*
X120218820Y-138250342D01*
X120032482Y-138119865D01*
X119826328Y-138023734D01*
X119630000Y-137971127D01*
X119630000Y-139143411D01*
X119610315Y-139210450D01*
X119557511Y-139256205D01*
X119488353Y-139266149D01*
X119469451Y-139261902D01*
X119447075Y-139255000D01*
X119447073Y-139255000D01*
X119346654Y-139255000D01*
X119346646Y-139255000D01*
X119272480Y-139266179D01*
X119203255Y-139256706D01*
X119150141Y-139211311D01*
X119130002Y-139144406D01*
X119129999Y-139143564D01*
X119129999Y-137971127D01*
X118933671Y-138023734D01*
X118727517Y-138119865D01*
X118541179Y-138250342D01*
X118380342Y-138411179D01*
X118249867Y-138597515D01*
X118222657Y-138655867D01*
X118176484Y-138708306D01*
X118109290Y-138727457D01*
X118042409Y-138707241D01*
X117997893Y-138655865D01*
X117970570Y-138597271D01*
X117970567Y-138597265D01*
X117840045Y-138410858D01*
X117679141Y-138249954D01*
X117492734Y-138119432D01*
X117492732Y-138119431D01*
X117286497Y-138023261D01*
X117286488Y-138023258D01*
X117066697Y-137964366D01*
X117066693Y-137964365D01*
X117066692Y-137964365D01*
X117066691Y-137964364D01*
X117066686Y-137964364D01*
X116840002Y-137944532D01*
X116839998Y-137944532D01*
X116613313Y-137964364D01*
X116613302Y-137964366D01*
X116393511Y-138023258D01*
X116393502Y-138023261D01*
X116187267Y-138119431D01*
X116187265Y-138119432D01*
X116000858Y-138249954D01*
X115839954Y-138410858D01*
X115709432Y-138597265D01*
X115709431Y-138597267D01*
X115613261Y-138803502D01*
X115613258Y-138803511D01*
X115554366Y-139023302D01*
X115554364Y-139023312D01*
X115539500Y-139193216D01*
X115539500Y-140206784D01*
X89662000Y-140206784D01*
X89662000Y-135890005D01*
X90238529Y-135890005D01*
X90258379Y-136129559D01*
X90317389Y-136362589D01*
X90413951Y-136582729D01*
X90525568Y-136753570D01*
X90545429Y-136783969D01*
X90599310Y-136842500D01*
X90604952Y-136848628D01*
X90635874Y-136911283D01*
X90628014Y-136980709D01*
X90583867Y-137034864D01*
X90561179Y-137047170D01*
X90541162Y-137055462D01*
X90541159Y-137055463D01*
X90541159Y-137055464D01*
X90455336Y-137121318D01*
X90415718Y-137151718D01*
X90319463Y-137277160D01*
X90258956Y-137423237D01*
X90258955Y-137423239D01*
X90244158Y-137535639D01*
X90243501Y-137540636D01*
X90243500Y-137540645D01*
X90243500Y-139319363D01*
X90258953Y-139436753D01*
X90258956Y-139436762D01*
X90298348Y-139531864D01*
X90319464Y-139582841D01*
X90415718Y-139708282D01*
X90541159Y-139804536D01*
X90687238Y-139865044D01*
X90804639Y-139880500D01*
X92583360Y-139880499D01*
X92583363Y-139880499D01*
X92700753Y-139865046D01*
X92700757Y-139865044D01*
X92700762Y-139865044D01*
X92846841Y-139804536D01*
X92888514Y-139772558D01*
X92953680Y-139747365D01*
X93022125Y-139761403D01*
X93039485Y-139772559D01*
X93072179Y-139797645D01*
X93081159Y-139804536D01*
X93081161Y-139804536D01*
X93081163Y-139804538D01*
X93153844Y-139834643D01*
X93227238Y-139865044D01*
X93344639Y-139880500D01*
X95123360Y-139880499D01*
X95123363Y-139880499D01*
X95240753Y-139865046D01*
X95240757Y-139865044D01*
X95240762Y-139865044D01*
X95386841Y-139804536D01*
X95512282Y-139708282D01*
X95608536Y-139582841D01*
X95669044Y-139436762D01*
X95684500Y-139319361D01*
X95684499Y-137540640D01*
X95684499Y-137540639D01*
X95684499Y-137540636D01*
X95669046Y-137423246D01*
X95669044Y-137423239D01*
X95669044Y-137423238D01*
X95608536Y-137277159D01*
X95587313Y-137249500D01*
X102426453Y-137249500D01*
X102444592Y-137422076D01*
X102444593Y-137422079D01*
X102498212Y-137587108D01*
X102584977Y-137737387D01*
X102584976Y-137737387D01*
X102677888Y-137840576D01*
X102701090Y-137866345D01*
X102718291Y-137878842D01*
X102841476Y-137968342D01*
X102999995Y-138038920D01*
X103000001Y-138038922D01*
X103169736Y-138075000D01*
X103169737Y-138075000D01*
X103343262Y-138075000D01*
X103343264Y-138075000D01*
X103512999Y-138038922D01*
X103513001Y-138038920D01*
X103513004Y-138038920D01*
X103566399Y-138015146D01*
X103671524Y-137968342D01*
X103811910Y-137866345D01*
X103928022Y-137737389D01*
X103968084Y-137668000D01*
X127693953Y-137668000D01*
X127712092Y-137840576D01*
X127712093Y-137840579D01*
X127765712Y-138005608D01*
X127852477Y-138155887D01*
X127852476Y-138155887D01*
X127852478Y-138155889D01*
X127968590Y-138284845D01*
X128108976Y-138386841D01*
X128108976Y-138386842D01*
X128267495Y-138457420D01*
X128267501Y-138457422D01*
X128437236Y-138493500D01*
X128437237Y-138493500D01*
X128610762Y-138493500D01*
X128610764Y-138493500D01*
X128780499Y-138457422D01*
X128780501Y-138457420D01*
X128780504Y-138457420D01*
X128884362Y-138411179D01*
X128939024Y-138386842D01*
X129079410Y-138284845D01*
X129195522Y-138155889D01*
X129282286Y-138005611D01*
X129335908Y-137840576D01*
X129354047Y-137668000D01*
X129335908Y-137495424D01*
X129282286Y-137330389D01*
X129195522Y-137180111D01*
X129177414Y-137160000D01*
X130487953Y-137160000D01*
X130506092Y-137332576D01*
X130506093Y-137332579D01*
X130559712Y-137497608D01*
X130646477Y-137647887D01*
X130646476Y-137647887D01*
X130646478Y-137647889D01*
X130762590Y-137776845D01*
X130902976Y-137878841D01*
X130902976Y-137878842D01*
X131061495Y-137949420D01*
X131061501Y-137949422D01*
X131231236Y-137985500D01*
X131231237Y-137985500D01*
X131404762Y-137985500D01*
X131404764Y-137985500D01*
X131574499Y-137949422D01*
X131574501Y-137949420D01*
X131574504Y-137949420D01*
X131627899Y-137925646D01*
X131733024Y-137878842D01*
X131873410Y-137776845D01*
X131989522Y-137647889D01*
X132076286Y-137497611D01*
X132129908Y-137332576D01*
X132148047Y-137160000D01*
X134805953Y-137160000D01*
X134824092Y-137332576D01*
X134824093Y-137332579D01*
X134877712Y-137497608D01*
X134964477Y-137647887D01*
X134964476Y-137647887D01*
X134964478Y-137647889D01*
X135080590Y-137776845D01*
X135220976Y-137878841D01*
X135220976Y-137878842D01*
X135379495Y-137949420D01*
X135379501Y-137949422D01*
X135549236Y-137985500D01*
X135549237Y-137985500D01*
X135722762Y-137985500D01*
X135722764Y-137985500D01*
X135892499Y-137949422D01*
X135892501Y-137949420D01*
X135892504Y-137949420D01*
X135945899Y-137925646D01*
X136051024Y-137878842D01*
X136191410Y-137776845D01*
X136307522Y-137647889D01*
X136394286Y-137497611D01*
X136447908Y-137332576D01*
X136466047Y-137160000D01*
X136447908Y-136987424D01*
X136407430Y-136862842D01*
X136394287Y-136822391D01*
X136394286Y-136822389D01*
X136307522Y-136672111D01*
X136227043Y-136582729D01*
X136191411Y-136543156D01*
X136051023Y-136441157D01*
X135892504Y-136370579D01*
X135892498Y-136370577D01*
X135758840Y-136342168D01*
X135722764Y-136334500D01*
X135549236Y-136334500D01*
X135519483Y-136340824D01*
X135379501Y-136370577D01*
X135379496Y-136370579D01*
X135220977Y-136441157D01*
X135220972Y-136441160D01*
X135080591Y-136543153D01*
X135080589Y-136543155D01*
X134964477Y-136672112D01*
X134877712Y-136822391D01*
X134825642Y-136982653D01*
X134824092Y-136987424D01*
X134805953Y-137160000D01*
X132148047Y-137160000D01*
X132129908Y-136987424D01*
X132089430Y-136862842D01*
X132076287Y-136822391D01*
X132076286Y-136822389D01*
X131989522Y-136672111D01*
X131909043Y-136582729D01*
X131873411Y-136543156D01*
X131733023Y-136441157D01*
X131574504Y-136370579D01*
X131574498Y-136370577D01*
X131440840Y-136342168D01*
X131404764Y-136334500D01*
X131231236Y-136334500D01*
X131201483Y-136340824D01*
X131061501Y-136370577D01*
X131061496Y-136370579D01*
X130902977Y-136441157D01*
X130902972Y-136441160D01*
X130762591Y-136543153D01*
X130762589Y-136543155D01*
X130646477Y-136672112D01*
X130559712Y-136822391D01*
X130507642Y-136982653D01*
X130506092Y-136987424D01*
X130487953Y-137160000D01*
X129177414Y-137160000D01*
X129102613Y-137076924D01*
X129079411Y-137051156D01*
X129078457Y-137050463D01*
X128967022Y-136969500D01*
X128939023Y-136949157D01*
X128780504Y-136878579D01*
X128780498Y-136878577D01*
X128639589Y-136848627D01*
X128610764Y-136842500D01*
X128437236Y-136842500D01*
X128408411Y-136848627D01*
X128267501Y-136878577D01*
X128267496Y-136878579D01*
X128108977Y-136949157D01*
X128108972Y-136949160D01*
X127968591Y-137051153D01*
X127968589Y-137051155D01*
X127852477Y-137180112D01*
X127765712Y-137330391D01*
X127712093Y-137495420D01*
X127712092Y-137495424D01*
X127693953Y-137668000D01*
X103968084Y-137668000D01*
X104014786Y-137587111D01*
X104068408Y-137422076D01*
X104086547Y-137249500D01*
X104068408Y-137076924D01*
X104022956Y-136937034D01*
X104014787Y-136911891D01*
X103995554Y-136878579D01*
X103928022Y-136761611D01*
X103927331Y-136760843D01*
X103811911Y-136632656D01*
X103810855Y-136631889D01*
X103736310Y-136577728D01*
X103671523Y-136530657D01*
X103513004Y-136460079D01*
X103512998Y-136460077D01*
X103379341Y-136431668D01*
X103343264Y-136424000D01*
X103169736Y-136424000D01*
X103139983Y-136430324D01*
X103000001Y-136460077D01*
X102999996Y-136460079D01*
X102841477Y-136530657D01*
X102841472Y-136530660D01*
X102701091Y-136632653D01*
X102701089Y-136632655D01*
X102584977Y-136761612D01*
X102498212Y-136911891D01*
X102444593Y-137076920D01*
X102444592Y-137076924D01*
X102426453Y-137249500D01*
X95587313Y-137249500D01*
X95512282Y-137151718D01*
X95386841Y-137055464D01*
X95386840Y-137055463D01*
X95386838Y-137055462D01*
X95366822Y-137047171D01*
X95312419Y-137003329D01*
X95290356Y-136937034D01*
X95307637Y-136869335D01*
X95323042Y-136848634D01*
X95382571Y-136783969D01*
X95514049Y-136582728D01*
X95610610Y-136362591D01*
X95665964Y-136144000D01*
X98229953Y-136144000D01*
X98248092Y-136316576D01*
X98248093Y-136316579D01*
X98301712Y-136481608D01*
X98388477Y-136631887D01*
X98388476Y-136631887D01*
X98498040Y-136753570D01*
X98504590Y-136760845D01*
X98612071Y-136838935D01*
X98644976Y-136862842D01*
X98803495Y-136933420D01*
X98803501Y-136933422D01*
X98973236Y-136969500D01*
X98973237Y-136969500D01*
X99146762Y-136969500D01*
X99146764Y-136969500D01*
X99316499Y-136933422D01*
X99316501Y-136933420D01*
X99316504Y-136933420D01*
X99439680Y-136878578D01*
X99475024Y-136862842D01*
X99615410Y-136760845D01*
X99731522Y-136631889D01*
X99818286Y-136481611D01*
X99871908Y-136316576D01*
X99890047Y-136144000D01*
X99871908Y-135971424D01*
X99835573Y-135859594D01*
X99818287Y-135806391D01*
X99768182Y-135719608D01*
X99731522Y-135656111D01*
X99615410Y-135527155D01*
X99538808Y-135471500D01*
X101410453Y-135471500D01*
X101428592Y-135644076D01*
X101428593Y-135644079D01*
X101482212Y-135809108D01*
X101568977Y-135959387D01*
X101568976Y-135959387D01*
X101568978Y-135959389D01*
X101685090Y-136088345D01*
X101761692Y-136144000D01*
X101825476Y-136190342D01*
X101983995Y-136260920D01*
X101984001Y-136260922D01*
X102153736Y-136297000D01*
X102153737Y-136297000D01*
X102327262Y-136297000D01*
X102327264Y-136297000D01*
X102496999Y-136260922D01*
X102497001Y-136260920D01*
X102497004Y-136260920D01*
X102550399Y-136237146D01*
X102655524Y-136190342D01*
X102795910Y-136088345D01*
X102912022Y-135959389D01*
X102998786Y-135809111D01*
X103052408Y-135644076D01*
X103070547Y-135471500D01*
X103052408Y-135298924D01*
X102998786Y-135133889D01*
X102912022Y-134983611D01*
X102813328Y-134874000D01*
X105341953Y-134874000D01*
X105360092Y-135046576D01*
X105360093Y-135046579D01*
X105413712Y-135211608D01*
X105413714Y-135211611D01*
X105496256Y-135354577D01*
X105500477Y-135361887D01*
X105500476Y-135361887D01*
X105557445Y-135425157D01*
X105616590Y-135490845D01*
X105666568Y-135527156D01*
X105756976Y-135592842D01*
X105915495Y-135663420D01*
X105915501Y-135663422D01*
X106085236Y-135699500D01*
X106085237Y-135699500D01*
X106258762Y-135699500D01*
X106258764Y-135699500D01*
X106428499Y-135663422D01*
X106428501Y-135663420D01*
X106428504Y-135663420D01*
X106525943Y-135620037D01*
X106587024Y-135592842D01*
X106727410Y-135490845D01*
X106825414Y-135382000D01*
X129471953Y-135382000D01*
X129490092Y-135554576D01*
X129490093Y-135554579D01*
X129543712Y-135719608D01*
X129543714Y-135719611D01*
X129624540Y-135859605D01*
X129630477Y-135869887D01*
X129630476Y-135869887D01*
X129721897Y-135971420D01*
X129746590Y-135998845D01*
X129884660Y-136099159D01*
X129886976Y-136100842D01*
X130045495Y-136171420D01*
X130045501Y-136171422D01*
X130215236Y-136207500D01*
X130215237Y-136207500D01*
X130388762Y-136207500D01*
X130388764Y-136207500D01*
X130558499Y-136171422D01*
X130558501Y-136171420D01*
X130558504Y-136171420D01*
X130620090Y-136144000D01*
X130717024Y-136100842D01*
X130857410Y-135998845D01*
X130973522Y-135869889D01*
X131060286Y-135719611D01*
X131113908Y-135554576D01*
X131132047Y-135382000D01*
X131113908Y-135209424D01*
X131068074Y-135068358D01*
X131060287Y-135044391D01*
X131053108Y-135031956D01*
X130973522Y-134894111D01*
X130878678Y-134788775D01*
X130857411Y-134765156D01*
X130717023Y-134663157D01*
X130558504Y-134592579D01*
X130558498Y-134592577D01*
X130391671Y-134557118D01*
X130388764Y-134556500D01*
X130215236Y-134556500D01*
X130212329Y-134557118D01*
X130045501Y-134592577D01*
X130045496Y-134592579D01*
X129886977Y-134663157D01*
X129886972Y-134663160D01*
X129746591Y-134765153D01*
X129746589Y-134765155D01*
X129630477Y-134894112D01*
X129543712Y-135044391D01*
X129494041Y-135197270D01*
X129490092Y-135209424D01*
X129471953Y-135382000D01*
X106825414Y-135382000D01*
X106843522Y-135361889D01*
X106930286Y-135211611D01*
X106983908Y-135046576D01*
X107002047Y-134874000D01*
X106983908Y-134701424D01*
X106948160Y-134591400D01*
X106930287Y-134536391D01*
X106919984Y-134518546D01*
X106843522Y-134386111D01*
X106727410Y-134257155D01*
X106587024Y-134155158D01*
X106587023Y-134155157D01*
X106428504Y-134084579D01*
X106428498Y-134084577D01*
X106294840Y-134056168D01*
X106258764Y-134048500D01*
X106085236Y-134048500D01*
X106075841Y-134050497D01*
X105915501Y-134084577D01*
X105915496Y-134084579D01*
X105756977Y-134155157D01*
X105756972Y-134155160D01*
X105616591Y-134257153D01*
X105616589Y-134257155D01*
X105500477Y-134386112D01*
X105413712Y-134536391D01*
X105366377Y-134682079D01*
X105360092Y-134701424D01*
X105341953Y-134874000D01*
X102813328Y-134874000D01*
X102795910Y-134854655D01*
X102725716Y-134803656D01*
X102655523Y-134752657D01*
X102497004Y-134682079D01*
X102496998Y-134682077D01*
X102363340Y-134653668D01*
X102327264Y-134646000D01*
X102153736Y-134646000D01*
X102123983Y-134652324D01*
X101984001Y-134682077D01*
X101983996Y-134682079D01*
X101825477Y-134752657D01*
X101825472Y-134752660D01*
X101685091Y-134854653D01*
X101685089Y-134854655D01*
X101568977Y-134983612D01*
X101482212Y-135133891D01*
X101428593Y-135298920D01*
X101428592Y-135298924D01*
X101410453Y-135471500D01*
X99538808Y-135471500D01*
X99475024Y-135425158D01*
X99475023Y-135425157D01*
X99316504Y-135354579D01*
X99316498Y-135354577D01*
X99182841Y-135326168D01*
X99146764Y-135318500D01*
X98973236Y-135318500D01*
X98943483Y-135324824D01*
X98803501Y-135354577D01*
X98803496Y-135354579D01*
X98644977Y-135425157D01*
X98644972Y-135425160D01*
X98504591Y-135527153D01*
X98504589Y-135527155D01*
X98388477Y-135656112D01*
X98301712Y-135806391D01*
X98252003Y-135959387D01*
X98248092Y-135971424D01*
X98229953Y-136144000D01*
X95665964Y-136144000D01*
X95669620Y-136129563D01*
X95683721Y-135959389D01*
X95689471Y-135890005D01*
X95689471Y-135889994D01*
X95675352Y-135719608D01*
X95669620Y-135650437D01*
X95610610Y-135417409D01*
X95514049Y-135197272D01*
X95510782Y-135192272D01*
X95382572Y-134996033D01*
X95382571Y-134996031D01*
X95219764Y-134819175D01*
X95030067Y-134671528D01*
X95030066Y-134671527D01*
X95030063Y-134671525D01*
X95030056Y-134671521D01*
X95020566Y-134666385D01*
X94970977Y-134617164D01*
X94955872Y-134548946D01*
X94980046Y-134483392D01*
X95008465Y-134455758D01*
X95105080Y-134388107D01*
X95272105Y-134221082D01*
X95407600Y-134027578D01*
X95507429Y-133813492D01*
X95507432Y-133813486D01*
X95563564Y-133604001D01*
X110614532Y-133604001D01*
X110634364Y-133830686D01*
X110634366Y-133830697D01*
X110693258Y-134050488D01*
X110693261Y-134050497D01*
X110789431Y-134256732D01*
X110789432Y-134256734D01*
X110919954Y-134443141D01*
X111080858Y-134604045D01*
X111080861Y-134604047D01*
X111267266Y-134734568D01*
X111473504Y-134830739D01*
X111693308Y-134889635D01*
X111855230Y-134903801D01*
X111919998Y-134909468D01*
X111920000Y-134909468D01*
X111920002Y-134909468D01*
X111976673Y-134904509D01*
X112146692Y-134889635D01*
X112366496Y-134830739D01*
X112572734Y-134734568D01*
X112759139Y-134604047D01*
X112920047Y-134443139D01*
X113050568Y-134256734D01*
X113146739Y-134050496D01*
X113205635Y-133830692D01*
X113225468Y-133604001D01*
X115614532Y-133604001D01*
X115634364Y-133830686D01*
X115634366Y-133830697D01*
X115693258Y-134050488D01*
X115693261Y-134050497D01*
X115789431Y-134256732D01*
X115789432Y-134256734D01*
X115919954Y-134443141D01*
X116080858Y-134604045D01*
X116080861Y-134604047D01*
X116267266Y-134734568D01*
X116473504Y-134830739D01*
X116693308Y-134889635D01*
X116855230Y-134903801D01*
X116919998Y-134909468D01*
X116920000Y-134909468D01*
X116920002Y-134909468D01*
X116976672Y-134904509D01*
X117146692Y-134889635D01*
X117366496Y-134830739D01*
X117572734Y-134734568D01*
X117759139Y-134604047D01*
X117920047Y-134443139D01*
X118050568Y-134256734D01*
X118146739Y-134050496D01*
X118205635Y-133830692D01*
X118225468Y-133604001D01*
X138554532Y-133604001D01*
X138574364Y-133830686D01*
X138574366Y-133830697D01*
X138633258Y-134050488D01*
X138633261Y-134050497D01*
X138729431Y-134256732D01*
X138729432Y-134256734D01*
X138859954Y-134443141D01*
X139020858Y-134604045D01*
X139020861Y-134604047D01*
X139207266Y-134734568D01*
X139413504Y-134830739D01*
X139633308Y-134889635D01*
X139795230Y-134903801D01*
X139859998Y-134909468D01*
X139860000Y-134909468D01*
X139860002Y-134909468D01*
X139916673Y-134904509D01*
X140086692Y-134889635D01*
X140306496Y-134830739D01*
X140512734Y-134734568D01*
X140699139Y-134604047D01*
X140860047Y-134443139D01*
X140990568Y-134256734D01*
X141086739Y-134050496D01*
X141145635Y-133830692D01*
X141165468Y-133604001D01*
X143554532Y-133604001D01*
X143574364Y-133830686D01*
X143574366Y-133830697D01*
X143633258Y-134050488D01*
X143633261Y-134050497D01*
X143729431Y-134256732D01*
X143729432Y-134256734D01*
X143859954Y-134443141D01*
X144020858Y-134604045D01*
X144020861Y-134604047D01*
X144207266Y-134734568D01*
X144413504Y-134830739D01*
X144633308Y-134889635D01*
X144795230Y-134903801D01*
X144859998Y-134909468D01*
X144860000Y-134909468D01*
X144860002Y-134909468D01*
X144916673Y-134904509D01*
X145086692Y-134889635D01*
X145306496Y-134830739D01*
X145512734Y-134734568D01*
X145699139Y-134604047D01*
X145860047Y-134443139D01*
X145990568Y-134256734D01*
X146086739Y-134050496D01*
X146145635Y-133830692D01*
X146165468Y-133604000D01*
X146145635Y-133377308D01*
X146090754Y-133172489D01*
X146086741Y-133157511D01*
X146086738Y-133157502D01*
X146071715Y-133125286D01*
X145990568Y-132951266D01*
X145860047Y-132764861D01*
X145860045Y-132764858D01*
X145699141Y-132603954D01*
X145512734Y-132473432D01*
X145512732Y-132473431D01*
X145306497Y-132377261D01*
X145306488Y-132377258D01*
X145086697Y-132318366D01*
X145086693Y-132318365D01*
X145086692Y-132318365D01*
X145086691Y-132318364D01*
X145086686Y-132318364D01*
X144860002Y-132298532D01*
X144859998Y-132298532D01*
X144633313Y-132318364D01*
X144633302Y-132318366D01*
X144413511Y-132377258D01*
X144413502Y-132377261D01*
X144207267Y-132473431D01*
X144207265Y-132473432D01*
X144020858Y-132603954D01*
X143859954Y-132764858D01*
X143729432Y-132951265D01*
X143729431Y-132951267D01*
X143633261Y-133157502D01*
X143633258Y-133157511D01*
X143574366Y-133377302D01*
X143574364Y-133377313D01*
X143554532Y-133603998D01*
X143554532Y-133604001D01*
X141165468Y-133604001D01*
X141165468Y-133604000D01*
X141145635Y-133377308D01*
X141090754Y-133172489D01*
X141086741Y-133157511D01*
X141086738Y-133157502D01*
X141071715Y-133125286D01*
X140990568Y-132951266D01*
X140860047Y-132764861D01*
X140860045Y-132764858D01*
X140699141Y-132603954D01*
X140512734Y-132473432D01*
X140512732Y-132473431D01*
X140306497Y-132377261D01*
X140306488Y-132377258D01*
X140086697Y-132318366D01*
X140086693Y-132318365D01*
X140086692Y-132318365D01*
X140086691Y-132318364D01*
X140086686Y-132318364D01*
X139860002Y-132298532D01*
X139859998Y-132298532D01*
X139633313Y-132318364D01*
X139633302Y-132318366D01*
X139413511Y-132377258D01*
X139413502Y-132377261D01*
X139207267Y-132473431D01*
X139207265Y-132473432D01*
X139020858Y-132603954D01*
X138859954Y-132764858D01*
X138729432Y-132951265D01*
X138729431Y-132951267D01*
X138633261Y-133157502D01*
X138633258Y-133157511D01*
X138574366Y-133377302D01*
X138574364Y-133377313D01*
X138554532Y-133603998D01*
X138554532Y-133604001D01*
X118225468Y-133604001D01*
X118225468Y-133604000D01*
X118205635Y-133377308D01*
X118150754Y-133172489D01*
X118146741Y-133157511D01*
X118146738Y-133157502D01*
X118131715Y-133125286D01*
X118050568Y-132951266D01*
X117920047Y-132764861D01*
X117920045Y-132764858D01*
X117759141Y-132603954D01*
X117572734Y-132473432D01*
X117572732Y-132473431D01*
X117366497Y-132377261D01*
X117366488Y-132377258D01*
X117146697Y-132318366D01*
X117146693Y-132318365D01*
X117146692Y-132318365D01*
X117146691Y-132318364D01*
X117146686Y-132318364D01*
X116920002Y-132298532D01*
X116919998Y-132298532D01*
X116693313Y-132318364D01*
X116693302Y-132318366D01*
X116473511Y-132377258D01*
X116473502Y-132377261D01*
X116267267Y-132473431D01*
X116267265Y-132473432D01*
X116080858Y-132603954D01*
X115919954Y-132764858D01*
X115789432Y-132951265D01*
X115789431Y-132951267D01*
X115693261Y-133157502D01*
X115693258Y-133157511D01*
X115634366Y-133377302D01*
X115634364Y-133377313D01*
X115614532Y-133603998D01*
X115614532Y-133604001D01*
X113225468Y-133604001D01*
X113225468Y-133604000D01*
X113205635Y-133377308D01*
X113150754Y-133172489D01*
X113146741Y-133157511D01*
X113146738Y-133157502D01*
X113131715Y-133125286D01*
X113050568Y-132951266D01*
X112920047Y-132764861D01*
X112920045Y-132764858D01*
X112759141Y-132603954D01*
X112572734Y-132473432D01*
X112572732Y-132473431D01*
X112366497Y-132377261D01*
X112366488Y-132377258D01*
X112146697Y-132318366D01*
X112146693Y-132318365D01*
X112146692Y-132318365D01*
X112146691Y-132318364D01*
X112146686Y-132318364D01*
X111920002Y-132298532D01*
X111919998Y-132298532D01*
X111693313Y-132318364D01*
X111693302Y-132318366D01*
X111473511Y-132377258D01*
X111473502Y-132377261D01*
X111267267Y-132473431D01*
X111267265Y-132473432D01*
X111080858Y-132603954D01*
X110919954Y-132764858D01*
X110789432Y-132951265D01*
X110789431Y-132951267D01*
X110693261Y-133157502D01*
X110693258Y-133157511D01*
X110634366Y-133377302D01*
X110634364Y-133377313D01*
X110614532Y-133603998D01*
X110614532Y-133604001D01*
X95563564Y-133604001D01*
X95564636Y-133600000D01*
X94847347Y-133600000D01*
X94780308Y-133580315D01*
X94734553Y-133527511D01*
X94724609Y-133458353D01*
X94728369Y-133441067D01*
X94734000Y-133421888D01*
X94734000Y-133278111D01*
X94728369Y-133258933D01*
X94728370Y-133189064D01*
X94766145Y-133130286D01*
X94829701Y-133101262D01*
X94847347Y-133100000D01*
X95564636Y-133100000D01*
X95564635Y-133099999D01*
X95507432Y-132886513D01*
X95507429Y-132886507D01*
X95407600Y-132672422D01*
X95407599Y-132672420D01*
X95272113Y-132478926D01*
X95272108Y-132478920D01*
X95144603Y-132351415D01*
X95111118Y-132290092D01*
X95116102Y-132220400D01*
X95157974Y-132164467D01*
X95216011Y-132140807D01*
X95883783Y-132052426D01*
X96007613Y-132036037D01*
X96015756Y-132035500D01*
X100025019Y-132035500D01*
X100092058Y-132055185D01*
X100112700Y-132071819D01*
X100716313Y-132675432D01*
X100720950Y-132680620D01*
X100737308Y-132701133D01*
X100744635Y-132710320D01*
X100795046Y-132754363D01*
X100798088Y-132757207D01*
X100806354Y-132765473D01*
X100838066Y-132791948D01*
X100910758Y-132855457D01*
X100914262Y-132857550D01*
X100930127Y-132868806D01*
X100933276Y-132871435D01*
X101017256Y-132919087D01*
X101071112Y-132951265D01*
X101100128Y-132968601D01*
X101100130Y-132968602D01*
X101103951Y-132970036D01*
X101121584Y-132978285D01*
X101125135Y-132980300D01*
X101216263Y-133012186D01*
X101306654Y-133046111D01*
X101310674Y-133046840D01*
X101329491Y-133051806D01*
X101333350Y-133053157D01*
X101428691Y-133068257D01*
X101448875Y-133071920D01*
X101523700Y-133085500D01*
X101523703Y-133085500D01*
X101527797Y-133085500D01*
X101547194Y-133087027D01*
X101547713Y-133087109D01*
X101551229Y-133087666D01*
X101647731Y-133085500D01*
X103740625Y-133085500D01*
X103747563Y-133085889D01*
X103785316Y-133090143D01*
X103785318Y-133090142D01*
X103785319Y-133090143D01*
X103801359Y-133089061D01*
X103852114Y-133085639D01*
X103856268Y-133085500D01*
X103867951Y-133085500D01*
X103867957Y-133085500D01*
X103906172Y-133082060D01*
X103909088Y-133081798D01*
X103914489Y-133081433D01*
X104005410Y-133075304D01*
X104009372Y-133074305D01*
X104028567Y-133071044D01*
X104032631Y-133070679D01*
X104125675Y-133045000D01*
X104219318Y-133021405D01*
X104223039Y-133019714D01*
X104241346Y-133013077D01*
X104245275Y-133011993D01*
X104332229Y-132970118D01*
X104373733Y-132951266D01*
X104420154Y-132930181D01*
X104420157Y-132930178D01*
X104420164Y-132930176D01*
X104423526Y-132927846D01*
X104440347Y-132918051D01*
X104444023Y-132916281D01*
X104522109Y-132859547D01*
X104601493Y-132804551D01*
X104604379Y-132801663D01*
X104619190Y-132789014D01*
X104622488Y-132786619D01*
X104689193Y-132716850D01*
X104957523Y-132448520D01*
X105339225Y-132066819D01*
X105400548Y-132033334D01*
X105426906Y-132030500D01*
X153156445Y-132030500D01*
X153164588Y-132031037D01*
X153184014Y-132033608D01*
X153956188Y-132135807D01*
X154020062Y-132164116D01*
X154058493Y-132222467D01*
X154059276Y-132292333D01*
X154027597Y-132346415D01*
X153900086Y-132473926D01*
X153764600Y-132667420D01*
X153764599Y-132667422D01*
X153664770Y-132881507D01*
X153664767Y-132881513D01*
X153607564Y-133094999D01*
X153607564Y-133095000D01*
X154324853Y-133095000D01*
X154391892Y-133114685D01*
X154437647Y-133167489D01*
X154447591Y-133236647D01*
X154443831Y-133253933D01*
X154438200Y-133273111D01*
X154438200Y-133416888D01*
X154443831Y-133436067D01*
X154443830Y-133505936D01*
X154406055Y-133564714D01*
X154342499Y-133593738D01*
X154324853Y-133595000D01*
X153607564Y-133595000D01*
X153664767Y-133808486D01*
X153664770Y-133808492D01*
X153764599Y-134022578D01*
X153900094Y-134216082D01*
X154067117Y-134383105D01*
X154163735Y-134450758D01*
X154207359Y-134505335D01*
X154214552Y-134574834D01*
X154183030Y-134637188D01*
X154151636Y-134661383D01*
X154142148Y-134666518D01*
X154142136Y-134666525D01*
X153952437Y-134814174D01*
X153789630Y-134991029D01*
X153789627Y-134991033D01*
X153658151Y-135192270D01*
X153561589Y-135412410D01*
X153502579Y-135645440D01*
X153482729Y-135884994D01*
X153482729Y-135885005D01*
X153502579Y-136124559D01*
X153561589Y-136357589D01*
X153658151Y-136577729D01*
X153777787Y-136760843D01*
X153789629Y-136778969D01*
X153848113Y-136842500D01*
X153849152Y-136843628D01*
X153880074Y-136906283D01*
X153872214Y-136975709D01*
X153828067Y-137029864D01*
X153805379Y-137042170D01*
X153785362Y-137050462D01*
X153785359Y-137050463D01*
X153785359Y-137050464D01*
X153750881Y-137076920D01*
X153659918Y-137146718D01*
X153563663Y-137272160D01*
X153503156Y-137418237D01*
X153503155Y-137418239D01*
X153487701Y-137535629D01*
X153487700Y-137535645D01*
X153487700Y-139314363D01*
X153503153Y-139431753D01*
X153503156Y-139431762D01*
X153510881Y-139450413D01*
X153563664Y-139577841D01*
X153659918Y-139703282D01*
X153785359Y-139799536D01*
X153931438Y-139860044D01*
X154048839Y-139875500D01*
X155827560Y-139875499D01*
X155827563Y-139875499D01*
X155944953Y-139860046D01*
X155944957Y-139860044D01*
X155944962Y-139860044D01*
X156091041Y-139799536D01*
X156150165Y-139754168D01*
X156215333Y-139728974D01*
X156283778Y-139743012D01*
X156301128Y-139754162D01*
X156327159Y-139774136D01*
X156473238Y-139834644D01*
X156590639Y-139850100D01*
X158369360Y-139850099D01*
X158369363Y-139850099D01*
X158486753Y-139834646D01*
X158486757Y-139834644D01*
X158486762Y-139834644D01*
X158632841Y-139774136D01*
X158758282Y-139677882D01*
X158854536Y-139552441D01*
X158915044Y-139406362D01*
X158930500Y-139288961D01*
X158930499Y-137510240D01*
X158930499Y-137510236D01*
X158915046Y-137392846D01*
X158915044Y-137392841D01*
X158915044Y-137392838D01*
X158854536Y-137246759D01*
X158758282Y-137121318D01*
X158632841Y-137025064D01*
X158632840Y-137025063D01*
X158632838Y-137025062D01*
X158612822Y-137016771D01*
X158558419Y-136972929D01*
X158536356Y-136906634D01*
X158553637Y-136838935D01*
X158569042Y-136818234D01*
X158628571Y-136753569D01*
X158760049Y-136552328D01*
X158856610Y-136332191D01*
X158915620Y-136099163D01*
X158932952Y-135890000D01*
X158935471Y-135859605D01*
X158935471Y-135859594D01*
X158915620Y-135620040D01*
X158915620Y-135620037D01*
X158856610Y-135387009D01*
X158760049Y-135166872D01*
X158738501Y-135133891D01*
X158691179Y-135061459D01*
X158628571Y-134965631D01*
X158465764Y-134788775D01*
X158276067Y-134641128D01*
X158276066Y-134641127D01*
X158276063Y-134641125D01*
X158276056Y-134641121D01*
X158266566Y-134635985D01*
X158216977Y-134586764D01*
X158201872Y-134518546D01*
X158226046Y-134452992D01*
X158254465Y-134425358D01*
X158351080Y-134357707D01*
X158518105Y-134190682D01*
X158653600Y-133997178D01*
X158753429Y-133783092D01*
X158753432Y-133783086D01*
X158810636Y-133569600D01*
X158093347Y-133569600D01*
X158026308Y-133549915D01*
X157980553Y-133497111D01*
X157970609Y-133427953D01*
X157974369Y-133410667D01*
X157980000Y-133391488D01*
X157980000Y-133247711D01*
X157974369Y-133228533D01*
X157974370Y-133158664D01*
X158012145Y-133099886D01*
X158075701Y-133070862D01*
X158093347Y-133069600D01*
X158810636Y-133069600D01*
X158810635Y-133069599D01*
X158753432Y-132856113D01*
X158753429Y-132856107D01*
X158653600Y-132642022D01*
X158653599Y-132642020D01*
X158518113Y-132448526D01*
X158518108Y-132448520D01*
X158351078Y-132281490D01*
X158254464Y-132213839D01*
X158210839Y-132159262D01*
X158203647Y-132089763D01*
X158235170Y-132027409D01*
X158266572Y-132003210D01*
X158276067Y-131998072D01*
X158465764Y-131850425D01*
X158628571Y-131673569D01*
X158760049Y-131472328D01*
X158856610Y-131252191D01*
X158915620Y-131019163D01*
X158932952Y-130810000D01*
X158935471Y-130779605D01*
X158935471Y-130779594D01*
X158915620Y-130540040D01*
X158915620Y-130540037D01*
X158856610Y-130307009D01*
X158760049Y-130086872D01*
X158628571Y-129885631D01*
X158465764Y-129708775D01*
X158335585Y-129607452D01*
X158294773Y-129550743D01*
X158291098Y-129480970D01*
X158325730Y-129420287D01*
X158335579Y-129411751D01*
X158465764Y-129310425D01*
X158628571Y-129133569D01*
X158760049Y-128932328D01*
X158856610Y-128712191D01*
X158915620Y-128479163D01*
X158925836Y-128355872D01*
X158935471Y-128239605D01*
X158935471Y-128239594D01*
X158921858Y-128075321D01*
X158915620Y-128000037D01*
X158856610Y-127767009D01*
X158760049Y-127546872D01*
X158628571Y-127345631D01*
X158465764Y-127168775D01*
X158276067Y-127021128D01*
X158276066Y-127021127D01*
X158276063Y-127021125D01*
X158276056Y-127021121D01*
X158266566Y-127015985D01*
X158216977Y-126966764D01*
X158201872Y-126898546D01*
X158226046Y-126832992D01*
X158254465Y-126805358D01*
X158351080Y-126737707D01*
X158518105Y-126570682D01*
X158653600Y-126377178D01*
X158753429Y-126163092D01*
X158753432Y-126163086D01*
X158810636Y-125949600D01*
X158093347Y-125949600D01*
X158026308Y-125929915D01*
X157980553Y-125877111D01*
X157970609Y-125807953D01*
X157974369Y-125790667D01*
X157980000Y-125771488D01*
X157980000Y-125627711D01*
X157974369Y-125608533D01*
X157974370Y-125538664D01*
X158012145Y-125479886D01*
X158075701Y-125450862D01*
X158093347Y-125449600D01*
X158810636Y-125449600D01*
X158810635Y-125449599D01*
X158753432Y-125236113D01*
X158753429Y-125236107D01*
X158653600Y-125022022D01*
X158653599Y-125022020D01*
X158518113Y-124828526D01*
X158518108Y-124828520D01*
X158351078Y-124661490D01*
X158254464Y-124593839D01*
X158210839Y-124539262D01*
X158203647Y-124469763D01*
X158235170Y-124407409D01*
X158266572Y-124383210D01*
X158276067Y-124378072D01*
X158280346Y-124374742D01*
X158339768Y-124328491D01*
X158465764Y-124230425D01*
X158628571Y-124053569D01*
X158760049Y-123852328D01*
X158856610Y-123632191D01*
X158915620Y-123399163D01*
X158932952Y-123190000D01*
X158935471Y-123159605D01*
X158935471Y-123159594D01*
X158915620Y-122920040D01*
X158915620Y-122920037D01*
X158856610Y-122687009D01*
X158760049Y-122466872D01*
X158628571Y-122265631D01*
X158465764Y-122088775D01*
X158335585Y-121987452D01*
X158294773Y-121930743D01*
X158291098Y-121860970D01*
X158325730Y-121800287D01*
X158335585Y-121791747D01*
X158465764Y-121690425D01*
X158628571Y-121513569D01*
X158760049Y-121312328D01*
X158856610Y-121092191D01*
X158915620Y-120859163D01*
X158932952Y-120650000D01*
X158935471Y-120619605D01*
X158935471Y-120619594D01*
X158915620Y-120380040D01*
X158915620Y-120380037D01*
X158856610Y-120147009D01*
X158760049Y-119926872D01*
X158628571Y-119725631D01*
X158465764Y-119548775D01*
X158335585Y-119447452D01*
X158294773Y-119390743D01*
X158291098Y-119320970D01*
X158325730Y-119260287D01*
X158335585Y-119251747D01*
X158465764Y-119150425D01*
X158628571Y-118973569D01*
X158760049Y-118772328D01*
X158856610Y-118552191D01*
X158915620Y-118319163D01*
X158932952Y-118110000D01*
X158935471Y-118079605D01*
X158935471Y-118079594D01*
X158915620Y-117840040D01*
X158915620Y-117840037D01*
X158856610Y-117607009D01*
X158760049Y-117386872D01*
X158628571Y-117185631D01*
X158465764Y-117008775D01*
X158335585Y-116907452D01*
X158294773Y-116850743D01*
X158291098Y-116780970D01*
X158325730Y-116720287D01*
X158335585Y-116711747D01*
X158465764Y-116610425D01*
X158628571Y-116433569D01*
X158760049Y-116232328D01*
X158856610Y-116012191D01*
X158915620Y-115779163D01*
X158932952Y-115570000D01*
X158935471Y-115539605D01*
X158935471Y-115539594D01*
X158915620Y-115300040D01*
X158915620Y-115300037D01*
X158856610Y-115067009D01*
X158760049Y-114846872D01*
X158628571Y-114645631D01*
X158465764Y-114468775D01*
X158335585Y-114367452D01*
X158294773Y-114310743D01*
X158291098Y-114240970D01*
X158325730Y-114180287D01*
X158335585Y-114171747D01*
X158465764Y-114070425D01*
X158628571Y-113893569D01*
X158760049Y-113692328D01*
X158856610Y-113472191D01*
X158915620Y-113239163D01*
X158932952Y-113030000D01*
X158935471Y-112999605D01*
X158935471Y-112999594D01*
X158915620Y-112760040D01*
X158915620Y-112760037D01*
X158856610Y-112527009D01*
X158760049Y-112306872D01*
X158628571Y-112105631D01*
X158465764Y-111928775D01*
X158335585Y-111827452D01*
X158294773Y-111770743D01*
X158291098Y-111700970D01*
X158325730Y-111640287D01*
X158335585Y-111631747D01*
X158465764Y-111530425D01*
X158628571Y-111353569D01*
X158760049Y-111152328D01*
X158856610Y-110932191D01*
X158915620Y-110699163D01*
X158928043Y-110549238D01*
X158935471Y-110459605D01*
X158935471Y-110459594D01*
X158915620Y-110220040D01*
X158915620Y-110220037D01*
X158856610Y-109987009D01*
X158760049Y-109766872D01*
X158628571Y-109565631D01*
X158465764Y-109388775D01*
X158335585Y-109287452D01*
X158294773Y-109230743D01*
X158291098Y-109160970D01*
X158325730Y-109100287D01*
X158335585Y-109091747D01*
X158465764Y-108990425D01*
X158628571Y-108813569D01*
X158760049Y-108612328D01*
X158856610Y-108392191D01*
X158915620Y-108159163D01*
X158932952Y-107950000D01*
X158935471Y-107919605D01*
X158935471Y-107919594D01*
X158915620Y-107680040D01*
X158915620Y-107680037D01*
X158856610Y-107447009D01*
X158760049Y-107226872D01*
X158628571Y-107025631D01*
X158465764Y-106848775D01*
X158335585Y-106747452D01*
X158294773Y-106690743D01*
X158291098Y-106620970D01*
X158325730Y-106560287D01*
X158335585Y-106551747D01*
X158465764Y-106450425D01*
X158628571Y-106273569D01*
X158760049Y-106072328D01*
X158856610Y-105852191D01*
X158915620Y-105619163D01*
X158927731Y-105473003D01*
X158935471Y-105379605D01*
X158935471Y-105379594D01*
X158915620Y-105140040D01*
X158915620Y-105140037D01*
X158856610Y-104907009D01*
X158760049Y-104686872D01*
X158733844Y-104646763D01*
X158686006Y-104573541D01*
X158628571Y-104485631D01*
X158465764Y-104308775D01*
X158335585Y-104207452D01*
X158294773Y-104150743D01*
X158291098Y-104080970D01*
X158325730Y-104020287D01*
X158335585Y-104011747D01*
X158465764Y-103910425D01*
X158628571Y-103733569D01*
X158760049Y-103532328D01*
X158856610Y-103312191D01*
X158915620Y-103079163D01*
X158925180Y-102963789D01*
X158935471Y-102839605D01*
X158935471Y-102839594D01*
X158915743Y-102601525D01*
X158915620Y-102600037D01*
X158856610Y-102367009D01*
X158760049Y-102146872D01*
X158750199Y-102131796D01*
X158691179Y-102041459D01*
X158628571Y-101945631D01*
X158465764Y-101768775D01*
X158465759Y-101768771D01*
X158465757Y-101768769D01*
X158276075Y-101621133D01*
X158276069Y-101621129D01*
X158064657Y-101506718D01*
X158064652Y-101506716D01*
X157837300Y-101428666D01*
X157659468Y-101398991D01*
X157600192Y-101389100D01*
X157359808Y-101389100D01*
X157312387Y-101397013D01*
X157122699Y-101428666D01*
X156895347Y-101506716D01*
X156895342Y-101506718D01*
X156683930Y-101621129D01*
X156683924Y-101621133D01*
X156494242Y-101768769D01*
X156494239Y-101768772D01*
X156494236Y-101768774D01*
X156494236Y-101768775D01*
X156470854Y-101794175D01*
X156331428Y-101945631D01*
X156304610Y-101986680D01*
X156251463Y-102032036D01*
X156182232Y-102041459D01*
X156118896Y-102011956D01*
X156096995Y-101986680D01*
X156086771Y-101971031D01*
X155923964Y-101794175D01*
X155923959Y-101794171D01*
X155923957Y-101794169D01*
X155734275Y-101646533D01*
X155734269Y-101646529D01*
X155522857Y-101532118D01*
X155522852Y-101532116D01*
X155295500Y-101454066D01*
X155088355Y-101419500D01*
X155058392Y-101414500D01*
X154818008Y-101414500D01*
X154788045Y-101419500D01*
X154580899Y-101454066D01*
X154353547Y-101532116D01*
X154353542Y-101532118D01*
X154142130Y-101646529D01*
X154142124Y-101646533D01*
X153952442Y-101794169D01*
X153952439Y-101794172D01*
X153789630Y-101971029D01*
X153789627Y-101971033D01*
X153658151Y-102172270D01*
X153561589Y-102392410D01*
X153502579Y-102625440D01*
X153482729Y-102864994D01*
X153482729Y-102865005D01*
X153502579Y-103104559D01*
X153561589Y-103337589D01*
X153658151Y-103557729D01*
X153789626Y-103758964D01*
X153789629Y-103758969D01*
X153952436Y-103935825D01*
X153986694Y-103962489D01*
X154082614Y-104037147D01*
X154123427Y-104093857D01*
X154127101Y-104163630D01*
X154092469Y-104224313D01*
X154082614Y-104232853D01*
X153952438Y-104334173D01*
X153789630Y-104511029D01*
X153789627Y-104511033D01*
X153658151Y-104712270D01*
X153561589Y-104932410D01*
X153502579Y-105165440D01*
X153482729Y-105404994D01*
X153482729Y-105405005D01*
X153502579Y-105644559D01*
X153561589Y-105877589D01*
X153658151Y-106097729D01*
X153789626Y-106298964D01*
X153789629Y-106298969D01*
X153952436Y-106475825D01*
X154023344Y-106531014D01*
X154082614Y-106577147D01*
X154123427Y-106633857D01*
X154127101Y-106703630D01*
X154092469Y-106764313D01*
X154082614Y-106772853D01*
X153952438Y-106874173D01*
X153789630Y-107051029D01*
X153789627Y-107051033D01*
X153658151Y-107252270D01*
X153561589Y-107472410D01*
X153502579Y-107705440D01*
X153482729Y-107944994D01*
X153482729Y-107945005D01*
X153502579Y-108184559D01*
X153561589Y-108417589D01*
X153658151Y-108637729D01*
X153789626Y-108838964D01*
X153789629Y-108838969D01*
X153952436Y-109015825D01*
X154023344Y-109071014D01*
X154082614Y-109117147D01*
X154123427Y-109173857D01*
X154127101Y-109243630D01*
X154092469Y-109304313D01*
X154082614Y-109312853D01*
X153952438Y-109414173D01*
X153789630Y-109591029D01*
X153789627Y-109591033D01*
X153658151Y-109792270D01*
X153561589Y-110012410D01*
X153502579Y-110245440D01*
X153482729Y-110484994D01*
X153482729Y-110485005D01*
X153502579Y-110724559D01*
X153561589Y-110957589D01*
X153658151Y-111177729D01*
X153789626Y-111378964D01*
X153789629Y-111378969D01*
X153952436Y-111555825D01*
X154023344Y-111611014D01*
X154082614Y-111657147D01*
X154123427Y-111713857D01*
X154127101Y-111783630D01*
X154092469Y-111844313D01*
X154082614Y-111852853D01*
X153952438Y-111954173D01*
X153952436Y-111954174D01*
X153952436Y-111954175D01*
X153926571Y-111982270D01*
X153789630Y-112131029D01*
X153789627Y-112131033D01*
X153658151Y-112332270D01*
X153561589Y-112552410D01*
X153502579Y-112785440D01*
X153482729Y-113024994D01*
X153482729Y-113025005D01*
X153502579Y-113264559D01*
X153561589Y-113497589D01*
X153658151Y-113717729D01*
X153789626Y-113918964D01*
X153789629Y-113918969D01*
X153952436Y-114095825D01*
X154023344Y-114151014D01*
X154082614Y-114197147D01*
X154123427Y-114253857D01*
X154127101Y-114323630D01*
X154092469Y-114384313D01*
X154082614Y-114392853D01*
X153952438Y-114494173D01*
X153789630Y-114671029D01*
X153789627Y-114671033D01*
X153658151Y-114872270D01*
X153561589Y-115092410D01*
X153502579Y-115325440D01*
X153482729Y-115564994D01*
X153482729Y-115565005D01*
X153502579Y-115804559D01*
X153561589Y-116037589D01*
X153658151Y-116257729D01*
X153789626Y-116458964D01*
X153789629Y-116458969D01*
X153952436Y-116635825D01*
X154023344Y-116691014D01*
X154082614Y-116737147D01*
X154123427Y-116793857D01*
X154127101Y-116863630D01*
X154092469Y-116924313D01*
X154082614Y-116932853D01*
X153952438Y-117034173D01*
X153789630Y-117211029D01*
X153789627Y-117211033D01*
X153658151Y-117412270D01*
X153561589Y-117632410D01*
X153502579Y-117865440D01*
X153482729Y-118104994D01*
X153482729Y-118105005D01*
X153502579Y-118344559D01*
X153561589Y-118577589D01*
X153658151Y-118797729D01*
X153789626Y-118998964D01*
X153789629Y-118998969D01*
X153952436Y-119175825D01*
X154023344Y-119231014D01*
X154082614Y-119277147D01*
X154123427Y-119333857D01*
X154127101Y-119403630D01*
X154092469Y-119464313D01*
X154082614Y-119472853D01*
X153952438Y-119574173D01*
X153789630Y-119751029D01*
X153789627Y-119751033D01*
X153658151Y-119952270D01*
X153561589Y-120172410D01*
X153502579Y-120405440D01*
X153482729Y-120644994D01*
X153482729Y-120645005D01*
X153502579Y-120884559D01*
X153561589Y-121117589D01*
X153658151Y-121337729D01*
X153789626Y-121538964D01*
X153789629Y-121538969D01*
X153952436Y-121715825D01*
X154023344Y-121771014D01*
X154082614Y-121817147D01*
X154123427Y-121873857D01*
X154127101Y-121943630D01*
X154092469Y-122004313D01*
X154082614Y-122012853D01*
X153952438Y-122114173D01*
X153789630Y-122291029D01*
X153789627Y-122291033D01*
X153658151Y-122492270D01*
X153561589Y-122712410D01*
X153502579Y-122945440D01*
X153482729Y-123184994D01*
X153482729Y-123185005D01*
X153502579Y-123424559D01*
X153561589Y-123657589D01*
X153658151Y-123877729D01*
X153789626Y-124078964D01*
X153789629Y-124078969D01*
X153952436Y-124255825D01*
X153952439Y-124255827D01*
X153952442Y-124255830D01*
X154142124Y-124403466D01*
X154142134Y-124403473D01*
X154148057Y-124406677D01*
X154151624Y-124408608D01*
X154201217Y-124457826D01*
X154216328Y-124526042D01*
X154192159Y-124591598D01*
X154163735Y-124619239D01*
X154067129Y-124686883D01*
X154067120Y-124686891D01*
X153900091Y-124853920D01*
X153900086Y-124853926D01*
X153764600Y-125047420D01*
X153764599Y-125047422D01*
X153664770Y-125261507D01*
X153664767Y-125261513D01*
X153607564Y-125474999D01*
X153607564Y-125475000D01*
X154324853Y-125475000D01*
X154391892Y-125494685D01*
X154437647Y-125547489D01*
X154447591Y-125616647D01*
X154443831Y-125633933D01*
X154438200Y-125653111D01*
X154438200Y-125796888D01*
X154443831Y-125816067D01*
X154443830Y-125885936D01*
X154406055Y-125944714D01*
X154342499Y-125973738D01*
X154324853Y-125975000D01*
X153607564Y-125975000D01*
X153664767Y-126188486D01*
X153664770Y-126188492D01*
X153764599Y-126402578D01*
X153900094Y-126596082D01*
X154067117Y-126763105D01*
X154163735Y-126830758D01*
X154207359Y-126885335D01*
X154214552Y-126954834D01*
X154183030Y-127017188D01*
X154151636Y-127041383D01*
X154142148Y-127046518D01*
X154142136Y-127046525D01*
X153952437Y-127194174D01*
X153789630Y-127371029D01*
X153789627Y-127371033D01*
X153658151Y-127572270D01*
X153642095Y-127608873D01*
X153597137Y-127662358D01*
X153530400Y-127683046D01*
X153463073Y-127664370D01*
X153440859Y-127646741D01*
X152137576Y-126343458D01*
X150561675Y-124767556D01*
X150557048Y-124762377D01*
X150533364Y-124732679D01*
X150482959Y-124688642D01*
X150479910Y-124685791D01*
X150471649Y-124677530D01*
X150471638Y-124677520D01*
X150439933Y-124651051D01*
X150367243Y-124587544D01*
X150367239Y-124587541D01*
X150366160Y-124586896D01*
X150363730Y-124585445D01*
X150347867Y-124574189D01*
X150344724Y-124571565D01*
X150344719Y-124571562D01*
X150344719Y-124571561D01*
X150260752Y-124523917D01*
X150250651Y-124517882D01*
X150177874Y-124474400D01*
X150174035Y-124472959D01*
X150156420Y-124464717D01*
X150152864Y-124462700D01*
X150152859Y-124462697D01*
X150061744Y-124430815D01*
X149971344Y-124396888D01*
X149967318Y-124396158D01*
X149948514Y-124391194D01*
X149944653Y-124389843D01*
X149944655Y-124389843D01*
X149865198Y-124377258D01*
X149849308Y-124374742D01*
X149829123Y-124371079D01*
X149754301Y-124357500D01*
X149754297Y-124357500D01*
X149750203Y-124357500D01*
X149730806Y-124355973D01*
X149726778Y-124355335D01*
X149726776Y-124355334D01*
X149726771Y-124355334D01*
X149726765Y-124355334D01*
X149726764Y-124355334D01*
X149642331Y-124357229D01*
X149630269Y-124357500D01*
X108748938Y-124357500D01*
X108741999Y-124357110D01*
X108719245Y-124354546D01*
X108704250Y-124352857D01*
X108704243Y-124352856D01*
X108659840Y-124355850D01*
X108637448Y-124357360D01*
X108633295Y-124357500D01*
X108621599Y-124357500D01*
X108580474Y-124361201D01*
X108484160Y-124367694D01*
X108484155Y-124367695D01*
X108480176Y-124368698D01*
X108461016Y-124371953D01*
X108456933Y-124372320D01*
X108363887Y-124397999D01*
X108270245Y-124421594D01*
X108270242Y-124421595D01*
X108266500Y-124423295D01*
X108248238Y-124429916D01*
X108244296Y-124431004D01*
X108244288Y-124431007D01*
X108157324Y-124472886D01*
X108069400Y-124512823D01*
X108066020Y-124515165D01*
X108049234Y-124524939D01*
X108045540Y-124526719D01*
X107967431Y-124583467D01*
X107888074Y-124638445D01*
X107888066Y-124638452D01*
X107885166Y-124641352D01*
X107870397Y-124653966D01*
X107867083Y-124656373D01*
X107867074Y-124656381D01*
X107800348Y-124726171D01*
X104502338Y-128024181D01*
X104441015Y-128057666D01*
X104414657Y-128060500D01*
X95956968Y-128060500D01*
X95908525Y-128064859D01*
X95788820Y-128075633D01*
X95720285Y-128062037D01*
X95669982Y-128013546D01*
X95657499Y-127982572D01*
X95610610Y-127797410D01*
X95597275Y-127767010D01*
X95514049Y-127577272D01*
X95510782Y-127572272D01*
X95382572Y-127376033D01*
X95382571Y-127376031D01*
X95219764Y-127199175D01*
X95030067Y-127051528D01*
X95030066Y-127051527D01*
X95030063Y-127051525D01*
X95030056Y-127051521D01*
X95020566Y-127046385D01*
X94970977Y-126997164D01*
X94955872Y-126928946D01*
X94980046Y-126863392D01*
X95008465Y-126835758D01*
X95105080Y-126768107D01*
X95272105Y-126601082D01*
X95407600Y-126407578D01*
X95507429Y-126193492D01*
X95507432Y-126193486D01*
X95564636Y-125980000D01*
X94847347Y-125980000D01*
X94780308Y-125960315D01*
X94734553Y-125907511D01*
X94724609Y-125838353D01*
X94728369Y-125821067D01*
X94734000Y-125801888D01*
X94734000Y-125658111D01*
X94728369Y-125638933D01*
X94728370Y-125569064D01*
X94766145Y-125510286D01*
X94829701Y-125481262D01*
X94847347Y-125480000D01*
X95564636Y-125480000D01*
X95564635Y-125479999D01*
X95507432Y-125266513D01*
X95507429Y-125266507D01*
X95407600Y-125052422D01*
X95407599Y-125052420D01*
X95272113Y-124858926D01*
X95272108Y-124858920D01*
X95105078Y-124691890D01*
X95008464Y-124624239D01*
X94964839Y-124569662D01*
X94957647Y-124500163D01*
X94989170Y-124437809D01*
X95020572Y-124413610D01*
X95030067Y-124408472D01*
X95219764Y-124260825D01*
X95382571Y-124083969D01*
X95514049Y-123882728D01*
X95610610Y-123662591D01*
X95669620Y-123429563D01*
X95689471Y-123190000D01*
X95689057Y-123185005D01*
X95669620Y-122950440D01*
X95669620Y-122950437D01*
X95610610Y-122717409D01*
X95514049Y-122497272D01*
X95510782Y-122492272D01*
X95382572Y-122296033D01*
X95382571Y-122296031D01*
X95219764Y-122119175D01*
X95089585Y-122017852D01*
X95048773Y-121961143D01*
X95045098Y-121891370D01*
X95079730Y-121830687D01*
X95089585Y-121822147D01*
X95219764Y-121720825D01*
X95382571Y-121543969D01*
X95514049Y-121342728D01*
X95610610Y-121122591D01*
X95669620Y-120889563D01*
X95689471Y-120650000D01*
X95689057Y-120645005D01*
X95669620Y-120410440D01*
X95669620Y-120410437D01*
X95610610Y-120177409D01*
X95514049Y-119957272D01*
X95510782Y-119952272D01*
X95382572Y-119756033D01*
X95382571Y-119756031D01*
X95219764Y-119579175D01*
X95089585Y-119477852D01*
X95048773Y-119421143D01*
X95045098Y-119351370D01*
X95079730Y-119290687D01*
X95089585Y-119282147D01*
X95219764Y-119180825D01*
X95382571Y-119003969D01*
X95514049Y-118802728D01*
X95610610Y-118582591D01*
X95669620Y-118349563D01*
X95689471Y-118110000D01*
X95689057Y-118105005D01*
X95669620Y-117870440D01*
X95669620Y-117870437D01*
X95610610Y-117637409D01*
X95514049Y-117417272D01*
X95510782Y-117412272D01*
X95382572Y-117216033D01*
X95382571Y-117216031D01*
X95219764Y-117039175D01*
X95089585Y-116937852D01*
X95048773Y-116881143D01*
X95045098Y-116811370D01*
X95079730Y-116750687D01*
X95089585Y-116742147D01*
X95219764Y-116640825D01*
X95382571Y-116463969D01*
X95514049Y-116262728D01*
X95610610Y-116042591D01*
X95669620Y-115809563D01*
X95689471Y-115570000D01*
X95689057Y-115565005D01*
X95669620Y-115330440D01*
X95669620Y-115330437D01*
X95610610Y-115097409D01*
X95514049Y-114877272D01*
X95510782Y-114872272D01*
X95382572Y-114676033D01*
X95382571Y-114676031D01*
X95219764Y-114499175D01*
X95089585Y-114397852D01*
X95048773Y-114341143D01*
X95045098Y-114271370D01*
X95079730Y-114210687D01*
X95089585Y-114202147D01*
X95219764Y-114100825D01*
X95382571Y-113923969D01*
X95514049Y-113722728D01*
X95610610Y-113502591D01*
X95669620Y-113269563D01*
X95689471Y-113030000D01*
X95689057Y-113025005D01*
X95669620Y-112790440D01*
X95669620Y-112790437D01*
X95610610Y-112557409D01*
X95517598Y-112345363D01*
X110359500Y-112345363D01*
X110374953Y-112462753D01*
X110374956Y-112462762D01*
X110414160Y-112557410D01*
X110435464Y-112608841D01*
X110531718Y-112734282D01*
X110657159Y-112830536D01*
X110803238Y-112891044D01*
X110920639Y-112906500D01*
X112599360Y-112906499D01*
X112599363Y-112906499D01*
X112716753Y-112891046D01*
X112716757Y-112891044D01*
X112716762Y-112891044D01*
X112862841Y-112830536D01*
X112988282Y-112734282D01*
X113084536Y-112608841D01*
X113145044Y-112462762D01*
X113160500Y-112345361D01*
X113160500Y-111506006D01*
X117974700Y-111506006D01*
X117993864Y-111737297D01*
X117993866Y-111737308D01*
X118050842Y-111962300D01*
X118144075Y-112174848D01*
X118271016Y-112369147D01*
X118271019Y-112369151D01*
X118271021Y-112369153D01*
X118428216Y-112539913D01*
X118428219Y-112539915D01*
X118428222Y-112539918D01*
X118611365Y-112682464D01*
X118611371Y-112682468D01*
X118611374Y-112682470D01*
X118815497Y-112792936D01*
X118925022Y-112830536D01*
X119035015Y-112868297D01*
X119035017Y-112868297D01*
X119035019Y-112868298D01*
X119263951Y-112906500D01*
X119263952Y-112906500D01*
X119496048Y-112906500D01*
X119496049Y-112906500D01*
X119724981Y-112868298D01*
X119944503Y-112792936D01*
X120148626Y-112682470D01*
X120331784Y-112539913D01*
X120488979Y-112369153D01*
X120615924Y-112174849D01*
X120709157Y-111962300D01*
X120766134Y-111737305D01*
X120766626Y-111731370D01*
X120785300Y-111506006D01*
X130674700Y-111506006D01*
X130693864Y-111737297D01*
X130693866Y-111737308D01*
X130750842Y-111962300D01*
X130844075Y-112174848D01*
X130971016Y-112369147D01*
X130971019Y-112369151D01*
X130971021Y-112369153D01*
X131128216Y-112539913D01*
X131128219Y-112539915D01*
X131128222Y-112539918D01*
X131311365Y-112682464D01*
X131311371Y-112682468D01*
X131311374Y-112682470D01*
X131515497Y-112792936D01*
X131625022Y-112830536D01*
X131735015Y-112868297D01*
X131735017Y-112868297D01*
X131735019Y-112868298D01*
X131963951Y-112906500D01*
X131963952Y-112906500D01*
X132196048Y-112906500D01*
X132196049Y-112906500D01*
X132424981Y-112868298D01*
X132644503Y-112792936D01*
X132848626Y-112682470D01*
X133031784Y-112539913D01*
X133188979Y-112369153D01*
X133204522Y-112345363D01*
X138299500Y-112345363D01*
X138314953Y-112462753D01*
X138314956Y-112462762D01*
X138354160Y-112557410D01*
X138375464Y-112608841D01*
X138471718Y-112734282D01*
X138597159Y-112830536D01*
X138743238Y-112891044D01*
X138860639Y-112906500D01*
X140539360Y-112906499D01*
X140539363Y-112906499D01*
X140656753Y-112891046D01*
X140656757Y-112891044D01*
X140656762Y-112891044D01*
X140802841Y-112830536D01*
X140928282Y-112734282D01*
X141024536Y-112608841D01*
X141085044Y-112462762D01*
X141100500Y-112345361D01*
X141100499Y-110666640D01*
X141100499Y-110666639D01*
X141100499Y-110666636D01*
X141085046Y-110549246D01*
X141085044Y-110549239D01*
X141085044Y-110549238D01*
X141024536Y-110403159D01*
X140928282Y-110277718D01*
X140802841Y-110181464D01*
X140656762Y-110120956D01*
X140656760Y-110120955D01*
X140539370Y-110105501D01*
X140539367Y-110105500D01*
X140539361Y-110105500D01*
X140539354Y-110105500D01*
X138860636Y-110105500D01*
X138743246Y-110120953D01*
X138743237Y-110120956D01*
X138597160Y-110181463D01*
X138471718Y-110277718D01*
X138375463Y-110403160D01*
X138314956Y-110549237D01*
X138314955Y-110549239D01*
X138299501Y-110666629D01*
X138299501Y-110666636D01*
X138299500Y-110666645D01*
X138299500Y-112345363D01*
X133204522Y-112345363D01*
X133315924Y-112174849D01*
X133409157Y-111962300D01*
X133466134Y-111737305D01*
X133466626Y-111731370D01*
X133485300Y-111506006D01*
X133485300Y-111505993D01*
X133466135Y-111274702D01*
X133466133Y-111274691D01*
X133409157Y-111049699D01*
X133315924Y-110837151D01*
X133188983Y-110642852D01*
X133188980Y-110642849D01*
X133188979Y-110642847D01*
X133031784Y-110472087D01*
X133031779Y-110472083D01*
X133031777Y-110472081D01*
X132848634Y-110329535D01*
X132848628Y-110329531D01*
X132644504Y-110219064D01*
X132644495Y-110219061D01*
X132424984Y-110143702D01*
X132253281Y-110115050D01*
X132196049Y-110105500D01*
X131963951Y-110105500D01*
X131918164Y-110113140D01*
X131735015Y-110143702D01*
X131515504Y-110219061D01*
X131515495Y-110219064D01*
X131311371Y-110329531D01*
X131311365Y-110329535D01*
X131128222Y-110472081D01*
X131128219Y-110472084D01*
X131128216Y-110472086D01*
X131128216Y-110472087D01*
X131069267Y-110536121D01*
X130971016Y-110642852D01*
X130844075Y-110837151D01*
X130750842Y-111049699D01*
X130693866Y-111274691D01*
X130693864Y-111274702D01*
X130674700Y-111505993D01*
X130674700Y-111506006D01*
X120785300Y-111506006D01*
X120785300Y-111505993D01*
X120766135Y-111274702D01*
X120766133Y-111274691D01*
X120709157Y-111049699D01*
X120615924Y-110837151D01*
X120488983Y-110642852D01*
X120488980Y-110642849D01*
X120488979Y-110642847D01*
X120331784Y-110472087D01*
X120331779Y-110472083D01*
X120331777Y-110472081D01*
X120148634Y-110329535D01*
X120148628Y-110329531D01*
X119944504Y-110219064D01*
X119944495Y-110219061D01*
X119724984Y-110143702D01*
X119553281Y-110115050D01*
X119496049Y-110105500D01*
X119263951Y-110105500D01*
X119218164Y-110113140D01*
X119035015Y-110143702D01*
X118815504Y-110219061D01*
X118815495Y-110219064D01*
X118611371Y-110329531D01*
X118611365Y-110329535D01*
X118428222Y-110472081D01*
X118428219Y-110472084D01*
X118428216Y-110472086D01*
X118428216Y-110472087D01*
X118369267Y-110536121D01*
X118271016Y-110642852D01*
X118144075Y-110837151D01*
X118050842Y-111049699D01*
X117993866Y-111274691D01*
X117993864Y-111274702D01*
X117974700Y-111505993D01*
X117974700Y-111506006D01*
X113160500Y-111506006D01*
X113160499Y-110666640D01*
X113160499Y-110666639D01*
X113160499Y-110666636D01*
X113145046Y-110549246D01*
X113145044Y-110549239D01*
X113145044Y-110549238D01*
X113084536Y-110403159D01*
X112988282Y-110277718D01*
X112862841Y-110181464D01*
X112716762Y-110120956D01*
X112716760Y-110120955D01*
X112599370Y-110105501D01*
X112599367Y-110105500D01*
X112599361Y-110105500D01*
X112599354Y-110105500D01*
X110920636Y-110105500D01*
X110803246Y-110120953D01*
X110803237Y-110120956D01*
X110657160Y-110181463D01*
X110531718Y-110277718D01*
X110435463Y-110403160D01*
X110374956Y-110549237D01*
X110374955Y-110549239D01*
X110359501Y-110666629D01*
X110359501Y-110666636D01*
X110359500Y-110666645D01*
X110359500Y-112345363D01*
X95517598Y-112345363D01*
X95514049Y-112337272D01*
X95510782Y-112332272D01*
X95407932Y-112174849D01*
X95382571Y-112136031D01*
X95219764Y-111959175D01*
X95089585Y-111857852D01*
X95048773Y-111801143D01*
X95045098Y-111731370D01*
X95079730Y-111670687D01*
X95089585Y-111662147D01*
X95219764Y-111560825D01*
X95382571Y-111383969D01*
X95514049Y-111182728D01*
X95610610Y-110962591D01*
X95669620Y-110729563D01*
X95684562Y-110549239D01*
X95689471Y-110490005D01*
X95689471Y-110489994D01*
X95676174Y-110329530D01*
X95669620Y-110250437D01*
X95610610Y-110017409D01*
X95514049Y-109797272D01*
X95510782Y-109792272D01*
X95382572Y-109596033D01*
X95382571Y-109596031D01*
X95219764Y-109419175D01*
X95089585Y-109317852D01*
X95048773Y-109261143D01*
X95045098Y-109191370D01*
X95079730Y-109130687D01*
X95089585Y-109122147D01*
X95219764Y-109020825D01*
X95382571Y-108843969D01*
X95514049Y-108642728D01*
X95610610Y-108422591D01*
X95669620Y-108189563D01*
X95689471Y-107950000D01*
X95689057Y-107945005D01*
X95669620Y-107710440D01*
X95669620Y-107710437D01*
X95610610Y-107477409D01*
X95514049Y-107257272D01*
X95510782Y-107252272D01*
X95382572Y-107056033D01*
X95382571Y-107056031D01*
X95219764Y-106879175D01*
X95089585Y-106777852D01*
X95048773Y-106721143D01*
X95045098Y-106651370D01*
X95079730Y-106590687D01*
X95089585Y-106582147D01*
X95219764Y-106480825D01*
X95382571Y-106303969D01*
X95514049Y-106102728D01*
X95610610Y-105882591D01*
X95669620Y-105649563D01*
X95679289Y-105532876D01*
X95689471Y-105410005D01*
X95689471Y-105409994D01*
X95669620Y-105170440D01*
X95669620Y-105170437D01*
X95610610Y-104937409D01*
X95514049Y-104717272D01*
X95510782Y-104712272D01*
X95425317Y-104581459D01*
X95382571Y-104516031D01*
X95269095Y-104392763D01*
X107920000Y-104392763D01*
X107934858Y-104562599D01*
X107934860Y-104562610D01*
X107993730Y-104782317D01*
X107993734Y-104782326D01*
X108089865Y-104988482D01*
X108220342Y-105174820D01*
X108381179Y-105335657D01*
X108567517Y-105466134D01*
X108773673Y-105562265D01*
X108773682Y-105562269D01*
X108969999Y-105614872D01*
X108970000Y-105614871D01*
X108970000Y-104442588D01*
X108989685Y-104375549D01*
X109042489Y-104329794D01*
X109111647Y-104319850D01*
X109130551Y-104324097D01*
X109152925Y-104330999D01*
X109152926Y-104331000D01*
X109152927Y-104331000D01*
X109253345Y-104331000D01*
X109253346Y-104331000D01*
X109327519Y-104319820D01*
X109396742Y-104329293D01*
X109449857Y-104374687D01*
X109469997Y-104441591D01*
X109470000Y-104442435D01*
X109470000Y-105614872D01*
X109666317Y-105562269D01*
X109666326Y-105562265D01*
X109872482Y-105466134D01*
X110058820Y-105335657D01*
X110219660Y-105174817D01*
X110328412Y-105019504D01*
X110382989Y-104975879D01*
X110452487Y-104968685D01*
X110514842Y-105000208D01*
X110532722Y-105021190D01*
X110666413Y-105218992D01*
X110666416Y-105218996D01*
X110666421Y-105219003D01*
X110831379Y-105391118D01*
X111023053Y-105532879D01*
X111235926Y-105640207D01*
X111463877Y-105710016D01*
X111700346Y-105740298D01*
X111938532Y-105730180D01*
X112171581Y-105679954D01*
X112392790Y-105591064D01*
X112595795Y-105466069D01*
X112774755Y-105308564D01*
X112924523Y-105123080D01*
X113040790Y-104914954D01*
X113120211Y-104690171D01*
X113127654Y-104646763D01*
X135860000Y-104646763D01*
X135874858Y-104816599D01*
X135874860Y-104816610D01*
X135933730Y-105036317D01*
X135933734Y-105036326D01*
X136029865Y-105242482D01*
X136160342Y-105428820D01*
X136321179Y-105589657D01*
X136507517Y-105720134D01*
X136713673Y-105816265D01*
X136713682Y-105816269D01*
X136909999Y-105868872D01*
X136910000Y-105868871D01*
X136910000Y-104696588D01*
X136929685Y-104629549D01*
X136982489Y-104583794D01*
X137051647Y-104573850D01*
X137070551Y-104578097D01*
X137092925Y-104584999D01*
X137092926Y-104585000D01*
X137092927Y-104585000D01*
X137193345Y-104585000D01*
X137193346Y-104585000D01*
X137267519Y-104573820D01*
X137336742Y-104583293D01*
X137389857Y-104628687D01*
X137409997Y-104695591D01*
X137410000Y-104696435D01*
X137410000Y-105868872D01*
X137606317Y-105816269D01*
X137606326Y-105816265D01*
X137812482Y-105720134D01*
X137998820Y-105589657D01*
X138159660Y-105428817D01*
X138268412Y-105273504D01*
X138322989Y-105229879D01*
X138392487Y-105222685D01*
X138454842Y-105254208D01*
X138472722Y-105275190D01*
X138606413Y-105472992D01*
X138606416Y-105472996D01*
X138606421Y-105473003D01*
X138771379Y-105645118D01*
X138963053Y-105786879D01*
X139175926Y-105894207D01*
X139403877Y-105964016D01*
X139640346Y-105994298D01*
X139878532Y-105984180D01*
X140111581Y-105933954D01*
X140332790Y-105845064D01*
X140535795Y-105720069D01*
X140714755Y-105562564D01*
X140864523Y-105377080D01*
X140980790Y-105168954D01*
X141060211Y-104944171D01*
X141099116Y-104717272D01*
X141100499Y-104709209D01*
X141100500Y-104709198D01*
X141100500Y-103630498D01*
X141085347Y-103452463D01*
X141025275Y-103221751D01*
X140927080Y-103004519D01*
X140927075Y-103004511D01*
X140793586Y-102807006D01*
X140793582Y-102807001D01*
X140793579Y-102806997D01*
X140628621Y-102634882D01*
X140615850Y-102625437D01*
X140564729Y-102587628D01*
X140436947Y-102493121D01*
X140224074Y-102385793D01*
X140094283Y-102346045D01*
X139996121Y-102315983D01*
X139759647Y-102285701D01*
X139521471Y-102295819D01*
X139521467Y-102295819D01*
X139288419Y-102346045D01*
X139067211Y-102434935D01*
X138864203Y-102559932D01*
X138685245Y-102717435D01*
X138535472Y-102902926D01*
X138481201Y-103000076D01*
X138431321Y-103049002D01*
X138362908Y-103063194D01*
X138297683Y-103038146D01*
X138271373Y-103010725D01*
X138159657Y-102851179D01*
X137998820Y-102690342D01*
X137812482Y-102559865D01*
X137606328Y-102463734D01*
X137410000Y-102411127D01*
X137410000Y-103583411D01*
X137390315Y-103650450D01*
X137337511Y-103696205D01*
X137268353Y-103706149D01*
X137249451Y-103701902D01*
X137227075Y-103695000D01*
X137227073Y-103695000D01*
X137126654Y-103695000D01*
X137126646Y-103695000D01*
X137052481Y-103706179D01*
X136983256Y-103696706D01*
X136930143Y-103651311D01*
X136910003Y-103584407D01*
X136910000Y-103583564D01*
X136910000Y-102411127D01*
X136713671Y-102463734D01*
X136507517Y-102559865D01*
X136321179Y-102690342D01*
X136160342Y-102851179D01*
X136029865Y-103037517D01*
X135933734Y-103243673D01*
X135933730Y-103243682D01*
X135874860Y-103463389D01*
X135874858Y-103463400D01*
X135860000Y-103633237D01*
X135860000Y-103890000D01*
X136605126Y-103890000D01*
X136672165Y-103909685D01*
X136717920Y-103962489D01*
X136727864Y-104031647D01*
X136726017Y-104041593D01*
X136711232Y-104106370D01*
X136711231Y-104106370D01*
X136721951Y-104249406D01*
X136720178Y-104249538D01*
X136716592Y-104308136D01*
X136675299Y-104364498D01*
X136610089Y-104389587D01*
X136599971Y-104390000D01*
X135860000Y-104390000D01*
X135860000Y-104646763D01*
X113127654Y-104646763D01*
X113138851Y-104581459D01*
X113160499Y-104455209D01*
X113160499Y-104455205D01*
X113160500Y-104455200D01*
X113160500Y-103376503D01*
X113149195Y-103243682D01*
X113145347Y-103198463D01*
X113122198Y-103109559D01*
X113085275Y-102967751D01*
X113055972Y-102902926D01*
X112987080Y-102750519D01*
X112987075Y-102750511D01*
X112853586Y-102553006D01*
X112853582Y-102553001D01*
X112853579Y-102552997D01*
X112688621Y-102380882D01*
X112669863Y-102367009D01*
X112600873Y-102315984D01*
X112496947Y-102239121D01*
X112284074Y-102131793D01*
X112135298Y-102086231D01*
X112056121Y-102061983D01*
X111819647Y-102031701D01*
X111581471Y-102041819D01*
X111581467Y-102041819D01*
X111348419Y-102092045D01*
X111127211Y-102180935D01*
X110924203Y-102305932D01*
X110745245Y-102463435D01*
X110595472Y-102648926D01*
X110541201Y-102746076D01*
X110491321Y-102795002D01*
X110422908Y-102809194D01*
X110357683Y-102784146D01*
X110331373Y-102756725D01*
X110219657Y-102597179D01*
X110058820Y-102436342D01*
X109872482Y-102305865D01*
X109666328Y-102209734D01*
X109469999Y-102157127D01*
X109470000Y-103329411D01*
X109450315Y-103396450D01*
X109397511Y-103442205D01*
X109328353Y-103452149D01*
X109309451Y-103447902D01*
X109287075Y-103441000D01*
X109287073Y-103441000D01*
X109186654Y-103441000D01*
X109186646Y-103441000D01*
X109112480Y-103452179D01*
X109043255Y-103442706D01*
X108990141Y-103397311D01*
X108970002Y-103330406D01*
X108969999Y-103329564D01*
X108969999Y-102157127D01*
X108773671Y-102209734D01*
X108567517Y-102305865D01*
X108381179Y-102436342D01*
X108220342Y-102597179D01*
X108089865Y-102783517D01*
X107993734Y-102989673D01*
X107993730Y-102989682D01*
X107934860Y-103209389D01*
X107934858Y-103209400D01*
X107920000Y-103379237D01*
X107920000Y-103636000D01*
X108665126Y-103636000D01*
X108732165Y-103655685D01*
X108777920Y-103708489D01*
X108787864Y-103777647D01*
X108786017Y-103787593D01*
X108771232Y-103852370D01*
X108771231Y-103852370D01*
X108781951Y-103995406D01*
X108780178Y-103995538D01*
X108776592Y-104054136D01*
X108735299Y-104110498D01*
X108670089Y-104135587D01*
X108659971Y-104136000D01*
X107920000Y-104136000D01*
X107920000Y-104392763D01*
X95269095Y-104392763D01*
X95219764Y-104339175D01*
X95089585Y-104237852D01*
X95048773Y-104181143D01*
X95045098Y-104111370D01*
X95079730Y-104050687D01*
X95089585Y-104042147D01*
X95219764Y-103940825D01*
X95382571Y-103763969D01*
X95514049Y-103562728D01*
X95610610Y-103342591D01*
X95669620Y-103109563D01*
X95679554Y-102989682D01*
X95689471Y-102870005D01*
X95689471Y-102869994D01*
X95671152Y-102648926D01*
X95669620Y-102630437D01*
X95610610Y-102397409D01*
X95514049Y-102177272D01*
X95513852Y-102176971D01*
X95438727Y-102061984D01*
X95382571Y-101976031D01*
X95219764Y-101799175D01*
X95219759Y-101799171D01*
X95219757Y-101799169D01*
X95030075Y-101651533D01*
X95030069Y-101651529D01*
X94818657Y-101537118D01*
X94818652Y-101537116D01*
X94591300Y-101459066D01*
X94409121Y-101428666D01*
X94354192Y-101419500D01*
X94113808Y-101419500D01*
X94066387Y-101427413D01*
X93876699Y-101459066D01*
X93649347Y-101537116D01*
X93649342Y-101537118D01*
X93437930Y-101651529D01*
X93437924Y-101651533D01*
X93248242Y-101799169D01*
X93248239Y-101799172D01*
X93085430Y-101976029D01*
X93085429Y-101976031D01*
X93067807Y-102003003D01*
X93014660Y-102048358D01*
X92945429Y-102057780D01*
X92882093Y-102028277D01*
X92860193Y-102003003D01*
X92849527Y-101986678D01*
X92842571Y-101976031D01*
X92679764Y-101799175D01*
X92679759Y-101799171D01*
X92679757Y-101799169D01*
X92490075Y-101651533D01*
X92490069Y-101651529D01*
X92278657Y-101537118D01*
X92278652Y-101537116D01*
X92051300Y-101459066D01*
X91869121Y-101428666D01*
X91814192Y-101419500D01*
X91573808Y-101419500D01*
X91526387Y-101427413D01*
X91336699Y-101459066D01*
X91109347Y-101537116D01*
X91109342Y-101537118D01*
X90897930Y-101651529D01*
X90897924Y-101651533D01*
X90708242Y-101799169D01*
X90708239Y-101799172D01*
X90545430Y-101976029D01*
X90545427Y-101976033D01*
X90413951Y-102177270D01*
X90317389Y-102397410D01*
X90258379Y-102630440D01*
X90238529Y-102869994D01*
X90238529Y-102870005D01*
X90258379Y-103109559D01*
X90317389Y-103342589D01*
X90413951Y-103562729D01*
X90527808Y-103736998D01*
X90545429Y-103763969D01*
X90708236Y-103940825D01*
X90766457Y-103986140D01*
X90838414Y-104042147D01*
X90879227Y-104098857D01*
X90882901Y-104168630D01*
X90848269Y-104229313D01*
X90838414Y-104237853D01*
X90708238Y-104339173D01*
X90545430Y-104516029D01*
X90545427Y-104516033D01*
X90413951Y-104717270D01*
X90317389Y-104937410D01*
X90258379Y-105170440D01*
X90238529Y-105409994D01*
X90238529Y-105410005D01*
X90258379Y-105649559D01*
X90317389Y-105882589D01*
X90413951Y-106102729D01*
X90525568Y-106273570D01*
X90545429Y-106303969D01*
X90708236Y-106480825D01*
X90779144Y-106536014D01*
X90838414Y-106582147D01*
X90879227Y-106638857D01*
X90882901Y-106708630D01*
X90848269Y-106769313D01*
X90838414Y-106777853D01*
X90708238Y-106879173D01*
X90545430Y-107056029D01*
X90545427Y-107056033D01*
X90413951Y-107257270D01*
X90317389Y-107477410D01*
X90258379Y-107710440D01*
X90238529Y-107949994D01*
X90238529Y-107950005D01*
X90258379Y-108189559D01*
X90317389Y-108422589D01*
X90413951Y-108642729D01*
X90525568Y-108813570D01*
X90545429Y-108843969D01*
X90708236Y-109020825D01*
X90779144Y-109076014D01*
X90838414Y-109122147D01*
X90879227Y-109178857D01*
X90882901Y-109248630D01*
X90848269Y-109309313D01*
X90838414Y-109317853D01*
X90708238Y-109419173D01*
X90545430Y-109596029D01*
X90545427Y-109596033D01*
X90413951Y-109797270D01*
X90317389Y-110017410D01*
X90258379Y-110250440D01*
X90238529Y-110489994D01*
X90238529Y-110490005D01*
X90258379Y-110729559D01*
X90317389Y-110962589D01*
X90413951Y-111182729D01*
X90525568Y-111353570D01*
X90545429Y-111383969D01*
X90708236Y-111560825D01*
X90779144Y-111616014D01*
X90838414Y-111662147D01*
X90879227Y-111718857D01*
X90882901Y-111788630D01*
X90848269Y-111849313D01*
X90838414Y-111857853D01*
X90708238Y-111959173D01*
X90545430Y-112136029D01*
X90545427Y-112136033D01*
X90413951Y-112337270D01*
X90317389Y-112557410D01*
X90258379Y-112790440D01*
X90238529Y-113029994D01*
X90238529Y-113030005D01*
X90258379Y-113269559D01*
X90317389Y-113502589D01*
X90413951Y-113722729D01*
X90525568Y-113893570D01*
X90545429Y-113923969D01*
X90708236Y-114100825D01*
X90779144Y-114156014D01*
X90838414Y-114202147D01*
X90879227Y-114258857D01*
X90882901Y-114328630D01*
X90848269Y-114389313D01*
X90838414Y-114397853D01*
X90708238Y-114499173D01*
X90545430Y-114676029D01*
X90545427Y-114676033D01*
X90413951Y-114877270D01*
X90317389Y-115097410D01*
X90258379Y-115330440D01*
X90238529Y-115569994D01*
X90238529Y-115570005D01*
X90258379Y-115809559D01*
X90317389Y-116042589D01*
X90413951Y-116262729D01*
X90525568Y-116433570D01*
X90545429Y-116463969D01*
X90708236Y-116640825D01*
X90779144Y-116696014D01*
X90838414Y-116742147D01*
X90879227Y-116798857D01*
X90882901Y-116868630D01*
X90848269Y-116929313D01*
X90838414Y-116937853D01*
X90708238Y-117039173D01*
X90545430Y-117216029D01*
X90545427Y-117216033D01*
X90413951Y-117417270D01*
X90317389Y-117637410D01*
X90258379Y-117870440D01*
X90238529Y-118109994D01*
X90238529Y-118110005D01*
X90258379Y-118349559D01*
X90317389Y-118582589D01*
X90413951Y-118802729D01*
X90525568Y-118973570D01*
X90545429Y-119003969D01*
X90708236Y-119180825D01*
X90779144Y-119236014D01*
X90838414Y-119282147D01*
X90879227Y-119338857D01*
X90882901Y-119408630D01*
X90848269Y-119469313D01*
X90838414Y-119477853D01*
X90708238Y-119579173D01*
X90545430Y-119756029D01*
X90545427Y-119756033D01*
X90413951Y-119957270D01*
X90317389Y-120177410D01*
X90258379Y-120410440D01*
X90238529Y-120649994D01*
X90238529Y-120650005D01*
X90258379Y-120889559D01*
X90317389Y-121122589D01*
X90413951Y-121342729D01*
X90525568Y-121513570D01*
X90545429Y-121543969D01*
X90708236Y-121720825D01*
X90779144Y-121776014D01*
X90838414Y-121822147D01*
X90879227Y-121878857D01*
X90882901Y-121948630D01*
X90848269Y-122009313D01*
X90838414Y-122017853D01*
X90708238Y-122119173D01*
X90545430Y-122296029D01*
X90545427Y-122296033D01*
X90413951Y-122497270D01*
X90317389Y-122717410D01*
X90258379Y-122950440D01*
X90238529Y-123189994D01*
X90238529Y-123190005D01*
X90258379Y-123429559D01*
X90317389Y-123662589D01*
X90413951Y-123882729D01*
X90525568Y-124053570D01*
X90545429Y-124083969D01*
X90708236Y-124260825D01*
X90708239Y-124260827D01*
X90708242Y-124260830D01*
X90897924Y-124408466D01*
X90897934Y-124408473D01*
X90903857Y-124411677D01*
X90907424Y-124413608D01*
X90957017Y-124462826D01*
X90972128Y-124531042D01*
X90947959Y-124596598D01*
X90919535Y-124624239D01*
X90822929Y-124691883D01*
X90822920Y-124691891D01*
X90655891Y-124858920D01*
X90655886Y-124858926D01*
X90520400Y-125052420D01*
X90520399Y-125052422D01*
X90420570Y-125266507D01*
X90420567Y-125266513D01*
X90363364Y-125479999D01*
X90363364Y-125480000D01*
X91080653Y-125480000D01*
X91147692Y-125499685D01*
X91193447Y-125552489D01*
X91203391Y-125621647D01*
X91199631Y-125638933D01*
X91194000Y-125658111D01*
X91194000Y-125801888D01*
X91199631Y-125821067D01*
X91199630Y-125890936D01*
X91161855Y-125949714D01*
X91098299Y-125978738D01*
X91080653Y-125980000D01*
X90363364Y-125980000D01*
X90420567Y-126193486D01*
X90420570Y-126193492D01*
X90520399Y-126407578D01*
X90655894Y-126601082D01*
X90822917Y-126768105D01*
X90919535Y-126835758D01*
X90963159Y-126890335D01*
X90970352Y-126959834D01*
X90938830Y-127022188D01*
X90907436Y-127046383D01*
X90897948Y-127051518D01*
X90897936Y-127051525D01*
X90708237Y-127199174D01*
X90545430Y-127376029D01*
X90545427Y-127376033D01*
X90413951Y-127577270D01*
X90317389Y-127797410D01*
X90258379Y-128030440D01*
X90238529Y-128269994D01*
X90238529Y-128270005D01*
X90258379Y-128509559D01*
X90317389Y-128742589D01*
X90413951Y-128962729D01*
X90525568Y-129133570D01*
X90545429Y-129163969D01*
X90708236Y-129340825D01*
X90742918Y-129367819D01*
X90838414Y-129442147D01*
X90879227Y-129498857D01*
X90882901Y-129568630D01*
X90848269Y-129629313D01*
X90838414Y-129637853D01*
X90708238Y-129739173D01*
X90545430Y-129916029D01*
X90545427Y-129916033D01*
X90413951Y-130117270D01*
X90317389Y-130337410D01*
X90258379Y-130570440D01*
X90238529Y-130809994D01*
X90238529Y-130810005D01*
X90258379Y-131049559D01*
X90317389Y-131282589D01*
X90413951Y-131502729D01*
X90525568Y-131673570D01*
X90545429Y-131703969D01*
X90708236Y-131880825D01*
X90708239Y-131880827D01*
X90708242Y-131880830D01*
X90897924Y-132028466D01*
X90897934Y-132028473D01*
X90903857Y-132031677D01*
X90907424Y-132033608D01*
X90957017Y-132082826D01*
X90972128Y-132151042D01*
X90947959Y-132216598D01*
X90919535Y-132244239D01*
X90822929Y-132311883D01*
X90822920Y-132311891D01*
X90655891Y-132478920D01*
X90655886Y-132478926D01*
X90520400Y-132672420D01*
X90520399Y-132672422D01*
X90420570Y-132886507D01*
X90420567Y-132886513D01*
X90363364Y-133099999D01*
X90363364Y-133100000D01*
X91080653Y-133100000D01*
X91147692Y-133119685D01*
X91193447Y-133172489D01*
X91203391Y-133241647D01*
X91199631Y-133258933D01*
X91194000Y-133278111D01*
X91194000Y-133421888D01*
X91199631Y-133441067D01*
X91199630Y-133510936D01*
X91161855Y-133569714D01*
X91098299Y-133598738D01*
X91080653Y-133600000D01*
X90363364Y-133600000D01*
X90420567Y-133813486D01*
X90420570Y-133813492D01*
X90520399Y-134027578D01*
X90655894Y-134221082D01*
X90822917Y-134388105D01*
X90919535Y-134455758D01*
X90963159Y-134510335D01*
X90970352Y-134579834D01*
X90938830Y-134642188D01*
X90907436Y-134666383D01*
X90897948Y-134671518D01*
X90897936Y-134671525D01*
X90708237Y-134819174D01*
X90545430Y-134996029D01*
X90545427Y-134996033D01*
X90413951Y-135197270D01*
X90317389Y-135417410D01*
X90258379Y-135650440D01*
X90238529Y-135889994D01*
X90238529Y-135890005D01*
X89662000Y-135890005D01*
X89662000Y-100631236D01*
X104430000Y-100631236D01*
X104445084Y-100856564D01*
X104445086Y-100856573D01*
X104505083Y-101151758D01*
X104505087Y-101151773D01*
X104603901Y-101436343D01*
X104603903Y-101436346D01*
X104739759Y-101705198D01*
X104910254Y-101953564D01*
X105112314Y-102176971D01*
X105342361Y-102371464D01*
X105596271Y-102533554D01*
X105596273Y-102533555D01*
X105869514Y-102660351D01*
X105869528Y-102660356D01*
X106157234Y-102749605D01*
X106430000Y-102795614D01*
X106430000Y-100425125D01*
X106449685Y-100358086D01*
X106502489Y-100312331D01*
X106564240Y-100301549D01*
X106581870Y-100303009D01*
X106617957Y-100306000D01*
X106617959Y-100306000D01*
X106742041Y-100306000D01*
X106742043Y-100306000D01*
X106778129Y-100303009D01*
X106795760Y-100301549D01*
X106864196Y-100315630D01*
X106914155Y-100364475D01*
X106930000Y-100425125D01*
X106930000Y-102792207D01*
X107055076Y-102779624D01*
X107055079Y-102779623D01*
X107348107Y-102709791D01*
X107348116Y-102709789D01*
X107629216Y-102601525D01*
X107629231Y-102601518D01*
X107893395Y-102456751D01*
X107893401Y-102456747D01*
X108135911Y-102278064D01*
X108352451Y-102068644D01*
X108352457Y-102068637D01*
X108539145Y-101832231D01*
X108692657Y-101573051D01*
X108692666Y-101573033D01*
X108810260Y-101295716D01*
X108810265Y-101295699D01*
X108889848Y-101005173D01*
X108930000Y-100706616D01*
X108930000Y-100631236D01*
X114590000Y-100631236D01*
X114605084Y-100856564D01*
X114605086Y-100856573D01*
X114665083Y-101151758D01*
X114665087Y-101151773D01*
X114763901Y-101436343D01*
X114763903Y-101436346D01*
X114899759Y-101705198D01*
X115070254Y-101953564D01*
X115272314Y-102176971D01*
X115502361Y-102371464D01*
X115756271Y-102533554D01*
X115756273Y-102533555D01*
X116029514Y-102660351D01*
X116029528Y-102660356D01*
X116317234Y-102749605D01*
X116590000Y-102795614D01*
X116590000Y-100425125D01*
X116609685Y-100358086D01*
X116662489Y-100312331D01*
X116724240Y-100301549D01*
X116741870Y-100303009D01*
X116777957Y-100306000D01*
X116777959Y-100306000D01*
X116902041Y-100306000D01*
X116902043Y-100306000D01*
X116955759Y-100301549D01*
X117024195Y-100315630D01*
X117074154Y-100364475D01*
X117089999Y-100425125D01*
X117089998Y-102792206D01*
X117089999Y-102792207D01*
X117215076Y-102779624D01*
X117215079Y-102779623D01*
X117508107Y-102709791D01*
X117508116Y-102709789D01*
X117789216Y-102601525D01*
X117789231Y-102601518D01*
X118053395Y-102456751D01*
X118053401Y-102456747D01*
X118295911Y-102278064D01*
X118512451Y-102068644D01*
X118512457Y-102068637D01*
X118699145Y-101832231D01*
X118852657Y-101573051D01*
X118852666Y-101573033D01*
X118970260Y-101295716D01*
X118970265Y-101295699D01*
X119049848Y-101005173D01*
X119065978Y-100885236D01*
X132370000Y-100885236D01*
X132385084Y-101110564D01*
X132385086Y-101110573D01*
X132445083Y-101405758D01*
X132445087Y-101405773D01*
X132543901Y-101690343D01*
X132543903Y-101690346D01*
X132679759Y-101959198D01*
X132850254Y-102207564D01*
X133052314Y-102430971D01*
X133282361Y-102625464D01*
X133536271Y-102787554D01*
X133536273Y-102787555D01*
X133809514Y-102914351D01*
X133809528Y-102914356D01*
X134097234Y-103003605D01*
X134370000Y-103049614D01*
X134370000Y-100679125D01*
X134389685Y-100612086D01*
X134442489Y-100566331D01*
X134504240Y-100555549D01*
X134521870Y-100557009D01*
X134557957Y-100560000D01*
X134557959Y-100560000D01*
X134682041Y-100560000D01*
X134682043Y-100560000D01*
X134718129Y-100557009D01*
X134735760Y-100555549D01*
X134804196Y-100569630D01*
X134854155Y-100618475D01*
X134870000Y-100679125D01*
X134870000Y-103046207D01*
X134995076Y-103033624D01*
X134995079Y-103033623D01*
X135288107Y-102963791D01*
X135288116Y-102963789D01*
X135569216Y-102855525D01*
X135569231Y-102855518D01*
X135833395Y-102710751D01*
X135833401Y-102710747D01*
X136075911Y-102532064D01*
X136292451Y-102322644D01*
X136292457Y-102322637D01*
X136479145Y-102086231D01*
X136632657Y-101827051D01*
X136632666Y-101827033D01*
X136750260Y-101549716D01*
X136750265Y-101549699D01*
X136829848Y-101259173D01*
X136870000Y-100960616D01*
X136870000Y-100885236D01*
X142530000Y-100885236D01*
X142545084Y-101110564D01*
X142545086Y-101110573D01*
X142605083Y-101405758D01*
X142605087Y-101405773D01*
X142703901Y-101690343D01*
X142703903Y-101690346D01*
X142839759Y-101959198D01*
X143010254Y-102207564D01*
X143212314Y-102430971D01*
X143442361Y-102625464D01*
X143696271Y-102787554D01*
X143696273Y-102787555D01*
X143969514Y-102914351D01*
X143969528Y-102914356D01*
X144257234Y-103003605D01*
X144530000Y-103049614D01*
X144530000Y-100679125D01*
X144549685Y-100612086D01*
X144602489Y-100566331D01*
X144664240Y-100555549D01*
X144681870Y-100557009D01*
X144717957Y-100560000D01*
X144717959Y-100560000D01*
X144842041Y-100560000D01*
X144842043Y-100560000D01*
X144878129Y-100557009D01*
X144895760Y-100555549D01*
X144964196Y-100569630D01*
X145014155Y-100618475D01*
X145030000Y-100679125D01*
X145030000Y-103046207D01*
X145155076Y-103033624D01*
X145155079Y-103033623D01*
X145448107Y-102963791D01*
X145448116Y-102963789D01*
X145729216Y-102855525D01*
X145729231Y-102855518D01*
X145993395Y-102710751D01*
X145993401Y-102710747D01*
X146235911Y-102532064D01*
X146452451Y-102322644D01*
X146452457Y-102322637D01*
X146639145Y-102086231D01*
X146792657Y-101827051D01*
X146792666Y-101827033D01*
X146910260Y-101549716D01*
X146910265Y-101549699D01*
X146989848Y-101259173D01*
X147030000Y-100960616D01*
X147030000Y-99310000D01*
X146404000Y-99310000D01*
X146336961Y-99290315D01*
X146291206Y-99237511D01*
X146280000Y-99186000D01*
X146280000Y-98934000D01*
X146299685Y-98866961D01*
X146352489Y-98821206D01*
X146404000Y-98810000D01*
X147030000Y-98810000D01*
X147030000Y-97234764D01*
X147014915Y-97009435D01*
X147014913Y-97009426D01*
X146954916Y-96714241D01*
X146954912Y-96714226D01*
X146856098Y-96429656D01*
X146856096Y-96429653D01*
X146720240Y-96160801D01*
X146549745Y-95912435D01*
X146347685Y-95689028D01*
X146117638Y-95494535D01*
X145863728Y-95332445D01*
X145863726Y-95332444D01*
X145590485Y-95205648D01*
X145590471Y-95205643D01*
X145302765Y-95116394D01*
X145030000Y-95070384D01*
X145030000Y-97440874D01*
X145010315Y-97507913D01*
X144957511Y-97553668D01*
X144895762Y-97564451D01*
X144855549Y-97561119D01*
X144842043Y-97560000D01*
X144717957Y-97560000D01*
X144704450Y-97561119D01*
X144664238Y-97564451D01*
X144595802Y-97550368D01*
X144545844Y-97501522D01*
X144530000Y-97440874D01*
X144530000Y-95073792D01*
X144404922Y-95086375D01*
X144404920Y-95086376D01*
X144111892Y-95156208D01*
X144111883Y-95156210D01*
X143830783Y-95264474D01*
X143830768Y-95264481D01*
X143566604Y-95409248D01*
X143566598Y-95409252D01*
X143324088Y-95587935D01*
X143107548Y-95797355D01*
X143107542Y-95797362D01*
X142920854Y-96033768D01*
X142767342Y-96292948D01*
X142767333Y-96292966D01*
X142649739Y-96570283D01*
X142649734Y-96570300D01*
X142570151Y-96860826D01*
X142530000Y-97159383D01*
X142530000Y-98810000D01*
X143156000Y-98810000D01*
X143223039Y-98829685D01*
X143268794Y-98882489D01*
X143280000Y-98934000D01*
X143280000Y-99186000D01*
X143260315Y-99253039D01*
X143207511Y-99298794D01*
X143156000Y-99310000D01*
X142530000Y-99310000D01*
X142530000Y-100885236D01*
X136870000Y-100885236D01*
X136870000Y-99310000D01*
X136244000Y-99310000D01*
X136176961Y-99290315D01*
X136131206Y-99237511D01*
X136120000Y-99186000D01*
X136120000Y-98934000D01*
X136139685Y-98866961D01*
X136192489Y-98821206D01*
X136244000Y-98810000D01*
X136870000Y-98810000D01*
X136870000Y-97234764D01*
X136854915Y-97009435D01*
X136854913Y-97009426D01*
X136794916Y-96714241D01*
X136794912Y-96714226D01*
X136696098Y-96429656D01*
X136696096Y-96429653D01*
X136560240Y-96160801D01*
X136389745Y-95912435D01*
X136187685Y-95689028D01*
X135957638Y-95494535D01*
X135703728Y-95332445D01*
X135703726Y-95332444D01*
X135430485Y-95205648D01*
X135430471Y-95205643D01*
X135142765Y-95116394D01*
X134870000Y-95070384D01*
X134870000Y-97440874D01*
X134850315Y-97507913D01*
X134797511Y-97553668D01*
X134735762Y-97564451D01*
X134695549Y-97561119D01*
X134682043Y-97560000D01*
X134557957Y-97560000D01*
X134544450Y-97561119D01*
X134504238Y-97564451D01*
X134435802Y-97550368D01*
X134385844Y-97501522D01*
X134370000Y-97440874D01*
X134370000Y-95073792D01*
X134244922Y-95086375D01*
X134244920Y-95086376D01*
X133951892Y-95156208D01*
X133951883Y-95156210D01*
X133670783Y-95264474D01*
X133670768Y-95264481D01*
X133406604Y-95409248D01*
X133406598Y-95409252D01*
X133164088Y-95587935D01*
X132947548Y-95797355D01*
X132947542Y-95797362D01*
X132760854Y-96033768D01*
X132607342Y-96292948D01*
X132607333Y-96292966D01*
X132489739Y-96570283D01*
X132489734Y-96570300D01*
X132410151Y-96860826D01*
X132370000Y-97159383D01*
X132370000Y-98810000D01*
X132996000Y-98810000D01*
X133063039Y-98829685D01*
X133108794Y-98882489D01*
X133120000Y-98934000D01*
X133120000Y-99186000D01*
X133100315Y-99253039D01*
X133047511Y-99298794D01*
X132996000Y-99310000D01*
X132370000Y-99310000D01*
X132370000Y-100885236D01*
X119065978Y-100885236D01*
X119090000Y-100706616D01*
X119090000Y-99056000D01*
X118464000Y-99056000D01*
X118396961Y-99036315D01*
X118351206Y-98983511D01*
X118340000Y-98932000D01*
X118340000Y-98680000D01*
X118359685Y-98612961D01*
X118412489Y-98567206D01*
X118464000Y-98556000D01*
X119090000Y-98556000D01*
X119090000Y-96980764D01*
X119074915Y-96755435D01*
X119074913Y-96755426D01*
X119014916Y-96460241D01*
X119014912Y-96460226D01*
X118916098Y-96175656D01*
X118916096Y-96175653D01*
X118780240Y-95906801D01*
X118609745Y-95658435D01*
X118407685Y-95435028D01*
X118177638Y-95240535D01*
X117923728Y-95078445D01*
X117923726Y-95078444D01*
X117650485Y-94951648D01*
X117650471Y-94951643D01*
X117362765Y-94862394D01*
X117089999Y-94816384D01*
X117089999Y-97186874D01*
X117070314Y-97253913D01*
X117017510Y-97299668D01*
X116955761Y-97310451D01*
X116920086Y-97307495D01*
X116902043Y-97306000D01*
X116777957Y-97306000D01*
X116764450Y-97307119D01*
X116724238Y-97310451D01*
X116655802Y-97296368D01*
X116605844Y-97247522D01*
X116590000Y-97186874D01*
X116589999Y-94819792D01*
X116464922Y-94832375D01*
X116464920Y-94832376D01*
X116171892Y-94902208D01*
X116171883Y-94902210D01*
X115890783Y-95010474D01*
X115890768Y-95010481D01*
X115626604Y-95155248D01*
X115626598Y-95155252D01*
X115384088Y-95333935D01*
X115167548Y-95543355D01*
X115167542Y-95543362D01*
X114980854Y-95779768D01*
X114827342Y-96038948D01*
X114827333Y-96038966D01*
X114709739Y-96316283D01*
X114709734Y-96316300D01*
X114630151Y-96606826D01*
X114590000Y-96905383D01*
X114590000Y-98556000D01*
X115216000Y-98556000D01*
X115283039Y-98575685D01*
X115328794Y-98628489D01*
X115340000Y-98680000D01*
X115340000Y-98932000D01*
X115320315Y-98999039D01*
X115267511Y-99044794D01*
X115216000Y-99056000D01*
X114590000Y-99056000D01*
X114590000Y-100631236D01*
X108930000Y-100631236D01*
X108930000Y-99056000D01*
X108304000Y-99056000D01*
X108236961Y-99036315D01*
X108191206Y-98983511D01*
X108180000Y-98932000D01*
X108180000Y-98680000D01*
X108199685Y-98612961D01*
X108252489Y-98567206D01*
X108304000Y-98556000D01*
X108930000Y-98556000D01*
X108930000Y-96980764D01*
X108914915Y-96755435D01*
X108914913Y-96755426D01*
X108854916Y-96460241D01*
X108854912Y-96460226D01*
X108756098Y-96175656D01*
X108756096Y-96175653D01*
X108620240Y-95906801D01*
X108449745Y-95658435D01*
X108247685Y-95435028D01*
X108017638Y-95240535D01*
X107763728Y-95078445D01*
X107763726Y-95078444D01*
X107490485Y-94951648D01*
X107490471Y-94951643D01*
X107202765Y-94862394D01*
X106930000Y-94816384D01*
X106930000Y-97186874D01*
X106910315Y-97253913D01*
X106857511Y-97299668D01*
X106795762Y-97310451D01*
X106755549Y-97307119D01*
X106742043Y-97306000D01*
X106617957Y-97306000D01*
X106604450Y-97307119D01*
X106564238Y-97310451D01*
X106495802Y-97296368D01*
X106445844Y-97247522D01*
X106430000Y-97186874D01*
X106430000Y-94819792D01*
X106304922Y-94832375D01*
X106304920Y-94832376D01*
X106011892Y-94902208D01*
X106011883Y-94902210D01*
X105730783Y-95010474D01*
X105730768Y-95010481D01*
X105466604Y-95155248D01*
X105466598Y-95155252D01*
X105224088Y-95333935D01*
X105007548Y-95543355D01*
X105007542Y-95543362D01*
X104820854Y-95779768D01*
X104667342Y-96038948D01*
X104667333Y-96038966D01*
X104549739Y-96316283D01*
X104549734Y-96316300D01*
X104470151Y-96606826D01*
X104430000Y-96905383D01*
X104430000Y-98556000D01*
X105056000Y-98556000D01*
X105123039Y-98575685D01*
X105168794Y-98628489D01*
X105180000Y-98680000D01*
X105180000Y-98932000D01*
X105160315Y-98999039D01*
X105107511Y-99044794D01*
X105056000Y-99056000D01*
X104430000Y-99056000D01*
X104430000Y-100631236D01*
X89662000Y-100631236D01*
X89662000Y-90548000D01*
X89681685Y-90480961D01*
X89734489Y-90435206D01*
X89786000Y-90424000D01*
X160150000Y-90424000D01*
X160217039Y-90443685D01*
G37*
G04 #@! TD.AperFunction*
G04 #@! TA.AperFunction,Conductor*
G36*
X156292584Y-129412119D02*
G01*
X157183497Y-129755000D01*
X157794093Y-129989996D01*
X157800584Y-129996165D01*
X157800810Y-130005117D01*
X157800705Y-130005381D01*
X157482853Y-130775111D01*
X157476528Y-130781450D01*
X157476512Y-130781456D01*
X156706556Y-131099977D01*
X156697601Y-131099973D01*
X156691272Y-131093639D01*
X156690907Y-131092627D01*
X156594546Y-130781456D01*
X156277207Y-129756692D01*
X156276683Y-129753231D01*
X156276683Y-129423039D01*
X156280110Y-129414766D01*
X156288383Y-129411339D01*
X156292584Y-129412119D01*
G37*
G04 #@! TD.AperFunction*
G04 #@! TA.AperFunction,Conductor*
G36*
X92774546Y-129487487D02*
G01*
X92778068Y-129489906D01*
X93014093Y-129725931D01*
X93017520Y-129734204D01*
X93016740Y-129738405D01*
X92483602Y-131124092D01*
X92477433Y-131130583D01*
X92468481Y-131130811D01*
X92468232Y-131130711D01*
X91697784Y-130812561D01*
X91691447Y-130806238D01*
X91373294Y-130035781D01*
X91373303Y-130026828D01*
X91379642Y-130020503D01*
X91379876Y-130020409D01*
X92765595Y-129487259D01*
X92774546Y-129487487D01*
G37*
G04 #@! TD.AperFunction*
G04 #@! TA.AperFunction,Conductor*
G36*
X94247210Y-129961748D02*
G01*
X95923836Y-130183654D01*
X95931587Y-130188137D01*
X95934000Y-130195253D01*
X95934000Y-131424746D01*
X95930573Y-131433019D01*
X95923835Y-131436345D01*
X94247219Y-131658250D01*
X94238568Y-131655938D01*
X94234085Y-131648186D01*
X94233984Y-131646665D01*
X94233000Y-130810000D01*
X94233723Y-130195253D01*
X94233984Y-129973333D01*
X94237421Y-129965065D01*
X94245698Y-129961648D01*
X94247210Y-129961748D01*
G37*
G04 #@! TD.AperFunction*
G04 #@! TA.AperFunction,Conductor*
G36*
X154933632Y-129959061D02*
G01*
X154938115Y-129966813D01*
X154938215Y-129968329D01*
X154938458Y-130174084D01*
X154939200Y-130805000D01*
X154938215Y-131641665D01*
X154934778Y-131649934D01*
X154926501Y-131653351D01*
X154924980Y-131653250D01*
X153248365Y-131431345D01*
X153240613Y-131426862D01*
X153238200Y-131419746D01*
X153238200Y-130190253D01*
X153241627Y-130181980D01*
X153248363Y-130178654D01*
X153284746Y-130173839D01*
X153289093Y-130174083D01*
X153303901Y-130177766D01*
X153483392Y-130182629D01*
X153659732Y-130148792D01*
X153740807Y-130113916D01*
X153743865Y-130113073D01*
X154924982Y-129956749D01*
X154933632Y-129959061D01*
G37*
G04 #@! TD.AperFunction*
M02*
