%TF.GenerationSoftware,KiCad,Pcbnew,7.0.7*%
%TF.CreationDate,2023-11-11T11:48:03+00:00*%
%TF.ProjectId,AD3 Front End Amplifier,41443320-4672-46f6-9e74-20456e642041,rev?*%
%TF.SameCoordinates,Original*%
%TF.FileFunction,Drillmap*%
%TF.FilePolarity,Positive*%
%FSLAX45Y45*%
G04 Gerber Fmt 4.5, Leading zero omitted, Abs format (unit mm)*
G04 Created by KiCad (PCBNEW 7.0.7) date 2023-11-11 11:48:03*
%MOMM*%
%LPD*%
G01*
G04 APERTURE LIST*
%ADD10C,0.100000*%
%ADD11C,0.200000*%
G04 APERTURE END LIST*
D10*
X17413000Y-6223000D02*
X25000000Y-6223000D01*
X25000000Y-13683000D01*
X17413000Y-13683000D01*
X17413000Y-6223000D01*
D11*
X17668777Y-13999484D02*
X17668777Y-13799484D01*
X17668777Y-13799484D02*
X17716396Y-13799484D01*
X17716396Y-13799484D02*
X17744967Y-13809008D01*
X17744967Y-13809008D02*
X17764015Y-13828055D01*
X17764015Y-13828055D02*
X17773539Y-13847103D01*
X17773539Y-13847103D02*
X17783063Y-13885198D01*
X17783063Y-13885198D02*
X17783063Y-13913769D01*
X17783063Y-13913769D02*
X17773539Y-13951865D01*
X17773539Y-13951865D02*
X17764015Y-13970912D01*
X17764015Y-13970912D02*
X17744967Y-13989960D01*
X17744967Y-13989960D02*
X17716396Y-13999484D01*
X17716396Y-13999484D02*
X17668777Y-13999484D01*
X17868777Y-13999484D02*
X17868777Y-13866150D01*
X17868777Y-13904246D02*
X17878301Y-13885198D01*
X17878301Y-13885198D02*
X17887824Y-13875674D01*
X17887824Y-13875674D02*
X17906872Y-13866150D01*
X17906872Y-13866150D02*
X17925920Y-13866150D01*
X17992586Y-13999484D02*
X17992586Y-13866150D01*
X17992586Y-13799484D02*
X17983063Y-13809008D01*
X17983063Y-13809008D02*
X17992586Y-13818531D01*
X17992586Y-13818531D02*
X18002110Y-13809008D01*
X18002110Y-13809008D02*
X17992586Y-13799484D01*
X17992586Y-13799484D02*
X17992586Y-13818531D01*
X18116396Y-13999484D02*
X18097348Y-13989960D01*
X18097348Y-13989960D02*
X18087824Y-13970912D01*
X18087824Y-13970912D02*
X18087824Y-13799484D01*
X18221158Y-13999484D02*
X18202110Y-13989960D01*
X18202110Y-13989960D02*
X18192586Y-13970912D01*
X18192586Y-13970912D02*
X18192586Y-13799484D01*
X18449729Y-13999484D02*
X18449729Y-13799484D01*
X18449729Y-13799484D02*
X18516396Y-13942341D01*
X18516396Y-13942341D02*
X18583063Y-13799484D01*
X18583063Y-13799484D02*
X18583063Y-13999484D01*
X18764015Y-13999484D02*
X18764015Y-13894722D01*
X18764015Y-13894722D02*
X18754491Y-13875674D01*
X18754491Y-13875674D02*
X18735444Y-13866150D01*
X18735444Y-13866150D02*
X18697348Y-13866150D01*
X18697348Y-13866150D02*
X18678301Y-13875674D01*
X18764015Y-13989960D02*
X18744967Y-13999484D01*
X18744967Y-13999484D02*
X18697348Y-13999484D01*
X18697348Y-13999484D02*
X18678301Y-13989960D01*
X18678301Y-13989960D02*
X18668777Y-13970912D01*
X18668777Y-13970912D02*
X18668777Y-13951865D01*
X18668777Y-13951865D02*
X18678301Y-13932817D01*
X18678301Y-13932817D02*
X18697348Y-13923293D01*
X18697348Y-13923293D02*
X18744967Y-13923293D01*
X18744967Y-13923293D02*
X18764015Y-13913769D01*
X18859253Y-13866150D02*
X18859253Y-14066150D01*
X18859253Y-13875674D02*
X18878301Y-13866150D01*
X18878301Y-13866150D02*
X18916396Y-13866150D01*
X18916396Y-13866150D02*
X18935444Y-13875674D01*
X18935444Y-13875674D02*
X18944967Y-13885198D01*
X18944967Y-13885198D02*
X18954491Y-13904246D01*
X18954491Y-13904246D02*
X18954491Y-13961388D01*
X18954491Y-13961388D02*
X18944967Y-13980436D01*
X18944967Y-13980436D02*
X18935444Y-13989960D01*
X18935444Y-13989960D02*
X18916396Y-13999484D01*
X18916396Y-13999484D02*
X18878301Y-13999484D01*
X18878301Y-13999484D02*
X18859253Y-13989960D01*
X19040205Y-13980436D02*
X19049729Y-13989960D01*
X19049729Y-13989960D02*
X19040205Y-13999484D01*
X19040205Y-13999484D02*
X19030682Y-13989960D01*
X19030682Y-13989960D02*
X19040205Y-13980436D01*
X19040205Y-13980436D02*
X19040205Y-13999484D01*
X19040205Y-13875674D02*
X19049729Y-13885198D01*
X19049729Y-13885198D02*
X19040205Y-13894722D01*
X19040205Y-13894722D02*
X19030682Y-13885198D01*
X19030682Y-13885198D02*
X19040205Y-13875674D01*
X19040205Y-13875674D02*
X19040205Y-13894722D01*
M02*
