G04 #@! TF.GenerationSoftware,KiCad,Pcbnew,7.0.7*
G04 #@! TF.CreationDate,2023-10-29T13:55:44+00:00*
G04 #@! TF.ProjectId,AD3 Front End Amplifier,41443320-4672-46f6-9e74-20456e642041,rev?*
G04 #@! TF.SameCoordinates,Original*
G04 #@! TF.FileFunction,Copper,L1,Top*
G04 #@! TF.FilePolarity,Positive*
%FSLAX46Y46*%
G04 Gerber Fmt 4.6, Leading zero omitted, Abs format (unit mm)*
G04 Created by KiCad (PCBNEW 7.0.7) date 2023-10-29 13:55:44*
%MOMM*%
%LPD*%
G01*
G04 APERTURE LIST*
G04 Aperture macros list*
%AMRoundRect*
0 Rectangle with rounded corners*
0 $1 Rounding radius*
0 $2 $3 $4 $5 $6 $7 $8 $9 X,Y pos of 4 corners*
0 Add a 4 corners polygon primitive as box body*
4,1,4,$2,$3,$4,$5,$6,$7,$8,$9,$2,$3,0*
0 Add four circle primitives for the rounded corners*
1,1,$1+$1,$2,$3*
1,1,$1+$1,$4,$5*
1,1,$1+$1,$6,$7*
1,1,$1+$1,$8,$9*
0 Add four rect primitives between the rounded corners*
20,1,$1+$1,$2,$3,$4,$5,0*
20,1,$1+$1,$4,$5,$6,$7,0*
20,1,$1+$1,$6,$7,$8,$9,0*
20,1,$1+$1,$8,$9,$2,$3,0*%
G04 Aperture macros list end*
G04 #@! TA.AperFunction,ComponentPad*
%ADD10R,1.700000X1.700000*%
G04 #@! TD*
G04 #@! TA.AperFunction,ComponentPad*
%ADD11O,1.700000X1.700000*%
G04 #@! TD*
G04 #@! TA.AperFunction,SMDPad,CuDef*
%ADD12RoundRect,0.150000X0.150000X-0.512500X0.150000X0.512500X-0.150000X0.512500X-0.150000X-0.512500X0*%
G04 #@! TD*
G04 #@! TA.AperFunction,SMDPad,CuDef*
%ADD13RoundRect,0.150000X0.512500X0.150000X-0.512500X0.150000X-0.512500X-0.150000X0.512500X-0.150000X0*%
G04 #@! TD*
G04 #@! TA.AperFunction,ComponentPad*
%ADD14R,1.600000X1.600000*%
G04 #@! TD*
G04 #@! TA.AperFunction,ComponentPad*
%ADD15O,1.600000X1.600000*%
G04 #@! TD*
G04 #@! TA.AperFunction,SMDPad,CuDef*
%ADD16RoundRect,0.237500X-0.250000X-0.237500X0.250000X-0.237500X0.250000X0.237500X-0.250000X0.237500X0*%
G04 #@! TD*
G04 #@! TA.AperFunction,SMDPad,CuDef*
%ADD17RoundRect,0.237500X0.250000X0.237500X-0.250000X0.237500X-0.250000X-0.237500X0.250000X-0.237500X0*%
G04 #@! TD*
G04 #@! TA.AperFunction,SMDPad,CuDef*
%ADD18RoundRect,0.160000X0.197500X0.160000X-0.197500X0.160000X-0.197500X-0.160000X0.197500X-0.160000X0*%
G04 #@! TD*
G04 #@! TA.AperFunction,SMDPad,CuDef*
%ADD19RoundRect,0.160000X0.160000X-0.197500X0.160000X0.197500X-0.160000X0.197500X-0.160000X-0.197500X0*%
G04 #@! TD*
G04 #@! TA.AperFunction,SMDPad,CuDef*
%ADD20RoundRect,0.160000X-0.197500X-0.160000X0.197500X-0.160000X0.197500X0.160000X-0.197500X0.160000X0*%
G04 #@! TD*
G04 #@! TA.AperFunction,SMDPad,CuDef*
%ADD21RoundRect,0.250000X-0.450000X0.350000X-0.450000X-0.350000X0.450000X-0.350000X0.450000X0.350000X0*%
G04 #@! TD*
G04 #@! TA.AperFunction,ComponentPad*
%ADD22O,1.600000X2.500000*%
G04 #@! TD*
G04 #@! TA.AperFunction,ComponentPad*
%ADD23O,3.500000X7.000000*%
G04 #@! TD*
G04 #@! TA.AperFunction,SMDPad,CuDef*
%ADD24RoundRect,0.237500X-0.237500X0.300000X-0.237500X-0.300000X0.237500X-0.300000X0.237500X0.300000X0*%
G04 #@! TD*
G04 #@! TA.AperFunction,SMDPad,CuDef*
%ADD25RoundRect,0.237500X-0.300000X-0.237500X0.300000X-0.237500X0.300000X0.237500X-0.300000X0.237500X0*%
G04 #@! TD*
G04 #@! TA.AperFunction,SMDPad,CuDef*
%ADD26RoundRect,0.237500X0.237500X-0.300000X0.237500X0.300000X-0.237500X0.300000X-0.237500X-0.300000X0*%
G04 #@! TD*
G04 #@! TA.AperFunction,ComponentPad*
%ADD27C,1.600000*%
G04 #@! TD*
G04 #@! TA.AperFunction,ViaPad*
%ADD28C,0.450000*%
G04 #@! TD*
G04 #@! TA.AperFunction,Conductor*
%ADD29C,0.500000*%
G04 #@! TD*
G04 #@! TA.AperFunction,Conductor*
%ADD30C,0.200000*%
G04 #@! TD*
G04 #@! TA.AperFunction,Conductor*
%ADD31C,0.250000*%
G04 #@! TD*
G04 #@! TA.AperFunction,Conductor*
%ADD32C,0.349000*%
G04 #@! TD*
G04 APERTURE END LIST*
D10*
X154938200Y-138425000D03*
D11*
X154938200Y-135885000D03*
X154938200Y-133345000D03*
X154938200Y-130805000D03*
X154938200Y-128265000D03*
X154938200Y-125725000D03*
X154938200Y-123185000D03*
X154938200Y-120645000D03*
X154938200Y-118105000D03*
X154938200Y-115565000D03*
X154938200Y-113025000D03*
X154938200Y-110485000D03*
X154938200Y-107945000D03*
X154938200Y-105405000D03*
X154938200Y-102865000D03*
D10*
X157480000Y-138399600D03*
D11*
X157480000Y-135859600D03*
X157480000Y-133319600D03*
X157480000Y-130779600D03*
X157480000Y-128239600D03*
X157480000Y-125699600D03*
X157480000Y-123159600D03*
X157480000Y-120619600D03*
X157480000Y-118079600D03*
X157480000Y-115539600D03*
X157480000Y-112999600D03*
X157480000Y-110459600D03*
X157480000Y-107919600D03*
X157480000Y-105379600D03*
X157480000Y-102839600D03*
D12*
X130368000Y-145917500D03*
X131318000Y-145917500D03*
X132268000Y-145917500D03*
X132268000Y-143642500D03*
X130368000Y-143642500D03*
X102240000Y-145785000D03*
X103190000Y-145785000D03*
X104140000Y-145785000D03*
X104140000Y-143510000D03*
X102240000Y-143510000D03*
D13*
X129926500Y-136652000D03*
X129926500Y-134752000D03*
X132201500Y-134752000D03*
X132201500Y-135702000D03*
X132201500Y-136652000D03*
X101865000Y-136675500D03*
X101865000Y-134775500D03*
X104140000Y-134775500D03*
X104140000Y-135725500D03*
X104140000Y-136675500D03*
D14*
X111760000Y-111506000D03*
D15*
X119380000Y-111506000D03*
D14*
X139700000Y-111506000D03*
D15*
X132080000Y-111506000D03*
X137160000Y-127508000D03*
D14*
X144780000Y-127508000D03*
D15*
X109220000Y-127762000D03*
D14*
X116840000Y-127762000D03*
D16*
X114507000Y-116840000D03*
X116332000Y-116840000D03*
D17*
X135081000Y-116840000D03*
X136906000Y-116840000D03*
D18*
X128778000Y-147574000D03*
X127583000Y-147574000D03*
X100838000Y-147574000D03*
X99643000Y-147574000D03*
D19*
X132334000Y-140372500D03*
X132334000Y-141567500D03*
D18*
X130377000Y-138684000D03*
X131572000Y-138684000D03*
D19*
X104304500Y-141149000D03*
X104304500Y-139954000D03*
D18*
X103378000Y-138684000D03*
X102183000Y-138684000D03*
D20*
X130810000Y-132842000D03*
X129615000Y-132842000D03*
X102927500Y-132931500D03*
X101732500Y-132931500D03*
D21*
X135890000Y-134366000D03*
X135890000Y-132366000D03*
X107950000Y-134334000D03*
X107950000Y-132334000D03*
D11*
X94234000Y-102870000D03*
X94234000Y-105410000D03*
X94234000Y-107950000D03*
X94234000Y-110490000D03*
X94234000Y-113030000D03*
X94234000Y-115570000D03*
X94234000Y-118110000D03*
X94234000Y-120650000D03*
X94234000Y-123190000D03*
X94234000Y-125730000D03*
X94234000Y-128270000D03*
X94234000Y-130810000D03*
X94234000Y-133350000D03*
X94234000Y-135890000D03*
D10*
X94234000Y-138430000D03*
D11*
X91694000Y-102870000D03*
X91694000Y-105410000D03*
X91694000Y-107950000D03*
X91694000Y-110490000D03*
X91694000Y-113030000D03*
X91694000Y-115570000D03*
X91694000Y-118110000D03*
X91694000Y-120650000D03*
X91694000Y-123190000D03*
X91694000Y-125730000D03*
X91694000Y-128270000D03*
X91694000Y-130810000D03*
X91694000Y-133350000D03*
X91694000Y-135890000D03*
D10*
X91694000Y-138430000D03*
D22*
X111760000Y-103886000D03*
D23*
X116840000Y-98806000D03*
X106680000Y-98806000D03*
D22*
X109220000Y-103886000D03*
X139700000Y-104140000D03*
D23*
X144780000Y-99060000D03*
X134620000Y-99060000D03*
D22*
X137160000Y-104140000D03*
X147320000Y-139700000D03*
D23*
X149860000Y-144780000D03*
X139700000Y-144780000D03*
D22*
X144780000Y-139700000D03*
X116840000Y-139700000D03*
D23*
X111760000Y-144780000D03*
X121920000Y-144780000D03*
D22*
X119380000Y-139700000D03*
D24*
X128270000Y-143563000D03*
X128270000Y-145288000D03*
X100330000Y-143510000D03*
X100330000Y-145235000D03*
D25*
X131371000Y-148336000D03*
X133096000Y-148336000D03*
X103174800Y-148082000D03*
X104899800Y-148082000D03*
D26*
X127762000Y-134874000D03*
X127762000Y-136599000D03*
X99822000Y-136599000D03*
X99822000Y-134874000D03*
D24*
X134366000Y-136144000D03*
X134366000Y-137869000D03*
X106172000Y-136144000D03*
X106172000Y-137869000D03*
D27*
X144860000Y-133604000D03*
X139860000Y-133604000D03*
X111920000Y-133604000D03*
X116920000Y-133604000D03*
D28*
X99060000Y-142748000D03*
X99060000Y-136144000D03*
X127000000Y-144272000D03*
X128524000Y-137668000D03*
X131826000Y-149860000D03*
X135636000Y-137160000D03*
X104394000Y-149098000D03*
X106172000Y-134874000D03*
X103378000Y-130810000D03*
X103632000Y-125984000D03*
X97282000Y-133096000D03*
X97282000Y-126238000D03*
X100584000Y-127508000D03*
X100076000Y-132080000D03*
X132842000Y-144526000D03*
X130048000Y-145034000D03*
X132842000Y-147574000D03*
X129032000Y-144780000D03*
X132334000Y-147066000D03*
X104140000Y-146812000D03*
X104648000Y-147320000D03*
X104648000Y-144526000D03*
X101854000Y-144780000D03*
X100838000Y-146050000D03*
X128524000Y-134112000D03*
X100584000Y-134366000D03*
X105156000Y-137922000D03*
X107950000Y-135636000D03*
X133350000Y-137922000D03*
X135890000Y-135636000D03*
X130476000Y-133408278D03*
X102748500Y-133693500D03*
X130302000Y-135382000D03*
X131318000Y-137160000D03*
X102240500Y-135471500D03*
X103256500Y-137249500D03*
D29*
X99822000Y-143510000D02*
X99060000Y-142748000D01*
X100330000Y-143510000D02*
X99822000Y-143510000D01*
X99060000Y-136144000D02*
X99367000Y-136144000D01*
X99367000Y-136144000D02*
X99822000Y-136599000D01*
X127561000Y-144272000D02*
X128270000Y-143563000D01*
X127000000Y-144272000D02*
X127561000Y-144272000D01*
X128524000Y-137668000D02*
X128524000Y-137361000D01*
X128524000Y-137361000D02*
X127762000Y-136599000D01*
X131826000Y-148791000D02*
X131371000Y-148336000D01*
X131826000Y-149860000D02*
X131826000Y-148791000D01*
X104190800Y-149098000D02*
X104394000Y-149098000D01*
X103174800Y-148082000D02*
X104190800Y-149098000D01*
X135382000Y-137160000D02*
X134366000Y-136144000D01*
X135636000Y-137160000D02*
X135382000Y-137160000D01*
X127815000Y-136652000D02*
X127762000Y-136599000D01*
X129926500Y-136652000D02*
X127815000Y-136652000D01*
X133924000Y-135702000D02*
X134366000Y-136144000D01*
X132201500Y-135702000D02*
X133924000Y-135702000D01*
X128349500Y-143642500D02*
X128270000Y-143563000D01*
X130368000Y-143642500D02*
X128349500Y-143642500D01*
X131318000Y-148283000D02*
X131371000Y-148336000D01*
X131318000Y-145917500D02*
X131318000Y-148283000D01*
X103190000Y-148066800D02*
X103174800Y-148082000D01*
X103190000Y-145785000D02*
X103190000Y-148066800D01*
X102240000Y-143510000D02*
X100330000Y-143510000D01*
X99898500Y-136675500D02*
X99822000Y-136599000D01*
X101865000Y-136675500D02*
X99898500Y-136675500D01*
X105753500Y-135725500D02*
X106172000Y-136144000D01*
X104140000Y-135725500D02*
X105753500Y-135725500D01*
X106172000Y-134874000D02*
X106172000Y-136144000D01*
D30*
X96266000Y-135890000D02*
X94234000Y-135890000D01*
X98152000Y-134004000D02*
X96266000Y-135890000D01*
X107384314Y-123190000D02*
X98152000Y-132422314D01*
X125984000Y-124714000D02*
X124460000Y-123190000D01*
X124460000Y-123190000D02*
X107384314Y-123190000D01*
X125984000Y-137668000D02*
X125984000Y-124714000D01*
X98152000Y-132422314D02*
X98152000Y-134004000D01*
X127000000Y-138684000D02*
X125984000Y-137668000D01*
X130377000Y-138684000D02*
X127000000Y-138684000D01*
X125574157Y-145565157D02*
X127583000Y-147574000D01*
X125574157Y-124869843D02*
X125574157Y-145565157D01*
X107540157Y-123599843D02*
X124304157Y-123599843D01*
X98552000Y-132588000D02*
X107540157Y-123599843D01*
X124304157Y-123599843D02*
X125574157Y-124869843D01*
X92844000Y-137040000D02*
X95878000Y-137040000D01*
X98552000Y-134366000D02*
X98552000Y-132588000D01*
X91694000Y-135890000D02*
X92844000Y-137040000D01*
X95878000Y-137040000D02*
X98552000Y-134366000D01*
X93472000Y-140970000D02*
X94088000Y-141586000D01*
X99968000Y-141586000D02*
X102183000Y-139371000D01*
X102183000Y-139371000D02*
X102183000Y-138684000D01*
X93472000Y-140462000D02*
X93472000Y-140970000D01*
X94234000Y-139700000D02*
X93472000Y-140462000D01*
X94234000Y-138430000D02*
X94234000Y-139700000D01*
X94088000Y-141586000D02*
X99968000Y-141586000D01*
X99060000Y-143764000D02*
X99060000Y-146991000D01*
X97282000Y-141986000D02*
X99060000Y-143764000D01*
X93726000Y-141986000D02*
X97282000Y-141986000D01*
X99060000Y-146991000D02*
X99643000Y-147574000D01*
X91694000Y-139954000D02*
X93726000Y-141986000D01*
X91694000Y-138430000D02*
X91694000Y-139954000D01*
D31*
X132842000Y-144526000D02*
X132842000Y-144216500D01*
X132842000Y-144216500D02*
X132268000Y-143642500D01*
X130368000Y-145354000D02*
X130048000Y-145034000D01*
X130368000Y-145917500D02*
X130368000Y-145354000D01*
X128778000Y-147507500D02*
X130368000Y-145917500D01*
X128778000Y-147574000D02*
X128778000Y-147507500D01*
X133096000Y-147828000D02*
X132842000Y-147574000D01*
X133096000Y-148336000D02*
X133096000Y-147828000D01*
X131371000Y-145970500D02*
X131318000Y-145917500D01*
X128323000Y-145489000D02*
X129032000Y-144780000D01*
X128270000Y-145489000D02*
X128323000Y-145489000D01*
X132268000Y-147000000D02*
X132334000Y-147066000D01*
X132268000Y-145917500D02*
X132268000Y-147000000D01*
X130246500Y-143764000D02*
X130368000Y-143642500D01*
X132334000Y-138430000D02*
X132080000Y-138176000D01*
X132334000Y-140372500D02*
X132334000Y-138430000D01*
X132268000Y-141633500D02*
X132334000Y-141567500D01*
X132268000Y-143642500D02*
X132268000Y-141633500D01*
X132080000Y-136773500D02*
X132201500Y-136652000D01*
X132080000Y-138176000D02*
X132080000Y-136773500D01*
X131572000Y-138684000D02*
X132080000Y-138176000D01*
X102240000Y-145785000D02*
X102240000Y-146172000D01*
X102240000Y-146172000D02*
X100838000Y-147574000D01*
X104304500Y-143345500D02*
X104140000Y-143510000D01*
X104304500Y-141149000D02*
X104304500Y-143345500D01*
X104304500Y-138086500D02*
X104140000Y-137922000D01*
X104304500Y-139954000D02*
X104304500Y-138086500D01*
X104140000Y-145785000D02*
X104140000Y-146812000D01*
X104899800Y-147571800D02*
X104648000Y-147320000D01*
X104899800Y-148082000D02*
X104899800Y-147571800D01*
X103174800Y-145800200D02*
X103190000Y-145785000D01*
X104648000Y-144526000D02*
X104648000Y-144018000D01*
X104648000Y-144018000D02*
X104140000Y-143510000D01*
X102240000Y-145166000D02*
X101854000Y-144780000D01*
X102240000Y-145785000D02*
X102240000Y-145166000D01*
X100330000Y-145542000D02*
X100838000Y-146050000D01*
X100330000Y-145235000D02*
X100330000Y-145542000D01*
X104140000Y-137922000D02*
X103378000Y-138684000D01*
X104140000Y-136675500D02*
X104140000Y-137922000D01*
X127762000Y-134874000D02*
X128524000Y-134112000D01*
X100076000Y-134874000D02*
X100584000Y-134366000D01*
X99822000Y-134874000D02*
X100076000Y-134874000D01*
X101788500Y-136599000D02*
X101865000Y-136675500D01*
X105209000Y-137869000D02*
X105156000Y-137922000D01*
X106172000Y-137869000D02*
X105209000Y-137869000D01*
X107950000Y-134334000D02*
X107950000Y-135636000D01*
X107950000Y-132334000D02*
X105034500Y-132334000D01*
X105034500Y-132334000D02*
X104018500Y-133350000D01*
X133403000Y-137869000D02*
X133350000Y-137922000D01*
X134366000Y-137869000D02*
X133403000Y-137869000D01*
X135890000Y-134366000D02*
X135890000Y-135636000D01*
X104018500Y-134654000D02*
X104140000Y-134775500D01*
X104018500Y-133350000D02*
X104018500Y-134654000D01*
X109220000Y-130904000D02*
X111920000Y-133604000D01*
X109220000Y-127762000D02*
X109220000Y-130904000D01*
X109220000Y-133604000D02*
X107950000Y-132334000D01*
X111920000Y-133604000D02*
X109220000Y-133604000D01*
X116840000Y-133524000D02*
X116920000Y-133604000D01*
X116840000Y-127762000D02*
X116840000Y-133524000D01*
X116840000Y-133684000D02*
X116920000Y-133604000D01*
X116840000Y-139700000D02*
X116840000Y-133684000D01*
X130810000Y-133074278D02*
X130476000Y-133408278D01*
X130810000Y-132842000D02*
X130810000Y-133074278D01*
X102927500Y-133514500D02*
X102748500Y-133693500D01*
X102927500Y-132931500D02*
X102927500Y-133514500D01*
X101732500Y-134643000D02*
X101865000Y-134775500D01*
X101732500Y-132931500D02*
X101732500Y-134643000D01*
X129926500Y-133153500D02*
X129615000Y-132842000D01*
X129926500Y-134752000D02*
X129926500Y-133153500D01*
X132201500Y-133482500D02*
X132201500Y-134752000D01*
X133318000Y-132366000D02*
X132201500Y-133482500D01*
X135890000Y-132366000D02*
X133318000Y-132366000D01*
X129926500Y-135006500D02*
X130302000Y-135382000D01*
X129926500Y-134752000D02*
X129926500Y-135006500D01*
X131826000Y-136652000D02*
X131318000Y-137160000D01*
X132201500Y-136652000D02*
X131826000Y-136652000D01*
X102240500Y-135151000D02*
X101865000Y-134775500D01*
X102240500Y-135471500D02*
X102240500Y-135151000D01*
X103830500Y-136675500D02*
X103256500Y-137249500D01*
X104140000Y-136675500D02*
X103830500Y-136675500D01*
X135890000Y-132366000D02*
X137128000Y-133604000D01*
X137128000Y-133604000D02*
X139860000Y-133604000D01*
X137160000Y-130904000D02*
X139860000Y-133604000D01*
X137160000Y-127508000D02*
X137160000Y-130904000D01*
X144860000Y-127588000D02*
X144780000Y-127508000D01*
X144860000Y-133604000D02*
X144860000Y-127588000D01*
X144780000Y-139700000D02*
X144780000Y-133684000D01*
X144780000Y-133684000D02*
X144860000Y-133604000D01*
D32*
X130509000Y-121412000D02*
X135081000Y-116840000D01*
X98806000Y-128270000D02*
X105664000Y-121412000D01*
X94234000Y-128270000D02*
X98806000Y-128270000D01*
X105664000Y-121412000D02*
X130509000Y-121412000D01*
X105410000Y-120142000D02*
X114554000Y-120142000D01*
X116332000Y-118364000D02*
X116332000Y-116840000D01*
X98597500Y-126954500D02*
X105410000Y-120142000D01*
X93009500Y-126954500D02*
X98597500Y-126954500D01*
X91694000Y-128270000D02*
X93009500Y-126954500D01*
X114554000Y-120142000D02*
X116332000Y-118364000D01*
X111760000Y-114093000D02*
X111760000Y-111506000D01*
X114507000Y-116840000D02*
X111760000Y-114093000D01*
X139700000Y-114046000D02*
X139700000Y-111506000D01*
X136906000Y-116840000D02*
X139700000Y-114046000D01*
X135081000Y-116840000D02*
X132080000Y-113839000D01*
X132080000Y-113839000D02*
X132080000Y-111506000D01*
X119380000Y-113792000D02*
X119380000Y-111506000D01*
X116332000Y-116840000D02*
X119380000Y-113792000D01*
X139700000Y-111506000D02*
X139700000Y-104140000D01*
X111760000Y-111506000D02*
X111760000Y-103886000D01*
G04 #@! TA.AperFunction,Conductor*
G36*
X94569766Y-135109959D02*
G01*
X94570492Y-135110291D01*
X95927521Y-135786770D01*
X95933395Y-135793527D01*
X95934000Y-135797240D01*
X95934000Y-135982759D01*
X95930573Y-135991032D01*
X95927520Y-135993230D01*
X94570497Y-136669706D01*
X94561564Y-136670330D01*
X94554806Y-136664455D01*
X94554472Y-136663724D01*
X94234865Y-135894489D01*
X94234856Y-135885534D01*
X94234865Y-135885511D01*
X94554472Y-135116274D01*
X94560811Y-135109950D01*
X94569766Y-135109959D01*
G37*
G04 #@! TD.AperFunction*
G04 #@! TA.AperFunction,Conductor*
G36*
X92476496Y-135569586D02*
G01*
X92482825Y-135575920D01*
X92483161Y-135576840D01*
X92917102Y-136938265D01*
X92917655Y-136941818D01*
X92917655Y-137124274D01*
X92914228Y-137132547D01*
X92905955Y-137135974D01*
X92902593Y-137135481D01*
X91381108Y-136679014D01*
X91374168Y-136673354D01*
X91373263Y-136664445D01*
X91373652Y-136663350D01*
X91691147Y-135894486D01*
X91697468Y-135888151D01*
X92467542Y-135569582D01*
X92476496Y-135569586D01*
G37*
G04 #@! TD.AperFunction*
G04 #@! TA.AperFunction,Conductor*
G36*
X94242144Y-138438401D02*
G01*
X94242892Y-138439225D01*
X94928512Y-139271106D01*
X94931129Y-139279669D01*
X94927060Y-139287462D01*
X94008876Y-140067779D01*
X94000352Y-140070526D01*
X93993026Y-140067137D01*
X93859884Y-139933995D01*
X93858695Y-139932604D01*
X93389879Y-139288083D01*
X93387785Y-139279379D01*
X93391067Y-139272932D01*
X94225599Y-138438400D01*
X94233871Y-138434974D01*
X94242144Y-138438401D01*
G37*
G04 #@! TD.AperFunction*
G04 #@! TA.AperFunction,Conductor*
G36*
X91701566Y-138437578D02*
G01*
X91701889Y-138437889D01*
X92536151Y-139272151D01*
X92539578Y-139280424D01*
X92536575Y-139288250D01*
X91889264Y-140007625D01*
X91889052Y-140007848D01*
X91756143Y-140140757D01*
X91747870Y-140144184D01*
X91739597Y-140140757D01*
X91739468Y-140140626D01*
X91610684Y-140007740D01*
X90913122Y-139287958D01*
X90909826Y-139279634D01*
X90912939Y-139271869D01*
X91685033Y-138438211D01*
X91693168Y-138434471D01*
X91701566Y-138437578D01*
G37*
G04 #@! TD.AperFunction*
G04 #@! TA.AperFunction,Conductor*
G36*
X132836410Y-144039939D02*
G01*
X132838465Y-144042715D01*
X133043843Y-144428567D01*
X133044705Y-144437480D01*
X133039012Y-144444392D01*
X133038037Y-144444855D01*
X132844893Y-144525790D01*
X132840334Y-144526699D01*
X132630097Y-144526041D01*
X132621835Y-144522588D01*
X132618434Y-144514304D01*
X132618511Y-144513004D01*
X132653794Y-144209580D01*
X132657141Y-144202662D01*
X132819865Y-144039938D01*
X132828137Y-144036512D01*
X132836410Y-144039939D01*
G37*
G04 #@! TD.AperFunction*
G04 #@! TA.AperFunction,Conductor*
G36*
X130255726Y-144951659D02*
G01*
X130261108Y-144956220D01*
X130449615Y-145255907D01*
X130451119Y-145264735D01*
X130447984Y-145270410D01*
X130284410Y-145433984D01*
X130276137Y-145437411D01*
X130269907Y-145435615D01*
X129970220Y-145247108D01*
X129965042Y-145239802D01*
X129965621Y-145232772D01*
X130045435Y-145037829D01*
X130051741Y-145031472D01*
X130051757Y-145031465D01*
X130246772Y-144951622D01*
X130255726Y-144951659D01*
G37*
G04 #@! TD.AperFunction*
G04 #@! TA.AperFunction,Conductor*
G36*
X133047885Y-147492412D02*
G01*
X133054191Y-147498770D01*
X133054225Y-147498855D01*
X133214638Y-147902773D01*
X133214508Y-147911725D01*
X133208084Y-147917964D01*
X133203765Y-147918790D01*
X132974408Y-147918790D01*
X132968125Y-147916960D01*
X132764166Y-147787137D01*
X132759027Y-147779804D01*
X132759631Y-147772810D01*
X132840138Y-147577515D01*
X132846456Y-147571175D01*
X133038932Y-147492375D01*
X133047885Y-147492412D01*
G37*
G04 #@! TD.AperFunction*
G04 #@! TA.AperFunction,Conductor*
G36*
X128833228Y-144697622D02*
G01*
X129028169Y-144777435D01*
X129034527Y-144783741D01*
X129034564Y-144783830D01*
X129114377Y-144978771D01*
X129114340Y-144987726D01*
X129109779Y-144993108D01*
X128810092Y-145181615D01*
X128801264Y-145183119D01*
X128795589Y-145179984D01*
X128632015Y-145016410D01*
X128628588Y-145008137D01*
X128630384Y-145001907D01*
X128818891Y-144702220D01*
X128826197Y-144697042D01*
X128833228Y-144697622D01*
G37*
G04 #@! TD.AperFunction*
G04 #@! TA.AperFunction,Conductor*
G36*
X132393529Y-146632555D02*
G01*
X132396025Y-146636255D01*
X132436311Y-146731176D01*
X132537280Y-146969076D01*
X132537358Y-146978030D01*
X132531081Y-146984417D01*
X132531032Y-146984438D01*
X132336194Y-147066080D01*
X132331620Y-147066989D01*
X132121589Y-147066055D01*
X132113331Y-147062591D01*
X132109941Y-147054303D01*
X132109974Y-147053472D01*
X132142160Y-146639919D01*
X132146219Y-146631938D01*
X132153825Y-146629128D01*
X132385256Y-146629128D01*
X132393529Y-146632555D01*
G37*
G04 #@! TD.AperFunction*
G04 #@! TA.AperFunction,Conductor*
G36*
X104263938Y-146365427D02*
G01*
X104267073Y-146371102D01*
X104345689Y-146716307D01*
X104344185Y-146725135D01*
X104338803Y-146729696D01*
X104144522Y-146811105D01*
X104135567Y-146811142D01*
X104135478Y-146811105D01*
X103941196Y-146729696D01*
X103934890Y-146723338D01*
X103934310Y-146716309D01*
X104012927Y-146371101D01*
X104018105Y-146363796D01*
X104024335Y-146362000D01*
X104255665Y-146362000D01*
X104263938Y-146365427D01*
G37*
G04 #@! TD.AperFunction*
G04 #@! TA.AperFunction,Conductor*
G36*
X104853828Y-147238436D02*
G01*
X104860134Y-147244794D01*
X104860202Y-147244964D01*
X105018555Y-147649738D01*
X105018378Y-147658691D01*
X105011922Y-147664897D01*
X105007659Y-147665701D01*
X104778257Y-147665701D01*
X104771899Y-147663823D01*
X104570062Y-147533159D01*
X104564979Y-147525786D01*
X104565602Y-147518881D01*
X104646138Y-147323515D01*
X104652456Y-147317175D01*
X104844874Y-147238399D01*
X104853828Y-147238436D01*
G37*
G04 #@! TD.AperFunction*
G04 #@! TA.AperFunction,Conductor*
G36*
X104771938Y-144079427D02*
G01*
X104775073Y-144085102D01*
X104853689Y-144430307D01*
X104852185Y-144439135D01*
X104846803Y-144443696D01*
X104652521Y-144525105D01*
X104643566Y-144525142D01*
X104449196Y-144443696D01*
X104442890Y-144437338D01*
X104442310Y-144430309D01*
X104520927Y-144085101D01*
X104526105Y-144077796D01*
X104532335Y-144076000D01*
X104763665Y-144076000D01*
X104771938Y-144079427D01*
G37*
G04 #@! TD.AperFunction*
G04 #@! TA.AperFunction,Conductor*
G36*
X102061726Y-144697659D02*
G01*
X102067108Y-144702220D01*
X102255615Y-145001907D01*
X102257119Y-145010735D01*
X102253984Y-145016410D01*
X102090410Y-145179984D01*
X102082137Y-145183411D01*
X102075907Y-145181615D01*
X101776220Y-144993108D01*
X101771042Y-144985802D01*
X101771621Y-144978772D01*
X101851435Y-144783829D01*
X101857741Y-144777472D01*
X101857757Y-144777465D01*
X102052772Y-144697622D01*
X102061726Y-144697659D01*
G37*
G04 #@! TD.AperFunction*
G04 #@! TA.AperFunction,Conductor*
G36*
X100616092Y-145648384D02*
G01*
X100915779Y-145836891D01*
X100920957Y-145844197D01*
X100920377Y-145851228D01*
X100840564Y-146046169D01*
X100834258Y-146052527D01*
X100834169Y-146052564D01*
X100639228Y-146132377D01*
X100630273Y-146132340D01*
X100624891Y-146127779D01*
X100436384Y-145828092D01*
X100434880Y-145819264D01*
X100438013Y-145813591D01*
X100601590Y-145650014D01*
X100609862Y-145646588D01*
X100616092Y-145648384D01*
G37*
G04 #@! TD.AperFunction*
G04 #@! TA.AperFunction,Conductor*
G36*
X128325228Y-134029622D02*
G01*
X128520169Y-134109435D01*
X128526527Y-134115741D01*
X128526564Y-134115830D01*
X128606377Y-134310771D01*
X128606340Y-134319726D01*
X128601779Y-134325108D01*
X128302092Y-134513615D01*
X128293264Y-134515119D01*
X128287589Y-134511984D01*
X128124015Y-134348410D01*
X128120588Y-134340137D01*
X128122384Y-134333907D01*
X128310891Y-134034220D01*
X128318197Y-134029042D01*
X128325228Y-134029622D01*
G37*
G04 #@! TD.AperFunction*
G04 #@! TA.AperFunction,Conductor*
G36*
X100385228Y-134283622D02*
G01*
X100580169Y-134363435D01*
X100586527Y-134369741D01*
X100586564Y-134369830D01*
X100666377Y-134564771D01*
X100666340Y-134573726D01*
X100661779Y-134579108D01*
X100362092Y-134767615D01*
X100353264Y-134769119D01*
X100347589Y-134765984D01*
X100184015Y-134602410D01*
X100180588Y-134594137D01*
X100182384Y-134587907D01*
X100370891Y-134288220D01*
X100378197Y-134283042D01*
X100385228Y-134283622D01*
G37*
G04 #@! TD.AperFunction*
G04 #@! TA.AperFunction,Conductor*
G36*
X105168882Y-137698377D02*
G01*
X105585002Y-137742881D01*
X105592863Y-137747169D01*
X105595457Y-137754515D01*
X105595458Y-137985964D01*
X105592031Y-137994237D01*
X105587957Y-137996884D01*
X105252704Y-138125796D01*
X105243752Y-138125567D01*
X105237715Y-138119399D01*
X105155918Y-137924192D01*
X105155010Y-137919622D01*
X105155942Y-137709959D01*
X105159406Y-137701702D01*
X105167694Y-137698312D01*
X105168882Y-137698377D01*
G37*
G04 #@! TD.AperFunction*
G04 #@! TA.AperFunction,Conductor*
G36*
X108073938Y-135189427D02*
G01*
X108077073Y-135195102D01*
X108155689Y-135540307D01*
X108154185Y-135549135D01*
X108148803Y-135553696D01*
X107954522Y-135635105D01*
X107945567Y-135635142D01*
X107945478Y-135635105D01*
X107751196Y-135553696D01*
X107744890Y-135547338D01*
X107744310Y-135540309D01*
X107822927Y-135195101D01*
X107828105Y-135187796D01*
X107834335Y-135186000D01*
X108065665Y-135186000D01*
X108073938Y-135189427D01*
G37*
G04 #@! TD.AperFunction*
G04 #@! TA.AperFunction,Conductor*
G36*
X133362882Y-137698377D02*
G01*
X133779003Y-137742881D01*
X133786864Y-137747169D01*
X133789458Y-137754515D01*
X133789458Y-137985964D01*
X133786031Y-137994237D01*
X133781957Y-137996884D01*
X133446704Y-138125796D01*
X133437752Y-138125567D01*
X133431715Y-138119399D01*
X133349918Y-137924192D01*
X133349010Y-137919622D01*
X133349942Y-137709959D01*
X133353406Y-137701702D01*
X133361694Y-137698312D01*
X133362882Y-137698377D01*
G37*
G04 #@! TD.AperFunction*
G04 #@! TA.AperFunction,Conductor*
G36*
X136013938Y-135189427D02*
G01*
X136017073Y-135195102D01*
X136095689Y-135540307D01*
X136094185Y-135549135D01*
X136088803Y-135553696D01*
X135894522Y-135635105D01*
X135885567Y-135635142D01*
X135885478Y-135635105D01*
X135691196Y-135553696D01*
X135684890Y-135547338D01*
X135684310Y-135540309D01*
X135762927Y-135195101D01*
X135768105Y-135187796D01*
X135774335Y-135186000D01*
X136005665Y-135186000D01*
X136013938Y-135189427D01*
G37*
G04 #@! TD.AperFunction*
G04 #@! TA.AperFunction,Conductor*
G36*
X110883982Y-132386723D02*
G01*
X112214569Y-132860771D01*
X112221211Y-132866774D01*
X112221662Y-132875718D01*
X112221456Y-132876256D01*
X111922562Y-133600212D01*
X111916237Y-133606551D01*
X111916212Y-133606562D01*
X111192256Y-133905456D01*
X111183301Y-133905445D01*
X111176976Y-133899106D01*
X111176780Y-133898596D01*
X110702724Y-132567984D01*
X110703175Y-132559043D01*
X110705469Y-132555790D01*
X110871788Y-132389471D01*
X110880060Y-132386045D01*
X110883982Y-132386723D01*
G37*
G04 #@! TD.AperFunction*
G04 #@! TA.AperFunction,Conductor*
G36*
X109876690Y-128033898D02*
G01*
X109947753Y-128063430D01*
X109954078Y-128069769D01*
X109954067Y-128078724D01*
X109953833Y-128079251D01*
X109348172Y-129355317D01*
X109341529Y-129361321D01*
X109337602Y-129362000D01*
X109102398Y-129362000D01*
X109094125Y-129358573D01*
X109091828Y-129355317D01*
X108486166Y-128079251D01*
X108485715Y-128070307D01*
X108491719Y-128063664D01*
X108492234Y-128063434D01*
X109215512Y-127762864D01*
X109224461Y-127762854D01*
X109876690Y-128033898D01*
G37*
G04 #@! TD.AperFunction*
G04 #@! TA.AperFunction,Conductor*
G36*
X111618335Y-132875719D02*
G01*
X111618569Y-132876246D01*
X111919134Y-133599510D01*
X111919144Y-133608463D01*
X111919135Y-133608485D01*
X111919134Y-133608490D01*
X111618569Y-134331753D01*
X111612230Y-134338078D01*
X111603275Y-134338067D01*
X111602748Y-134337833D01*
X110326683Y-133732171D01*
X110320679Y-133725528D01*
X110320000Y-133721601D01*
X110320000Y-133486398D01*
X110323427Y-133478125D01*
X110326683Y-133475828D01*
X111602749Y-132870165D01*
X111611692Y-132869715D01*
X111618335Y-132875719D01*
G37*
G04 #@! TD.AperFunction*
G04 #@! TA.AperFunction,Conductor*
G36*
X116848268Y-127769278D02*
G01*
X116848278Y-127769288D01*
X117632407Y-128554398D01*
X117635829Y-128562673D01*
X117633071Y-128570211D01*
X116968506Y-129357845D01*
X116960552Y-129361958D01*
X116959564Y-129362000D01*
X116720436Y-129362000D01*
X116712163Y-129358573D01*
X116711494Y-129357845D01*
X116046928Y-128570211D01*
X116044212Y-128561678D01*
X116047591Y-128554398D01*
X116831722Y-127769287D01*
X116839993Y-127765856D01*
X116848268Y-127769278D01*
G37*
G04 #@! TD.AperFunction*
G04 #@! TA.AperFunction,Conductor*
G36*
X116966314Y-132023340D02*
G01*
X116968322Y-132026029D01*
X117652908Y-133286446D01*
X117653846Y-133295351D01*
X117648211Y-133302311D01*
X117647117Y-133302834D01*
X116924489Y-133603134D01*
X116915536Y-133603144D01*
X116641680Y-133489339D01*
X116191721Y-133302351D01*
X116185396Y-133296012D01*
X116185406Y-133287059D01*
X116711995Y-132027101D01*
X116718348Y-132020789D01*
X116722791Y-132019913D01*
X116958041Y-132019913D01*
X116966314Y-132023340D01*
G37*
G04 #@! TD.AperFunction*
G04 #@! TA.AperFunction,Conductor*
G36*
X116965875Y-137653427D02*
G01*
X116968172Y-137656683D01*
X117575610Y-138936493D01*
X117576061Y-138945437D01*
X117573412Y-138949683D01*
X116848372Y-139692423D01*
X116840141Y-139695949D01*
X116831827Y-139692622D01*
X116831628Y-139692423D01*
X116106587Y-138949683D01*
X116103260Y-138941369D01*
X116104389Y-138936493D01*
X116711828Y-137656683D01*
X116718471Y-137650679D01*
X116722398Y-137650000D01*
X116957602Y-137650000D01*
X116965875Y-137653427D01*
G37*
G04 #@! TD.AperFunction*
G04 #@! TA.AperFunction,Conductor*
G36*
X117647118Y-133905166D02*
G01*
X117653442Y-133911504D01*
X117653431Y-133920459D01*
X117652908Y-133921553D01*
X116968322Y-135181971D01*
X116961362Y-135187606D01*
X116958041Y-135188087D01*
X116722791Y-135188087D01*
X116714518Y-135184660D01*
X116711996Y-135180899D01*
X116629225Y-134982856D01*
X116185415Y-133920961D01*
X116185387Y-133912009D01*
X116191697Y-133905658D01*
X116915512Y-133604864D01*
X116924461Y-133604854D01*
X117647118Y-133905166D01*
G37*
G04 #@! TD.AperFunction*
G04 #@! TA.AperFunction,Conductor*
G36*
X130712410Y-133008293D02*
G01*
X130875984Y-133171867D01*
X130879411Y-133180140D01*
X130877615Y-133186370D01*
X130689108Y-133486057D01*
X130681802Y-133491235D01*
X130674771Y-133490655D01*
X130479830Y-133410842D01*
X130473472Y-133404536D01*
X130473435Y-133404447D01*
X130393622Y-133209506D01*
X130393659Y-133200551D01*
X130398220Y-133195169D01*
X130424770Y-133178469D01*
X130697907Y-133006661D01*
X130706735Y-133005158D01*
X130712410Y-133008293D01*
G37*
G04 #@! TD.AperFunction*
G04 #@! TA.AperFunction,Conductor*
G36*
X103046387Y-133321071D02*
G01*
X103049814Y-133329344D01*
X103049569Y-133331728D01*
X102959239Y-133765828D01*
X102954198Y-133773229D01*
X102945400Y-133774899D01*
X102943351Y-133774272D01*
X102750693Y-133695398D01*
X102746828Y-133692818D01*
X102597552Y-133542603D01*
X102594151Y-133534319D01*
X102597507Y-133526155D01*
X102799061Y-133321141D01*
X102807304Y-133317644D01*
X103038114Y-133317644D01*
X103046387Y-133321071D01*
G37*
G04 #@! TD.AperFunction*
G04 #@! TA.AperFunction,Conductor*
G36*
X130080092Y-134980384D02*
G01*
X130379779Y-135168891D01*
X130384957Y-135176197D01*
X130384377Y-135183228D01*
X130304564Y-135378169D01*
X130298258Y-135384527D01*
X130298169Y-135384564D01*
X130103228Y-135464377D01*
X130094273Y-135464340D01*
X130088891Y-135459779D01*
X129900384Y-135160092D01*
X129898880Y-135151264D01*
X129902013Y-135145591D01*
X130065590Y-134982014D01*
X130073862Y-134978588D01*
X130080092Y-134980384D01*
G37*
G04 #@! TD.AperFunction*
G04 #@! TA.AperFunction,Conductor*
G36*
X131554410Y-136760015D02*
G01*
X131717984Y-136923589D01*
X131721411Y-136931862D01*
X131719615Y-136938092D01*
X131531108Y-137237779D01*
X131523802Y-137242957D01*
X131516771Y-137242377D01*
X131321830Y-137162564D01*
X131315472Y-137156258D01*
X131315435Y-137156169D01*
X131235622Y-136961228D01*
X131235659Y-136952273D01*
X131240220Y-136946891D01*
X131266770Y-136930191D01*
X131539907Y-136758383D01*
X131548735Y-136756880D01*
X131554410Y-136760015D01*
G37*
G04 #@! TD.AperFunction*
G04 #@! TA.AperFunction,Conductor*
G36*
X102242476Y-134982430D02*
G01*
X102244628Y-134985393D01*
X102442652Y-135374165D01*
X102443354Y-135383092D01*
X102437537Y-135389900D01*
X102436749Y-135390266D01*
X102243393Y-135471290D01*
X102238834Y-135472199D01*
X102028897Y-135471541D01*
X102020635Y-135468088D01*
X102017234Y-135459804D01*
X102017345Y-135458240D01*
X102060001Y-135151702D01*
X102063315Y-135145045D01*
X102225931Y-134982429D01*
X102234203Y-134979003D01*
X102242476Y-134982430D01*
G37*
G04 #@! TD.AperFunction*
G04 #@! TA.AperFunction,Conductor*
G36*
X103492910Y-136849515D02*
G01*
X103656484Y-137013089D01*
X103659911Y-137021362D01*
X103658115Y-137027592D01*
X103469608Y-137327279D01*
X103462302Y-137332457D01*
X103455271Y-137331877D01*
X103260330Y-137252064D01*
X103253972Y-137245758D01*
X103253935Y-137245669D01*
X103174122Y-137050728D01*
X103174159Y-137041773D01*
X103178720Y-137036391D01*
X103205270Y-137019691D01*
X103478407Y-136847883D01*
X103487235Y-136846380D01*
X103492910Y-136849515D01*
G37*
G04 #@! TD.AperFunction*
G04 #@! TA.AperFunction,Conductor*
G36*
X139558335Y-132875719D02*
G01*
X139558569Y-132876246D01*
X139859134Y-133599510D01*
X139859144Y-133608463D01*
X139859135Y-133608485D01*
X139859134Y-133608490D01*
X139558569Y-134331753D01*
X139552230Y-134338078D01*
X139543275Y-134338067D01*
X139542748Y-134337833D01*
X138266683Y-133732171D01*
X138260679Y-133725528D01*
X138260000Y-133721601D01*
X138260000Y-133486398D01*
X138263427Y-133478125D01*
X138266683Y-133475828D01*
X139542749Y-132870165D01*
X139551692Y-132869715D01*
X139558335Y-132875719D01*
G37*
G04 #@! TD.AperFunction*
G04 #@! TA.AperFunction,Conductor*
G36*
X138823982Y-132386723D02*
G01*
X140154569Y-132860771D01*
X140161211Y-132866774D01*
X140161662Y-132875718D01*
X140161456Y-132876256D01*
X139862562Y-133600212D01*
X139856237Y-133606551D01*
X139856212Y-133606562D01*
X139132256Y-133905456D01*
X139123301Y-133905445D01*
X139116976Y-133899106D01*
X139116780Y-133898596D01*
X138642724Y-132567984D01*
X138643175Y-132559043D01*
X138645469Y-132555790D01*
X138811788Y-132389471D01*
X138820060Y-132386045D01*
X138823982Y-132386723D01*
G37*
G04 #@! TD.AperFunction*
G04 #@! TA.AperFunction,Conductor*
G36*
X137816690Y-127779898D02*
G01*
X137887753Y-127809430D01*
X137894078Y-127815769D01*
X137894067Y-127824724D01*
X137893833Y-127825251D01*
X137288172Y-129101317D01*
X137281529Y-129107321D01*
X137277602Y-129108000D01*
X137042398Y-129108000D01*
X137034125Y-129104573D01*
X137031828Y-129101317D01*
X136426166Y-127825251D01*
X136425715Y-127816307D01*
X136431719Y-127809664D01*
X136432234Y-127809434D01*
X137155512Y-127508864D01*
X137164461Y-127508854D01*
X137816690Y-127779898D01*
G37*
G04 #@! TD.AperFunction*
G04 #@! TA.AperFunction,Conductor*
G36*
X144788267Y-127515283D02*
G01*
X144788465Y-127515476D01*
X145572188Y-128300178D01*
X145572862Y-128300853D01*
X145576284Y-128309128D01*
X145573972Y-128316103D01*
X144988509Y-129103282D01*
X144980822Y-129107876D01*
X144979121Y-129108000D01*
X144740230Y-129108000D01*
X144731957Y-129104573D01*
X144731512Y-129104103D01*
X144026220Y-128316037D01*
X144023257Y-128307588D01*
X144026456Y-128300180D01*
X144771728Y-127515706D01*
X144779909Y-127512069D01*
X144788267Y-127515283D01*
G37*
G04 #@! TD.AperFunction*
G04 #@! TA.AperFunction,Conductor*
G36*
X144985875Y-132007427D02*
G01*
X144988172Y-132010683D01*
X145593833Y-133286748D01*
X145594284Y-133295692D01*
X145588280Y-133302335D01*
X145587753Y-133302569D01*
X144864490Y-133603134D01*
X144855536Y-133603144D01*
X144855510Y-133603134D01*
X144132246Y-133302569D01*
X144125921Y-133296230D01*
X144125932Y-133287275D01*
X144126154Y-133286773D01*
X144731828Y-132010682D01*
X144738471Y-132004679D01*
X144742398Y-132004000D01*
X144977602Y-132004000D01*
X144985875Y-132007427D01*
G37*
G04 #@! TD.AperFunction*
G04 #@! TA.AperFunction,Conductor*
G36*
X144905875Y-137653427D02*
G01*
X144908172Y-137656683D01*
X145515610Y-138936493D01*
X145516061Y-138945437D01*
X145513412Y-138949683D01*
X144788372Y-139692423D01*
X144780141Y-139695949D01*
X144771827Y-139692622D01*
X144771628Y-139692423D01*
X144046587Y-138949683D01*
X144043260Y-138941369D01*
X144044389Y-138936493D01*
X144651828Y-137656683D01*
X144658471Y-137650679D01*
X144662398Y-137650000D01*
X144897602Y-137650000D01*
X144905875Y-137653427D01*
G37*
G04 #@! TD.AperFunction*
G04 #@! TA.AperFunction,Conductor*
G36*
X145587118Y-133905166D02*
G01*
X145593442Y-133911504D01*
X145593431Y-133920459D01*
X145592908Y-133921553D01*
X144908322Y-135181971D01*
X144901362Y-135187606D01*
X144898041Y-135188087D01*
X144662791Y-135188087D01*
X144654518Y-135184660D01*
X144651996Y-135180899D01*
X144569225Y-134982856D01*
X144125415Y-133920961D01*
X144125387Y-133912009D01*
X144131697Y-133905658D01*
X144855512Y-133604864D01*
X144864461Y-133604854D01*
X145587118Y-133905166D01*
G37*
G04 #@! TD.AperFunction*
G04 #@! TA.AperFunction,Conductor*
G36*
X94569975Y-127489456D02*
G01*
X94570172Y-127489541D01*
X95927051Y-128092412D01*
X95933220Y-128098903D01*
X95934000Y-128103104D01*
X95934000Y-128436895D01*
X95930573Y-128445168D01*
X95927051Y-128447587D01*
X94570237Y-129050430D01*
X94561285Y-129050658D01*
X94554794Y-129044489D01*
X94554681Y-129044227D01*
X94234865Y-128274489D01*
X94234856Y-128265534D01*
X94234865Y-128265511D01*
X94302343Y-128103104D01*
X94554681Y-127495771D01*
X94561020Y-127489447D01*
X94569975Y-127489456D01*
G37*
G04 #@! TD.AperFunction*
G04 #@! TA.AperFunction,Conductor*
G36*
X92774546Y-126947487D02*
G01*
X92778068Y-126949906D01*
X93014093Y-127185931D01*
X93017520Y-127194204D01*
X93016740Y-127198405D01*
X92483602Y-128584092D01*
X92477433Y-128590583D01*
X92468481Y-128590811D01*
X92468232Y-128590711D01*
X91697784Y-128272561D01*
X91691447Y-128266238D01*
X91373294Y-127495781D01*
X91373303Y-127486828D01*
X91379642Y-127480503D01*
X91379876Y-127480409D01*
X92765595Y-126947259D01*
X92774546Y-126947487D01*
G37*
G04 #@! TD.AperFunction*
G04 #@! TA.AperFunction,Conductor*
G36*
X111768268Y-111513278D02*
G01*
X111768278Y-111513288D01*
X112552686Y-112298677D01*
X112556108Y-112306952D01*
X112553625Y-112314152D01*
X111938013Y-113101507D01*
X111930218Y-113105913D01*
X111928796Y-113106000D01*
X111591204Y-113106000D01*
X111582931Y-113102573D01*
X111581987Y-113101507D01*
X110966374Y-112314152D01*
X110963978Y-112305523D01*
X110967312Y-112298678D01*
X111751722Y-111513287D01*
X111759993Y-111509856D01*
X111768268Y-111513278D01*
G37*
G04 #@! TD.AperFunction*
G04 #@! TA.AperFunction,Conductor*
G36*
X139708268Y-111513278D02*
G01*
X139708278Y-111513288D01*
X140492686Y-112298677D01*
X140496108Y-112306952D01*
X140493625Y-112314152D01*
X139878013Y-113101507D01*
X139870218Y-113105913D01*
X139868796Y-113106000D01*
X139531204Y-113106000D01*
X139522931Y-113102573D01*
X139521987Y-113101507D01*
X138906374Y-112314152D01*
X138903978Y-112305523D01*
X138907312Y-112298678D01*
X139691722Y-111513287D01*
X139699993Y-111509856D01*
X139708268Y-111513278D01*
G37*
G04 #@! TD.AperFunction*
G04 #@! TA.AperFunction,Conductor*
G36*
X132808108Y-111807577D02*
G01*
X132814433Y-111813916D01*
X132814422Y-111822871D01*
X132814341Y-111823060D01*
X132257564Y-113098979D01*
X132251115Y-113105192D01*
X132246841Y-113106000D01*
X131913159Y-113106000D01*
X131904886Y-113102573D01*
X131902436Y-113098979D01*
X131345658Y-111823060D01*
X131345489Y-111814107D01*
X131351702Y-111807658D01*
X131351826Y-111807604D01*
X132075512Y-111506864D01*
X132084461Y-111506854D01*
X132808108Y-111807577D01*
G37*
G04 #@! TD.AperFunction*
G04 #@! TA.AperFunction,Conductor*
G36*
X120108108Y-111807577D02*
G01*
X120114433Y-111813916D01*
X120114422Y-111822871D01*
X120114341Y-111823060D01*
X119557564Y-113098979D01*
X119551115Y-113105192D01*
X119546841Y-113106000D01*
X119213159Y-113106000D01*
X119204886Y-113102573D01*
X119202436Y-113098979D01*
X118645658Y-111823060D01*
X118645489Y-111814107D01*
X118651702Y-111807658D01*
X118651826Y-111807604D01*
X119375512Y-111506864D01*
X119384461Y-111506854D01*
X120108108Y-111807577D01*
G37*
G04 #@! TD.AperFunction*
G04 #@! TA.AperFunction,Conductor*
G36*
X139877069Y-109909427D02*
G01*
X139878013Y-109910493D01*
X140493625Y-110697847D01*
X140496021Y-110706476D01*
X140492686Y-110713322D01*
X139708278Y-111498711D01*
X139700007Y-111502143D01*
X139691732Y-111498721D01*
X139691722Y-111498711D01*
X138907313Y-110713322D01*
X138903891Y-110705047D01*
X138906373Y-110697848D01*
X139521987Y-109910492D01*
X139529782Y-109906087D01*
X139531204Y-109906000D01*
X139868796Y-109906000D01*
X139877069Y-109909427D01*
G37*
G04 #@! TD.AperFunction*
G04 #@! TA.AperFunction,Conductor*
G36*
X139708173Y-104147377D02*
G01*
X139708372Y-104147576D01*
X140433603Y-104890512D01*
X140436930Y-104898826D01*
X140435954Y-104903364D01*
X139877564Y-106182979D01*
X139871115Y-106189192D01*
X139866841Y-106190000D01*
X139533159Y-106190000D01*
X139524886Y-106186573D01*
X139522436Y-106182979D01*
X138964045Y-104903364D01*
X138963876Y-104894411D01*
X138966394Y-104890514D01*
X139691628Y-104147575D01*
X139699859Y-104144050D01*
X139708173Y-104147377D01*
G37*
G04 #@! TD.AperFunction*
G04 #@! TA.AperFunction,Conductor*
G36*
X111937069Y-109909427D02*
G01*
X111938013Y-109910493D01*
X112553625Y-110697847D01*
X112556021Y-110706476D01*
X112552686Y-110713322D01*
X111768278Y-111498711D01*
X111760007Y-111502143D01*
X111751732Y-111498721D01*
X111751722Y-111498711D01*
X110967313Y-110713322D01*
X110963891Y-110705047D01*
X110966373Y-110697848D01*
X111581987Y-109910492D01*
X111589782Y-109906087D01*
X111591204Y-109906000D01*
X111928796Y-109906000D01*
X111937069Y-109909427D01*
G37*
G04 #@! TD.AperFunction*
G04 #@! TA.AperFunction,Conductor*
G36*
X111768173Y-103893377D02*
G01*
X111768372Y-103893576D01*
X112493603Y-104636512D01*
X112496930Y-104644826D01*
X112495954Y-104649364D01*
X111937564Y-105928979D01*
X111931115Y-105935192D01*
X111926841Y-105936000D01*
X111593159Y-105936000D01*
X111584886Y-105932573D01*
X111582436Y-105928979D01*
X111024045Y-104649364D01*
X111023876Y-104640411D01*
X111026394Y-104636514D01*
X111751628Y-103893575D01*
X111759859Y-103890050D01*
X111768173Y-103893377D01*
G37*
G04 #@! TD.AperFunction*
M02*
