G04 #@! TF.GenerationSoftware,KiCad,Pcbnew,7.0.7*
G04 #@! TF.CreationDate,2023-11-11T11:47:43+00:00*
G04 #@! TF.ProjectId,AD3 Front End Amplifier,41443320-4672-46f6-9e74-20456e642041,rev?*
G04 #@! TF.SameCoordinates,Original*
G04 #@! TF.FileFunction,Soldermask,Bot*
G04 #@! TF.FilePolarity,Negative*
%FSLAX46Y46*%
G04 Gerber Fmt 4.6, Leading zero omitted, Abs format (unit mm)*
G04 Created by KiCad (PCBNEW 7.0.7) date 2023-11-11 11:47:43*
%MOMM*%
%LPD*%
G01*
G04 APERTURE LIST*
G04 Aperture macros list*
%AMRoundRect*
0 Rectangle with rounded corners*
0 $1 Rounding radius*
0 $2 $3 $4 $5 $6 $7 $8 $9 X,Y pos of 4 corners*
0 Add a 4 corners polygon primitive as box body*
4,1,4,$2,$3,$4,$5,$6,$7,$8,$9,$2,$3,0*
0 Add four circle primitives for the rounded corners*
1,1,$1+$1,$2,$3*
1,1,$1+$1,$4,$5*
1,1,$1+$1,$6,$7*
1,1,$1+$1,$8,$9*
0 Add four rect primitives between the rounded corners*
20,1,$1+$1,$2,$3,$4,$5,0*
20,1,$1+$1,$4,$5,$6,$7,0*
20,1,$1+$1,$6,$7,$8,$9,0*
20,1,$1+$1,$8,$9,$2,$3,0*%
G04 Aperture macros list end*
%ADD10R,1.600000X1.600000*%
%ADD11O,1.600000X1.600000*%
%ADD12O,2.500000X1.600000*%
%ADD13O,7.000000X3.500000*%
%ADD14RoundRect,0.150000X-0.512500X-0.150000X0.512500X-0.150000X0.512500X0.150000X-0.512500X0.150000X0*%
%ADD15R,1.700000X1.700000*%
%ADD16O,1.700000X1.700000*%
%ADD17O,1.600000X2.500000*%
%ADD18O,3.500000X7.000000*%
%ADD19R,0.900000X0.600000*%
%ADD20RoundRect,0.237500X0.237500X-0.287500X0.237500X0.287500X-0.237500X0.287500X-0.237500X-0.287500X0*%
%ADD21RoundRect,0.155000X0.212500X0.155000X-0.212500X0.155000X-0.212500X-0.155000X0.212500X-0.155000X0*%
%ADD22RoundRect,0.155000X0.155000X-0.212500X0.155000X0.212500X-0.155000X0.212500X-0.155000X-0.212500X0*%
G04 APERTURE END LIST*
D10*
X192024000Y-103674500D03*
D11*
X192024000Y-111294500D03*
D12*
X236270800Y-91846400D03*
D13*
X241350800Y-96926400D03*
X241350800Y-86766400D03*
D12*
X236270800Y-89306400D03*
D14*
X196982500Y-109662000D03*
X196982500Y-108712000D03*
X196982500Y-107762000D03*
X199257500Y-107762000D03*
X199257500Y-109662000D03*
D10*
X192024000Y-123698000D03*
D11*
X192024000Y-131318000D03*
D12*
X236220000Y-118872000D03*
D13*
X241300000Y-123952000D03*
X241300000Y-113792000D03*
D12*
X236220000Y-116332000D03*
D15*
X180340000Y-131318000D03*
D16*
X180340000Y-128778000D03*
X180340000Y-126238000D03*
X180340000Y-123698000D03*
X180340000Y-121158000D03*
X180340000Y-118618000D03*
X180340000Y-116078000D03*
X180340000Y-113538000D03*
X180340000Y-110998000D03*
X180340000Y-108458000D03*
X180340000Y-105918000D03*
X180340000Y-103378000D03*
X180340000Y-100838000D03*
X180340000Y-98298000D03*
X180340000Y-95758000D03*
D15*
X229870000Y-69215500D03*
D16*
X227330000Y-69215500D03*
X224790000Y-69215500D03*
X222250000Y-69215500D03*
X219710000Y-69215500D03*
X217170000Y-69215500D03*
X214630000Y-69215500D03*
X212090000Y-69215500D03*
X209550000Y-69215500D03*
X207010000Y-69215500D03*
X204470000Y-69215500D03*
X201930000Y-69215500D03*
X199390000Y-69215500D03*
X196850000Y-69215500D03*
X194310000Y-69215500D03*
D15*
X177793200Y-131328000D03*
D16*
X177793200Y-128788000D03*
X177793200Y-126248000D03*
X177793200Y-123708000D03*
X177793200Y-121168000D03*
X177793200Y-118628000D03*
X177793200Y-116088000D03*
X177793200Y-113548000D03*
X177793200Y-111008000D03*
X177793200Y-108468000D03*
X177793200Y-105928000D03*
X177793200Y-103388000D03*
X177793200Y-100848000D03*
X177793200Y-98308000D03*
X177793200Y-95768000D03*
X194310000Y-66675000D03*
X196850000Y-66675000D03*
X199390000Y-66675000D03*
X201930000Y-66675000D03*
X204470000Y-66675000D03*
X207010000Y-66675000D03*
X209550000Y-66675000D03*
X212090000Y-66675000D03*
X214630000Y-66675000D03*
X217170000Y-66675000D03*
X219710000Y-66675000D03*
X222250000Y-66675000D03*
X224790000Y-66675000D03*
X227330000Y-66675000D03*
D15*
X229870000Y-66675000D03*
D17*
X180340000Y-76200000D03*
D18*
X177800000Y-71120000D03*
X187960000Y-71120000D03*
D17*
X182880000Y-76200000D03*
X241300000Y-76200000D03*
D18*
X246380000Y-71120000D03*
X236220000Y-71120000D03*
D17*
X238760000Y-76200000D03*
D19*
X205099000Y-109662000D03*
X205099000Y-108712000D03*
X205099000Y-107762000D03*
X207899000Y-107762000D03*
X207899000Y-109662000D03*
D20*
X192786000Y-118336000D03*
X192786000Y-116586000D03*
X196850000Y-118336000D03*
X196850000Y-116586000D03*
D21*
X192786000Y-114554000D03*
X191651000Y-114554000D03*
X192786000Y-120396000D03*
X191651000Y-120396000D03*
X196850000Y-114554000D03*
X195715000Y-114554000D03*
X196850000Y-120396000D03*
X195715000Y-120396000D03*
D22*
X209801000Y-109728000D03*
X209801000Y-108593000D03*
X201041000Y-109787500D03*
X201041000Y-108652500D03*
X194945000Y-109914500D03*
X194945000Y-108779500D03*
X203197000Y-109847000D03*
X203197000Y-108712000D03*
M02*
