M48
; DRILL file {KiCad 7.0.7} date Sun Oct 29 13:56:50 2023
; FORMAT={3:3/ absolute / metric / suppress leading zeros}
; #@! TF.CreationDate,2023-10-29T13:56:50+00:00
; #@! TF.GenerationSoftware,Kicad,Pcbnew,7.0.7
; #@! TF.FileFunction,Plated,1,4,PTH
FMAT,2
METRIC,TZ
; #@! TA.AperFunction,Plated,PTH,ViaDrill
T1C0.300
; #@! TA.AperFunction,Plated,PTH,ComponentDrill
T2C0.800
; #@! TA.AperFunction,Plated,PTH,ComponentDrill
T3C0.890
; #@! TA.AperFunction,Plated,PTH,ComponentDrill
T4C1.000
; #@! TA.AperFunction,Plated,PTH,ComponentDrill
T5C3.000
%
G90
G05
T1
X97282Y-126238
X97282Y-133096
X99060Y-136144
X99060Y-142748
X100076Y-132080
X100584Y-127508
X100584Y-134366
X100838Y-146050
X101854Y-144780
X102241Y-135472
X102748Y-133694
X103256Y-137250
X103378Y-130810
X103632Y-125984
X104140Y-146812
X104394Y-149098
X104648Y-144526
X104648Y-147320
X105156Y-137922
X106172Y-134874
X107950Y-135636
X127000Y-144272
X128524Y-134112
X128524Y-137668
X129032Y-144780
X130048Y-145034
X130302Y-135382
X130476Y-133408
X131318Y-137160
X131826Y-149860
X132334Y-147066
X132842Y-144526
X132842Y-147574
X133350Y-137922
X135636Y-137160
X135890Y-135636
T2
X109220Y-127762
X111760Y-111506
X111920Y-133604
X116840Y-127762
X116920Y-133604
X119380Y-111506
X132080Y-111506
X137160Y-127508
X139700Y-111506
X139860Y-133604
X144780Y-127508
X144860Y-133604
T3
X109220Y-103886
X111760Y-103886
X116840Y-139700
X119380Y-139700
X137160Y-104140
X139700Y-104140
X144780Y-139700
X147320Y-139700
T4
X91694Y-102870
X91694Y-105410
X91694Y-107950
X91694Y-110490
X91694Y-113030
X91694Y-115570
X91694Y-118110
X91694Y-120650
X91694Y-123190
X91694Y-125730
X91694Y-128270
X91694Y-130810
X91694Y-133350
X91694Y-135890
X91694Y-138430
X94234Y-102870
X94234Y-105410
X94234Y-107950
X94234Y-110490
X94234Y-113030
X94234Y-115570
X94234Y-118110
X94234Y-120650
X94234Y-123190
X94234Y-125730
X94234Y-128270
X94234Y-130810
X94234Y-133350
X94234Y-135890
X94234Y-138430
X154938Y-102865
X154938Y-105405
X154938Y-107945
X154938Y-110485
X154938Y-113025
X154938Y-115565
X154938Y-118105
X154938Y-120645
X154938Y-123185
X154938Y-125725
X154938Y-128265
X154938Y-130805
X154938Y-133345
X154938Y-135885
X154938Y-138425
X157480Y-102840
X157480Y-105380
X157480Y-107920
X157480Y-110460
X157480Y-113000
X157480Y-115540
X157480Y-118080
X157480Y-120620
X157480Y-123160
X157480Y-125700
X157480Y-128240
X157480Y-130780
X157480Y-133320
X157480Y-135860
X157480Y-138400
T5
X106680Y-98806
X111760Y-144780
X116840Y-98806
X121920Y-144780
X134620Y-99060
X139700Y-144780
X144780Y-99060
X149860Y-144780
T0
M30
