G04 #@! TF.GenerationSoftware,KiCad,Pcbnew,7.0.7*
G04 #@! TF.CreationDate,2023-10-29T13:55:44+00:00*
G04 #@! TF.ProjectId,AD3 Front End Amplifier,41443320-4672-46f6-9e74-20456e642041,rev?*
G04 #@! TF.SameCoordinates,Original*
G04 #@! TF.FileFunction,Legend,Bot*
G04 #@! TF.FilePolarity,Positive*
%FSLAX46Y46*%
G04 Gerber Fmt 4.6, Leading zero omitted, Abs format (unit mm)*
G04 Created by KiCad (PCBNEW 7.0.7) date 2023-10-29 13:55:44*
%MOMM*%
%LPD*%
G01*
G04 APERTURE LIST*
G04 Aperture macros list*
%AMRoundRect*
0 Rectangle with rounded corners*
0 $1 Rounding radius*
0 $2 $3 $4 $5 $6 $7 $8 $9 X,Y pos of 4 corners*
0 Add a 4 corners polygon primitive as box body*
4,1,4,$2,$3,$4,$5,$6,$7,$8,$9,$2,$3,0*
0 Add four circle primitives for the rounded corners*
1,1,$1+$1,$2,$3*
1,1,$1+$1,$4,$5*
1,1,$1+$1,$6,$7*
1,1,$1+$1,$8,$9*
0 Add four rect primitives between the rounded corners*
20,1,$1+$1,$2,$3,$4,$5,0*
20,1,$1+$1,$4,$5,$6,$7,0*
20,1,$1+$1,$6,$7,$8,$9,0*
20,1,$1+$1,$8,$9,$2,$3,0*%
G04 Aperture macros list end*
%ADD10C,0.010000*%
%ADD11C,0.120000*%
%ADD12C,0.200000*%
%ADD13R,1.700000X1.700000*%
%ADD14O,1.700000X1.700000*%
%ADD15RoundRect,0.150000X-0.512500X-0.150000X0.512500X-0.150000X0.512500X0.150000X-0.512500X0.150000X0*%
%ADD16R,1.600000X1.600000*%
%ADD17O,1.600000X1.600000*%
%ADD18RoundRect,0.160000X-0.197500X-0.160000X0.197500X-0.160000X0.197500X0.160000X-0.197500X0.160000X0*%
%ADD19RoundRect,0.160000X-0.160000X0.197500X-0.160000X-0.197500X0.160000X-0.197500X0.160000X0.197500X0*%
%ADD20O,1.600000X2.500000*%
%ADD21O,3.500000X7.000000*%
%ADD22R,0.900000X0.600000*%
%ADD23RoundRect,0.237500X0.237500X-0.300000X0.237500X0.300000X-0.237500X0.300000X-0.237500X-0.300000X0*%
%ADD24C,1.600000*%
G04 APERTURE END LIST*
D10*
X99556711Y-144774033D02*
X99652268Y-144791523D01*
X99816558Y-144836564D01*
X99970589Y-144899656D01*
X100116509Y-144981915D01*
X100256466Y-145084457D01*
X100392608Y-145208399D01*
X100436473Y-145253661D01*
X100548758Y-145385865D01*
X100641972Y-145523832D01*
X100718719Y-145671750D01*
X100781603Y-145833803D01*
X100785420Y-145845391D01*
X100835507Y-146031392D01*
X100868899Y-146227521D01*
X100885584Y-146429568D01*
X100885551Y-146633325D01*
X100868791Y-146834581D01*
X100835292Y-147029128D01*
X100785044Y-147212756D01*
X100741190Y-147330053D01*
X100663348Y-147492951D01*
X100569828Y-147646866D01*
X100462822Y-147788671D01*
X100344519Y-147915239D01*
X100217111Y-148023441D01*
X100139606Y-148076120D01*
X100012725Y-148145750D01*
X99875243Y-148204468D01*
X99733716Y-148249587D01*
X99594702Y-148278422D01*
X99580597Y-148280106D01*
X99537153Y-148283434D01*
X99479723Y-148286275D01*
X99414122Y-148288373D01*
X99346167Y-148289468D01*
X99219378Y-148287140D01*
X99071673Y-148274136D01*
X98933779Y-148249133D01*
X98800014Y-148211318D01*
X98776562Y-148202889D01*
X98728612Y-148183408D01*
X98672140Y-148158473D01*
X98610379Y-148129722D01*
X98546563Y-148098790D01*
X98483926Y-148067315D01*
X98425703Y-148036934D01*
X98375127Y-148009283D01*
X98335433Y-147985999D01*
X98309854Y-147968718D01*
X98301625Y-147959079D01*
X98303076Y-147955984D01*
X98314250Y-147936079D01*
X98335134Y-147900420D01*
X98364265Y-147851459D01*
X98400181Y-147791646D01*
X98441420Y-147723433D01*
X98486517Y-147649271D01*
X98667785Y-147352008D01*
X98714315Y-147396539D01*
X98805723Y-147474865D01*
X98919334Y-147549439D01*
X99037122Y-147603474D01*
X99157559Y-147636290D01*
X99279117Y-147647211D01*
X99320585Y-147645868D01*
X99438080Y-147627612D01*
X99548089Y-147588617D01*
X99649430Y-147529670D01*
X99740921Y-147451557D01*
X99821380Y-147355064D01*
X99889627Y-147240978D01*
X99905908Y-147206724D01*
X99951982Y-147083240D01*
X99987106Y-146944918D01*
X100011197Y-146795561D01*
X100024173Y-146638973D01*
X100025949Y-146478956D01*
X100016443Y-146319314D01*
X99995572Y-146163850D01*
X99963252Y-146016366D01*
X99919399Y-145880667D01*
X99881982Y-145794076D01*
X99817185Y-145680688D01*
X99741772Y-145587070D01*
X99655418Y-145512959D01*
X99557795Y-145458094D01*
X99448577Y-145422212D01*
X99327439Y-145405051D01*
X99258038Y-145403880D01*
X99135168Y-145418141D01*
X99019664Y-145453241D01*
X98912953Y-145508682D01*
X98816464Y-145583964D01*
X98800720Y-145598440D01*
X98770150Y-145624962D01*
X98747809Y-145642138D01*
X98737691Y-145646787D01*
X98735706Y-145644597D01*
X98721241Y-145625721D01*
X98697400Y-145592397D01*
X98666029Y-145547380D01*
X98628974Y-145493425D01*
X98588083Y-145433285D01*
X98545202Y-145369718D01*
X98502178Y-145305476D01*
X98460857Y-145243315D01*
X98423086Y-145185991D01*
X98390712Y-145136257D01*
X98365582Y-145096868D01*
X98349542Y-145070580D01*
X98344439Y-145060147D01*
X98349050Y-145055941D01*
X98368267Y-145050933D01*
X98377838Y-145048386D01*
X98405809Y-145037249D01*
X98447448Y-145018802D01*
X98498995Y-144994725D01*
X98556690Y-144966699D01*
X98567957Y-144961154D01*
X98745687Y-144881889D01*
X98915490Y-144822385D01*
X99079430Y-144782245D01*
X99239571Y-144761071D01*
X99397977Y-144758466D01*
X99556711Y-144774033D01*
G36*
X99556711Y-144774033D02*
G01*
X99652268Y-144791523D01*
X99816558Y-144836564D01*
X99970589Y-144899656D01*
X100116509Y-144981915D01*
X100256466Y-145084457D01*
X100392608Y-145208399D01*
X100436473Y-145253661D01*
X100548758Y-145385865D01*
X100641972Y-145523832D01*
X100718719Y-145671750D01*
X100781603Y-145833803D01*
X100785420Y-145845391D01*
X100835507Y-146031392D01*
X100868899Y-146227521D01*
X100885584Y-146429568D01*
X100885551Y-146633325D01*
X100868791Y-146834581D01*
X100835292Y-147029128D01*
X100785044Y-147212756D01*
X100741190Y-147330053D01*
X100663348Y-147492951D01*
X100569828Y-147646866D01*
X100462822Y-147788671D01*
X100344519Y-147915239D01*
X100217111Y-148023441D01*
X100139606Y-148076120D01*
X100012725Y-148145750D01*
X99875243Y-148204468D01*
X99733716Y-148249587D01*
X99594702Y-148278422D01*
X99580597Y-148280106D01*
X99537153Y-148283434D01*
X99479723Y-148286275D01*
X99414122Y-148288373D01*
X99346167Y-148289468D01*
X99219378Y-148287140D01*
X99071673Y-148274136D01*
X98933779Y-148249133D01*
X98800014Y-148211318D01*
X98776562Y-148202889D01*
X98728612Y-148183408D01*
X98672140Y-148158473D01*
X98610379Y-148129722D01*
X98546563Y-148098790D01*
X98483926Y-148067315D01*
X98425703Y-148036934D01*
X98375127Y-148009283D01*
X98335433Y-147985999D01*
X98309854Y-147968718D01*
X98301625Y-147959079D01*
X98303076Y-147955984D01*
X98314250Y-147936079D01*
X98335134Y-147900420D01*
X98364265Y-147851459D01*
X98400181Y-147791646D01*
X98441420Y-147723433D01*
X98486517Y-147649271D01*
X98667785Y-147352008D01*
X98714315Y-147396539D01*
X98805723Y-147474865D01*
X98919334Y-147549439D01*
X99037122Y-147603474D01*
X99157559Y-147636290D01*
X99279117Y-147647211D01*
X99320585Y-147645868D01*
X99438080Y-147627612D01*
X99548089Y-147588617D01*
X99649430Y-147529670D01*
X99740921Y-147451557D01*
X99821380Y-147355064D01*
X99889627Y-147240978D01*
X99905908Y-147206724D01*
X99951982Y-147083240D01*
X99987106Y-146944918D01*
X100011197Y-146795561D01*
X100024173Y-146638973D01*
X100025949Y-146478956D01*
X100016443Y-146319314D01*
X99995572Y-146163850D01*
X99963252Y-146016366D01*
X99919399Y-145880667D01*
X99881982Y-145794076D01*
X99817185Y-145680688D01*
X99741772Y-145587070D01*
X99655418Y-145512959D01*
X99557795Y-145458094D01*
X99448577Y-145422212D01*
X99327439Y-145405051D01*
X99258038Y-145403880D01*
X99135168Y-145418141D01*
X99019664Y-145453241D01*
X98912953Y-145508682D01*
X98816464Y-145583964D01*
X98800720Y-145598440D01*
X98770150Y-145624962D01*
X98747809Y-145642138D01*
X98737691Y-145646787D01*
X98735706Y-145644597D01*
X98721241Y-145625721D01*
X98697400Y-145592397D01*
X98666029Y-145547380D01*
X98628974Y-145493425D01*
X98588083Y-145433285D01*
X98545202Y-145369718D01*
X98502178Y-145305476D01*
X98460857Y-145243315D01*
X98423086Y-145185991D01*
X98390712Y-145136257D01*
X98365582Y-145096868D01*
X98349542Y-145070580D01*
X98344439Y-145060147D01*
X98349050Y-145055941D01*
X98368267Y-145050933D01*
X98377838Y-145048386D01*
X98405809Y-145037249D01*
X98447448Y-145018802D01*
X98498995Y-144994725D01*
X98556690Y-144966699D01*
X98567957Y-144961154D01*
X98745687Y-144881889D01*
X98915490Y-144822385D01*
X99079430Y-144782245D01*
X99239571Y-144761071D01*
X99397977Y-144758466D01*
X99556711Y-144774033D01*
G37*
X102022562Y-143844850D02*
X102105313Y-143872053D01*
X102180406Y-143917484D01*
X102252298Y-143983302D01*
X102290846Y-144027567D01*
X102330256Y-144085961D01*
X102355446Y-144146586D01*
X102368861Y-144215865D01*
X102372948Y-144300222D01*
X102372669Y-144346307D01*
X102370460Y-144387450D01*
X102364894Y-144419582D01*
X102354586Y-144450122D01*
X102338148Y-144486489D01*
X102324200Y-144513728D01*
X102265665Y-144599429D01*
X102193619Y-144668617D01*
X102109947Y-144719741D01*
X102016531Y-144751250D01*
X101983434Y-144758225D01*
X101942960Y-144765094D01*
X101909999Y-144766919D01*
X101875698Y-144763947D01*
X101831200Y-144756426D01*
X101779934Y-144744002D01*
X101689434Y-144706112D01*
X101610345Y-144651836D01*
X101544528Y-144583770D01*
X101493840Y-144504511D01*
X101460140Y-144416654D01*
X101445286Y-144322795D01*
X101451136Y-144225530D01*
X101477399Y-144129220D01*
X101522418Y-144040494D01*
X101583373Y-143965419D01*
X101658184Y-143905641D01*
X101744768Y-143862809D01*
X101841043Y-143838571D01*
X101944928Y-143834576D01*
X102022562Y-143844850D01*
G36*
X102022562Y-143844850D02*
G01*
X102105313Y-143872053D01*
X102180406Y-143917484D01*
X102252298Y-143983302D01*
X102290846Y-144027567D01*
X102330256Y-144085961D01*
X102355446Y-144146586D01*
X102368861Y-144215865D01*
X102372948Y-144300222D01*
X102372669Y-144346307D01*
X102370460Y-144387450D01*
X102364894Y-144419582D01*
X102354586Y-144450122D01*
X102338148Y-144486489D01*
X102324200Y-144513728D01*
X102265665Y-144599429D01*
X102193619Y-144668617D01*
X102109947Y-144719741D01*
X102016531Y-144751250D01*
X101983434Y-144758225D01*
X101942960Y-144765094D01*
X101909999Y-144766919D01*
X101875698Y-144763947D01*
X101831200Y-144756426D01*
X101779934Y-144744002D01*
X101689434Y-144706112D01*
X101610345Y-144651836D01*
X101544528Y-144583770D01*
X101493840Y-144504511D01*
X101460140Y-144416654D01*
X101445286Y-144322795D01*
X101451136Y-144225530D01*
X101477399Y-144129220D01*
X101522418Y-144040494D01*
X101583373Y-143965419D01*
X101658184Y-143905641D01*
X101744768Y-143862809D01*
X101841043Y-143838571D01*
X101944928Y-143834576D01*
X102022562Y-143844850D01*
G37*
X105843614Y-144923792D02*
X105844059Y-145055011D01*
X105844362Y-145202216D01*
X105844548Y-145366349D01*
X105844642Y-145548352D01*
X105844671Y-145749165D01*
X105844661Y-145969732D01*
X105844636Y-146210992D01*
X105844622Y-146473889D01*
X105844622Y-146516040D01*
X105844646Y-146776668D01*
X105844685Y-147015796D01*
X105844708Y-147234360D01*
X105844687Y-147433295D01*
X105844593Y-147613535D01*
X105844395Y-147776015D01*
X105844063Y-147921670D01*
X105843569Y-148051434D01*
X105842883Y-148166243D01*
X105841976Y-148267030D01*
X105840817Y-148354730D01*
X105839378Y-148430279D01*
X105837629Y-148494611D01*
X105835540Y-148548661D01*
X105833083Y-148593363D01*
X105830227Y-148629652D01*
X105826943Y-148658463D01*
X105823202Y-148680731D01*
X105818974Y-148697390D01*
X105814229Y-148709375D01*
X105808939Y-148717621D01*
X105803073Y-148723062D01*
X105796602Y-148726634D01*
X105789497Y-148729270D01*
X105781728Y-148731906D01*
X105773266Y-148735477D01*
X105768908Y-148737145D01*
X105760395Y-148739111D01*
X105747694Y-148740911D01*
X105729885Y-148742555D01*
X105706049Y-148744047D01*
X105675266Y-148745397D01*
X105636617Y-148746611D01*
X105589182Y-148747697D01*
X105532043Y-148748661D01*
X105464279Y-148749511D01*
X105384971Y-148750253D01*
X105293199Y-148750897D01*
X105188044Y-148751447D01*
X105068587Y-148751913D01*
X104933908Y-148752300D01*
X104783088Y-148752616D01*
X104615206Y-148752869D01*
X104429345Y-148753066D01*
X104224583Y-148753213D01*
X104000002Y-148753318D01*
X103754682Y-148753389D01*
X103487704Y-148753432D01*
X103449321Y-148753437D01*
X103183922Y-148753480D01*
X102940050Y-148753525D01*
X102716783Y-148753548D01*
X102513196Y-148753524D01*
X102328367Y-148753430D01*
X102161373Y-148753243D01*
X102011290Y-148752939D01*
X101877196Y-148752494D01*
X101758166Y-148751885D01*
X101653279Y-148751089D01*
X101561610Y-148750080D01*
X101482237Y-148748837D01*
X101414237Y-148747335D01*
X101356686Y-148745551D01*
X101308662Y-148743461D01*
X101269240Y-148741042D01*
X101237499Y-148738270D01*
X101212514Y-148735121D01*
X101193364Y-148731572D01*
X101179123Y-148727598D01*
X101168871Y-148723178D01*
X101161682Y-148718286D01*
X101156635Y-148712900D01*
X101152805Y-148706996D01*
X101149271Y-148700549D01*
X101145108Y-148693537D01*
X101144025Y-148691687D01*
X101141813Y-148686180D01*
X101139786Y-148677868D01*
X101137938Y-148665809D01*
X101136261Y-148649063D01*
X101134745Y-148626687D01*
X101133383Y-148597740D01*
X101132167Y-148561280D01*
X101131089Y-148516367D01*
X101130140Y-148462057D01*
X101129312Y-148397410D01*
X101128597Y-148321484D01*
X101127987Y-148233338D01*
X101127942Y-148224493D01*
X101419378Y-148224493D01*
X101423260Y-148225765D01*
X101446520Y-148227791D01*
X101488874Y-148229626D01*
X101548132Y-148231227D01*
X101622107Y-148232549D01*
X101708610Y-148233548D01*
X101805452Y-148234180D01*
X101910445Y-148234400D01*
X102608651Y-148234400D01*
X103763090Y-148234400D01*
X103762456Y-148158200D01*
X103763574Y-148116160D01*
X103769304Y-148080334D01*
X103781890Y-148042772D01*
X103803568Y-147994577D01*
X103806789Y-147987897D01*
X103832188Y-147938359D01*
X103858996Y-147890369D01*
X103881917Y-147853466D01*
X103886485Y-147846834D01*
X103908516Y-147815593D01*
X103940693Y-147770654D01*
X103981457Y-147714147D01*
X104029245Y-147648204D01*
X104082498Y-147574957D01*
X104139655Y-147496536D01*
X104199155Y-147415072D01*
X104259437Y-147332698D01*
X104318940Y-147251544D01*
X104376105Y-147173742D01*
X104429370Y-147101423D01*
X104477174Y-147036718D01*
X104517957Y-146981759D01*
X104550158Y-146938676D01*
X104572216Y-146909602D01*
X104582571Y-146896667D01*
X104587044Y-146892351D01*
X104591236Y-146890312D01*
X104594643Y-146892926D01*
X104597325Y-146901986D01*
X104599341Y-146919285D01*
X104600748Y-146946614D01*
X104601605Y-146985765D01*
X104601970Y-147038533D01*
X104601903Y-147106707D01*
X104601460Y-147192082D01*
X104600702Y-147296449D01*
X104599685Y-147421600D01*
X104599308Y-147466300D01*
X104598169Y-147587395D01*
X104596972Y-147688688D01*
X104595636Y-147772262D01*
X104594077Y-147840204D01*
X104592215Y-147894599D01*
X104589966Y-147937532D01*
X104587248Y-147971089D01*
X104583979Y-147997355D01*
X104580078Y-148018416D01*
X104575461Y-148036357D01*
X104567192Y-148062770D01*
X104543583Y-148124772D01*
X104517685Y-148177573D01*
X104492535Y-148214645D01*
X104491339Y-148216075D01*
X104489168Y-148220424D01*
X104491328Y-148224026D01*
X104499644Y-148226951D01*
X104515940Y-148229269D01*
X104542041Y-148231051D01*
X104579771Y-148232367D01*
X104630956Y-148233286D01*
X104697420Y-148233878D01*
X104780987Y-148234215D01*
X104883483Y-148234365D01*
X105006732Y-148234400D01*
X105538296Y-148234400D01*
X105499523Y-148176783D01*
X105493432Y-148167893D01*
X105482976Y-148153069D01*
X105473579Y-148139422D01*
X105465183Y-148125765D01*
X105457733Y-148110911D01*
X105451173Y-148093670D01*
X105445446Y-148072855D01*
X105440495Y-148047280D01*
X105436266Y-148015755D01*
X105432701Y-147977093D01*
X105429744Y-147930107D01*
X105427340Y-147873608D01*
X105425431Y-147806409D01*
X105423962Y-147727322D01*
X105422876Y-147635160D01*
X105422118Y-147528734D01*
X105421630Y-147406857D01*
X105421358Y-147268341D01*
X105421243Y-147111999D01*
X105421231Y-146936642D01*
X105421265Y-146741082D01*
X105421289Y-146524133D01*
X105421280Y-146401513D01*
X105421243Y-146196447D01*
X105421227Y-146012116D01*
X105421288Y-145847334D01*
X105421484Y-145700916D01*
X105421870Y-145571674D01*
X105422505Y-145458422D01*
X105423444Y-145359975D01*
X105424745Y-145275144D01*
X105426464Y-145202744D01*
X105428659Y-145141589D01*
X105431385Y-145090492D01*
X105434701Y-145048267D01*
X105438662Y-145013727D01*
X105443325Y-144985686D01*
X105448747Y-144962958D01*
X105454986Y-144944356D01*
X105462097Y-144928693D01*
X105470138Y-144914784D01*
X105479166Y-144901441D01*
X105489236Y-144887479D01*
X105500407Y-144871711D01*
X105540197Y-144813867D01*
X104480314Y-144813867D01*
X104518311Y-144876966D01*
X104532993Y-144902005D01*
X104547531Y-144929586D01*
X104559627Y-144957700D01*
X104569532Y-144988551D01*
X104577494Y-145024344D01*
X104583761Y-145067283D01*
X104588582Y-145119574D01*
X104592206Y-145183419D01*
X104594881Y-145261025D01*
X104596857Y-145354594D01*
X104598382Y-145466333D01*
X104599704Y-145598445D01*
X104600613Y-145718434D01*
X104601020Y-145835063D01*
X104600767Y-145930531D01*
X104599857Y-146004556D01*
X104598293Y-146056855D01*
X104596079Y-146087149D01*
X104593220Y-146095156D01*
X104590161Y-146091858D01*
X104572006Y-146070408D01*
X104542275Y-146033889D01*
X104502639Y-145984442D01*
X104454771Y-145924207D01*
X104400343Y-145855327D01*
X104341027Y-145779943D01*
X104278495Y-145700196D01*
X104214421Y-145618228D01*
X104150475Y-145536180D01*
X104088331Y-145456194D01*
X104029661Y-145380411D01*
X103976137Y-145310973D01*
X103929430Y-145250021D01*
X103891214Y-145199696D01*
X103863161Y-145162140D01*
X103846943Y-145139495D01*
X103801635Y-145067212D01*
X103761661Y-144987463D01*
X103740130Y-144919188D01*
X103736827Y-144861844D01*
X103742116Y-144813867D01*
X102610356Y-144814117D01*
X102649867Y-144844722D01*
X102659248Y-144852089D01*
X102722183Y-144906438D01*
X102790997Y-144974259D01*
X102867596Y-145057516D01*
X102953888Y-145158178D01*
X102971052Y-145178847D01*
X103011833Y-145228409D01*
X103061588Y-145289326D01*
X103118955Y-145359898D01*
X103182569Y-145438424D01*
X103251069Y-145523204D01*
X103323090Y-145612537D01*
X103397270Y-145704722D01*
X103412517Y-145723702D01*
X103472246Y-145798060D01*
X103546653Y-145890848D01*
X103619131Y-145981388D01*
X103688314Y-146067978D01*
X103752841Y-146148918D01*
X103811347Y-146222506D01*
X103862470Y-146287044D01*
X103904847Y-146340829D01*
X103937115Y-146382162D01*
X103957910Y-146409342D01*
X103965869Y-146420668D01*
X103964111Y-146424771D01*
X103951230Y-146445334D01*
X103926885Y-146481561D01*
X103892247Y-146531824D01*
X103848486Y-146594492D01*
X103796775Y-146667936D01*
X103738284Y-146750527D01*
X103674184Y-146840636D01*
X103605646Y-146936631D01*
X103533843Y-147036885D01*
X103459944Y-147139768D01*
X103385121Y-147243650D01*
X103310545Y-147346901D01*
X103237387Y-147447892D01*
X103166819Y-147544994D01*
X103100011Y-147636577D01*
X103038135Y-147721011D01*
X102982361Y-147796667D01*
X102933862Y-147861916D01*
X102893807Y-147915128D01*
X102863369Y-147954673D01*
X102842944Y-147980026D01*
X102796899Y-148034295D01*
X102746612Y-148090775D01*
X102699815Y-148140669D01*
X102608651Y-148234400D01*
X101910445Y-148234400D01*
X101979356Y-148234349D01*
X102077607Y-148234091D01*
X102167030Y-148233637D01*
X102245333Y-148233010D01*
X102310223Y-148232235D01*
X102359411Y-148231335D01*
X102390604Y-148230334D01*
X102401511Y-148229257D01*
X102400322Y-148226037D01*
X102390176Y-148208452D01*
X102373040Y-148182158D01*
X102364540Y-148169691D01*
X102355329Y-148155622D01*
X102347233Y-148141351D01*
X102340185Y-148125479D01*
X102334117Y-148106609D01*
X102328961Y-148083341D01*
X102324651Y-148054278D01*
X102321119Y-148018021D01*
X102318297Y-147973170D01*
X102316118Y-147918328D01*
X102314514Y-147852097D01*
X102313419Y-147773077D01*
X102312765Y-147679871D01*
X102312484Y-147571079D01*
X102312509Y-147445303D01*
X102312772Y-147301145D01*
X102313206Y-147137207D01*
X102313745Y-146952089D01*
X102314279Y-146773232D01*
X102314805Y-146614374D01*
X102315350Y-146475316D01*
X102315945Y-146354665D01*
X102316619Y-146251028D01*
X102317403Y-146163011D01*
X102318326Y-146089223D01*
X102319419Y-146028269D01*
X102320712Y-145978757D01*
X102322235Y-145939293D01*
X102324019Y-145908484D01*
X102326092Y-145884938D01*
X102328486Y-145867260D01*
X102331230Y-145854059D01*
X102334356Y-145843940D01*
X102337892Y-145835511D01*
X102341791Y-145827375D01*
X102361438Y-145790544D01*
X102380225Y-145760391D01*
X102381272Y-145758908D01*
X102395602Y-145736659D01*
X102401511Y-145723702D01*
X102400504Y-145723249D01*
X102383305Y-145721803D01*
X102346656Y-145720480D01*
X102292962Y-145719316D01*
X102224630Y-145718347D01*
X102144064Y-145717611D01*
X102053670Y-145717142D01*
X101955853Y-145716978D01*
X101510195Y-145716978D01*
X101507120Y-146893845D01*
X101504045Y-148070711D01*
X101477407Y-148129622D01*
X101465485Y-148154183D01*
X101448246Y-148184434D01*
X101435074Y-148201560D01*
X101427076Y-148209591D01*
X101419378Y-148224493D01*
X101127942Y-148224493D01*
X101127474Y-148132029D01*
X101127050Y-148016617D01*
X101126706Y-147886160D01*
X101126434Y-147739716D01*
X101126227Y-147576344D01*
X101126076Y-147395101D01*
X101125972Y-147195048D01*
X101125908Y-146975241D01*
X101125876Y-146734739D01*
X101125867Y-146472602D01*
X101125867Y-144281031D01*
X101164249Y-144242649D01*
X101191355Y-144218911D01*
X101218253Y-144207111D01*
X101254560Y-144204267D01*
X101306489Y-144204267D01*
X101306489Y-144292206D01*
X101308427Y-144342102D01*
X101327199Y-144452523D01*
X101364217Y-144553987D01*
X101417369Y-144645152D01*
X101484546Y-144724673D01*
X101563638Y-144791205D01*
X101652534Y-144843406D01*
X101749125Y-144879930D01*
X101851300Y-144899434D01*
X101956950Y-144900573D01*
X102063964Y-144882005D01*
X102170232Y-144842384D01*
X102267219Y-144784516D01*
X102352293Y-144709684D01*
X102421015Y-144621615D01*
X102471918Y-144522616D01*
X102503535Y-144414993D01*
X102514400Y-144301054D01*
X102514400Y-144204267D01*
X104134753Y-144204267D01*
X104345897Y-144204280D01*
X104550020Y-144204330D01*
X104733686Y-144204430D01*
X104897991Y-144204592D01*
X105044029Y-144204829D01*
X105172894Y-144205153D01*
X105285683Y-144205575D01*
X105383488Y-144206109D01*
X105467404Y-144206767D01*
X105538527Y-144207561D01*
X105597950Y-144208504D01*
X105646768Y-144209608D01*
X105686077Y-144210884D01*
X105716969Y-144212347D01*
X105740541Y-144214007D01*
X105757886Y-144215878D01*
X105770099Y-144217972D01*
X105778275Y-144220300D01*
X105783508Y-144222876D01*
X105789504Y-144226445D01*
X105796279Y-144229978D01*
X105802478Y-144233488D01*
X105808126Y-144237918D01*
X105813247Y-144244208D01*
X105817869Y-144253301D01*
X105822015Y-144266139D01*
X105825713Y-144283662D01*
X105828987Y-144306813D01*
X105831863Y-144336534D01*
X105834367Y-144373765D01*
X105836524Y-144419449D01*
X105838360Y-144474527D01*
X105839900Y-144539941D01*
X105841170Y-144616633D01*
X105842195Y-144705544D01*
X105843001Y-144807617D01*
X105843034Y-144813867D01*
X105843614Y-144923792D01*
G36*
X105843614Y-144923792D02*
G01*
X105844059Y-145055011D01*
X105844362Y-145202216D01*
X105844548Y-145366349D01*
X105844642Y-145548352D01*
X105844671Y-145749165D01*
X105844661Y-145969732D01*
X105844636Y-146210992D01*
X105844622Y-146473889D01*
X105844622Y-146516040D01*
X105844646Y-146776668D01*
X105844685Y-147015796D01*
X105844708Y-147234360D01*
X105844687Y-147433295D01*
X105844593Y-147613535D01*
X105844395Y-147776015D01*
X105844063Y-147921670D01*
X105843569Y-148051434D01*
X105842883Y-148166243D01*
X105841976Y-148267030D01*
X105840817Y-148354730D01*
X105839378Y-148430279D01*
X105837629Y-148494611D01*
X105835540Y-148548661D01*
X105833083Y-148593363D01*
X105830227Y-148629652D01*
X105826943Y-148658463D01*
X105823202Y-148680731D01*
X105818974Y-148697390D01*
X105814229Y-148709375D01*
X105808939Y-148717621D01*
X105803073Y-148723062D01*
X105796602Y-148726634D01*
X105789497Y-148729270D01*
X105781728Y-148731906D01*
X105773266Y-148735477D01*
X105768908Y-148737145D01*
X105760395Y-148739111D01*
X105747694Y-148740911D01*
X105729885Y-148742555D01*
X105706049Y-148744047D01*
X105675266Y-148745397D01*
X105636617Y-148746611D01*
X105589182Y-148747697D01*
X105532043Y-148748661D01*
X105464279Y-148749511D01*
X105384971Y-148750253D01*
X105293199Y-148750897D01*
X105188044Y-148751447D01*
X105068587Y-148751913D01*
X104933908Y-148752300D01*
X104783088Y-148752616D01*
X104615206Y-148752869D01*
X104429345Y-148753066D01*
X104224583Y-148753213D01*
X104000002Y-148753318D01*
X103754682Y-148753389D01*
X103487704Y-148753432D01*
X103449321Y-148753437D01*
X103183922Y-148753480D01*
X102940050Y-148753525D01*
X102716783Y-148753548D01*
X102513196Y-148753524D01*
X102328367Y-148753430D01*
X102161373Y-148753243D01*
X102011290Y-148752939D01*
X101877196Y-148752494D01*
X101758166Y-148751885D01*
X101653279Y-148751089D01*
X101561610Y-148750080D01*
X101482237Y-148748837D01*
X101414237Y-148747335D01*
X101356686Y-148745551D01*
X101308662Y-148743461D01*
X101269240Y-148741042D01*
X101237499Y-148738270D01*
X101212514Y-148735121D01*
X101193364Y-148731572D01*
X101179123Y-148727598D01*
X101168871Y-148723178D01*
X101161682Y-148718286D01*
X101156635Y-148712900D01*
X101152805Y-148706996D01*
X101149271Y-148700549D01*
X101145108Y-148693537D01*
X101144025Y-148691687D01*
X101141813Y-148686180D01*
X101139786Y-148677868D01*
X101137938Y-148665809D01*
X101136261Y-148649063D01*
X101134745Y-148626687D01*
X101133383Y-148597740D01*
X101132167Y-148561280D01*
X101131089Y-148516367D01*
X101130140Y-148462057D01*
X101129312Y-148397410D01*
X101128597Y-148321484D01*
X101127987Y-148233338D01*
X101127942Y-148224493D01*
X101419378Y-148224493D01*
X101423260Y-148225765D01*
X101446520Y-148227791D01*
X101488874Y-148229626D01*
X101548132Y-148231227D01*
X101622107Y-148232549D01*
X101708610Y-148233548D01*
X101805452Y-148234180D01*
X101910445Y-148234400D01*
X102608651Y-148234400D01*
X103763090Y-148234400D01*
X103762456Y-148158200D01*
X103763574Y-148116160D01*
X103769304Y-148080334D01*
X103781890Y-148042772D01*
X103803568Y-147994577D01*
X103806789Y-147987897D01*
X103832188Y-147938359D01*
X103858996Y-147890369D01*
X103881917Y-147853466D01*
X103886485Y-147846834D01*
X103908516Y-147815593D01*
X103940693Y-147770654D01*
X103981457Y-147714147D01*
X104029245Y-147648204D01*
X104082498Y-147574957D01*
X104139655Y-147496536D01*
X104199155Y-147415072D01*
X104259437Y-147332698D01*
X104318940Y-147251544D01*
X104376105Y-147173742D01*
X104429370Y-147101423D01*
X104477174Y-147036718D01*
X104517957Y-146981759D01*
X104550158Y-146938676D01*
X104572216Y-146909602D01*
X104582571Y-146896667D01*
X104587044Y-146892351D01*
X104591236Y-146890312D01*
X104594643Y-146892926D01*
X104597325Y-146901986D01*
X104599341Y-146919285D01*
X104600748Y-146946614D01*
X104601605Y-146985765D01*
X104601970Y-147038533D01*
X104601903Y-147106707D01*
X104601460Y-147192082D01*
X104600702Y-147296449D01*
X104599685Y-147421600D01*
X104599308Y-147466300D01*
X104598169Y-147587395D01*
X104596972Y-147688688D01*
X104595636Y-147772262D01*
X104594077Y-147840204D01*
X104592215Y-147894599D01*
X104589966Y-147937532D01*
X104587248Y-147971089D01*
X104583979Y-147997355D01*
X104580078Y-148018416D01*
X104575461Y-148036357D01*
X104567192Y-148062770D01*
X104543583Y-148124772D01*
X104517685Y-148177573D01*
X104492535Y-148214645D01*
X104491339Y-148216075D01*
X104489168Y-148220424D01*
X104491328Y-148224026D01*
X104499644Y-148226951D01*
X104515940Y-148229269D01*
X104542041Y-148231051D01*
X104579771Y-148232367D01*
X104630956Y-148233286D01*
X104697420Y-148233878D01*
X104780987Y-148234215D01*
X104883483Y-148234365D01*
X105006732Y-148234400D01*
X105538296Y-148234400D01*
X105499523Y-148176783D01*
X105493432Y-148167893D01*
X105482976Y-148153069D01*
X105473579Y-148139422D01*
X105465183Y-148125765D01*
X105457733Y-148110911D01*
X105451173Y-148093670D01*
X105445446Y-148072855D01*
X105440495Y-148047280D01*
X105436266Y-148015755D01*
X105432701Y-147977093D01*
X105429744Y-147930107D01*
X105427340Y-147873608D01*
X105425431Y-147806409D01*
X105423962Y-147727322D01*
X105422876Y-147635160D01*
X105422118Y-147528734D01*
X105421630Y-147406857D01*
X105421358Y-147268341D01*
X105421243Y-147111999D01*
X105421231Y-146936642D01*
X105421265Y-146741082D01*
X105421289Y-146524133D01*
X105421280Y-146401513D01*
X105421243Y-146196447D01*
X105421227Y-146012116D01*
X105421288Y-145847334D01*
X105421484Y-145700916D01*
X105421870Y-145571674D01*
X105422505Y-145458422D01*
X105423444Y-145359975D01*
X105424745Y-145275144D01*
X105426464Y-145202744D01*
X105428659Y-145141589D01*
X105431385Y-145090492D01*
X105434701Y-145048267D01*
X105438662Y-145013727D01*
X105443325Y-144985686D01*
X105448747Y-144962958D01*
X105454986Y-144944356D01*
X105462097Y-144928693D01*
X105470138Y-144914784D01*
X105479166Y-144901441D01*
X105489236Y-144887479D01*
X105500407Y-144871711D01*
X105540197Y-144813867D01*
X104480314Y-144813867D01*
X104518311Y-144876966D01*
X104532993Y-144902005D01*
X104547531Y-144929586D01*
X104559627Y-144957700D01*
X104569532Y-144988551D01*
X104577494Y-145024344D01*
X104583761Y-145067283D01*
X104588582Y-145119574D01*
X104592206Y-145183419D01*
X104594881Y-145261025D01*
X104596857Y-145354594D01*
X104598382Y-145466333D01*
X104599704Y-145598445D01*
X104600613Y-145718434D01*
X104601020Y-145835063D01*
X104600767Y-145930531D01*
X104599857Y-146004556D01*
X104598293Y-146056855D01*
X104596079Y-146087149D01*
X104593220Y-146095156D01*
X104590161Y-146091858D01*
X104572006Y-146070408D01*
X104542275Y-146033889D01*
X104502639Y-145984442D01*
X104454771Y-145924207D01*
X104400343Y-145855327D01*
X104341027Y-145779943D01*
X104278495Y-145700196D01*
X104214421Y-145618228D01*
X104150475Y-145536180D01*
X104088331Y-145456194D01*
X104029661Y-145380411D01*
X103976137Y-145310973D01*
X103929430Y-145250021D01*
X103891214Y-145199696D01*
X103863161Y-145162140D01*
X103846943Y-145139495D01*
X103801635Y-145067212D01*
X103761661Y-144987463D01*
X103740130Y-144919188D01*
X103736827Y-144861844D01*
X103742116Y-144813867D01*
X102610356Y-144814117D01*
X102649867Y-144844722D01*
X102659248Y-144852089D01*
X102722183Y-144906438D01*
X102790997Y-144974259D01*
X102867596Y-145057516D01*
X102953888Y-145158178D01*
X102971052Y-145178847D01*
X103011833Y-145228409D01*
X103061588Y-145289326D01*
X103118955Y-145359898D01*
X103182569Y-145438424D01*
X103251069Y-145523204D01*
X103323090Y-145612537D01*
X103397270Y-145704722D01*
X103412517Y-145723702D01*
X103472246Y-145798060D01*
X103546653Y-145890848D01*
X103619131Y-145981388D01*
X103688314Y-146067978D01*
X103752841Y-146148918D01*
X103811347Y-146222506D01*
X103862470Y-146287044D01*
X103904847Y-146340829D01*
X103937115Y-146382162D01*
X103957910Y-146409342D01*
X103965869Y-146420668D01*
X103964111Y-146424771D01*
X103951230Y-146445334D01*
X103926885Y-146481561D01*
X103892247Y-146531824D01*
X103848486Y-146594492D01*
X103796775Y-146667936D01*
X103738284Y-146750527D01*
X103674184Y-146840636D01*
X103605646Y-146936631D01*
X103533843Y-147036885D01*
X103459944Y-147139768D01*
X103385121Y-147243650D01*
X103310545Y-147346901D01*
X103237387Y-147447892D01*
X103166819Y-147544994D01*
X103100011Y-147636577D01*
X103038135Y-147721011D01*
X102982361Y-147796667D01*
X102933862Y-147861916D01*
X102893807Y-147915128D01*
X102863369Y-147954673D01*
X102842944Y-147980026D01*
X102796899Y-148034295D01*
X102746612Y-148090775D01*
X102699815Y-148140669D01*
X102608651Y-148234400D01*
X101910445Y-148234400D01*
X101979356Y-148234349D01*
X102077607Y-148234091D01*
X102167030Y-148233637D01*
X102245333Y-148233010D01*
X102310223Y-148232235D01*
X102359411Y-148231335D01*
X102390604Y-148230334D01*
X102401511Y-148229257D01*
X102400322Y-148226037D01*
X102390176Y-148208452D01*
X102373040Y-148182158D01*
X102364540Y-148169691D01*
X102355329Y-148155622D01*
X102347233Y-148141351D01*
X102340185Y-148125479D01*
X102334117Y-148106609D01*
X102328961Y-148083341D01*
X102324651Y-148054278D01*
X102321119Y-148018021D01*
X102318297Y-147973170D01*
X102316118Y-147918328D01*
X102314514Y-147852097D01*
X102313419Y-147773077D01*
X102312765Y-147679871D01*
X102312484Y-147571079D01*
X102312509Y-147445303D01*
X102312772Y-147301145D01*
X102313206Y-147137207D01*
X102313745Y-146952089D01*
X102314279Y-146773232D01*
X102314805Y-146614374D01*
X102315350Y-146475316D01*
X102315945Y-146354665D01*
X102316619Y-146251028D01*
X102317403Y-146163011D01*
X102318326Y-146089223D01*
X102319419Y-146028269D01*
X102320712Y-145978757D01*
X102322235Y-145939293D01*
X102324019Y-145908484D01*
X102326092Y-145884938D01*
X102328486Y-145867260D01*
X102331230Y-145854059D01*
X102334356Y-145843940D01*
X102337892Y-145835511D01*
X102341791Y-145827375D01*
X102361438Y-145790544D01*
X102380225Y-145760391D01*
X102381272Y-145758908D01*
X102395602Y-145736659D01*
X102401511Y-145723702D01*
X102400504Y-145723249D01*
X102383305Y-145721803D01*
X102346656Y-145720480D01*
X102292962Y-145719316D01*
X102224630Y-145718347D01*
X102144064Y-145717611D01*
X102053670Y-145717142D01*
X101955853Y-145716978D01*
X101510195Y-145716978D01*
X101507120Y-146893845D01*
X101504045Y-148070711D01*
X101477407Y-148129622D01*
X101465485Y-148154183D01*
X101448246Y-148184434D01*
X101435074Y-148201560D01*
X101427076Y-148209591D01*
X101419378Y-148224493D01*
X101127942Y-148224493D01*
X101127474Y-148132029D01*
X101127050Y-148016617D01*
X101126706Y-147886160D01*
X101126434Y-147739716D01*
X101126227Y-147576344D01*
X101126076Y-147395101D01*
X101125972Y-147195048D01*
X101125908Y-146975241D01*
X101125876Y-146734739D01*
X101125867Y-146472602D01*
X101125867Y-144281031D01*
X101164249Y-144242649D01*
X101191355Y-144218911D01*
X101218253Y-144207111D01*
X101254560Y-144204267D01*
X101306489Y-144204267D01*
X101306489Y-144292206D01*
X101308427Y-144342102D01*
X101327199Y-144452523D01*
X101364217Y-144553987D01*
X101417369Y-144645152D01*
X101484546Y-144724673D01*
X101563638Y-144791205D01*
X101652534Y-144843406D01*
X101749125Y-144879930D01*
X101851300Y-144899434D01*
X101956950Y-144900573D01*
X102063964Y-144882005D01*
X102170232Y-144842384D01*
X102267219Y-144784516D01*
X102352293Y-144709684D01*
X102421015Y-144621615D01*
X102471918Y-144522616D01*
X102503535Y-144414993D01*
X102514400Y-144301054D01*
X102514400Y-144204267D01*
X104134753Y-144204267D01*
X104345897Y-144204280D01*
X104550020Y-144204330D01*
X104733686Y-144204430D01*
X104897991Y-144204592D01*
X105044029Y-144204829D01*
X105172894Y-144205153D01*
X105285683Y-144205575D01*
X105383488Y-144206109D01*
X105467404Y-144206767D01*
X105538527Y-144207561D01*
X105597950Y-144208504D01*
X105646768Y-144209608D01*
X105686077Y-144210884D01*
X105716969Y-144212347D01*
X105740541Y-144214007D01*
X105757886Y-144215878D01*
X105770099Y-144217972D01*
X105778275Y-144220300D01*
X105783508Y-144222876D01*
X105789504Y-144226445D01*
X105796279Y-144229978D01*
X105802478Y-144233488D01*
X105808126Y-144237918D01*
X105813247Y-144244208D01*
X105817869Y-144253301D01*
X105822015Y-144266139D01*
X105825713Y-144283662D01*
X105828987Y-144306813D01*
X105831863Y-144336534D01*
X105834367Y-144373765D01*
X105836524Y-144419449D01*
X105838360Y-144474527D01*
X105839900Y-144539941D01*
X105841170Y-144616633D01*
X105842195Y-144705544D01*
X105843001Y-144807617D01*
X105843034Y-144813867D01*
X105843614Y-144923792D01*
G37*
X98295755Y-147455467D02*
X98295261Y-147489363D01*
X98291632Y-147564202D01*
X98284022Y-147626401D01*
X98271688Y-147682984D01*
X98227313Y-147809076D01*
X98164400Y-147923679D01*
X98084238Y-148024568D01*
X97987740Y-148110924D01*
X97875822Y-148181932D01*
X97749397Y-148236776D01*
X97609378Y-148274638D01*
X97573149Y-148280351D01*
X97494155Y-148286313D01*
X97405841Y-148286646D01*
X97316075Y-148281659D01*
X97232722Y-148271666D01*
X97163651Y-148256978D01*
X97077187Y-148226749D01*
X96967286Y-148172057D01*
X96869956Y-148104543D01*
X96807867Y-148053556D01*
X96804605Y-148149622D01*
X96801343Y-148245689D01*
X96378450Y-148245689D01*
X96367543Y-148245686D01*
X96273056Y-148245380D01*
X96186331Y-148244616D01*
X96109837Y-148243451D01*
X96046043Y-148241942D01*
X95997418Y-148240147D01*
X95966433Y-148238121D01*
X95955556Y-148235922D01*
X95955578Y-148235463D01*
X95962614Y-148219910D01*
X95978434Y-148197071D01*
X95982734Y-148191638D01*
X95993777Y-148177606D01*
X96003311Y-148164186D01*
X96011461Y-148149722D01*
X96018352Y-148132556D01*
X96024111Y-148111034D01*
X96028862Y-148083498D01*
X96032731Y-148048292D01*
X96035844Y-148003760D01*
X96038325Y-147948246D01*
X96040300Y-147880093D01*
X96041894Y-147797645D01*
X96043234Y-147699246D01*
X96044444Y-147583239D01*
X96044896Y-147532462D01*
X96847378Y-147532462D01*
X96892048Y-147588973D01*
X96904785Y-147604212D01*
X96951604Y-147646844D01*
X97012255Y-147682672D01*
X97022897Y-147687850D01*
X97061676Y-147704745D01*
X97096692Y-147714909D01*
X97136722Y-147720325D01*
X97190541Y-147722978D01*
X97208648Y-147723383D01*
X97284011Y-147720540D01*
X97344743Y-147708620D01*
X97396452Y-147686037D01*
X97444746Y-147651211D01*
X97449803Y-147646798D01*
X97498272Y-147591160D01*
X97526459Y-147527333D01*
X97535752Y-147452282D01*
X97528520Y-147380693D01*
X97503796Y-147317645D01*
X97459249Y-147259758D01*
X97404319Y-147212808D01*
X97331894Y-147172961D01*
X97245340Y-147145263D01*
X97142670Y-147129096D01*
X97021894Y-147123842D01*
X97013007Y-147123857D01*
X96957660Y-147124655D01*
X96910736Y-147126488D01*
X96876953Y-147129111D01*
X96861028Y-147132274D01*
X96856943Y-147138741D01*
X96852572Y-147160875D01*
X96849604Y-147199988D01*
X96847914Y-147257939D01*
X96847378Y-147336586D01*
X96847378Y-147532462D01*
X96044896Y-147532462D01*
X96045649Y-147447968D01*
X96046975Y-147291778D01*
X96048228Y-147149012D01*
X96049651Y-147003942D01*
X96051176Y-146878027D01*
X96052933Y-146769436D01*
X96055051Y-146676334D01*
X96057660Y-146596891D01*
X96060890Y-146529273D01*
X96064869Y-146471649D01*
X96069728Y-146422185D01*
X96075597Y-146379050D01*
X96082604Y-146340410D01*
X96090880Y-146304434D01*
X96100554Y-146269289D01*
X96111756Y-146233142D01*
X96124616Y-146194161D01*
X96140090Y-146151091D01*
X96182994Y-146058871D01*
X96236735Y-145979099D01*
X96305576Y-145904965D01*
X96383185Y-145841405D01*
X96487761Y-145779725D01*
X96607244Y-145732202D01*
X96742508Y-145698567D01*
X96894426Y-145678552D01*
X97063872Y-145671889D01*
X97121890Y-145672287D01*
X97187398Y-145674335D01*
X97248693Y-145678704D01*
X97310097Y-145686035D01*
X97375932Y-145696969D01*
X97450520Y-145712147D01*
X97538184Y-145732209D01*
X97643245Y-145757797D01*
X97671806Y-145764820D01*
X97747054Y-145782776D01*
X97817388Y-145798820D01*
X97878567Y-145812028D01*
X97926354Y-145821474D01*
X97956511Y-145826231D01*
X97984783Y-145829910D01*
X98011060Y-145835187D01*
X98021059Y-145839942D01*
X98017952Y-145848781D01*
X98007194Y-145876072D01*
X97989864Y-145918906D01*
X97967126Y-145974425D01*
X97940147Y-146039772D01*
X97910090Y-146112089D01*
X97903493Y-146127879D01*
X97864907Y-146218484D01*
X97833768Y-146288217D01*
X97809917Y-146337405D01*
X97793198Y-146366374D01*
X97783454Y-146375452D01*
X97775766Y-146373405D01*
X97749415Y-146363760D01*
X97710982Y-146348190D01*
X97665822Y-146328815D01*
X97571293Y-146290814D01*
X97434480Y-146249780D01*
X97293289Y-146224612D01*
X97255314Y-146220611D01*
X97152059Y-146218447D01*
X97064952Y-146231622D01*
X96993129Y-146260756D01*
X96935731Y-146306466D01*
X96891896Y-146369372D01*
X96860762Y-146450092D01*
X96841470Y-146549245D01*
X96834050Y-146608224D01*
X96995936Y-146601445D01*
X97122495Y-146599813D01*
X97273951Y-146606194D01*
X97422396Y-146620777D01*
X97558578Y-146642882D01*
X97623245Y-146657821D01*
X97755490Y-146700741D01*
X97877762Y-146757340D01*
X97987685Y-146826017D01*
X98082883Y-146905170D01*
X98160980Y-146993196D01*
X98219599Y-147088493D01*
X98243595Y-147140864D01*
X98269232Y-147211590D01*
X98285478Y-147282812D01*
X98293822Y-147361712D01*
X98295690Y-147452282D01*
X98295755Y-147455467D01*
G36*
X98295755Y-147455467D02*
G01*
X98295261Y-147489363D01*
X98291632Y-147564202D01*
X98284022Y-147626401D01*
X98271688Y-147682984D01*
X98227313Y-147809076D01*
X98164400Y-147923679D01*
X98084238Y-148024568D01*
X97987740Y-148110924D01*
X97875822Y-148181932D01*
X97749397Y-148236776D01*
X97609378Y-148274638D01*
X97573149Y-148280351D01*
X97494155Y-148286313D01*
X97405841Y-148286646D01*
X97316075Y-148281659D01*
X97232722Y-148271666D01*
X97163651Y-148256978D01*
X97077187Y-148226749D01*
X96967286Y-148172057D01*
X96869956Y-148104543D01*
X96807867Y-148053556D01*
X96804605Y-148149622D01*
X96801343Y-148245689D01*
X96378450Y-148245689D01*
X96367543Y-148245686D01*
X96273056Y-148245380D01*
X96186331Y-148244616D01*
X96109837Y-148243451D01*
X96046043Y-148241942D01*
X95997418Y-148240147D01*
X95966433Y-148238121D01*
X95955556Y-148235922D01*
X95955578Y-148235463D01*
X95962614Y-148219910D01*
X95978434Y-148197071D01*
X95982734Y-148191638D01*
X95993777Y-148177606D01*
X96003311Y-148164186D01*
X96011461Y-148149722D01*
X96018352Y-148132556D01*
X96024111Y-148111034D01*
X96028862Y-148083498D01*
X96032731Y-148048292D01*
X96035844Y-148003760D01*
X96038325Y-147948246D01*
X96040300Y-147880093D01*
X96041894Y-147797645D01*
X96043234Y-147699246D01*
X96044444Y-147583239D01*
X96044896Y-147532462D01*
X96847378Y-147532462D01*
X96892048Y-147588973D01*
X96904785Y-147604212D01*
X96951604Y-147646844D01*
X97012255Y-147682672D01*
X97022897Y-147687850D01*
X97061676Y-147704745D01*
X97096692Y-147714909D01*
X97136722Y-147720325D01*
X97190541Y-147722978D01*
X97208648Y-147723383D01*
X97284011Y-147720540D01*
X97344743Y-147708620D01*
X97396452Y-147686037D01*
X97444746Y-147651211D01*
X97449803Y-147646798D01*
X97498272Y-147591160D01*
X97526459Y-147527333D01*
X97535752Y-147452282D01*
X97528520Y-147380693D01*
X97503796Y-147317645D01*
X97459249Y-147259758D01*
X97404319Y-147212808D01*
X97331894Y-147172961D01*
X97245340Y-147145263D01*
X97142670Y-147129096D01*
X97021894Y-147123842D01*
X97013007Y-147123857D01*
X96957660Y-147124655D01*
X96910736Y-147126488D01*
X96876953Y-147129111D01*
X96861028Y-147132274D01*
X96856943Y-147138741D01*
X96852572Y-147160875D01*
X96849604Y-147199988D01*
X96847914Y-147257939D01*
X96847378Y-147336586D01*
X96847378Y-147532462D01*
X96044896Y-147532462D01*
X96045649Y-147447968D01*
X96046975Y-147291778D01*
X96048228Y-147149012D01*
X96049651Y-147003942D01*
X96051176Y-146878027D01*
X96052933Y-146769436D01*
X96055051Y-146676334D01*
X96057660Y-146596891D01*
X96060890Y-146529273D01*
X96064869Y-146471649D01*
X96069728Y-146422185D01*
X96075597Y-146379050D01*
X96082604Y-146340410D01*
X96090880Y-146304434D01*
X96100554Y-146269289D01*
X96111756Y-146233142D01*
X96124616Y-146194161D01*
X96140090Y-146151091D01*
X96182994Y-146058871D01*
X96236735Y-145979099D01*
X96305576Y-145904965D01*
X96383185Y-145841405D01*
X96487761Y-145779725D01*
X96607244Y-145732202D01*
X96742508Y-145698567D01*
X96894426Y-145678552D01*
X97063872Y-145671889D01*
X97121890Y-145672287D01*
X97187398Y-145674335D01*
X97248693Y-145678704D01*
X97310097Y-145686035D01*
X97375932Y-145696969D01*
X97450520Y-145712147D01*
X97538184Y-145732209D01*
X97643245Y-145757797D01*
X97671806Y-145764820D01*
X97747054Y-145782776D01*
X97817388Y-145798820D01*
X97878567Y-145812028D01*
X97926354Y-145821474D01*
X97956511Y-145826231D01*
X97984783Y-145829910D01*
X98011060Y-145835187D01*
X98021059Y-145839942D01*
X98017952Y-145848781D01*
X98007194Y-145876072D01*
X97989864Y-145918906D01*
X97967126Y-145974425D01*
X97940147Y-146039772D01*
X97910090Y-146112089D01*
X97903493Y-146127879D01*
X97864907Y-146218484D01*
X97833768Y-146288217D01*
X97809917Y-146337405D01*
X97793198Y-146366374D01*
X97783454Y-146375452D01*
X97775766Y-146373405D01*
X97749415Y-146363760D01*
X97710982Y-146348190D01*
X97665822Y-146328815D01*
X97571293Y-146290814D01*
X97434480Y-146249780D01*
X97293289Y-146224612D01*
X97255314Y-146220611D01*
X97152059Y-146218447D01*
X97064952Y-146231622D01*
X96993129Y-146260756D01*
X96935731Y-146306466D01*
X96891896Y-146369372D01*
X96860762Y-146450092D01*
X96841470Y-146549245D01*
X96834050Y-146608224D01*
X96995936Y-146601445D01*
X97122495Y-146599813D01*
X97273951Y-146606194D01*
X97422396Y-146620777D01*
X97558578Y-146642882D01*
X97623245Y-146657821D01*
X97755490Y-146700741D01*
X97877762Y-146757340D01*
X97987685Y-146826017D01*
X98082883Y-146905170D01*
X98160980Y-146993196D01*
X98219599Y-147088493D01*
X98243595Y-147140864D01*
X98269232Y-147211590D01*
X98285478Y-147282812D01*
X98293822Y-147361712D01*
X98295690Y-147452282D01*
X98295755Y-147455467D01*
G37*
X95753994Y-147054711D02*
X95753268Y-147132158D01*
X95744689Y-147283594D01*
X95725833Y-147420283D01*
X95695837Y-147546276D01*
X95653836Y-147665625D01*
X95598969Y-147782381D01*
X95532167Y-147893179D01*
X95441363Y-148006739D01*
X95337708Y-148102211D01*
X95221887Y-148179073D01*
X95094586Y-148236797D01*
X94956489Y-148274858D01*
X94918793Y-148280666D01*
X94839752Y-148286396D01*
X94751629Y-148286583D01*
X94662236Y-148281539D01*
X94579384Y-148271578D01*
X94510887Y-148257012D01*
X94480035Y-148247364D01*
X94402730Y-148217123D01*
X94325679Y-148179617D01*
X94256200Y-148138614D01*
X94201615Y-148097879D01*
X94178916Y-148078505D01*
X94156201Y-148060662D01*
X94144779Y-148053778D01*
X94143537Y-148055424D01*
X94140728Y-148073205D01*
X94138776Y-148106370D01*
X94138045Y-148149733D01*
X94138045Y-148245689D01*
X93279896Y-148245689D01*
X93314161Y-148184974D01*
X93319355Y-148175868D01*
X93327715Y-148161249D01*
X93335288Y-148147173D01*
X93342112Y-148132540D01*
X93348227Y-148116249D01*
X93353673Y-148097198D01*
X93358487Y-148074286D01*
X93362708Y-148046413D01*
X93366377Y-148012478D01*
X93369531Y-147971379D01*
X93372211Y-147922015D01*
X93374454Y-147863286D01*
X93376299Y-147794090D01*
X93377787Y-147713326D01*
X93378955Y-147619894D01*
X93379678Y-147532721D01*
X94183200Y-147532721D01*
X94253756Y-147579089D01*
X94294417Y-147602791D01*
X94348546Y-147628639D01*
X94397689Y-147646829D01*
X94461165Y-147662551D01*
X94557331Y-147673541D01*
X94641900Y-147665365D01*
X94715219Y-147637805D01*
X94777637Y-147590642D01*
X94829502Y-147523658D01*
X94871160Y-147436633D01*
X94902962Y-147329350D01*
X94905545Y-147317009D01*
X94914000Y-147255772D01*
X94919663Y-147178692D01*
X94922576Y-147091002D01*
X94922783Y-146997934D01*
X94920330Y-146904720D01*
X94915261Y-146816594D01*
X94907619Y-146738788D01*
X94897448Y-146676533D01*
X94896167Y-146670666D01*
X94867126Y-146560121D01*
X94832610Y-146469575D01*
X94791456Y-146396953D01*
X94742499Y-146340181D01*
X94684574Y-146297184D01*
X94652620Y-146281615D01*
X94579784Y-146262722D01*
X94498443Y-146259465D01*
X94413319Y-146271389D01*
X94329133Y-146298040D01*
X94250608Y-146338962D01*
X94183200Y-146382530D01*
X94183200Y-147532721D01*
X93379678Y-147532721D01*
X93379844Y-147512692D01*
X93380491Y-147390620D01*
X93380936Y-147252576D01*
X93381218Y-147097459D01*
X93381375Y-146924168D01*
X93381448Y-146731603D01*
X93381474Y-146518662D01*
X93381493Y-146284245D01*
X93381689Y-144599378D01*
X94287017Y-144599378D01*
X94262585Y-144636067D01*
X94256318Y-144645647D01*
X94230208Y-144691981D01*
X94212469Y-144739102D01*
X94200908Y-144794251D01*
X94193331Y-144864667D01*
X94192839Y-144871650D01*
X94191062Y-144909641D01*
X94189444Y-144963576D01*
X94187999Y-145030703D01*
X94186740Y-145108271D01*
X94185680Y-145193528D01*
X94184829Y-145283724D01*
X94184203Y-145376107D01*
X94183812Y-145467925D01*
X94183670Y-145556427D01*
X94183790Y-145638862D01*
X94184183Y-145712479D01*
X94184862Y-145774526D01*
X94185841Y-145822251D01*
X94187132Y-145852904D01*
X94188747Y-145863733D01*
X94196957Y-145859333D01*
X94218647Y-145844362D01*
X94248014Y-145822448D01*
X94296879Y-145788236D01*
X94385125Y-145741714D01*
X94483916Y-145708046D01*
X94596510Y-145686231D01*
X94726164Y-145675265D01*
X94818670Y-145674219D01*
X94940011Y-145684014D01*
X95050099Y-145708174D01*
X95153389Y-145747785D01*
X95254338Y-145803932D01*
X95299503Y-145834883D01*
X95404911Y-145926115D01*
X95496538Y-146035106D01*
X95574332Y-146161726D01*
X95638241Y-146305845D01*
X95688214Y-146467332D01*
X95724198Y-146646059D01*
X95746143Y-146841895D01*
X95751900Y-146997934D01*
X95753994Y-147054711D01*
G36*
X95753994Y-147054711D02*
G01*
X95753268Y-147132158D01*
X95744689Y-147283594D01*
X95725833Y-147420283D01*
X95695837Y-147546276D01*
X95653836Y-147665625D01*
X95598969Y-147782381D01*
X95532167Y-147893179D01*
X95441363Y-148006739D01*
X95337708Y-148102211D01*
X95221887Y-148179073D01*
X95094586Y-148236797D01*
X94956489Y-148274858D01*
X94918793Y-148280666D01*
X94839752Y-148286396D01*
X94751629Y-148286583D01*
X94662236Y-148281539D01*
X94579384Y-148271578D01*
X94510887Y-148257012D01*
X94480035Y-148247364D01*
X94402730Y-148217123D01*
X94325679Y-148179617D01*
X94256200Y-148138614D01*
X94201615Y-148097879D01*
X94178916Y-148078505D01*
X94156201Y-148060662D01*
X94144779Y-148053778D01*
X94143537Y-148055424D01*
X94140728Y-148073205D01*
X94138776Y-148106370D01*
X94138045Y-148149733D01*
X94138045Y-148245689D01*
X93279896Y-148245689D01*
X93314161Y-148184974D01*
X93319355Y-148175868D01*
X93327715Y-148161249D01*
X93335288Y-148147173D01*
X93342112Y-148132540D01*
X93348227Y-148116249D01*
X93353673Y-148097198D01*
X93358487Y-148074286D01*
X93362708Y-148046413D01*
X93366377Y-148012478D01*
X93369531Y-147971379D01*
X93372211Y-147922015D01*
X93374454Y-147863286D01*
X93376299Y-147794090D01*
X93377787Y-147713326D01*
X93378955Y-147619894D01*
X93379678Y-147532721D01*
X94183200Y-147532721D01*
X94253756Y-147579089D01*
X94294417Y-147602791D01*
X94348546Y-147628639D01*
X94397689Y-147646829D01*
X94461165Y-147662551D01*
X94557331Y-147673541D01*
X94641900Y-147665365D01*
X94715219Y-147637805D01*
X94777637Y-147590642D01*
X94829502Y-147523658D01*
X94871160Y-147436633D01*
X94902962Y-147329350D01*
X94905545Y-147317009D01*
X94914000Y-147255772D01*
X94919663Y-147178692D01*
X94922576Y-147091002D01*
X94922783Y-146997934D01*
X94920330Y-146904720D01*
X94915261Y-146816594D01*
X94907619Y-146738788D01*
X94897448Y-146676533D01*
X94896167Y-146670666D01*
X94867126Y-146560121D01*
X94832610Y-146469575D01*
X94791456Y-146396953D01*
X94742499Y-146340181D01*
X94684574Y-146297184D01*
X94652620Y-146281615D01*
X94579784Y-146262722D01*
X94498443Y-146259465D01*
X94413319Y-146271389D01*
X94329133Y-146298040D01*
X94250608Y-146338962D01*
X94183200Y-146382530D01*
X94183200Y-147532721D01*
X93379678Y-147532721D01*
X93379844Y-147512692D01*
X93380491Y-147390620D01*
X93380936Y-147252576D01*
X93381218Y-147097459D01*
X93381375Y-146924168D01*
X93381448Y-146731603D01*
X93381474Y-146518662D01*
X93381493Y-146284245D01*
X93381689Y-144599378D01*
X94287017Y-144599378D01*
X94262585Y-144636067D01*
X94256318Y-144645647D01*
X94230208Y-144691981D01*
X94212469Y-144739102D01*
X94200908Y-144794251D01*
X94193331Y-144864667D01*
X94192839Y-144871650D01*
X94191062Y-144909641D01*
X94189444Y-144963576D01*
X94187999Y-145030703D01*
X94186740Y-145108271D01*
X94185680Y-145193528D01*
X94184829Y-145283724D01*
X94184203Y-145376107D01*
X94183812Y-145467925D01*
X94183670Y-145556427D01*
X94183790Y-145638862D01*
X94184183Y-145712479D01*
X94184862Y-145774526D01*
X94185841Y-145822251D01*
X94187132Y-145852904D01*
X94188747Y-145863733D01*
X94196957Y-145859333D01*
X94218647Y-145844362D01*
X94248014Y-145822448D01*
X94296879Y-145788236D01*
X94385125Y-145741714D01*
X94483916Y-145708046D01*
X94596510Y-145686231D01*
X94726164Y-145675265D01*
X94818670Y-145674219D01*
X94940011Y-145684014D01*
X95050099Y-145708174D01*
X95153389Y-145747785D01*
X95254338Y-145803932D01*
X95299503Y-145834883D01*
X95404911Y-145926115D01*
X95496538Y-146035106D01*
X95574332Y-146161726D01*
X95638241Y-146305845D01*
X95688214Y-146467332D01*
X95724198Y-146646059D01*
X95746143Y-146841895D01*
X95751900Y-146997934D01*
X95753994Y-147054711D01*
G37*
D11*
X100584000Y-125694000D02*
X99784000Y-125694000D01*
X100584000Y-128814000D02*
X98784000Y-128814000D01*
X100584000Y-128814000D02*
X101384000Y-128814000D01*
X100584000Y-125694000D02*
X101384000Y-125694000D01*
X131314879Y-145160000D02*
X131650121Y-145160000D01*
X131314879Y-144400000D02*
X131650121Y-144400000D01*
X103120879Y-144906000D02*
X103456121Y-144906000D01*
X103120879Y-144146000D02*
X103456121Y-144146000D01*
X131444000Y-135557879D02*
X131444000Y-135893121D01*
X130684000Y-135557879D02*
X130684000Y-135893121D01*
X103382500Y-135722379D02*
X103382500Y-136057621D01*
X102622500Y-135722379D02*
X102622500Y-136057621D01*
D12*
X99984000Y-132768000D02*
X101184000Y-132768000D01*
X101184000Y-132768000D02*
X101184000Y-129868000D01*
X101184000Y-129868000D02*
X99984000Y-129868000D01*
X99984000Y-129868000D02*
X99984000Y-132768000D01*
X98734000Y-132818000D02*
X99634000Y-132818000D01*
D11*
X104396000Y-131363767D02*
X104396000Y-131071233D01*
X103376000Y-131363767D02*
X103376000Y-131071233D01*
X104396000Y-127299767D02*
X104396000Y-127007233D01*
X103376000Y-127299767D02*
X103376000Y-127007233D01*
X97792000Y-127299767D02*
X97792000Y-127007233D01*
X96772000Y-127299767D02*
X96772000Y-127007233D01*
X97792000Y-132379767D02*
X97792000Y-132087233D01*
X96772000Y-132379767D02*
X96772000Y-132087233D01*
%LPC*%
D13*
X154938200Y-138425000D03*
D14*
X154938200Y-135885000D03*
X154938200Y-133345000D03*
X154938200Y-130805000D03*
X154938200Y-128265000D03*
X154938200Y-125725000D03*
X154938200Y-123185000D03*
X154938200Y-120645000D03*
X154938200Y-118105000D03*
X154938200Y-115565000D03*
X154938200Y-113025000D03*
X154938200Y-110485000D03*
X154938200Y-107945000D03*
X154938200Y-105405000D03*
X154938200Y-102865000D03*
D13*
X157480000Y-138399600D03*
D14*
X157480000Y-135859600D03*
X157480000Y-133319600D03*
X157480000Y-130779600D03*
X157480000Y-128239600D03*
X157480000Y-125699600D03*
X157480000Y-123159600D03*
X157480000Y-120619600D03*
X157480000Y-118079600D03*
X157480000Y-115539600D03*
X157480000Y-112999600D03*
X157480000Y-110459600D03*
X157480000Y-107919600D03*
X157480000Y-105379600D03*
X157480000Y-102839600D03*
D15*
X99446500Y-128204000D03*
X99446500Y-127254000D03*
X99446500Y-126304000D03*
X101721500Y-126304000D03*
X101721500Y-128204000D03*
D16*
X111760000Y-111506000D03*
D17*
X119380000Y-111506000D03*
D16*
X139700000Y-111506000D03*
D17*
X132080000Y-111506000D03*
X137160000Y-127508000D03*
D16*
X144780000Y-127508000D03*
D17*
X109220000Y-127762000D03*
D16*
X116840000Y-127762000D03*
D18*
X130885000Y-144780000D03*
X132080000Y-144780000D03*
X102691000Y-144526000D03*
X103886000Y-144526000D03*
D19*
X131064000Y-136323000D03*
X131064000Y-135128000D03*
X103002500Y-136487500D03*
X103002500Y-135292500D03*
D14*
X94234000Y-102870000D03*
X94234000Y-105410000D03*
X94234000Y-107950000D03*
X94234000Y-110490000D03*
X94234000Y-113030000D03*
X94234000Y-115570000D03*
X94234000Y-118110000D03*
X94234000Y-120650000D03*
X94234000Y-123190000D03*
X94234000Y-125730000D03*
X94234000Y-128270000D03*
X94234000Y-130810000D03*
X94234000Y-133350000D03*
X94234000Y-135890000D03*
D13*
X94234000Y-138430000D03*
D14*
X91694000Y-102870000D03*
X91694000Y-105410000D03*
X91694000Y-107950000D03*
X91694000Y-110490000D03*
X91694000Y-113030000D03*
X91694000Y-115570000D03*
X91694000Y-118110000D03*
X91694000Y-120650000D03*
X91694000Y-123190000D03*
X91694000Y-125730000D03*
X91694000Y-128270000D03*
X91694000Y-130810000D03*
X91694000Y-133350000D03*
X91694000Y-135890000D03*
D13*
X91694000Y-138430000D03*
D20*
X111760000Y-103886000D03*
D21*
X116840000Y-98806000D03*
X106680000Y-98806000D03*
D20*
X109220000Y-103886000D03*
X139700000Y-104140000D03*
D21*
X144780000Y-99060000D03*
X134620000Y-99060000D03*
D20*
X137160000Y-104140000D03*
X147320000Y-139700000D03*
D21*
X149860000Y-144780000D03*
X139700000Y-144780000D03*
D20*
X144780000Y-139700000D03*
X116840000Y-139700000D03*
D21*
X111760000Y-144780000D03*
X121920000Y-144780000D03*
D20*
X119380000Y-139700000D03*
D22*
X99184000Y-132268000D03*
X99184000Y-131318000D03*
X99184000Y-130368000D03*
X101984000Y-130368000D03*
X101984000Y-132268000D03*
D23*
X103886000Y-132080000D03*
X103886000Y-130355000D03*
X103886000Y-128016000D03*
X103886000Y-126291000D03*
D24*
X144860000Y-133604000D03*
X139860000Y-133604000D03*
X111920000Y-133604000D03*
X116920000Y-133604000D03*
D23*
X97282000Y-128016000D03*
X97282000Y-126291000D03*
X97282000Y-133096000D03*
X97282000Y-131371000D03*
%LPD*%
M02*
