M48
; DRILL file {KiCad 7.0.7} date Sat Nov 11 11:48:02 2023
; FORMAT={-:-/ absolute / metric / decimal}
; #@! TF.CreationDate,2023-11-11T11:48:02+00:00
; #@! TF.GenerationSoftware,Kicad,Pcbnew,7.0.7
; #@! TF.FileFunction,Plated,1,4,PTH
FMAT,2
METRIC
; #@! TA.AperFunction,Plated,PTH,ViaDrill
T1C0.300
; #@! TA.AperFunction,Plated,PTH,ComponentDrill
T2C0.800
; #@! TA.AperFunction,Plated,PTH,ComponentDrill
T3C0.890
; #@! TA.AperFunction,Plated,PTH,ComponentDrill
T4C1.000
; #@! TA.AperFunction,Plated,PTH,ComponentDrill
T5C2.010
%
G90
G05
T1
X176.53Y-80.01
X176.53Y-82.55
X176.53Y-85.09
X176.53Y-87.63
X176.53Y-90.17
X176.53Y-92.71
X177.8Y-81.28
X177.8Y-83.82
X177.8Y-134.62
X179.07Y-80.01
X179.07Y-82.55
X179.07Y-85.09
X179.07Y-88.9
X179.07Y-91.44
X179.07Y-135.89
X180.34Y-81.28
X180.34Y-83.82
X180.34Y-134.62
X181.61Y-135.89
X182.88Y-127.0
X182.88Y-134.62
X184.15Y-135.89
X185.42Y-114.3
X185.42Y-116.84
X185.42Y-129.54
X185.42Y-134.62
X186.69Y-113.03
X186.69Y-115.57
X186.69Y-128.27
X186.69Y-129.54
X186.69Y-135.89
X187.96Y-127.0
X187.96Y-128.27
X187.96Y-134.62
X189.23Y-135.89
X190.5Y-90.17
X190.5Y-134.62
X191.77Y-88.9
X191.77Y-95.25
X191.77Y-97.79
X191.77Y-100.33
X191.77Y-115.062
X191.77Y-119.888
X191.77Y-135.89
X193.04Y-87.63
X193.04Y-93.98
X193.04Y-96.52
X193.04Y-99.06
X193.04Y-101.6
X193.04Y-134.62
X194.31Y-86.36
X194.31Y-92.71
X194.31Y-95.25
X194.31Y-97.79
X194.31Y-100.33
X194.31Y-135.89
X194.818Y-115.951
X195.58Y-85.09
X195.58Y-91.44
X195.58Y-93.98
X195.58Y-96.52
X195.58Y-99.06
X195.707Y-108.712
X195.834Y-115.062
X195.834Y-119.888
X196.85Y-83.82
X196.85Y-90.17
X196.85Y-92.71
X196.85Y-95.25
X196.85Y-97.79
X196.85Y-104.14
X196.85Y-135.89
X197.993Y-108.712
X198.12Y-82.55
X198.12Y-88.9
X198.12Y-91.44
X198.12Y-93.98
X198.12Y-96.52
X198.12Y-102.87
X198.12Y-105.41
X199.39Y-87.63
X199.39Y-90.17
X199.39Y-92.71
X199.39Y-95.25
X199.39Y-135.89
X199.517Y-118.745
X200.66Y-82.55
X200.66Y-108.712
X200.889Y-112.893
X200.914Y-114.569
X200.914Y-115.839
X200.914Y-117.109
X200.914Y-121.554
X200.914Y-122.824
X200.914Y-127.269
X200.914Y-128.539
X200.914Y-129.809
X200.914Y-131.079
X200.939Y-85.867
X200.939Y-85.867
X200.965Y-87.544
X200.965Y-87.544
X200.965Y-88.814
X200.965Y-88.814
X200.965Y-90.084
X200.965Y-90.084
X200.965Y-94.529
X200.965Y-94.529
X200.965Y-95.799
X200.965Y-95.799
X200.965Y-100.244
X200.965Y-100.244
X200.965Y-101.514
X200.965Y-101.514
X200.965Y-102.784
X200.965Y-102.784
X200.965Y-104.054
X200.965Y-104.054
X201.58Y-109.886
X201.93Y-78.74
X201.93Y-135.89
X202.159Y-112.893
X202.184Y-131.079
X202.209Y-85.867
X202.209Y-85.867
X202.235Y-104.054
X202.235Y-104.054
X202.565Y-110.871
X203.2Y-77.47
X203.2Y-82.55
X203.2Y-87.63
X203.2Y-90.17
X203.2Y-92.71
X203.2Y-95.25
X203.2Y-99.695
X203.2Y-102.235
X203.2Y-114.3
X203.2Y-116.84
X203.327Y-129.794
X203.429Y-112.893
X203.454Y-131.079
X203.479Y-85.867
X203.479Y-85.867
X203.505Y-104.054
X203.505Y-104.054
X203.835Y-88.9
X203.835Y-91.44
X203.835Y-93.98
X203.835Y-96.52
X203.835Y-100.965
X203.835Y-109.728
X203.835Y-115.57
X203.835Y-118.11
X203.835Y-120.65
X203.835Y-123.19
X204.47Y-78.74
X204.47Y-135.89
X204.699Y-112.893
X204.724Y-131.079
X204.749Y-85.867
X204.749Y-85.867
X204.775Y-104.054
X204.775Y-104.054
X205.105Y-87.63
X205.105Y-90.17
X205.105Y-92.71
X205.105Y-95.25
X205.105Y-99.695
X205.105Y-102.235
X205.105Y-114.3
X205.105Y-125.73
X205.232Y-129.794
X205.74Y-77.47
X205.74Y-82.55
X205.74Y-88.9
X205.74Y-91.44
X205.74Y-93.98
X205.74Y-121.92
X205.74Y-127.0
X205.756Y-107.737
X205.962Y-109.601
X207.01Y-78.74
X207.01Y-87.63
X207.01Y-99.695
X207.01Y-102.235
X207.01Y-125.73
X207.01Y-135.89
X207.026Y-93.193
X207.026Y-93.193
X207.137Y-129.794
X207.162Y-119.99
X207.645Y-88.9
X207.645Y-100.965
X207.645Y-127.0
X208.28Y-77.47
X208.534Y-108.712
X208.788Y-94.742
X208.788Y-121.539
X208.915Y-87.63
X208.915Y-99.695
X208.915Y-102.235
X208.915Y-125.73
X209.042Y-129.794
X209.144Y-112.893
X209.169Y-131.079
X209.194Y-85.867
X209.194Y-85.867
X209.22Y-104.054
X209.22Y-104.054
X209.55Y-76.2
X209.55Y-78.74
X209.55Y-88.9
X209.55Y-115.57
X209.55Y-127.0
X209.55Y-135.89
X210.312Y-125.349
X210.414Y-112.893
X210.439Y-131.079
X210.464Y-85.867
X210.464Y-85.867
X210.49Y-104.054
X210.49Y-104.054
X210.566Y-98.171
X210.76Y-120.955
X210.81Y-93.929
X210.81Y-93.929
X210.82Y-74.93
X210.82Y-77.47
X210.82Y-82.55
X210.82Y-87.63
X210.82Y-102.235
X210.82Y-114.3
X210.82Y-129.794
X211.455Y-88.9
X211.455Y-100.965
X211.455Y-115.57
X212.03Y-126.035
X212.08Y-99.009
X212.08Y-99.009
X212.09Y-73.66
X212.09Y-76.2
X212.09Y-135.89
X212.725Y-82.55
X212.725Y-87.63
X212.725Y-102.235
X212.725Y-114.3
X212.725Y-129.794
X213.36Y-72.39
X213.36Y-74.93
X213.36Y-88.9
X213.36Y-100.965
X213.36Y-115.57
X213.554Y-120.193
X213.604Y-93.167
X213.604Y-93.167
X213.808Y-126.797
X213.858Y-99.771
X213.858Y-99.771
X214.57Y-122.987
X214.62Y-95.961
X214.62Y-95.961
X214.63Y-71.12
X214.63Y-73.66
X214.63Y-78.74
X214.63Y-82.55
X214.63Y-87.63
X214.63Y-114.3
X214.63Y-129.794
X214.63Y-135.89
X214.859Y-112.893
X214.884Y-131.079
X214.909Y-85.867
X214.909Y-85.867
X214.935Y-104.054
X214.935Y-104.054
X215.265Y-88.9
X215.265Y-100.965
X215.265Y-115.57
X215.265Y-119.126
X215.9Y-72.39
X215.9Y-77.47
X215.9Y-109.22
X216.129Y-112.893
X216.154Y-93.345
X216.154Y-122.301
X216.154Y-131.079
X216.179Y-85.867
X216.179Y-85.867
X216.205Y-104.054
X216.205Y-104.054
X216.281Y-95.25
X216.535Y-78.74
X216.535Y-82.55
X216.535Y-87.63
X216.535Y-102.235
X216.535Y-114.3
X216.535Y-129.794
X217.17Y-71.12
X217.17Y-76.2
X217.17Y-88.9
X217.17Y-100.965
X217.17Y-115.57
X217.17Y-135.89
X217.805Y-77.47
X218.44Y-78.74
X218.44Y-82.55
X218.44Y-87.63
X218.44Y-102.235
X218.44Y-109.22
X218.44Y-114.3
X218.44Y-134.62
X218.567Y-122.809
X219.075Y-76.2
X219.075Y-88.9
X219.075Y-100.965
X219.075Y-115.57
X219.075Y-128.27
X219.142Y-120.193
X219.192Y-93.167
X219.192Y-93.167
X219.329Y-94.107
X219.71Y-77.47
X219.71Y-125.73
X219.71Y-133.35
X219.71Y-135.89
X220.158Y-122.733
X220.208Y-95.707
X220.208Y-95.707
X220.345Y-78.74
X220.345Y-82.55
X220.345Y-87.63
X220.345Y-99.695
X220.345Y-114.3
X220.345Y-124.46
X220.345Y-127.0
X220.345Y-129.794
X220.574Y-112.893
X220.599Y-131.079
X220.624Y-85.867
X220.624Y-85.867
X220.65Y-104.054
X220.65Y-104.054
X220.98Y-76.2
X220.98Y-88.9
X220.98Y-109.22
X220.98Y-115.57
X220.98Y-134.62
X221.615Y-77.47
X221.844Y-112.893
X221.869Y-131.079
X221.894Y-85.867
X221.894Y-85.867
X221.92Y-104.054
X221.92Y-104.054
X222.25Y-78.74
X222.25Y-82.55
X222.25Y-87.63
X222.25Y-102.235
X222.25Y-114.3
X222.25Y-129.794
X222.25Y-133.35
X222.25Y-135.89
X222.444Y-125.781
X222.494Y-98.755
X222.494Y-98.755
X222.885Y-76.2
X222.885Y-88.9
X222.885Y-115.57
X222.885Y-128.905
X223.52Y-77.47
X223.52Y-106.68
X223.52Y-109.22
X223.52Y-134.62
X224.155Y-78.74
X224.155Y-82.55
X224.155Y-87.63
X224.155Y-102.235
X224.155Y-114.3
X224.155Y-129.794
X224.476Y-123.495
X224.526Y-96.469
X224.526Y-96.469
X224.79Y-76.2
X224.79Y-88.9
X224.79Y-107.95
X224.79Y-115.57
X224.79Y-128.905
X224.79Y-133.35
X224.79Y-135.89
X224.917Y-125.222
X225.425Y-77.47
X225.425Y-121.92
X226.06Y-78.74
X226.06Y-82.55
X226.06Y-87.63
X226.06Y-94.615
X226.06Y-97.155
X226.06Y-99.695
X226.06Y-102.235
X226.06Y-106.68
X226.06Y-109.22
X226.06Y-114.3
X226.06Y-120.65
X226.06Y-129.794
X226.06Y-134.62
X226.508Y-120.193
X226.558Y-93.167
X226.558Y-93.167
X226.695Y-76.2
X226.695Y-88.9
X226.695Y-95.885
X226.695Y-98.425
X226.695Y-100.965
X226.695Y-115.57
X226.695Y-128.905
X226.924Y-112.893
X226.949Y-131.079
X226.974Y-85.867
X226.974Y-85.867
X227.0Y-104.054
X227.0Y-104.054
X227.33Y-77.47
X227.33Y-107.95
X227.33Y-123.19
X227.33Y-133.35
X227.33Y-135.89
X227.965Y-78.74
X227.965Y-82.55
X227.965Y-87.63
X227.965Y-94.615
X227.965Y-97.155
X227.965Y-99.695
X227.965Y-102.235
X227.965Y-114.3
X227.965Y-121.92
X227.965Y-124.46
X227.965Y-127.0
X227.965Y-129.794
X228.194Y-112.893
X228.219Y-131.079
X228.244Y-85.867
X228.244Y-85.867
X228.27Y-104.054
X228.27Y-104.054
X228.6Y-76.2
X228.6Y-93.345
X228.6Y-95.885
X228.6Y-98.425
X228.6Y-100.965
X228.6Y-106.68
X228.6Y-109.22
X228.6Y-120.65
X228.6Y-123.19
X228.6Y-125.73
X228.6Y-128.27
X228.6Y-128.905
X228.6Y-134.62
X229.235Y-77.47
X229.464Y-112.893
X229.489Y-131.079
X229.514Y-85.867
X229.514Y-85.867
X229.54Y-104.054
X229.54Y-104.054
X229.87Y-78.74
X229.87Y-82.55
X229.87Y-107.95
X229.87Y-133.35
X229.87Y-135.89
X230.124Y-113.934
X230.124Y-115.204
X230.124Y-116.474
X230.124Y-121.554
X230.124Y-122.824
X230.124Y-127.904
X230.124Y-129.174
X230.124Y-130.444
X230.175Y-86.909
X230.175Y-86.909
X230.175Y-88.179
X230.175Y-88.179
X230.175Y-89.449
X230.175Y-89.449
X230.175Y-94.529
X230.175Y-94.529
X230.175Y-95.799
X230.175Y-95.799
X230.175Y-100.879
X230.175Y-100.879
X230.175Y-102.149
X230.175Y-102.149
X230.175Y-103.419
X230.175Y-103.419
X230.505Y-76.2
X231.14Y-77.47
X231.14Y-106.68
X231.14Y-109.22
X231.14Y-134.62
X231.775Y-78.74
X231.775Y-82.55
X232.41Y-76.2
X232.41Y-107.95
X232.41Y-133.35
X232.41Y-135.89
X233.045Y-77.47
X233.68Y-78.74
X233.68Y-82.55
X233.68Y-101.6
X233.68Y-104.14
X233.68Y-106.68
X233.68Y-109.22
X233.68Y-129.54
X233.68Y-132.08
X233.68Y-134.62
X234.315Y-76.2
X234.95Y-77.47
X234.95Y-102.87
X234.95Y-105.41
X234.95Y-107.95
X234.95Y-128.27
X234.95Y-130.81
X234.95Y-133.35
X234.95Y-135.89
X235.585Y-82.55
X236.22Y-76.2
X236.22Y-101.6
X236.22Y-104.14
X236.22Y-106.68
X236.22Y-109.22
X236.22Y-129.54
X236.22Y-132.08
X236.22Y-134.62
X237.49Y-82.55
X237.49Y-102.87
X237.49Y-105.41
X237.49Y-107.95
X237.49Y-128.27
X237.49Y-130.81
X237.49Y-133.35
X237.49Y-135.89
X238.76Y-101.6
X238.76Y-104.14
X238.76Y-106.68
X238.76Y-109.22
X238.76Y-129.54
X238.76Y-132.08
X238.76Y-134.62
X239.395Y-82.55
X240.03Y-81.28
X240.03Y-90.17
X240.03Y-92.71
X240.03Y-102.87
X240.03Y-105.41
X240.03Y-107.95
X240.03Y-118.11
X240.03Y-120.65
X240.03Y-128.27
X240.03Y-130.81
X240.03Y-133.35
X241.3Y-80.01
X241.3Y-82.55
X241.3Y-91.44
X241.3Y-93.98
X241.3Y-101.6
X241.3Y-104.14
X241.3Y-106.68
X241.3Y-109.22
X241.3Y-116.84
X241.3Y-119.38
X241.3Y-129.54
X241.3Y-132.08
X241.3Y-134.62
X241.935Y-81.28
X242.57Y-90.17
X242.57Y-92.71
X242.57Y-102.87
X242.57Y-105.41
X242.57Y-107.95
X242.57Y-118.11
X242.57Y-120.65
X242.57Y-128.27
X242.57Y-130.81
X242.57Y-133.35
X243.205Y-80.01
X243.205Y-82.55
X243.84Y-77.47
X243.84Y-81.28
X243.84Y-91.44
X243.84Y-93.98
X243.84Y-101.6
X243.84Y-104.14
X243.84Y-106.68
X243.84Y-109.22
X243.84Y-116.84
X243.84Y-119.38
X243.84Y-129.54
X243.84Y-132.08
X243.84Y-134.62
X245.11Y-80.01
X245.11Y-82.55
X245.11Y-90.17
X245.11Y-92.71
X245.11Y-102.87
X245.11Y-105.41
X245.11Y-107.95
X245.11Y-118.11
X245.11Y-120.65
X245.11Y-128.27
X245.11Y-130.81
X245.11Y-133.35
X245.745Y-77.47
X246.38Y-76.2
X246.38Y-78.74
X246.38Y-81.28
X246.38Y-83.82
X246.38Y-86.36
X246.38Y-88.9
X246.38Y-91.44
X246.38Y-93.98
X246.38Y-96.52
X246.38Y-99.06
X246.38Y-101.6
X246.38Y-104.14
X246.38Y-106.68
X246.38Y-109.22
X246.38Y-111.76
X246.38Y-114.3
X246.38Y-116.84
X246.38Y-119.38
X246.38Y-129.54
X246.38Y-132.08
X246.38Y-134.62
X247.65Y-77.47
X247.65Y-80.01
X247.65Y-82.55
X247.65Y-85.09
X247.65Y-87.63
X247.65Y-90.17
X247.65Y-92.71
X247.65Y-95.25
X247.65Y-97.79
X247.65Y-100.33
X247.65Y-102.87
X247.65Y-105.41
X247.65Y-107.95
X247.65Y-110.49
X247.65Y-113.03
X247.65Y-115.57
X247.65Y-118.11
X247.65Y-120.65
X247.65Y-123.19
X247.65Y-125.73
X247.65Y-128.27
X247.65Y-130.81
X247.65Y-133.35
T2
X192.024Y-103.674
X192.024Y-111.294
X192.024Y-123.698
X192.024Y-131.318
T3
X180.34Y-76.2
X182.88Y-76.2
X236.22Y-116.332
X236.22Y-118.872
X236.271Y-89.306
X236.271Y-91.846
X238.76Y-76.2
X241.3Y-76.2
T4
X177.793Y-95.768
X177.793Y-98.308
X177.793Y-100.848
X177.793Y-103.388
X177.793Y-105.928
X177.793Y-108.468
X177.793Y-111.008
X177.793Y-113.548
X177.793Y-116.088
X177.793Y-118.628
X177.793Y-121.168
X177.793Y-123.708
X177.793Y-126.248
X177.793Y-128.788
X177.793Y-131.328
X180.34Y-95.758
X180.34Y-98.298
X180.34Y-100.838
X180.34Y-103.378
X180.34Y-105.918
X180.34Y-108.458
X180.34Y-110.998
X180.34Y-113.538
X180.34Y-116.078
X180.34Y-118.618
X180.34Y-121.158
X180.34Y-123.698
X180.34Y-126.238
X180.34Y-128.778
X180.34Y-131.318
X194.31Y-66.675
X194.31Y-69.215
X196.85Y-66.675
X196.85Y-69.215
X199.39Y-66.675
X199.39Y-69.215
X201.93Y-66.675
X201.93Y-69.215
X204.47Y-66.675
X204.47Y-69.215
X207.01Y-66.675
X207.01Y-69.215
X209.55Y-66.675
X209.55Y-69.215
X212.09Y-66.675
X212.09Y-69.215
X214.63Y-66.675
X214.63Y-69.215
X217.17Y-66.675
X217.17Y-69.215
X219.71Y-66.675
X219.71Y-69.215
X222.25Y-66.675
X222.25Y-69.215
X224.79Y-66.675
X224.79Y-69.215
X227.33Y-66.675
X227.33Y-69.215
X229.87Y-66.675
X229.87Y-69.215
T5
X177.8Y-71.12
X187.96Y-71.12
X236.22Y-71.12
X241.3Y-113.792
X241.3Y-123.952
X241.351Y-86.766
X241.351Y-96.926
X246.38Y-71.12
T0
M30
