%TF.GenerationSoftware,KiCad,Pcbnew,7.0.7*%
%TF.CreationDate,2023-10-29T13:56:51+00:00*%
%TF.ProjectId,AD3 Front End Amplifier,41443320-4672-46f6-9e74-20456e642041,rev?*%
%TF.SameCoordinates,Original*%
%TF.FileFunction,Drillmap*%
%TF.FilePolarity,Positive*%
%FSLAX45Y45*%
G04 Gerber Fmt 4.5, Leading zero omitted, Abs format (unit mm)*
G04 Created by KiCad (PCBNEW 7.0.7) date 2023-10-29 13:56:51*
%MOMM*%
%LPD*%
G01*
G04 APERTURE LIST*
%ADD10C,0.100000*%
%ADD11C,0.200000*%
G04 APERTURE END LIST*
D10*
X8930640Y-8902700D02*
X16170910Y-8902700D01*
X16170910Y-15443200D01*
X8930640Y-15443200D01*
X8930640Y-8902700D01*
D11*
X9186417Y-15759684D02*
X9186417Y-15559684D01*
X9186417Y-15559684D02*
X9234036Y-15559684D01*
X9234036Y-15559684D02*
X9262607Y-15569208D01*
X9262607Y-15569208D02*
X9281655Y-15588255D01*
X9281655Y-15588255D02*
X9291179Y-15607303D01*
X9291179Y-15607303D02*
X9300703Y-15645398D01*
X9300703Y-15645398D02*
X9300703Y-15673969D01*
X9300703Y-15673969D02*
X9291179Y-15712065D01*
X9291179Y-15712065D02*
X9281655Y-15731112D01*
X9281655Y-15731112D02*
X9262607Y-15750160D01*
X9262607Y-15750160D02*
X9234036Y-15759684D01*
X9234036Y-15759684D02*
X9186417Y-15759684D01*
X9386417Y-15759684D02*
X9386417Y-15626350D01*
X9386417Y-15664446D02*
X9395941Y-15645398D01*
X9395941Y-15645398D02*
X9405464Y-15635874D01*
X9405464Y-15635874D02*
X9424512Y-15626350D01*
X9424512Y-15626350D02*
X9443560Y-15626350D01*
X9510226Y-15759684D02*
X9510226Y-15626350D01*
X9510226Y-15559684D02*
X9500703Y-15569208D01*
X9500703Y-15569208D02*
X9510226Y-15578731D01*
X9510226Y-15578731D02*
X9519750Y-15569208D01*
X9519750Y-15569208D02*
X9510226Y-15559684D01*
X9510226Y-15559684D02*
X9510226Y-15578731D01*
X9634036Y-15759684D02*
X9614988Y-15750160D01*
X9614988Y-15750160D02*
X9605464Y-15731112D01*
X9605464Y-15731112D02*
X9605464Y-15559684D01*
X9738798Y-15759684D02*
X9719750Y-15750160D01*
X9719750Y-15750160D02*
X9710226Y-15731112D01*
X9710226Y-15731112D02*
X9710226Y-15559684D01*
X9967369Y-15759684D02*
X9967369Y-15559684D01*
X9967369Y-15559684D02*
X10034036Y-15702541D01*
X10034036Y-15702541D02*
X10100703Y-15559684D01*
X10100703Y-15559684D02*
X10100703Y-15759684D01*
X10281655Y-15759684D02*
X10281655Y-15654922D01*
X10281655Y-15654922D02*
X10272131Y-15635874D01*
X10272131Y-15635874D02*
X10253084Y-15626350D01*
X10253084Y-15626350D02*
X10214988Y-15626350D01*
X10214988Y-15626350D02*
X10195941Y-15635874D01*
X10281655Y-15750160D02*
X10262607Y-15759684D01*
X10262607Y-15759684D02*
X10214988Y-15759684D01*
X10214988Y-15759684D02*
X10195941Y-15750160D01*
X10195941Y-15750160D02*
X10186417Y-15731112D01*
X10186417Y-15731112D02*
X10186417Y-15712065D01*
X10186417Y-15712065D02*
X10195941Y-15693017D01*
X10195941Y-15693017D02*
X10214988Y-15683493D01*
X10214988Y-15683493D02*
X10262607Y-15683493D01*
X10262607Y-15683493D02*
X10281655Y-15673969D01*
X10376893Y-15626350D02*
X10376893Y-15826350D01*
X10376893Y-15635874D02*
X10395941Y-15626350D01*
X10395941Y-15626350D02*
X10434036Y-15626350D01*
X10434036Y-15626350D02*
X10453084Y-15635874D01*
X10453084Y-15635874D02*
X10462607Y-15645398D01*
X10462607Y-15645398D02*
X10472131Y-15664446D01*
X10472131Y-15664446D02*
X10472131Y-15721588D01*
X10472131Y-15721588D02*
X10462607Y-15740636D01*
X10462607Y-15740636D02*
X10453084Y-15750160D01*
X10453084Y-15750160D02*
X10434036Y-15759684D01*
X10434036Y-15759684D02*
X10395941Y-15759684D01*
X10395941Y-15759684D02*
X10376893Y-15750160D01*
X10557845Y-15740636D02*
X10567369Y-15750160D01*
X10567369Y-15750160D02*
X10557845Y-15759684D01*
X10557845Y-15759684D02*
X10548322Y-15750160D01*
X10548322Y-15750160D02*
X10557845Y-15740636D01*
X10557845Y-15740636D02*
X10557845Y-15759684D01*
X10557845Y-15635874D02*
X10567369Y-15645398D01*
X10567369Y-15645398D02*
X10557845Y-15654922D01*
X10557845Y-15654922D02*
X10548322Y-15645398D01*
X10548322Y-15645398D02*
X10557845Y-15635874D01*
X10557845Y-15635874D02*
X10557845Y-15654922D01*
M02*
