%TF.GenerationSoftware,KiCad,Pcbnew,7.0.7*%
%TF.CreationDate,2023-11-11T11:48:03+00:00*%
%TF.ProjectId,AD3 Front End Amplifier,41443320-4672-46f6-9e74-20456e642041,rev?*%
%TF.SameCoordinates,Original*%
%TF.FileFunction,Drillmap*%
%TF.FilePolarity,Positive*%
%FSLAX45Y45*%
G04 Gerber Fmt 4.5, Leading zero omitted, Abs format (unit mm)*
G04 Created by KiCad (PCBNEW 7.0.7) date 2023-11-11 11:48:03*
%MOMM*%
%LPD*%
G01*
G04 APERTURE LIST*
%ADD10C,0.100000*%
%ADD11C,0.200000*%
%ADD12C,0.030000*%
%ADD13C,0.080000*%
%ADD14C,0.089000*%
%ADD15C,0.201000*%
G04 APERTURE END LIST*
D10*
X17413000Y-6223000D02*
X25000000Y-6223000D01*
X25000000Y-13683000D01*
X17413000Y-13683000D01*
X17413000Y-6223000D01*
D11*
D12*
X17638000Y-7986000D02*
X17668000Y-8016000D01*
X17668000Y-7986000D02*
X17638000Y-8016000D01*
X17638000Y-8240000D02*
X17668000Y-8270000D01*
X17668000Y-8240000D02*
X17638000Y-8270000D01*
X17638000Y-8494000D02*
X17668000Y-8524000D01*
X17668000Y-8494000D02*
X17638000Y-8524000D01*
X17638000Y-8748000D02*
X17668000Y-8778000D01*
X17668000Y-8748000D02*
X17638000Y-8778000D01*
X17638000Y-9002000D02*
X17668000Y-9032000D01*
X17668000Y-9002000D02*
X17638000Y-9032000D01*
X17638000Y-9256000D02*
X17668000Y-9286000D01*
X17668000Y-9256000D02*
X17638000Y-9286000D01*
X17765000Y-8113000D02*
X17795000Y-8143000D01*
X17795000Y-8113000D02*
X17765000Y-8143000D01*
X17765000Y-8367000D02*
X17795000Y-8397000D01*
X17795000Y-8367000D02*
X17765000Y-8397000D01*
X17765000Y-13447000D02*
X17795000Y-13477000D01*
X17795000Y-13447000D02*
X17765000Y-13477000D01*
X17892000Y-7986000D02*
X17922000Y-8016000D01*
X17922000Y-7986000D02*
X17892000Y-8016000D01*
X17892000Y-8240000D02*
X17922000Y-8270000D01*
X17922000Y-8240000D02*
X17892000Y-8270000D01*
X17892000Y-8494000D02*
X17922000Y-8524000D01*
X17922000Y-8494000D02*
X17892000Y-8524000D01*
X17892000Y-8875000D02*
X17922000Y-8905000D01*
X17922000Y-8875000D02*
X17892000Y-8905000D01*
X17892000Y-9129000D02*
X17922000Y-9159000D01*
X17922000Y-9129000D02*
X17892000Y-9159000D01*
X17892000Y-13574000D02*
X17922000Y-13604000D01*
X17922000Y-13574000D02*
X17892000Y-13604000D01*
X18019000Y-8113000D02*
X18049000Y-8143000D01*
X18049000Y-8113000D02*
X18019000Y-8143000D01*
X18019000Y-8367000D02*
X18049000Y-8397000D01*
X18049000Y-8367000D02*
X18019000Y-8397000D01*
X18019000Y-13447000D02*
X18049000Y-13477000D01*
X18049000Y-13447000D02*
X18019000Y-13477000D01*
X18146000Y-13574000D02*
X18176000Y-13604000D01*
X18176000Y-13574000D02*
X18146000Y-13604000D01*
X18273000Y-12685000D02*
X18303000Y-12715000D01*
X18303000Y-12685000D02*
X18273000Y-12715000D01*
X18273000Y-13447000D02*
X18303000Y-13477000D01*
X18303000Y-13447000D02*
X18273000Y-13477000D01*
X18400000Y-13574000D02*
X18430000Y-13604000D01*
X18430000Y-13574000D02*
X18400000Y-13604000D01*
X18527000Y-11415000D02*
X18557000Y-11445000D01*
X18557000Y-11415000D02*
X18527000Y-11445000D01*
X18527000Y-11669000D02*
X18557000Y-11699000D01*
X18557000Y-11669000D02*
X18527000Y-11699000D01*
X18527000Y-12939000D02*
X18557000Y-12969000D01*
X18557000Y-12939000D02*
X18527000Y-12969000D01*
X18527000Y-13447000D02*
X18557000Y-13477000D01*
X18557000Y-13447000D02*
X18527000Y-13477000D01*
X18654000Y-11288000D02*
X18684000Y-11318000D01*
X18684000Y-11288000D02*
X18654000Y-11318000D01*
X18654000Y-11542000D02*
X18684000Y-11572000D01*
X18684000Y-11542000D02*
X18654000Y-11572000D01*
X18654000Y-12812000D02*
X18684000Y-12842000D01*
X18684000Y-12812000D02*
X18654000Y-12842000D01*
X18654000Y-12939000D02*
X18684000Y-12969000D01*
X18684000Y-12939000D02*
X18654000Y-12969000D01*
X18654000Y-13574000D02*
X18684000Y-13604000D01*
X18684000Y-13574000D02*
X18654000Y-13604000D01*
X18781000Y-12685000D02*
X18811000Y-12715000D01*
X18811000Y-12685000D02*
X18781000Y-12715000D01*
X18781000Y-12812000D02*
X18811000Y-12842000D01*
X18811000Y-12812000D02*
X18781000Y-12842000D01*
X18781000Y-13447000D02*
X18811000Y-13477000D01*
X18811000Y-13447000D02*
X18781000Y-13477000D01*
X18908000Y-13574000D02*
X18938000Y-13604000D01*
X18938000Y-13574000D02*
X18908000Y-13604000D01*
X19035000Y-9002000D02*
X19065000Y-9032000D01*
X19065000Y-9002000D02*
X19035000Y-9032000D01*
X19035000Y-13447000D02*
X19065000Y-13477000D01*
X19065000Y-13447000D02*
X19035000Y-13477000D01*
X19162000Y-8875000D02*
X19192000Y-8905000D01*
X19192000Y-8875000D02*
X19162000Y-8905000D01*
X19162000Y-9510000D02*
X19192000Y-9540000D01*
X19192000Y-9510000D02*
X19162000Y-9540000D01*
X19162000Y-9764000D02*
X19192000Y-9794000D01*
X19192000Y-9764000D02*
X19162000Y-9794000D01*
X19162000Y-10018000D02*
X19192000Y-10048000D01*
X19192000Y-10018000D02*
X19162000Y-10048000D01*
X19162000Y-11491200D02*
X19192000Y-11521200D01*
X19192000Y-11491200D02*
X19162000Y-11521200D01*
X19162000Y-11973800D02*
X19192000Y-12003800D01*
X19192000Y-11973800D02*
X19162000Y-12003800D01*
X19162000Y-13574000D02*
X19192000Y-13604000D01*
X19192000Y-13574000D02*
X19162000Y-13604000D01*
X19289000Y-8748000D02*
X19319000Y-8778000D01*
X19319000Y-8748000D02*
X19289000Y-8778000D01*
X19289000Y-9383000D02*
X19319000Y-9413000D01*
X19319000Y-9383000D02*
X19289000Y-9413000D01*
X19289000Y-9637000D02*
X19319000Y-9667000D01*
X19319000Y-9637000D02*
X19289000Y-9667000D01*
X19289000Y-9891000D02*
X19319000Y-9921000D01*
X19319000Y-9891000D02*
X19289000Y-9921000D01*
X19289000Y-10145000D02*
X19319000Y-10175000D01*
X19319000Y-10145000D02*
X19289000Y-10175000D01*
X19289000Y-13447000D02*
X19319000Y-13477000D01*
X19319000Y-13447000D02*
X19289000Y-13477000D01*
X19416000Y-8621000D02*
X19446000Y-8651000D01*
X19446000Y-8621000D02*
X19416000Y-8651000D01*
X19416000Y-9256000D02*
X19446000Y-9286000D01*
X19446000Y-9256000D02*
X19416000Y-9286000D01*
X19416000Y-9510000D02*
X19446000Y-9540000D01*
X19446000Y-9510000D02*
X19416000Y-9540000D01*
X19416000Y-9764000D02*
X19446000Y-9794000D01*
X19446000Y-9764000D02*
X19416000Y-9794000D01*
X19416000Y-10018000D02*
X19446000Y-10048000D01*
X19446000Y-10018000D02*
X19416000Y-10048000D01*
X19416000Y-13574000D02*
X19446000Y-13604000D01*
X19446000Y-13574000D02*
X19416000Y-13604000D01*
X19466800Y-11580100D02*
X19496800Y-11610100D01*
X19496800Y-11580100D02*
X19466800Y-11610100D01*
X19543000Y-8494000D02*
X19573000Y-8524000D01*
X19573000Y-8494000D02*
X19543000Y-8524000D01*
X19543000Y-9129000D02*
X19573000Y-9159000D01*
X19573000Y-9129000D02*
X19543000Y-9159000D01*
X19543000Y-9383000D02*
X19573000Y-9413000D01*
X19573000Y-9383000D02*
X19543000Y-9413000D01*
X19543000Y-9637000D02*
X19573000Y-9667000D01*
X19573000Y-9637000D02*
X19543000Y-9667000D01*
X19543000Y-9891000D02*
X19573000Y-9921000D01*
X19573000Y-9891000D02*
X19543000Y-9921000D01*
X19555700Y-10856200D02*
X19585700Y-10886200D01*
X19585700Y-10856200D02*
X19555700Y-10886200D01*
X19568400Y-11491200D02*
X19598400Y-11521200D01*
X19598400Y-11491200D02*
X19568400Y-11521200D01*
X19568400Y-11973800D02*
X19598400Y-12003800D01*
X19598400Y-11973800D02*
X19568400Y-12003800D01*
X19670000Y-8367000D02*
X19700000Y-8397000D01*
X19700000Y-8367000D02*
X19670000Y-8397000D01*
X19670000Y-9002000D02*
X19700000Y-9032000D01*
X19700000Y-9002000D02*
X19670000Y-9032000D01*
X19670000Y-9256000D02*
X19700000Y-9286000D01*
X19700000Y-9256000D02*
X19670000Y-9286000D01*
X19670000Y-9510000D02*
X19700000Y-9540000D01*
X19700000Y-9510000D02*
X19670000Y-9540000D01*
X19670000Y-9764000D02*
X19700000Y-9794000D01*
X19700000Y-9764000D02*
X19670000Y-9794000D01*
X19670000Y-10399000D02*
X19700000Y-10429000D01*
X19700000Y-10399000D02*
X19670000Y-10429000D01*
X19670000Y-13574000D02*
X19700000Y-13604000D01*
X19700000Y-13574000D02*
X19670000Y-13604000D01*
X19784300Y-10856200D02*
X19814300Y-10886200D01*
X19814300Y-10856200D02*
X19784300Y-10886200D01*
X19797000Y-8240000D02*
X19827000Y-8270000D01*
X19827000Y-8240000D02*
X19797000Y-8270000D01*
X19797000Y-8875000D02*
X19827000Y-8905000D01*
X19827000Y-8875000D02*
X19797000Y-8905000D01*
X19797000Y-9129000D02*
X19827000Y-9159000D01*
X19827000Y-9129000D02*
X19797000Y-9159000D01*
X19797000Y-9383000D02*
X19827000Y-9413000D01*
X19827000Y-9383000D02*
X19797000Y-9413000D01*
X19797000Y-9637000D02*
X19827000Y-9667000D01*
X19827000Y-9637000D02*
X19797000Y-9667000D01*
X19797000Y-10272000D02*
X19827000Y-10302000D01*
X19827000Y-10272000D02*
X19797000Y-10302000D01*
X19797000Y-10526000D02*
X19827000Y-10556000D01*
X19827000Y-10526000D02*
X19797000Y-10556000D01*
X19924000Y-8748000D02*
X19954000Y-8778000D01*
X19954000Y-8748000D02*
X19924000Y-8778000D01*
X19924000Y-9002000D02*
X19954000Y-9032000D01*
X19954000Y-9002000D02*
X19924000Y-9032000D01*
X19924000Y-9256000D02*
X19954000Y-9286000D01*
X19954000Y-9256000D02*
X19924000Y-9286000D01*
X19924000Y-9510000D02*
X19954000Y-9540000D01*
X19954000Y-9510000D02*
X19924000Y-9540000D01*
X19924000Y-13574000D02*
X19954000Y-13604000D01*
X19954000Y-13574000D02*
X19924000Y-13604000D01*
X19936700Y-11859500D02*
X19966700Y-11889500D01*
X19966700Y-11859500D02*
X19936700Y-11889500D01*
X20051000Y-8240000D02*
X20081000Y-8270000D01*
X20081000Y-8240000D02*
X20051000Y-8270000D01*
X20051000Y-10856200D02*
X20081000Y-10886200D01*
X20081000Y-10856200D02*
X20051000Y-10886200D01*
X20073860Y-11274280D02*
X20103860Y-11304280D01*
X20103860Y-11274280D02*
X20073860Y-11304280D01*
X20076400Y-11441920D02*
X20106400Y-11471920D01*
X20106400Y-11441920D02*
X20076400Y-11471920D01*
X20076400Y-11568920D02*
X20106400Y-11598920D01*
X20106400Y-11568920D02*
X20076400Y-11598920D01*
X20076400Y-11695920D02*
X20106400Y-11725920D01*
X20106400Y-11695920D02*
X20076400Y-11725920D01*
X20076400Y-12140420D02*
X20106400Y-12170420D01*
X20106400Y-12140420D02*
X20076400Y-12170420D01*
X20076400Y-12267420D02*
X20106400Y-12297420D01*
X20106400Y-12267420D02*
X20076400Y-12297420D01*
X20076400Y-12711920D02*
X20106400Y-12741920D01*
X20106400Y-12711920D02*
X20076400Y-12741920D01*
X20076400Y-12838920D02*
X20106400Y-12868920D01*
X20106400Y-12838920D02*
X20076400Y-12868920D01*
X20076400Y-12965920D02*
X20106400Y-12995920D01*
X20106400Y-12965920D02*
X20076400Y-12995920D01*
X20076400Y-13092920D02*
X20106400Y-13122920D01*
X20106400Y-13092920D02*
X20076400Y-13122920D01*
X20078940Y-8571720D02*
X20108940Y-8601720D01*
X20108940Y-8571720D02*
X20078940Y-8601720D01*
X20078940Y-8571720D02*
X20108940Y-8601720D01*
X20108940Y-8571720D02*
X20078940Y-8601720D01*
X20081480Y-8739360D02*
X20111480Y-8769360D01*
X20111480Y-8739360D02*
X20081480Y-8769360D01*
X20081480Y-8739360D02*
X20111480Y-8769360D01*
X20111480Y-8739360D02*
X20081480Y-8769360D01*
X20081480Y-8866360D02*
X20111480Y-8896360D01*
X20111480Y-8866360D02*
X20081480Y-8896360D01*
X20081480Y-8866360D02*
X20111480Y-8896360D01*
X20111480Y-8866360D02*
X20081480Y-8896360D01*
X20081480Y-8993360D02*
X20111480Y-9023360D01*
X20111480Y-8993360D02*
X20081480Y-9023360D01*
X20081480Y-8993360D02*
X20111480Y-9023360D01*
X20111480Y-8993360D02*
X20081480Y-9023360D01*
X20081480Y-9437860D02*
X20111480Y-9467860D01*
X20111480Y-9437860D02*
X20081480Y-9467860D01*
X20081480Y-9437860D02*
X20111480Y-9467860D01*
X20111480Y-9437860D02*
X20081480Y-9467860D01*
X20081480Y-9564860D02*
X20111480Y-9594860D01*
X20111480Y-9564860D02*
X20081480Y-9594860D01*
X20081480Y-9564860D02*
X20111480Y-9594860D01*
X20111480Y-9564860D02*
X20081480Y-9594860D01*
X20081480Y-10009360D02*
X20111480Y-10039360D01*
X20111480Y-10009360D02*
X20081480Y-10039360D01*
X20081480Y-10009360D02*
X20111480Y-10039360D01*
X20111480Y-10009360D02*
X20081480Y-10039360D01*
X20081480Y-10136360D02*
X20111480Y-10166360D01*
X20111480Y-10136360D02*
X20081480Y-10166360D01*
X20081480Y-10136360D02*
X20111480Y-10166360D01*
X20111480Y-10136360D02*
X20081480Y-10166360D01*
X20081480Y-10263360D02*
X20111480Y-10293360D01*
X20111480Y-10263360D02*
X20081480Y-10293360D01*
X20081480Y-10263360D02*
X20111480Y-10293360D01*
X20111480Y-10263360D02*
X20081480Y-10293360D01*
X20081480Y-10390360D02*
X20111480Y-10420360D01*
X20111480Y-10390360D02*
X20081480Y-10420360D01*
X20081480Y-10390360D02*
X20111480Y-10420360D01*
X20111480Y-10390360D02*
X20081480Y-10420360D01*
X20143006Y-10973606D02*
X20173006Y-11003606D01*
X20173006Y-10973606D02*
X20143006Y-11003606D01*
X20178000Y-7859000D02*
X20208000Y-7889000D01*
X20208000Y-7859000D02*
X20178000Y-7889000D01*
X20178000Y-13574000D02*
X20208000Y-13604000D01*
X20208000Y-13574000D02*
X20178000Y-13604000D01*
X20200860Y-11274280D02*
X20230860Y-11304280D01*
X20230860Y-11274280D02*
X20200860Y-11304280D01*
X20203400Y-13092920D02*
X20233400Y-13122920D01*
X20233400Y-13092920D02*
X20203400Y-13122920D01*
X20205940Y-8571720D02*
X20235940Y-8601720D01*
X20235940Y-8571720D02*
X20205940Y-8601720D01*
X20205940Y-8571720D02*
X20235940Y-8601720D01*
X20235940Y-8571720D02*
X20205940Y-8601720D01*
X20208480Y-10390360D02*
X20238480Y-10420360D01*
X20238480Y-10390360D02*
X20208480Y-10420360D01*
X20208480Y-10390360D02*
X20238480Y-10420360D01*
X20238480Y-10390360D02*
X20208480Y-10420360D01*
X20241500Y-11072100D02*
X20271500Y-11102100D01*
X20271500Y-11072100D02*
X20241500Y-11102100D01*
X20305000Y-7732000D02*
X20335000Y-7762000D01*
X20335000Y-7732000D02*
X20305000Y-7762000D01*
X20305000Y-8240000D02*
X20335000Y-8270000D01*
X20335000Y-8240000D02*
X20305000Y-8270000D01*
X20305000Y-8748000D02*
X20335000Y-8778000D01*
X20335000Y-8748000D02*
X20305000Y-8778000D01*
X20305000Y-9002000D02*
X20335000Y-9032000D01*
X20335000Y-9002000D02*
X20305000Y-9032000D01*
X20305000Y-9256000D02*
X20335000Y-9286000D01*
X20335000Y-9256000D02*
X20305000Y-9286000D01*
X20305000Y-9510000D02*
X20335000Y-9540000D01*
X20335000Y-9510000D02*
X20305000Y-9540000D01*
X20305000Y-9954500D02*
X20335000Y-9984500D01*
X20335000Y-9954500D02*
X20305000Y-9984500D01*
X20305000Y-10208500D02*
X20335000Y-10238500D01*
X20335000Y-10208500D02*
X20305000Y-10238500D01*
X20305000Y-11415000D02*
X20335000Y-11445000D01*
X20335000Y-11415000D02*
X20305000Y-11445000D01*
X20305000Y-11669000D02*
X20335000Y-11699000D01*
X20335000Y-11669000D02*
X20305000Y-11699000D01*
X20317700Y-12964400D02*
X20347700Y-12994400D01*
X20347700Y-12964400D02*
X20317700Y-12994400D01*
X20327860Y-11274280D02*
X20357860Y-11304280D01*
X20357860Y-11274280D02*
X20327860Y-11304280D01*
X20330400Y-13092920D02*
X20360400Y-13122920D01*
X20360400Y-13092920D02*
X20330400Y-13122920D01*
X20332940Y-8571720D02*
X20362940Y-8601720D01*
X20362940Y-8571720D02*
X20332940Y-8601720D01*
X20332940Y-8571720D02*
X20362940Y-8601720D01*
X20362940Y-8571720D02*
X20332940Y-8601720D01*
X20335480Y-10390360D02*
X20365480Y-10420360D01*
X20365480Y-10390360D02*
X20335480Y-10420360D01*
X20335480Y-10390360D02*
X20365480Y-10420360D01*
X20365480Y-10390360D02*
X20335480Y-10420360D01*
X20368500Y-8875000D02*
X20398500Y-8905000D01*
X20398500Y-8875000D02*
X20368500Y-8905000D01*
X20368500Y-9129000D02*
X20398500Y-9159000D01*
X20398500Y-9129000D02*
X20368500Y-9159000D01*
X20368500Y-9383000D02*
X20398500Y-9413000D01*
X20398500Y-9383000D02*
X20368500Y-9413000D01*
X20368500Y-9637000D02*
X20398500Y-9667000D01*
X20398500Y-9637000D02*
X20368500Y-9667000D01*
X20368500Y-10081500D02*
X20398500Y-10111500D01*
X20398500Y-10081500D02*
X20368500Y-10111500D01*
X20368500Y-10957800D02*
X20398500Y-10987800D01*
X20398500Y-10957800D02*
X20368500Y-10987800D01*
X20368500Y-11542000D02*
X20398500Y-11572000D01*
X20398500Y-11542000D02*
X20368500Y-11572000D01*
X20368500Y-11796000D02*
X20398500Y-11826000D01*
X20398500Y-11796000D02*
X20368500Y-11826000D01*
X20368500Y-12050000D02*
X20398500Y-12080000D01*
X20398500Y-12050000D02*
X20368500Y-12080000D01*
X20368500Y-12304000D02*
X20398500Y-12334000D01*
X20398500Y-12304000D02*
X20368500Y-12334000D01*
X20432000Y-7859000D02*
X20462000Y-7889000D01*
X20462000Y-7859000D02*
X20432000Y-7889000D01*
X20432000Y-13574000D02*
X20462000Y-13604000D01*
X20462000Y-13574000D02*
X20432000Y-13604000D01*
X20454860Y-11274280D02*
X20484860Y-11304280D01*
X20484860Y-11274280D02*
X20454860Y-11304280D01*
X20457400Y-13092920D02*
X20487400Y-13122920D01*
X20487400Y-13092920D02*
X20457400Y-13122920D01*
X20459940Y-8571720D02*
X20489940Y-8601720D01*
X20489940Y-8571720D02*
X20459940Y-8601720D01*
X20459940Y-8571720D02*
X20489940Y-8601720D01*
X20489940Y-8571720D02*
X20459940Y-8601720D01*
X20462480Y-10390360D02*
X20492480Y-10420360D01*
X20492480Y-10390360D02*
X20462480Y-10420360D01*
X20462480Y-10390360D02*
X20492480Y-10420360D01*
X20492480Y-10390360D02*
X20462480Y-10420360D01*
X20495500Y-8748000D02*
X20525500Y-8778000D01*
X20525500Y-8748000D02*
X20495500Y-8778000D01*
X20495500Y-9002000D02*
X20525500Y-9032000D01*
X20525500Y-9002000D02*
X20495500Y-9032000D01*
X20495500Y-9256000D02*
X20525500Y-9286000D01*
X20525500Y-9256000D02*
X20495500Y-9286000D01*
X20495500Y-9510000D02*
X20525500Y-9540000D01*
X20525500Y-9510000D02*
X20495500Y-9540000D01*
X20495500Y-9954500D02*
X20525500Y-9984500D01*
X20525500Y-9954500D02*
X20495500Y-9984500D01*
X20495500Y-10208500D02*
X20525500Y-10238500D01*
X20525500Y-10208500D02*
X20495500Y-10238500D01*
X20495500Y-11415000D02*
X20525500Y-11445000D01*
X20525500Y-11415000D02*
X20495500Y-11445000D01*
X20495500Y-12558000D02*
X20525500Y-12588000D01*
X20525500Y-12558000D02*
X20495500Y-12588000D01*
X20508200Y-12964400D02*
X20538200Y-12994400D01*
X20538200Y-12964400D02*
X20508200Y-12994400D01*
X20559000Y-7732000D02*
X20589000Y-7762000D01*
X20589000Y-7732000D02*
X20559000Y-7762000D01*
X20559000Y-8240000D02*
X20589000Y-8270000D01*
X20589000Y-8240000D02*
X20559000Y-8270000D01*
X20559000Y-8875000D02*
X20589000Y-8905000D01*
X20589000Y-8875000D02*
X20559000Y-8905000D01*
X20559000Y-9129000D02*
X20589000Y-9159000D01*
X20589000Y-9129000D02*
X20559000Y-9159000D01*
X20559000Y-9383000D02*
X20589000Y-9413000D01*
X20589000Y-9383000D02*
X20559000Y-9413000D01*
X20559000Y-12177000D02*
X20589000Y-12207000D01*
X20589000Y-12177000D02*
X20559000Y-12207000D01*
X20559000Y-12685000D02*
X20589000Y-12715000D01*
X20589000Y-12685000D02*
X20559000Y-12715000D01*
X20560650Y-10758750D02*
X20590650Y-10788750D01*
X20590650Y-10758750D02*
X20560650Y-10788750D01*
X20581250Y-10945100D02*
X20611250Y-10975100D01*
X20611250Y-10945100D02*
X20581250Y-10975100D01*
X20686000Y-7859000D02*
X20716000Y-7889000D01*
X20716000Y-7859000D02*
X20686000Y-7889000D01*
X20686000Y-8748000D02*
X20716000Y-8778000D01*
X20716000Y-8748000D02*
X20686000Y-8778000D01*
X20686000Y-9954500D02*
X20716000Y-9984500D01*
X20716000Y-9954500D02*
X20686000Y-9984500D01*
X20686000Y-10208500D02*
X20716000Y-10238500D01*
X20716000Y-10208500D02*
X20686000Y-10238500D01*
X20686000Y-12558000D02*
X20716000Y-12588000D01*
X20716000Y-12558000D02*
X20686000Y-12588000D01*
X20686000Y-13574000D02*
X20716000Y-13604000D01*
X20716000Y-13574000D02*
X20686000Y-13604000D01*
X20687585Y-9304260D02*
X20717585Y-9334260D01*
X20717585Y-9304260D02*
X20687585Y-9334260D01*
X20687585Y-9304260D02*
X20717585Y-9334260D01*
X20717585Y-9304260D02*
X20687585Y-9334260D01*
X20698700Y-12964400D02*
X20728700Y-12994400D01*
X20728700Y-12964400D02*
X20698700Y-12994400D01*
X20701240Y-11983960D02*
X20731240Y-12013960D01*
X20731240Y-11983960D02*
X20701240Y-12013960D01*
X20749500Y-8875000D02*
X20779500Y-8905000D01*
X20779500Y-8875000D02*
X20749500Y-8905000D01*
X20749500Y-10081500D02*
X20779500Y-10111500D01*
X20779500Y-10081500D02*
X20749500Y-10111500D01*
X20749500Y-12685000D02*
X20779500Y-12715000D01*
X20779500Y-12685000D02*
X20749500Y-12715000D01*
X20813000Y-7732000D02*
X20843000Y-7762000D01*
X20843000Y-7732000D02*
X20813000Y-7762000D01*
X20838400Y-10856200D02*
X20868400Y-10886200D01*
X20868400Y-10856200D02*
X20838400Y-10886200D01*
X20863800Y-9459200D02*
X20893800Y-9489200D01*
X20893800Y-9459200D02*
X20863800Y-9489200D01*
X20863800Y-12138900D02*
X20893800Y-12168900D01*
X20893800Y-12138900D02*
X20863800Y-12168900D01*
X20876500Y-8748000D02*
X20906500Y-8778000D01*
X20906500Y-8748000D02*
X20876500Y-8778000D01*
X20876500Y-9954500D02*
X20906500Y-9984500D01*
X20906500Y-9954500D02*
X20876500Y-9984500D01*
X20876500Y-10208500D02*
X20906500Y-10238500D01*
X20906500Y-10208500D02*
X20876500Y-10238500D01*
X20876500Y-12558000D02*
X20906500Y-12588000D01*
X20906500Y-12558000D02*
X20876500Y-12588000D01*
X20889200Y-12964400D02*
X20919200Y-12994400D01*
X20919200Y-12964400D02*
X20889200Y-12994400D01*
X20899360Y-11274280D02*
X20929360Y-11304280D01*
X20929360Y-11274280D02*
X20899360Y-11304280D01*
X20901900Y-13092920D02*
X20931900Y-13122920D01*
X20931900Y-13092920D02*
X20901900Y-13122920D01*
X20904440Y-8571720D02*
X20934440Y-8601720D01*
X20934440Y-8571720D02*
X20904440Y-8601720D01*
X20904440Y-8571720D02*
X20934440Y-8601720D01*
X20934440Y-8571720D02*
X20904440Y-8601720D01*
X20906980Y-10390360D02*
X20936980Y-10420360D01*
X20936980Y-10390360D02*
X20906980Y-10420360D01*
X20906980Y-10390360D02*
X20936980Y-10420360D01*
X20936980Y-10390360D02*
X20906980Y-10420360D01*
X20940000Y-7605000D02*
X20970000Y-7635000D01*
X20970000Y-7605000D02*
X20940000Y-7635000D01*
X20940000Y-7859000D02*
X20970000Y-7889000D01*
X20970000Y-7859000D02*
X20940000Y-7889000D01*
X20940000Y-8875000D02*
X20970000Y-8905000D01*
X20970000Y-8875000D02*
X20940000Y-8905000D01*
X20940000Y-11542000D02*
X20970000Y-11572000D01*
X20970000Y-11542000D02*
X20940000Y-11572000D01*
X20940000Y-12685000D02*
X20970000Y-12715000D01*
X20970000Y-12685000D02*
X20940000Y-12715000D01*
X20940000Y-13574000D02*
X20970000Y-13604000D01*
X20970000Y-13574000D02*
X20940000Y-13604000D01*
X21016200Y-12519900D02*
X21046200Y-12549900D01*
X21046200Y-12519900D02*
X21016200Y-12549900D01*
X21026360Y-11274280D02*
X21056360Y-11304280D01*
X21056360Y-11274280D02*
X21026360Y-11304280D01*
X21028900Y-13092920D02*
X21058900Y-13122920D01*
X21058900Y-13092920D02*
X21028900Y-13122920D01*
X21031440Y-8571720D02*
X21061440Y-8601720D01*
X21061440Y-8571720D02*
X21031440Y-8601720D01*
X21031440Y-8571720D02*
X21061440Y-8601720D01*
X21061440Y-8571720D02*
X21031440Y-8601720D01*
X21033980Y-10390360D02*
X21063980Y-10420360D01*
X21063980Y-10390360D02*
X21033980Y-10420360D01*
X21033980Y-10390360D02*
X21063980Y-10420360D01*
X21063980Y-10390360D02*
X21033980Y-10420360D01*
X21041600Y-9802100D02*
X21071600Y-9832100D01*
X21071600Y-9802100D02*
X21041600Y-9832100D01*
X21060965Y-12080480D02*
X21090965Y-12110480D01*
X21090965Y-12080480D02*
X21060965Y-12110480D01*
X21066045Y-9377920D02*
X21096045Y-9407920D01*
X21096045Y-9377920D02*
X21066045Y-9407920D01*
X21066045Y-9377920D02*
X21096045Y-9407920D01*
X21096045Y-9377920D02*
X21066045Y-9407920D01*
X21067000Y-7478000D02*
X21097000Y-7508000D01*
X21097000Y-7478000D02*
X21067000Y-7508000D01*
X21067000Y-7732000D02*
X21097000Y-7762000D01*
X21097000Y-7732000D02*
X21067000Y-7762000D01*
X21067000Y-8240000D02*
X21097000Y-8270000D01*
X21097000Y-8240000D02*
X21067000Y-8270000D01*
X21067000Y-8748000D02*
X21097000Y-8778000D01*
X21097000Y-8748000D02*
X21067000Y-8778000D01*
X21067000Y-10208500D02*
X21097000Y-10238500D01*
X21097000Y-10208500D02*
X21067000Y-10238500D01*
X21067000Y-11415000D02*
X21097000Y-11445000D01*
X21097000Y-11415000D02*
X21067000Y-11445000D01*
X21067000Y-12964400D02*
X21097000Y-12994400D01*
X21097000Y-12964400D02*
X21067000Y-12994400D01*
X21130500Y-8875000D02*
X21160500Y-8905000D01*
X21160500Y-8875000D02*
X21130500Y-8905000D01*
X21130500Y-10081500D02*
X21160500Y-10111500D01*
X21160500Y-10081500D02*
X21130500Y-10111500D01*
X21130500Y-11542000D02*
X21160500Y-11572000D01*
X21160500Y-11542000D02*
X21130500Y-11572000D01*
X21187965Y-12588480D02*
X21217965Y-12618480D01*
X21217965Y-12588480D02*
X21187965Y-12618480D01*
X21193045Y-9885920D02*
X21223045Y-9915920D01*
X21223045Y-9885920D02*
X21193045Y-9915920D01*
X21193045Y-9885920D02*
X21223045Y-9915920D01*
X21223045Y-9885920D02*
X21193045Y-9915920D01*
X21194000Y-7351000D02*
X21224000Y-7381000D01*
X21224000Y-7351000D02*
X21194000Y-7381000D01*
X21194000Y-7605000D02*
X21224000Y-7635000D01*
X21224000Y-7605000D02*
X21194000Y-7635000D01*
X21194000Y-13574000D02*
X21224000Y-13604000D01*
X21224000Y-13574000D02*
X21194000Y-13604000D01*
X21257500Y-8240000D02*
X21287500Y-8270000D01*
X21287500Y-8240000D02*
X21257500Y-8270000D01*
X21257500Y-8748000D02*
X21287500Y-8778000D01*
X21287500Y-8748000D02*
X21257500Y-8778000D01*
X21257500Y-10208500D02*
X21287500Y-10238500D01*
X21287500Y-10208500D02*
X21257500Y-10238500D01*
X21257500Y-11415000D02*
X21287500Y-11445000D01*
X21287500Y-11415000D02*
X21257500Y-11445000D01*
X21257500Y-12964400D02*
X21287500Y-12994400D01*
X21287500Y-12964400D02*
X21257500Y-12994400D01*
X21321000Y-7224000D02*
X21351000Y-7254000D01*
X21351000Y-7224000D02*
X21321000Y-7254000D01*
X21321000Y-7478000D02*
X21351000Y-7508000D01*
X21351000Y-7478000D02*
X21321000Y-7508000D01*
X21321000Y-8875000D02*
X21351000Y-8905000D01*
X21351000Y-8875000D02*
X21321000Y-8905000D01*
X21321000Y-10081500D02*
X21351000Y-10111500D01*
X21351000Y-10081500D02*
X21321000Y-10111500D01*
X21321000Y-11542000D02*
X21351000Y-11572000D01*
X21351000Y-11542000D02*
X21321000Y-11572000D01*
X21340365Y-12004280D02*
X21370365Y-12034280D01*
X21370365Y-12004280D02*
X21340365Y-12034280D01*
X21345445Y-9301720D02*
X21375445Y-9331720D01*
X21375445Y-9301720D02*
X21345445Y-9331720D01*
X21345445Y-9301720D02*
X21375445Y-9331720D01*
X21375445Y-9301720D02*
X21345445Y-9331720D01*
X21365765Y-12664680D02*
X21395765Y-12694680D01*
X21395765Y-12664680D02*
X21365765Y-12694680D01*
X21370845Y-9962120D02*
X21400845Y-9992120D01*
X21400845Y-9962120D02*
X21370845Y-9992120D01*
X21370845Y-9962120D02*
X21400845Y-9992120D01*
X21400845Y-9962120D02*
X21370845Y-9992120D01*
X21441965Y-12283680D02*
X21471965Y-12313680D01*
X21471965Y-12283680D02*
X21441965Y-12313680D01*
X21447045Y-9581120D02*
X21477045Y-9611120D01*
X21477045Y-9581120D02*
X21447045Y-9611120D01*
X21447045Y-9581120D02*
X21477045Y-9611120D01*
X21477045Y-9581120D02*
X21447045Y-9611120D01*
X21448000Y-7097000D02*
X21478000Y-7127000D01*
X21478000Y-7097000D02*
X21448000Y-7127000D01*
X21448000Y-7351000D02*
X21478000Y-7381000D01*
X21478000Y-7351000D02*
X21448000Y-7381000D01*
X21448000Y-7859000D02*
X21478000Y-7889000D01*
X21478000Y-7859000D02*
X21448000Y-7889000D01*
X21448000Y-8240000D02*
X21478000Y-8270000D01*
X21478000Y-8240000D02*
X21448000Y-8270000D01*
X21448000Y-8748000D02*
X21478000Y-8778000D01*
X21478000Y-8748000D02*
X21448000Y-8778000D01*
X21448000Y-11415000D02*
X21478000Y-11445000D01*
X21478000Y-11415000D02*
X21448000Y-11445000D01*
X21448000Y-12964400D02*
X21478000Y-12994400D01*
X21478000Y-12964400D02*
X21448000Y-12994400D01*
X21448000Y-13574000D02*
X21478000Y-13604000D01*
X21478000Y-13574000D02*
X21448000Y-13604000D01*
X21470860Y-11274280D02*
X21500860Y-11304280D01*
X21500860Y-11274280D02*
X21470860Y-11304280D01*
X21473400Y-13092920D02*
X21503400Y-13122920D01*
X21503400Y-13092920D02*
X21473400Y-13122920D01*
X21475940Y-8571720D02*
X21505940Y-8601720D01*
X21505940Y-8571720D02*
X21475940Y-8601720D01*
X21475940Y-8571720D02*
X21505940Y-8601720D01*
X21505940Y-8571720D02*
X21475940Y-8601720D01*
X21478480Y-10390360D02*
X21508480Y-10420360D01*
X21508480Y-10390360D02*
X21478480Y-10420360D01*
X21478480Y-10390360D02*
X21508480Y-10420360D01*
X21508480Y-10390360D02*
X21478480Y-10420360D01*
X21511500Y-8875000D02*
X21541500Y-8905000D01*
X21541500Y-8875000D02*
X21511500Y-8905000D01*
X21511500Y-10081500D02*
X21541500Y-10111500D01*
X21541500Y-10081500D02*
X21511500Y-10111500D01*
X21511500Y-11542000D02*
X21541500Y-11572000D01*
X21541500Y-11542000D02*
X21511500Y-11572000D01*
X21511500Y-11897600D02*
X21541500Y-11927600D01*
X21541500Y-11897600D02*
X21511500Y-11927600D01*
X21575000Y-7224000D02*
X21605000Y-7254000D01*
X21605000Y-7224000D02*
X21575000Y-7254000D01*
X21575000Y-7732000D02*
X21605000Y-7762000D01*
X21605000Y-7732000D02*
X21575000Y-7762000D01*
X21575000Y-10907000D02*
X21605000Y-10937000D01*
X21605000Y-10907000D02*
X21575000Y-10937000D01*
X21597860Y-11274280D02*
X21627860Y-11304280D01*
X21627860Y-11274280D02*
X21597860Y-11304280D01*
X21600400Y-9319500D02*
X21630400Y-9349500D01*
X21630400Y-9319500D02*
X21600400Y-9349500D01*
X21600400Y-12215100D02*
X21630400Y-12245100D01*
X21630400Y-12215100D02*
X21600400Y-12245100D01*
X21600400Y-13092920D02*
X21630400Y-13122920D01*
X21630400Y-13092920D02*
X21600400Y-13122920D01*
X21602940Y-8571720D02*
X21632940Y-8601720D01*
X21632940Y-8571720D02*
X21602940Y-8601720D01*
X21602940Y-8571720D02*
X21632940Y-8601720D01*
X21632940Y-8571720D02*
X21602940Y-8601720D01*
X21605480Y-10390360D02*
X21635480Y-10420360D01*
X21635480Y-10390360D02*
X21605480Y-10420360D01*
X21605480Y-10390360D02*
X21635480Y-10420360D01*
X21635480Y-10390360D02*
X21605480Y-10420360D01*
X21613100Y-9510000D02*
X21643100Y-9540000D01*
X21643100Y-9510000D02*
X21613100Y-9540000D01*
X21638500Y-7859000D02*
X21668500Y-7889000D01*
X21668500Y-7859000D02*
X21638500Y-7889000D01*
X21638500Y-8240000D02*
X21668500Y-8270000D01*
X21668500Y-8240000D02*
X21638500Y-8270000D01*
X21638500Y-8748000D02*
X21668500Y-8778000D01*
X21668500Y-8748000D02*
X21638500Y-8778000D01*
X21638500Y-10208500D02*
X21668500Y-10238500D01*
X21668500Y-10208500D02*
X21638500Y-10238500D01*
X21638500Y-11415000D02*
X21668500Y-11445000D01*
X21668500Y-11415000D02*
X21638500Y-11445000D01*
X21638500Y-12964400D02*
X21668500Y-12994400D01*
X21668500Y-12964400D02*
X21638500Y-12994400D01*
X21702000Y-7097000D02*
X21732000Y-7127000D01*
X21732000Y-7097000D02*
X21702000Y-7127000D01*
X21702000Y-7605000D02*
X21732000Y-7635000D01*
X21732000Y-7605000D02*
X21702000Y-7635000D01*
X21702000Y-8875000D02*
X21732000Y-8905000D01*
X21732000Y-8875000D02*
X21702000Y-8905000D01*
X21702000Y-10081500D02*
X21732000Y-10111500D01*
X21732000Y-10081500D02*
X21702000Y-10111500D01*
X21702000Y-11542000D02*
X21732000Y-11572000D01*
X21732000Y-11542000D02*
X21702000Y-11572000D01*
X21702000Y-13574000D02*
X21732000Y-13604000D01*
X21732000Y-13574000D02*
X21702000Y-13604000D01*
X21765500Y-7732000D02*
X21795500Y-7762000D01*
X21795500Y-7732000D02*
X21765500Y-7762000D01*
X21829000Y-7859000D02*
X21859000Y-7889000D01*
X21859000Y-7859000D02*
X21829000Y-7889000D01*
X21829000Y-8240000D02*
X21859000Y-8270000D01*
X21859000Y-8240000D02*
X21829000Y-8270000D01*
X21829000Y-8748000D02*
X21859000Y-8778000D01*
X21859000Y-8748000D02*
X21829000Y-8778000D01*
X21829000Y-10208500D02*
X21859000Y-10238500D01*
X21859000Y-10208500D02*
X21829000Y-10238500D01*
X21829000Y-10907000D02*
X21859000Y-10937000D01*
X21859000Y-10907000D02*
X21829000Y-10937000D01*
X21829000Y-11415000D02*
X21859000Y-11445000D01*
X21859000Y-11415000D02*
X21829000Y-11445000D01*
X21829000Y-13447000D02*
X21859000Y-13477000D01*
X21859000Y-13447000D02*
X21829000Y-13477000D01*
X21841700Y-12265900D02*
X21871700Y-12295900D01*
X21871700Y-12265900D02*
X21841700Y-12295900D01*
X21892500Y-7605000D02*
X21922500Y-7635000D01*
X21922500Y-7605000D02*
X21892500Y-7635000D01*
X21892500Y-8875000D02*
X21922500Y-8905000D01*
X21922500Y-8875000D02*
X21892500Y-8905000D01*
X21892500Y-10081500D02*
X21922500Y-10111500D01*
X21922500Y-10081500D02*
X21892500Y-10111500D01*
X21892500Y-11542000D02*
X21922500Y-11572000D01*
X21922500Y-11542000D02*
X21892500Y-11572000D01*
X21892500Y-12812000D02*
X21922500Y-12842000D01*
X21922500Y-12812000D02*
X21892500Y-12842000D01*
X21899165Y-12004280D02*
X21929165Y-12034280D01*
X21929165Y-12004280D02*
X21899165Y-12034280D01*
X21904245Y-9301720D02*
X21934245Y-9331720D01*
X21934245Y-9301720D02*
X21904245Y-9331720D01*
X21904245Y-9301720D02*
X21934245Y-9331720D01*
X21934245Y-9301720D02*
X21904245Y-9331720D01*
X21917900Y-9395700D02*
X21947900Y-9425700D01*
X21947900Y-9395700D02*
X21917900Y-9425700D01*
X21956000Y-7732000D02*
X21986000Y-7762000D01*
X21986000Y-7732000D02*
X21956000Y-7762000D01*
X21956000Y-12558000D02*
X21986000Y-12588000D01*
X21986000Y-12558000D02*
X21956000Y-12588000D01*
X21956000Y-13320000D02*
X21986000Y-13350000D01*
X21986000Y-13320000D02*
X21956000Y-13350000D01*
X21956000Y-13574000D02*
X21986000Y-13604000D01*
X21986000Y-13574000D02*
X21956000Y-13604000D01*
X22000765Y-12258280D02*
X22030765Y-12288280D01*
X22030765Y-12258280D02*
X22000765Y-12288280D01*
X22005845Y-9555720D02*
X22035845Y-9585720D01*
X22035845Y-9555720D02*
X22005845Y-9585720D01*
X22005845Y-9555720D02*
X22035845Y-9585720D01*
X22035845Y-9555720D02*
X22005845Y-9585720D01*
X22019500Y-7859000D02*
X22049500Y-7889000D01*
X22049500Y-7859000D02*
X22019500Y-7889000D01*
X22019500Y-8240000D02*
X22049500Y-8270000D01*
X22049500Y-8240000D02*
X22019500Y-8270000D01*
X22019500Y-8748000D02*
X22049500Y-8778000D01*
X22049500Y-8748000D02*
X22019500Y-8778000D01*
X22019500Y-9954500D02*
X22049500Y-9984500D01*
X22049500Y-9954500D02*
X22019500Y-9984500D01*
X22019500Y-11415000D02*
X22049500Y-11445000D01*
X22049500Y-11415000D02*
X22019500Y-11445000D01*
X22019500Y-12431000D02*
X22049500Y-12461000D01*
X22049500Y-12431000D02*
X22019500Y-12461000D01*
X22019500Y-12685000D02*
X22049500Y-12715000D01*
X22049500Y-12685000D02*
X22019500Y-12715000D01*
X22019500Y-12964400D02*
X22049500Y-12994400D01*
X22049500Y-12964400D02*
X22019500Y-12994400D01*
X22042360Y-11274280D02*
X22072360Y-11304280D01*
X22072360Y-11274280D02*
X22042360Y-11304280D01*
X22044900Y-13092920D02*
X22074900Y-13122920D01*
X22074900Y-13092920D02*
X22044900Y-13122920D01*
X22047440Y-8571720D02*
X22077440Y-8601720D01*
X22077440Y-8571720D02*
X22047440Y-8601720D01*
X22047440Y-8571720D02*
X22077440Y-8601720D01*
X22077440Y-8571720D02*
X22047440Y-8601720D01*
X22049980Y-10390360D02*
X22079980Y-10420360D01*
X22079980Y-10390360D02*
X22049980Y-10420360D01*
X22049980Y-10390360D02*
X22079980Y-10420360D01*
X22079980Y-10390360D02*
X22049980Y-10420360D01*
X22083000Y-7605000D02*
X22113000Y-7635000D01*
X22113000Y-7605000D02*
X22083000Y-7635000D01*
X22083000Y-8875000D02*
X22113000Y-8905000D01*
X22113000Y-8875000D02*
X22083000Y-8905000D01*
X22083000Y-10907000D02*
X22113000Y-10937000D01*
X22113000Y-10907000D02*
X22083000Y-10937000D01*
X22083000Y-11542000D02*
X22113000Y-11572000D01*
X22113000Y-11542000D02*
X22083000Y-11572000D01*
X22083000Y-13447000D02*
X22113000Y-13477000D01*
X22113000Y-13447000D02*
X22083000Y-13477000D01*
X22146500Y-7732000D02*
X22176500Y-7762000D01*
X22176500Y-7732000D02*
X22146500Y-7762000D01*
X22169360Y-11274280D02*
X22199360Y-11304280D01*
X22199360Y-11274280D02*
X22169360Y-11304280D01*
X22171900Y-13092920D02*
X22201900Y-13122920D01*
X22201900Y-13092920D02*
X22171900Y-13122920D01*
X22174440Y-8571720D02*
X22204440Y-8601720D01*
X22204440Y-8571720D02*
X22174440Y-8601720D01*
X22174440Y-8571720D02*
X22204440Y-8601720D01*
X22204440Y-8571720D02*
X22174440Y-8601720D01*
X22176980Y-10390360D02*
X22206980Y-10420360D01*
X22206980Y-10390360D02*
X22176980Y-10420360D01*
X22176980Y-10390360D02*
X22206980Y-10420360D01*
X22206980Y-10390360D02*
X22176980Y-10420360D01*
X22210000Y-7859000D02*
X22240000Y-7889000D01*
X22240000Y-7859000D02*
X22210000Y-7889000D01*
X22210000Y-8240000D02*
X22240000Y-8270000D01*
X22240000Y-8240000D02*
X22210000Y-8270000D01*
X22210000Y-8748000D02*
X22240000Y-8778000D01*
X22240000Y-8748000D02*
X22210000Y-8778000D01*
X22210000Y-10208500D02*
X22240000Y-10238500D01*
X22240000Y-10208500D02*
X22210000Y-10238500D01*
X22210000Y-11415000D02*
X22240000Y-11445000D01*
X22240000Y-11415000D02*
X22210000Y-11445000D01*
X22210000Y-12964400D02*
X22240000Y-12994400D01*
X22240000Y-12964400D02*
X22210000Y-12994400D01*
X22210000Y-13320000D02*
X22240000Y-13350000D01*
X22240000Y-13320000D02*
X22210000Y-13350000D01*
X22210000Y-13574000D02*
X22240000Y-13604000D01*
X22240000Y-13574000D02*
X22210000Y-13604000D01*
X22229365Y-12563080D02*
X22259365Y-12593080D01*
X22259365Y-12563080D02*
X22229365Y-12593080D01*
X22234445Y-9860520D02*
X22264445Y-9890520D01*
X22264445Y-9860520D02*
X22234445Y-9890520D01*
X22234445Y-9860520D02*
X22264445Y-9890520D01*
X22264445Y-9860520D02*
X22234445Y-9890520D01*
X22273500Y-7605000D02*
X22303500Y-7635000D01*
X22303500Y-7605000D02*
X22273500Y-7635000D01*
X22273500Y-8875000D02*
X22303500Y-8905000D01*
X22303500Y-8875000D02*
X22273500Y-8905000D01*
X22273500Y-11542000D02*
X22303500Y-11572000D01*
X22303500Y-11542000D02*
X22273500Y-11572000D01*
X22273500Y-12875500D02*
X22303500Y-12905500D01*
X22303500Y-12875500D02*
X22273500Y-12905500D01*
X22337000Y-7732000D02*
X22367000Y-7762000D01*
X22367000Y-7732000D02*
X22337000Y-7762000D01*
X22337000Y-10653000D02*
X22367000Y-10683000D01*
X22367000Y-10653000D02*
X22337000Y-10683000D01*
X22337000Y-10907000D02*
X22367000Y-10937000D01*
X22367000Y-10907000D02*
X22337000Y-10937000D01*
X22337000Y-13447000D02*
X22367000Y-13477000D01*
X22367000Y-13447000D02*
X22337000Y-13477000D01*
X22400500Y-7859000D02*
X22430500Y-7889000D01*
X22430500Y-7859000D02*
X22400500Y-7889000D01*
X22400500Y-8240000D02*
X22430500Y-8270000D01*
X22430500Y-8240000D02*
X22400500Y-8270000D01*
X22400500Y-8748000D02*
X22430500Y-8778000D01*
X22430500Y-8748000D02*
X22400500Y-8778000D01*
X22400500Y-10208500D02*
X22430500Y-10238500D01*
X22430500Y-10208500D02*
X22400500Y-10238500D01*
X22400500Y-11415000D02*
X22430500Y-11445000D01*
X22430500Y-11415000D02*
X22400500Y-11445000D01*
X22400500Y-12964400D02*
X22430500Y-12994400D01*
X22430500Y-12964400D02*
X22400500Y-12994400D01*
X22432565Y-12334480D02*
X22462565Y-12364480D01*
X22462565Y-12334480D02*
X22432565Y-12364480D01*
X22437645Y-9631920D02*
X22467645Y-9661920D01*
X22467645Y-9631920D02*
X22437645Y-9661920D01*
X22437645Y-9631920D02*
X22467645Y-9661920D01*
X22467645Y-9631920D02*
X22437645Y-9661920D01*
X22464000Y-7605000D02*
X22494000Y-7635000D01*
X22494000Y-7605000D02*
X22464000Y-7635000D01*
X22464000Y-8875000D02*
X22494000Y-8905000D01*
X22494000Y-8875000D02*
X22464000Y-8905000D01*
X22464000Y-10780000D02*
X22494000Y-10810000D01*
X22494000Y-10780000D02*
X22464000Y-10810000D01*
X22464000Y-11542000D02*
X22494000Y-11572000D01*
X22494000Y-11542000D02*
X22464000Y-11572000D01*
X22464000Y-12875500D02*
X22494000Y-12905500D01*
X22494000Y-12875500D02*
X22464000Y-12905500D01*
X22464000Y-13320000D02*
X22494000Y-13350000D01*
X22494000Y-13320000D02*
X22464000Y-13350000D01*
X22464000Y-13574000D02*
X22494000Y-13604000D01*
X22494000Y-13574000D02*
X22464000Y-13604000D01*
X22476700Y-12507200D02*
X22506700Y-12537200D01*
X22506700Y-12507200D02*
X22476700Y-12537200D01*
X22527500Y-7732000D02*
X22557500Y-7762000D01*
X22557500Y-7732000D02*
X22527500Y-7762000D01*
X22527500Y-12177000D02*
X22557500Y-12207000D01*
X22557500Y-12177000D02*
X22527500Y-12207000D01*
X22591000Y-7859000D02*
X22621000Y-7889000D01*
X22621000Y-7859000D02*
X22591000Y-7889000D01*
X22591000Y-8240000D02*
X22621000Y-8270000D01*
X22621000Y-8240000D02*
X22591000Y-8270000D01*
X22591000Y-8748000D02*
X22621000Y-8778000D01*
X22621000Y-8748000D02*
X22591000Y-8778000D01*
X22591000Y-9446500D02*
X22621000Y-9476500D01*
X22621000Y-9446500D02*
X22591000Y-9476500D01*
X22591000Y-9700500D02*
X22621000Y-9730500D01*
X22621000Y-9700500D02*
X22591000Y-9730500D01*
X22591000Y-9954500D02*
X22621000Y-9984500D01*
X22621000Y-9954500D02*
X22591000Y-9984500D01*
X22591000Y-10208500D02*
X22621000Y-10238500D01*
X22621000Y-10208500D02*
X22591000Y-10238500D01*
X22591000Y-10653000D02*
X22621000Y-10683000D01*
X22621000Y-10653000D02*
X22591000Y-10683000D01*
X22591000Y-10907000D02*
X22621000Y-10937000D01*
X22621000Y-10907000D02*
X22591000Y-10937000D01*
X22591000Y-11415000D02*
X22621000Y-11445000D01*
X22621000Y-11415000D02*
X22591000Y-11445000D01*
X22591000Y-12050000D02*
X22621000Y-12080000D01*
X22621000Y-12050000D02*
X22591000Y-12080000D01*
X22591000Y-12964400D02*
X22621000Y-12994400D01*
X22621000Y-12964400D02*
X22591000Y-12994400D01*
X22591000Y-13447000D02*
X22621000Y-13477000D01*
X22621000Y-13447000D02*
X22591000Y-13477000D01*
X22635765Y-12004280D02*
X22665765Y-12034280D01*
X22665765Y-12004280D02*
X22635765Y-12034280D01*
X22640845Y-9301720D02*
X22670845Y-9331720D01*
X22670845Y-9301720D02*
X22640845Y-9331720D01*
X22640845Y-9301720D02*
X22670845Y-9331720D01*
X22670845Y-9301720D02*
X22640845Y-9331720D01*
X22654500Y-7605000D02*
X22684500Y-7635000D01*
X22684500Y-7605000D02*
X22654500Y-7635000D01*
X22654500Y-8875000D02*
X22684500Y-8905000D01*
X22684500Y-8875000D02*
X22654500Y-8905000D01*
X22654500Y-9573500D02*
X22684500Y-9603500D01*
X22684500Y-9573500D02*
X22654500Y-9603500D01*
X22654500Y-9827500D02*
X22684500Y-9857500D01*
X22684500Y-9827500D02*
X22654500Y-9857500D01*
X22654500Y-10081500D02*
X22684500Y-10111500D01*
X22684500Y-10081500D02*
X22654500Y-10111500D01*
X22654500Y-11542000D02*
X22684500Y-11572000D01*
X22684500Y-11542000D02*
X22654500Y-11572000D01*
X22654500Y-12875500D02*
X22684500Y-12905500D01*
X22684500Y-12875500D02*
X22654500Y-12905500D01*
X22677360Y-11274280D02*
X22707360Y-11304280D01*
X22707360Y-11274280D02*
X22677360Y-11304280D01*
X22679900Y-13092920D02*
X22709900Y-13122920D01*
X22709900Y-13092920D02*
X22679900Y-13122920D01*
X22682440Y-8571720D02*
X22712440Y-8601720D01*
X22712440Y-8571720D02*
X22682440Y-8601720D01*
X22682440Y-8571720D02*
X22712440Y-8601720D01*
X22712440Y-8571720D02*
X22682440Y-8601720D01*
X22684980Y-10390360D02*
X22714980Y-10420360D01*
X22714980Y-10390360D02*
X22684980Y-10420360D01*
X22684980Y-10390360D02*
X22714980Y-10420360D01*
X22714980Y-10390360D02*
X22684980Y-10420360D01*
X22718000Y-7732000D02*
X22748000Y-7762000D01*
X22748000Y-7732000D02*
X22718000Y-7762000D01*
X22718000Y-10780000D02*
X22748000Y-10810000D01*
X22748000Y-10780000D02*
X22718000Y-10810000D01*
X22718000Y-12304000D02*
X22748000Y-12334000D01*
X22748000Y-12304000D02*
X22718000Y-12334000D01*
X22718000Y-13320000D02*
X22748000Y-13350000D01*
X22748000Y-13320000D02*
X22718000Y-13350000D01*
X22718000Y-13574000D02*
X22748000Y-13604000D01*
X22748000Y-13574000D02*
X22718000Y-13604000D01*
X22781500Y-7859000D02*
X22811500Y-7889000D01*
X22811500Y-7859000D02*
X22781500Y-7889000D01*
X22781500Y-8240000D02*
X22811500Y-8270000D01*
X22811500Y-8240000D02*
X22781500Y-8270000D01*
X22781500Y-8748000D02*
X22811500Y-8778000D01*
X22811500Y-8748000D02*
X22781500Y-8778000D01*
X22781500Y-9446500D02*
X22811500Y-9476500D01*
X22811500Y-9446500D02*
X22781500Y-9476500D01*
X22781500Y-9700500D02*
X22811500Y-9730500D01*
X22811500Y-9700500D02*
X22781500Y-9730500D01*
X22781500Y-9954500D02*
X22811500Y-9984500D01*
X22811500Y-9954500D02*
X22781500Y-9984500D01*
X22781500Y-10208500D02*
X22811500Y-10238500D01*
X22811500Y-10208500D02*
X22781500Y-10238500D01*
X22781500Y-11415000D02*
X22811500Y-11445000D01*
X22811500Y-11415000D02*
X22781500Y-11445000D01*
X22781500Y-12177000D02*
X22811500Y-12207000D01*
X22811500Y-12177000D02*
X22781500Y-12207000D01*
X22781500Y-12431000D02*
X22811500Y-12461000D01*
X22811500Y-12431000D02*
X22781500Y-12461000D01*
X22781500Y-12685000D02*
X22811500Y-12715000D01*
X22811500Y-12685000D02*
X22781500Y-12715000D01*
X22781500Y-12964400D02*
X22811500Y-12994400D01*
X22811500Y-12964400D02*
X22781500Y-12994400D01*
X22804360Y-11274280D02*
X22834360Y-11304280D01*
X22834360Y-11274280D02*
X22804360Y-11304280D01*
X22806900Y-13092920D02*
X22836900Y-13122920D01*
X22836900Y-13092920D02*
X22806900Y-13122920D01*
X22809440Y-8571720D02*
X22839440Y-8601720D01*
X22839440Y-8571720D02*
X22809440Y-8601720D01*
X22809440Y-8571720D02*
X22839440Y-8601720D01*
X22839440Y-8571720D02*
X22809440Y-8601720D01*
X22811980Y-10390360D02*
X22841980Y-10420360D01*
X22841980Y-10390360D02*
X22811980Y-10420360D01*
X22811980Y-10390360D02*
X22841980Y-10420360D01*
X22841980Y-10390360D02*
X22811980Y-10420360D01*
X22845000Y-7605000D02*
X22875000Y-7635000D01*
X22875000Y-7605000D02*
X22845000Y-7635000D01*
X22845000Y-9319500D02*
X22875000Y-9349500D01*
X22875000Y-9319500D02*
X22845000Y-9349500D01*
X22845000Y-9573500D02*
X22875000Y-9603500D01*
X22875000Y-9573500D02*
X22845000Y-9603500D01*
X22845000Y-9827500D02*
X22875000Y-9857500D01*
X22875000Y-9827500D02*
X22845000Y-9857500D01*
X22845000Y-10081500D02*
X22875000Y-10111500D01*
X22875000Y-10081500D02*
X22845000Y-10111500D01*
X22845000Y-10653000D02*
X22875000Y-10683000D01*
X22875000Y-10653000D02*
X22845000Y-10683000D01*
X22845000Y-10907000D02*
X22875000Y-10937000D01*
X22875000Y-10907000D02*
X22845000Y-10937000D01*
X22845000Y-12050000D02*
X22875000Y-12080000D01*
X22875000Y-12050000D02*
X22845000Y-12080000D01*
X22845000Y-12304000D02*
X22875000Y-12334000D01*
X22875000Y-12304000D02*
X22845000Y-12334000D01*
X22845000Y-12558000D02*
X22875000Y-12588000D01*
X22875000Y-12558000D02*
X22845000Y-12588000D01*
X22845000Y-12812000D02*
X22875000Y-12842000D01*
X22875000Y-12812000D02*
X22845000Y-12842000D01*
X22845000Y-12875500D02*
X22875000Y-12905500D01*
X22875000Y-12875500D02*
X22845000Y-12905500D01*
X22845000Y-13447000D02*
X22875000Y-13477000D01*
X22875000Y-13447000D02*
X22845000Y-13477000D01*
X22908500Y-7732000D02*
X22938500Y-7762000D01*
X22938500Y-7732000D02*
X22908500Y-7762000D01*
X22931360Y-11274280D02*
X22961360Y-11304280D01*
X22961360Y-11274280D02*
X22931360Y-11304280D01*
X22933900Y-13092920D02*
X22963900Y-13122920D01*
X22963900Y-13092920D02*
X22933900Y-13122920D01*
X22936440Y-8571720D02*
X22966440Y-8601720D01*
X22966440Y-8571720D02*
X22936440Y-8601720D01*
X22936440Y-8571720D02*
X22966440Y-8601720D01*
X22966440Y-8571720D02*
X22936440Y-8601720D01*
X22938980Y-10390360D02*
X22968980Y-10420360D01*
X22968980Y-10390360D02*
X22938980Y-10420360D01*
X22938980Y-10390360D02*
X22968980Y-10420360D01*
X22968980Y-10390360D02*
X22938980Y-10420360D01*
X22972000Y-7859000D02*
X23002000Y-7889000D01*
X23002000Y-7859000D02*
X22972000Y-7889000D01*
X22972000Y-8240000D02*
X23002000Y-8270000D01*
X23002000Y-8240000D02*
X22972000Y-8270000D01*
X22972000Y-10780000D02*
X23002000Y-10810000D01*
X23002000Y-10780000D02*
X22972000Y-10810000D01*
X22972000Y-13320000D02*
X23002000Y-13350000D01*
X23002000Y-13320000D02*
X22972000Y-13350000D01*
X22972000Y-13574000D02*
X23002000Y-13604000D01*
X23002000Y-13574000D02*
X22972000Y-13604000D01*
X22997400Y-11378420D02*
X23027400Y-11408420D01*
X23027400Y-11378420D02*
X22997400Y-11408420D01*
X22997400Y-11505420D02*
X23027400Y-11535420D01*
X23027400Y-11505420D02*
X22997400Y-11535420D01*
X22997400Y-11632420D02*
X23027400Y-11662420D01*
X23027400Y-11632420D02*
X22997400Y-11662420D01*
X22997400Y-12140420D02*
X23027400Y-12170420D01*
X23027400Y-12140420D02*
X22997400Y-12170420D01*
X22997400Y-12267420D02*
X23027400Y-12297420D01*
X23027400Y-12267420D02*
X22997400Y-12297420D01*
X22997400Y-12775420D02*
X23027400Y-12805420D01*
X23027400Y-12775420D02*
X22997400Y-12805420D01*
X22997400Y-12902420D02*
X23027400Y-12932420D01*
X23027400Y-12902420D02*
X22997400Y-12932420D01*
X22997400Y-13029420D02*
X23027400Y-13059420D01*
X23027400Y-13029420D02*
X22997400Y-13059420D01*
X23002480Y-8675860D02*
X23032480Y-8705860D01*
X23032480Y-8675860D02*
X23002480Y-8705860D01*
X23002480Y-8675860D02*
X23032480Y-8705860D01*
X23032480Y-8675860D02*
X23002480Y-8705860D01*
X23002480Y-8802860D02*
X23032480Y-8832860D01*
X23032480Y-8802860D02*
X23002480Y-8832860D01*
X23002480Y-8802860D02*
X23032480Y-8832860D01*
X23032480Y-8802860D02*
X23002480Y-8832860D01*
X23002480Y-8929860D02*
X23032480Y-8959860D01*
X23032480Y-8929860D02*
X23002480Y-8959860D01*
X23002480Y-8929860D02*
X23032480Y-8959860D01*
X23032480Y-8929860D02*
X23002480Y-8959860D01*
X23002480Y-9437860D02*
X23032480Y-9467860D01*
X23032480Y-9437860D02*
X23002480Y-9467860D01*
X23002480Y-9437860D02*
X23032480Y-9467860D01*
X23032480Y-9437860D02*
X23002480Y-9467860D01*
X23002480Y-9564860D02*
X23032480Y-9594860D01*
X23032480Y-9564860D02*
X23002480Y-9594860D01*
X23002480Y-9564860D02*
X23032480Y-9594860D01*
X23032480Y-9564860D02*
X23002480Y-9594860D01*
X23002480Y-10072860D02*
X23032480Y-10102860D01*
X23032480Y-10072860D02*
X23002480Y-10102860D01*
X23002480Y-10072860D02*
X23032480Y-10102860D01*
X23032480Y-10072860D02*
X23002480Y-10102860D01*
X23002480Y-10199860D02*
X23032480Y-10229860D01*
X23032480Y-10199860D02*
X23002480Y-10229860D01*
X23002480Y-10199860D02*
X23032480Y-10229860D01*
X23032480Y-10199860D02*
X23002480Y-10229860D01*
X23002480Y-10326860D02*
X23032480Y-10356860D01*
X23032480Y-10326860D02*
X23002480Y-10356860D01*
X23002480Y-10326860D02*
X23032480Y-10356860D01*
X23032480Y-10326860D02*
X23002480Y-10356860D01*
X23035500Y-7605000D02*
X23065500Y-7635000D01*
X23065500Y-7605000D02*
X23035500Y-7635000D01*
X23099000Y-7732000D02*
X23129000Y-7762000D01*
X23129000Y-7732000D02*
X23099000Y-7762000D01*
X23099000Y-10653000D02*
X23129000Y-10683000D01*
X23129000Y-10653000D02*
X23099000Y-10683000D01*
X23099000Y-10907000D02*
X23129000Y-10937000D01*
X23129000Y-10907000D02*
X23099000Y-10937000D01*
X23099000Y-13447000D02*
X23129000Y-13477000D01*
X23129000Y-13447000D02*
X23099000Y-13477000D01*
X23162500Y-7859000D02*
X23192500Y-7889000D01*
X23192500Y-7859000D02*
X23162500Y-7889000D01*
X23162500Y-8240000D02*
X23192500Y-8270000D01*
X23192500Y-8240000D02*
X23162500Y-8270000D01*
X23226000Y-7605000D02*
X23256000Y-7635000D01*
X23256000Y-7605000D02*
X23226000Y-7635000D01*
X23226000Y-10780000D02*
X23256000Y-10810000D01*
X23256000Y-10780000D02*
X23226000Y-10810000D01*
X23226000Y-13320000D02*
X23256000Y-13350000D01*
X23256000Y-13320000D02*
X23226000Y-13350000D01*
X23226000Y-13574000D02*
X23256000Y-13604000D01*
X23256000Y-13574000D02*
X23226000Y-13604000D01*
X23289500Y-7732000D02*
X23319500Y-7762000D01*
X23319500Y-7732000D02*
X23289500Y-7762000D01*
X23353000Y-7859000D02*
X23383000Y-7889000D01*
X23383000Y-7859000D02*
X23353000Y-7889000D01*
X23353000Y-8240000D02*
X23383000Y-8270000D01*
X23383000Y-8240000D02*
X23353000Y-8270000D01*
X23353000Y-10145000D02*
X23383000Y-10175000D01*
X23383000Y-10145000D02*
X23353000Y-10175000D01*
X23353000Y-10399000D02*
X23383000Y-10429000D01*
X23383000Y-10399000D02*
X23353000Y-10429000D01*
X23353000Y-10653000D02*
X23383000Y-10683000D01*
X23383000Y-10653000D02*
X23353000Y-10683000D01*
X23353000Y-10907000D02*
X23383000Y-10937000D01*
X23383000Y-10907000D02*
X23353000Y-10937000D01*
X23353000Y-12939000D02*
X23383000Y-12969000D01*
X23383000Y-12939000D02*
X23353000Y-12969000D01*
X23353000Y-13193000D02*
X23383000Y-13223000D01*
X23383000Y-13193000D02*
X23353000Y-13223000D01*
X23353000Y-13447000D02*
X23383000Y-13477000D01*
X23383000Y-13447000D02*
X23353000Y-13477000D01*
X23416500Y-7605000D02*
X23446500Y-7635000D01*
X23446500Y-7605000D02*
X23416500Y-7635000D01*
X23480000Y-7732000D02*
X23510000Y-7762000D01*
X23510000Y-7732000D02*
X23480000Y-7762000D01*
X23480000Y-10272000D02*
X23510000Y-10302000D01*
X23510000Y-10272000D02*
X23480000Y-10302000D01*
X23480000Y-10526000D02*
X23510000Y-10556000D01*
X23510000Y-10526000D02*
X23480000Y-10556000D01*
X23480000Y-10780000D02*
X23510000Y-10810000D01*
X23510000Y-10780000D02*
X23480000Y-10810000D01*
X23480000Y-12812000D02*
X23510000Y-12842000D01*
X23510000Y-12812000D02*
X23480000Y-12842000D01*
X23480000Y-13066000D02*
X23510000Y-13096000D01*
X23510000Y-13066000D02*
X23480000Y-13096000D01*
X23480000Y-13320000D02*
X23510000Y-13350000D01*
X23510000Y-13320000D02*
X23480000Y-13350000D01*
X23480000Y-13574000D02*
X23510000Y-13604000D01*
X23510000Y-13574000D02*
X23480000Y-13604000D01*
X23543500Y-8240000D02*
X23573500Y-8270000D01*
X23573500Y-8240000D02*
X23543500Y-8270000D01*
X23607000Y-7605000D02*
X23637000Y-7635000D01*
X23637000Y-7605000D02*
X23607000Y-7635000D01*
X23607000Y-10145000D02*
X23637000Y-10175000D01*
X23637000Y-10145000D02*
X23607000Y-10175000D01*
X23607000Y-10399000D02*
X23637000Y-10429000D01*
X23637000Y-10399000D02*
X23607000Y-10429000D01*
X23607000Y-10653000D02*
X23637000Y-10683000D01*
X23637000Y-10653000D02*
X23607000Y-10683000D01*
X23607000Y-10907000D02*
X23637000Y-10937000D01*
X23637000Y-10907000D02*
X23607000Y-10937000D01*
X23607000Y-12939000D02*
X23637000Y-12969000D01*
X23637000Y-12939000D02*
X23607000Y-12969000D01*
X23607000Y-13193000D02*
X23637000Y-13223000D01*
X23637000Y-13193000D02*
X23607000Y-13223000D01*
X23607000Y-13447000D02*
X23637000Y-13477000D01*
X23637000Y-13447000D02*
X23607000Y-13477000D01*
X23734000Y-8240000D02*
X23764000Y-8270000D01*
X23764000Y-8240000D02*
X23734000Y-8270000D01*
X23734000Y-10272000D02*
X23764000Y-10302000D01*
X23764000Y-10272000D02*
X23734000Y-10302000D01*
X23734000Y-10526000D02*
X23764000Y-10556000D01*
X23764000Y-10526000D02*
X23734000Y-10556000D01*
X23734000Y-10780000D02*
X23764000Y-10810000D01*
X23764000Y-10780000D02*
X23734000Y-10810000D01*
X23734000Y-12812000D02*
X23764000Y-12842000D01*
X23764000Y-12812000D02*
X23734000Y-12842000D01*
X23734000Y-13066000D02*
X23764000Y-13096000D01*
X23764000Y-13066000D02*
X23734000Y-13096000D01*
X23734000Y-13320000D02*
X23764000Y-13350000D01*
X23764000Y-13320000D02*
X23734000Y-13350000D01*
X23734000Y-13574000D02*
X23764000Y-13604000D01*
X23764000Y-13574000D02*
X23734000Y-13604000D01*
X23861000Y-10145000D02*
X23891000Y-10175000D01*
X23891000Y-10145000D02*
X23861000Y-10175000D01*
X23861000Y-10399000D02*
X23891000Y-10429000D01*
X23891000Y-10399000D02*
X23861000Y-10429000D01*
X23861000Y-10653000D02*
X23891000Y-10683000D01*
X23891000Y-10653000D02*
X23861000Y-10683000D01*
X23861000Y-10907000D02*
X23891000Y-10937000D01*
X23891000Y-10907000D02*
X23861000Y-10937000D01*
X23861000Y-12939000D02*
X23891000Y-12969000D01*
X23891000Y-12939000D02*
X23861000Y-12969000D01*
X23861000Y-13193000D02*
X23891000Y-13223000D01*
X23891000Y-13193000D02*
X23861000Y-13223000D01*
X23861000Y-13447000D02*
X23891000Y-13477000D01*
X23891000Y-13447000D02*
X23861000Y-13477000D01*
X23924500Y-8240000D02*
X23954500Y-8270000D01*
X23954500Y-8240000D02*
X23924500Y-8270000D01*
X23988000Y-8113000D02*
X24018000Y-8143000D01*
X24018000Y-8113000D02*
X23988000Y-8143000D01*
X23988000Y-9002000D02*
X24018000Y-9032000D01*
X24018000Y-9002000D02*
X23988000Y-9032000D01*
X23988000Y-9256000D02*
X24018000Y-9286000D01*
X24018000Y-9256000D02*
X23988000Y-9286000D01*
X23988000Y-10272000D02*
X24018000Y-10302000D01*
X24018000Y-10272000D02*
X23988000Y-10302000D01*
X23988000Y-10526000D02*
X24018000Y-10556000D01*
X24018000Y-10526000D02*
X23988000Y-10556000D01*
X23988000Y-10780000D02*
X24018000Y-10810000D01*
X24018000Y-10780000D02*
X23988000Y-10810000D01*
X23988000Y-11796000D02*
X24018000Y-11826000D01*
X24018000Y-11796000D02*
X23988000Y-11826000D01*
X23988000Y-12050000D02*
X24018000Y-12080000D01*
X24018000Y-12050000D02*
X23988000Y-12080000D01*
X23988000Y-12812000D02*
X24018000Y-12842000D01*
X24018000Y-12812000D02*
X23988000Y-12842000D01*
X23988000Y-13066000D02*
X24018000Y-13096000D01*
X24018000Y-13066000D02*
X23988000Y-13096000D01*
X23988000Y-13320000D02*
X24018000Y-13350000D01*
X24018000Y-13320000D02*
X23988000Y-13350000D01*
X24115000Y-7986000D02*
X24145000Y-8016000D01*
X24145000Y-7986000D02*
X24115000Y-8016000D01*
X24115000Y-8240000D02*
X24145000Y-8270000D01*
X24145000Y-8240000D02*
X24115000Y-8270000D01*
X24115000Y-9129000D02*
X24145000Y-9159000D01*
X24145000Y-9129000D02*
X24115000Y-9159000D01*
X24115000Y-9383000D02*
X24145000Y-9413000D01*
X24145000Y-9383000D02*
X24115000Y-9413000D01*
X24115000Y-10145000D02*
X24145000Y-10175000D01*
X24145000Y-10145000D02*
X24115000Y-10175000D01*
X24115000Y-10399000D02*
X24145000Y-10429000D01*
X24145000Y-10399000D02*
X24115000Y-10429000D01*
X24115000Y-10653000D02*
X24145000Y-10683000D01*
X24145000Y-10653000D02*
X24115000Y-10683000D01*
X24115000Y-10907000D02*
X24145000Y-10937000D01*
X24145000Y-10907000D02*
X24115000Y-10937000D01*
X24115000Y-11669000D02*
X24145000Y-11699000D01*
X24145000Y-11669000D02*
X24115000Y-11699000D01*
X24115000Y-11923000D02*
X24145000Y-11953000D01*
X24145000Y-11923000D02*
X24115000Y-11953000D01*
X24115000Y-12939000D02*
X24145000Y-12969000D01*
X24145000Y-12939000D02*
X24115000Y-12969000D01*
X24115000Y-13193000D02*
X24145000Y-13223000D01*
X24145000Y-13193000D02*
X24115000Y-13223000D01*
X24115000Y-13447000D02*
X24145000Y-13477000D01*
X24145000Y-13447000D02*
X24115000Y-13477000D01*
X24178500Y-8113000D02*
X24208500Y-8143000D01*
X24208500Y-8113000D02*
X24178500Y-8143000D01*
X24242000Y-9002000D02*
X24272000Y-9032000D01*
X24272000Y-9002000D02*
X24242000Y-9032000D01*
X24242000Y-9256000D02*
X24272000Y-9286000D01*
X24272000Y-9256000D02*
X24242000Y-9286000D01*
X24242000Y-10272000D02*
X24272000Y-10302000D01*
X24272000Y-10272000D02*
X24242000Y-10302000D01*
X24242000Y-10526000D02*
X24272000Y-10556000D01*
X24272000Y-10526000D02*
X24242000Y-10556000D01*
X24242000Y-10780000D02*
X24272000Y-10810000D01*
X24272000Y-10780000D02*
X24242000Y-10810000D01*
X24242000Y-11796000D02*
X24272000Y-11826000D01*
X24272000Y-11796000D02*
X24242000Y-11826000D01*
X24242000Y-12050000D02*
X24272000Y-12080000D01*
X24272000Y-12050000D02*
X24242000Y-12080000D01*
X24242000Y-12812000D02*
X24272000Y-12842000D01*
X24272000Y-12812000D02*
X24242000Y-12842000D01*
X24242000Y-13066000D02*
X24272000Y-13096000D01*
X24272000Y-13066000D02*
X24242000Y-13096000D01*
X24242000Y-13320000D02*
X24272000Y-13350000D01*
X24272000Y-13320000D02*
X24242000Y-13350000D01*
X24305500Y-7986000D02*
X24335500Y-8016000D01*
X24335500Y-7986000D02*
X24305500Y-8016000D01*
X24305500Y-8240000D02*
X24335500Y-8270000D01*
X24335500Y-8240000D02*
X24305500Y-8270000D01*
X24369000Y-7732000D02*
X24399000Y-7762000D01*
X24399000Y-7732000D02*
X24369000Y-7762000D01*
X24369000Y-8113000D02*
X24399000Y-8143000D01*
X24399000Y-8113000D02*
X24369000Y-8143000D01*
X24369000Y-9129000D02*
X24399000Y-9159000D01*
X24399000Y-9129000D02*
X24369000Y-9159000D01*
X24369000Y-9383000D02*
X24399000Y-9413000D01*
X24399000Y-9383000D02*
X24369000Y-9413000D01*
X24369000Y-10145000D02*
X24399000Y-10175000D01*
X24399000Y-10145000D02*
X24369000Y-10175000D01*
X24369000Y-10399000D02*
X24399000Y-10429000D01*
X24399000Y-10399000D02*
X24369000Y-10429000D01*
X24369000Y-10653000D02*
X24399000Y-10683000D01*
X24399000Y-10653000D02*
X24369000Y-10683000D01*
X24369000Y-10907000D02*
X24399000Y-10937000D01*
X24399000Y-10907000D02*
X24369000Y-10937000D01*
X24369000Y-11669000D02*
X24399000Y-11699000D01*
X24399000Y-11669000D02*
X24369000Y-11699000D01*
X24369000Y-11923000D02*
X24399000Y-11953000D01*
X24399000Y-11923000D02*
X24369000Y-11953000D01*
X24369000Y-12939000D02*
X24399000Y-12969000D01*
X24399000Y-12939000D02*
X24369000Y-12969000D01*
X24369000Y-13193000D02*
X24399000Y-13223000D01*
X24399000Y-13193000D02*
X24369000Y-13223000D01*
X24369000Y-13447000D02*
X24399000Y-13477000D01*
X24399000Y-13447000D02*
X24369000Y-13477000D01*
X24496000Y-7986000D02*
X24526000Y-8016000D01*
X24526000Y-7986000D02*
X24496000Y-8016000D01*
X24496000Y-8240000D02*
X24526000Y-8270000D01*
X24526000Y-8240000D02*
X24496000Y-8270000D01*
X24496000Y-9002000D02*
X24526000Y-9032000D01*
X24526000Y-9002000D02*
X24496000Y-9032000D01*
X24496000Y-9256000D02*
X24526000Y-9286000D01*
X24526000Y-9256000D02*
X24496000Y-9286000D01*
X24496000Y-10272000D02*
X24526000Y-10302000D01*
X24526000Y-10272000D02*
X24496000Y-10302000D01*
X24496000Y-10526000D02*
X24526000Y-10556000D01*
X24526000Y-10526000D02*
X24496000Y-10556000D01*
X24496000Y-10780000D02*
X24526000Y-10810000D01*
X24526000Y-10780000D02*
X24496000Y-10810000D01*
X24496000Y-11796000D02*
X24526000Y-11826000D01*
X24526000Y-11796000D02*
X24496000Y-11826000D01*
X24496000Y-12050000D02*
X24526000Y-12080000D01*
X24526000Y-12050000D02*
X24496000Y-12080000D01*
X24496000Y-12812000D02*
X24526000Y-12842000D01*
X24526000Y-12812000D02*
X24496000Y-12842000D01*
X24496000Y-13066000D02*
X24526000Y-13096000D01*
X24526000Y-13066000D02*
X24496000Y-13096000D01*
X24496000Y-13320000D02*
X24526000Y-13350000D01*
X24526000Y-13320000D02*
X24496000Y-13350000D01*
X24559500Y-7732000D02*
X24589500Y-7762000D01*
X24589500Y-7732000D02*
X24559500Y-7762000D01*
X24623000Y-7605000D02*
X24653000Y-7635000D01*
X24653000Y-7605000D02*
X24623000Y-7635000D01*
X24623000Y-7859000D02*
X24653000Y-7889000D01*
X24653000Y-7859000D02*
X24623000Y-7889000D01*
X24623000Y-8113000D02*
X24653000Y-8143000D01*
X24653000Y-8113000D02*
X24623000Y-8143000D01*
X24623000Y-8367000D02*
X24653000Y-8397000D01*
X24653000Y-8367000D02*
X24623000Y-8397000D01*
X24623000Y-8621000D02*
X24653000Y-8651000D01*
X24653000Y-8621000D02*
X24623000Y-8651000D01*
X24623000Y-8875000D02*
X24653000Y-8905000D01*
X24653000Y-8875000D02*
X24623000Y-8905000D01*
X24623000Y-9129000D02*
X24653000Y-9159000D01*
X24653000Y-9129000D02*
X24623000Y-9159000D01*
X24623000Y-9383000D02*
X24653000Y-9413000D01*
X24653000Y-9383000D02*
X24623000Y-9413000D01*
X24623000Y-9637000D02*
X24653000Y-9667000D01*
X24653000Y-9637000D02*
X24623000Y-9667000D01*
X24623000Y-9891000D02*
X24653000Y-9921000D01*
X24653000Y-9891000D02*
X24623000Y-9921000D01*
X24623000Y-10145000D02*
X24653000Y-10175000D01*
X24653000Y-10145000D02*
X24623000Y-10175000D01*
X24623000Y-10399000D02*
X24653000Y-10429000D01*
X24653000Y-10399000D02*
X24623000Y-10429000D01*
X24623000Y-10653000D02*
X24653000Y-10683000D01*
X24653000Y-10653000D02*
X24623000Y-10683000D01*
X24623000Y-10907000D02*
X24653000Y-10937000D01*
X24653000Y-10907000D02*
X24623000Y-10937000D01*
X24623000Y-11161000D02*
X24653000Y-11191000D01*
X24653000Y-11161000D02*
X24623000Y-11191000D01*
X24623000Y-11415000D02*
X24653000Y-11445000D01*
X24653000Y-11415000D02*
X24623000Y-11445000D01*
X24623000Y-11669000D02*
X24653000Y-11699000D01*
X24653000Y-11669000D02*
X24623000Y-11699000D01*
X24623000Y-11923000D02*
X24653000Y-11953000D01*
X24653000Y-11923000D02*
X24623000Y-11953000D01*
X24623000Y-12939000D02*
X24653000Y-12969000D01*
X24653000Y-12939000D02*
X24623000Y-12969000D01*
X24623000Y-13193000D02*
X24653000Y-13223000D01*
X24653000Y-13193000D02*
X24623000Y-13223000D01*
X24623000Y-13447000D02*
X24653000Y-13477000D01*
X24653000Y-13447000D02*
X24623000Y-13477000D01*
X24750000Y-7732000D02*
X24780000Y-7762000D01*
X24780000Y-7732000D02*
X24750000Y-7762000D01*
X24750000Y-7986000D02*
X24780000Y-8016000D01*
X24780000Y-7986000D02*
X24750000Y-8016000D01*
X24750000Y-8240000D02*
X24780000Y-8270000D01*
X24780000Y-8240000D02*
X24750000Y-8270000D01*
X24750000Y-8494000D02*
X24780000Y-8524000D01*
X24780000Y-8494000D02*
X24750000Y-8524000D01*
X24750000Y-8748000D02*
X24780000Y-8778000D01*
X24780000Y-8748000D02*
X24750000Y-8778000D01*
X24750000Y-9002000D02*
X24780000Y-9032000D01*
X24780000Y-9002000D02*
X24750000Y-9032000D01*
X24750000Y-9256000D02*
X24780000Y-9286000D01*
X24780000Y-9256000D02*
X24750000Y-9286000D01*
X24750000Y-9510000D02*
X24780000Y-9540000D01*
X24780000Y-9510000D02*
X24750000Y-9540000D01*
X24750000Y-9764000D02*
X24780000Y-9794000D01*
X24780000Y-9764000D02*
X24750000Y-9794000D01*
X24750000Y-10018000D02*
X24780000Y-10048000D01*
X24780000Y-10018000D02*
X24750000Y-10048000D01*
X24750000Y-10272000D02*
X24780000Y-10302000D01*
X24780000Y-10272000D02*
X24750000Y-10302000D01*
X24750000Y-10526000D02*
X24780000Y-10556000D01*
X24780000Y-10526000D02*
X24750000Y-10556000D01*
X24750000Y-10780000D02*
X24780000Y-10810000D01*
X24780000Y-10780000D02*
X24750000Y-10810000D01*
X24750000Y-11034000D02*
X24780000Y-11064000D01*
X24780000Y-11034000D02*
X24750000Y-11064000D01*
X24750000Y-11288000D02*
X24780000Y-11318000D01*
X24780000Y-11288000D02*
X24750000Y-11318000D01*
X24750000Y-11542000D02*
X24780000Y-11572000D01*
X24780000Y-11542000D02*
X24750000Y-11572000D01*
X24750000Y-11796000D02*
X24780000Y-11826000D01*
X24780000Y-11796000D02*
X24750000Y-11826000D01*
X24750000Y-12050000D02*
X24780000Y-12080000D01*
X24780000Y-12050000D02*
X24750000Y-12080000D01*
X24750000Y-12304000D02*
X24780000Y-12334000D01*
X24780000Y-12304000D02*
X24750000Y-12334000D01*
X24750000Y-12558000D02*
X24780000Y-12588000D01*
X24780000Y-12558000D02*
X24750000Y-12588000D01*
X24750000Y-12812000D02*
X24780000Y-12842000D01*
X24780000Y-12812000D02*
X24750000Y-12842000D01*
X24750000Y-13066000D02*
X24780000Y-13096000D01*
X24780000Y-13066000D02*
X24750000Y-13096000D01*
X24750000Y-13320000D02*
X24780000Y-13350000D01*
X24780000Y-13320000D02*
X24750000Y-13350000D01*
D13*
X19242400Y-10367450D02*
G75*
G03*
X19242400Y-10367450I-40000J0D01*
G01*
X19242400Y-11129450D02*
G75*
G03*
X19242400Y-11129450I-40000J0D01*
G01*
X19242400Y-12369800D02*
G75*
G03*
X19242400Y-12369800I-40000J0D01*
G01*
X19242400Y-13131800D02*
G75*
G03*
X19242400Y-13131800I-40000J0D01*
G01*
D14*
X18034000Y-7575500D02*
X18034000Y-7664500D01*
X17989500Y-7620000D02*
X18078500Y-7620000D01*
X18288000Y-7575500D02*
X18288000Y-7664500D01*
X18243500Y-7620000D02*
X18332500Y-7620000D01*
X23622000Y-11588700D02*
X23622000Y-11677700D01*
X23577500Y-11633200D02*
X23666500Y-11633200D01*
X23622000Y-11842700D02*
X23622000Y-11931700D01*
X23577500Y-11887200D02*
X23666500Y-11887200D01*
X23627080Y-8886140D02*
X23627080Y-8975140D01*
X23582580Y-8930640D02*
X23671580Y-8930640D01*
X23627080Y-9140140D02*
X23627080Y-9229140D01*
X23582580Y-9184640D02*
X23671580Y-9184640D01*
X23876000Y-7575500D02*
X23876000Y-7664500D01*
X23831500Y-7620000D02*
X23920500Y-7620000D01*
X24130000Y-7575500D02*
X24130000Y-7664500D01*
X24085500Y-7620000D02*
X24174500Y-7620000D01*
D10*
X17814676Y-9612156D02*
X17814676Y-9541444D01*
X17743964Y-9541444D01*
X17743964Y-9612156D01*
X17814676Y-9612156D01*
X17814676Y-9866156D02*
X17814676Y-9795444D01*
X17743964Y-9795444D01*
X17743964Y-9866156D01*
X17814676Y-9866156D01*
X17814676Y-10120156D02*
X17814676Y-10049444D01*
X17743964Y-10049444D01*
X17743964Y-10120156D01*
X17814676Y-10120156D01*
X17814676Y-10374156D02*
X17814676Y-10303444D01*
X17743964Y-10303444D01*
X17743964Y-10374156D01*
X17814676Y-10374156D01*
X17814676Y-10628156D02*
X17814676Y-10557444D01*
X17743964Y-10557444D01*
X17743964Y-10628156D01*
X17814676Y-10628156D01*
X17814676Y-10882156D02*
X17814676Y-10811444D01*
X17743964Y-10811444D01*
X17743964Y-10882156D01*
X17814676Y-10882156D01*
X17814676Y-11136156D02*
X17814676Y-11065444D01*
X17743964Y-11065444D01*
X17743964Y-11136156D01*
X17814676Y-11136156D01*
X17814676Y-11390156D02*
X17814676Y-11319444D01*
X17743964Y-11319444D01*
X17743964Y-11390156D01*
X17814676Y-11390156D01*
X17814676Y-11644156D02*
X17814676Y-11573444D01*
X17743964Y-11573444D01*
X17743964Y-11644156D01*
X17814676Y-11644156D01*
X17814676Y-11898156D02*
X17814676Y-11827444D01*
X17743964Y-11827444D01*
X17743964Y-11898156D01*
X17814676Y-11898156D01*
X17814676Y-12152156D02*
X17814676Y-12081444D01*
X17743964Y-12081444D01*
X17743964Y-12152156D01*
X17814676Y-12152156D01*
X17814676Y-12406156D02*
X17814676Y-12335444D01*
X17743964Y-12335444D01*
X17743964Y-12406156D01*
X17814676Y-12406156D01*
X17814676Y-12660156D02*
X17814676Y-12589444D01*
X17743964Y-12589444D01*
X17743964Y-12660156D01*
X17814676Y-12660156D01*
X17814676Y-12914156D02*
X17814676Y-12843444D01*
X17743964Y-12843444D01*
X17743964Y-12914156D01*
X17814676Y-12914156D01*
X17814676Y-13168156D02*
X17814676Y-13097444D01*
X17743964Y-13097444D01*
X17743964Y-13168156D01*
X17814676Y-13168156D01*
X18069356Y-9611156D02*
X18069356Y-9540444D01*
X17998644Y-9540444D01*
X17998644Y-9611156D01*
X18069356Y-9611156D01*
X18069356Y-9865156D02*
X18069356Y-9794444D01*
X17998644Y-9794444D01*
X17998644Y-9865156D01*
X18069356Y-9865156D01*
X18069356Y-10119156D02*
X18069356Y-10048444D01*
X17998644Y-10048444D01*
X17998644Y-10119156D01*
X18069356Y-10119156D01*
X18069356Y-10373156D02*
X18069356Y-10302444D01*
X17998644Y-10302444D01*
X17998644Y-10373156D01*
X18069356Y-10373156D01*
X18069356Y-10627156D02*
X18069356Y-10556444D01*
X17998644Y-10556444D01*
X17998644Y-10627156D01*
X18069356Y-10627156D01*
X18069356Y-10881156D02*
X18069356Y-10810444D01*
X17998644Y-10810444D01*
X17998644Y-10881156D01*
X18069356Y-10881156D01*
X18069356Y-11135156D02*
X18069356Y-11064444D01*
X17998644Y-11064444D01*
X17998644Y-11135156D01*
X18069356Y-11135156D01*
X18069356Y-11389156D02*
X18069356Y-11318444D01*
X17998644Y-11318444D01*
X17998644Y-11389156D01*
X18069356Y-11389156D01*
X18069356Y-11643156D02*
X18069356Y-11572444D01*
X17998644Y-11572444D01*
X17998644Y-11643156D01*
X18069356Y-11643156D01*
X18069356Y-11897156D02*
X18069356Y-11826444D01*
X17998644Y-11826444D01*
X17998644Y-11897156D01*
X18069356Y-11897156D01*
X18069356Y-12151156D02*
X18069356Y-12080444D01*
X17998644Y-12080444D01*
X17998644Y-12151156D01*
X18069356Y-12151156D01*
X18069356Y-12405156D02*
X18069356Y-12334444D01*
X17998644Y-12334444D01*
X17998644Y-12405156D01*
X18069356Y-12405156D01*
X18069356Y-12659156D02*
X18069356Y-12588444D01*
X17998644Y-12588444D01*
X17998644Y-12659156D01*
X18069356Y-12659156D01*
X18069356Y-12913156D02*
X18069356Y-12842444D01*
X17998644Y-12842444D01*
X17998644Y-12913156D01*
X18069356Y-12913156D01*
X18069356Y-13167156D02*
X18069356Y-13096444D01*
X17998644Y-13096444D01*
X17998644Y-13167156D01*
X18069356Y-13167156D01*
X19466356Y-6702856D02*
X19466356Y-6632144D01*
X19395644Y-6632144D01*
X19395644Y-6702856D01*
X19466356Y-6702856D01*
X19466356Y-6956906D02*
X19466356Y-6886194D01*
X19395644Y-6886194D01*
X19395644Y-6956906D01*
X19466356Y-6956906D01*
X19720356Y-6702856D02*
X19720356Y-6632144D01*
X19649644Y-6632144D01*
X19649644Y-6702856D01*
X19720356Y-6702856D01*
X19720356Y-6956906D02*
X19720356Y-6886194D01*
X19649644Y-6886194D01*
X19649644Y-6956906D01*
X19720356Y-6956906D01*
X19974356Y-6702856D02*
X19974356Y-6632144D01*
X19903644Y-6632144D01*
X19903644Y-6702856D01*
X19974356Y-6702856D01*
X19974356Y-6956906D02*
X19974356Y-6886194D01*
X19903644Y-6886194D01*
X19903644Y-6956906D01*
X19974356Y-6956906D01*
X20228356Y-6702856D02*
X20228356Y-6632144D01*
X20157644Y-6632144D01*
X20157644Y-6702856D01*
X20228356Y-6702856D01*
X20228356Y-6956906D02*
X20228356Y-6886194D01*
X20157644Y-6886194D01*
X20157644Y-6956906D01*
X20228356Y-6956906D01*
X20482356Y-6702856D02*
X20482356Y-6632144D01*
X20411644Y-6632144D01*
X20411644Y-6702856D01*
X20482356Y-6702856D01*
X20482356Y-6956906D02*
X20482356Y-6886194D01*
X20411644Y-6886194D01*
X20411644Y-6956906D01*
X20482356Y-6956906D01*
X20736356Y-6702856D02*
X20736356Y-6632144D01*
X20665644Y-6632144D01*
X20665644Y-6702856D01*
X20736356Y-6702856D01*
X20736356Y-6956906D02*
X20736356Y-6886194D01*
X20665644Y-6886194D01*
X20665644Y-6956906D01*
X20736356Y-6956906D01*
X20990356Y-6702856D02*
X20990356Y-6632144D01*
X20919644Y-6632144D01*
X20919644Y-6702856D01*
X20990356Y-6702856D01*
X20990356Y-6956906D02*
X20990356Y-6886194D01*
X20919644Y-6886194D01*
X20919644Y-6956906D01*
X20990356Y-6956906D01*
X21244356Y-6702856D02*
X21244356Y-6632144D01*
X21173644Y-6632144D01*
X21173644Y-6702856D01*
X21244356Y-6702856D01*
X21244356Y-6956906D02*
X21244356Y-6886194D01*
X21173644Y-6886194D01*
X21173644Y-6956906D01*
X21244356Y-6956906D01*
X21498356Y-6702856D02*
X21498356Y-6632144D01*
X21427644Y-6632144D01*
X21427644Y-6702856D01*
X21498356Y-6702856D01*
X21498356Y-6956906D02*
X21498356Y-6886194D01*
X21427644Y-6886194D01*
X21427644Y-6956906D01*
X21498356Y-6956906D01*
X21752356Y-6702856D02*
X21752356Y-6632144D01*
X21681644Y-6632144D01*
X21681644Y-6702856D01*
X21752356Y-6702856D01*
X21752356Y-6956906D02*
X21752356Y-6886194D01*
X21681644Y-6886194D01*
X21681644Y-6956906D01*
X21752356Y-6956906D01*
X22006356Y-6702856D02*
X22006356Y-6632144D01*
X21935644Y-6632144D01*
X21935644Y-6702856D01*
X22006356Y-6702856D01*
X22006356Y-6956906D02*
X22006356Y-6886194D01*
X21935644Y-6886194D01*
X21935644Y-6956906D01*
X22006356Y-6956906D01*
X22260356Y-6702856D02*
X22260356Y-6632144D01*
X22189644Y-6632144D01*
X22189644Y-6702856D01*
X22260356Y-6702856D01*
X22260356Y-6956906D02*
X22260356Y-6886194D01*
X22189644Y-6886194D01*
X22189644Y-6956906D01*
X22260356Y-6956906D01*
X22514356Y-6702856D02*
X22514356Y-6632144D01*
X22443644Y-6632144D01*
X22443644Y-6702856D01*
X22514356Y-6702856D01*
X22514356Y-6956906D02*
X22514356Y-6886194D01*
X22443644Y-6886194D01*
X22443644Y-6956906D01*
X22514356Y-6956906D01*
X22768356Y-6702856D02*
X22768356Y-6632144D01*
X22697644Y-6632144D01*
X22697644Y-6702856D01*
X22768356Y-6702856D01*
X22768356Y-6956906D02*
X22768356Y-6886194D01*
X22697644Y-6886194D01*
X22697644Y-6956906D01*
X22768356Y-6956906D01*
X23022356Y-6702856D02*
X23022356Y-6632144D01*
X22951644Y-6632144D01*
X22951644Y-6702856D01*
X23022356Y-6702856D01*
X23022356Y-6956906D02*
X23022356Y-6886194D01*
X22951644Y-6886194D01*
X22951644Y-6956906D01*
X23022356Y-6956906D01*
D15*
X17780000Y-7212500D02*
X17880500Y-7112000D01*
X17780000Y-7011500D01*
X17679500Y-7112000D01*
X17780000Y-7212500D01*
X18796000Y-7212500D02*
X18896500Y-7112000D01*
X18796000Y-7011500D01*
X18695500Y-7112000D01*
X18796000Y-7212500D01*
X23622000Y-7212500D02*
X23722500Y-7112000D01*
X23622000Y-7011500D01*
X23521500Y-7112000D01*
X23622000Y-7212500D01*
X24130000Y-11479700D02*
X24230500Y-11379200D01*
X24130000Y-11278700D01*
X24029500Y-11379200D01*
X24130000Y-11479700D01*
X24130000Y-12495700D02*
X24230500Y-12395200D01*
X24130000Y-12294700D01*
X24029500Y-12395200D01*
X24130000Y-12495700D01*
X24135080Y-8777140D02*
X24235580Y-8676640D01*
X24135080Y-8576140D01*
X24034580Y-8676640D01*
X24135080Y-8777140D01*
X24135080Y-9793140D02*
X24235580Y-9692640D01*
X24135080Y-9592140D01*
X24034580Y-9692640D01*
X24135080Y-9793140D01*
X24638000Y-7212500D02*
X24738500Y-7112000D01*
X24638000Y-7011500D01*
X24537500Y-7112000D01*
X24638000Y-7212500D01*
D11*
X17668777Y-13999484D02*
X17668777Y-13799484D01*
X17668777Y-13799484D02*
X17716396Y-13799484D01*
X17716396Y-13799484D02*
X17744967Y-13809008D01*
X17744967Y-13809008D02*
X17764015Y-13828055D01*
X17764015Y-13828055D02*
X17773539Y-13847103D01*
X17773539Y-13847103D02*
X17783063Y-13885198D01*
X17783063Y-13885198D02*
X17783063Y-13913769D01*
X17783063Y-13913769D02*
X17773539Y-13951865D01*
X17773539Y-13951865D02*
X17764015Y-13970912D01*
X17764015Y-13970912D02*
X17744967Y-13989960D01*
X17744967Y-13989960D02*
X17716396Y-13999484D01*
X17716396Y-13999484D02*
X17668777Y-13999484D01*
X17868777Y-13999484D02*
X17868777Y-13866150D01*
X17868777Y-13904246D02*
X17878301Y-13885198D01*
X17878301Y-13885198D02*
X17887824Y-13875674D01*
X17887824Y-13875674D02*
X17906872Y-13866150D01*
X17906872Y-13866150D02*
X17925920Y-13866150D01*
X17992586Y-13999484D02*
X17992586Y-13866150D01*
X17992586Y-13799484D02*
X17983063Y-13809008D01*
X17983063Y-13809008D02*
X17992586Y-13818531D01*
X17992586Y-13818531D02*
X18002110Y-13809008D01*
X18002110Y-13809008D02*
X17992586Y-13799484D01*
X17992586Y-13799484D02*
X17992586Y-13818531D01*
X18116396Y-13999484D02*
X18097348Y-13989960D01*
X18097348Y-13989960D02*
X18087824Y-13970912D01*
X18087824Y-13970912D02*
X18087824Y-13799484D01*
X18221158Y-13999484D02*
X18202110Y-13989960D01*
X18202110Y-13989960D02*
X18192586Y-13970912D01*
X18192586Y-13970912D02*
X18192586Y-13799484D01*
X18449729Y-13999484D02*
X18449729Y-13799484D01*
X18449729Y-13799484D02*
X18516396Y-13942341D01*
X18516396Y-13942341D02*
X18583063Y-13799484D01*
X18583063Y-13799484D02*
X18583063Y-13999484D01*
X18764015Y-13999484D02*
X18764015Y-13894722D01*
X18764015Y-13894722D02*
X18754491Y-13875674D01*
X18754491Y-13875674D02*
X18735444Y-13866150D01*
X18735444Y-13866150D02*
X18697348Y-13866150D01*
X18697348Y-13866150D02*
X18678301Y-13875674D01*
X18764015Y-13989960D02*
X18744967Y-13999484D01*
X18744967Y-13999484D02*
X18697348Y-13999484D01*
X18697348Y-13999484D02*
X18678301Y-13989960D01*
X18678301Y-13989960D02*
X18668777Y-13970912D01*
X18668777Y-13970912D02*
X18668777Y-13951865D01*
X18668777Y-13951865D02*
X18678301Y-13932817D01*
X18678301Y-13932817D02*
X18697348Y-13923293D01*
X18697348Y-13923293D02*
X18744967Y-13923293D01*
X18744967Y-13923293D02*
X18764015Y-13913769D01*
X18859253Y-13866150D02*
X18859253Y-14066150D01*
X18859253Y-13875674D02*
X18878301Y-13866150D01*
X18878301Y-13866150D02*
X18916396Y-13866150D01*
X18916396Y-13866150D02*
X18935444Y-13875674D01*
X18935444Y-13875674D02*
X18944967Y-13885198D01*
X18944967Y-13885198D02*
X18954491Y-13904246D01*
X18954491Y-13904246D02*
X18954491Y-13961388D01*
X18954491Y-13961388D02*
X18944967Y-13980436D01*
X18944967Y-13980436D02*
X18935444Y-13989960D01*
X18935444Y-13989960D02*
X18916396Y-13999484D01*
X18916396Y-13999484D02*
X18878301Y-13999484D01*
X18878301Y-13999484D02*
X18859253Y-13989960D01*
X19040205Y-13980436D02*
X19049729Y-13989960D01*
X19049729Y-13989960D02*
X19040205Y-13999484D01*
X19040205Y-13999484D02*
X19030682Y-13989960D01*
X19030682Y-13989960D02*
X19040205Y-13980436D01*
X19040205Y-13980436D02*
X19040205Y-13999484D01*
X19040205Y-13875674D02*
X19049729Y-13885198D01*
X19049729Y-13885198D02*
X19040205Y-13894722D01*
X19040205Y-13894722D02*
X19030682Y-13885198D01*
X19030682Y-13885198D02*
X19040205Y-13875674D01*
X19040205Y-13875674D02*
X19040205Y-13894722D01*
D12*
X17378000Y-14313000D02*
X17408000Y-14343000D01*
X17408000Y-14313000D02*
X17378000Y-14343000D01*
D11*
X17706872Y-14219484D02*
X17725920Y-14219484D01*
X17725920Y-14219484D02*
X17744967Y-14229008D01*
X17744967Y-14229008D02*
X17754491Y-14238531D01*
X17754491Y-14238531D02*
X17764015Y-14257579D01*
X17764015Y-14257579D02*
X17773539Y-14295674D01*
X17773539Y-14295674D02*
X17773539Y-14343293D01*
X17773539Y-14343293D02*
X17764015Y-14381388D01*
X17764015Y-14381388D02*
X17754491Y-14400436D01*
X17754491Y-14400436D02*
X17744967Y-14409960D01*
X17744967Y-14409960D02*
X17725920Y-14419484D01*
X17725920Y-14419484D02*
X17706872Y-14419484D01*
X17706872Y-14419484D02*
X17687824Y-14409960D01*
X17687824Y-14409960D02*
X17678301Y-14400436D01*
X17678301Y-14400436D02*
X17668777Y-14381388D01*
X17668777Y-14381388D02*
X17659253Y-14343293D01*
X17659253Y-14343293D02*
X17659253Y-14295674D01*
X17659253Y-14295674D02*
X17668777Y-14257579D01*
X17668777Y-14257579D02*
X17678301Y-14238531D01*
X17678301Y-14238531D02*
X17687824Y-14229008D01*
X17687824Y-14229008D02*
X17706872Y-14219484D01*
X17859253Y-14400436D02*
X17868777Y-14409960D01*
X17868777Y-14409960D02*
X17859253Y-14419484D01*
X17859253Y-14419484D02*
X17849729Y-14409960D01*
X17849729Y-14409960D02*
X17859253Y-14400436D01*
X17859253Y-14400436D02*
X17859253Y-14419484D01*
X17935444Y-14219484D02*
X18059253Y-14219484D01*
X18059253Y-14219484D02*
X17992586Y-14295674D01*
X17992586Y-14295674D02*
X18021158Y-14295674D01*
X18021158Y-14295674D02*
X18040205Y-14305198D01*
X18040205Y-14305198D02*
X18049729Y-14314722D01*
X18049729Y-14314722D02*
X18059253Y-14333769D01*
X18059253Y-14333769D02*
X18059253Y-14381388D01*
X18059253Y-14381388D02*
X18049729Y-14400436D01*
X18049729Y-14400436D02*
X18040205Y-14409960D01*
X18040205Y-14409960D02*
X18021158Y-14419484D01*
X18021158Y-14419484D02*
X17964015Y-14419484D01*
X17964015Y-14419484D02*
X17944967Y-14409960D01*
X17944967Y-14409960D02*
X17935444Y-14400436D01*
X18183063Y-14219484D02*
X18202110Y-14219484D01*
X18202110Y-14219484D02*
X18221158Y-14229008D01*
X18221158Y-14229008D02*
X18230682Y-14238531D01*
X18230682Y-14238531D02*
X18240205Y-14257579D01*
X18240205Y-14257579D02*
X18249729Y-14295674D01*
X18249729Y-14295674D02*
X18249729Y-14343293D01*
X18249729Y-14343293D02*
X18240205Y-14381388D01*
X18240205Y-14381388D02*
X18230682Y-14400436D01*
X18230682Y-14400436D02*
X18221158Y-14409960D01*
X18221158Y-14409960D02*
X18202110Y-14419484D01*
X18202110Y-14419484D02*
X18183063Y-14419484D01*
X18183063Y-14419484D02*
X18164015Y-14409960D01*
X18164015Y-14409960D02*
X18154491Y-14400436D01*
X18154491Y-14400436D02*
X18144967Y-14381388D01*
X18144967Y-14381388D02*
X18135444Y-14343293D01*
X18135444Y-14343293D02*
X18135444Y-14295674D01*
X18135444Y-14295674D02*
X18144967Y-14257579D01*
X18144967Y-14257579D02*
X18154491Y-14238531D01*
X18154491Y-14238531D02*
X18164015Y-14229008D01*
X18164015Y-14229008D02*
X18183063Y-14219484D01*
X18373539Y-14219484D02*
X18392586Y-14219484D01*
X18392586Y-14219484D02*
X18411634Y-14229008D01*
X18411634Y-14229008D02*
X18421158Y-14238531D01*
X18421158Y-14238531D02*
X18430682Y-14257579D01*
X18430682Y-14257579D02*
X18440205Y-14295674D01*
X18440205Y-14295674D02*
X18440205Y-14343293D01*
X18440205Y-14343293D02*
X18430682Y-14381388D01*
X18430682Y-14381388D02*
X18421158Y-14400436D01*
X18421158Y-14400436D02*
X18411634Y-14409960D01*
X18411634Y-14409960D02*
X18392586Y-14419484D01*
X18392586Y-14419484D02*
X18373539Y-14419484D01*
X18373539Y-14419484D02*
X18354491Y-14409960D01*
X18354491Y-14409960D02*
X18344967Y-14400436D01*
X18344967Y-14400436D02*
X18335444Y-14381388D01*
X18335444Y-14381388D02*
X18325920Y-14343293D01*
X18325920Y-14343293D02*
X18325920Y-14295674D01*
X18325920Y-14295674D02*
X18335444Y-14257579D01*
X18335444Y-14257579D02*
X18344967Y-14238531D01*
X18344967Y-14238531D02*
X18354491Y-14229008D01*
X18354491Y-14229008D02*
X18373539Y-14219484D01*
X18525920Y-14419484D02*
X18525920Y-14286150D01*
X18525920Y-14305198D02*
X18535444Y-14295674D01*
X18535444Y-14295674D02*
X18554491Y-14286150D01*
X18554491Y-14286150D02*
X18583063Y-14286150D01*
X18583063Y-14286150D02*
X18602110Y-14295674D01*
X18602110Y-14295674D02*
X18611634Y-14314722D01*
X18611634Y-14314722D02*
X18611634Y-14419484D01*
X18611634Y-14314722D02*
X18621158Y-14295674D01*
X18621158Y-14295674D02*
X18640205Y-14286150D01*
X18640205Y-14286150D02*
X18668777Y-14286150D01*
X18668777Y-14286150D02*
X18687825Y-14295674D01*
X18687825Y-14295674D02*
X18697348Y-14314722D01*
X18697348Y-14314722D02*
X18697348Y-14419484D01*
X18792586Y-14419484D02*
X18792586Y-14286150D01*
X18792586Y-14305198D02*
X18802110Y-14295674D01*
X18802110Y-14295674D02*
X18821158Y-14286150D01*
X18821158Y-14286150D02*
X18849729Y-14286150D01*
X18849729Y-14286150D02*
X18868777Y-14295674D01*
X18868777Y-14295674D02*
X18878301Y-14314722D01*
X18878301Y-14314722D02*
X18878301Y-14419484D01*
X18878301Y-14314722D02*
X18887825Y-14295674D01*
X18887825Y-14295674D02*
X18906872Y-14286150D01*
X18906872Y-14286150D02*
X18935444Y-14286150D01*
X18935444Y-14286150D02*
X18954491Y-14295674D01*
X18954491Y-14295674D02*
X18964015Y-14314722D01*
X18964015Y-14314722D02*
X18964015Y-14419484D01*
X19354491Y-14209960D02*
X19183063Y-14467103D01*
X19611634Y-14219484D02*
X19630682Y-14219484D01*
X19630682Y-14219484D02*
X19649729Y-14229008D01*
X19649729Y-14229008D02*
X19659253Y-14238531D01*
X19659253Y-14238531D02*
X19668777Y-14257579D01*
X19668777Y-14257579D02*
X19678301Y-14295674D01*
X19678301Y-14295674D02*
X19678301Y-14343293D01*
X19678301Y-14343293D02*
X19668777Y-14381388D01*
X19668777Y-14381388D02*
X19659253Y-14400436D01*
X19659253Y-14400436D02*
X19649729Y-14409960D01*
X19649729Y-14409960D02*
X19630682Y-14419484D01*
X19630682Y-14419484D02*
X19611634Y-14419484D01*
X19611634Y-14419484D02*
X19592587Y-14409960D01*
X19592587Y-14409960D02*
X19583063Y-14400436D01*
X19583063Y-14400436D02*
X19573539Y-14381388D01*
X19573539Y-14381388D02*
X19564015Y-14343293D01*
X19564015Y-14343293D02*
X19564015Y-14295674D01*
X19564015Y-14295674D02*
X19573539Y-14257579D01*
X19573539Y-14257579D02*
X19583063Y-14238531D01*
X19583063Y-14238531D02*
X19592587Y-14229008D01*
X19592587Y-14229008D02*
X19611634Y-14219484D01*
X19764015Y-14400436D02*
X19773539Y-14409960D01*
X19773539Y-14409960D02*
X19764015Y-14419484D01*
X19764015Y-14419484D02*
X19754491Y-14409960D01*
X19754491Y-14409960D02*
X19764015Y-14400436D01*
X19764015Y-14400436D02*
X19764015Y-14419484D01*
X19897348Y-14219484D02*
X19916396Y-14219484D01*
X19916396Y-14219484D02*
X19935444Y-14229008D01*
X19935444Y-14229008D02*
X19944968Y-14238531D01*
X19944968Y-14238531D02*
X19954491Y-14257579D01*
X19954491Y-14257579D02*
X19964015Y-14295674D01*
X19964015Y-14295674D02*
X19964015Y-14343293D01*
X19964015Y-14343293D02*
X19954491Y-14381388D01*
X19954491Y-14381388D02*
X19944968Y-14400436D01*
X19944968Y-14400436D02*
X19935444Y-14409960D01*
X19935444Y-14409960D02*
X19916396Y-14419484D01*
X19916396Y-14419484D02*
X19897348Y-14419484D01*
X19897348Y-14419484D02*
X19878301Y-14409960D01*
X19878301Y-14409960D02*
X19868777Y-14400436D01*
X19868777Y-14400436D02*
X19859253Y-14381388D01*
X19859253Y-14381388D02*
X19849729Y-14343293D01*
X19849729Y-14343293D02*
X19849729Y-14295674D01*
X19849729Y-14295674D02*
X19859253Y-14257579D01*
X19859253Y-14257579D02*
X19868777Y-14238531D01*
X19868777Y-14238531D02*
X19878301Y-14229008D01*
X19878301Y-14229008D02*
X19897348Y-14219484D01*
X20154491Y-14419484D02*
X20040206Y-14419484D01*
X20097348Y-14419484D02*
X20097348Y-14219484D01*
X20097348Y-14219484D02*
X20078301Y-14248055D01*
X20078301Y-14248055D02*
X20059253Y-14267103D01*
X20059253Y-14267103D02*
X20040206Y-14276627D01*
X20344968Y-14419484D02*
X20230682Y-14419484D01*
X20287825Y-14419484D02*
X20287825Y-14219484D01*
X20287825Y-14219484D02*
X20268777Y-14248055D01*
X20268777Y-14248055D02*
X20249729Y-14267103D01*
X20249729Y-14267103D02*
X20230682Y-14276627D01*
X20459253Y-14305198D02*
X20440206Y-14295674D01*
X20440206Y-14295674D02*
X20430682Y-14286150D01*
X20430682Y-14286150D02*
X20421158Y-14267103D01*
X20421158Y-14267103D02*
X20421158Y-14257579D01*
X20421158Y-14257579D02*
X20430682Y-14238531D01*
X20430682Y-14238531D02*
X20440206Y-14229008D01*
X20440206Y-14229008D02*
X20459253Y-14219484D01*
X20459253Y-14219484D02*
X20497349Y-14219484D01*
X20497349Y-14219484D02*
X20516396Y-14229008D01*
X20516396Y-14229008D02*
X20525920Y-14238531D01*
X20525920Y-14238531D02*
X20535444Y-14257579D01*
X20535444Y-14257579D02*
X20535444Y-14267103D01*
X20535444Y-14267103D02*
X20525920Y-14286150D01*
X20525920Y-14286150D02*
X20516396Y-14295674D01*
X20516396Y-14295674D02*
X20497349Y-14305198D01*
X20497349Y-14305198D02*
X20459253Y-14305198D01*
X20459253Y-14305198D02*
X20440206Y-14314722D01*
X20440206Y-14314722D02*
X20430682Y-14324246D01*
X20430682Y-14324246D02*
X20421158Y-14343293D01*
X20421158Y-14343293D02*
X20421158Y-14381388D01*
X20421158Y-14381388D02*
X20430682Y-14400436D01*
X20430682Y-14400436D02*
X20440206Y-14409960D01*
X20440206Y-14409960D02*
X20459253Y-14419484D01*
X20459253Y-14419484D02*
X20497349Y-14419484D01*
X20497349Y-14419484D02*
X20516396Y-14409960D01*
X20516396Y-14409960D02*
X20525920Y-14400436D01*
X20525920Y-14400436D02*
X20535444Y-14381388D01*
X20535444Y-14381388D02*
X20535444Y-14343293D01*
X20535444Y-14343293D02*
X20525920Y-14324246D01*
X20525920Y-14324246D02*
X20516396Y-14314722D01*
X20516396Y-14314722D02*
X20497349Y-14305198D01*
X20611634Y-14219484D02*
X20611634Y-14257579D01*
X20687825Y-14219484D02*
X20687825Y-14257579D01*
X20983063Y-14495674D02*
X20973539Y-14486150D01*
X20973539Y-14486150D02*
X20954491Y-14457579D01*
X20954491Y-14457579D02*
X20944968Y-14438531D01*
X20944968Y-14438531D02*
X20935444Y-14409960D01*
X20935444Y-14409960D02*
X20925920Y-14362341D01*
X20925920Y-14362341D02*
X20925920Y-14324246D01*
X20925920Y-14324246D02*
X20935444Y-14276627D01*
X20935444Y-14276627D02*
X20944968Y-14248055D01*
X20944968Y-14248055D02*
X20954491Y-14229008D01*
X20954491Y-14229008D02*
X20973539Y-14200436D01*
X20973539Y-14200436D02*
X20983063Y-14190912D01*
X21144968Y-14219484D02*
X21106872Y-14219484D01*
X21106872Y-14219484D02*
X21087825Y-14229008D01*
X21087825Y-14229008D02*
X21078301Y-14238531D01*
X21078301Y-14238531D02*
X21059253Y-14267103D01*
X21059253Y-14267103D02*
X21049730Y-14305198D01*
X21049730Y-14305198D02*
X21049730Y-14381388D01*
X21049730Y-14381388D02*
X21059253Y-14400436D01*
X21059253Y-14400436D02*
X21068777Y-14409960D01*
X21068777Y-14409960D02*
X21087825Y-14419484D01*
X21087825Y-14419484D02*
X21125920Y-14419484D01*
X21125920Y-14419484D02*
X21144968Y-14409960D01*
X21144968Y-14409960D02*
X21154491Y-14400436D01*
X21154491Y-14400436D02*
X21164015Y-14381388D01*
X21164015Y-14381388D02*
X21164015Y-14333769D01*
X21164015Y-14333769D02*
X21154491Y-14314722D01*
X21154491Y-14314722D02*
X21144968Y-14305198D01*
X21144968Y-14305198D02*
X21125920Y-14295674D01*
X21125920Y-14295674D02*
X21087825Y-14295674D01*
X21087825Y-14295674D02*
X21068777Y-14305198D01*
X21068777Y-14305198D02*
X21059253Y-14314722D01*
X21059253Y-14314722D02*
X21049730Y-14333769D01*
X21344968Y-14219484D02*
X21249730Y-14219484D01*
X21249730Y-14219484D02*
X21240206Y-14314722D01*
X21240206Y-14314722D02*
X21249730Y-14305198D01*
X21249730Y-14305198D02*
X21268777Y-14295674D01*
X21268777Y-14295674D02*
X21316396Y-14295674D01*
X21316396Y-14295674D02*
X21335444Y-14305198D01*
X21335444Y-14305198D02*
X21344968Y-14314722D01*
X21344968Y-14314722D02*
X21354491Y-14333769D01*
X21354491Y-14333769D02*
X21354491Y-14381388D01*
X21354491Y-14381388D02*
X21344968Y-14400436D01*
X21344968Y-14400436D02*
X21335444Y-14409960D01*
X21335444Y-14409960D02*
X21316396Y-14419484D01*
X21316396Y-14419484D02*
X21268777Y-14419484D01*
X21268777Y-14419484D02*
X21249730Y-14409960D01*
X21249730Y-14409960D02*
X21240206Y-14400436D01*
X21535444Y-14219484D02*
X21440206Y-14219484D01*
X21440206Y-14219484D02*
X21430682Y-14314722D01*
X21430682Y-14314722D02*
X21440206Y-14305198D01*
X21440206Y-14305198D02*
X21459253Y-14295674D01*
X21459253Y-14295674D02*
X21506872Y-14295674D01*
X21506872Y-14295674D02*
X21525920Y-14305198D01*
X21525920Y-14305198D02*
X21535444Y-14314722D01*
X21535444Y-14314722D02*
X21544968Y-14333769D01*
X21544968Y-14333769D02*
X21544968Y-14381388D01*
X21544968Y-14381388D02*
X21535444Y-14400436D01*
X21535444Y-14400436D02*
X21525920Y-14409960D01*
X21525920Y-14409960D02*
X21506872Y-14419484D01*
X21506872Y-14419484D02*
X21459253Y-14419484D01*
X21459253Y-14419484D02*
X21440206Y-14409960D01*
X21440206Y-14409960D02*
X21430682Y-14400436D01*
X21783063Y-14419484D02*
X21783063Y-14219484D01*
X21868777Y-14419484D02*
X21868777Y-14314722D01*
X21868777Y-14314722D02*
X21859253Y-14295674D01*
X21859253Y-14295674D02*
X21840206Y-14286150D01*
X21840206Y-14286150D02*
X21811634Y-14286150D01*
X21811634Y-14286150D02*
X21792587Y-14295674D01*
X21792587Y-14295674D02*
X21783063Y-14305198D01*
X21992587Y-14419484D02*
X21973539Y-14409960D01*
X21973539Y-14409960D02*
X21964015Y-14400436D01*
X21964015Y-14400436D02*
X21954492Y-14381388D01*
X21954492Y-14381388D02*
X21954492Y-14324246D01*
X21954492Y-14324246D02*
X21964015Y-14305198D01*
X21964015Y-14305198D02*
X21973539Y-14295674D01*
X21973539Y-14295674D02*
X21992587Y-14286150D01*
X21992587Y-14286150D02*
X22021158Y-14286150D01*
X22021158Y-14286150D02*
X22040206Y-14295674D01*
X22040206Y-14295674D02*
X22049730Y-14305198D01*
X22049730Y-14305198D02*
X22059253Y-14324246D01*
X22059253Y-14324246D02*
X22059253Y-14381388D01*
X22059253Y-14381388D02*
X22049730Y-14400436D01*
X22049730Y-14400436D02*
X22040206Y-14409960D01*
X22040206Y-14409960D02*
X22021158Y-14419484D01*
X22021158Y-14419484D02*
X21992587Y-14419484D01*
X22173539Y-14419484D02*
X22154492Y-14409960D01*
X22154492Y-14409960D02*
X22144968Y-14390912D01*
X22144968Y-14390912D02*
X22144968Y-14219484D01*
X22325920Y-14409960D02*
X22306873Y-14419484D01*
X22306873Y-14419484D02*
X22268777Y-14419484D01*
X22268777Y-14419484D02*
X22249730Y-14409960D01*
X22249730Y-14409960D02*
X22240206Y-14390912D01*
X22240206Y-14390912D02*
X22240206Y-14314722D01*
X22240206Y-14314722D02*
X22249730Y-14295674D01*
X22249730Y-14295674D02*
X22268777Y-14286150D01*
X22268777Y-14286150D02*
X22306873Y-14286150D01*
X22306873Y-14286150D02*
X22325920Y-14295674D01*
X22325920Y-14295674D02*
X22335444Y-14314722D01*
X22335444Y-14314722D02*
X22335444Y-14333769D01*
X22335444Y-14333769D02*
X22240206Y-14352817D01*
X22411634Y-14409960D02*
X22430682Y-14419484D01*
X22430682Y-14419484D02*
X22468777Y-14419484D01*
X22468777Y-14419484D02*
X22487825Y-14409960D01*
X22487825Y-14409960D02*
X22497349Y-14390912D01*
X22497349Y-14390912D02*
X22497349Y-14381388D01*
X22497349Y-14381388D02*
X22487825Y-14362341D01*
X22487825Y-14362341D02*
X22468777Y-14352817D01*
X22468777Y-14352817D02*
X22440206Y-14352817D01*
X22440206Y-14352817D02*
X22421158Y-14343293D01*
X22421158Y-14343293D02*
X22411634Y-14324246D01*
X22411634Y-14324246D02*
X22411634Y-14314722D01*
X22411634Y-14314722D02*
X22421158Y-14295674D01*
X22421158Y-14295674D02*
X22440206Y-14286150D01*
X22440206Y-14286150D02*
X22468777Y-14286150D01*
X22468777Y-14286150D02*
X22487825Y-14295674D01*
X22564015Y-14495674D02*
X22573539Y-14486150D01*
X22573539Y-14486150D02*
X22592587Y-14457579D01*
X22592587Y-14457579D02*
X22602111Y-14438531D01*
X22602111Y-14438531D02*
X22611634Y-14409960D01*
X22611634Y-14409960D02*
X22621158Y-14362341D01*
X22621158Y-14362341D02*
X22621158Y-14324246D01*
X22621158Y-14324246D02*
X22611634Y-14276627D01*
X22611634Y-14276627D02*
X22602111Y-14248055D01*
X22602111Y-14248055D02*
X22592587Y-14229008D01*
X22592587Y-14229008D02*
X22573539Y-14200436D01*
X22573539Y-14200436D02*
X22564015Y-14190912D01*
D13*
X17408000Y-14592000D02*
G75*
G03*
X17408000Y-14592000I-40000J0D01*
G01*
D11*
X17706872Y-14483484D02*
X17725920Y-14483484D01*
X17725920Y-14483484D02*
X17744967Y-14493008D01*
X17744967Y-14493008D02*
X17754491Y-14502531D01*
X17754491Y-14502531D02*
X17764015Y-14521579D01*
X17764015Y-14521579D02*
X17773539Y-14559674D01*
X17773539Y-14559674D02*
X17773539Y-14607293D01*
X17773539Y-14607293D02*
X17764015Y-14645388D01*
X17764015Y-14645388D02*
X17754491Y-14664436D01*
X17754491Y-14664436D02*
X17744967Y-14673960D01*
X17744967Y-14673960D02*
X17725920Y-14683484D01*
X17725920Y-14683484D02*
X17706872Y-14683484D01*
X17706872Y-14683484D02*
X17687824Y-14673960D01*
X17687824Y-14673960D02*
X17678301Y-14664436D01*
X17678301Y-14664436D02*
X17668777Y-14645388D01*
X17668777Y-14645388D02*
X17659253Y-14607293D01*
X17659253Y-14607293D02*
X17659253Y-14559674D01*
X17659253Y-14559674D02*
X17668777Y-14521579D01*
X17668777Y-14521579D02*
X17678301Y-14502531D01*
X17678301Y-14502531D02*
X17687824Y-14493008D01*
X17687824Y-14493008D02*
X17706872Y-14483484D01*
X17859253Y-14664436D02*
X17868777Y-14673960D01*
X17868777Y-14673960D02*
X17859253Y-14683484D01*
X17859253Y-14683484D02*
X17849729Y-14673960D01*
X17849729Y-14673960D02*
X17859253Y-14664436D01*
X17859253Y-14664436D02*
X17859253Y-14683484D01*
X17983063Y-14569198D02*
X17964015Y-14559674D01*
X17964015Y-14559674D02*
X17954491Y-14550150D01*
X17954491Y-14550150D02*
X17944967Y-14531103D01*
X17944967Y-14531103D02*
X17944967Y-14521579D01*
X17944967Y-14521579D02*
X17954491Y-14502531D01*
X17954491Y-14502531D02*
X17964015Y-14493008D01*
X17964015Y-14493008D02*
X17983063Y-14483484D01*
X17983063Y-14483484D02*
X18021158Y-14483484D01*
X18021158Y-14483484D02*
X18040205Y-14493008D01*
X18040205Y-14493008D02*
X18049729Y-14502531D01*
X18049729Y-14502531D02*
X18059253Y-14521579D01*
X18059253Y-14521579D02*
X18059253Y-14531103D01*
X18059253Y-14531103D02*
X18049729Y-14550150D01*
X18049729Y-14550150D02*
X18040205Y-14559674D01*
X18040205Y-14559674D02*
X18021158Y-14569198D01*
X18021158Y-14569198D02*
X17983063Y-14569198D01*
X17983063Y-14569198D02*
X17964015Y-14578722D01*
X17964015Y-14578722D02*
X17954491Y-14588246D01*
X17954491Y-14588246D02*
X17944967Y-14607293D01*
X17944967Y-14607293D02*
X17944967Y-14645388D01*
X17944967Y-14645388D02*
X17954491Y-14664436D01*
X17954491Y-14664436D02*
X17964015Y-14673960D01*
X17964015Y-14673960D02*
X17983063Y-14683484D01*
X17983063Y-14683484D02*
X18021158Y-14683484D01*
X18021158Y-14683484D02*
X18040205Y-14673960D01*
X18040205Y-14673960D02*
X18049729Y-14664436D01*
X18049729Y-14664436D02*
X18059253Y-14645388D01*
X18059253Y-14645388D02*
X18059253Y-14607293D01*
X18059253Y-14607293D02*
X18049729Y-14588246D01*
X18049729Y-14588246D02*
X18040205Y-14578722D01*
X18040205Y-14578722D02*
X18021158Y-14569198D01*
X18183063Y-14483484D02*
X18202110Y-14483484D01*
X18202110Y-14483484D02*
X18221158Y-14493008D01*
X18221158Y-14493008D02*
X18230682Y-14502531D01*
X18230682Y-14502531D02*
X18240205Y-14521579D01*
X18240205Y-14521579D02*
X18249729Y-14559674D01*
X18249729Y-14559674D02*
X18249729Y-14607293D01*
X18249729Y-14607293D02*
X18240205Y-14645388D01*
X18240205Y-14645388D02*
X18230682Y-14664436D01*
X18230682Y-14664436D02*
X18221158Y-14673960D01*
X18221158Y-14673960D02*
X18202110Y-14683484D01*
X18202110Y-14683484D02*
X18183063Y-14683484D01*
X18183063Y-14683484D02*
X18164015Y-14673960D01*
X18164015Y-14673960D02*
X18154491Y-14664436D01*
X18154491Y-14664436D02*
X18144967Y-14645388D01*
X18144967Y-14645388D02*
X18135444Y-14607293D01*
X18135444Y-14607293D02*
X18135444Y-14559674D01*
X18135444Y-14559674D02*
X18144967Y-14521579D01*
X18144967Y-14521579D02*
X18154491Y-14502531D01*
X18154491Y-14502531D02*
X18164015Y-14493008D01*
X18164015Y-14493008D02*
X18183063Y-14483484D01*
X18373539Y-14483484D02*
X18392586Y-14483484D01*
X18392586Y-14483484D02*
X18411634Y-14493008D01*
X18411634Y-14493008D02*
X18421158Y-14502531D01*
X18421158Y-14502531D02*
X18430682Y-14521579D01*
X18430682Y-14521579D02*
X18440205Y-14559674D01*
X18440205Y-14559674D02*
X18440205Y-14607293D01*
X18440205Y-14607293D02*
X18430682Y-14645388D01*
X18430682Y-14645388D02*
X18421158Y-14664436D01*
X18421158Y-14664436D02*
X18411634Y-14673960D01*
X18411634Y-14673960D02*
X18392586Y-14683484D01*
X18392586Y-14683484D02*
X18373539Y-14683484D01*
X18373539Y-14683484D02*
X18354491Y-14673960D01*
X18354491Y-14673960D02*
X18344967Y-14664436D01*
X18344967Y-14664436D02*
X18335444Y-14645388D01*
X18335444Y-14645388D02*
X18325920Y-14607293D01*
X18325920Y-14607293D02*
X18325920Y-14559674D01*
X18325920Y-14559674D02*
X18335444Y-14521579D01*
X18335444Y-14521579D02*
X18344967Y-14502531D01*
X18344967Y-14502531D02*
X18354491Y-14493008D01*
X18354491Y-14493008D02*
X18373539Y-14483484D01*
X18525920Y-14683484D02*
X18525920Y-14550150D01*
X18525920Y-14569198D02*
X18535444Y-14559674D01*
X18535444Y-14559674D02*
X18554491Y-14550150D01*
X18554491Y-14550150D02*
X18583063Y-14550150D01*
X18583063Y-14550150D02*
X18602110Y-14559674D01*
X18602110Y-14559674D02*
X18611634Y-14578722D01*
X18611634Y-14578722D02*
X18611634Y-14683484D01*
X18611634Y-14578722D02*
X18621158Y-14559674D01*
X18621158Y-14559674D02*
X18640205Y-14550150D01*
X18640205Y-14550150D02*
X18668777Y-14550150D01*
X18668777Y-14550150D02*
X18687825Y-14559674D01*
X18687825Y-14559674D02*
X18697348Y-14578722D01*
X18697348Y-14578722D02*
X18697348Y-14683484D01*
X18792586Y-14683484D02*
X18792586Y-14550150D01*
X18792586Y-14569198D02*
X18802110Y-14559674D01*
X18802110Y-14559674D02*
X18821158Y-14550150D01*
X18821158Y-14550150D02*
X18849729Y-14550150D01*
X18849729Y-14550150D02*
X18868777Y-14559674D01*
X18868777Y-14559674D02*
X18878301Y-14578722D01*
X18878301Y-14578722D02*
X18878301Y-14683484D01*
X18878301Y-14578722D02*
X18887825Y-14559674D01*
X18887825Y-14559674D02*
X18906872Y-14550150D01*
X18906872Y-14550150D02*
X18935444Y-14550150D01*
X18935444Y-14550150D02*
X18954491Y-14559674D01*
X18954491Y-14559674D02*
X18964015Y-14578722D01*
X18964015Y-14578722D02*
X18964015Y-14683484D01*
X19354491Y-14473960D02*
X19183063Y-14731103D01*
X19611634Y-14483484D02*
X19630682Y-14483484D01*
X19630682Y-14483484D02*
X19649729Y-14493008D01*
X19649729Y-14493008D02*
X19659253Y-14502531D01*
X19659253Y-14502531D02*
X19668777Y-14521579D01*
X19668777Y-14521579D02*
X19678301Y-14559674D01*
X19678301Y-14559674D02*
X19678301Y-14607293D01*
X19678301Y-14607293D02*
X19668777Y-14645388D01*
X19668777Y-14645388D02*
X19659253Y-14664436D01*
X19659253Y-14664436D02*
X19649729Y-14673960D01*
X19649729Y-14673960D02*
X19630682Y-14683484D01*
X19630682Y-14683484D02*
X19611634Y-14683484D01*
X19611634Y-14683484D02*
X19592587Y-14673960D01*
X19592587Y-14673960D02*
X19583063Y-14664436D01*
X19583063Y-14664436D02*
X19573539Y-14645388D01*
X19573539Y-14645388D02*
X19564015Y-14607293D01*
X19564015Y-14607293D02*
X19564015Y-14559674D01*
X19564015Y-14559674D02*
X19573539Y-14521579D01*
X19573539Y-14521579D02*
X19583063Y-14502531D01*
X19583063Y-14502531D02*
X19592587Y-14493008D01*
X19592587Y-14493008D02*
X19611634Y-14483484D01*
X19764015Y-14664436D02*
X19773539Y-14673960D01*
X19773539Y-14673960D02*
X19764015Y-14683484D01*
X19764015Y-14683484D02*
X19754491Y-14673960D01*
X19754491Y-14673960D02*
X19764015Y-14664436D01*
X19764015Y-14664436D02*
X19764015Y-14683484D01*
X19897348Y-14483484D02*
X19916396Y-14483484D01*
X19916396Y-14483484D02*
X19935444Y-14493008D01*
X19935444Y-14493008D02*
X19944968Y-14502531D01*
X19944968Y-14502531D02*
X19954491Y-14521579D01*
X19954491Y-14521579D02*
X19964015Y-14559674D01*
X19964015Y-14559674D02*
X19964015Y-14607293D01*
X19964015Y-14607293D02*
X19954491Y-14645388D01*
X19954491Y-14645388D02*
X19944968Y-14664436D01*
X19944968Y-14664436D02*
X19935444Y-14673960D01*
X19935444Y-14673960D02*
X19916396Y-14683484D01*
X19916396Y-14683484D02*
X19897348Y-14683484D01*
X19897348Y-14683484D02*
X19878301Y-14673960D01*
X19878301Y-14673960D02*
X19868777Y-14664436D01*
X19868777Y-14664436D02*
X19859253Y-14645388D01*
X19859253Y-14645388D02*
X19849729Y-14607293D01*
X19849729Y-14607293D02*
X19849729Y-14559674D01*
X19849729Y-14559674D02*
X19859253Y-14521579D01*
X19859253Y-14521579D02*
X19868777Y-14502531D01*
X19868777Y-14502531D02*
X19878301Y-14493008D01*
X19878301Y-14493008D02*
X19897348Y-14483484D01*
X20030682Y-14483484D02*
X20154491Y-14483484D01*
X20154491Y-14483484D02*
X20087825Y-14559674D01*
X20087825Y-14559674D02*
X20116396Y-14559674D01*
X20116396Y-14559674D02*
X20135444Y-14569198D01*
X20135444Y-14569198D02*
X20144968Y-14578722D01*
X20144968Y-14578722D02*
X20154491Y-14597769D01*
X20154491Y-14597769D02*
X20154491Y-14645388D01*
X20154491Y-14645388D02*
X20144968Y-14664436D01*
X20144968Y-14664436D02*
X20135444Y-14673960D01*
X20135444Y-14673960D02*
X20116396Y-14683484D01*
X20116396Y-14683484D02*
X20059253Y-14683484D01*
X20059253Y-14683484D02*
X20040206Y-14673960D01*
X20040206Y-14673960D02*
X20030682Y-14664436D01*
X20344968Y-14683484D02*
X20230682Y-14683484D01*
X20287825Y-14683484D02*
X20287825Y-14483484D01*
X20287825Y-14483484D02*
X20268777Y-14512055D01*
X20268777Y-14512055D02*
X20249729Y-14531103D01*
X20249729Y-14531103D02*
X20230682Y-14540627D01*
X20525920Y-14483484D02*
X20430682Y-14483484D01*
X20430682Y-14483484D02*
X20421158Y-14578722D01*
X20421158Y-14578722D02*
X20430682Y-14569198D01*
X20430682Y-14569198D02*
X20449729Y-14559674D01*
X20449729Y-14559674D02*
X20497349Y-14559674D01*
X20497349Y-14559674D02*
X20516396Y-14569198D01*
X20516396Y-14569198D02*
X20525920Y-14578722D01*
X20525920Y-14578722D02*
X20535444Y-14597769D01*
X20535444Y-14597769D02*
X20535444Y-14645388D01*
X20535444Y-14645388D02*
X20525920Y-14664436D01*
X20525920Y-14664436D02*
X20516396Y-14673960D01*
X20516396Y-14673960D02*
X20497349Y-14683484D01*
X20497349Y-14683484D02*
X20449729Y-14683484D01*
X20449729Y-14683484D02*
X20430682Y-14673960D01*
X20430682Y-14673960D02*
X20421158Y-14664436D01*
X20611634Y-14483484D02*
X20611634Y-14521579D01*
X20687825Y-14483484D02*
X20687825Y-14521579D01*
X20983063Y-14759674D02*
X20973539Y-14750150D01*
X20973539Y-14750150D02*
X20954491Y-14721579D01*
X20954491Y-14721579D02*
X20944968Y-14702531D01*
X20944968Y-14702531D02*
X20935444Y-14673960D01*
X20935444Y-14673960D02*
X20925920Y-14626341D01*
X20925920Y-14626341D02*
X20925920Y-14588246D01*
X20925920Y-14588246D02*
X20935444Y-14540627D01*
X20935444Y-14540627D02*
X20944968Y-14512055D01*
X20944968Y-14512055D02*
X20954491Y-14493008D01*
X20954491Y-14493008D02*
X20973539Y-14464436D01*
X20973539Y-14464436D02*
X20983063Y-14454912D01*
X21144968Y-14550150D02*
X21144968Y-14683484D01*
X21097349Y-14473960D02*
X21049730Y-14616817D01*
X21049730Y-14616817D02*
X21173539Y-14616817D01*
X21402111Y-14683484D02*
X21402111Y-14483484D01*
X21487825Y-14683484D02*
X21487825Y-14578722D01*
X21487825Y-14578722D02*
X21478301Y-14559674D01*
X21478301Y-14559674D02*
X21459253Y-14550150D01*
X21459253Y-14550150D02*
X21430682Y-14550150D01*
X21430682Y-14550150D02*
X21411634Y-14559674D01*
X21411634Y-14559674D02*
X21402111Y-14569198D01*
X21611634Y-14683484D02*
X21592587Y-14673960D01*
X21592587Y-14673960D02*
X21583063Y-14664436D01*
X21583063Y-14664436D02*
X21573539Y-14645388D01*
X21573539Y-14645388D02*
X21573539Y-14588246D01*
X21573539Y-14588246D02*
X21583063Y-14569198D01*
X21583063Y-14569198D02*
X21592587Y-14559674D01*
X21592587Y-14559674D02*
X21611634Y-14550150D01*
X21611634Y-14550150D02*
X21640206Y-14550150D01*
X21640206Y-14550150D02*
X21659253Y-14559674D01*
X21659253Y-14559674D02*
X21668777Y-14569198D01*
X21668777Y-14569198D02*
X21678301Y-14588246D01*
X21678301Y-14588246D02*
X21678301Y-14645388D01*
X21678301Y-14645388D02*
X21668777Y-14664436D01*
X21668777Y-14664436D02*
X21659253Y-14673960D01*
X21659253Y-14673960D02*
X21640206Y-14683484D01*
X21640206Y-14683484D02*
X21611634Y-14683484D01*
X21792587Y-14683484D02*
X21773539Y-14673960D01*
X21773539Y-14673960D02*
X21764015Y-14654912D01*
X21764015Y-14654912D02*
X21764015Y-14483484D01*
X21944968Y-14673960D02*
X21925920Y-14683484D01*
X21925920Y-14683484D02*
X21887825Y-14683484D01*
X21887825Y-14683484D02*
X21868777Y-14673960D01*
X21868777Y-14673960D02*
X21859253Y-14654912D01*
X21859253Y-14654912D02*
X21859253Y-14578722D01*
X21859253Y-14578722D02*
X21868777Y-14559674D01*
X21868777Y-14559674D02*
X21887825Y-14550150D01*
X21887825Y-14550150D02*
X21925920Y-14550150D01*
X21925920Y-14550150D02*
X21944968Y-14559674D01*
X21944968Y-14559674D02*
X21954492Y-14578722D01*
X21954492Y-14578722D02*
X21954492Y-14597769D01*
X21954492Y-14597769D02*
X21859253Y-14616817D01*
X22030682Y-14673960D02*
X22049730Y-14683484D01*
X22049730Y-14683484D02*
X22087825Y-14683484D01*
X22087825Y-14683484D02*
X22106873Y-14673960D01*
X22106873Y-14673960D02*
X22116396Y-14654912D01*
X22116396Y-14654912D02*
X22116396Y-14645388D01*
X22116396Y-14645388D02*
X22106873Y-14626341D01*
X22106873Y-14626341D02*
X22087825Y-14616817D01*
X22087825Y-14616817D02*
X22059253Y-14616817D01*
X22059253Y-14616817D02*
X22040206Y-14607293D01*
X22040206Y-14607293D02*
X22030682Y-14588246D01*
X22030682Y-14588246D02*
X22030682Y-14578722D01*
X22030682Y-14578722D02*
X22040206Y-14559674D01*
X22040206Y-14559674D02*
X22059253Y-14550150D01*
X22059253Y-14550150D02*
X22087825Y-14550150D01*
X22087825Y-14550150D02*
X22106873Y-14559674D01*
X22183063Y-14759674D02*
X22192587Y-14750150D01*
X22192587Y-14750150D02*
X22211634Y-14721579D01*
X22211634Y-14721579D02*
X22221158Y-14702531D01*
X22221158Y-14702531D02*
X22230682Y-14673960D01*
X22230682Y-14673960D02*
X22240206Y-14626341D01*
X22240206Y-14626341D02*
X22240206Y-14588246D01*
X22240206Y-14588246D02*
X22230682Y-14540627D01*
X22230682Y-14540627D02*
X22221158Y-14512055D01*
X22221158Y-14512055D02*
X22211634Y-14493008D01*
X22211634Y-14493008D02*
X22192587Y-14464436D01*
X22192587Y-14464436D02*
X22183063Y-14454912D01*
D14*
X17363500Y-14811500D02*
X17363500Y-14900500D01*
X17319000Y-14856000D02*
X17408000Y-14856000D01*
D11*
X17706872Y-14747484D02*
X17725920Y-14747484D01*
X17725920Y-14747484D02*
X17744967Y-14757008D01*
X17744967Y-14757008D02*
X17754491Y-14766531D01*
X17754491Y-14766531D02*
X17764015Y-14785579D01*
X17764015Y-14785579D02*
X17773539Y-14823674D01*
X17773539Y-14823674D02*
X17773539Y-14871293D01*
X17773539Y-14871293D02*
X17764015Y-14909388D01*
X17764015Y-14909388D02*
X17754491Y-14928436D01*
X17754491Y-14928436D02*
X17744967Y-14937960D01*
X17744967Y-14937960D02*
X17725920Y-14947484D01*
X17725920Y-14947484D02*
X17706872Y-14947484D01*
X17706872Y-14947484D02*
X17687824Y-14937960D01*
X17687824Y-14937960D02*
X17678301Y-14928436D01*
X17678301Y-14928436D02*
X17668777Y-14909388D01*
X17668777Y-14909388D02*
X17659253Y-14871293D01*
X17659253Y-14871293D02*
X17659253Y-14823674D01*
X17659253Y-14823674D02*
X17668777Y-14785579D01*
X17668777Y-14785579D02*
X17678301Y-14766531D01*
X17678301Y-14766531D02*
X17687824Y-14757008D01*
X17687824Y-14757008D02*
X17706872Y-14747484D01*
X17859253Y-14928436D02*
X17868777Y-14937960D01*
X17868777Y-14937960D02*
X17859253Y-14947484D01*
X17859253Y-14947484D02*
X17849729Y-14937960D01*
X17849729Y-14937960D02*
X17859253Y-14928436D01*
X17859253Y-14928436D02*
X17859253Y-14947484D01*
X17983063Y-14833198D02*
X17964015Y-14823674D01*
X17964015Y-14823674D02*
X17954491Y-14814150D01*
X17954491Y-14814150D02*
X17944967Y-14795103D01*
X17944967Y-14795103D02*
X17944967Y-14785579D01*
X17944967Y-14785579D02*
X17954491Y-14766531D01*
X17954491Y-14766531D02*
X17964015Y-14757008D01*
X17964015Y-14757008D02*
X17983063Y-14747484D01*
X17983063Y-14747484D02*
X18021158Y-14747484D01*
X18021158Y-14747484D02*
X18040205Y-14757008D01*
X18040205Y-14757008D02*
X18049729Y-14766531D01*
X18049729Y-14766531D02*
X18059253Y-14785579D01*
X18059253Y-14785579D02*
X18059253Y-14795103D01*
X18059253Y-14795103D02*
X18049729Y-14814150D01*
X18049729Y-14814150D02*
X18040205Y-14823674D01*
X18040205Y-14823674D02*
X18021158Y-14833198D01*
X18021158Y-14833198D02*
X17983063Y-14833198D01*
X17983063Y-14833198D02*
X17964015Y-14842722D01*
X17964015Y-14842722D02*
X17954491Y-14852246D01*
X17954491Y-14852246D02*
X17944967Y-14871293D01*
X17944967Y-14871293D02*
X17944967Y-14909388D01*
X17944967Y-14909388D02*
X17954491Y-14928436D01*
X17954491Y-14928436D02*
X17964015Y-14937960D01*
X17964015Y-14937960D02*
X17983063Y-14947484D01*
X17983063Y-14947484D02*
X18021158Y-14947484D01*
X18021158Y-14947484D02*
X18040205Y-14937960D01*
X18040205Y-14937960D02*
X18049729Y-14928436D01*
X18049729Y-14928436D02*
X18059253Y-14909388D01*
X18059253Y-14909388D02*
X18059253Y-14871293D01*
X18059253Y-14871293D02*
X18049729Y-14852246D01*
X18049729Y-14852246D02*
X18040205Y-14842722D01*
X18040205Y-14842722D02*
X18021158Y-14833198D01*
X18154491Y-14947484D02*
X18192586Y-14947484D01*
X18192586Y-14947484D02*
X18211634Y-14937960D01*
X18211634Y-14937960D02*
X18221158Y-14928436D01*
X18221158Y-14928436D02*
X18240205Y-14899865D01*
X18240205Y-14899865D02*
X18249729Y-14861769D01*
X18249729Y-14861769D02*
X18249729Y-14785579D01*
X18249729Y-14785579D02*
X18240205Y-14766531D01*
X18240205Y-14766531D02*
X18230682Y-14757008D01*
X18230682Y-14757008D02*
X18211634Y-14747484D01*
X18211634Y-14747484D02*
X18173539Y-14747484D01*
X18173539Y-14747484D02*
X18154491Y-14757008D01*
X18154491Y-14757008D02*
X18144967Y-14766531D01*
X18144967Y-14766531D02*
X18135444Y-14785579D01*
X18135444Y-14785579D02*
X18135444Y-14833198D01*
X18135444Y-14833198D02*
X18144967Y-14852246D01*
X18144967Y-14852246D02*
X18154491Y-14861769D01*
X18154491Y-14861769D02*
X18173539Y-14871293D01*
X18173539Y-14871293D02*
X18211634Y-14871293D01*
X18211634Y-14871293D02*
X18230682Y-14861769D01*
X18230682Y-14861769D02*
X18240205Y-14852246D01*
X18240205Y-14852246D02*
X18249729Y-14833198D01*
X18373539Y-14747484D02*
X18392586Y-14747484D01*
X18392586Y-14747484D02*
X18411634Y-14757008D01*
X18411634Y-14757008D02*
X18421158Y-14766531D01*
X18421158Y-14766531D02*
X18430682Y-14785579D01*
X18430682Y-14785579D02*
X18440205Y-14823674D01*
X18440205Y-14823674D02*
X18440205Y-14871293D01*
X18440205Y-14871293D02*
X18430682Y-14909388D01*
X18430682Y-14909388D02*
X18421158Y-14928436D01*
X18421158Y-14928436D02*
X18411634Y-14937960D01*
X18411634Y-14937960D02*
X18392586Y-14947484D01*
X18392586Y-14947484D02*
X18373539Y-14947484D01*
X18373539Y-14947484D02*
X18354491Y-14937960D01*
X18354491Y-14937960D02*
X18344967Y-14928436D01*
X18344967Y-14928436D02*
X18335444Y-14909388D01*
X18335444Y-14909388D02*
X18325920Y-14871293D01*
X18325920Y-14871293D02*
X18325920Y-14823674D01*
X18325920Y-14823674D02*
X18335444Y-14785579D01*
X18335444Y-14785579D02*
X18344967Y-14766531D01*
X18344967Y-14766531D02*
X18354491Y-14757008D01*
X18354491Y-14757008D02*
X18373539Y-14747484D01*
X18525920Y-14947484D02*
X18525920Y-14814150D01*
X18525920Y-14833198D02*
X18535444Y-14823674D01*
X18535444Y-14823674D02*
X18554491Y-14814150D01*
X18554491Y-14814150D02*
X18583063Y-14814150D01*
X18583063Y-14814150D02*
X18602110Y-14823674D01*
X18602110Y-14823674D02*
X18611634Y-14842722D01*
X18611634Y-14842722D02*
X18611634Y-14947484D01*
X18611634Y-14842722D02*
X18621158Y-14823674D01*
X18621158Y-14823674D02*
X18640205Y-14814150D01*
X18640205Y-14814150D02*
X18668777Y-14814150D01*
X18668777Y-14814150D02*
X18687825Y-14823674D01*
X18687825Y-14823674D02*
X18697348Y-14842722D01*
X18697348Y-14842722D02*
X18697348Y-14947484D01*
X18792586Y-14947484D02*
X18792586Y-14814150D01*
X18792586Y-14833198D02*
X18802110Y-14823674D01*
X18802110Y-14823674D02*
X18821158Y-14814150D01*
X18821158Y-14814150D02*
X18849729Y-14814150D01*
X18849729Y-14814150D02*
X18868777Y-14823674D01*
X18868777Y-14823674D02*
X18878301Y-14842722D01*
X18878301Y-14842722D02*
X18878301Y-14947484D01*
X18878301Y-14842722D02*
X18887825Y-14823674D01*
X18887825Y-14823674D02*
X18906872Y-14814150D01*
X18906872Y-14814150D02*
X18935444Y-14814150D01*
X18935444Y-14814150D02*
X18954491Y-14823674D01*
X18954491Y-14823674D02*
X18964015Y-14842722D01*
X18964015Y-14842722D02*
X18964015Y-14947484D01*
X19354491Y-14737960D02*
X19183063Y-14995103D01*
X19611634Y-14747484D02*
X19630682Y-14747484D01*
X19630682Y-14747484D02*
X19649729Y-14757008D01*
X19649729Y-14757008D02*
X19659253Y-14766531D01*
X19659253Y-14766531D02*
X19668777Y-14785579D01*
X19668777Y-14785579D02*
X19678301Y-14823674D01*
X19678301Y-14823674D02*
X19678301Y-14871293D01*
X19678301Y-14871293D02*
X19668777Y-14909388D01*
X19668777Y-14909388D02*
X19659253Y-14928436D01*
X19659253Y-14928436D02*
X19649729Y-14937960D01*
X19649729Y-14937960D02*
X19630682Y-14947484D01*
X19630682Y-14947484D02*
X19611634Y-14947484D01*
X19611634Y-14947484D02*
X19592587Y-14937960D01*
X19592587Y-14937960D02*
X19583063Y-14928436D01*
X19583063Y-14928436D02*
X19573539Y-14909388D01*
X19573539Y-14909388D02*
X19564015Y-14871293D01*
X19564015Y-14871293D02*
X19564015Y-14823674D01*
X19564015Y-14823674D02*
X19573539Y-14785579D01*
X19573539Y-14785579D02*
X19583063Y-14766531D01*
X19583063Y-14766531D02*
X19592587Y-14757008D01*
X19592587Y-14757008D02*
X19611634Y-14747484D01*
X19764015Y-14928436D02*
X19773539Y-14937960D01*
X19773539Y-14937960D02*
X19764015Y-14947484D01*
X19764015Y-14947484D02*
X19754491Y-14937960D01*
X19754491Y-14937960D02*
X19764015Y-14928436D01*
X19764015Y-14928436D02*
X19764015Y-14947484D01*
X19897348Y-14747484D02*
X19916396Y-14747484D01*
X19916396Y-14747484D02*
X19935444Y-14757008D01*
X19935444Y-14757008D02*
X19944968Y-14766531D01*
X19944968Y-14766531D02*
X19954491Y-14785579D01*
X19954491Y-14785579D02*
X19964015Y-14823674D01*
X19964015Y-14823674D02*
X19964015Y-14871293D01*
X19964015Y-14871293D02*
X19954491Y-14909388D01*
X19954491Y-14909388D02*
X19944968Y-14928436D01*
X19944968Y-14928436D02*
X19935444Y-14937960D01*
X19935444Y-14937960D02*
X19916396Y-14947484D01*
X19916396Y-14947484D02*
X19897348Y-14947484D01*
X19897348Y-14947484D02*
X19878301Y-14937960D01*
X19878301Y-14937960D02*
X19868777Y-14928436D01*
X19868777Y-14928436D02*
X19859253Y-14909388D01*
X19859253Y-14909388D02*
X19849729Y-14871293D01*
X19849729Y-14871293D02*
X19849729Y-14823674D01*
X19849729Y-14823674D02*
X19859253Y-14785579D01*
X19859253Y-14785579D02*
X19868777Y-14766531D01*
X19868777Y-14766531D02*
X19878301Y-14757008D01*
X19878301Y-14757008D02*
X19897348Y-14747484D01*
X20030682Y-14747484D02*
X20154491Y-14747484D01*
X20154491Y-14747484D02*
X20087825Y-14823674D01*
X20087825Y-14823674D02*
X20116396Y-14823674D01*
X20116396Y-14823674D02*
X20135444Y-14833198D01*
X20135444Y-14833198D02*
X20144968Y-14842722D01*
X20144968Y-14842722D02*
X20154491Y-14861769D01*
X20154491Y-14861769D02*
X20154491Y-14909388D01*
X20154491Y-14909388D02*
X20144968Y-14928436D01*
X20144968Y-14928436D02*
X20135444Y-14937960D01*
X20135444Y-14937960D02*
X20116396Y-14947484D01*
X20116396Y-14947484D02*
X20059253Y-14947484D01*
X20059253Y-14947484D02*
X20040206Y-14937960D01*
X20040206Y-14937960D02*
X20030682Y-14928436D01*
X20335444Y-14747484D02*
X20240206Y-14747484D01*
X20240206Y-14747484D02*
X20230682Y-14842722D01*
X20230682Y-14842722D02*
X20240206Y-14833198D01*
X20240206Y-14833198D02*
X20259253Y-14823674D01*
X20259253Y-14823674D02*
X20306872Y-14823674D01*
X20306872Y-14823674D02*
X20325920Y-14833198D01*
X20325920Y-14833198D02*
X20335444Y-14842722D01*
X20335444Y-14842722D02*
X20344968Y-14861769D01*
X20344968Y-14861769D02*
X20344968Y-14909388D01*
X20344968Y-14909388D02*
X20335444Y-14928436D01*
X20335444Y-14928436D02*
X20325920Y-14937960D01*
X20325920Y-14937960D02*
X20306872Y-14947484D01*
X20306872Y-14947484D02*
X20259253Y-14947484D01*
X20259253Y-14947484D02*
X20240206Y-14937960D01*
X20240206Y-14937960D02*
X20230682Y-14928436D01*
X20468777Y-14747484D02*
X20487825Y-14747484D01*
X20487825Y-14747484D02*
X20506872Y-14757008D01*
X20506872Y-14757008D02*
X20516396Y-14766531D01*
X20516396Y-14766531D02*
X20525920Y-14785579D01*
X20525920Y-14785579D02*
X20535444Y-14823674D01*
X20535444Y-14823674D02*
X20535444Y-14871293D01*
X20535444Y-14871293D02*
X20525920Y-14909388D01*
X20525920Y-14909388D02*
X20516396Y-14928436D01*
X20516396Y-14928436D02*
X20506872Y-14937960D01*
X20506872Y-14937960D02*
X20487825Y-14947484D01*
X20487825Y-14947484D02*
X20468777Y-14947484D01*
X20468777Y-14947484D02*
X20449729Y-14937960D01*
X20449729Y-14937960D02*
X20440206Y-14928436D01*
X20440206Y-14928436D02*
X20430682Y-14909388D01*
X20430682Y-14909388D02*
X20421158Y-14871293D01*
X20421158Y-14871293D02*
X20421158Y-14823674D01*
X20421158Y-14823674D02*
X20430682Y-14785579D01*
X20430682Y-14785579D02*
X20440206Y-14766531D01*
X20440206Y-14766531D02*
X20449729Y-14757008D01*
X20449729Y-14757008D02*
X20468777Y-14747484D01*
X20611634Y-14747484D02*
X20611634Y-14785579D01*
X20687825Y-14747484D02*
X20687825Y-14785579D01*
X20983063Y-15023674D02*
X20973539Y-15014150D01*
X20973539Y-15014150D02*
X20954491Y-14985579D01*
X20954491Y-14985579D02*
X20944968Y-14966531D01*
X20944968Y-14966531D02*
X20935444Y-14937960D01*
X20935444Y-14937960D02*
X20925920Y-14890341D01*
X20925920Y-14890341D02*
X20925920Y-14852246D01*
X20925920Y-14852246D02*
X20935444Y-14804627D01*
X20935444Y-14804627D02*
X20944968Y-14776055D01*
X20944968Y-14776055D02*
X20954491Y-14757008D01*
X20954491Y-14757008D02*
X20973539Y-14728436D01*
X20973539Y-14728436D02*
X20983063Y-14718912D01*
X21087825Y-14833198D02*
X21068777Y-14823674D01*
X21068777Y-14823674D02*
X21059253Y-14814150D01*
X21059253Y-14814150D02*
X21049730Y-14795103D01*
X21049730Y-14795103D02*
X21049730Y-14785579D01*
X21049730Y-14785579D02*
X21059253Y-14766531D01*
X21059253Y-14766531D02*
X21068777Y-14757008D01*
X21068777Y-14757008D02*
X21087825Y-14747484D01*
X21087825Y-14747484D02*
X21125920Y-14747484D01*
X21125920Y-14747484D02*
X21144968Y-14757008D01*
X21144968Y-14757008D02*
X21154491Y-14766531D01*
X21154491Y-14766531D02*
X21164015Y-14785579D01*
X21164015Y-14785579D02*
X21164015Y-14795103D01*
X21164015Y-14795103D02*
X21154491Y-14814150D01*
X21154491Y-14814150D02*
X21144968Y-14823674D01*
X21144968Y-14823674D02*
X21125920Y-14833198D01*
X21125920Y-14833198D02*
X21087825Y-14833198D01*
X21087825Y-14833198D02*
X21068777Y-14842722D01*
X21068777Y-14842722D02*
X21059253Y-14852246D01*
X21059253Y-14852246D02*
X21049730Y-14871293D01*
X21049730Y-14871293D02*
X21049730Y-14909388D01*
X21049730Y-14909388D02*
X21059253Y-14928436D01*
X21059253Y-14928436D02*
X21068777Y-14937960D01*
X21068777Y-14937960D02*
X21087825Y-14947484D01*
X21087825Y-14947484D02*
X21125920Y-14947484D01*
X21125920Y-14947484D02*
X21144968Y-14937960D01*
X21144968Y-14937960D02*
X21154491Y-14928436D01*
X21154491Y-14928436D02*
X21164015Y-14909388D01*
X21164015Y-14909388D02*
X21164015Y-14871293D01*
X21164015Y-14871293D02*
X21154491Y-14852246D01*
X21154491Y-14852246D02*
X21144968Y-14842722D01*
X21144968Y-14842722D02*
X21125920Y-14833198D01*
X21402111Y-14947484D02*
X21402111Y-14747484D01*
X21487825Y-14947484D02*
X21487825Y-14842722D01*
X21487825Y-14842722D02*
X21478301Y-14823674D01*
X21478301Y-14823674D02*
X21459253Y-14814150D01*
X21459253Y-14814150D02*
X21430682Y-14814150D01*
X21430682Y-14814150D02*
X21411634Y-14823674D01*
X21411634Y-14823674D02*
X21402111Y-14833198D01*
X21611634Y-14947484D02*
X21592587Y-14937960D01*
X21592587Y-14937960D02*
X21583063Y-14928436D01*
X21583063Y-14928436D02*
X21573539Y-14909388D01*
X21573539Y-14909388D02*
X21573539Y-14852246D01*
X21573539Y-14852246D02*
X21583063Y-14833198D01*
X21583063Y-14833198D02*
X21592587Y-14823674D01*
X21592587Y-14823674D02*
X21611634Y-14814150D01*
X21611634Y-14814150D02*
X21640206Y-14814150D01*
X21640206Y-14814150D02*
X21659253Y-14823674D01*
X21659253Y-14823674D02*
X21668777Y-14833198D01*
X21668777Y-14833198D02*
X21678301Y-14852246D01*
X21678301Y-14852246D02*
X21678301Y-14909388D01*
X21678301Y-14909388D02*
X21668777Y-14928436D01*
X21668777Y-14928436D02*
X21659253Y-14937960D01*
X21659253Y-14937960D02*
X21640206Y-14947484D01*
X21640206Y-14947484D02*
X21611634Y-14947484D01*
X21792587Y-14947484D02*
X21773539Y-14937960D01*
X21773539Y-14937960D02*
X21764015Y-14918912D01*
X21764015Y-14918912D02*
X21764015Y-14747484D01*
X21944968Y-14937960D02*
X21925920Y-14947484D01*
X21925920Y-14947484D02*
X21887825Y-14947484D01*
X21887825Y-14947484D02*
X21868777Y-14937960D01*
X21868777Y-14937960D02*
X21859253Y-14918912D01*
X21859253Y-14918912D02*
X21859253Y-14842722D01*
X21859253Y-14842722D02*
X21868777Y-14823674D01*
X21868777Y-14823674D02*
X21887825Y-14814150D01*
X21887825Y-14814150D02*
X21925920Y-14814150D01*
X21925920Y-14814150D02*
X21944968Y-14823674D01*
X21944968Y-14823674D02*
X21954492Y-14842722D01*
X21954492Y-14842722D02*
X21954492Y-14861769D01*
X21954492Y-14861769D02*
X21859253Y-14880817D01*
X22030682Y-14937960D02*
X22049730Y-14947484D01*
X22049730Y-14947484D02*
X22087825Y-14947484D01*
X22087825Y-14947484D02*
X22106873Y-14937960D01*
X22106873Y-14937960D02*
X22116396Y-14918912D01*
X22116396Y-14918912D02*
X22116396Y-14909388D01*
X22116396Y-14909388D02*
X22106873Y-14890341D01*
X22106873Y-14890341D02*
X22087825Y-14880817D01*
X22087825Y-14880817D02*
X22059253Y-14880817D01*
X22059253Y-14880817D02*
X22040206Y-14871293D01*
X22040206Y-14871293D02*
X22030682Y-14852246D01*
X22030682Y-14852246D02*
X22030682Y-14842722D01*
X22030682Y-14842722D02*
X22040206Y-14823674D01*
X22040206Y-14823674D02*
X22059253Y-14814150D01*
X22059253Y-14814150D02*
X22087825Y-14814150D01*
X22087825Y-14814150D02*
X22106873Y-14823674D01*
X22183063Y-15023674D02*
X22192587Y-15014150D01*
X22192587Y-15014150D02*
X22211634Y-14985579D01*
X22211634Y-14985579D02*
X22221158Y-14966531D01*
X22221158Y-14966531D02*
X22230682Y-14937960D01*
X22230682Y-14937960D02*
X22240206Y-14890341D01*
X22240206Y-14890341D02*
X22240206Y-14852246D01*
X22240206Y-14852246D02*
X22230682Y-14804627D01*
X22230682Y-14804627D02*
X22221158Y-14776055D01*
X22221158Y-14776055D02*
X22211634Y-14757008D01*
X22211634Y-14757008D02*
X22192587Y-14728436D01*
X22192587Y-14728436D02*
X22183063Y-14718912D01*
D10*
X17393356Y-15155356D02*
X17393356Y-15084644D01*
X17322644Y-15084644D01*
X17322644Y-15155356D01*
X17393356Y-15155356D01*
D11*
X17773539Y-15211484D02*
X17659253Y-15211484D01*
X17716396Y-15211484D02*
X17716396Y-15011484D01*
X17716396Y-15011484D02*
X17697348Y-15040055D01*
X17697348Y-15040055D02*
X17678301Y-15059103D01*
X17678301Y-15059103D02*
X17659253Y-15068627D01*
X17859253Y-15192436D02*
X17868777Y-15201960D01*
X17868777Y-15201960D02*
X17859253Y-15211484D01*
X17859253Y-15211484D02*
X17849729Y-15201960D01*
X17849729Y-15201960D02*
X17859253Y-15192436D01*
X17859253Y-15192436D02*
X17859253Y-15211484D01*
X17992586Y-15011484D02*
X18011634Y-15011484D01*
X18011634Y-15011484D02*
X18030682Y-15021008D01*
X18030682Y-15021008D02*
X18040205Y-15030531D01*
X18040205Y-15030531D02*
X18049729Y-15049579D01*
X18049729Y-15049579D02*
X18059253Y-15087674D01*
X18059253Y-15087674D02*
X18059253Y-15135293D01*
X18059253Y-15135293D02*
X18049729Y-15173388D01*
X18049729Y-15173388D02*
X18040205Y-15192436D01*
X18040205Y-15192436D02*
X18030682Y-15201960D01*
X18030682Y-15201960D02*
X18011634Y-15211484D01*
X18011634Y-15211484D02*
X17992586Y-15211484D01*
X17992586Y-15211484D02*
X17973539Y-15201960D01*
X17973539Y-15201960D02*
X17964015Y-15192436D01*
X17964015Y-15192436D02*
X17954491Y-15173388D01*
X17954491Y-15173388D02*
X17944967Y-15135293D01*
X17944967Y-15135293D02*
X17944967Y-15087674D01*
X17944967Y-15087674D02*
X17954491Y-15049579D01*
X17954491Y-15049579D02*
X17964015Y-15030531D01*
X17964015Y-15030531D02*
X17973539Y-15021008D01*
X17973539Y-15021008D02*
X17992586Y-15011484D01*
X18183063Y-15011484D02*
X18202110Y-15011484D01*
X18202110Y-15011484D02*
X18221158Y-15021008D01*
X18221158Y-15021008D02*
X18230682Y-15030531D01*
X18230682Y-15030531D02*
X18240205Y-15049579D01*
X18240205Y-15049579D02*
X18249729Y-15087674D01*
X18249729Y-15087674D02*
X18249729Y-15135293D01*
X18249729Y-15135293D02*
X18240205Y-15173388D01*
X18240205Y-15173388D02*
X18230682Y-15192436D01*
X18230682Y-15192436D02*
X18221158Y-15201960D01*
X18221158Y-15201960D02*
X18202110Y-15211484D01*
X18202110Y-15211484D02*
X18183063Y-15211484D01*
X18183063Y-15211484D02*
X18164015Y-15201960D01*
X18164015Y-15201960D02*
X18154491Y-15192436D01*
X18154491Y-15192436D02*
X18144967Y-15173388D01*
X18144967Y-15173388D02*
X18135444Y-15135293D01*
X18135444Y-15135293D02*
X18135444Y-15087674D01*
X18135444Y-15087674D02*
X18144967Y-15049579D01*
X18144967Y-15049579D02*
X18154491Y-15030531D01*
X18154491Y-15030531D02*
X18164015Y-15021008D01*
X18164015Y-15021008D02*
X18183063Y-15011484D01*
X18373539Y-15011484D02*
X18392586Y-15011484D01*
X18392586Y-15011484D02*
X18411634Y-15021008D01*
X18411634Y-15021008D02*
X18421158Y-15030531D01*
X18421158Y-15030531D02*
X18430682Y-15049579D01*
X18430682Y-15049579D02*
X18440205Y-15087674D01*
X18440205Y-15087674D02*
X18440205Y-15135293D01*
X18440205Y-15135293D02*
X18430682Y-15173388D01*
X18430682Y-15173388D02*
X18421158Y-15192436D01*
X18421158Y-15192436D02*
X18411634Y-15201960D01*
X18411634Y-15201960D02*
X18392586Y-15211484D01*
X18392586Y-15211484D02*
X18373539Y-15211484D01*
X18373539Y-15211484D02*
X18354491Y-15201960D01*
X18354491Y-15201960D02*
X18344967Y-15192436D01*
X18344967Y-15192436D02*
X18335444Y-15173388D01*
X18335444Y-15173388D02*
X18325920Y-15135293D01*
X18325920Y-15135293D02*
X18325920Y-15087674D01*
X18325920Y-15087674D02*
X18335444Y-15049579D01*
X18335444Y-15049579D02*
X18344967Y-15030531D01*
X18344967Y-15030531D02*
X18354491Y-15021008D01*
X18354491Y-15021008D02*
X18373539Y-15011484D01*
X18525920Y-15211484D02*
X18525920Y-15078150D01*
X18525920Y-15097198D02*
X18535444Y-15087674D01*
X18535444Y-15087674D02*
X18554491Y-15078150D01*
X18554491Y-15078150D02*
X18583063Y-15078150D01*
X18583063Y-15078150D02*
X18602110Y-15087674D01*
X18602110Y-15087674D02*
X18611634Y-15106722D01*
X18611634Y-15106722D02*
X18611634Y-15211484D01*
X18611634Y-15106722D02*
X18621158Y-15087674D01*
X18621158Y-15087674D02*
X18640205Y-15078150D01*
X18640205Y-15078150D02*
X18668777Y-15078150D01*
X18668777Y-15078150D02*
X18687825Y-15087674D01*
X18687825Y-15087674D02*
X18697348Y-15106722D01*
X18697348Y-15106722D02*
X18697348Y-15211484D01*
X18792586Y-15211484D02*
X18792586Y-15078150D01*
X18792586Y-15097198D02*
X18802110Y-15087674D01*
X18802110Y-15087674D02*
X18821158Y-15078150D01*
X18821158Y-15078150D02*
X18849729Y-15078150D01*
X18849729Y-15078150D02*
X18868777Y-15087674D01*
X18868777Y-15087674D02*
X18878301Y-15106722D01*
X18878301Y-15106722D02*
X18878301Y-15211484D01*
X18878301Y-15106722D02*
X18887825Y-15087674D01*
X18887825Y-15087674D02*
X18906872Y-15078150D01*
X18906872Y-15078150D02*
X18935444Y-15078150D01*
X18935444Y-15078150D02*
X18954491Y-15087674D01*
X18954491Y-15087674D02*
X18964015Y-15106722D01*
X18964015Y-15106722D02*
X18964015Y-15211484D01*
X19354491Y-15001960D02*
X19183063Y-15259103D01*
X19611634Y-15011484D02*
X19630682Y-15011484D01*
X19630682Y-15011484D02*
X19649729Y-15021008D01*
X19649729Y-15021008D02*
X19659253Y-15030531D01*
X19659253Y-15030531D02*
X19668777Y-15049579D01*
X19668777Y-15049579D02*
X19678301Y-15087674D01*
X19678301Y-15087674D02*
X19678301Y-15135293D01*
X19678301Y-15135293D02*
X19668777Y-15173388D01*
X19668777Y-15173388D02*
X19659253Y-15192436D01*
X19659253Y-15192436D02*
X19649729Y-15201960D01*
X19649729Y-15201960D02*
X19630682Y-15211484D01*
X19630682Y-15211484D02*
X19611634Y-15211484D01*
X19611634Y-15211484D02*
X19592587Y-15201960D01*
X19592587Y-15201960D02*
X19583063Y-15192436D01*
X19583063Y-15192436D02*
X19573539Y-15173388D01*
X19573539Y-15173388D02*
X19564015Y-15135293D01*
X19564015Y-15135293D02*
X19564015Y-15087674D01*
X19564015Y-15087674D02*
X19573539Y-15049579D01*
X19573539Y-15049579D02*
X19583063Y-15030531D01*
X19583063Y-15030531D02*
X19592587Y-15021008D01*
X19592587Y-15021008D02*
X19611634Y-15011484D01*
X19764015Y-15192436D02*
X19773539Y-15201960D01*
X19773539Y-15201960D02*
X19764015Y-15211484D01*
X19764015Y-15211484D02*
X19754491Y-15201960D01*
X19754491Y-15201960D02*
X19764015Y-15192436D01*
X19764015Y-15192436D02*
X19764015Y-15211484D01*
X19897348Y-15011484D02*
X19916396Y-15011484D01*
X19916396Y-15011484D02*
X19935444Y-15021008D01*
X19935444Y-15021008D02*
X19944968Y-15030531D01*
X19944968Y-15030531D02*
X19954491Y-15049579D01*
X19954491Y-15049579D02*
X19964015Y-15087674D01*
X19964015Y-15087674D02*
X19964015Y-15135293D01*
X19964015Y-15135293D02*
X19954491Y-15173388D01*
X19954491Y-15173388D02*
X19944968Y-15192436D01*
X19944968Y-15192436D02*
X19935444Y-15201960D01*
X19935444Y-15201960D02*
X19916396Y-15211484D01*
X19916396Y-15211484D02*
X19897348Y-15211484D01*
X19897348Y-15211484D02*
X19878301Y-15201960D01*
X19878301Y-15201960D02*
X19868777Y-15192436D01*
X19868777Y-15192436D02*
X19859253Y-15173388D01*
X19859253Y-15173388D02*
X19849729Y-15135293D01*
X19849729Y-15135293D02*
X19849729Y-15087674D01*
X19849729Y-15087674D02*
X19859253Y-15049579D01*
X19859253Y-15049579D02*
X19868777Y-15030531D01*
X19868777Y-15030531D02*
X19878301Y-15021008D01*
X19878301Y-15021008D02*
X19897348Y-15011484D01*
X20030682Y-15011484D02*
X20154491Y-15011484D01*
X20154491Y-15011484D02*
X20087825Y-15087674D01*
X20087825Y-15087674D02*
X20116396Y-15087674D01*
X20116396Y-15087674D02*
X20135444Y-15097198D01*
X20135444Y-15097198D02*
X20144968Y-15106722D01*
X20144968Y-15106722D02*
X20154491Y-15125769D01*
X20154491Y-15125769D02*
X20154491Y-15173388D01*
X20154491Y-15173388D02*
X20144968Y-15192436D01*
X20144968Y-15192436D02*
X20135444Y-15201960D01*
X20135444Y-15201960D02*
X20116396Y-15211484D01*
X20116396Y-15211484D02*
X20059253Y-15211484D01*
X20059253Y-15211484D02*
X20040206Y-15201960D01*
X20040206Y-15201960D02*
X20030682Y-15192436D01*
X20249729Y-15211484D02*
X20287825Y-15211484D01*
X20287825Y-15211484D02*
X20306872Y-15201960D01*
X20306872Y-15201960D02*
X20316396Y-15192436D01*
X20316396Y-15192436D02*
X20335444Y-15163865D01*
X20335444Y-15163865D02*
X20344968Y-15125769D01*
X20344968Y-15125769D02*
X20344968Y-15049579D01*
X20344968Y-15049579D02*
X20335444Y-15030531D01*
X20335444Y-15030531D02*
X20325920Y-15021008D01*
X20325920Y-15021008D02*
X20306872Y-15011484D01*
X20306872Y-15011484D02*
X20268777Y-15011484D01*
X20268777Y-15011484D02*
X20249729Y-15021008D01*
X20249729Y-15021008D02*
X20240206Y-15030531D01*
X20240206Y-15030531D02*
X20230682Y-15049579D01*
X20230682Y-15049579D02*
X20230682Y-15097198D01*
X20230682Y-15097198D02*
X20240206Y-15116246D01*
X20240206Y-15116246D02*
X20249729Y-15125769D01*
X20249729Y-15125769D02*
X20268777Y-15135293D01*
X20268777Y-15135293D02*
X20306872Y-15135293D01*
X20306872Y-15135293D02*
X20325920Y-15125769D01*
X20325920Y-15125769D02*
X20335444Y-15116246D01*
X20335444Y-15116246D02*
X20344968Y-15097198D01*
X20516396Y-15078150D02*
X20516396Y-15211484D01*
X20468777Y-15001960D02*
X20421158Y-15144817D01*
X20421158Y-15144817D02*
X20544968Y-15144817D01*
X20611634Y-15011484D02*
X20611634Y-15049579D01*
X20687825Y-15011484D02*
X20687825Y-15049579D01*
X20983063Y-15287674D02*
X20973539Y-15278150D01*
X20973539Y-15278150D02*
X20954491Y-15249579D01*
X20954491Y-15249579D02*
X20944968Y-15230531D01*
X20944968Y-15230531D02*
X20935444Y-15201960D01*
X20935444Y-15201960D02*
X20925920Y-15154341D01*
X20925920Y-15154341D02*
X20925920Y-15116246D01*
X20925920Y-15116246D02*
X20935444Y-15068627D01*
X20935444Y-15068627D02*
X20944968Y-15040055D01*
X20944968Y-15040055D02*
X20954491Y-15021008D01*
X20954491Y-15021008D02*
X20973539Y-14992436D01*
X20973539Y-14992436D02*
X20983063Y-14982912D01*
X21144968Y-15011484D02*
X21106872Y-15011484D01*
X21106872Y-15011484D02*
X21087825Y-15021008D01*
X21087825Y-15021008D02*
X21078301Y-15030531D01*
X21078301Y-15030531D02*
X21059253Y-15059103D01*
X21059253Y-15059103D02*
X21049730Y-15097198D01*
X21049730Y-15097198D02*
X21049730Y-15173388D01*
X21049730Y-15173388D02*
X21059253Y-15192436D01*
X21059253Y-15192436D02*
X21068777Y-15201960D01*
X21068777Y-15201960D02*
X21087825Y-15211484D01*
X21087825Y-15211484D02*
X21125920Y-15211484D01*
X21125920Y-15211484D02*
X21144968Y-15201960D01*
X21144968Y-15201960D02*
X21154491Y-15192436D01*
X21154491Y-15192436D02*
X21164015Y-15173388D01*
X21164015Y-15173388D02*
X21164015Y-15125769D01*
X21164015Y-15125769D02*
X21154491Y-15106722D01*
X21154491Y-15106722D02*
X21144968Y-15097198D01*
X21144968Y-15097198D02*
X21125920Y-15087674D01*
X21125920Y-15087674D02*
X21087825Y-15087674D01*
X21087825Y-15087674D02*
X21068777Y-15097198D01*
X21068777Y-15097198D02*
X21059253Y-15106722D01*
X21059253Y-15106722D02*
X21049730Y-15125769D01*
X21287825Y-15011484D02*
X21306872Y-15011484D01*
X21306872Y-15011484D02*
X21325920Y-15021008D01*
X21325920Y-15021008D02*
X21335444Y-15030531D01*
X21335444Y-15030531D02*
X21344968Y-15049579D01*
X21344968Y-15049579D02*
X21354491Y-15087674D01*
X21354491Y-15087674D02*
X21354491Y-15135293D01*
X21354491Y-15135293D02*
X21344968Y-15173388D01*
X21344968Y-15173388D02*
X21335444Y-15192436D01*
X21335444Y-15192436D02*
X21325920Y-15201960D01*
X21325920Y-15201960D02*
X21306872Y-15211484D01*
X21306872Y-15211484D02*
X21287825Y-15211484D01*
X21287825Y-15211484D02*
X21268777Y-15201960D01*
X21268777Y-15201960D02*
X21259253Y-15192436D01*
X21259253Y-15192436D02*
X21249730Y-15173388D01*
X21249730Y-15173388D02*
X21240206Y-15135293D01*
X21240206Y-15135293D02*
X21240206Y-15087674D01*
X21240206Y-15087674D02*
X21249730Y-15049579D01*
X21249730Y-15049579D02*
X21259253Y-15030531D01*
X21259253Y-15030531D02*
X21268777Y-15021008D01*
X21268777Y-15021008D02*
X21287825Y-15011484D01*
X21592587Y-15211484D02*
X21592587Y-15011484D01*
X21678301Y-15211484D02*
X21678301Y-15106722D01*
X21678301Y-15106722D02*
X21668777Y-15087674D01*
X21668777Y-15087674D02*
X21649730Y-15078150D01*
X21649730Y-15078150D02*
X21621158Y-15078150D01*
X21621158Y-15078150D02*
X21602111Y-15087674D01*
X21602111Y-15087674D02*
X21592587Y-15097198D01*
X21802111Y-15211484D02*
X21783063Y-15201960D01*
X21783063Y-15201960D02*
X21773539Y-15192436D01*
X21773539Y-15192436D02*
X21764015Y-15173388D01*
X21764015Y-15173388D02*
X21764015Y-15116246D01*
X21764015Y-15116246D02*
X21773539Y-15097198D01*
X21773539Y-15097198D02*
X21783063Y-15087674D01*
X21783063Y-15087674D02*
X21802111Y-15078150D01*
X21802111Y-15078150D02*
X21830682Y-15078150D01*
X21830682Y-15078150D02*
X21849730Y-15087674D01*
X21849730Y-15087674D02*
X21859253Y-15097198D01*
X21859253Y-15097198D02*
X21868777Y-15116246D01*
X21868777Y-15116246D02*
X21868777Y-15173388D01*
X21868777Y-15173388D02*
X21859253Y-15192436D01*
X21859253Y-15192436D02*
X21849730Y-15201960D01*
X21849730Y-15201960D02*
X21830682Y-15211484D01*
X21830682Y-15211484D02*
X21802111Y-15211484D01*
X21983063Y-15211484D02*
X21964015Y-15201960D01*
X21964015Y-15201960D02*
X21954492Y-15182912D01*
X21954492Y-15182912D02*
X21954492Y-15011484D01*
X22135444Y-15201960D02*
X22116396Y-15211484D01*
X22116396Y-15211484D02*
X22078301Y-15211484D01*
X22078301Y-15211484D02*
X22059253Y-15201960D01*
X22059253Y-15201960D02*
X22049730Y-15182912D01*
X22049730Y-15182912D02*
X22049730Y-15106722D01*
X22049730Y-15106722D02*
X22059253Y-15087674D01*
X22059253Y-15087674D02*
X22078301Y-15078150D01*
X22078301Y-15078150D02*
X22116396Y-15078150D01*
X22116396Y-15078150D02*
X22135444Y-15087674D01*
X22135444Y-15087674D02*
X22144968Y-15106722D01*
X22144968Y-15106722D02*
X22144968Y-15125769D01*
X22144968Y-15125769D02*
X22049730Y-15144817D01*
X22221158Y-15201960D02*
X22240206Y-15211484D01*
X22240206Y-15211484D02*
X22278301Y-15211484D01*
X22278301Y-15211484D02*
X22297349Y-15201960D01*
X22297349Y-15201960D02*
X22306873Y-15182912D01*
X22306873Y-15182912D02*
X22306873Y-15173388D01*
X22306873Y-15173388D02*
X22297349Y-15154341D01*
X22297349Y-15154341D02*
X22278301Y-15144817D01*
X22278301Y-15144817D02*
X22249730Y-15144817D01*
X22249730Y-15144817D02*
X22230682Y-15135293D01*
X22230682Y-15135293D02*
X22221158Y-15116246D01*
X22221158Y-15116246D02*
X22221158Y-15106722D01*
X22221158Y-15106722D02*
X22230682Y-15087674D01*
X22230682Y-15087674D02*
X22249730Y-15078150D01*
X22249730Y-15078150D02*
X22278301Y-15078150D01*
X22278301Y-15078150D02*
X22297349Y-15087674D01*
X22373539Y-15287674D02*
X22383063Y-15278150D01*
X22383063Y-15278150D02*
X22402111Y-15249579D01*
X22402111Y-15249579D02*
X22411634Y-15230531D01*
X22411634Y-15230531D02*
X22421158Y-15201960D01*
X22421158Y-15201960D02*
X22430682Y-15154341D01*
X22430682Y-15154341D02*
X22430682Y-15116246D01*
X22430682Y-15116246D02*
X22421158Y-15068627D01*
X22421158Y-15068627D02*
X22411634Y-15040055D01*
X22411634Y-15040055D02*
X22402111Y-15021008D01*
X22402111Y-15021008D02*
X22383063Y-14992436D01*
X22383063Y-14992436D02*
X22373539Y-14982912D01*
X17308000Y-15484000D02*
X17408000Y-15384000D01*
X17308000Y-15284000D01*
X17208000Y-15384000D01*
X17308000Y-15484000D01*
X17659253Y-15294531D02*
X17668777Y-15285008D01*
X17668777Y-15285008D02*
X17687824Y-15275484D01*
X17687824Y-15275484D02*
X17735444Y-15275484D01*
X17735444Y-15275484D02*
X17754491Y-15285008D01*
X17754491Y-15285008D02*
X17764015Y-15294531D01*
X17764015Y-15294531D02*
X17773539Y-15313579D01*
X17773539Y-15313579D02*
X17773539Y-15332627D01*
X17773539Y-15332627D02*
X17764015Y-15361198D01*
X17764015Y-15361198D02*
X17649729Y-15475484D01*
X17649729Y-15475484D02*
X17773539Y-15475484D01*
X17859253Y-15456436D02*
X17868777Y-15465960D01*
X17868777Y-15465960D02*
X17859253Y-15475484D01*
X17859253Y-15475484D02*
X17849729Y-15465960D01*
X17849729Y-15465960D02*
X17859253Y-15456436D01*
X17859253Y-15456436D02*
X17859253Y-15475484D01*
X17992586Y-15275484D02*
X18011634Y-15275484D01*
X18011634Y-15275484D02*
X18030682Y-15285008D01*
X18030682Y-15285008D02*
X18040205Y-15294531D01*
X18040205Y-15294531D02*
X18049729Y-15313579D01*
X18049729Y-15313579D02*
X18059253Y-15351674D01*
X18059253Y-15351674D02*
X18059253Y-15399293D01*
X18059253Y-15399293D02*
X18049729Y-15437388D01*
X18049729Y-15437388D02*
X18040205Y-15456436D01*
X18040205Y-15456436D02*
X18030682Y-15465960D01*
X18030682Y-15465960D02*
X18011634Y-15475484D01*
X18011634Y-15475484D02*
X17992586Y-15475484D01*
X17992586Y-15475484D02*
X17973539Y-15465960D01*
X17973539Y-15465960D02*
X17964015Y-15456436D01*
X17964015Y-15456436D02*
X17954491Y-15437388D01*
X17954491Y-15437388D02*
X17944967Y-15399293D01*
X17944967Y-15399293D02*
X17944967Y-15351674D01*
X17944967Y-15351674D02*
X17954491Y-15313579D01*
X17954491Y-15313579D02*
X17964015Y-15294531D01*
X17964015Y-15294531D02*
X17973539Y-15285008D01*
X17973539Y-15285008D02*
X17992586Y-15275484D01*
X18249729Y-15475484D02*
X18135444Y-15475484D01*
X18192586Y-15475484D02*
X18192586Y-15275484D01*
X18192586Y-15275484D02*
X18173539Y-15304055D01*
X18173539Y-15304055D02*
X18154491Y-15323103D01*
X18154491Y-15323103D02*
X18135444Y-15332627D01*
X18373539Y-15275484D02*
X18392586Y-15275484D01*
X18392586Y-15275484D02*
X18411634Y-15285008D01*
X18411634Y-15285008D02*
X18421158Y-15294531D01*
X18421158Y-15294531D02*
X18430682Y-15313579D01*
X18430682Y-15313579D02*
X18440205Y-15351674D01*
X18440205Y-15351674D02*
X18440205Y-15399293D01*
X18440205Y-15399293D02*
X18430682Y-15437388D01*
X18430682Y-15437388D02*
X18421158Y-15456436D01*
X18421158Y-15456436D02*
X18411634Y-15465960D01*
X18411634Y-15465960D02*
X18392586Y-15475484D01*
X18392586Y-15475484D02*
X18373539Y-15475484D01*
X18373539Y-15475484D02*
X18354491Y-15465960D01*
X18354491Y-15465960D02*
X18344967Y-15456436D01*
X18344967Y-15456436D02*
X18335444Y-15437388D01*
X18335444Y-15437388D02*
X18325920Y-15399293D01*
X18325920Y-15399293D02*
X18325920Y-15351674D01*
X18325920Y-15351674D02*
X18335444Y-15313579D01*
X18335444Y-15313579D02*
X18344967Y-15294531D01*
X18344967Y-15294531D02*
X18354491Y-15285008D01*
X18354491Y-15285008D02*
X18373539Y-15275484D01*
X18525920Y-15475484D02*
X18525920Y-15342150D01*
X18525920Y-15361198D02*
X18535444Y-15351674D01*
X18535444Y-15351674D02*
X18554491Y-15342150D01*
X18554491Y-15342150D02*
X18583063Y-15342150D01*
X18583063Y-15342150D02*
X18602110Y-15351674D01*
X18602110Y-15351674D02*
X18611634Y-15370722D01*
X18611634Y-15370722D02*
X18611634Y-15475484D01*
X18611634Y-15370722D02*
X18621158Y-15351674D01*
X18621158Y-15351674D02*
X18640205Y-15342150D01*
X18640205Y-15342150D02*
X18668777Y-15342150D01*
X18668777Y-15342150D02*
X18687825Y-15351674D01*
X18687825Y-15351674D02*
X18697348Y-15370722D01*
X18697348Y-15370722D02*
X18697348Y-15475484D01*
X18792586Y-15475484D02*
X18792586Y-15342150D01*
X18792586Y-15361198D02*
X18802110Y-15351674D01*
X18802110Y-15351674D02*
X18821158Y-15342150D01*
X18821158Y-15342150D02*
X18849729Y-15342150D01*
X18849729Y-15342150D02*
X18868777Y-15351674D01*
X18868777Y-15351674D02*
X18878301Y-15370722D01*
X18878301Y-15370722D02*
X18878301Y-15475484D01*
X18878301Y-15370722D02*
X18887825Y-15351674D01*
X18887825Y-15351674D02*
X18906872Y-15342150D01*
X18906872Y-15342150D02*
X18935444Y-15342150D01*
X18935444Y-15342150D02*
X18954491Y-15351674D01*
X18954491Y-15351674D02*
X18964015Y-15370722D01*
X18964015Y-15370722D02*
X18964015Y-15475484D01*
X19354491Y-15265960D02*
X19183063Y-15523103D01*
X19611634Y-15275484D02*
X19630682Y-15275484D01*
X19630682Y-15275484D02*
X19649729Y-15285008D01*
X19649729Y-15285008D02*
X19659253Y-15294531D01*
X19659253Y-15294531D02*
X19668777Y-15313579D01*
X19668777Y-15313579D02*
X19678301Y-15351674D01*
X19678301Y-15351674D02*
X19678301Y-15399293D01*
X19678301Y-15399293D02*
X19668777Y-15437388D01*
X19668777Y-15437388D02*
X19659253Y-15456436D01*
X19659253Y-15456436D02*
X19649729Y-15465960D01*
X19649729Y-15465960D02*
X19630682Y-15475484D01*
X19630682Y-15475484D02*
X19611634Y-15475484D01*
X19611634Y-15475484D02*
X19592587Y-15465960D01*
X19592587Y-15465960D02*
X19583063Y-15456436D01*
X19583063Y-15456436D02*
X19573539Y-15437388D01*
X19573539Y-15437388D02*
X19564015Y-15399293D01*
X19564015Y-15399293D02*
X19564015Y-15351674D01*
X19564015Y-15351674D02*
X19573539Y-15313579D01*
X19573539Y-15313579D02*
X19583063Y-15294531D01*
X19583063Y-15294531D02*
X19592587Y-15285008D01*
X19592587Y-15285008D02*
X19611634Y-15275484D01*
X19764015Y-15456436D02*
X19773539Y-15465960D01*
X19773539Y-15465960D02*
X19764015Y-15475484D01*
X19764015Y-15475484D02*
X19754491Y-15465960D01*
X19754491Y-15465960D02*
X19764015Y-15456436D01*
X19764015Y-15456436D02*
X19764015Y-15475484D01*
X19897348Y-15275484D02*
X19916396Y-15275484D01*
X19916396Y-15275484D02*
X19935444Y-15285008D01*
X19935444Y-15285008D02*
X19944968Y-15294531D01*
X19944968Y-15294531D02*
X19954491Y-15313579D01*
X19954491Y-15313579D02*
X19964015Y-15351674D01*
X19964015Y-15351674D02*
X19964015Y-15399293D01*
X19964015Y-15399293D02*
X19954491Y-15437388D01*
X19954491Y-15437388D02*
X19944968Y-15456436D01*
X19944968Y-15456436D02*
X19935444Y-15465960D01*
X19935444Y-15465960D02*
X19916396Y-15475484D01*
X19916396Y-15475484D02*
X19897348Y-15475484D01*
X19897348Y-15475484D02*
X19878301Y-15465960D01*
X19878301Y-15465960D02*
X19868777Y-15456436D01*
X19868777Y-15456436D02*
X19859253Y-15437388D01*
X19859253Y-15437388D02*
X19849729Y-15399293D01*
X19849729Y-15399293D02*
X19849729Y-15351674D01*
X19849729Y-15351674D02*
X19859253Y-15313579D01*
X19859253Y-15313579D02*
X19868777Y-15294531D01*
X19868777Y-15294531D02*
X19878301Y-15285008D01*
X19878301Y-15285008D02*
X19897348Y-15275484D01*
X20030682Y-15275484D02*
X20164015Y-15275484D01*
X20164015Y-15275484D02*
X20078301Y-15475484D01*
X20249729Y-15475484D02*
X20287825Y-15475484D01*
X20287825Y-15475484D02*
X20306872Y-15465960D01*
X20306872Y-15465960D02*
X20316396Y-15456436D01*
X20316396Y-15456436D02*
X20335444Y-15427865D01*
X20335444Y-15427865D02*
X20344968Y-15389769D01*
X20344968Y-15389769D02*
X20344968Y-15313579D01*
X20344968Y-15313579D02*
X20335444Y-15294531D01*
X20335444Y-15294531D02*
X20325920Y-15285008D01*
X20325920Y-15285008D02*
X20306872Y-15275484D01*
X20306872Y-15275484D02*
X20268777Y-15275484D01*
X20268777Y-15275484D02*
X20249729Y-15285008D01*
X20249729Y-15285008D02*
X20240206Y-15294531D01*
X20240206Y-15294531D02*
X20230682Y-15313579D01*
X20230682Y-15313579D02*
X20230682Y-15361198D01*
X20230682Y-15361198D02*
X20240206Y-15380246D01*
X20240206Y-15380246D02*
X20249729Y-15389769D01*
X20249729Y-15389769D02*
X20268777Y-15399293D01*
X20268777Y-15399293D02*
X20306872Y-15399293D01*
X20306872Y-15399293D02*
X20325920Y-15389769D01*
X20325920Y-15389769D02*
X20335444Y-15380246D01*
X20335444Y-15380246D02*
X20344968Y-15361198D01*
X20535444Y-15475484D02*
X20421158Y-15475484D01*
X20478301Y-15475484D02*
X20478301Y-15275484D01*
X20478301Y-15275484D02*
X20459253Y-15304055D01*
X20459253Y-15304055D02*
X20440206Y-15323103D01*
X20440206Y-15323103D02*
X20421158Y-15332627D01*
X20611634Y-15275484D02*
X20611634Y-15313579D01*
X20687825Y-15275484D02*
X20687825Y-15313579D01*
X20983063Y-15551674D02*
X20973539Y-15542150D01*
X20973539Y-15542150D02*
X20954491Y-15513579D01*
X20954491Y-15513579D02*
X20944968Y-15494531D01*
X20944968Y-15494531D02*
X20935444Y-15465960D01*
X20935444Y-15465960D02*
X20925920Y-15418341D01*
X20925920Y-15418341D02*
X20925920Y-15380246D01*
X20925920Y-15380246D02*
X20935444Y-15332627D01*
X20935444Y-15332627D02*
X20944968Y-15304055D01*
X20944968Y-15304055D02*
X20954491Y-15285008D01*
X20954491Y-15285008D02*
X20973539Y-15256436D01*
X20973539Y-15256436D02*
X20983063Y-15246912D01*
X21087825Y-15361198D02*
X21068777Y-15351674D01*
X21068777Y-15351674D02*
X21059253Y-15342150D01*
X21059253Y-15342150D02*
X21049730Y-15323103D01*
X21049730Y-15323103D02*
X21049730Y-15313579D01*
X21049730Y-15313579D02*
X21059253Y-15294531D01*
X21059253Y-15294531D02*
X21068777Y-15285008D01*
X21068777Y-15285008D02*
X21087825Y-15275484D01*
X21087825Y-15275484D02*
X21125920Y-15275484D01*
X21125920Y-15275484D02*
X21144968Y-15285008D01*
X21144968Y-15285008D02*
X21154491Y-15294531D01*
X21154491Y-15294531D02*
X21164015Y-15313579D01*
X21164015Y-15313579D02*
X21164015Y-15323103D01*
X21164015Y-15323103D02*
X21154491Y-15342150D01*
X21154491Y-15342150D02*
X21144968Y-15351674D01*
X21144968Y-15351674D02*
X21125920Y-15361198D01*
X21125920Y-15361198D02*
X21087825Y-15361198D01*
X21087825Y-15361198D02*
X21068777Y-15370722D01*
X21068777Y-15370722D02*
X21059253Y-15380246D01*
X21059253Y-15380246D02*
X21049730Y-15399293D01*
X21049730Y-15399293D02*
X21049730Y-15437388D01*
X21049730Y-15437388D02*
X21059253Y-15456436D01*
X21059253Y-15456436D02*
X21068777Y-15465960D01*
X21068777Y-15465960D02*
X21087825Y-15475484D01*
X21087825Y-15475484D02*
X21125920Y-15475484D01*
X21125920Y-15475484D02*
X21144968Y-15465960D01*
X21144968Y-15465960D02*
X21154491Y-15456436D01*
X21154491Y-15456436D02*
X21164015Y-15437388D01*
X21164015Y-15437388D02*
X21164015Y-15399293D01*
X21164015Y-15399293D02*
X21154491Y-15380246D01*
X21154491Y-15380246D02*
X21144968Y-15370722D01*
X21144968Y-15370722D02*
X21125920Y-15361198D01*
X21402111Y-15475484D02*
X21402111Y-15275484D01*
X21487825Y-15475484D02*
X21487825Y-15370722D01*
X21487825Y-15370722D02*
X21478301Y-15351674D01*
X21478301Y-15351674D02*
X21459253Y-15342150D01*
X21459253Y-15342150D02*
X21430682Y-15342150D01*
X21430682Y-15342150D02*
X21411634Y-15351674D01*
X21411634Y-15351674D02*
X21402111Y-15361198D01*
X21611634Y-15475484D02*
X21592587Y-15465960D01*
X21592587Y-15465960D02*
X21583063Y-15456436D01*
X21583063Y-15456436D02*
X21573539Y-15437388D01*
X21573539Y-15437388D02*
X21573539Y-15380246D01*
X21573539Y-15380246D02*
X21583063Y-15361198D01*
X21583063Y-15361198D02*
X21592587Y-15351674D01*
X21592587Y-15351674D02*
X21611634Y-15342150D01*
X21611634Y-15342150D02*
X21640206Y-15342150D01*
X21640206Y-15342150D02*
X21659253Y-15351674D01*
X21659253Y-15351674D02*
X21668777Y-15361198D01*
X21668777Y-15361198D02*
X21678301Y-15380246D01*
X21678301Y-15380246D02*
X21678301Y-15437388D01*
X21678301Y-15437388D02*
X21668777Y-15456436D01*
X21668777Y-15456436D02*
X21659253Y-15465960D01*
X21659253Y-15465960D02*
X21640206Y-15475484D01*
X21640206Y-15475484D02*
X21611634Y-15475484D01*
X21792587Y-15475484D02*
X21773539Y-15465960D01*
X21773539Y-15465960D02*
X21764015Y-15446912D01*
X21764015Y-15446912D02*
X21764015Y-15275484D01*
X21944968Y-15465960D02*
X21925920Y-15475484D01*
X21925920Y-15475484D02*
X21887825Y-15475484D01*
X21887825Y-15475484D02*
X21868777Y-15465960D01*
X21868777Y-15465960D02*
X21859253Y-15446912D01*
X21859253Y-15446912D02*
X21859253Y-15370722D01*
X21859253Y-15370722D02*
X21868777Y-15351674D01*
X21868777Y-15351674D02*
X21887825Y-15342150D01*
X21887825Y-15342150D02*
X21925920Y-15342150D01*
X21925920Y-15342150D02*
X21944968Y-15351674D01*
X21944968Y-15351674D02*
X21954492Y-15370722D01*
X21954492Y-15370722D02*
X21954492Y-15389769D01*
X21954492Y-15389769D02*
X21859253Y-15408817D01*
X22030682Y-15465960D02*
X22049730Y-15475484D01*
X22049730Y-15475484D02*
X22087825Y-15475484D01*
X22087825Y-15475484D02*
X22106873Y-15465960D01*
X22106873Y-15465960D02*
X22116396Y-15446912D01*
X22116396Y-15446912D02*
X22116396Y-15437388D01*
X22116396Y-15437388D02*
X22106873Y-15418341D01*
X22106873Y-15418341D02*
X22087825Y-15408817D01*
X22087825Y-15408817D02*
X22059253Y-15408817D01*
X22059253Y-15408817D02*
X22040206Y-15399293D01*
X22040206Y-15399293D02*
X22030682Y-15380246D01*
X22030682Y-15380246D02*
X22030682Y-15370722D01*
X22030682Y-15370722D02*
X22040206Y-15351674D01*
X22040206Y-15351674D02*
X22059253Y-15342150D01*
X22059253Y-15342150D02*
X22087825Y-15342150D01*
X22087825Y-15342150D02*
X22106873Y-15351674D01*
X22183063Y-15551674D02*
X22192587Y-15542150D01*
X22192587Y-15542150D02*
X22211634Y-15513579D01*
X22211634Y-15513579D02*
X22221158Y-15494531D01*
X22221158Y-15494531D02*
X22230682Y-15465960D01*
X22230682Y-15465960D02*
X22240206Y-15418341D01*
X22240206Y-15418341D02*
X22240206Y-15380246D01*
X22240206Y-15380246D02*
X22230682Y-15332627D01*
X22230682Y-15332627D02*
X22221158Y-15304055D01*
X22221158Y-15304055D02*
X22211634Y-15285008D01*
X22211634Y-15285008D02*
X22192587Y-15256436D01*
X22192587Y-15256436D02*
X22183063Y-15246912D01*
M02*
