G04 #@! TF.GenerationSoftware,KiCad,Pcbnew,7.0.7*
G04 #@! TF.CreationDate,2023-11-11T11:47:43+00:00*
G04 #@! TF.ProjectId,AD3 Front End Amplifier,41443320-4672-46f6-9e74-20456e642041,rev?*
G04 #@! TF.SameCoordinates,Original*
G04 #@! TF.FileFunction,Copper,L4,Bot*
G04 #@! TF.FilePolarity,Positive*
%FSLAX46Y46*%
G04 Gerber Fmt 4.6, Leading zero omitted, Abs format (unit mm)*
G04 Created by KiCad (PCBNEW 7.0.7) date 2023-11-11 11:47:43*
%MOMM*%
%LPD*%
G01*
G04 APERTURE LIST*
G04 Aperture macros list*
%AMRoundRect*
0 Rectangle with rounded corners*
0 $1 Rounding radius*
0 $2 $3 $4 $5 $6 $7 $8 $9 X,Y pos of 4 corners*
0 Add a 4 corners polygon primitive as box body*
4,1,4,$2,$3,$4,$5,$6,$7,$8,$9,$2,$3,0*
0 Add four circle primitives for the rounded corners*
1,1,$1+$1,$2,$3*
1,1,$1+$1,$4,$5*
1,1,$1+$1,$6,$7*
1,1,$1+$1,$8,$9*
0 Add four rect primitives between the rounded corners*
20,1,$1+$1,$2,$3,$4,$5,0*
20,1,$1+$1,$4,$5,$6,$7,0*
20,1,$1+$1,$6,$7,$8,$9,0*
20,1,$1+$1,$8,$9,$2,$3,0*%
G04 Aperture macros list end*
G04 #@! TA.AperFunction,ComponentPad*
%ADD10R,1.600000X1.600000*%
G04 #@! TD*
G04 #@! TA.AperFunction,ComponentPad*
%ADD11O,1.600000X1.600000*%
G04 #@! TD*
G04 #@! TA.AperFunction,ComponentPad*
%ADD12O,2.500000X1.600000*%
G04 #@! TD*
G04 #@! TA.AperFunction,ComponentPad*
%ADD13O,7.000000X3.500000*%
G04 #@! TD*
G04 #@! TA.AperFunction,SMDPad,CuDef*
%ADD14RoundRect,0.150000X-0.512500X-0.150000X0.512500X-0.150000X0.512500X0.150000X-0.512500X0.150000X0*%
G04 #@! TD*
G04 #@! TA.AperFunction,ComponentPad*
%ADD15R,1.700000X1.700000*%
G04 #@! TD*
G04 #@! TA.AperFunction,ComponentPad*
%ADD16O,1.700000X1.700000*%
G04 #@! TD*
G04 #@! TA.AperFunction,ComponentPad*
%ADD17O,1.600000X2.500000*%
G04 #@! TD*
G04 #@! TA.AperFunction,ComponentPad*
%ADD18O,3.500000X7.000000*%
G04 #@! TD*
G04 #@! TA.AperFunction,SMDPad,CuDef*
%ADD19R,0.900000X0.600000*%
G04 #@! TD*
G04 #@! TA.AperFunction,SMDPad,CuDef*
%ADD20RoundRect,0.237500X0.237500X-0.287500X0.237500X0.287500X-0.237500X0.287500X-0.237500X-0.287500X0*%
G04 #@! TD*
G04 #@! TA.AperFunction,SMDPad,CuDef*
%ADD21RoundRect,0.155000X0.212500X0.155000X-0.212500X0.155000X-0.212500X-0.155000X0.212500X-0.155000X0*%
G04 #@! TD*
G04 #@! TA.AperFunction,SMDPad,CuDef*
%ADD22RoundRect,0.155000X0.155000X-0.212500X0.155000X0.212500X-0.155000X0.212500X-0.155000X-0.212500X0*%
G04 #@! TD*
G04 #@! TA.AperFunction,ViaPad*
%ADD23C,0.450000*%
G04 #@! TD*
G04 #@! TA.AperFunction,Conductor*
%ADD24C,0.250000*%
G04 #@! TD*
G04 #@! TA.AperFunction,Conductor*
%ADD25C,0.349000*%
G04 #@! TD*
G04 #@! TA.AperFunction,Conductor*
%ADD26C,0.500000*%
G04 #@! TD*
G04 APERTURE END LIST*
D10*
X192024000Y-103674500D03*
D11*
X192024000Y-111294500D03*
D12*
X236270800Y-91846400D03*
D13*
X241350800Y-96926400D03*
X241350800Y-86766400D03*
D12*
X236270800Y-89306400D03*
D14*
X196982500Y-109662000D03*
X196982500Y-108712000D03*
X196982500Y-107762000D03*
X199257500Y-107762000D03*
X199257500Y-109662000D03*
D10*
X192024000Y-123698000D03*
D11*
X192024000Y-131318000D03*
D12*
X236220000Y-118872000D03*
D13*
X241300000Y-123952000D03*
X241300000Y-113792000D03*
D12*
X236220000Y-116332000D03*
D15*
X180340000Y-131318000D03*
D16*
X180340000Y-128778000D03*
X180340000Y-126238000D03*
X180340000Y-123698000D03*
X180340000Y-121158000D03*
X180340000Y-118618000D03*
X180340000Y-116078000D03*
X180340000Y-113538000D03*
X180340000Y-110998000D03*
X180340000Y-108458000D03*
X180340000Y-105918000D03*
X180340000Y-103378000D03*
X180340000Y-100838000D03*
X180340000Y-98298000D03*
X180340000Y-95758000D03*
D15*
X229870000Y-69215500D03*
D16*
X227330000Y-69215500D03*
X224790000Y-69215500D03*
X222250000Y-69215500D03*
X219710000Y-69215500D03*
X217170000Y-69215500D03*
X214630000Y-69215500D03*
X212090000Y-69215500D03*
X209550000Y-69215500D03*
X207010000Y-69215500D03*
X204470000Y-69215500D03*
X201930000Y-69215500D03*
X199390000Y-69215500D03*
X196850000Y-69215500D03*
X194310000Y-69215500D03*
D15*
X177793200Y-131328000D03*
D16*
X177793200Y-128788000D03*
X177793200Y-126248000D03*
X177793200Y-123708000D03*
X177793200Y-121168000D03*
X177793200Y-118628000D03*
X177793200Y-116088000D03*
X177793200Y-113548000D03*
X177793200Y-111008000D03*
X177793200Y-108468000D03*
X177793200Y-105928000D03*
X177793200Y-103388000D03*
X177793200Y-100848000D03*
X177793200Y-98308000D03*
X177793200Y-95768000D03*
X194310000Y-66675000D03*
X196850000Y-66675000D03*
X199390000Y-66675000D03*
X201930000Y-66675000D03*
X204470000Y-66675000D03*
X207010000Y-66675000D03*
X209550000Y-66675000D03*
X212090000Y-66675000D03*
X214630000Y-66675000D03*
X217170000Y-66675000D03*
X219710000Y-66675000D03*
X222250000Y-66675000D03*
X224790000Y-66675000D03*
X227330000Y-66675000D03*
D15*
X229870000Y-66675000D03*
D17*
X180340000Y-76200000D03*
D18*
X177800000Y-71120000D03*
X187960000Y-71120000D03*
D17*
X182880000Y-76200000D03*
X241300000Y-76200000D03*
D18*
X246380000Y-71120000D03*
X236220000Y-71120000D03*
D17*
X238760000Y-76200000D03*
D19*
X205099000Y-109662000D03*
X205099000Y-108712000D03*
X205099000Y-107762000D03*
X207899000Y-107762000D03*
X207899000Y-109662000D03*
D20*
X192786000Y-118336000D03*
X192786000Y-116586000D03*
X196850000Y-118336000D03*
X196850000Y-116586000D03*
D21*
X192786000Y-114554000D03*
X191651000Y-114554000D03*
X192786000Y-120396000D03*
X191651000Y-120396000D03*
X196850000Y-114554000D03*
X195715000Y-114554000D03*
X196850000Y-120396000D03*
X195715000Y-120396000D03*
D22*
X209801000Y-109728000D03*
X209801000Y-108593000D03*
X201041000Y-109787500D03*
X201041000Y-108652500D03*
X194945000Y-109914500D03*
X194945000Y-108779500D03*
X203197000Y-109847000D03*
X203197000Y-108712000D03*
D23*
X190500000Y-134620000D03*
X187960000Y-134620000D03*
X180340000Y-134620000D03*
X193040000Y-134620000D03*
X182880000Y-134620000D03*
X177800000Y-134620000D03*
X185420000Y-134620000D03*
X194310000Y-135890000D03*
X191770000Y-135890000D03*
X184150000Y-135890000D03*
X196850000Y-135890000D03*
X186690000Y-135890000D03*
X181610000Y-135890000D03*
X189230000Y-135890000D03*
X179070000Y-135890000D03*
X234950000Y-135890000D03*
X232410000Y-135890000D03*
X224790000Y-135890000D03*
X237490000Y-135890000D03*
X227330000Y-135890000D03*
X222250000Y-135890000D03*
X229870000Y-135890000D03*
X219710000Y-135890000D03*
X214630000Y-135890000D03*
X212090000Y-135890000D03*
X204470000Y-135890000D03*
X217170000Y-135890000D03*
X207010000Y-135890000D03*
X201930000Y-135890000D03*
X209550000Y-135890000D03*
X199390000Y-135890000D03*
X245745000Y-77470000D03*
X243840000Y-77470000D03*
X247650000Y-77470000D03*
X243205000Y-80010000D03*
X241300000Y-80010000D03*
X245110000Y-80010000D03*
X241935000Y-81280000D03*
X240030000Y-81280000D03*
X243840000Y-81280000D03*
X234315000Y-76200000D03*
X222885000Y-76200000D03*
X236220000Y-76200000D03*
X219075000Y-76200000D03*
X224790000Y-76200000D03*
X217170000Y-76200000D03*
X226695000Y-76200000D03*
X220980000Y-76200000D03*
X230505000Y-76200000D03*
X232410000Y-76200000D03*
X228600000Y-76200000D03*
X233045000Y-77470000D03*
X221615000Y-77470000D03*
X234950000Y-77470000D03*
X217805000Y-77470000D03*
X223520000Y-77470000D03*
X215900000Y-77470000D03*
X225425000Y-77470000D03*
X219710000Y-77470000D03*
X229235000Y-77470000D03*
X231140000Y-77470000D03*
X227330000Y-77470000D03*
X231775000Y-78740000D03*
X220345000Y-78740000D03*
X233680000Y-78740000D03*
X216535000Y-78740000D03*
X222250000Y-78740000D03*
X214630000Y-78740000D03*
X224155000Y-78740000D03*
X218440000Y-78740000D03*
X227965000Y-78740000D03*
X229870000Y-78740000D03*
X226060000Y-78740000D03*
X239395000Y-82550000D03*
X245110000Y-82550000D03*
X241300000Y-82550000D03*
X243205000Y-82550000D03*
X237490000Y-82550000D03*
X214630000Y-82550000D03*
X210820000Y-82550000D03*
X218440000Y-82550000D03*
X212725000Y-82550000D03*
X229870000Y-82550000D03*
X235585000Y-82550000D03*
X231775000Y-82550000D03*
X220345000Y-82550000D03*
X224155000Y-82550000D03*
X227965000Y-82550000D03*
X222250000Y-82550000D03*
X216535000Y-82550000D03*
X226060000Y-82550000D03*
X233680000Y-82550000D03*
X217170000Y-71120000D03*
X214630000Y-71120000D03*
X215900000Y-72390000D03*
X214630000Y-73660000D03*
X212090000Y-76200000D03*
X213360000Y-74930000D03*
X213360000Y-72390000D03*
X212090000Y-73660000D03*
X210820000Y-74930000D03*
X209550000Y-76200000D03*
X203200000Y-77470000D03*
X205740000Y-77470000D03*
X208280000Y-77470000D03*
X210820000Y-77470000D03*
X209550000Y-78740000D03*
X207010000Y-78740000D03*
X201930000Y-78740000D03*
X204470000Y-78740000D03*
X205740000Y-82550000D03*
X203200000Y-82550000D03*
X200660000Y-82550000D03*
X198120000Y-82550000D03*
X196850000Y-83820000D03*
X195580000Y-85090000D03*
X194310000Y-86360000D03*
X193040000Y-87630000D03*
X191770000Y-88900000D03*
X190500000Y-90170000D03*
X179070000Y-91440000D03*
X179070000Y-88900000D03*
X176530000Y-87630000D03*
X176530000Y-90170000D03*
X176530000Y-92710000D03*
X179070000Y-85090000D03*
X176530000Y-85090000D03*
X180340000Y-83820000D03*
X177800000Y-83820000D03*
X176530000Y-82550000D03*
X176530000Y-80010000D03*
X180340000Y-81280000D03*
X179070000Y-80010000D03*
X177800000Y-81280000D03*
X179070000Y-82550000D03*
X185420000Y-129540000D03*
X186690000Y-129540000D03*
X186690000Y-128270000D03*
X187960000Y-128270000D03*
X187960000Y-127000000D03*
X182880000Y-127000000D03*
X185420000Y-116840000D03*
X185420000Y-114300000D03*
X186690000Y-115570000D03*
X186690000Y-113030000D03*
X196850000Y-104140000D03*
X198120000Y-105410000D03*
X198120000Y-102870000D03*
X246380000Y-116840000D03*
X241300000Y-116840000D03*
X243840000Y-116840000D03*
X247650000Y-125730000D03*
X247650000Y-120650000D03*
X247650000Y-123190000D03*
X247650000Y-115570000D03*
X247650000Y-118110000D03*
X247650000Y-110490000D03*
X246380000Y-114300000D03*
X246380000Y-111760000D03*
X247650000Y-113030000D03*
X246380000Y-99060000D03*
X246380000Y-96520000D03*
X246380000Y-76200000D03*
X246380000Y-78740000D03*
X246380000Y-81280000D03*
X246380000Y-83820000D03*
X246380000Y-86360000D03*
X246380000Y-88900000D03*
X247650000Y-80010000D03*
X247650000Y-82550000D03*
X247650000Y-85090000D03*
X247650000Y-87630000D03*
X247650000Y-90170000D03*
X247650000Y-92710000D03*
X247650000Y-95250000D03*
X247650000Y-97790000D03*
X247650000Y-100330000D03*
X243840000Y-91440000D03*
X242570000Y-92710000D03*
X240030000Y-92710000D03*
X245110000Y-90170000D03*
X243840000Y-93980000D03*
X240030000Y-90170000D03*
X246380000Y-93980000D03*
X246380000Y-91440000D03*
X241300000Y-91440000D03*
X241300000Y-93980000D03*
X245110000Y-92710000D03*
X242570000Y-90170000D03*
X245110000Y-120650000D03*
X240030000Y-120650000D03*
X242570000Y-120650000D03*
X242570000Y-118110000D03*
X245110000Y-118110000D03*
X241300000Y-119380000D03*
X243840000Y-119380000D03*
X246380000Y-119380000D03*
X240030000Y-118110000D03*
X199390000Y-87630000D03*
X198120000Y-88900000D03*
X199390000Y-90170000D03*
X196850000Y-90170000D03*
X198120000Y-91440000D03*
X195580000Y-91440000D03*
X193040000Y-101600000D03*
X191770000Y-100330000D03*
X194310000Y-100330000D03*
X191770000Y-97790000D03*
X193040000Y-99060000D03*
X196850000Y-97790000D03*
X194310000Y-97790000D03*
X195580000Y-99060000D03*
X193040000Y-93980000D03*
X198120000Y-93980000D03*
X199390000Y-92710000D03*
X195580000Y-93980000D03*
X194310000Y-92710000D03*
X196850000Y-92710000D03*
X195580000Y-96520000D03*
X198120000Y-96520000D03*
X193040000Y-96520000D03*
X194310000Y-95250000D03*
X196850000Y-95250000D03*
X199390000Y-95250000D03*
X191770000Y-95250000D03*
X218440000Y-109220000D03*
X215900000Y-109220000D03*
X220980000Y-109220000D03*
X228600000Y-109220000D03*
X229870000Y-107950000D03*
X231140000Y-109220000D03*
X224790000Y-107950000D03*
X228600000Y-106680000D03*
X223520000Y-106680000D03*
X226060000Y-109220000D03*
X232410000Y-107950000D03*
X231140000Y-106680000D03*
X226060000Y-106680000D03*
X227330000Y-107950000D03*
X223520000Y-109220000D03*
X229870000Y-133350000D03*
X224790000Y-133350000D03*
X232410000Y-133350000D03*
X219710000Y-133350000D03*
X227330000Y-133350000D03*
X222250000Y-133350000D03*
X218440000Y-134620000D03*
X226060000Y-134620000D03*
X223520000Y-134620000D03*
X220980000Y-134620000D03*
X231140000Y-134620000D03*
X228600000Y-134620000D03*
X240030000Y-133350000D03*
X234950000Y-133350000D03*
X237490000Y-133350000D03*
X242570000Y-133350000D03*
X245110000Y-133350000D03*
X247650000Y-133350000D03*
X236220000Y-134620000D03*
X238760000Y-134620000D03*
X241300000Y-134620000D03*
X243840000Y-134620000D03*
X246380000Y-134620000D03*
X233680000Y-134620000D03*
X240030000Y-130810000D03*
X234950000Y-130810000D03*
X237490000Y-130810000D03*
X242570000Y-130810000D03*
X245110000Y-130810000D03*
X247650000Y-130810000D03*
X236220000Y-132080000D03*
X238760000Y-132080000D03*
X241300000Y-132080000D03*
X243840000Y-132080000D03*
X246380000Y-132080000D03*
X233680000Y-132080000D03*
X240030000Y-128270000D03*
X234950000Y-128270000D03*
X237490000Y-128270000D03*
X242570000Y-128270000D03*
X245110000Y-128270000D03*
X247650000Y-128270000D03*
X236220000Y-129540000D03*
X238760000Y-129540000D03*
X241300000Y-129540000D03*
X243840000Y-129540000D03*
X246380000Y-129540000D03*
X233680000Y-129540000D03*
X240030000Y-107950000D03*
X234950000Y-107950000D03*
X237490000Y-107950000D03*
X242570000Y-107950000D03*
X245110000Y-107950000D03*
X247650000Y-107950000D03*
X236220000Y-109220000D03*
X238760000Y-109220000D03*
X241300000Y-109220000D03*
X243840000Y-109220000D03*
X246380000Y-109220000D03*
X233680000Y-109220000D03*
X240030000Y-105410000D03*
X234950000Y-105410000D03*
X237490000Y-105410000D03*
X242570000Y-105410000D03*
X245110000Y-105410000D03*
X247650000Y-105410000D03*
X236220000Y-106680000D03*
X238760000Y-106680000D03*
X241300000Y-106680000D03*
X243840000Y-106680000D03*
X246380000Y-106680000D03*
X233680000Y-106680000D03*
X243840000Y-104140000D03*
X233680000Y-104140000D03*
X241300000Y-104140000D03*
X236220000Y-104140000D03*
X238760000Y-104140000D03*
X246380000Y-104140000D03*
X245110000Y-102870000D03*
X234950000Y-102870000D03*
X242570000Y-102870000D03*
X237490000Y-102870000D03*
X240030000Y-102870000D03*
X247650000Y-102870000D03*
X246380000Y-101600000D03*
X243840000Y-101600000D03*
X241300000Y-101600000D03*
X238760000Y-101600000D03*
X236220000Y-101600000D03*
X233680000Y-101600000D03*
X227330000Y-123190000D03*
X226060000Y-120650000D03*
X225425000Y-121920000D03*
X220345000Y-124460000D03*
X219710000Y-125730000D03*
X220345000Y-127000000D03*
X219075000Y-128270000D03*
X208915000Y-125730000D03*
X207010000Y-125730000D03*
X205105000Y-125730000D03*
X209550000Y-127000000D03*
X207645000Y-127000000D03*
X205740000Y-127000000D03*
X227965000Y-121920000D03*
X228600000Y-125730000D03*
X227965000Y-124460000D03*
X228600000Y-123190000D03*
X228600000Y-128270000D03*
X227965000Y-127000000D03*
X228600000Y-120650000D03*
X228600000Y-128905000D03*
X222885000Y-128905000D03*
X226695000Y-128905000D03*
X224790000Y-128905000D03*
X207137000Y-129794000D03*
X209042000Y-129794000D03*
X205232000Y-129794000D03*
X203327000Y-129794000D03*
X210820000Y-129794000D03*
X227965000Y-129794000D03*
X224155000Y-129794000D03*
X220345000Y-129794000D03*
X214630000Y-129794000D03*
X222250000Y-129794000D03*
X226060000Y-129794000D03*
X212725000Y-129794000D03*
X216535000Y-129794000D03*
X203835000Y-120650000D03*
X203200000Y-116840000D03*
X203835000Y-118110000D03*
X205740000Y-121920000D03*
X203835000Y-123190000D03*
X203200000Y-114300000D03*
X222885000Y-115570000D03*
X211455000Y-115570000D03*
X224790000Y-115570000D03*
X209550000Y-115570000D03*
X210820000Y-114300000D03*
X213360000Y-115570000D03*
X217170000Y-115570000D03*
X226695000Y-115570000D03*
X205105000Y-114300000D03*
X220980000Y-115570000D03*
X219075000Y-115570000D03*
X222250000Y-114300000D03*
X227965000Y-114300000D03*
X224155000Y-114300000D03*
X212725000Y-114300000D03*
X216535000Y-114300000D03*
X203835000Y-115570000D03*
X220345000Y-114300000D03*
X214630000Y-114300000D03*
X218440000Y-114300000D03*
X226060000Y-114300000D03*
X215265000Y-115570000D03*
X228600000Y-93345000D03*
X226060000Y-94615000D03*
X227965000Y-94615000D03*
X227965000Y-97155000D03*
X226060000Y-97155000D03*
X228600000Y-95885000D03*
X226695000Y-95885000D03*
X227965000Y-99695000D03*
X226060000Y-99695000D03*
X228600000Y-98425000D03*
X226695000Y-98425000D03*
X228600000Y-100965000D03*
X226695000Y-100965000D03*
X220345000Y-99695000D03*
X215265000Y-100965000D03*
X219075000Y-100965000D03*
X217170000Y-100965000D03*
X213360000Y-100965000D03*
X211455000Y-100965000D03*
X208915000Y-99695000D03*
X207010000Y-99695000D03*
X207645000Y-100965000D03*
X207010000Y-102235000D03*
X210820000Y-102235000D03*
X222250000Y-102235000D03*
X227965000Y-102235000D03*
X224155000Y-102235000D03*
X212725000Y-102235000D03*
X216535000Y-102235000D03*
X208915000Y-102235000D03*
X218440000Y-102235000D03*
X226060000Y-102235000D03*
X203200000Y-99695000D03*
X203200000Y-102235000D03*
X205105000Y-102235000D03*
X205105000Y-99695000D03*
X203835000Y-100965000D03*
X203200000Y-95250000D03*
X205105000Y-95250000D03*
X203835000Y-96520000D03*
X203200000Y-92710000D03*
X205105000Y-92710000D03*
X203835000Y-93980000D03*
X205740000Y-93980000D03*
X203200000Y-90170000D03*
X205105000Y-90170000D03*
X203835000Y-91440000D03*
X205740000Y-91440000D03*
X207645000Y-88900000D03*
X203835000Y-88900000D03*
X211455000Y-88900000D03*
X205740000Y-88900000D03*
X222885000Y-88900000D03*
X224790000Y-88900000D03*
X213360000Y-88900000D03*
X217170000Y-88900000D03*
X220980000Y-88900000D03*
X215265000Y-88900000D03*
X209550000Y-88900000D03*
X219075000Y-88900000D03*
X226695000Y-88900000D03*
X227965000Y-87630000D03*
X222250000Y-87630000D03*
X226060000Y-87630000D03*
X224155000Y-87630000D03*
X220345000Y-87630000D03*
X218440000Y-87630000D03*
X216535000Y-87630000D03*
X214630000Y-87630000D03*
X212725000Y-87630000D03*
X210820000Y-87630000D03*
X208915000Y-87630000D03*
X207010000Y-87630000D03*
X205105000Y-87630000D03*
X203200000Y-87630000D03*
X194818000Y-115951000D03*
X199517000Y-118745000D03*
X224917000Y-125222000D03*
X205756500Y-107737500D03*
X219329000Y-94107000D03*
X201580056Y-109886056D03*
X202565000Y-110871000D03*
X218567000Y-122809000D03*
X210566000Y-98171000D03*
X216154000Y-93345000D03*
X210312000Y-125349000D03*
X215265000Y-119126000D03*
X208788000Y-94742000D03*
X216281000Y-95250000D03*
X216154000Y-122301000D03*
X208788000Y-121539000D03*
X208534000Y-108712000D03*
X203835000Y-109728000D03*
X205962500Y-109601000D03*
X200660000Y-108712000D03*
X195707000Y-108712000D03*
X197993000Y-108712000D03*
X195834000Y-119888000D03*
X191770000Y-119888000D03*
X191770000Y-115062000D03*
X195834000Y-115062000D03*
X226558450Y-93167200D03*
X219192450Y-93167200D03*
X213604450Y-93167200D03*
X214620450Y-95961200D03*
X212080450Y-99009200D03*
X213858450Y-99771200D03*
X210810450Y-93929200D03*
X220208450Y-95707200D03*
X224526450Y-96469200D03*
X222494450Y-98755200D03*
X207025850Y-93192600D03*
X200964800Y-87543600D03*
X200964800Y-88813600D03*
X200964800Y-90083600D03*
X200964800Y-94528600D03*
X200964800Y-95798600D03*
X200964800Y-100243600D03*
X200964800Y-101513600D03*
X200964800Y-102783600D03*
X200964800Y-104053600D03*
X202234800Y-104053600D03*
X203504800Y-104053600D03*
X204774800Y-104053600D03*
X209219800Y-104053600D03*
X210489800Y-104053600D03*
X214934800Y-104053600D03*
X216204800Y-104053600D03*
X220649800Y-104053600D03*
X221919800Y-104053600D03*
X226999800Y-104053600D03*
X228269800Y-104053600D03*
X229539800Y-104053600D03*
X230174800Y-103418600D03*
X230174800Y-102148600D03*
X230174800Y-100878600D03*
X230174800Y-95798600D03*
X230174800Y-94528600D03*
X230174800Y-89448600D03*
X230174800Y-88178600D03*
X230174800Y-86908600D03*
X200939400Y-85867200D03*
X202209400Y-85867200D03*
X221894400Y-85867200D03*
X204749400Y-85867200D03*
X203479400Y-85867200D03*
X210464400Y-85867200D03*
X214909400Y-85867200D03*
X216179400Y-85867200D03*
X220624400Y-85867200D03*
X209194400Y-85867200D03*
X229514400Y-85867200D03*
X228244400Y-85867200D03*
X226974400Y-85867200D03*
X226558450Y-93167200D03*
X219192450Y-93167200D03*
X213604450Y-93167200D03*
X214620450Y-95961200D03*
X212080450Y-99009200D03*
X213858450Y-99771200D03*
X210810450Y-93929200D03*
X220208450Y-95707200D03*
X224526450Y-96469200D03*
X222494450Y-98755200D03*
X207025850Y-93192600D03*
X200964800Y-87543600D03*
X200964800Y-88813600D03*
X200964800Y-90083600D03*
X200964800Y-94528600D03*
X200964800Y-95798600D03*
X200964800Y-100243600D03*
X200964800Y-101513600D03*
X200964800Y-102783600D03*
X200964800Y-104053600D03*
X202234800Y-104053600D03*
X203504800Y-104053600D03*
X204774800Y-104053600D03*
X209219800Y-104053600D03*
X210489800Y-104053600D03*
X214934800Y-104053600D03*
X216204800Y-104053600D03*
X220649800Y-104053600D03*
X221919800Y-104053600D03*
X226999800Y-104053600D03*
X228269800Y-104053600D03*
X229539800Y-104053600D03*
X230174800Y-103418600D03*
X230174800Y-102148600D03*
X230174800Y-100878600D03*
X230174800Y-95798600D03*
X230174800Y-94528600D03*
X230174800Y-89448600D03*
X230174800Y-88178600D03*
X230174800Y-86908600D03*
X200939400Y-85867200D03*
X202209400Y-85867200D03*
X221894400Y-85867200D03*
X204749400Y-85867200D03*
X203479400Y-85867200D03*
X210464400Y-85867200D03*
X214909400Y-85867200D03*
X216179400Y-85867200D03*
X220624400Y-85867200D03*
X209194400Y-85867200D03*
X229514400Y-85867200D03*
X228244400Y-85867200D03*
X226974400Y-85867200D03*
X226923600Y-112892800D03*
X228193600Y-112892800D03*
X229463600Y-112892800D03*
X209143600Y-112892800D03*
X220573600Y-112892800D03*
X216128600Y-112892800D03*
X214858600Y-112892800D03*
X210413600Y-112892800D03*
X203428600Y-112892800D03*
X204698600Y-112892800D03*
X221843600Y-112892800D03*
X202158600Y-112892800D03*
X200888600Y-112892800D03*
X230124000Y-113934200D03*
X230124000Y-115204200D03*
X230124000Y-116474200D03*
X230124000Y-121554200D03*
X230124000Y-122824200D03*
X230124000Y-127904200D03*
X230124000Y-129174200D03*
X230124000Y-130444200D03*
X229489000Y-131079200D03*
X228219000Y-131079200D03*
X226949000Y-131079200D03*
X221869000Y-131079200D03*
X220599000Y-131079200D03*
X216154000Y-131079200D03*
X214884000Y-131079200D03*
X210439000Y-131079200D03*
X209169000Y-131079200D03*
X204724000Y-131079200D03*
X203454000Y-131079200D03*
X202184000Y-131079200D03*
X200914000Y-131079200D03*
X200914000Y-129809200D03*
X200914000Y-128539200D03*
X200914000Y-127269200D03*
X200914000Y-122824200D03*
X200914000Y-121554200D03*
X200914000Y-117109200D03*
X200914000Y-115839200D03*
X200914000Y-114569200D03*
X207162400Y-119989600D03*
X222443650Y-125780800D03*
X224475650Y-123494800D03*
X220157650Y-122732800D03*
X210759650Y-120954800D03*
X213807650Y-126796800D03*
X212029650Y-126034800D03*
X214569650Y-122986800D03*
X213553650Y-120192800D03*
X219141650Y-120192800D03*
X226507650Y-120192800D03*
D24*
X217805000Y-94107000D02*
X219329000Y-94107000D01*
X215831000Y-92133000D02*
X217805000Y-94107000D01*
X206306000Y-95571604D02*
X209744604Y-92133000D01*
X206306000Y-108205000D02*
X206306000Y-95571604D01*
X205799000Y-108712000D02*
X206306000Y-108205000D01*
X209744604Y-92133000D02*
X215831000Y-92133000D01*
X205099000Y-108712000D02*
X205799000Y-108712000D01*
X206756000Y-97155000D02*
X207772000Y-98171000D01*
X208788000Y-93726000D02*
X206756000Y-95758000D01*
X210947000Y-92583000D02*
X209804000Y-93726000D01*
X206756000Y-95758000D02*
X206756000Y-97155000D01*
X215392000Y-92583000D02*
X210947000Y-92583000D01*
X216154000Y-93345000D02*
X215392000Y-92583000D01*
X209804000Y-93726000D02*
X208788000Y-93726000D01*
X207772000Y-98171000D02*
X210566000Y-98171000D01*
X205682000Y-119701604D02*
X205682000Y-117534396D01*
X209801000Y-113415396D02*
X209801000Y-109728000D01*
X207011396Y-121031000D02*
X205682000Y-119701604D01*
X205682000Y-117534396D02*
X209801000Y-113415396D01*
X207772000Y-121031000D02*
X207011396Y-121031000D01*
X209238000Y-120523000D02*
X208280000Y-120523000D01*
X210566000Y-121851000D02*
X209238000Y-120523000D01*
X208280000Y-120523000D02*
X207772000Y-121031000D01*
X206883000Y-121539000D02*
X208788000Y-121539000D01*
X205232000Y-119888000D02*
X206883000Y-121539000D01*
X207010000Y-112903000D02*
X207010000Y-115570000D01*
X206375000Y-112268000D02*
X207010000Y-112903000D01*
X206375000Y-110871000D02*
X206375000Y-112268000D01*
X207010000Y-115570000D02*
X205232000Y-117348000D01*
X205232000Y-117348000D02*
X205232000Y-119888000D01*
X210566000Y-121851000D02*
X212673268Y-121851000D01*
X210439000Y-121851000D02*
X210566000Y-121851000D01*
X215265000Y-119259268D02*
X215265000Y-119126000D01*
X212673268Y-121851000D02*
X215265000Y-119259268D01*
X214122000Y-109728000D02*
X209801000Y-109728000D01*
X214384800Y-100022668D02*
X214384800Y-109465200D01*
X216916000Y-97491468D02*
X214384800Y-100022668D01*
X216916000Y-94107000D02*
X216916000Y-97491468D01*
X214384800Y-109465200D02*
X214122000Y-109728000D01*
X216154000Y-93345000D02*
X216916000Y-94107000D01*
X193548000Y-113792000D02*
X192786000Y-114554000D01*
X193548000Y-109982000D02*
X193548000Y-113792000D01*
X193421000Y-109855000D02*
X193548000Y-109982000D01*
X191897000Y-109474000D02*
X192278000Y-109855000D01*
X192278000Y-109855000D02*
X193421000Y-109855000D01*
X191897000Y-103801500D02*
X191897000Y-109474000D01*
X192024000Y-103674500D02*
X191897000Y-103801500D01*
D25*
X179073200Y-122428000D02*
X181102000Y-122428000D01*
X177793200Y-123708000D02*
X179073200Y-122428000D01*
D26*
X187706000Y-122428000D02*
X181102000Y-122428000D01*
X189738000Y-120396000D02*
X187706000Y-122428000D01*
X198616850Y-84492200D02*
X189738000Y-93371050D01*
X205983350Y-84492200D02*
X205613000Y-84492200D01*
X189738000Y-93371050D02*
X189738000Y-120396000D01*
X217945275Y-72530275D02*
X205983350Y-84492200D01*
X220487000Y-70515500D02*
X219960050Y-70515500D01*
X219960050Y-70515500D02*
X217945275Y-72530275D01*
X221025500Y-69977000D02*
X220487000Y-70515500D01*
X205613000Y-84492200D02*
X198616850Y-84492200D01*
D25*
X221025500Y-67899500D02*
X221025500Y-69977000D01*
X222250000Y-66675000D02*
X221025500Y-67899500D01*
D26*
X222250000Y-71374000D02*
X221742000Y-71882000D01*
X222250000Y-69215500D02*
X222250000Y-71374000D01*
X190500000Y-120650000D02*
X187452000Y-123698000D01*
X190500000Y-93599000D02*
X190500000Y-120650000D01*
X206273300Y-85192200D02*
X198906800Y-85192200D01*
X219583500Y-71882000D02*
X206273300Y-85192200D01*
X198906800Y-85192200D02*
X190500000Y-93599000D01*
X221742000Y-71882000D02*
X219583500Y-71882000D01*
D24*
X194437000Y-115951000D02*
X194310000Y-116078000D01*
X194818000Y-115951000D02*
X194437000Y-115951000D01*
X199517000Y-125603000D02*
X199517000Y-118745000D01*
X199771000Y-125857000D02*
X199517000Y-125603000D01*
X201803000Y-125857000D02*
X199771000Y-125857000D01*
X205035200Y-129089200D02*
X201803000Y-125857000D01*
X221049800Y-129089200D02*
X205035200Y-129089200D01*
X224917000Y-125222000D02*
X221049800Y-129089200D01*
X205123500Y-107737500D02*
X205099000Y-107762000D01*
X205756500Y-107737500D02*
X205123500Y-107737500D01*
X206883000Y-103428832D02*
X206883000Y-110363000D01*
X206883000Y-110363000D02*
X206375000Y-110871000D01*
X212089282Y-98222550D02*
X206883000Y-103428832D01*
X212268550Y-98222550D02*
X212089282Y-98222550D01*
X201041000Y-109787500D02*
X201481500Y-109787500D01*
X201481500Y-109787500D02*
X201580056Y-109886056D01*
X202565000Y-110871000D02*
X202692000Y-110871000D01*
X206375000Y-110871000D02*
X202565000Y-110871000D01*
X197856173Y-107762000D02*
X196982500Y-107762000D01*
X198552173Y-108458000D02*
X197856173Y-107762000D01*
X200796828Y-107762000D02*
X200100828Y-108458000D01*
X205099000Y-107762000D02*
X200796828Y-107762000D01*
X200100828Y-108458000D02*
X198552173Y-108458000D01*
D26*
X200719500Y-108652500D02*
X200660000Y-108712000D01*
X201041000Y-108652500D02*
X200719500Y-108652500D01*
X200915500Y-109662000D02*
X201041000Y-109787500D01*
X199257500Y-109662000D02*
X200915500Y-109662000D01*
X202603901Y-108712000D02*
X204594000Y-108712000D01*
X202378000Y-110042000D02*
X202378000Y-108937901D01*
X201549000Y-110871000D02*
X202378000Y-110042000D01*
X196850000Y-114554000D02*
X200533000Y-110871000D01*
X200533000Y-110871000D02*
X201549000Y-110871000D01*
X202378000Y-108937901D02*
X202603901Y-108712000D01*
D24*
X209801000Y-109728000D02*
X209801000Y-110233000D01*
D26*
X209735000Y-109662000D02*
X207899000Y-109662000D01*
X209801000Y-109728000D02*
X209735000Y-109662000D01*
X208653000Y-108593000D02*
X208534000Y-108712000D01*
X209296000Y-108593000D02*
X208653000Y-108593000D01*
X203716000Y-109847000D02*
X203197000Y-109847000D01*
X203835000Y-109728000D02*
X203716000Y-109847000D01*
D24*
X218694000Y-122936000D02*
X218567000Y-122809000D01*
X218694000Y-126873000D02*
X218694000Y-122936000D01*
X203073000Y-119253000D02*
X203073000Y-126111000D01*
X202692000Y-118872000D02*
X203073000Y-119253000D01*
X203073000Y-126111000D02*
X204978000Y-128016000D01*
X217551000Y-128016000D02*
X218694000Y-126873000D01*
X200787000Y-118872000D02*
X202692000Y-118872000D01*
X196850000Y-114935000D02*
X200787000Y-118872000D01*
X196850000Y-114554000D02*
X196850000Y-114935000D01*
X204978000Y-128016000D02*
X217551000Y-128016000D01*
X211201000Y-126619000D02*
X210312000Y-125730000D01*
X212725000Y-126619000D02*
X211201000Y-126619000D01*
X210312000Y-125730000D02*
X210312000Y-125349000D01*
X216704000Y-122640000D02*
X212725000Y-126619000D01*
X216704000Y-120565000D02*
X216704000Y-122640000D01*
X215265000Y-119126000D02*
X216704000Y-120565000D01*
X212268550Y-98222550D02*
X208788000Y-94742000D01*
X213308450Y-98222550D02*
X212268550Y-98222550D01*
X213308450Y-98222550D02*
X216281000Y-95250000D01*
X209550000Y-122301000D02*
X216154000Y-122301000D01*
X208788000Y-121539000D02*
X209550000Y-122301000D01*
D26*
X196850000Y-121372000D02*
X196850000Y-120396000D01*
X193274000Y-124948000D02*
X196850000Y-121372000D01*
X181209000Y-124948000D02*
X193274000Y-124948000D01*
X181183500Y-124922500D02*
X181209000Y-124948000D01*
D25*
X181183500Y-124922500D02*
X181229000Y-124968000D01*
X179007700Y-124922500D02*
X181183500Y-124922500D01*
X177793200Y-123708000D02*
X179007700Y-124922500D01*
D26*
X192786000Y-120484099D02*
X192786000Y-120396000D01*
X191223099Y-122047000D02*
X192786000Y-120484099D01*
X189103000Y-122047000D02*
X191223099Y-122047000D01*
X187452000Y-123698000D02*
X189103000Y-122047000D01*
X180340000Y-123698000D02*
X187452000Y-123698000D01*
X205425000Y-109662000D02*
X205486000Y-109601000D01*
X205070500Y-109662000D02*
X205901500Y-109662000D01*
D24*
X194310000Y-109279500D02*
X194945000Y-109914500D01*
X194310000Y-108368177D02*
X194310000Y-109279500D01*
X194916177Y-107762000D02*
X194310000Y-108368177D01*
X196982500Y-107762000D02*
X194916177Y-107762000D01*
D26*
X194945000Y-112395000D02*
X192786000Y-114554000D01*
X194945000Y-109914500D02*
X194945000Y-112395000D01*
X195197500Y-109662000D02*
X194945000Y-109914500D01*
X196982500Y-109662000D02*
X195197500Y-109662000D01*
X194945000Y-108712000D02*
X195707000Y-108712000D01*
X196982500Y-108712000D02*
X197993000Y-108712000D01*
D24*
X194310000Y-121412000D02*
X192024000Y-123698000D01*
X194310000Y-116078000D02*
X194310000Y-121412000D01*
X192786000Y-114554000D02*
X194310000Y-116078000D01*
D26*
X195715000Y-120007000D02*
X195834000Y-119888000D01*
X195715000Y-120396000D02*
X195715000Y-120007000D01*
X191651000Y-120007000D02*
X191770000Y-119888000D01*
X191651000Y-120396000D02*
X191651000Y-120007000D01*
X191651000Y-114943000D02*
X191770000Y-115062000D01*
X191651000Y-114554000D02*
X191651000Y-114943000D01*
X195715000Y-114943000D02*
X195834000Y-115062000D01*
X195715000Y-114554000D02*
X195715000Y-114943000D01*
X192786000Y-118336000D02*
X192786000Y-120396000D01*
X192786000Y-116586000D02*
X192786000Y-114554000D01*
X196850000Y-116586000D02*
X196850000Y-114554000D01*
X196850000Y-118336000D02*
X196850000Y-120396000D01*
D24*
X208153500Y-75692000D02*
X214630000Y-69215500D01*
X188976000Y-89408000D02*
X202692000Y-75692000D01*
X188976000Y-107442000D02*
X188976000Y-89408000D01*
X202692000Y-75692000D02*
X208153500Y-75692000D01*
X180340000Y-116078000D02*
X188976000Y-107442000D01*
X180636701Y-114903000D02*
X178978200Y-114903000D01*
X188468000Y-107071701D02*
X180636701Y-114903000D01*
X188468000Y-89154000D02*
X188468000Y-107071701D01*
X178978200Y-114903000D02*
X177793200Y-116088000D01*
X202438000Y-75184000D02*
X188468000Y-89154000D01*
X207783201Y-75184000D02*
X202438000Y-75184000D01*
X213265000Y-69702201D02*
X207783201Y-75184000D01*
X213265000Y-68040000D02*
X213265000Y-69702201D01*
X214630000Y-66675000D02*
X213265000Y-68040000D01*
X202184000Y-74676000D02*
X206629500Y-74676000D01*
X187960000Y-88900000D02*
X202184000Y-74676000D01*
X187960000Y-105918000D02*
X187960000Y-88900000D01*
X206629500Y-74676000D02*
X212090000Y-69215500D01*
X180340000Y-113538000D02*
X187960000Y-105918000D01*
X179073200Y-112268000D02*
X177793200Y-113548000D01*
X187452000Y-88646000D02*
X187452000Y-105547701D01*
X187452000Y-105547701D02*
X180731701Y-112268000D01*
X206326805Y-74100396D02*
X201997604Y-74100396D01*
X180731701Y-112268000D02*
X179073200Y-112268000D01*
X210725000Y-69702201D02*
X206326805Y-74100396D01*
X210725000Y-68040000D02*
X210725000Y-69702201D01*
X201997604Y-74100396D02*
X187452000Y-88646000D01*
X212090000Y-66675000D02*
X210725000Y-68040000D01*
X179073200Y-109728000D02*
X177793200Y-111008000D01*
X180731701Y-109728000D02*
X179073200Y-109728000D01*
X186436000Y-104023701D02*
X180731701Y-109728000D01*
X186436000Y-88138000D02*
X186436000Y-104023701D01*
X204867003Y-73020198D02*
X201553802Y-73020198D01*
X201553802Y-73020198D02*
X186436000Y-88138000D01*
X208185000Y-68040000D02*
X208185000Y-69702201D01*
X209550000Y-66675000D02*
X208185000Y-68040000D01*
X208185000Y-69702201D02*
X204867003Y-73020198D01*
X201740198Y-73470198D02*
X205295302Y-73470198D01*
X205295302Y-73470198D02*
X209550000Y-69215500D01*
X186944000Y-88266396D02*
X201740198Y-73470198D01*
X186944000Y-104394000D02*
X186944000Y-88266396D01*
X180340000Y-110998000D02*
X186944000Y-104394000D01*
X201354396Y-72332000D02*
X203893500Y-72332000D01*
X185870000Y-87816396D02*
X201354396Y-72332000D01*
X185870000Y-95446000D02*
X185870000Y-87816396D01*
X203893500Y-72332000D02*
X207010000Y-69215500D01*
X185928000Y-102870000D02*
X185928000Y-95504000D01*
X185928000Y-95504000D02*
X185870000Y-95446000D01*
X180340000Y-108458000D02*
X185928000Y-102870000D01*
X179073200Y-107188000D02*
X177793200Y-108468000D01*
X180731701Y-107188000D02*
X179073200Y-107188000D01*
X185420000Y-102499701D02*
X180731701Y-107188000D01*
X205645000Y-69702201D02*
X203465201Y-71882000D01*
X205645000Y-68040000D02*
X205645000Y-69702201D01*
X203465201Y-71882000D02*
X201168000Y-71882000D01*
X185420000Y-87630000D02*
X185420000Y-102499701D01*
X201168000Y-71882000D02*
X185420000Y-87630000D01*
X207010000Y-66675000D02*
X205645000Y-68040000D01*
X184916188Y-101341812D02*
X180340000Y-105918000D01*
X200913386Y-71382990D02*
X184916188Y-87380188D01*
X184916188Y-87380188D02*
X184916188Y-101341812D01*
X202302510Y-71382990D02*
X200913386Y-71382990D01*
X204470000Y-69215500D02*
X202302510Y-71382990D01*
X179073200Y-104648000D02*
X177793200Y-105928000D01*
X184368000Y-101011701D02*
X180731701Y-104648000D01*
X200726990Y-70932990D02*
X184368000Y-87291980D01*
X180731701Y-104648000D02*
X179073200Y-104648000D01*
X201874211Y-70932990D02*
X200726990Y-70932990D01*
X203105000Y-69702201D02*
X201874211Y-70932990D01*
X184368000Y-87291980D02*
X184368000Y-101011701D01*
X203105000Y-68040000D02*
X203105000Y-69702201D01*
X204470000Y-66675000D02*
X203105000Y-68040000D01*
X183918000Y-87105584D02*
X183918000Y-87122000D01*
X201808084Y-69215500D02*
X183918000Y-87105584D01*
X201930000Y-69215500D02*
X201808084Y-69215500D01*
X183918000Y-87122000D02*
X183918000Y-99800000D01*
X183918000Y-99800000D02*
X180340000Y-103378000D01*
X200755000Y-67850000D02*
X201930000Y-66675000D01*
X200755000Y-69632188D02*
X200755000Y-67850000D01*
X183468000Y-86919188D02*
X200755000Y-69632188D01*
X183468000Y-99371701D02*
X183468000Y-86919188D01*
X180826701Y-102013000D02*
X183468000Y-99371701D01*
X179168200Y-102013000D02*
X180826701Y-102013000D01*
X177793200Y-103388000D02*
X179168200Y-102013000D01*
X183018000Y-86732792D02*
X183018000Y-98160000D01*
X199390000Y-70360792D02*
X183018000Y-86732792D01*
X199390000Y-69215500D02*
X199390000Y-70360792D01*
X183018000Y-98160000D02*
X180340000Y-100838000D01*
X198215000Y-67850000D02*
X199390000Y-66675000D01*
X198215000Y-70899396D02*
X198215000Y-67850000D01*
X182568000Y-86546396D02*
X198215000Y-70899396D01*
X182568000Y-97731701D02*
X182568000Y-86546396D01*
X180826701Y-99473000D02*
X182568000Y-97731701D01*
X179168200Y-99473000D02*
X180826701Y-99473000D01*
X177793200Y-100848000D02*
X179168200Y-99473000D01*
X196850000Y-71628000D02*
X196850000Y-69215500D01*
X182118000Y-86360000D02*
X196850000Y-71628000D01*
X182118000Y-96520000D02*
X182118000Y-86360000D01*
X180340000Y-98298000D02*
X182118000Y-96520000D01*
X195485000Y-68040000D02*
X196850000Y-66675000D01*
X195485000Y-72231000D02*
X195485000Y-68040000D01*
X181610000Y-86106000D02*
X195485000Y-72231000D01*
X181610000Y-96149701D02*
X181610000Y-86106000D01*
X180636701Y-97123000D02*
X181610000Y-96149701D01*
X177793200Y-98308000D02*
X178978200Y-97123000D01*
X178978200Y-97123000D02*
X180636701Y-97123000D01*
X194310000Y-72644000D02*
X194310000Y-69215500D01*
X180340000Y-86614000D02*
X194310000Y-72644000D01*
X180340000Y-95758000D02*
X180340000Y-86614000D01*
X177793200Y-88398800D02*
X177793200Y-95768000D01*
X191008000Y-75184000D02*
X177793200Y-88398800D01*
X194310000Y-66675000D02*
X191008000Y-69977000D01*
X191008000Y-69977000D02*
X191008000Y-75184000D01*
M02*
