G04 #@! TF.GenerationSoftware,KiCad,Pcbnew,7.0.7*
G04 #@! TF.CreationDate,2023-11-11T11:47:43+00:00*
G04 #@! TF.ProjectId,AD3 Front End Amplifier,41443320-4672-46f6-9e74-20456e642041,rev?*
G04 #@! TF.SameCoordinates,Original*
G04 #@! TF.FileFunction,Legend,Top*
G04 #@! TF.FilePolarity,Positive*
%FSLAX46Y46*%
G04 Gerber Fmt 4.6, Leading zero omitted, Abs format (unit mm)*
G04 Created by KiCad (PCBNEW 7.0.7) date 2023-11-11 11:47:43*
%MOMM*%
%LPD*%
G01*
G04 APERTURE LIST*
G04 Aperture macros list*
%AMRoundRect*
0 Rectangle with rounded corners*
0 $1 Rounding radius*
0 $2 $3 $4 $5 $6 $7 $8 $9 X,Y pos of 4 corners*
0 Add a 4 corners polygon primitive as box body*
4,1,4,$2,$3,$4,$5,$6,$7,$8,$9,$2,$3,0*
0 Add four circle primitives for the rounded corners*
1,1,$1+$1,$2,$3*
1,1,$1+$1,$4,$5*
1,1,$1+$1,$6,$7*
1,1,$1+$1,$8,$9*
0 Add four rect primitives between the rounded corners*
20,1,$1+$1,$2,$3,$4,$5,0*
20,1,$1+$1,$4,$5,$6,$7,0*
20,1,$1+$1,$6,$7,$8,$9,0*
20,1,$1+$1,$8,$9,$2,$3,0*%
G04 Aperture macros list end*
%ADD10C,0.400000*%
%ADD11C,0.150000*%
%ADD12C,0.120000*%
%ADD13C,0.200000*%
%ADD14C,0.100000*%
%ADD15RoundRect,0.150000X-0.512500X-0.150000X0.512500X-0.150000X0.512500X0.150000X-0.512500X0.150000X0*%
%ADD16RoundRect,0.150000X0.512500X0.150000X-0.512500X0.150000X-0.512500X-0.150000X0.512500X-0.150000X0*%
%ADD17R,1.600000X1.600000*%
%ADD18O,1.600000X1.600000*%
%ADD19RoundRect,0.160000X0.197500X0.160000X-0.197500X0.160000X-0.197500X-0.160000X0.197500X-0.160000X0*%
%ADD20RoundRect,0.160000X-0.160000X0.197500X-0.160000X-0.197500X0.160000X-0.197500X0.160000X0.197500X0*%
%ADD21RoundRect,0.160000X0.160000X-0.197500X0.160000X0.197500X-0.160000X0.197500X-0.160000X-0.197500X0*%
%ADD22RoundRect,0.250000X-0.450000X0.350000X-0.450000X-0.350000X0.450000X-0.350000X0.450000X0.350000X0*%
%ADD23RoundRect,0.160000X-0.197500X-0.160000X0.197500X-0.160000X0.197500X0.160000X-0.197500X0.160000X0*%
%ADD24O,2.500000X1.600000*%
%ADD25O,7.000000X3.500000*%
%ADD26R,0.600000X1.200000*%
%ADD27R,0.990000X5.140000*%
%ADD28R,0.990000X3.000000*%
%ADD29R,3.590000X0.990000*%
%ADD30R,3.000000X0.990000*%
%ADD31R,2.990000X0.990000*%
%ADD32RoundRect,0.160000X0.160000X-0.222500X0.160000X0.222500X-0.160000X0.222500X-0.160000X-0.222500X0*%
%ADD33RoundRect,0.155000X0.212500X0.155000X-0.212500X0.155000X-0.212500X-0.155000X0.212500X-0.155000X0*%
%ADD34RoundRect,0.155000X-0.155000X0.212500X-0.155000X-0.212500X0.155000X-0.212500X0.155000X0.212500X0*%
%ADD35RoundRect,0.155000X-0.212500X-0.155000X0.212500X-0.155000X0.212500X0.155000X-0.212500X0.155000X0*%
%ADD36RoundRect,0.155000X0.155000X-0.212500X0.155000X0.212500X-0.155000X0.212500X-0.155000X-0.212500X0*%
%ADD37RoundRect,0.250000X0.337500X0.475000X-0.337500X0.475000X-0.337500X-0.475000X0.337500X-0.475000X0*%
%ADD38RoundRect,0.237500X-0.237500X0.250000X-0.237500X-0.250000X0.237500X-0.250000X0.237500X0.250000X0*%
%ADD39RoundRect,0.237500X0.250000X0.237500X-0.250000X0.237500X-0.250000X-0.237500X0.250000X-0.237500X0*%
%ADD40R,1.700000X1.700000*%
%ADD41O,1.700000X1.700000*%
%ADD42O,1.600000X2.500000*%
%ADD43O,3.500000X7.000000*%
G04 APERTURE END LIST*
D10*
X243690204Y-104318961D02*
X243594966Y-104414200D01*
X243594966Y-104414200D02*
X243309252Y-104509438D01*
X243309252Y-104509438D02*
X243118776Y-104509438D01*
X243118776Y-104509438D02*
X242833061Y-104414200D01*
X242833061Y-104414200D02*
X242642585Y-104223723D01*
X242642585Y-104223723D02*
X242547347Y-104033247D01*
X242547347Y-104033247D02*
X242452109Y-103652295D01*
X242452109Y-103652295D02*
X242452109Y-103366580D01*
X242452109Y-103366580D02*
X242547347Y-102985628D01*
X242547347Y-102985628D02*
X242642585Y-102795152D01*
X242642585Y-102795152D02*
X242833061Y-102604676D01*
X242833061Y-102604676D02*
X243118776Y-102509438D01*
X243118776Y-102509438D02*
X243309252Y-102509438D01*
X243309252Y-102509438D02*
X243594966Y-102604676D01*
X243594966Y-102604676D02*
X243690204Y-102699914D01*
X244547347Y-104509438D02*
X244547347Y-102509438D01*
X244547347Y-103461819D02*
X245690204Y-103461819D01*
X245690204Y-104509438D02*
X245690204Y-102509438D01*
X246547347Y-102699914D02*
X246642585Y-102604676D01*
X246642585Y-102604676D02*
X246833061Y-102509438D01*
X246833061Y-102509438D02*
X247309252Y-102509438D01*
X247309252Y-102509438D02*
X247499728Y-102604676D01*
X247499728Y-102604676D02*
X247594966Y-102699914D01*
X247594966Y-102699914D02*
X247690204Y-102890390D01*
X247690204Y-102890390D02*
X247690204Y-103080866D01*
X247690204Y-103080866D02*
X247594966Y-103366580D01*
X247594966Y-103366580D02*
X246452109Y-104509438D01*
X246452109Y-104509438D02*
X247690204Y-104509438D01*
X243817204Y-131115961D02*
X243721966Y-131211200D01*
X243721966Y-131211200D02*
X243436252Y-131306438D01*
X243436252Y-131306438D02*
X243245776Y-131306438D01*
X243245776Y-131306438D02*
X242960061Y-131211200D01*
X242960061Y-131211200D02*
X242769585Y-131020723D01*
X242769585Y-131020723D02*
X242674347Y-130830247D01*
X242674347Y-130830247D02*
X242579109Y-130449295D01*
X242579109Y-130449295D02*
X242579109Y-130163580D01*
X242579109Y-130163580D02*
X242674347Y-129782628D01*
X242674347Y-129782628D02*
X242769585Y-129592152D01*
X242769585Y-129592152D02*
X242960061Y-129401676D01*
X242960061Y-129401676D02*
X243245776Y-129306438D01*
X243245776Y-129306438D02*
X243436252Y-129306438D01*
X243436252Y-129306438D02*
X243721966Y-129401676D01*
X243721966Y-129401676D02*
X243817204Y-129496914D01*
X244674347Y-131306438D02*
X244674347Y-129306438D01*
X244674347Y-130258819D02*
X245817204Y-130258819D01*
X245817204Y-131306438D02*
X245817204Y-129306438D01*
X247817204Y-131306438D02*
X246674347Y-131306438D01*
X247245775Y-131306438D02*
X247245775Y-129306438D01*
X247245775Y-129306438D02*
X247055299Y-129592152D01*
X247055299Y-129592152D02*
X246864823Y-129782628D01*
X246864823Y-129782628D02*
X246674347Y-129877866D01*
X194416561Y-73192871D02*
X192416561Y-73669061D01*
X192416561Y-73669061D02*
X193845133Y-74050014D01*
X193845133Y-74050014D02*
X192416561Y-74430966D01*
X192416561Y-74430966D02*
X194416561Y-74907157D01*
X194226085Y-75573823D02*
X194321323Y-75669061D01*
X194321323Y-75669061D02*
X194416561Y-75859537D01*
X194416561Y-75859537D02*
X194416561Y-76335728D01*
X194416561Y-76335728D02*
X194321323Y-76526204D01*
X194321323Y-76526204D02*
X194226085Y-76621442D01*
X194226085Y-76621442D02*
X194035609Y-76716680D01*
X194035609Y-76716680D02*
X193845133Y-76716680D01*
X193845133Y-76716680D02*
X193559419Y-76621442D01*
X193559419Y-76621442D02*
X192416561Y-75478585D01*
X192416561Y-75478585D02*
X192416561Y-76716680D01*
X229890438Y-76540128D02*
X231890438Y-76063938D01*
X231890438Y-76063938D02*
X230461866Y-75682985D01*
X230461866Y-75682985D02*
X231890438Y-75302033D01*
X231890438Y-75302033D02*
X229890438Y-74825843D01*
X231890438Y-73016319D02*
X231890438Y-74159176D01*
X231890438Y-73587748D02*
X229890438Y-73587748D01*
X229890438Y-73587748D02*
X230176152Y-73778224D01*
X230176152Y-73778224D02*
X230366628Y-73968700D01*
X230366628Y-73968700D02*
X230461866Y-74159176D01*
D11*
X205784220Y-72139180D02*
X205784220Y-73139180D01*
X205784220Y-73139180D02*
X205546125Y-73139180D01*
X205546125Y-73139180D02*
X205403268Y-73091561D01*
X205403268Y-73091561D02*
X205308030Y-72996323D01*
X205308030Y-72996323D02*
X205260411Y-72901085D01*
X205260411Y-72901085D02*
X205212792Y-72710609D01*
X205212792Y-72710609D02*
X205212792Y-72567752D01*
X205212792Y-72567752D02*
X205260411Y-72377276D01*
X205260411Y-72377276D02*
X205308030Y-72282038D01*
X205308030Y-72282038D02*
X205403268Y-72186800D01*
X205403268Y-72186800D02*
X205546125Y-72139180D01*
X205546125Y-72139180D02*
X205784220Y-72139180D01*
X204784220Y-72139180D02*
X204784220Y-73139180D01*
X203784221Y-73091561D02*
X203879459Y-73139180D01*
X203879459Y-73139180D02*
X204022316Y-73139180D01*
X204022316Y-73139180D02*
X204165173Y-73091561D01*
X204165173Y-73091561D02*
X204260411Y-72996323D01*
X204260411Y-72996323D02*
X204308030Y-72901085D01*
X204308030Y-72901085D02*
X204355649Y-72710609D01*
X204355649Y-72710609D02*
X204355649Y-72567752D01*
X204355649Y-72567752D02*
X204308030Y-72377276D01*
X204308030Y-72377276D02*
X204260411Y-72282038D01*
X204260411Y-72282038D02*
X204165173Y-72186800D01*
X204165173Y-72186800D02*
X204022316Y-72139180D01*
X204022316Y-72139180D02*
X203927078Y-72139180D01*
X203927078Y-72139180D02*
X203784221Y-72186800D01*
X203784221Y-72186800D02*
X203736602Y-72234419D01*
X203736602Y-72234419D02*
X203736602Y-72567752D01*
X203736602Y-72567752D02*
X203927078Y-72567752D01*
X203308030Y-72139180D02*
X203308030Y-73139180D01*
X202974697Y-73139180D02*
X202403269Y-73139180D01*
X202688983Y-72139180D02*
X202688983Y-73139180D01*
X202117554Y-72424895D02*
X201641364Y-72424895D01*
X202212792Y-72139180D02*
X201879459Y-73139180D01*
X201879459Y-73139180D02*
X201546126Y-72139180D01*
X200736602Y-72139180D02*
X201212792Y-72139180D01*
X201212792Y-72139180D02*
X201212792Y-73139180D01*
X221745180Y-71837779D02*
X222745180Y-71837779D01*
X222745180Y-71837779D02*
X222745180Y-72218731D01*
X222745180Y-72218731D02*
X222697561Y-72313969D01*
X222697561Y-72313969D02*
X222649942Y-72361588D01*
X222649942Y-72361588D02*
X222554704Y-72409207D01*
X222554704Y-72409207D02*
X222411847Y-72409207D01*
X222411847Y-72409207D02*
X222316609Y-72361588D01*
X222316609Y-72361588D02*
X222268990Y-72313969D01*
X222268990Y-72313969D02*
X222221371Y-72218731D01*
X222221371Y-72218731D02*
X222221371Y-71837779D01*
X221792800Y-72790160D02*
X221745180Y-72933017D01*
X221745180Y-72933017D02*
X221745180Y-73171112D01*
X221745180Y-73171112D02*
X221792800Y-73266350D01*
X221792800Y-73266350D02*
X221840419Y-73313969D01*
X221840419Y-73313969D02*
X221935657Y-73361588D01*
X221935657Y-73361588D02*
X222030895Y-73361588D01*
X222030895Y-73361588D02*
X222126133Y-73313969D01*
X222126133Y-73313969D02*
X222173752Y-73266350D01*
X222173752Y-73266350D02*
X222221371Y-73171112D01*
X222221371Y-73171112D02*
X222268990Y-72980636D01*
X222268990Y-72980636D02*
X222316609Y-72885398D01*
X222316609Y-72885398D02*
X222364228Y-72837779D01*
X222364228Y-72837779D02*
X222459466Y-72790160D01*
X222459466Y-72790160D02*
X222554704Y-72790160D01*
X222554704Y-72790160D02*
X222649942Y-72837779D01*
X222649942Y-72837779D02*
X222697561Y-72885398D01*
X222697561Y-72885398D02*
X222745180Y-72980636D01*
X222745180Y-72980636D02*
X222745180Y-73218731D01*
X222745180Y-73218731D02*
X222697561Y-73361588D01*
X222745180Y-73790160D02*
X221935657Y-73790160D01*
X221935657Y-73790160D02*
X221840419Y-73837779D01*
X221840419Y-73837779D02*
X221792800Y-73885398D01*
X221792800Y-73885398D02*
X221745180Y-73980636D01*
X221745180Y-73980636D02*
X221745180Y-74171112D01*
X221745180Y-74171112D02*
X221792800Y-74266350D01*
X221792800Y-74266350D02*
X221840419Y-74313969D01*
X221840419Y-74313969D02*
X221935657Y-74361588D01*
X221935657Y-74361588D02*
X222745180Y-74361588D01*
X215125180Y-71694922D02*
X215125180Y-72266350D01*
X214125180Y-71980636D02*
X215125180Y-71980636D01*
X214125180Y-73171112D02*
X214601371Y-72837779D01*
X214125180Y-72599684D02*
X215125180Y-72599684D01*
X215125180Y-72599684D02*
X215125180Y-72980636D01*
X215125180Y-72980636D02*
X215077561Y-73075874D01*
X215077561Y-73075874D02*
X215029942Y-73123493D01*
X215029942Y-73123493D02*
X214934704Y-73171112D01*
X214934704Y-73171112D02*
X214791847Y-73171112D01*
X214791847Y-73171112D02*
X214696609Y-73123493D01*
X214696609Y-73123493D02*
X214648990Y-73075874D01*
X214648990Y-73075874D02*
X214601371Y-72980636D01*
X214601371Y-72980636D02*
X214601371Y-72599684D01*
X214125180Y-73599684D02*
X215125180Y-73599684D01*
X215077561Y-74599683D02*
X215125180Y-74504445D01*
X215125180Y-74504445D02*
X215125180Y-74361588D01*
X215125180Y-74361588D02*
X215077561Y-74218731D01*
X215077561Y-74218731D02*
X214982323Y-74123493D01*
X214982323Y-74123493D02*
X214887085Y-74075874D01*
X214887085Y-74075874D02*
X214696609Y-74028255D01*
X214696609Y-74028255D02*
X214553752Y-74028255D01*
X214553752Y-74028255D02*
X214363276Y-74075874D01*
X214363276Y-74075874D02*
X214268038Y-74123493D01*
X214268038Y-74123493D02*
X214172800Y-74218731D01*
X214172800Y-74218731D02*
X214125180Y-74361588D01*
X214125180Y-74361588D02*
X214125180Y-74456826D01*
X214125180Y-74456826D02*
X214172800Y-74599683D01*
X214172800Y-74599683D02*
X214220419Y-74647302D01*
X214220419Y-74647302D02*
X214553752Y-74647302D01*
X214553752Y-74647302D02*
X214553752Y-74456826D01*
X217617561Y-72361588D02*
X217665180Y-72266350D01*
X217665180Y-72266350D02*
X217665180Y-72123493D01*
X217665180Y-72123493D02*
X217617561Y-71980636D01*
X217617561Y-71980636D02*
X217522323Y-71885398D01*
X217522323Y-71885398D02*
X217427085Y-71837779D01*
X217427085Y-71837779D02*
X217236609Y-71790160D01*
X217236609Y-71790160D02*
X217093752Y-71790160D01*
X217093752Y-71790160D02*
X216903276Y-71837779D01*
X216903276Y-71837779D02*
X216808038Y-71885398D01*
X216808038Y-71885398D02*
X216712800Y-71980636D01*
X216712800Y-71980636D02*
X216665180Y-72123493D01*
X216665180Y-72123493D02*
X216665180Y-72218731D01*
X216665180Y-72218731D02*
X216712800Y-72361588D01*
X216712800Y-72361588D02*
X216760419Y-72409207D01*
X216760419Y-72409207D02*
X217093752Y-72409207D01*
X217093752Y-72409207D02*
X217093752Y-72218731D01*
X216665180Y-72837779D02*
X217665180Y-72837779D01*
X217665180Y-72837779D02*
X216665180Y-73409207D01*
X216665180Y-73409207D02*
X217665180Y-73409207D01*
X216665180Y-73885398D02*
X217665180Y-73885398D01*
X217665180Y-73885398D02*
X217665180Y-74123493D01*
X217665180Y-74123493D02*
X217617561Y-74266350D01*
X217617561Y-74266350D02*
X217522323Y-74361588D01*
X217522323Y-74361588D02*
X217427085Y-74409207D01*
X217427085Y-74409207D02*
X217236609Y-74456826D01*
X217236609Y-74456826D02*
X217093752Y-74456826D01*
X217093752Y-74456826D02*
X216903276Y-74409207D01*
X216903276Y-74409207D02*
X216808038Y-74361588D01*
X216808038Y-74361588D02*
X216712800Y-74266350D01*
X216712800Y-74266350D02*
X216665180Y-74123493D01*
X216665180Y-74123493D02*
X216665180Y-73885398D01*
X225237561Y-72361588D02*
X225285180Y-72266350D01*
X225285180Y-72266350D02*
X225285180Y-72123493D01*
X225285180Y-72123493D02*
X225237561Y-71980636D01*
X225237561Y-71980636D02*
X225142323Y-71885398D01*
X225142323Y-71885398D02*
X225047085Y-71837779D01*
X225047085Y-71837779D02*
X224856609Y-71790160D01*
X224856609Y-71790160D02*
X224713752Y-71790160D01*
X224713752Y-71790160D02*
X224523276Y-71837779D01*
X224523276Y-71837779D02*
X224428038Y-71885398D01*
X224428038Y-71885398D02*
X224332800Y-71980636D01*
X224332800Y-71980636D02*
X224285180Y-72123493D01*
X224285180Y-72123493D02*
X224285180Y-72218731D01*
X224285180Y-72218731D02*
X224332800Y-72361588D01*
X224332800Y-72361588D02*
X224380419Y-72409207D01*
X224380419Y-72409207D02*
X224713752Y-72409207D01*
X224713752Y-72409207D02*
X224713752Y-72218731D01*
X224285180Y-72837779D02*
X225285180Y-72837779D01*
X225285180Y-72837779D02*
X224285180Y-73409207D01*
X224285180Y-73409207D02*
X225285180Y-73409207D01*
X224285180Y-73885398D02*
X225285180Y-73885398D01*
X225285180Y-73885398D02*
X225285180Y-74123493D01*
X225285180Y-74123493D02*
X225237561Y-74266350D01*
X225237561Y-74266350D02*
X225142323Y-74361588D01*
X225142323Y-74361588D02*
X225047085Y-74409207D01*
X225047085Y-74409207D02*
X224856609Y-74456826D01*
X224856609Y-74456826D02*
X224713752Y-74456826D01*
X224713752Y-74456826D02*
X224523276Y-74409207D01*
X224523276Y-74409207D02*
X224428038Y-74361588D01*
X224428038Y-74361588D02*
X224332800Y-74266350D01*
X224332800Y-74266350D02*
X224285180Y-74123493D01*
X224285180Y-74123493D02*
X224285180Y-73885398D01*
D10*
X224812652Y-77227561D02*
X224812652Y-79227561D01*
X223860271Y-78560895D02*
X223860271Y-77227561D01*
X223860271Y-78370419D02*
X223765033Y-78465657D01*
X223765033Y-78465657D02*
X223574557Y-78560895D01*
X223574557Y-78560895D02*
X223288842Y-78560895D01*
X223288842Y-78560895D02*
X223098366Y-78465657D01*
X223098366Y-78465657D02*
X223003128Y-78275180D01*
X223003128Y-78275180D02*
X223003128Y-77227561D01*
X222336461Y-78560895D02*
X221574557Y-78560895D01*
X222050747Y-77227561D02*
X222050747Y-78941847D01*
X222050747Y-78941847D02*
X221955509Y-79132323D01*
X221955509Y-79132323D02*
X221765033Y-79227561D01*
X221765033Y-79227561D02*
X221574557Y-79227561D01*
X220907890Y-77227561D02*
X220907890Y-78560895D01*
X220907890Y-79227561D02*
X221003128Y-79132323D01*
X221003128Y-79132323D02*
X220907890Y-79037085D01*
X220907890Y-79037085D02*
X220812652Y-79132323D01*
X220812652Y-79132323D02*
X220907890Y-79227561D01*
X220907890Y-79227561D02*
X220907890Y-79037085D01*
X219955509Y-78560895D02*
X219955509Y-77227561D01*
X219955509Y-78370419D02*
X219860271Y-78465657D01*
X219860271Y-78465657D02*
X219669795Y-78560895D01*
X219669795Y-78560895D02*
X219384080Y-78560895D01*
X219384080Y-78560895D02*
X219193604Y-78465657D01*
X219193604Y-78465657D02*
X219098366Y-78275180D01*
X219098366Y-78275180D02*
X219098366Y-77227561D01*
X217288842Y-78560895D02*
X217288842Y-77227561D01*
X218145985Y-78560895D02*
X218145985Y-77513276D01*
X218145985Y-77513276D02*
X218050747Y-77322800D01*
X218050747Y-77322800D02*
X217860271Y-77227561D01*
X217860271Y-77227561D02*
X217574556Y-77227561D01*
X217574556Y-77227561D02*
X217384080Y-77322800D01*
X217384080Y-77322800D02*
X217288842Y-77418038D01*
X216431699Y-77322800D02*
X216241223Y-77227561D01*
X216241223Y-77227561D02*
X215860271Y-77227561D01*
X215860271Y-77227561D02*
X215669794Y-77322800D01*
X215669794Y-77322800D02*
X215574556Y-77513276D01*
X215574556Y-77513276D02*
X215574556Y-77608514D01*
X215574556Y-77608514D02*
X215669794Y-77798990D01*
X215669794Y-77798990D02*
X215860271Y-77894228D01*
X215860271Y-77894228D02*
X216145985Y-77894228D01*
X216145985Y-77894228D02*
X216336461Y-77989466D01*
X216336461Y-77989466D02*
X216431699Y-78179942D01*
X216431699Y-78179942D02*
X216431699Y-78275180D01*
X216431699Y-78275180D02*
X216336461Y-78465657D01*
X216336461Y-78465657D02*
X216145985Y-78560895D01*
X216145985Y-78560895D02*
X215860271Y-78560895D01*
X215860271Y-78560895D02*
X215669794Y-78465657D01*
X213193603Y-78275180D02*
X212526936Y-78275180D01*
X212241222Y-77227561D02*
X213193603Y-77227561D01*
X213193603Y-77227561D02*
X213193603Y-79227561D01*
X213193603Y-79227561D02*
X212241222Y-79227561D01*
X211098365Y-77227561D02*
X211288841Y-77322800D01*
X211288841Y-77322800D02*
X211384079Y-77513276D01*
X211384079Y-77513276D02*
X211384079Y-79227561D01*
X209574555Y-77322800D02*
X209765031Y-77227561D01*
X209765031Y-77227561D02*
X210145984Y-77227561D01*
X210145984Y-77227561D02*
X210336460Y-77322800D01*
X210336460Y-77322800D02*
X210431698Y-77513276D01*
X210431698Y-77513276D02*
X210431698Y-78275180D01*
X210431698Y-78275180D02*
X210336460Y-78465657D01*
X210336460Y-78465657D02*
X210145984Y-78560895D01*
X210145984Y-78560895D02*
X209765031Y-78560895D01*
X209765031Y-78560895D02*
X209574555Y-78465657D01*
X209574555Y-78465657D02*
X209479317Y-78275180D01*
X209479317Y-78275180D02*
X209479317Y-78084704D01*
X209479317Y-78084704D02*
X210431698Y-77894228D01*
X207765031Y-77322800D02*
X207955507Y-77227561D01*
X207955507Y-77227561D02*
X208336460Y-77227561D01*
X208336460Y-77227561D02*
X208526936Y-77322800D01*
X208526936Y-77322800D02*
X208622174Y-77418038D01*
X208622174Y-77418038D02*
X208717412Y-77608514D01*
X208717412Y-77608514D02*
X208717412Y-78179942D01*
X208717412Y-78179942D02*
X208622174Y-78370419D01*
X208622174Y-78370419D02*
X208526936Y-78465657D01*
X208526936Y-78465657D02*
X208336460Y-78560895D01*
X208336460Y-78560895D02*
X207955507Y-78560895D01*
X207955507Y-78560895D02*
X207765031Y-78465657D01*
X207193602Y-78560895D02*
X206431698Y-78560895D01*
X206907888Y-79227561D02*
X206907888Y-77513276D01*
X206907888Y-77513276D02*
X206812650Y-77322800D01*
X206812650Y-77322800D02*
X206622174Y-77227561D01*
X206622174Y-77227561D02*
X206431698Y-77227561D01*
X205765031Y-77227561D02*
X205765031Y-78560895D01*
X205765031Y-78179942D02*
X205669793Y-78370419D01*
X205669793Y-78370419D02*
X205574555Y-78465657D01*
X205574555Y-78465657D02*
X205384079Y-78560895D01*
X205384079Y-78560895D02*
X205193602Y-78560895D01*
X204241222Y-77227561D02*
X204431698Y-77322800D01*
X204431698Y-77322800D02*
X204526936Y-77418038D01*
X204526936Y-77418038D02*
X204622174Y-77608514D01*
X204622174Y-77608514D02*
X204622174Y-78179942D01*
X204622174Y-78179942D02*
X204526936Y-78370419D01*
X204526936Y-78370419D02*
X204431698Y-78465657D01*
X204431698Y-78465657D02*
X204241222Y-78560895D01*
X204241222Y-78560895D02*
X203955507Y-78560895D01*
X203955507Y-78560895D02*
X203765031Y-78465657D01*
X203765031Y-78465657D02*
X203669793Y-78370419D01*
X203669793Y-78370419D02*
X203574555Y-78179942D01*
X203574555Y-78179942D02*
X203574555Y-77608514D01*
X203574555Y-77608514D02*
X203669793Y-77418038D01*
X203669793Y-77418038D02*
X203765031Y-77322800D01*
X203765031Y-77322800D02*
X203955507Y-77227561D01*
X203955507Y-77227561D02*
X204241222Y-77227561D01*
X202717412Y-78560895D02*
X202717412Y-77227561D01*
X202717412Y-78370419D02*
X202622174Y-78465657D01*
X202622174Y-78465657D02*
X202431698Y-78560895D01*
X202431698Y-78560895D02*
X202145983Y-78560895D01*
X202145983Y-78560895D02*
X201955507Y-78465657D01*
X201955507Y-78465657D02*
X201860269Y-78275180D01*
X201860269Y-78275180D02*
X201860269Y-77227561D01*
X200907888Y-77227561D02*
X200907888Y-78560895D01*
X200907888Y-79227561D02*
X201003126Y-79132323D01*
X201003126Y-79132323D02*
X200907888Y-79037085D01*
X200907888Y-79037085D02*
X200812650Y-79132323D01*
X200812650Y-79132323D02*
X200907888Y-79227561D01*
X200907888Y-79227561D02*
X200907888Y-79037085D01*
X199098364Y-77322800D02*
X199288840Y-77227561D01*
X199288840Y-77227561D02*
X199669793Y-77227561D01*
X199669793Y-77227561D02*
X199860269Y-77322800D01*
X199860269Y-77322800D02*
X199955507Y-77418038D01*
X199955507Y-77418038D02*
X200050745Y-77608514D01*
X200050745Y-77608514D02*
X200050745Y-78179942D01*
X200050745Y-78179942D02*
X199955507Y-78370419D01*
X199955507Y-78370419D02*
X199860269Y-78465657D01*
X199860269Y-78465657D02*
X199669793Y-78560895D01*
X199669793Y-78560895D02*
X199288840Y-78560895D01*
X199288840Y-78560895D02*
X199098364Y-78465657D01*
X198336459Y-77322800D02*
X198145983Y-77227561D01*
X198145983Y-77227561D02*
X197765031Y-77227561D01*
X197765031Y-77227561D02*
X197574554Y-77322800D01*
X197574554Y-77322800D02*
X197479316Y-77513276D01*
X197479316Y-77513276D02*
X197479316Y-77608514D01*
X197479316Y-77608514D02*
X197574554Y-77798990D01*
X197574554Y-77798990D02*
X197765031Y-77894228D01*
X197765031Y-77894228D02*
X198050745Y-77894228D01*
X198050745Y-77894228D02*
X198241221Y-77989466D01*
X198241221Y-77989466D02*
X198336459Y-78179942D01*
X198336459Y-78179942D02*
X198336459Y-78275180D01*
X198336459Y-78275180D02*
X198241221Y-78465657D01*
X198241221Y-78465657D02*
X198050745Y-78560895D01*
X198050745Y-78560895D02*
X197765031Y-78560895D01*
X197765031Y-78560895D02*
X197574554Y-78465657D01*
D11*
X212906164Y-100242019D02*
X212906164Y-101051542D01*
X212906164Y-101051542D02*
X212953783Y-101146780D01*
X212953783Y-101146780D02*
X213001402Y-101194400D01*
X213001402Y-101194400D02*
X213096640Y-101242019D01*
X213096640Y-101242019D02*
X213287116Y-101242019D01*
X213287116Y-101242019D02*
X213382354Y-101194400D01*
X213382354Y-101194400D02*
X213429973Y-101146780D01*
X213429973Y-101146780D02*
X213477592Y-101051542D01*
X213477592Y-101051542D02*
X213477592Y-100242019D01*
X213858545Y-100242019D02*
X214477592Y-100242019D01*
X214477592Y-100242019D02*
X214144259Y-100622971D01*
X214144259Y-100622971D02*
X214287116Y-100622971D01*
X214287116Y-100622971D02*
X214382354Y-100670590D01*
X214382354Y-100670590D02*
X214429973Y-100718209D01*
X214429973Y-100718209D02*
X214477592Y-100813447D01*
X214477592Y-100813447D02*
X214477592Y-101051542D01*
X214477592Y-101051542D02*
X214429973Y-101146780D01*
X214429973Y-101146780D02*
X214382354Y-101194400D01*
X214382354Y-101194400D02*
X214287116Y-101242019D01*
X214287116Y-101242019D02*
X214001402Y-101242019D01*
X214001402Y-101242019D02*
X213906164Y-101194400D01*
X213906164Y-101194400D02*
X213858545Y-101146780D01*
X215096640Y-100242019D02*
X215191878Y-100242019D01*
X215191878Y-100242019D02*
X215287116Y-100289638D01*
X215287116Y-100289638D02*
X215334735Y-100337257D01*
X215334735Y-100337257D02*
X215382354Y-100432495D01*
X215382354Y-100432495D02*
X215429973Y-100622971D01*
X215429973Y-100622971D02*
X215429973Y-100861066D01*
X215429973Y-100861066D02*
X215382354Y-101051542D01*
X215382354Y-101051542D02*
X215334735Y-101146780D01*
X215334735Y-101146780D02*
X215287116Y-101194400D01*
X215287116Y-101194400D02*
X215191878Y-101242019D01*
X215191878Y-101242019D02*
X215096640Y-101242019D01*
X215096640Y-101242019D02*
X215001402Y-101194400D01*
X215001402Y-101194400D02*
X214953783Y-101146780D01*
X214953783Y-101146780D02*
X214906164Y-101051542D01*
X214906164Y-101051542D02*
X214858545Y-100861066D01*
X214858545Y-100861066D02*
X214858545Y-100622971D01*
X214858545Y-100622971D02*
X214906164Y-100432495D01*
X214906164Y-100432495D02*
X214953783Y-100337257D01*
X214953783Y-100337257D02*
X215001402Y-100289638D01*
X215001402Y-100289638D02*
X215096640Y-100242019D01*
X215810926Y-100337257D02*
X215858545Y-100289638D01*
X215858545Y-100289638D02*
X215953783Y-100242019D01*
X215953783Y-100242019D02*
X216191878Y-100242019D01*
X216191878Y-100242019D02*
X216287116Y-100289638D01*
X216287116Y-100289638D02*
X216334735Y-100337257D01*
X216334735Y-100337257D02*
X216382354Y-100432495D01*
X216382354Y-100432495D02*
X216382354Y-100527733D01*
X216382354Y-100527733D02*
X216334735Y-100670590D01*
X216334735Y-100670590D02*
X215763307Y-101242019D01*
X215763307Y-101242019D02*
X216382354Y-101242019D01*
X209350164Y-88812019D02*
X209350164Y-89621542D01*
X209350164Y-89621542D02*
X209397783Y-89716780D01*
X209397783Y-89716780D02*
X209445402Y-89764400D01*
X209445402Y-89764400D02*
X209540640Y-89812019D01*
X209540640Y-89812019D02*
X209731116Y-89812019D01*
X209731116Y-89812019D02*
X209826354Y-89764400D01*
X209826354Y-89764400D02*
X209873973Y-89716780D01*
X209873973Y-89716780D02*
X209921592Y-89621542D01*
X209921592Y-89621542D02*
X209921592Y-88812019D01*
X210302545Y-88812019D02*
X210921592Y-88812019D01*
X210921592Y-88812019D02*
X210588259Y-89192971D01*
X210588259Y-89192971D02*
X210731116Y-89192971D01*
X210731116Y-89192971D02*
X210826354Y-89240590D01*
X210826354Y-89240590D02*
X210873973Y-89288209D01*
X210873973Y-89288209D02*
X210921592Y-89383447D01*
X210921592Y-89383447D02*
X210921592Y-89621542D01*
X210921592Y-89621542D02*
X210873973Y-89716780D01*
X210873973Y-89716780D02*
X210826354Y-89764400D01*
X210826354Y-89764400D02*
X210731116Y-89812019D01*
X210731116Y-89812019D02*
X210445402Y-89812019D01*
X210445402Y-89812019D02*
X210350164Y-89764400D01*
X210350164Y-89764400D02*
X210302545Y-89716780D01*
X211540640Y-88812019D02*
X211635878Y-88812019D01*
X211635878Y-88812019D02*
X211731116Y-88859638D01*
X211731116Y-88859638D02*
X211778735Y-88907257D01*
X211778735Y-88907257D02*
X211826354Y-89002495D01*
X211826354Y-89002495D02*
X211873973Y-89192971D01*
X211873973Y-89192971D02*
X211873973Y-89431066D01*
X211873973Y-89431066D02*
X211826354Y-89621542D01*
X211826354Y-89621542D02*
X211778735Y-89716780D01*
X211778735Y-89716780D02*
X211731116Y-89764400D01*
X211731116Y-89764400D02*
X211635878Y-89812019D01*
X211635878Y-89812019D02*
X211540640Y-89812019D01*
X211540640Y-89812019D02*
X211445402Y-89764400D01*
X211445402Y-89764400D02*
X211397783Y-89716780D01*
X211397783Y-89716780D02*
X211350164Y-89621542D01*
X211350164Y-89621542D02*
X211302545Y-89431066D01*
X211302545Y-89431066D02*
X211302545Y-89192971D01*
X211302545Y-89192971D02*
X211350164Y-89002495D01*
X211350164Y-89002495D02*
X211397783Y-88907257D01*
X211397783Y-88907257D02*
X211445402Y-88859638D01*
X211445402Y-88859638D02*
X211540640Y-88812019D01*
X212826354Y-89812019D02*
X212254926Y-89812019D01*
X212540640Y-89812019D02*
X212540640Y-88812019D01*
X212540640Y-88812019D02*
X212445402Y-88954876D01*
X212445402Y-88954876D02*
X212350164Y-89050114D01*
X212350164Y-89050114D02*
X212254926Y-89097733D01*
X195851200Y-109770213D02*
X195898819Y-109627356D01*
X195898819Y-109627356D02*
X195898819Y-109389261D01*
X195898819Y-109389261D02*
X195851200Y-109294023D01*
X195851200Y-109294023D02*
X195803580Y-109246404D01*
X195803580Y-109246404D02*
X195708342Y-109198785D01*
X195708342Y-109198785D02*
X195613104Y-109198785D01*
X195613104Y-109198785D02*
X195517866Y-109246404D01*
X195517866Y-109246404D02*
X195470247Y-109294023D01*
X195470247Y-109294023D02*
X195422628Y-109389261D01*
X195422628Y-109389261D02*
X195375009Y-109579737D01*
X195375009Y-109579737D02*
X195327390Y-109674975D01*
X195327390Y-109674975D02*
X195279771Y-109722594D01*
X195279771Y-109722594D02*
X195184533Y-109770213D01*
X195184533Y-109770213D02*
X195089295Y-109770213D01*
X195089295Y-109770213D02*
X194994057Y-109722594D01*
X194994057Y-109722594D02*
X194946438Y-109674975D01*
X194946438Y-109674975D02*
X194898819Y-109579737D01*
X194898819Y-109579737D02*
X194898819Y-109341642D01*
X194898819Y-109341642D02*
X194946438Y-109198785D01*
X194898819Y-108865451D02*
X195898819Y-108627356D01*
X195898819Y-108627356D02*
X195184533Y-108436880D01*
X195184533Y-108436880D02*
X195898819Y-108246404D01*
X195898819Y-108246404D02*
X194898819Y-108008309D01*
X194898819Y-107722594D02*
X194898819Y-107103547D01*
X194898819Y-107103547D02*
X195279771Y-107436880D01*
X195279771Y-107436880D02*
X195279771Y-107294023D01*
X195279771Y-107294023D02*
X195327390Y-107198785D01*
X195327390Y-107198785D02*
X195375009Y-107151166D01*
X195375009Y-107151166D02*
X195470247Y-107103547D01*
X195470247Y-107103547D02*
X195708342Y-107103547D01*
X195708342Y-107103547D02*
X195803580Y-107151166D01*
X195803580Y-107151166D02*
X195851200Y-107198785D01*
X195851200Y-107198785D02*
X195898819Y-107294023D01*
X195898819Y-107294023D02*
X195898819Y-107579737D01*
X195898819Y-107579737D02*
X195851200Y-107674975D01*
X195851200Y-107674975D02*
X195803580Y-107722594D01*
X194898819Y-106484499D02*
X194898819Y-106389261D01*
X194898819Y-106389261D02*
X194946438Y-106294023D01*
X194946438Y-106294023D02*
X194994057Y-106246404D01*
X194994057Y-106246404D02*
X195089295Y-106198785D01*
X195089295Y-106198785D02*
X195279771Y-106151166D01*
X195279771Y-106151166D02*
X195517866Y-106151166D01*
X195517866Y-106151166D02*
X195708342Y-106198785D01*
X195708342Y-106198785D02*
X195803580Y-106246404D01*
X195803580Y-106246404D02*
X195851200Y-106294023D01*
X195851200Y-106294023D02*
X195898819Y-106389261D01*
X195898819Y-106389261D02*
X195898819Y-106484499D01*
X195898819Y-106484499D02*
X195851200Y-106579737D01*
X195851200Y-106579737D02*
X195803580Y-106627356D01*
X195803580Y-106627356D02*
X195708342Y-106674975D01*
X195708342Y-106674975D02*
X195517866Y-106722594D01*
X195517866Y-106722594D02*
X195279771Y-106722594D01*
X195279771Y-106722594D02*
X195089295Y-106674975D01*
X195089295Y-106674975D02*
X194994057Y-106627356D01*
X194994057Y-106627356D02*
X194946438Y-106579737D01*
X194946438Y-106579737D02*
X194898819Y-106484499D01*
X195898819Y-105198785D02*
X195898819Y-105770213D01*
X195898819Y-105484499D02*
X194898819Y-105484499D01*
X194898819Y-105484499D02*
X195041676Y-105579737D01*
X195041676Y-105579737D02*
X195136914Y-105674975D01*
X195136914Y-105674975D02*
X195184533Y-105770213D01*
X206897402Y-99210019D02*
X206564069Y-98733828D01*
X206325974Y-99210019D02*
X206325974Y-98210019D01*
X206325974Y-98210019D02*
X206706926Y-98210019D01*
X206706926Y-98210019D02*
X206802164Y-98257638D01*
X206802164Y-98257638D02*
X206849783Y-98305257D01*
X206849783Y-98305257D02*
X206897402Y-98400495D01*
X206897402Y-98400495D02*
X206897402Y-98543352D01*
X206897402Y-98543352D02*
X206849783Y-98638590D01*
X206849783Y-98638590D02*
X206802164Y-98686209D01*
X206802164Y-98686209D02*
X206706926Y-98733828D01*
X206706926Y-98733828D02*
X206325974Y-98733828D01*
X207230736Y-98210019D02*
X207849783Y-98210019D01*
X207849783Y-98210019D02*
X207516450Y-98590971D01*
X207516450Y-98590971D02*
X207659307Y-98590971D01*
X207659307Y-98590971D02*
X207754545Y-98638590D01*
X207754545Y-98638590D02*
X207802164Y-98686209D01*
X207802164Y-98686209D02*
X207849783Y-98781447D01*
X207849783Y-98781447D02*
X207849783Y-99019542D01*
X207849783Y-99019542D02*
X207802164Y-99114780D01*
X207802164Y-99114780D02*
X207754545Y-99162400D01*
X207754545Y-99162400D02*
X207659307Y-99210019D01*
X207659307Y-99210019D02*
X207373593Y-99210019D01*
X207373593Y-99210019D02*
X207278355Y-99162400D01*
X207278355Y-99162400D02*
X207230736Y-99114780D01*
X208468831Y-98210019D02*
X208564069Y-98210019D01*
X208564069Y-98210019D02*
X208659307Y-98257638D01*
X208659307Y-98257638D02*
X208706926Y-98305257D01*
X208706926Y-98305257D02*
X208754545Y-98400495D01*
X208754545Y-98400495D02*
X208802164Y-98590971D01*
X208802164Y-98590971D02*
X208802164Y-98829066D01*
X208802164Y-98829066D02*
X208754545Y-99019542D01*
X208754545Y-99019542D02*
X208706926Y-99114780D01*
X208706926Y-99114780D02*
X208659307Y-99162400D01*
X208659307Y-99162400D02*
X208564069Y-99210019D01*
X208564069Y-99210019D02*
X208468831Y-99210019D01*
X208468831Y-99210019D02*
X208373593Y-99162400D01*
X208373593Y-99162400D02*
X208325974Y-99114780D01*
X208325974Y-99114780D02*
X208278355Y-99019542D01*
X208278355Y-99019542D02*
X208230736Y-98829066D01*
X208230736Y-98829066D02*
X208230736Y-98590971D01*
X208230736Y-98590971D02*
X208278355Y-98400495D01*
X208278355Y-98400495D02*
X208325974Y-98305257D01*
X208325974Y-98305257D02*
X208373593Y-98257638D01*
X208373593Y-98257638D02*
X208468831Y-98210019D01*
X209373593Y-98638590D02*
X209278355Y-98590971D01*
X209278355Y-98590971D02*
X209230736Y-98543352D01*
X209230736Y-98543352D02*
X209183117Y-98448114D01*
X209183117Y-98448114D02*
X209183117Y-98400495D01*
X209183117Y-98400495D02*
X209230736Y-98305257D01*
X209230736Y-98305257D02*
X209278355Y-98257638D01*
X209278355Y-98257638D02*
X209373593Y-98210019D01*
X209373593Y-98210019D02*
X209564069Y-98210019D01*
X209564069Y-98210019D02*
X209659307Y-98257638D01*
X209659307Y-98257638D02*
X209706926Y-98305257D01*
X209706926Y-98305257D02*
X209754545Y-98400495D01*
X209754545Y-98400495D02*
X209754545Y-98448114D01*
X209754545Y-98448114D02*
X209706926Y-98543352D01*
X209706926Y-98543352D02*
X209659307Y-98590971D01*
X209659307Y-98590971D02*
X209564069Y-98638590D01*
X209564069Y-98638590D02*
X209373593Y-98638590D01*
X209373593Y-98638590D02*
X209278355Y-98686209D01*
X209278355Y-98686209D02*
X209230736Y-98733828D01*
X209230736Y-98733828D02*
X209183117Y-98829066D01*
X209183117Y-98829066D02*
X209183117Y-99019542D01*
X209183117Y-99019542D02*
X209230736Y-99114780D01*
X209230736Y-99114780D02*
X209278355Y-99162400D01*
X209278355Y-99162400D02*
X209373593Y-99210019D01*
X209373593Y-99210019D02*
X209564069Y-99210019D01*
X209564069Y-99210019D02*
X209659307Y-99162400D01*
X209659307Y-99162400D02*
X209706926Y-99114780D01*
X209706926Y-99114780D02*
X209754545Y-99019542D01*
X209754545Y-99019542D02*
X209754545Y-98829066D01*
X209754545Y-98829066D02*
X209706926Y-98733828D01*
X209706926Y-98733828D02*
X209659307Y-98686209D01*
X209659307Y-98686209D02*
X209564069Y-98638590D01*
X217565402Y-101750019D02*
X217232069Y-101273828D01*
X216993974Y-101750019D02*
X216993974Y-100750019D01*
X216993974Y-100750019D02*
X217374926Y-100750019D01*
X217374926Y-100750019D02*
X217470164Y-100797638D01*
X217470164Y-100797638D02*
X217517783Y-100845257D01*
X217517783Y-100845257D02*
X217565402Y-100940495D01*
X217565402Y-100940495D02*
X217565402Y-101083352D01*
X217565402Y-101083352D02*
X217517783Y-101178590D01*
X217517783Y-101178590D02*
X217470164Y-101226209D01*
X217470164Y-101226209D02*
X217374926Y-101273828D01*
X217374926Y-101273828D02*
X216993974Y-101273828D01*
X217898736Y-100750019D02*
X218517783Y-100750019D01*
X218517783Y-100750019D02*
X218184450Y-101130971D01*
X218184450Y-101130971D02*
X218327307Y-101130971D01*
X218327307Y-101130971D02*
X218422545Y-101178590D01*
X218422545Y-101178590D02*
X218470164Y-101226209D01*
X218470164Y-101226209D02*
X218517783Y-101321447D01*
X218517783Y-101321447D02*
X218517783Y-101559542D01*
X218517783Y-101559542D02*
X218470164Y-101654780D01*
X218470164Y-101654780D02*
X218422545Y-101702400D01*
X218422545Y-101702400D02*
X218327307Y-101750019D01*
X218327307Y-101750019D02*
X218041593Y-101750019D01*
X218041593Y-101750019D02*
X217946355Y-101702400D01*
X217946355Y-101702400D02*
X217898736Y-101654780D01*
X219136831Y-100750019D02*
X219232069Y-100750019D01*
X219232069Y-100750019D02*
X219327307Y-100797638D01*
X219327307Y-100797638D02*
X219374926Y-100845257D01*
X219374926Y-100845257D02*
X219422545Y-100940495D01*
X219422545Y-100940495D02*
X219470164Y-101130971D01*
X219470164Y-101130971D02*
X219470164Y-101369066D01*
X219470164Y-101369066D02*
X219422545Y-101559542D01*
X219422545Y-101559542D02*
X219374926Y-101654780D01*
X219374926Y-101654780D02*
X219327307Y-101702400D01*
X219327307Y-101702400D02*
X219232069Y-101750019D01*
X219232069Y-101750019D02*
X219136831Y-101750019D01*
X219136831Y-101750019D02*
X219041593Y-101702400D01*
X219041593Y-101702400D02*
X218993974Y-101654780D01*
X218993974Y-101654780D02*
X218946355Y-101559542D01*
X218946355Y-101559542D02*
X218898736Y-101369066D01*
X218898736Y-101369066D02*
X218898736Y-101130971D01*
X218898736Y-101130971D02*
X218946355Y-100940495D01*
X218946355Y-100940495D02*
X218993974Y-100845257D01*
X218993974Y-100845257D02*
X219041593Y-100797638D01*
X219041593Y-100797638D02*
X219136831Y-100750019D01*
X219803498Y-100750019D02*
X220470164Y-100750019D01*
X220470164Y-100750019D02*
X220041593Y-101750019D01*
X220155269Y-99620247D02*
X219679078Y-99953580D01*
X220155269Y-100191675D02*
X219155269Y-100191675D01*
X219155269Y-100191675D02*
X219155269Y-99810723D01*
X219155269Y-99810723D02*
X219202888Y-99715485D01*
X219202888Y-99715485D02*
X219250507Y-99667866D01*
X219250507Y-99667866D02*
X219345745Y-99620247D01*
X219345745Y-99620247D02*
X219488602Y-99620247D01*
X219488602Y-99620247D02*
X219583840Y-99667866D01*
X219583840Y-99667866D02*
X219631459Y-99715485D01*
X219631459Y-99715485D02*
X219679078Y-99810723D01*
X219679078Y-99810723D02*
X219679078Y-100191675D01*
X219155269Y-99286913D02*
X219155269Y-98667866D01*
X219155269Y-98667866D02*
X219536221Y-99001199D01*
X219536221Y-99001199D02*
X219536221Y-98858342D01*
X219536221Y-98858342D02*
X219583840Y-98763104D01*
X219583840Y-98763104D02*
X219631459Y-98715485D01*
X219631459Y-98715485D02*
X219726697Y-98667866D01*
X219726697Y-98667866D02*
X219964792Y-98667866D01*
X219964792Y-98667866D02*
X220060030Y-98715485D01*
X220060030Y-98715485D02*
X220107650Y-98763104D01*
X220107650Y-98763104D02*
X220155269Y-98858342D01*
X220155269Y-98858342D02*
X220155269Y-99144056D01*
X220155269Y-99144056D02*
X220107650Y-99239294D01*
X220107650Y-99239294D02*
X220060030Y-99286913D01*
X219155269Y-98048818D02*
X219155269Y-97953580D01*
X219155269Y-97953580D02*
X219202888Y-97858342D01*
X219202888Y-97858342D02*
X219250507Y-97810723D01*
X219250507Y-97810723D02*
X219345745Y-97763104D01*
X219345745Y-97763104D02*
X219536221Y-97715485D01*
X219536221Y-97715485D02*
X219774316Y-97715485D01*
X219774316Y-97715485D02*
X219964792Y-97763104D01*
X219964792Y-97763104D02*
X220060030Y-97810723D01*
X220060030Y-97810723D02*
X220107650Y-97858342D01*
X220107650Y-97858342D02*
X220155269Y-97953580D01*
X220155269Y-97953580D02*
X220155269Y-98048818D01*
X220155269Y-98048818D02*
X220107650Y-98144056D01*
X220107650Y-98144056D02*
X220060030Y-98191675D01*
X220060030Y-98191675D02*
X219964792Y-98239294D01*
X219964792Y-98239294D02*
X219774316Y-98286913D01*
X219774316Y-98286913D02*
X219536221Y-98286913D01*
X219536221Y-98286913D02*
X219345745Y-98239294D01*
X219345745Y-98239294D02*
X219250507Y-98191675D01*
X219250507Y-98191675D02*
X219202888Y-98144056D01*
X219202888Y-98144056D02*
X219155269Y-98048818D01*
X219155269Y-96858342D02*
X219155269Y-97048818D01*
X219155269Y-97048818D02*
X219202888Y-97144056D01*
X219202888Y-97144056D02*
X219250507Y-97191675D01*
X219250507Y-97191675D02*
X219393364Y-97286913D01*
X219393364Y-97286913D02*
X219583840Y-97334532D01*
X219583840Y-97334532D02*
X219964792Y-97334532D01*
X219964792Y-97334532D02*
X220060030Y-97286913D01*
X220060030Y-97286913D02*
X220107650Y-97239294D01*
X220107650Y-97239294D02*
X220155269Y-97144056D01*
X220155269Y-97144056D02*
X220155269Y-96953580D01*
X220155269Y-96953580D02*
X220107650Y-96858342D01*
X220107650Y-96858342D02*
X220060030Y-96810723D01*
X220060030Y-96810723D02*
X219964792Y-96763104D01*
X219964792Y-96763104D02*
X219726697Y-96763104D01*
X219726697Y-96763104D02*
X219631459Y-96810723D01*
X219631459Y-96810723D02*
X219583840Y-96858342D01*
X219583840Y-96858342D02*
X219536221Y-96953580D01*
X219536221Y-96953580D02*
X219536221Y-97144056D01*
X219536221Y-97144056D02*
X219583840Y-97239294D01*
X219583840Y-97239294D02*
X219631459Y-97286913D01*
X219631459Y-97286913D02*
X219726697Y-97334532D01*
X206135402Y-96416019D02*
X205802069Y-95939828D01*
X205563974Y-96416019D02*
X205563974Y-95416019D01*
X205563974Y-95416019D02*
X205944926Y-95416019D01*
X205944926Y-95416019D02*
X206040164Y-95463638D01*
X206040164Y-95463638D02*
X206087783Y-95511257D01*
X206087783Y-95511257D02*
X206135402Y-95606495D01*
X206135402Y-95606495D02*
X206135402Y-95749352D01*
X206135402Y-95749352D02*
X206087783Y-95844590D01*
X206087783Y-95844590D02*
X206040164Y-95892209D01*
X206040164Y-95892209D02*
X205944926Y-95939828D01*
X205944926Y-95939828D02*
X205563974Y-95939828D01*
X206468736Y-95416019D02*
X207087783Y-95416019D01*
X207087783Y-95416019D02*
X206754450Y-95796971D01*
X206754450Y-95796971D02*
X206897307Y-95796971D01*
X206897307Y-95796971D02*
X206992545Y-95844590D01*
X206992545Y-95844590D02*
X207040164Y-95892209D01*
X207040164Y-95892209D02*
X207087783Y-95987447D01*
X207087783Y-95987447D02*
X207087783Y-96225542D01*
X207087783Y-96225542D02*
X207040164Y-96320780D01*
X207040164Y-96320780D02*
X206992545Y-96368400D01*
X206992545Y-96368400D02*
X206897307Y-96416019D01*
X206897307Y-96416019D02*
X206611593Y-96416019D01*
X206611593Y-96416019D02*
X206516355Y-96368400D01*
X206516355Y-96368400D02*
X206468736Y-96320780D01*
X207706831Y-95416019D02*
X207802069Y-95416019D01*
X207802069Y-95416019D02*
X207897307Y-95463638D01*
X207897307Y-95463638D02*
X207944926Y-95511257D01*
X207944926Y-95511257D02*
X207992545Y-95606495D01*
X207992545Y-95606495D02*
X208040164Y-95796971D01*
X208040164Y-95796971D02*
X208040164Y-96035066D01*
X208040164Y-96035066D02*
X207992545Y-96225542D01*
X207992545Y-96225542D02*
X207944926Y-96320780D01*
X207944926Y-96320780D02*
X207897307Y-96368400D01*
X207897307Y-96368400D02*
X207802069Y-96416019D01*
X207802069Y-96416019D02*
X207706831Y-96416019D01*
X207706831Y-96416019D02*
X207611593Y-96368400D01*
X207611593Y-96368400D02*
X207563974Y-96320780D01*
X207563974Y-96320780D02*
X207516355Y-96225542D01*
X207516355Y-96225542D02*
X207468736Y-96035066D01*
X207468736Y-96035066D02*
X207468736Y-95796971D01*
X207468736Y-95796971D02*
X207516355Y-95606495D01*
X207516355Y-95606495D02*
X207563974Y-95511257D01*
X207563974Y-95511257D02*
X207611593Y-95463638D01*
X207611593Y-95463638D02*
X207706831Y-95416019D01*
X208944926Y-95416019D02*
X208468736Y-95416019D01*
X208468736Y-95416019D02*
X208421117Y-95892209D01*
X208421117Y-95892209D02*
X208468736Y-95844590D01*
X208468736Y-95844590D02*
X208563974Y-95796971D01*
X208563974Y-95796971D02*
X208802069Y-95796971D01*
X208802069Y-95796971D02*
X208897307Y-95844590D01*
X208897307Y-95844590D02*
X208944926Y-95892209D01*
X208944926Y-95892209D02*
X208992545Y-95987447D01*
X208992545Y-95987447D02*
X208992545Y-96225542D01*
X208992545Y-96225542D02*
X208944926Y-96320780D01*
X208944926Y-96320780D02*
X208897307Y-96368400D01*
X208897307Y-96368400D02*
X208802069Y-96416019D01*
X208802069Y-96416019D02*
X208563974Y-96416019D01*
X208563974Y-96416019D02*
X208468736Y-96368400D01*
X208468736Y-96368400D02*
X208421117Y-96320780D01*
X205753469Y-92787647D02*
X205277278Y-93120980D01*
X205753469Y-93359075D02*
X204753469Y-93359075D01*
X204753469Y-93359075D02*
X204753469Y-92978123D01*
X204753469Y-92978123D02*
X204801088Y-92882885D01*
X204801088Y-92882885D02*
X204848707Y-92835266D01*
X204848707Y-92835266D02*
X204943945Y-92787647D01*
X204943945Y-92787647D02*
X205086802Y-92787647D01*
X205086802Y-92787647D02*
X205182040Y-92835266D01*
X205182040Y-92835266D02*
X205229659Y-92882885D01*
X205229659Y-92882885D02*
X205277278Y-92978123D01*
X205277278Y-92978123D02*
X205277278Y-93359075D01*
X204753469Y-92454313D02*
X204753469Y-91835266D01*
X204753469Y-91835266D02*
X205134421Y-92168599D01*
X205134421Y-92168599D02*
X205134421Y-92025742D01*
X205134421Y-92025742D02*
X205182040Y-91930504D01*
X205182040Y-91930504D02*
X205229659Y-91882885D01*
X205229659Y-91882885D02*
X205324897Y-91835266D01*
X205324897Y-91835266D02*
X205562992Y-91835266D01*
X205562992Y-91835266D02*
X205658230Y-91882885D01*
X205658230Y-91882885D02*
X205705850Y-91930504D01*
X205705850Y-91930504D02*
X205753469Y-92025742D01*
X205753469Y-92025742D02*
X205753469Y-92311456D01*
X205753469Y-92311456D02*
X205705850Y-92406694D01*
X205705850Y-92406694D02*
X205658230Y-92454313D01*
X204753469Y-91216218D02*
X204753469Y-91120980D01*
X204753469Y-91120980D02*
X204801088Y-91025742D01*
X204801088Y-91025742D02*
X204848707Y-90978123D01*
X204848707Y-90978123D02*
X204943945Y-90930504D01*
X204943945Y-90930504D02*
X205134421Y-90882885D01*
X205134421Y-90882885D02*
X205372516Y-90882885D01*
X205372516Y-90882885D02*
X205562992Y-90930504D01*
X205562992Y-90930504D02*
X205658230Y-90978123D01*
X205658230Y-90978123D02*
X205705850Y-91025742D01*
X205705850Y-91025742D02*
X205753469Y-91120980D01*
X205753469Y-91120980D02*
X205753469Y-91216218D01*
X205753469Y-91216218D02*
X205705850Y-91311456D01*
X205705850Y-91311456D02*
X205658230Y-91359075D01*
X205658230Y-91359075D02*
X205562992Y-91406694D01*
X205562992Y-91406694D02*
X205372516Y-91454313D01*
X205372516Y-91454313D02*
X205134421Y-91454313D01*
X205134421Y-91454313D02*
X204943945Y-91406694D01*
X204943945Y-91406694D02*
X204848707Y-91359075D01*
X204848707Y-91359075D02*
X204801088Y-91311456D01*
X204801088Y-91311456D02*
X204753469Y-91216218D01*
X205086802Y-90025742D02*
X205753469Y-90025742D01*
X204705850Y-90263837D02*
X205420135Y-90501932D01*
X205420135Y-90501932D02*
X205420135Y-89882885D01*
X204483469Y-92787647D02*
X204007278Y-93120980D01*
X204483469Y-93359075D02*
X203483469Y-93359075D01*
X203483469Y-93359075D02*
X203483469Y-92978123D01*
X203483469Y-92978123D02*
X203531088Y-92882885D01*
X203531088Y-92882885D02*
X203578707Y-92835266D01*
X203578707Y-92835266D02*
X203673945Y-92787647D01*
X203673945Y-92787647D02*
X203816802Y-92787647D01*
X203816802Y-92787647D02*
X203912040Y-92835266D01*
X203912040Y-92835266D02*
X203959659Y-92882885D01*
X203959659Y-92882885D02*
X204007278Y-92978123D01*
X204007278Y-92978123D02*
X204007278Y-93359075D01*
X203483469Y-92454313D02*
X203483469Y-91835266D01*
X203483469Y-91835266D02*
X203864421Y-92168599D01*
X203864421Y-92168599D02*
X203864421Y-92025742D01*
X203864421Y-92025742D02*
X203912040Y-91930504D01*
X203912040Y-91930504D02*
X203959659Y-91882885D01*
X203959659Y-91882885D02*
X204054897Y-91835266D01*
X204054897Y-91835266D02*
X204292992Y-91835266D01*
X204292992Y-91835266D02*
X204388230Y-91882885D01*
X204388230Y-91882885D02*
X204435850Y-91930504D01*
X204435850Y-91930504D02*
X204483469Y-92025742D01*
X204483469Y-92025742D02*
X204483469Y-92311456D01*
X204483469Y-92311456D02*
X204435850Y-92406694D01*
X204435850Y-92406694D02*
X204388230Y-92454313D01*
X203483469Y-91216218D02*
X203483469Y-91120980D01*
X203483469Y-91120980D02*
X203531088Y-91025742D01*
X203531088Y-91025742D02*
X203578707Y-90978123D01*
X203578707Y-90978123D02*
X203673945Y-90930504D01*
X203673945Y-90930504D02*
X203864421Y-90882885D01*
X203864421Y-90882885D02*
X204102516Y-90882885D01*
X204102516Y-90882885D02*
X204292992Y-90930504D01*
X204292992Y-90930504D02*
X204388230Y-90978123D01*
X204388230Y-90978123D02*
X204435850Y-91025742D01*
X204435850Y-91025742D02*
X204483469Y-91120980D01*
X204483469Y-91120980D02*
X204483469Y-91216218D01*
X204483469Y-91216218D02*
X204435850Y-91311456D01*
X204435850Y-91311456D02*
X204388230Y-91359075D01*
X204388230Y-91359075D02*
X204292992Y-91406694D01*
X204292992Y-91406694D02*
X204102516Y-91454313D01*
X204102516Y-91454313D02*
X203864421Y-91454313D01*
X203864421Y-91454313D02*
X203673945Y-91406694D01*
X203673945Y-91406694D02*
X203578707Y-91359075D01*
X203578707Y-91359075D02*
X203531088Y-91311456D01*
X203531088Y-91311456D02*
X203483469Y-91216218D01*
X203483469Y-90549551D02*
X203483469Y-89930504D01*
X203483469Y-89930504D02*
X203864421Y-90263837D01*
X203864421Y-90263837D02*
X203864421Y-90120980D01*
X203864421Y-90120980D02*
X203912040Y-90025742D01*
X203912040Y-90025742D02*
X203959659Y-89978123D01*
X203959659Y-89978123D02*
X204054897Y-89930504D01*
X204054897Y-89930504D02*
X204292992Y-89930504D01*
X204292992Y-89930504D02*
X204388230Y-89978123D01*
X204388230Y-89978123D02*
X204435850Y-90025742D01*
X204435850Y-90025742D02*
X204483469Y-90120980D01*
X204483469Y-90120980D02*
X204483469Y-90406694D01*
X204483469Y-90406694D02*
X204435850Y-90501932D01*
X204435850Y-90501932D02*
X204388230Y-90549551D01*
X216803402Y-89812019D02*
X216470069Y-89335828D01*
X216231974Y-89812019D02*
X216231974Y-88812019D01*
X216231974Y-88812019D02*
X216612926Y-88812019D01*
X216612926Y-88812019D02*
X216708164Y-88859638D01*
X216708164Y-88859638D02*
X216755783Y-88907257D01*
X216755783Y-88907257D02*
X216803402Y-89002495D01*
X216803402Y-89002495D02*
X216803402Y-89145352D01*
X216803402Y-89145352D02*
X216755783Y-89240590D01*
X216755783Y-89240590D02*
X216708164Y-89288209D01*
X216708164Y-89288209D02*
X216612926Y-89335828D01*
X216612926Y-89335828D02*
X216231974Y-89335828D01*
X217136736Y-88812019D02*
X217755783Y-88812019D01*
X217755783Y-88812019D02*
X217422450Y-89192971D01*
X217422450Y-89192971D02*
X217565307Y-89192971D01*
X217565307Y-89192971D02*
X217660545Y-89240590D01*
X217660545Y-89240590D02*
X217708164Y-89288209D01*
X217708164Y-89288209D02*
X217755783Y-89383447D01*
X217755783Y-89383447D02*
X217755783Y-89621542D01*
X217755783Y-89621542D02*
X217708164Y-89716780D01*
X217708164Y-89716780D02*
X217660545Y-89764400D01*
X217660545Y-89764400D02*
X217565307Y-89812019D01*
X217565307Y-89812019D02*
X217279593Y-89812019D01*
X217279593Y-89812019D02*
X217184355Y-89764400D01*
X217184355Y-89764400D02*
X217136736Y-89716780D01*
X218374831Y-88812019D02*
X218470069Y-88812019D01*
X218470069Y-88812019D02*
X218565307Y-88859638D01*
X218565307Y-88859638D02*
X218612926Y-88907257D01*
X218612926Y-88907257D02*
X218660545Y-89002495D01*
X218660545Y-89002495D02*
X218708164Y-89192971D01*
X218708164Y-89192971D02*
X218708164Y-89431066D01*
X218708164Y-89431066D02*
X218660545Y-89621542D01*
X218660545Y-89621542D02*
X218612926Y-89716780D01*
X218612926Y-89716780D02*
X218565307Y-89764400D01*
X218565307Y-89764400D02*
X218470069Y-89812019D01*
X218470069Y-89812019D02*
X218374831Y-89812019D01*
X218374831Y-89812019D02*
X218279593Y-89764400D01*
X218279593Y-89764400D02*
X218231974Y-89716780D01*
X218231974Y-89716780D02*
X218184355Y-89621542D01*
X218184355Y-89621542D02*
X218136736Y-89431066D01*
X218136736Y-89431066D02*
X218136736Y-89192971D01*
X218136736Y-89192971D02*
X218184355Y-89002495D01*
X218184355Y-89002495D02*
X218231974Y-88907257D01*
X218231974Y-88907257D02*
X218279593Y-88859638D01*
X218279593Y-88859638D02*
X218374831Y-88812019D01*
X219089117Y-88907257D02*
X219136736Y-88859638D01*
X219136736Y-88859638D02*
X219231974Y-88812019D01*
X219231974Y-88812019D02*
X219470069Y-88812019D01*
X219470069Y-88812019D02*
X219565307Y-88859638D01*
X219565307Y-88859638D02*
X219612926Y-88907257D01*
X219612926Y-88907257D02*
X219660545Y-89002495D01*
X219660545Y-89002495D02*
X219660545Y-89097733D01*
X219660545Y-89097733D02*
X219612926Y-89240590D01*
X219612926Y-89240590D02*
X219041498Y-89812019D01*
X219041498Y-89812019D02*
X219660545Y-89812019D01*
X224169402Y-100988019D02*
X223836069Y-100511828D01*
X223597974Y-100988019D02*
X223597974Y-99988019D01*
X223597974Y-99988019D02*
X223978926Y-99988019D01*
X223978926Y-99988019D02*
X224074164Y-100035638D01*
X224074164Y-100035638D02*
X224121783Y-100083257D01*
X224121783Y-100083257D02*
X224169402Y-100178495D01*
X224169402Y-100178495D02*
X224169402Y-100321352D01*
X224169402Y-100321352D02*
X224121783Y-100416590D01*
X224121783Y-100416590D02*
X224074164Y-100464209D01*
X224074164Y-100464209D02*
X223978926Y-100511828D01*
X223978926Y-100511828D02*
X223597974Y-100511828D01*
X224502736Y-99988019D02*
X225121783Y-99988019D01*
X225121783Y-99988019D02*
X224788450Y-100368971D01*
X224788450Y-100368971D02*
X224931307Y-100368971D01*
X224931307Y-100368971D02*
X225026545Y-100416590D01*
X225026545Y-100416590D02*
X225074164Y-100464209D01*
X225074164Y-100464209D02*
X225121783Y-100559447D01*
X225121783Y-100559447D02*
X225121783Y-100797542D01*
X225121783Y-100797542D02*
X225074164Y-100892780D01*
X225074164Y-100892780D02*
X225026545Y-100940400D01*
X225026545Y-100940400D02*
X224931307Y-100988019D01*
X224931307Y-100988019D02*
X224645593Y-100988019D01*
X224645593Y-100988019D02*
X224550355Y-100940400D01*
X224550355Y-100940400D02*
X224502736Y-100892780D01*
X225740831Y-99988019D02*
X225836069Y-99988019D01*
X225836069Y-99988019D02*
X225931307Y-100035638D01*
X225931307Y-100035638D02*
X225978926Y-100083257D01*
X225978926Y-100083257D02*
X226026545Y-100178495D01*
X226026545Y-100178495D02*
X226074164Y-100368971D01*
X226074164Y-100368971D02*
X226074164Y-100607066D01*
X226074164Y-100607066D02*
X226026545Y-100797542D01*
X226026545Y-100797542D02*
X225978926Y-100892780D01*
X225978926Y-100892780D02*
X225931307Y-100940400D01*
X225931307Y-100940400D02*
X225836069Y-100988019D01*
X225836069Y-100988019D02*
X225740831Y-100988019D01*
X225740831Y-100988019D02*
X225645593Y-100940400D01*
X225645593Y-100940400D02*
X225597974Y-100892780D01*
X225597974Y-100892780D02*
X225550355Y-100797542D01*
X225550355Y-100797542D02*
X225502736Y-100607066D01*
X225502736Y-100607066D02*
X225502736Y-100368971D01*
X225502736Y-100368971D02*
X225550355Y-100178495D01*
X225550355Y-100178495D02*
X225597974Y-100083257D01*
X225597974Y-100083257D02*
X225645593Y-100035638D01*
X225645593Y-100035638D02*
X225740831Y-99988019D01*
X227026545Y-100988019D02*
X226455117Y-100988019D01*
X226740831Y-100988019D02*
X226740831Y-99988019D01*
X226740831Y-99988019D02*
X226645593Y-100130876D01*
X226645593Y-100130876D02*
X226550355Y-100226114D01*
X226550355Y-100226114D02*
X226455117Y-100273733D01*
X233969085Y-100496019D02*
X233969085Y-101210304D01*
X233969085Y-101210304D02*
X233921466Y-101353161D01*
X233921466Y-101353161D02*
X233826228Y-101448400D01*
X233826228Y-101448400D02*
X233683371Y-101496019D01*
X233683371Y-101496019D02*
X233588133Y-101496019D01*
X234350038Y-100496019D02*
X234969085Y-100496019D01*
X234969085Y-100496019D02*
X234635752Y-100876971D01*
X234635752Y-100876971D02*
X234778609Y-100876971D01*
X234778609Y-100876971D02*
X234873847Y-100924590D01*
X234873847Y-100924590D02*
X234921466Y-100972209D01*
X234921466Y-100972209D02*
X234969085Y-101067447D01*
X234969085Y-101067447D02*
X234969085Y-101305542D01*
X234969085Y-101305542D02*
X234921466Y-101400780D01*
X234921466Y-101400780D02*
X234873847Y-101448400D01*
X234873847Y-101448400D02*
X234778609Y-101496019D01*
X234778609Y-101496019D02*
X234492895Y-101496019D01*
X234492895Y-101496019D02*
X234397657Y-101448400D01*
X234397657Y-101448400D02*
X234350038Y-101400780D01*
X235588133Y-100496019D02*
X235683371Y-100496019D01*
X235683371Y-100496019D02*
X235778609Y-100543638D01*
X235778609Y-100543638D02*
X235826228Y-100591257D01*
X235826228Y-100591257D02*
X235873847Y-100686495D01*
X235873847Y-100686495D02*
X235921466Y-100876971D01*
X235921466Y-100876971D02*
X235921466Y-101115066D01*
X235921466Y-101115066D02*
X235873847Y-101305542D01*
X235873847Y-101305542D02*
X235826228Y-101400780D01*
X235826228Y-101400780D02*
X235778609Y-101448400D01*
X235778609Y-101448400D02*
X235683371Y-101496019D01*
X235683371Y-101496019D02*
X235588133Y-101496019D01*
X235588133Y-101496019D02*
X235492895Y-101448400D01*
X235492895Y-101448400D02*
X235445276Y-101400780D01*
X235445276Y-101400780D02*
X235397657Y-101305542D01*
X235397657Y-101305542D02*
X235350038Y-101115066D01*
X235350038Y-101115066D02*
X235350038Y-100876971D01*
X235350038Y-100876971D02*
X235397657Y-100686495D01*
X235397657Y-100686495D02*
X235445276Y-100591257D01*
X235445276Y-100591257D02*
X235492895Y-100543638D01*
X235492895Y-100543638D02*
X235588133Y-100496019D01*
X236873847Y-101496019D02*
X236302419Y-101496019D01*
X236588133Y-101496019D02*
X236588133Y-100496019D01*
X236588133Y-100496019D02*
X236492895Y-100638876D01*
X236492895Y-100638876D02*
X236397657Y-100734114D01*
X236397657Y-100734114D02*
X236302419Y-100781733D01*
X225375974Y-90066019D02*
X225375974Y-89066019D01*
X225375974Y-89066019D02*
X225614069Y-89066019D01*
X225614069Y-89066019D02*
X225756926Y-89113638D01*
X225756926Y-89113638D02*
X225852164Y-89208876D01*
X225852164Y-89208876D02*
X225899783Y-89304114D01*
X225899783Y-89304114D02*
X225947402Y-89494590D01*
X225947402Y-89494590D02*
X225947402Y-89637447D01*
X225947402Y-89637447D02*
X225899783Y-89827923D01*
X225899783Y-89827923D02*
X225852164Y-89923161D01*
X225852164Y-89923161D02*
X225756926Y-90018400D01*
X225756926Y-90018400D02*
X225614069Y-90066019D01*
X225614069Y-90066019D02*
X225375974Y-90066019D01*
X226280736Y-89066019D02*
X226899783Y-89066019D01*
X226899783Y-89066019D02*
X226566450Y-89446971D01*
X226566450Y-89446971D02*
X226709307Y-89446971D01*
X226709307Y-89446971D02*
X226804545Y-89494590D01*
X226804545Y-89494590D02*
X226852164Y-89542209D01*
X226852164Y-89542209D02*
X226899783Y-89637447D01*
X226899783Y-89637447D02*
X226899783Y-89875542D01*
X226899783Y-89875542D02*
X226852164Y-89970780D01*
X226852164Y-89970780D02*
X226804545Y-90018400D01*
X226804545Y-90018400D02*
X226709307Y-90066019D01*
X226709307Y-90066019D02*
X226423593Y-90066019D01*
X226423593Y-90066019D02*
X226328355Y-90018400D01*
X226328355Y-90018400D02*
X226280736Y-89970780D01*
X227518831Y-89066019D02*
X227614069Y-89066019D01*
X227614069Y-89066019D02*
X227709307Y-89113638D01*
X227709307Y-89113638D02*
X227756926Y-89161257D01*
X227756926Y-89161257D02*
X227804545Y-89256495D01*
X227804545Y-89256495D02*
X227852164Y-89446971D01*
X227852164Y-89446971D02*
X227852164Y-89685066D01*
X227852164Y-89685066D02*
X227804545Y-89875542D01*
X227804545Y-89875542D02*
X227756926Y-89970780D01*
X227756926Y-89970780D02*
X227709307Y-90018400D01*
X227709307Y-90018400D02*
X227614069Y-90066019D01*
X227614069Y-90066019D02*
X227518831Y-90066019D01*
X227518831Y-90066019D02*
X227423593Y-90018400D01*
X227423593Y-90018400D02*
X227375974Y-89970780D01*
X227375974Y-89970780D02*
X227328355Y-89875542D01*
X227328355Y-89875542D02*
X227280736Y-89685066D01*
X227280736Y-89685066D02*
X227280736Y-89446971D01*
X227280736Y-89446971D02*
X227328355Y-89256495D01*
X227328355Y-89256495D02*
X227375974Y-89161257D01*
X227375974Y-89161257D02*
X227423593Y-89113638D01*
X227423593Y-89113638D02*
X227518831Y-89066019D01*
X228804545Y-90066019D02*
X228233117Y-90066019D01*
X228518831Y-90066019D02*
X228518831Y-89066019D01*
X228518831Y-89066019D02*
X228423593Y-89208876D01*
X228423593Y-89208876D02*
X228328355Y-89304114D01*
X228328355Y-89304114D02*
X228233117Y-89351733D01*
X209183402Y-101146780D02*
X209135783Y-101194400D01*
X209135783Y-101194400D02*
X208992926Y-101242019D01*
X208992926Y-101242019D02*
X208897688Y-101242019D01*
X208897688Y-101242019D02*
X208754831Y-101194400D01*
X208754831Y-101194400D02*
X208659593Y-101099161D01*
X208659593Y-101099161D02*
X208611974Y-101003923D01*
X208611974Y-101003923D02*
X208564355Y-100813447D01*
X208564355Y-100813447D02*
X208564355Y-100670590D01*
X208564355Y-100670590D02*
X208611974Y-100480114D01*
X208611974Y-100480114D02*
X208659593Y-100384876D01*
X208659593Y-100384876D02*
X208754831Y-100289638D01*
X208754831Y-100289638D02*
X208897688Y-100242019D01*
X208897688Y-100242019D02*
X208992926Y-100242019D01*
X208992926Y-100242019D02*
X209135783Y-100289638D01*
X209135783Y-100289638D02*
X209183402Y-100337257D01*
X209516736Y-100242019D02*
X210135783Y-100242019D01*
X210135783Y-100242019D02*
X209802450Y-100622971D01*
X209802450Y-100622971D02*
X209945307Y-100622971D01*
X209945307Y-100622971D02*
X210040545Y-100670590D01*
X210040545Y-100670590D02*
X210088164Y-100718209D01*
X210088164Y-100718209D02*
X210135783Y-100813447D01*
X210135783Y-100813447D02*
X210135783Y-101051542D01*
X210135783Y-101051542D02*
X210088164Y-101146780D01*
X210088164Y-101146780D02*
X210040545Y-101194400D01*
X210040545Y-101194400D02*
X209945307Y-101242019D01*
X209945307Y-101242019D02*
X209659593Y-101242019D01*
X209659593Y-101242019D02*
X209564355Y-101194400D01*
X209564355Y-101194400D02*
X209516736Y-101146780D01*
X210754831Y-100242019D02*
X210850069Y-100242019D01*
X210850069Y-100242019D02*
X210945307Y-100289638D01*
X210945307Y-100289638D02*
X210992926Y-100337257D01*
X210992926Y-100337257D02*
X211040545Y-100432495D01*
X211040545Y-100432495D02*
X211088164Y-100622971D01*
X211088164Y-100622971D02*
X211088164Y-100861066D01*
X211088164Y-100861066D02*
X211040545Y-101051542D01*
X211040545Y-101051542D02*
X210992926Y-101146780D01*
X210992926Y-101146780D02*
X210945307Y-101194400D01*
X210945307Y-101194400D02*
X210850069Y-101242019D01*
X210850069Y-101242019D02*
X210754831Y-101242019D01*
X210754831Y-101242019D02*
X210659593Y-101194400D01*
X210659593Y-101194400D02*
X210611974Y-101146780D01*
X210611974Y-101146780D02*
X210564355Y-101051542D01*
X210564355Y-101051542D02*
X210516736Y-100861066D01*
X210516736Y-100861066D02*
X210516736Y-100622971D01*
X210516736Y-100622971D02*
X210564355Y-100432495D01*
X210564355Y-100432495D02*
X210611974Y-100337257D01*
X210611974Y-100337257D02*
X210659593Y-100289638D01*
X210659593Y-100289638D02*
X210754831Y-100242019D01*
X211421498Y-100242019D02*
X212088164Y-100242019D01*
X212088164Y-100242019D02*
X211659593Y-101242019D01*
X205881402Y-95050780D02*
X205833783Y-95098400D01*
X205833783Y-95098400D02*
X205690926Y-95146019D01*
X205690926Y-95146019D02*
X205595688Y-95146019D01*
X205595688Y-95146019D02*
X205452831Y-95098400D01*
X205452831Y-95098400D02*
X205357593Y-95003161D01*
X205357593Y-95003161D02*
X205309974Y-94907923D01*
X205309974Y-94907923D02*
X205262355Y-94717447D01*
X205262355Y-94717447D02*
X205262355Y-94574590D01*
X205262355Y-94574590D02*
X205309974Y-94384114D01*
X205309974Y-94384114D02*
X205357593Y-94288876D01*
X205357593Y-94288876D02*
X205452831Y-94193638D01*
X205452831Y-94193638D02*
X205595688Y-94146019D01*
X205595688Y-94146019D02*
X205690926Y-94146019D01*
X205690926Y-94146019D02*
X205833783Y-94193638D01*
X205833783Y-94193638D02*
X205881402Y-94241257D01*
X206214736Y-94146019D02*
X206833783Y-94146019D01*
X206833783Y-94146019D02*
X206500450Y-94526971D01*
X206500450Y-94526971D02*
X206643307Y-94526971D01*
X206643307Y-94526971D02*
X206738545Y-94574590D01*
X206738545Y-94574590D02*
X206786164Y-94622209D01*
X206786164Y-94622209D02*
X206833783Y-94717447D01*
X206833783Y-94717447D02*
X206833783Y-94955542D01*
X206833783Y-94955542D02*
X206786164Y-95050780D01*
X206786164Y-95050780D02*
X206738545Y-95098400D01*
X206738545Y-95098400D02*
X206643307Y-95146019D01*
X206643307Y-95146019D02*
X206357593Y-95146019D01*
X206357593Y-95146019D02*
X206262355Y-95098400D01*
X206262355Y-95098400D02*
X206214736Y-95050780D01*
X207452831Y-94146019D02*
X207548069Y-94146019D01*
X207548069Y-94146019D02*
X207643307Y-94193638D01*
X207643307Y-94193638D02*
X207690926Y-94241257D01*
X207690926Y-94241257D02*
X207738545Y-94336495D01*
X207738545Y-94336495D02*
X207786164Y-94526971D01*
X207786164Y-94526971D02*
X207786164Y-94765066D01*
X207786164Y-94765066D02*
X207738545Y-94955542D01*
X207738545Y-94955542D02*
X207690926Y-95050780D01*
X207690926Y-95050780D02*
X207643307Y-95098400D01*
X207643307Y-95098400D02*
X207548069Y-95146019D01*
X207548069Y-95146019D02*
X207452831Y-95146019D01*
X207452831Y-95146019D02*
X207357593Y-95098400D01*
X207357593Y-95098400D02*
X207309974Y-95050780D01*
X207309974Y-95050780D02*
X207262355Y-94955542D01*
X207262355Y-94955542D02*
X207214736Y-94765066D01*
X207214736Y-94765066D02*
X207214736Y-94526971D01*
X207214736Y-94526971D02*
X207262355Y-94336495D01*
X207262355Y-94336495D02*
X207309974Y-94241257D01*
X207309974Y-94241257D02*
X207357593Y-94193638D01*
X207357593Y-94193638D02*
X207452831Y-94146019D01*
X208643307Y-94146019D02*
X208452831Y-94146019D01*
X208452831Y-94146019D02*
X208357593Y-94193638D01*
X208357593Y-94193638D02*
X208309974Y-94241257D01*
X208309974Y-94241257D02*
X208214736Y-94384114D01*
X208214736Y-94384114D02*
X208167117Y-94574590D01*
X208167117Y-94574590D02*
X208167117Y-94955542D01*
X208167117Y-94955542D02*
X208214736Y-95050780D01*
X208214736Y-95050780D02*
X208262355Y-95098400D01*
X208262355Y-95098400D02*
X208357593Y-95146019D01*
X208357593Y-95146019D02*
X208548069Y-95146019D01*
X208548069Y-95146019D02*
X208643307Y-95098400D01*
X208643307Y-95098400D02*
X208690926Y-95050780D01*
X208690926Y-95050780D02*
X208738545Y-94955542D01*
X208738545Y-94955542D02*
X208738545Y-94717447D01*
X208738545Y-94717447D02*
X208690926Y-94622209D01*
X208690926Y-94622209D02*
X208643307Y-94574590D01*
X208643307Y-94574590D02*
X208548069Y-94526971D01*
X208548069Y-94526971D02*
X208357593Y-94526971D01*
X208357593Y-94526971D02*
X208262355Y-94574590D01*
X208262355Y-94574590D02*
X208214736Y-94622209D01*
X208214736Y-94622209D02*
X208167117Y-94717447D01*
X215886030Y-93778247D02*
X215933650Y-93825866D01*
X215933650Y-93825866D02*
X215981269Y-93968723D01*
X215981269Y-93968723D02*
X215981269Y-94063961D01*
X215981269Y-94063961D02*
X215933650Y-94206818D01*
X215933650Y-94206818D02*
X215838411Y-94302056D01*
X215838411Y-94302056D02*
X215743173Y-94349675D01*
X215743173Y-94349675D02*
X215552697Y-94397294D01*
X215552697Y-94397294D02*
X215409840Y-94397294D01*
X215409840Y-94397294D02*
X215219364Y-94349675D01*
X215219364Y-94349675D02*
X215124126Y-94302056D01*
X215124126Y-94302056D02*
X215028888Y-94206818D01*
X215028888Y-94206818D02*
X214981269Y-94063961D01*
X214981269Y-94063961D02*
X214981269Y-93968723D01*
X214981269Y-93968723D02*
X215028888Y-93825866D01*
X215028888Y-93825866D02*
X215076507Y-93778247D01*
X214981269Y-93444913D02*
X214981269Y-92825866D01*
X214981269Y-92825866D02*
X215362221Y-93159199D01*
X215362221Y-93159199D02*
X215362221Y-93016342D01*
X215362221Y-93016342D02*
X215409840Y-92921104D01*
X215409840Y-92921104D02*
X215457459Y-92873485D01*
X215457459Y-92873485D02*
X215552697Y-92825866D01*
X215552697Y-92825866D02*
X215790792Y-92825866D01*
X215790792Y-92825866D02*
X215886030Y-92873485D01*
X215886030Y-92873485D02*
X215933650Y-92921104D01*
X215933650Y-92921104D02*
X215981269Y-93016342D01*
X215981269Y-93016342D02*
X215981269Y-93302056D01*
X215981269Y-93302056D02*
X215933650Y-93397294D01*
X215933650Y-93397294D02*
X215886030Y-93444913D01*
X214981269Y-92206818D02*
X214981269Y-92111580D01*
X214981269Y-92111580D02*
X215028888Y-92016342D01*
X215028888Y-92016342D02*
X215076507Y-91968723D01*
X215076507Y-91968723D02*
X215171745Y-91921104D01*
X215171745Y-91921104D02*
X215362221Y-91873485D01*
X215362221Y-91873485D02*
X215600316Y-91873485D01*
X215600316Y-91873485D02*
X215790792Y-91921104D01*
X215790792Y-91921104D02*
X215886030Y-91968723D01*
X215886030Y-91968723D02*
X215933650Y-92016342D01*
X215933650Y-92016342D02*
X215981269Y-92111580D01*
X215981269Y-92111580D02*
X215981269Y-92206818D01*
X215981269Y-92206818D02*
X215933650Y-92302056D01*
X215933650Y-92302056D02*
X215886030Y-92349675D01*
X215886030Y-92349675D02*
X215790792Y-92397294D01*
X215790792Y-92397294D02*
X215600316Y-92444913D01*
X215600316Y-92444913D02*
X215362221Y-92444913D01*
X215362221Y-92444913D02*
X215171745Y-92397294D01*
X215171745Y-92397294D02*
X215076507Y-92349675D01*
X215076507Y-92349675D02*
X215028888Y-92302056D01*
X215028888Y-92302056D02*
X214981269Y-92206818D01*
X214981269Y-90968723D02*
X214981269Y-91444913D01*
X214981269Y-91444913D02*
X215457459Y-91492532D01*
X215457459Y-91492532D02*
X215409840Y-91444913D01*
X215409840Y-91444913D02*
X215362221Y-91349675D01*
X215362221Y-91349675D02*
X215362221Y-91111580D01*
X215362221Y-91111580D02*
X215409840Y-91016342D01*
X215409840Y-91016342D02*
X215457459Y-90968723D01*
X215457459Y-90968723D02*
X215552697Y-90921104D01*
X215552697Y-90921104D02*
X215790792Y-90921104D01*
X215790792Y-90921104D02*
X215886030Y-90968723D01*
X215886030Y-90968723D02*
X215933650Y-91016342D01*
X215933650Y-91016342D02*
X215981269Y-91111580D01*
X215981269Y-91111580D02*
X215981269Y-91349675D01*
X215981269Y-91349675D02*
X215933650Y-91444913D01*
X215933650Y-91444913D02*
X215886030Y-91492532D01*
X226664030Y-97901747D02*
X226711650Y-97949366D01*
X226711650Y-97949366D02*
X226759269Y-98092223D01*
X226759269Y-98092223D02*
X226759269Y-98187461D01*
X226759269Y-98187461D02*
X226711650Y-98330318D01*
X226711650Y-98330318D02*
X226616411Y-98425556D01*
X226616411Y-98425556D02*
X226521173Y-98473175D01*
X226521173Y-98473175D02*
X226330697Y-98520794D01*
X226330697Y-98520794D02*
X226187840Y-98520794D01*
X226187840Y-98520794D02*
X225997364Y-98473175D01*
X225997364Y-98473175D02*
X225902126Y-98425556D01*
X225902126Y-98425556D02*
X225806888Y-98330318D01*
X225806888Y-98330318D02*
X225759269Y-98187461D01*
X225759269Y-98187461D02*
X225759269Y-98092223D01*
X225759269Y-98092223D02*
X225806888Y-97949366D01*
X225806888Y-97949366D02*
X225854507Y-97901747D01*
X225759269Y-97568413D02*
X225759269Y-96949366D01*
X225759269Y-96949366D02*
X226140221Y-97282699D01*
X226140221Y-97282699D02*
X226140221Y-97139842D01*
X226140221Y-97139842D02*
X226187840Y-97044604D01*
X226187840Y-97044604D02*
X226235459Y-96996985D01*
X226235459Y-96996985D02*
X226330697Y-96949366D01*
X226330697Y-96949366D02*
X226568792Y-96949366D01*
X226568792Y-96949366D02*
X226664030Y-96996985D01*
X226664030Y-96996985D02*
X226711650Y-97044604D01*
X226711650Y-97044604D02*
X226759269Y-97139842D01*
X226759269Y-97139842D02*
X226759269Y-97425556D01*
X226759269Y-97425556D02*
X226711650Y-97520794D01*
X226711650Y-97520794D02*
X226664030Y-97568413D01*
X225759269Y-96330318D02*
X225759269Y-96235080D01*
X225759269Y-96235080D02*
X225806888Y-96139842D01*
X225806888Y-96139842D02*
X225854507Y-96092223D01*
X225854507Y-96092223D02*
X225949745Y-96044604D01*
X225949745Y-96044604D02*
X226140221Y-95996985D01*
X226140221Y-95996985D02*
X226378316Y-95996985D01*
X226378316Y-95996985D02*
X226568792Y-96044604D01*
X226568792Y-96044604D02*
X226664030Y-96092223D01*
X226664030Y-96092223D02*
X226711650Y-96139842D01*
X226711650Y-96139842D02*
X226759269Y-96235080D01*
X226759269Y-96235080D02*
X226759269Y-96330318D01*
X226759269Y-96330318D02*
X226711650Y-96425556D01*
X226711650Y-96425556D02*
X226664030Y-96473175D01*
X226664030Y-96473175D02*
X226568792Y-96520794D01*
X226568792Y-96520794D02*
X226378316Y-96568413D01*
X226378316Y-96568413D02*
X226140221Y-96568413D01*
X226140221Y-96568413D02*
X225949745Y-96520794D01*
X225949745Y-96520794D02*
X225854507Y-96473175D01*
X225854507Y-96473175D02*
X225806888Y-96425556D01*
X225806888Y-96425556D02*
X225759269Y-96330318D01*
X225759269Y-95663651D02*
X225759269Y-95044604D01*
X225759269Y-95044604D02*
X226140221Y-95377937D01*
X226140221Y-95377937D02*
X226140221Y-95235080D01*
X226140221Y-95235080D02*
X226187840Y-95139842D01*
X226187840Y-95139842D02*
X226235459Y-95092223D01*
X226235459Y-95092223D02*
X226330697Y-95044604D01*
X226330697Y-95044604D02*
X226568792Y-95044604D01*
X226568792Y-95044604D02*
X226664030Y-95092223D01*
X226664030Y-95092223D02*
X226711650Y-95139842D01*
X226711650Y-95139842D02*
X226759269Y-95235080D01*
X226759269Y-95235080D02*
X226759269Y-95520794D01*
X226759269Y-95520794D02*
X226711650Y-95616032D01*
X226711650Y-95616032D02*
X226664030Y-95663651D01*
X221121402Y-89462780D02*
X221073783Y-89510400D01*
X221073783Y-89510400D02*
X220930926Y-89558019D01*
X220930926Y-89558019D02*
X220835688Y-89558019D01*
X220835688Y-89558019D02*
X220692831Y-89510400D01*
X220692831Y-89510400D02*
X220597593Y-89415161D01*
X220597593Y-89415161D02*
X220549974Y-89319923D01*
X220549974Y-89319923D02*
X220502355Y-89129447D01*
X220502355Y-89129447D02*
X220502355Y-88986590D01*
X220502355Y-88986590D02*
X220549974Y-88796114D01*
X220549974Y-88796114D02*
X220597593Y-88700876D01*
X220597593Y-88700876D02*
X220692831Y-88605638D01*
X220692831Y-88605638D02*
X220835688Y-88558019D01*
X220835688Y-88558019D02*
X220930926Y-88558019D01*
X220930926Y-88558019D02*
X221073783Y-88605638D01*
X221073783Y-88605638D02*
X221121402Y-88653257D01*
X221454736Y-88558019D02*
X222073783Y-88558019D01*
X222073783Y-88558019D02*
X221740450Y-88938971D01*
X221740450Y-88938971D02*
X221883307Y-88938971D01*
X221883307Y-88938971D02*
X221978545Y-88986590D01*
X221978545Y-88986590D02*
X222026164Y-89034209D01*
X222026164Y-89034209D02*
X222073783Y-89129447D01*
X222073783Y-89129447D02*
X222073783Y-89367542D01*
X222073783Y-89367542D02*
X222026164Y-89462780D01*
X222026164Y-89462780D02*
X221978545Y-89510400D01*
X221978545Y-89510400D02*
X221883307Y-89558019D01*
X221883307Y-89558019D02*
X221597593Y-89558019D01*
X221597593Y-89558019D02*
X221502355Y-89510400D01*
X221502355Y-89510400D02*
X221454736Y-89462780D01*
X222692831Y-88558019D02*
X222788069Y-88558019D01*
X222788069Y-88558019D02*
X222883307Y-88605638D01*
X222883307Y-88605638D02*
X222930926Y-88653257D01*
X222930926Y-88653257D02*
X222978545Y-88748495D01*
X222978545Y-88748495D02*
X223026164Y-88938971D01*
X223026164Y-88938971D02*
X223026164Y-89177066D01*
X223026164Y-89177066D02*
X222978545Y-89367542D01*
X222978545Y-89367542D02*
X222930926Y-89462780D01*
X222930926Y-89462780D02*
X222883307Y-89510400D01*
X222883307Y-89510400D02*
X222788069Y-89558019D01*
X222788069Y-89558019D02*
X222692831Y-89558019D01*
X222692831Y-89558019D02*
X222597593Y-89510400D01*
X222597593Y-89510400D02*
X222549974Y-89462780D01*
X222549974Y-89462780D02*
X222502355Y-89367542D01*
X222502355Y-89367542D02*
X222454736Y-89177066D01*
X222454736Y-89177066D02*
X222454736Y-88938971D01*
X222454736Y-88938971D02*
X222502355Y-88748495D01*
X222502355Y-88748495D02*
X222549974Y-88653257D01*
X222549974Y-88653257D02*
X222597593Y-88605638D01*
X222597593Y-88605638D02*
X222692831Y-88558019D01*
X223407117Y-88653257D02*
X223454736Y-88605638D01*
X223454736Y-88605638D02*
X223549974Y-88558019D01*
X223549974Y-88558019D02*
X223788069Y-88558019D01*
X223788069Y-88558019D02*
X223883307Y-88605638D01*
X223883307Y-88605638D02*
X223930926Y-88653257D01*
X223930926Y-88653257D02*
X223978545Y-88748495D01*
X223978545Y-88748495D02*
X223978545Y-88843733D01*
X223978545Y-88843733D02*
X223930926Y-88986590D01*
X223930926Y-88986590D02*
X223359498Y-89558019D01*
X223359498Y-89558019D02*
X223978545Y-89558019D01*
X212855364Y-127267619D02*
X212855364Y-128077142D01*
X212855364Y-128077142D02*
X212902983Y-128172380D01*
X212902983Y-128172380D02*
X212950602Y-128220000D01*
X212950602Y-128220000D02*
X213045840Y-128267619D01*
X213045840Y-128267619D02*
X213236316Y-128267619D01*
X213236316Y-128267619D02*
X213331554Y-128220000D01*
X213331554Y-128220000D02*
X213379173Y-128172380D01*
X213379173Y-128172380D02*
X213426792Y-128077142D01*
X213426792Y-128077142D02*
X213426792Y-127267619D01*
X213855364Y-127362857D02*
X213902983Y-127315238D01*
X213902983Y-127315238D02*
X213998221Y-127267619D01*
X213998221Y-127267619D02*
X214236316Y-127267619D01*
X214236316Y-127267619D02*
X214331554Y-127315238D01*
X214331554Y-127315238D02*
X214379173Y-127362857D01*
X214379173Y-127362857D02*
X214426792Y-127458095D01*
X214426792Y-127458095D02*
X214426792Y-127553333D01*
X214426792Y-127553333D02*
X214379173Y-127696190D01*
X214379173Y-127696190D02*
X213807745Y-128267619D01*
X213807745Y-128267619D02*
X214426792Y-128267619D01*
X215045840Y-127267619D02*
X215141078Y-127267619D01*
X215141078Y-127267619D02*
X215236316Y-127315238D01*
X215236316Y-127315238D02*
X215283935Y-127362857D01*
X215283935Y-127362857D02*
X215331554Y-127458095D01*
X215331554Y-127458095D02*
X215379173Y-127648571D01*
X215379173Y-127648571D02*
X215379173Y-127886666D01*
X215379173Y-127886666D02*
X215331554Y-128077142D01*
X215331554Y-128077142D02*
X215283935Y-128172380D01*
X215283935Y-128172380D02*
X215236316Y-128220000D01*
X215236316Y-128220000D02*
X215141078Y-128267619D01*
X215141078Y-128267619D02*
X215045840Y-128267619D01*
X215045840Y-128267619D02*
X214950602Y-128220000D01*
X214950602Y-128220000D02*
X214902983Y-128172380D01*
X214902983Y-128172380D02*
X214855364Y-128077142D01*
X214855364Y-128077142D02*
X214807745Y-127886666D01*
X214807745Y-127886666D02*
X214807745Y-127648571D01*
X214807745Y-127648571D02*
X214855364Y-127458095D01*
X214855364Y-127458095D02*
X214902983Y-127362857D01*
X214902983Y-127362857D02*
X214950602Y-127315238D01*
X214950602Y-127315238D02*
X215045840Y-127267619D01*
X215760126Y-127362857D02*
X215807745Y-127315238D01*
X215807745Y-127315238D02*
X215902983Y-127267619D01*
X215902983Y-127267619D02*
X216141078Y-127267619D01*
X216141078Y-127267619D02*
X216236316Y-127315238D01*
X216236316Y-127315238D02*
X216283935Y-127362857D01*
X216283935Y-127362857D02*
X216331554Y-127458095D01*
X216331554Y-127458095D02*
X216331554Y-127553333D01*
X216331554Y-127553333D02*
X216283935Y-127696190D01*
X216283935Y-127696190D02*
X215712507Y-128267619D01*
X215712507Y-128267619D02*
X216331554Y-128267619D01*
X209299364Y-115837619D02*
X209299364Y-116647142D01*
X209299364Y-116647142D02*
X209346983Y-116742380D01*
X209346983Y-116742380D02*
X209394602Y-116790000D01*
X209394602Y-116790000D02*
X209489840Y-116837619D01*
X209489840Y-116837619D02*
X209680316Y-116837619D01*
X209680316Y-116837619D02*
X209775554Y-116790000D01*
X209775554Y-116790000D02*
X209823173Y-116742380D01*
X209823173Y-116742380D02*
X209870792Y-116647142D01*
X209870792Y-116647142D02*
X209870792Y-115837619D01*
X210299364Y-115932857D02*
X210346983Y-115885238D01*
X210346983Y-115885238D02*
X210442221Y-115837619D01*
X210442221Y-115837619D02*
X210680316Y-115837619D01*
X210680316Y-115837619D02*
X210775554Y-115885238D01*
X210775554Y-115885238D02*
X210823173Y-115932857D01*
X210823173Y-115932857D02*
X210870792Y-116028095D01*
X210870792Y-116028095D02*
X210870792Y-116123333D01*
X210870792Y-116123333D02*
X210823173Y-116266190D01*
X210823173Y-116266190D02*
X210251745Y-116837619D01*
X210251745Y-116837619D02*
X210870792Y-116837619D01*
X211489840Y-115837619D02*
X211585078Y-115837619D01*
X211585078Y-115837619D02*
X211680316Y-115885238D01*
X211680316Y-115885238D02*
X211727935Y-115932857D01*
X211727935Y-115932857D02*
X211775554Y-116028095D01*
X211775554Y-116028095D02*
X211823173Y-116218571D01*
X211823173Y-116218571D02*
X211823173Y-116456666D01*
X211823173Y-116456666D02*
X211775554Y-116647142D01*
X211775554Y-116647142D02*
X211727935Y-116742380D01*
X211727935Y-116742380D02*
X211680316Y-116790000D01*
X211680316Y-116790000D02*
X211585078Y-116837619D01*
X211585078Y-116837619D02*
X211489840Y-116837619D01*
X211489840Y-116837619D02*
X211394602Y-116790000D01*
X211394602Y-116790000D02*
X211346983Y-116742380D01*
X211346983Y-116742380D02*
X211299364Y-116647142D01*
X211299364Y-116647142D02*
X211251745Y-116456666D01*
X211251745Y-116456666D02*
X211251745Y-116218571D01*
X211251745Y-116218571D02*
X211299364Y-116028095D01*
X211299364Y-116028095D02*
X211346983Y-115932857D01*
X211346983Y-115932857D02*
X211394602Y-115885238D01*
X211394602Y-115885238D02*
X211489840Y-115837619D01*
X212775554Y-116837619D02*
X212204126Y-116837619D01*
X212489840Y-116837619D02*
X212489840Y-115837619D01*
X212489840Y-115837619D02*
X212394602Y-115980476D01*
X212394602Y-115980476D02*
X212299364Y-116075714D01*
X212299364Y-116075714D02*
X212204126Y-116123333D01*
X195851200Y-129793713D02*
X195898819Y-129650856D01*
X195898819Y-129650856D02*
X195898819Y-129412761D01*
X195898819Y-129412761D02*
X195851200Y-129317523D01*
X195851200Y-129317523D02*
X195803580Y-129269904D01*
X195803580Y-129269904D02*
X195708342Y-129222285D01*
X195708342Y-129222285D02*
X195613104Y-129222285D01*
X195613104Y-129222285D02*
X195517866Y-129269904D01*
X195517866Y-129269904D02*
X195470247Y-129317523D01*
X195470247Y-129317523D02*
X195422628Y-129412761D01*
X195422628Y-129412761D02*
X195375009Y-129603237D01*
X195375009Y-129603237D02*
X195327390Y-129698475D01*
X195327390Y-129698475D02*
X195279771Y-129746094D01*
X195279771Y-129746094D02*
X195184533Y-129793713D01*
X195184533Y-129793713D02*
X195089295Y-129793713D01*
X195089295Y-129793713D02*
X194994057Y-129746094D01*
X194994057Y-129746094D02*
X194946438Y-129698475D01*
X194946438Y-129698475D02*
X194898819Y-129603237D01*
X194898819Y-129603237D02*
X194898819Y-129365142D01*
X194898819Y-129365142D02*
X194946438Y-129222285D01*
X194898819Y-128888951D02*
X195898819Y-128650856D01*
X195898819Y-128650856D02*
X195184533Y-128460380D01*
X195184533Y-128460380D02*
X195898819Y-128269904D01*
X195898819Y-128269904D02*
X194898819Y-128031809D01*
X194994057Y-127698475D02*
X194946438Y-127650856D01*
X194946438Y-127650856D02*
X194898819Y-127555618D01*
X194898819Y-127555618D02*
X194898819Y-127317523D01*
X194898819Y-127317523D02*
X194946438Y-127222285D01*
X194946438Y-127222285D02*
X194994057Y-127174666D01*
X194994057Y-127174666D02*
X195089295Y-127127047D01*
X195089295Y-127127047D02*
X195184533Y-127127047D01*
X195184533Y-127127047D02*
X195327390Y-127174666D01*
X195327390Y-127174666D02*
X195898819Y-127746094D01*
X195898819Y-127746094D02*
X195898819Y-127127047D01*
X194898819Y-126507999D02*
X194898819Y-126412761D01*
X194898819Y-126412761D02*
X194946438Y-126317523D01*
X194946438Y-126317523D02*
X194994057Y-126269904D01*
X194994057Y-126269904D02*
X195089295Y-126222285D01*
X195089295Y-126222285D02*
X195279771Y-126174666D01*
X195279771Y-126174666D02*
X195517866Y-126174666D01*
X195517866Y-126174666D02*
X195708342Y-126222285D01*
X195708342Y-126222285D02*
X195803580Y-126269904D01*
X195803580Y-126269904D02*
X195851200Y-126317523D01*
X195851200Y-126317523D02*
X195898819Y-126412761D01*
X195898819Y-126412761D02*
X195898819Y-126507999D01*
X195898819Y-126507999D02*
X195851200Y-126603237D01*
X195851200Y-126603237D02*
X195803580Y-126650856D01*
X195803580Y-126650856D02*
X195708342Y-126698475D01*
X195708342Y-126698475D02*
X195517866Y-126746094D01*
X195517866Y-126746094D02*
X195279771Y-126746094D01*
X195279771Y-126746094D02*
X195089295Y-126698475D01*
X195089295Y-126698475D02*
X194994057Y-126650856D01*
X194994057Y-126650856D02*
X194946438Y-126603237D01*
X194946438Y-126603237D02*
X194898819Y-126507999D01*
X195898819Y-125222285D02*
X195898819Y-125793713D01*
X195898819Y-125507999D02*
X194898819Y-125507999D01*
X194898819Y-125507999D02*
X195041676Y-125603237D01*
X195041676Y-125603237D02*
X195136914Y-125698475D01*
X195136914Y-125698475D02*
X195184533Y-125793713D01*
X206846602Y-126235619D02*
X206513269Y-125759428D01*
X206275174Y-126235619D02*
X206275174Y-125235619D01*
X206275174Y-125235619D02*
X206656126Y-125235619D01*
X206656126Y-125235619D02*
X206751364Y-125283238D01*
X206751364Y-125283238D02*
X206798983Y-125330857D01*
X206798983Y-125330857D02*
X206846602Y-125426095D01*
X206846602Y-125426095D02*
X206846602Y-125568952D01*
X206846602Y-125568952D02*
X206798983Y-125664190D01*
X206798983Y-125664190D02*
X206751364Y-125711809D01*
X206751364Y-125711809D02*
X206656126Y-125759428D01*
X206656126Y-125759428D02*
X206275174Y-125759428D01*
X207227555Y-125330857D02*
X207275174Y-125283238D01*
X207275174Y-125283238D02*
X207370412Y-125235619D01*
X207370412Y-125235619D02*
X207608507Y-125235619D01*
X207608507Y-125235619D02*
X207703745Y-125283238D01*
X207703745Y-125283238D02*
X207751364Y-125330857D01*
X207751364Y-125330857D02*
X207798983Y-125426095D01*
X207798983Y-125426095D02*
X207798983Y-125521333D01*
X207798983Y-125521333D02*
X207751364Y-125664190D01*
X207751364Y-125664190D02*
X207179936Y-126235619D01*
X207179936Y-126235619D02*
X207798983Y-126235619D01*
X208418031Y-125235619D02*
X208513269Y-125235619D01*
X208513269Y-125235619D02*
X208608507Y-125283238D01*
X208608507Y-125283238D02*
X208656126Y-125330857D01*
X208656126Y-125330857D02*
X208703745Y-125426095D01*
X208703745Y-125426095D02*
X208751364Y-125616571D01*
X208751364Y-125616571D02*
X208751364Y-125854666D01*
X208751364Y-125854666D02*
X208703745Y-126045142D01*
X208703745Y-126045142D02*
X208656126Y-126140380D01*
X208656126Y-126140380D02*
X208608507Y-126188000D01*
X208608507Y-126188000D02*
X208513269Y-126235619D01*
X208513269Y-126235619D02*
X208418031Y-126235619D01*
X208418031Y-126235619D02*
X208322793Y-126188000D01*
X208322793Y-126188000D02*
X208275174Y-126140380D01*
X208275174Y-126140380D02*
X208227555Y-126045142D01*
X208227555Y-126045142D02*
X208179936Y-125854666D01*
X208179936Y-125854666D02*
X208179936Y-125616571D01*
X208179936Y-125616571D02*
X208227555Y-125426095D01*
X208227555Y-125426095D02*
X208275174Y-125330857D01*
X208275174Y-125330857D02*
X208322793Y-125283238D01*
X208322793Y-125283238D02*
X208418031Y-125235619D01*
X209322793Y-125664190D02*
X209227555Y-125616571D01*
X209227555Y-125616571D02*
X209179936Y-125568952D01*
X209179936Y-125568952D02*
X209132317Y-125473714D01*
X209132317Y-125473714D02*
X209132317Y-125426095D01*
X209132317Y-125426095D02*
X209179936Y-125330857D01*
X209179936Y-125330857D02*
X209227555Y-125283238D01*
X209227555Y-125283238D02*
X209322793Y-125235619D01*
X209322793Y-125235619D02*
X209513269Y-125235619D01*
X209513269Y-125235619D02*
X209608507Y-125283238D01*
X209608507Y-125283238D02*
X209656126Y-125330857D01*
X209656126Y-125330857D02*
X209703745Y-125426095D01*
X209703745Y-125426095D02*
X209703745Y-125473714D01*
X209703745Y-125473714D02*
X209656126Y-125568952D01*
X209656126Y-125568952D02*
X209608507Y-125616571D01*
X209608507Y-125616571D02*
X209513269Y-125664190D01*
X209513269Y-125664190D02*
X209322793Y-125664190D01*
X209322793Y-125664190D02*
X209227555Y-125711809D01*
X209227555Y-125711809D02*
X209179936Y-125759428D01*
X209179936Y-125759428D02*
X209132317Y-125854666D01*
X209132317Y-125854666D02*
X209132317Y-126045142D01*
X209132317Y-126045142D02*
X209179936Y-126140380D01*
X209179936Y-126140380D02*
X209227555Y-126188000D01*
X209227555Y-126188000D02*
X209322793Y-126235619D01*
X209322793Y-126235619D02*
X209513269Y-126235619D01*
X209513269Y-126235619D02*
X209608507Y-126188000D01*
X209608507Y-126188000D02*
X209656126Y-126140380D01*
X209656126Y-126140380D02*
X209703745Y-126045142D01*
X209703745Y-126045142D02*
X209703745Y-125854666D01*
X209703745Y-125854666D02*
X209656126Y-125759428D01*
X209656126Y-125759428D02*
X209608507Y-125711809D01*
X209608507Y-125711809D02*
X209513269Y-125664190D01*
X217514602Y-128775619D02*
X217181269Y-128299428D01*
X216943174Y-128775619D02*
X216943174Y-127775619D01*
X216943174Y-127775619D02*
X217324126Y-127775619D01*
X217324126Y-127775619D02*
X217419364Y-127823238D01*
X217419364Y-127823238D02*
X217466983Y-127870857D01*
X217466983Y-127870857D02*
X217514602Y-127966095D01*
X217514602Y-127966095D02*
X217514602Y-128108952D01*
X217514602Y-128108952D02*
X217466983Y-128204190D01*
X217466983Y-128204190D02*
X217419364Y-128251809D01*
X217419364Y-128251809D02*
X217324126Y-128299428D01*
X217324126Y-128299428D02*
X216943174Y-128299428D01*
X217895555Y-127870857D02*
X217943174Y-127823238D01*
X217943174Y-127823238D02*
X218038412Y-127775619D01*
X218038412Y-127775619D02*
X218276507Y-127775619D01*
X218276507Y-127775619D02*
X218371745Y-127823238D01*
X218371745Y-127823238D02*
X218419364Y-127870857D01*
X218419364Y-127870857D02*
X218466983Y-127966095D01*
X218466983Y-127966095D02*
X218466983Y-128061333D01*
X218466983Y-128061333D02*
X218419364Y-128204190D01*
X218419364Y-128204190D02*
X217847936Y-128775619D01*
X217847936Y-128775619D02*
X218466983Y-128775619D01*
X219086031Y-127775619D02*
X219181269Y-127775619D01*
X219181269Y-127775619D02*
X219276507Y-127823238D01*
X219276507Y-127823238D02*
X219324126Y-127870857D01*
X219324126Y-127870857D02*
X219371745Y-127966095D01*
X219371745Y-127966095D02*
X219419364Y-128156571D01*
X219419364Y-128156571D02*
X219419364Y-128394666D01*
X219419364Y-128394666D02*
X219371745Y-128585142D01*
X219371745Y-128585142D02*
X219324126Y-128680380D01*
X219324126Y-128680380D02*
X219276507Y-128728000D01*
X219276507Y-128728000D02*
X219181269Y-128775619D01*
X219181269Y-128775619D02*
X219086031Y-128775619D01*
X219086031Y-128775619D02*
X218990793Y-128728000D01*
X218990793Y-128728000D02*
X218943174Y-128680380D01*
X218943174Y-128680380D02*
X218895555Y-128585142D01*
X218895555Y-128585142D02*
X218847936Y-128394666D01*
X218847936Y-128394666D02*
X218847936Y-128156571D01*
X218847936Y-128156571D02*
X218895555Y-127966095D01*
X218895555Y-127966095D02*
X218943174Y-127870857D01*
X218943174Y-127870857D02*
X218990793Y-127823238D01*
X218990793Y-127823238D02*
X219086031Y-127775619D01*
X219752698Y-127775619D02*
X220419364Y-127775619D01*
X220419364Y-127775619D02*
X219990793Y-128775619D01*
X220104469Y-126645847D02*
X219628278Y-126979180D01*
X220104469Y-127217275D02*
X219104469Y-127217275D01*
X219104469Y-127217275D02*
X219104469Y-126836323D01*
X219104469Y-126836323D02*
X219152088Y-126741085D01*
X219152088Y-126741085D02*
X219199707Y-126693466D01*
X219199707Y-126693466D02*
X219294945Y-126645847D01*
X219294945Y-126645847D02*
X219437802Y-126645847D01*
X219437802Y-126645847D02*
X219533040Y-126693466D01*
X219533040Y-126693466D02*
X219580659Y-126741085D01*
X219580659Y-126741085D02*
X219628278Y-126836323D01*
X219628278Y-126836323D02*
X219628278Y-127217275D01*
X219199707Y-126264894D02*
X219152088Y-126217275D01*
X219152088Y-126217275D02*
X219104469Y-126122037D01*
X219104469Y-126122037D02*
X219104469Y-125883942D01*
X219104469Y-125883942D02*
X219152088Y-125788704D01*
X219152088Y-125788704D02*
X219199707Y-125741085D01*
X219199707Y-125741085D02*
X219294945Y-125693466D01*
X219294945Y-125693466D02*
X219390183Y-125693466D01*
X219390183Y-125693466D02*
X219533040Y-125741085D01*
X219533040Y-125741085D02*
X220104469Y-126312513D01*
X220104469Y-126312513D02*
X220104469Y-125693466D01*
X219104469Y-125074418D02*
X219104469Y-124979180D01*
X219104469Y-124979180D02*
X219152088Y-124883942D01*
X219152088Y-124883942D02*
X219199707Y-124836323D01*
X219199707Y-124836323D02*
X219294945Y-124788704D01*
X219294945Y-124788704D02*
X219485421Y-124741085D01*
X219485421Y-124741085D02*
X219723516Y-124741085D01*
X219723516Y-124741085D02*
X219913992Y-124788704D01*
X219913992Y-124788704D02*
X220009230Y-124836323D01*
X220009230Y-124836323D02*
X220056850Y-124883942D01*
X220056850Y-124883942D02*
X220104469Y-124979180D01*
X220104469Y-124979180D02*
X220104469Y-125074418D01*
X220104469Y-125074418D02*
X220056850Y-125169656D01*
X220056850Y-125169656D02*
X220009230Y-125217275D01*
X220009230Y-125217275D02*
X219913992Y-125264894D01*
X219913992Y-125264894D02*
X219723516Y-125312513D01*
X219723516Y-125312513D02*
X219485421Y-125312513D01*
X219485421Y-125312513D02*
X219294945Y-125264894D01*
X219294945Y-125264894D02*
X219199707Y-125217275D01*
X219199707Y-125217275D02*
X219152088Y-125169656D01*
X219152088Y-125169656D02*
X219104469Y-125074418D01*
X219104469Y-123883942D02*
X219104469Y-124074418D01*
X219104469Y-124074418D02*
X219152088Y-124169656D01*
X219152088Y-124169656D02*
X219199707Y-124217275D01*
X219199707Y-124217275D02*
X219342564Y-124312513D01*
X219342564Y-124312513D02*
X219533040Y-124360132D01*
X219533040Y-124360132D02*
X219913992Y-124360132D01*
X219913992Y-124360132D02*
X220009230Y-124312513D01*
X220009230Y-124312513D02*
X220056850Y-124264894D01*
X220056850Y-124264894D02*
X220104469Y-124169656D01*
X220104469Y-124169656D02*
X220104469Y-123979180D01*
X220104469Y-123979180D02*
X220056850Y-123883942D01*
X220056850Y-123883942D02*
X220009230Y-123836323D01*
X220009230Y-123836323D02*
X219913992Y-123788704D01*
X219913992Y-123788704D02*
X219675897Y-123788704D01*
X219675897Y-123788704D02*
X219580659Y-123836323D01*
X219580659Y-123836323D02*
X219533040Y-123883942D01*
X219533040Y-123883942D02*
X219485421Y-123979180D01*
X219485421Y-123979180D02*
X219485421Y-124169656D01*
X219485421Y-124169656D02*
X219533040Y-124264894D01*
X219533040Y-124264894D02*
X219580659Y-124312513D01*
X219580659Y-124312513D02*
X219675897Y-124360132D01*
X206084602Y-123441619D02*
X205751269Y-122965428D01*
X205513174Y-123441619D02*
X205513174Y-122441619D01*
X205513174Y-122441619D02*
X205894126Y-122441619D01*
X205894126Y-122441619D02*
X205989364Y-122489238D01*
X205989364Y-122489238D02*
X206036983Y-122536857D01*
X206036983Y-122536857D02*
X206084602Y-122632095D01*
X206084602Y-122632095D02*
X206084602Y-122774952D01*
X206084602Y-122774952D02*
X206036983Y-122870190D01*
X206036983Y-122870190D02*
X205989364Y-122917809D01*
X205989364Y-122917809D02*
X205894126Y-122965428D01*
X205894126Y-122965428D02*
X205513174Y-122965428D01*
X206465555Y-122536857D02*
X206513174Y-122489238D01*
X206513174Y-122489238D02*
X206608412Y-122441619D01*
X206608412Y-122441619D02*
X206846507Y-122441619D01*
X206846507Y-122441619D02*
X206941745Y-122489238D01*
X206941745Y-122489238D02*
X206989364Y-122536857D01*
X206989364Y-122536857D02*
X207036983Y-122632095D01*
X207036983Y-122632095D02*
X207036983Y-122727333D01*
X207036983Y-122727333D02*
X206989364Y-122870190D01*
X206989364Y-122870190D02*
X206417936Y-123441619D01*
X206417936Y-123441619D02*
X207036983Y-123441619D01*
X207656031Y-122441619D02*
X207751269Y-122441619D01*
X207751269Y-122441619D02*
X207846507Y-122489238D01*
X207846507Y-122489238D02*
X207894126Y-122536857D01*
X207894126Y-122536857D02*
X207941745Y-122632095D01*
X207941745Y-122632095D02*
X207989364Y-122822571D01*
X207989364Y-122822571D02*
X207989364Y-123060666D01*
X207989364Y-123060666D02*
X207941745Y-123251142D01*
X207941745Y-123251142D02*
X207894126Y-123346380D01*
X207894126Y-123346380D02*
X207846507Y-123394000D01*
X207846507Y-123394000D02*
X207751269Y-123441619D01*
X207751269Y-123441619D02*
X207656031Y-123441619D01*
X207656031Y-123441619D02*
X207560793Y-123394000D01*
X207560793Y-123394000D02*
X207513174Y-123346380D01*
X207513174Y-123346380D02*
X207465555Y-123251142D01*
X207465555Y-123251142D02*
X207417936Y-123060666D01*
X207417936Y-123060666D02*
X207417936Y-122822571D01*
X207417936Y-122822571D02*
X207465555Y-122632095D01*
X207465555Y-122632095D02*
X207513174Y-122536857D01*
X207513174Y-122536857D02*
X207560793Y-122489238D01*
X207560793Y-122489238D02*
X207656031Y-122441619D01*
X208894126Y-122441619D02*
X208417936Y-122441619D01*
X208417936Y-122441619D02*
X208370317Y-122917809D01*
X208370317Y-122917809D02*
X208417936Y-122870190D01*
X208417936Y-122870190D02*
X208513174Y-122822571D01*
X208513174Y-122822571D02*
X208751269Y-122822571D01*
X208751269Y-122822571D02*
X208846507Y-122870190D01*
X208846507Y-122870190D02*
X208894126Y-122917809D01*
X208894126Y-122917809D02*
X208941745Y-123013047D01*
X208941745Y-123013047D02*
X208941745Y-123251142D01*
X208941745Y-123251142D02*
X208894126Y-123346380D01*
X208894126Y-123346380D02*
X208846507Y-123394000D01*
X208846507Y-123394000D02*
X208751269Y-123441619D01*
X208751269Y-123441619D02*
X208513174Y-123441619D01*
X208513174Y-123441619D02*
X208417936Y-123394000D01*
X208417936Y-123394000D02*
X208370317Y-123346380D01*
X205702669Y-119813247D02*
X205226478Y-120146580D01*
X205702669Y-120384675D02*
X204702669Y-120384675D01*
X204702669Y-120384675D02*
X204702669Y-120003723D01*
X204702669Y-120003723D02*
X204750288Y-119908485D01*
X204750288Y-119908485D02*
X204797907Y-119860866D01*
X204797907Y-119860866D02*
X204893145Y-119813247D01*
X204893145Y-119813247D02*
X205036002Y-119813247D01*
X205036002Y-119813247D02*
X205131240Y-119860866D01*
X205131240Y-119860866D02*
X205178859Y-119908485D01*
X205178859Y-119908485D02*
X205226478Y-120003723D01*
X205226478Y-120003723D02*
X205226478Y-120384675D01*
X204797907Y-119432294D02*
X204750288Y-119384675D01*
X204750288Y-119384675D02*
X204702669Y-119289437D01*
X204702669Y-119289437D02*
X204702669Y-119051342D01*
X204702669Y-119051342D02*
X204750288Y-118956104D01*
X204750288Y-118956104D02*
X204797907Y-118908485D01*
X204797907Y-118908485D02*
X204893145Y-118860866D01*
X204893145Y-118860866D02*
X204988383Y-118860866D01*
X204988383Y-118860866D02*
X205131240Y-118908485D01*
X205131240Y-118908485D02*
X205702669Y-119479913D01*
X205702669Y-119479913D02*
X205702669Y-118860866D01*
X204702669Y-118241818D02*
X204702669Y-118146580D01*
X204702669Y-118146580D02*
X204750288Y-118051342D01*
X204750288Y-118051342D02*
X204797907Y-118003723D01*
X204797907Y-118003723D02*
X204893145Y-117956104D01*
X204893145Y-117956104D02*
X205083621Y-117908485D01*
X205083621Y-117908485D02*
X205321716Y-117908485D01*
X205321716Y-117908485D02*
X205512192Y-117956104D01*
X205512192Y-117956104D02*
X205607430Y-118003723D01*
X205607430Y-118003723D02*
X205655050Y-118051342D01*
X205655050Y-118051342D02*
X205702669Y-118146580D01*
X205702669Y-118146580D02*
X205702669Y-118241818D01*
X205702669Y-118241818D02*
X205655050Y-118337056D01*
X205655050Y-118337056D02*
X205607430Y-118384675D01*
X205607430Y-118384675D02*
X205512192Y-118432294D01*
X205512192Y-118432294D02*
X205321716Y-118479913D01*
X205321716Y-118479913D02*
X205083621Y-118479913D01*
X205083621Y-118479913D02*
X204893145Y-118432294D01*
X204893145Y-118432294D02*
X204797907Y-118384675D01*
X204797907Y-118384675D02*
X204750288Y-118337056D01*
X204750288Y-118337056D02*
X204702669Y-118241818D01*
X205036002Y-117051342D02*
X205702669Y-117051342D01*
X204655050Y-117289437D02*
X205369335Y-117527532D01*
X205369335Y-117527532D02*
X205369335Y-116908485D01*
X204432669Y-119813247D02*
X203956478Y-120146580D01*
X204432669Y-120384675D02*
X203432669Y-120384675D01*
X203432669Y-120384675D02*
X203432669Y-120003723D01*
X203432669Y-120003723D02*
X203480288Y-119908485D01*
X203480288Y-119908485D02*
X203527907Y-119860866D01*
X203527907Y-119860866D02*
X203623145Y-119813247D01*
X203623145Y-119813247D02*
X203766002Y-119813247D01*
X203766002Y-119813247D02*
X203861240Y-119860866D01*
X203861240Y-119860866D02*
X203908859Y-119908485D01*
X203908859Y-119908485D02*
X203956478Y-120003723D01*
X203956478Y-120003723D02*
X203956478Y-120384675D01*
X203527907Y-119432294D02*
X203480288Y-119384675D01*
X203480288Y-119384675D02*
X203432669Y-119289437D01*
X203432669Y-119289437D02*
X203432669Y-119051342D01*
X203432669Y-119051342D02*
X203480288Y-118956104D01*
X203480288Y-118956104D02*
X203527907Y-118908485D01*
X203527907Y-118908485D02*
X203623145Y-118860866D01*
X203623145Y-118860866D02*
X203718383Y-118860866D01*
X203718383Y-118860866D02*
X203861240Y-118908485D01*
X203861240Y-118908485D02*
X204432669Y-119479913D01*
X204432669Y-119479913D02*
X204432669Y-118860866D01*
X203432669Y-118241818D02*
X203432669Y-118146580D01*
X203432669Y-118146580D02*
X203480288Y-118051342D01*
X203480288Y-118051342D02*
X203527907Y-118003723D01*
X203527907Y-118003723D02*
X203623145Y-117956104D01*
X203623145Y-117956104D02*
X203813621Y-117908485D01*
X203813621Y-117908485D02*
X204051716Y-117908485D01*
X204051716Y-117908485D02*
X204242192Y-117956104D01*
X204242192Y-117956104D02*
X204337430Y-118003723D01*
X204337430Y-118003723D02*
X204385050Y-118051342D01*
X204385050Y-118051342D02*
X204432669Y-118146580D01*
X204432669Y-118146580D02*
X204432669Y-118241818D01*
X204432669Y-118241818D02*
X204385050Y-118337056D01*
X204385050Y-118337056D02*
X204337430Y-118384675D01*
X204337430Y-118384675D02*
X204242192Y-118432294D01*
X204242192Y-118432294D02*
X204051716Y-118479913D01*
X204051716Y-118479913D02*
X203813621Y-118479913D01*
X203813621Y-118479913D02*
X203623145Y-118432294D01*
X203623145Y-118432294D02*
X203527907Y-118384675D01*
X203527907Y-118384675D02*
X203480288Y-118337056D01*
X203480288Y-118337056D02*
X203432669Y-118241818D01*
X203432669Y-117575151D02*
X203432669Y-116956104D01*
X203432669Y-116956104D02*
X203813621Y-117289437D01*
X203813621Y-117289437D02*
X203813621Y-117146580D01*
X203813621Y-117146580D02*
X203861240Y-117051342D01*
X203861240Y-117051342D02*
X203908859Y-117003723D01*
X203908859Y-117003723D02*
X204004097Y-116956104D01*
X204004097Y-116956104D02*
X204242192Y-116956104D01*
X204242192Y-116956104D02*
X204337430Y-117003723D01*
X204337430Y-117003723D02*
X204385050Y-117051342D01*
X204385050Y-117051342D02*
X204432669Y-117146580D01*
X204432669Y-117146580D02*
X204432669Y-117432294D01*
X204432669Y-117432294D02*
X204385050Y-117527532D01*
X204385050Y-117527532D02*
X204337430Y-117575151D01*
X216752602Y-116837619D02*
X216419269Y-116361428D01*
X216181174Y-116837619D02*
X216181174Y-115837619D01*
X216181174Y-115837619D02*
X216562126Y-115837619D01*
X216562126Y-115837619D02*
X216657364Y-115885238D01*
X216657364Y-115885238D02*
X216704983Y-115932857D01*
X216704983Y-115932857D02*
X216752602Y-116028095D01*
X216752602Y-116028095D02*
X216752602Y-116170952D01*
X216752602Y-116170952D02*
X216704983Y-116266190D01*
X216704983Y-116266190D02*
X216657364Y-116313809D01*
X216657364Y-116313809D02*
X216562126Y-116361428D01*
X216562126Y-116361428D02*
X216181174Y-116361428D01*
X217133555Y-115932857D02*
X217181174Y-115885238D01*
X217181174Y-115885238D02*
X217276412Y-115837619D01*
X217276412Y-115837619D02*
X217514507Y-115837619D01*
X217514507Y-115837619D02*
X217609745Y-115885238D01*
X217609745Y-115885238D02*
X217657364Y-115932857D01*
X217657364Y-115932857D02*
X217704983Y-116028095D01*
X217704983Y-116028095D02*
X217704983Y-116123333D01*
X217704983Y-116123333D02*
X217657364Y-116266190D01*
X217657364Y-116266190D02*
X217085936Y-116837619D01*
X217085936Y-116837619D02*
X217704983Y-116837619D01*
X218324031Y-115837619D02*
X218419269Y-115837619D01*
X218419269Y-115837619D02*
X218514507Y-115885238D01*
X218514507Y-115885238D02*
X218562126Y-115932857D01*
X218562126Y-115932857D02*
X218609745Y-116028095D01*
X218609745Y-116028095D02*
X218657364Y-116218571D01*
X218657364Y-116218571D02*
X218657364Y-116456666D01*
X218657364Y-116456666D02*
X218609745Y-116647142D01*
X218609745Y-116647142D02*
X218562126Y-116742380D01*
X218562126Y-116742380D02*
X218514507Y-116790000D01*
X218514507Y-116790000D02*
X218419269Y-116837619D01*
X218419269Y-116837619D02*
X218324031Y-116837619D01*
X218324031Y-116837619D02*
X218228793Y-116790000D01*
X218228793Y-116790000D02*
X218181174Y-116742380D01*
X218181174Y-116742380D02*
X218133555Y-116647142D01*
X218133555Y-116647142D02*
X218085936Y-116456666D01*
X218085936Y-116456666D02*
X218085936Y-116218571D01*
X218085936Y-116218571D02*
X218133555Y-116028095D01*
X218133555Y-116028095D02*
X218181174Y-115932857D01*
X218181174Y-115932857D02*
X218228793Y-115885238D01*
X218228793Y-115885238D02*
X218324031Y-115837619D01*
X219038317Y-115932857D02*
X219085936Y-115885238D01*
X219085936Y-115885238D02*
X219181174Y-115837619D01*
X219181174Y-115837619D02*
X219419269Y-115837619D01*
X219419269Y-115837619D02*
X219514507Y-115885238D01*
X219514507Y-115885238D02*
X219562126Y-115932857D01*
X219562126Y-115932857D02*
X219609745Y-116028095D01*
X219609745Y-116028095D02*
X219609745Y-116123333D01*
X219609745Y-116123333D02*
X219562126Y-116266190D01*
X219562126Y-116266190D02*
X218990698Y-116837619D01*
X218990698Y-116837619D02*
X219609745Y-116837619D01*
X224118602Y-128013619D02*
X223785269Y-127537428D01*
X223547174Y-128013619D02*
X223547174Y-127013619D01*
X223547174Y-127013619D02*
X223928126Y-127013619D01*
X223928126Y-127013619D02*
X224023364Y-127061238D01*
X224023364Y-127061238D02*
X224070983Y-127108857D01*
X224070983Y-127108857D02*
X224118602Y-127204095D01*
X224118602Y-127204095D02*
X224118602Y-127346952D01*
X224118602Y-127346952D02*
X224070983Y-127442190D01*
X224070983Y-127442190D02*
X224023364Y-127489809D01*
X224023364Y-127489809D02*
X223928126Y-127537428D01*
X223928126Y-127537428D02*
X223547174Y-127537428D01*
X224499555Y-127108857D02*
X224547174Y-127061238D01*
X224547174Y-127061238D02*
X224642412Y-127013619D01*
X224642412Y-127013619D02*
X224880507Y-127013619D01*
X224880507Y-127013619D02*
X224975745Y-127061238D01*
X224975745Y-127061238D02*
X225023364Y-127108857D01*
X225023364Y-127108857D02*
X225070983Y-127204095D01*
X225070983Y-127204095D02*
X225070983Y-127299333D01*
X225070983Y-127299333D02*
X225023364Y-127442190D01*
X225023364Y-127442190D02*
X224451936Y-128013619D01*
X224451936Y-128013619D02*
X225070983Y-128013619D01*
X225690031Y-127013619D02*
X225785269Y-127013619D01*
X225785269Y-127013619D02*
X225880507Y-127061238D01*
X225880507Y-127061238D02*
X225928126Y-127108857D01*
X225928126Y-127108857D02*
X225975745Y-127204095D01*
X225975745Y-127204095D02*
X226023364Y-127394571D01*
X226023364Y-127394571D02*
X226023364Y-127632666D01*
X226023364Y-127632666D02*
X225975745Y-127823142D01*
X225975745Y-127823142D02*
X225928126Y-127918380D01*
X225928126Y-127918380D02*
X225880507Y-127966000D01*
X225880507Y-127966000D02*
X225785269Y-128013619D01*
X225785269Y-128013619D02*
X225690031Y-128013619D01*
X225690031Y-128013619D02*
X225594793Y-127966000D01*
X225594793Y-127966000D02*
X225547174Y-127918380D01*
X225547174Y-127918380D02*
X225499555Y-127823142D01*
X225499555Y-127823142D02*
X225451936Y-127632666D01*
X225451936Y-127632666D02*
X225451936Y-127394571D01*
X225451936Y-127394571D02*
X225499555Y-127204095D01*
X225499555Y-127204095D02*
X225547174Y-127108857D01*
X225547174Y-127108857D02*
X225594793Y-127061238D01*
X225594793Y-127061238D02*
X225690031Y-127013619D01*
X226975745Y-128013619D02*
X226404317Y-128013619D01*
X226690031Y-128013619D02*
X226690031Y-127013619D01*
X226690031Y-127013619D02*
X226594793Y-127156476D01*
X226594793Y-127156476D02*
X226499555Y-127251714D01*
X226499555Y-127251714D02*
X226404317Y-127299333D01*
X184764819Y-84073547D02*
X184288628Y-84406880D01*
X184764819Y-84644975D02*
X183764819Y-84644975D01*
X183764819Y-84644975D02*
X183764819Y-84264023D01*
X183764819Y-84264023D02*
X183812438Y-84168785D01*
X183812438Y-84168785D02*
X183860057Y-84121166D01*
X183860057Y-84121166D02*
X183955295Y-84073547D01*
X183955295Y-84073547D02*
X184098152Y-84073547D01*
X184098152Y-84073547D02*
X184193390Y-84121166D01*
X184193390Y-84121166D02*
X184241009Y-84168785D01*
X184241009Y-84168785D02*
X184288628Y-84264023D01*
X184288628Y-84264023D02*
X184288628Y-84644975D01*
X184764819Y-83121166D02*
X184764819Y-83692594D01*
X184764819Y-83406880D02*
X183764819Y-83406880D01*
X183764819Y-83406880D02*
X183907676Y-83502118D01*
X183907676Y-83502118D02*
X184002914Y-83597356D01*
X184002914Y-83597356D02*
X184050533Y-83692594D01*
X184764819Y-82168785D02*
X184764819Y-82740213D01*
X184764819Y-82454499D02*
X183764819Y-82454499D01*
X183764819Y-82454499D02*
X183907676Y-82549737D01*
X183907676Y-82549737D02*
X184002914Y-82644975D01*
X184002914Y-82644975D02*
X184050533Y-82740213D01*
X184193390Y-81597356D02*
X184145771Y-81692594D01*
X184145771Y-81692594D02*
X184098152Y-81740213D01*
X184098152Y-81740213D02*
X184002914Y-81787832D01*
X184002914Y-81787832D02*
X183955295Y-81787832D01*
X183955295Y-81787832D02*
X183860057Y-81740213D01*
X183860057Y-81740213D02*
X183812438Y-81692594D01*
X183812438Y-81692594D02*
X183764819Y-81597356D01*
X183764819Y-81597356D02*
X183764819Y-81406880D01*
X183764819Y-81406880D02*
X183812438Y-81311642D01*
X183812438Y-81311642D02*
X183860057Y-81264023D01*
X183860057Y-81264023D02*
X183955295Y-81216404D01*
X183955295Y-81216404D02*
X184002914Y-81216404D01*
X184002914Y-81216404D02*
X184098152Y-81264023D01*
X184098152Y-81264023D02*
X184145771Y-81311642D01*
X184145771Y-81311642D02*
X184193390Y-81406880D01*
X184193390Y-81406880D02*
X184193390Y-81597356D01*
X184193390Y-81597356D02*
X184241009Y-81692594D01*
X184241009Y-81692594D02*
X184288628Y-81740213D01*
X184288628Y-81740213D02*
X184383866Y-81787832D01*
X184383866Y-81787832D02*
X184574342Y-81787832D01*
X184574342Y-81787832D02*
X184669580Y-81740213D01*
X184669580Y-81740213D02*
X184717200Y-81692594D01*
X184717200Y-81692594D02*
X184764819Y-81597356D01*
X184764819Y-81597356D02*
X184764819Y-81406880D01*
X184764819Y-81406880D02*
X184717200Y-81311642D01*
X184717200Y-81311642D02*
X184669580Y-81264023D01*
X184669580Y-81264023D02*
X184574342Y-81216404D01*
X184574342Y-81216404D02*
X184383866Y-81216404D01*
X184383866Y-81216404D02*
X184288628Y-81264023D01*
X184288628Y-81264023D02*
X184241009Y-81311642D01*
X184241009Y-81311642D02*
X184193390Y-81406880D01*
X229616452Y-82656819D02*
X229283119Y-82180628D01*
X229045024Y-82656819D02*
X229045024Y-81656819D01*
X229045024Y-81656819D02*
X229425976Y-81656819D01*
X229425976Y-81656819D02*
X229521214Y-81704438D01*
X229521214Y-81704438D02*
X229568833Y-81752057D01*
X229568833Y-81752057D02*
X229616452Y-81847295D01*
X229616452Y-81847295D02*
X229616452Y-81990152D01*
X229616452Y-81990152D02*
X229568833Y-82085390D01*
X229568833Y-82085390D02*
X229521214Y-82133009D01*
X229521214Y-82133009D02*
X229425976Y-82180628D01*
X229425976Y-82180628D02*
X229045024Y-82180628D01*
X230568833Y-82656819D02*
X229997405Y-82656819D01*
X230283119Y-82656819D02*
X230283119Y-81656819D01*
X230283119Y-81656819D02*
X230187881Y-81799676D01*
X230187881Y-81799676D02*
X230092643Y-81894914D01*
X230092643Y-81894914D02*
X229997405Y-81942533D01*
X231521214Y-82656819D02*
X230949786Y-82656819D01*
X231235500Y-82656819D02*
X231235500Y-81656819D01*
X231235500Y-81656819D02*
X231140262Y-81799676D01*
X231140262Y-81799676D02*
X231045024Y-81894914D01*
X231045024Y-81894914D02*
X230949786Y-81942533D01*
X231854548Y-81656819D02*
X232521214Y-81656819D01*
X232521214Y-81656819D02*
X232092643Y-82656819D01*
X233918285Y-127521619D02*
X233918285Y-128235904D01*
X233918285Y-128235904D02*
X233870666Y-128378761D01*
X233870666Y-128378761D02*
X233775428Y-128474000D01*
X233775428Y-128474000D02*
X233632571Y-128521619D01*
X233632571Y-128521619D02*
X233537333Y-128521619D01*
X234346857Y-127616857D02*
X234394476Y-127569238D01*
X234394476Y-127569238D02*
X234489714Y-127521619D01*
X234489714Y-127521619D02*
X234727809Y-127521619D01*
X234727809Y-127521619D02*
X234823047Y-127569238D01*
X234823047Y-127569238D02*
X234870666Y-127616857D01*
X234870666Y-127616857D02*
X234918285Y-127712095D01*
X234918285Y-127712095D02*
X234918285Y-127807333D01*
X234918285Y-127807333D02*
X234870666Y-127950190D01*
X234870666Y-127950190D02*
X234299238Y-128521619D01*
X234299238Y-128521619D02*
X234918285Y-128521619D01*
X235537333Y-127521619D02*
X235632571Y-127521619D01*
X235632571Y-127521619D02*
X235727809Y-127569238D01*
X235727809Y-127569238D02*
X235775428Y-127616857D01*
X235775428Y-127616857D02*
X235823047Y-127712095D01*
X235823047Y-127712095D02*
X235870666Y-127902571D01*
X235870666Y-127902571D02*
X235870666Y-128140666D01*
X235870666Y-128140666D02*
X235823047Y-128331142D01*
X235823047Y-128331142D02*
X235775428Y-128426380D01*
X235775428Y-128426380D02*
X235727809Y-128474000D01*
X235727809Y-128474000D02*
X235632571Y-128521619D01*
X235632571Y-128521619D02*
X235537333Y-128521619D01*
X235537333Y-128521619D02*
X235442095Y-128474000D01*
X235442095Y-128474000D02*
X235394476Y-128426380D01*
X235394476Y-128426380D02*
X235346857Y-128331142D01*
X235346857Y-128331142D02*
X235299238Y-128140666D01*
X235299238Y-128140666D02*
X235299238Y-127902571D01*
X235299238Y-127902571D02*
X235346857Y-127712095D01*
X235346857Y-127712095D02*
X235394476Y-127616857D01*
X235394476Y-127616857D02*
X235442095Y-127569238D01*
X235442095Y-127569238D02*
X235537333Y-127521619D01*
X236823047Y-128521619D02*
X236251619Y-128521619D01*
X236537333Y-128521619D02*
X236537333Y-127521619D01*
X236537333Y-127521619D02*
X236442095Y-127664476D01*
X236442095Y-127664476D02*
X236346857Y-127759714D01*
X236346857Y-127759714D02*
X236251619Y-127807333D01*
X181594285Y-79654819D02*
X181594285Y-80369104D01*
X181594285Y-80369104D02*
X181546666Y-80511961D01*
X181546666Y-80511961D02*
X181451428Y-80607200D01*
X181451428Y-80607200D02*
X181308571Y-80654819D01*
X181308571Y-80654819D02*
X181213333Y-80654819D01*
X182594285Y-80654819D02*
X182022857Y-80654819D01*
X182308571Y-80654819D02*
X182308571Y-79654819D01*
X182308571Y-79654819D02*
X182213333Y-79797676D01*
X182213333Y-79797676D02*
X182118095Y-79892914D01*
X182118095Y-79892914D02*
X182022857Y-79940533D01*
X183213333Y-79654819D02*
X183308571Y-79654819D01*
X183308571Y-79654819D02*
X183403809Y-79702438D01*
X183403809Y-79702438D02*
X183451428Y-79750057D01*
X183451428Y-79750057D02*
X183499047Y-79845295D01*
X183499047Y-79845295D02*
X183546666Y-80035771D01*
X183546666Y-80035771D02*
X183546666Y-80273866D01*
X183546666Y-80273866D02*
X183499047Y-80464342D01*
X183499047Y-80464342D02*
X183451428Y-80559580D01*
X183451428Y-80559580D02*
X183403809Y-80607200D01*
X183403809Y-80607200D02*
X183308571Y-80654819D01*
X183308571Y-80654819D02*
X183213333Y-80654819D01*
X183213333Y-80654819D02*
X183118095Y-80607200D01*
X183118095Y-80607200D02*
X183070476Y-80559580D01*
X183070476Y-80559580D02*
X183022857Y-80464342D01*
X183022857Y-80464342D02*
X182975238Y-80273866D01*
X182975238Y-80273866D02*
X182975238Y-80035771D01*
X182975238Y-80035771D02*
X183022857Y-79845295D01*
X183022857Y-79845295D02*
X183070476Y-79750057D01*
X183070476Y-79750057D02*
X183118095Y-79702438D01*
X183118095Y-79702438D02*
X183213333Y-79654819D01*
X184403809Y-79988152D02*
X184403809Y-80654819D01*
X184165714Y-79607200D02*
X183927619Y-80321485D01*
X183927619Y-80321485D02*
X184546666Y-80321485D01*
X240014285Y-79654819D02*
X240014285Y-80369104D01*
X240014285Y-80369104D02*
X239966666Y-80511961D01*
X239966666Y-80511961D02*
X239871428Y-80607200D01*
X239871428Y-80607200D02*
X239728571Y-80654819D01*
X239728571Y-80654819D02*
X239633333Y-80654819D01*
X241014285Y-80654819D02*
X240442857Y-80654819D01*
X240728571Y-80654819D02*
X240728571Y-79654819D01*
X240728571Y-79654819D02*
X240633333Y-79797676D01*
X240633333Y-79797676D02*
X240538095Y-79892914D01*
X240538095Y-79892914D02*
X240442857Y-79940533D01*
X241633333Y-79654819D02*
X241728571Y-79654819D01*
X241728571Y-79654819D02*
X241823809Y-79702438D01*
X241823809Y-79702438D02*
X241871428Y-79750057D01*
X241871428Y-79750057D02*
X241919047Y-79845295D01*
X241919047Y-79845295D02*
X241966666Y-80035771D01*
X241966666Y-80035771D02*
X241966666Y-80273866D01*
X241966666Y-80273866D02*
X241919047Y-80464342D01*
X241919047Y-80464342D02*
X241871428Y-80559580D01*
X241871428Y-80559580D02*
X241823809Y-80607200D01*
X241823809Y-80607200D02*
X241728571Y-80654819D01*
X241728571Y-80654819D02*
X241633333Y-80654819D01*
X241633333Y-80654819D02*
X241538095Y-80607200D01*
X241538095Y-80607200D02*
X241490476Y-80559580D01*
X241490476Y-80559580D02*
X241442857Y-80464342D01*
X241442857Y-80464342D02*
X241395238Y-80273866D01*
X241395238Y-80273866D02*
X241395238Y-80035771D01*
X241395238Y-80035771D02*
X241442857Y-79845295D01*
X241442857Y-79845295D02*
X241490476Y-79750057D01*
X241490476Y-79750057D02*
X241538095Y-79702438D01*
X241538095Y-79702438D02*
X241633333Y-79654819D01*
X242300000Y-79654819D02*
X242919047Y-79654819D01*
X242919047Y-79654819D02*
X242585714Y-80035771D01*
X242585714Y-80035771D02*
X242728571Y-80035771D01*
X242728571Y-80035771D02*
X242823809Y-80083390D01*
X242823809Y-80083390D02*
X242871428Y-80131009D01*
X242871428Y-80131009D02*
X242919047Y-80226247D01*
X242919047Y-80226247D02*
X242919047Y-80464342D01*
X242919047Y-80464342D02*
X242871428Y-80559580D01*
X242871428Y-80559580D02*
X242823809Y-80607200D01*
X242823809Y-80607200D02*
X242728571Y-80654819D01*
X242728571Y-80654819D02*
X242442857Y-80654819D01*
X242442857Y-80654819D02*
X242347619Y-80607200D01*
X242347619Y-80607200D02*
X242300000Y-80559580D01*
X225325174Y-117091619D02*
X225325174Y-116091619D01*
X225325174Y-116091619D02*
X225563269Y-116091619D01*
X225563269Y-116091619D02*
X225706126Y-116139238D01*
X225706126Y-116139238D02*
X225801364Y-116234476D01*
X225801364Y-116234476D02*
X225848983Y-116329714D01*
X225848983Y-116329714D02*
X225896602Y-116520190D01*
X225896602Y-116520190D02*
X225896602Y-116663047D01*
X225896602Y-116663047D02*
X225848983Y-116853523D01*
X225848983Y-116853523D02*
X225801364Y-116948761D01*
X225801364Y-116948761D02*
X225706126Y-117044000D01*
X225706126Y-117044000D02*
X225563269Y-117091619D01*
X225563269Y-117091619D02*
X225325174Y-117091619D01*
X226277555Y-116186857D02*
X226325174Y-116139238D01*
X226325174Y-116139238D02*
X226420412Y-116091619D01*
X226420412Y-116091619D02*
X226658507Y-116091619D01*
X226658507Y-116091619D02*
X226753745Y-116139238D01*
X226753745Y-116139238D02*
X226801364Y-116186857D01*
X226801364Y-116186857D02*
X226848983Y-116282095D01*
X226848983Y-116282095D02*
X226848983Y-116377333D01*
X226848983Y-116377333D02*
X226801364Y-116520190D01*
X226801364Y-116520190D02*
X226229936Y-117091619D01*
X226229936Y-117091619D02*
X226848983Y-117091619D01*
X227468031Y-116091619D02*
X227563269Y-116091619D01*
X227563269Y-116091619D02*
X227658507Y-116139238D01*
X227658507Y-116139238D02*
X227706126Y-116186857D01*
X227706126Y-116186857D02*
X227753745Y-116282095D01*
X227753745Y-116282095D02*
X227801364Y-116472571D01*
X227801364Y-116472571D02*
X227801364Y-116710666D01*
X227801364Y-116710666D02*
X227753745Y-116901142D01*
X227753745Y-116901142D02*
X227706126Y-116996380D01*
X227706126Y-116996380D02*
X227658507Y-117044000D01*
X227658507Y-117044000D02*
X227563269Y-117091619D01*
X227563269Y-117091619D02*
X227468031Y-117091619D01*
X227468031Y-117091619D02*
X227372793Y-117044000D01*
X227372793Y-117044000D02*
X227325174Y-116996380D01*
X227325174Y-116996380D02*
X227277555Y-116901142D01*
X227277555Y-116901142D02*
X227229936Y-116710666D01*
X227229936Y-116710666D02*
X227229936Y-116472571D01*
X227229936Y-116472571D02*
X227277555Y-116282095D01*
X227277555Y-116282095D02*
X227325174Y-116186857D01*
X227325174Y-116186857D02*
X227372793Y-116139238D01*
X227372793Y-116139238D02*
X227468031Y-116091619D01*
X228753745Y-117091619D02*
X228182317Y-117091619D01*
X228468031Y-117091619D02*
X228468031Y-116091619D01*
X228468031Y-116091619D02*
X228372793Y-116234476D01*
X228372793Y-116234476D02*
X228277555Y-116329714D01*
X228277555Y-116329714D02*
X228182317Y-116377333D01*
X209132602Y-128172380D02*
X209084983Y-128220000D01*
X209084983Y-128220000D02*
X208942126Y-128267619D01*
X208942126Y-128267619D02*
X208846888Y-128267619D01*
X208846888Y-128267619D02*
X208704031Y-128220000D01*
X208704031Y-128220000D02*
X208608793Y-128124761D01*
X208608793Y-128124761D02*
X208561174Y-128029523D01*
X208561174Y-128029523D02*
X208513555Y-127839047D01*
X208513555Y-127839047D02*
X208513555Y-127696190D01*
X208513555Y-127696190D02*
X208561174Y-127505714D01*
X208561174Y-127505714D02*
X208608793Y-127410476D01*
X208608793Y-127410476D02*
X208704031Y-127315238D01*
X208704031Y-127315238D02*
X208846888Y-127267619D01*
X208846888Y-127267619D02*
X208942126Y-127267619D01*
X208942126Y-127267619D02*
X209084983Y-127315238D01*
X209084983Y-127315238D02*
X209132602Y-127362857D01*
X209513555Y-127362857D02*
X209561174Y-127315238D01*
X209561174Y-127315238D02*
X209656412Y-127267619D01*
X209656412Y-127267619D02*
X209894507Y-127267619D01*
X209894507Y-127267619D02*
X209989745Y-127315238D01*
X209989745Y-127315238D02*
X210037364Y-127362857D01*
X210037364Y-127362857D02*
X210084983Y-127458095D01*
X210084983Y-127458095D02*
X210084983Y-127553333D01*
X210084983Y-127553333D02*
X210037364Y-127696190D01*
X210037364Y-127696190D02*
X209465936Y-128267619D01*
X209465936Y-128267619D02*
X210084983Y-128267619D01*
X210704031Y-127267619D02*
X210799269Y-127267619D01*
X210799269Y-127267619D02*
X210894507Y-127315238D01*
X210894507Y-127315238D02*
X210942126Y-127362857D01*
X210942126Y-127362857D02*
X210989745Y-127458095D01*
X210989745Y-127458095D02*
X211037364Y-127648571D01*
X211037364Y-127648571D02*
X211037364Y-127886666D01*
X211037364Y-127886666D02*
X210989745Y-128077142D01*
X210989745Y-128077142D02*
X210942126Y-128172380D01*
X210942126Y-128172380D02*
X210894507Y-128220000D01*
X210894507Y-128220000D02*
X210799269Y-128267619D01*
X210799269Y-128267619D02*
X210704031Y-128267619D01*
X210704031Y-128267619D02*
X210608793Y-128220000D01*
X210608793Y-128220000D02*
X210561174Y-128172380D01*
X210561174Y-128172380D02*
X210513555Y-128077142D01*
X210513555Y-128077142D02*
X210465936Y-127886666D01*
X210465936Y-127886666D02*
X210465936Y-127648571D01*
X210465936Y-127648571D02*
X210513555Y-127458095D01*
X210513555Y-127458095D02*
X210561174Y-127362857D01*
X210561174Y-127362857D02*
X210608793Y-127315238D01*
X210608793Y-127315238D02*
X210704031Y-127267619D01*
X211370698Y-127267619D02*
X212037364Y-127267619D01*
X212037364Y-127267619D02*
X211608793Y-128267619D01*
X205830602Y-122076380D02*
X205782983Y-122124000D01*
X205782983Y-122124000D02*
X205640126Y-122171619D01*
X205640126Y-122171619D02*
X205544888Y-122171619D01*
X205544888Y-122171619D02*
X205402031Y-122124000D01*
X205402031Y-122124000D02*
X205306793Y-122028761D01*
X205306793Y-122028761D02*
X205259174Y-121933523D01*
X205259174Y-121933523D02*
X205211555Y-121743047D01*
X205211555Y-121743047D02*
X205211555Y-121600190D01*
X205211555Y-121600190D02*
X205259174Y-121409714D01*
X205259174Y-121409714D02*
X205306793Y-121314476D01*
X205306793Y-121314476D02*
X205402031Y-121219238D01*
X205402031Y-121219238D02*
X205544888Y-121171619D01*
X205544888Y-121171619D02*
X205640126Y-121171619D01*
X205640126Y-121171619D02*
X205782983Y-121219238D01*
X205782983Y-121219238D02*
X205830602Y-121266857D01*
X206211555Y-121266857D02*
X206259174Y-121219238D01*
X206259174Y-121219238D02*
X206354412Y-121171619D01*
X206354412Y-121171619D02*
X206592507Y-121171619D01*
X206592507Y-121171619D02*
X206687745Y-121219238D01*
X206687745Y-121219238D02*
X206735364Y-121266857D01*
X206735364Y-121266857D02*
X206782983Y-121362095D01*
X206782983Y-121362095D02*
X206782983Y-121457333D01*
X206782983Y-121457333D02*
X206735364Y-121600190D01*
X206735364Y-121600190D02*
X206163936Y-122171619D01*
X206163936Y-122171619D02*
X206782983Y-122171619D01*
X207402031Y-121171619D02*
X207497269Y-121171619D01*
X207497269Y-121171619D02*
X207592507Y-121219238D01*
X207592507Y-121219238D02*
X207640126Y-121266857D01*
X207640126Y-121266857D02*
X207687745Y-121362095D01*
X207687745Y-121362095D02*
X207735364Y-121552571D01*
X207735364Y-121552571D02*
X207735364Y-121790666D01*
X207735364Y-121790666D02*
X207687745Y-121981142D01*
X207687745Y-121981142D02*
X207640126Y-122076380D01*
X207640126Y-122076380D02*
X207592507Y-122124000D01*
X207592507Y-122124000D02*
X207497269Y-122171619D01*
X207497269Y-122171619D02*
X207402031Y-122171619D01*
X207402031Y-122171619D02*
X207306793Y-122124000D01*
X207306793Y-122124000D02*
X207259174Y-122076380D01*
X207259174Y-122076380D02*
X207211555Y-121981142D01*
X207211555Y-121981142D02*
X207163936Y-121790666D01*
X207163936Y-121790666D02*
X207163936Y-121552571D01*
X207163936Y-121552571D02*
X207211555Y-121362095D01*
X207211555Y-121362095D02*
X207259174Y-121266857D01*
X207259174Y-121266857D02*
X207306793Y-121219238D01*
X207306793Y-121219238D02*
X207402031Y-121171619D01*
X208592507Y-121171619D02*
X208402031Y-121171619D01*
X208402031Y-121171619D02*
X208306793Y-121219238D01*
X208306793Y-121219238D02*
X208259174Y-121266857D01*
X208259174Y-121266857D02*
X208163936Y-121409714D01*
X208163936Y-121409714D02*
X208116317Y-121600190D01*
X208116317Y-121600190D02*
X208116317Y-121981142D01*
X208116317Y-121981142D02*
X208163936Y-122076380D01*
X208163936Y-122076380D02*
X208211555Y-122124000D01*
X208211555Y-122124000D02*
X208306793Y-122171619D01*
X208306793Y-122171619D02*
X208497269Y-122171619D01*
X208497269Y-122171619D02*
X208592507Y-122124000D01*
X208592507Y-122124000D02*
X208640126Y-122076380D01*
X208640126Y-122076380D02*
X208687745Y-121981142D01*
X208687745Y-121981142D02*
X208687745Y-121743047D01*
X208687745Y-121743047D02*
X208640126Y-121647809D01*
X208640126Y-121647809D02*
X208592507Y-121600190D01*
X208592507Y-121600190D02*
X208497269Y-121552571D01*
X208497269Y-121552571D02*
X208306793Y-121552571D01*
X208306793Y-121552571D02*
X208211555Y-121600190D01*
X208211555Y-121600190D02*
X208163936Y-121647809D01*
X208163936Y-121647809D02*
X208116317Y-121743047D01*
X215835230Y-120803847D02*
X215882850Y-120851466D01*
X215882850Y-120851466D02*
X215930469Y-120994323D01*
X215930469Y-120994323D02*
X215930469Y-121089561D01*
X215930469Y-121089561D02*
X215882850Y-121232418D01*
X215882850Y-121232418D02*
X215787611Y-121327656D01*
X215787611Y-121327656D02*
X215692373Y-121375275D01*
X215692373Y-121375275D02*
X215501897Y-121422894D01*
X215501897Y-121422894D02*
X215359040Y-121422894D01*
X215359040Y-121422894D02*
X215168564Y-121375275D01*
X215168564Y-121375275D02*
X215073326Y-121327656D01*
X215073326Y-121327656D02*
X214978088Y-121232418D01*
X214978088Y-121232418D02*
X214930469Y-121089561D01*
X214930469Y-121089561D02*
X214930469Y-120994323D01*
X214930469Y-120994323D02*
X214978088Y-120851466D01*
X214978088Y-120851466D02*
X215025707Y-120803847D01*
X215025707Y-120422894D02*
X214978088Y-120375275D01*
X214978088Y-120375275D02*
X214930469Y-120280037D01*
X214930469Y-120280037D02*
X214930469Y-120041942D01*
X214930469Y-120041942D02*
X214978088Y-119946704D01*
X214978088Y-119946704D02*
X215025707Y-119899085D01*
X215025707Y-119899085D02*
X215120945Y-119851466D01*
X215120945Y-119851466D02*
X215216183Y-119851466D01*
X215216183Y-119851466D02*
X215359040Y-119899085D01*
X215359040Y-119899085D02*
X215930469Y-120470513D01*
X215930469Y-120470513D02*
X215930469Y-119851466D01*
X214930469Y-119232418D02*
X214930469Y-119137180D01*
X214930469Y-119137180D02*
X214978088Y-119041942D01*
X214978088Y-119041942D02*
X215025707Y-118994323D01*
X215025707Y-118994323D02*
X215120945Y-118946704D01*
X215120945Y-118946704D02*
X215311421Y-118899085D01*
X215311421Y-118899085D02*
X215549516Y-118899085D01*
X215549516Y-118899085D02*
X215739992Y-118946704D01*
X215739992Y-118946704D02*
X215835230Y-118994323D01*
X215835230Y-118994323D02*
X215882850Y-119041942D01*
X215882850Y-119041942D02*
X215930469Y-119137180D01*
X215930469Y-119137180D02*
X215930469Y-119232418D01*
X215930469Y-119232418D02*
X215882850Y-119327656D01*
X215882850Y-119327656D02*
X215835230Y-119375275D01*
X215835230Y-119375275D02*
X215739992Y-119422894D01*
X215739992Y-119422894D02*
X215549516Y-119470513D01*
X215549516Y-119470513D02*
X215311421Y-119470513D01*
X215311421Y-119470513D02*
X215120945Y-119422894D01*
X215120945Y-119422894D02*
X215025707Y-119375275D01*
X215025707Y-119375275D02*
X214978088Y-119327656D01*
X214978088Y-119327656D02*
X214930469Y-119232418D01*
X214930469Y-117994323D02*
X214930469Y-118470513D01*
X214930469Y-118470513D02*
X215406659Y-118518132D01*
X215406659Y-118518132D02*
X215359040Y-118470513D01*
X215359040Y-118470513D02*
X215311421Y-118375275D01*
X215311421Y-118375275D02*
X215311421Y-118137180D01*
X215311421Y-118137180D02*
X215359040Y-118041942D01*
X215359040Y-118041942D02*
X215406659Y-117994323D01*
X215406659Y-117994323D02*
X215501897Y-117946704D01*
X215501897Y-117946704D02*
X215739992Y-117946704D01*
X215739992Y-117946704D02*
X215835230Y-117994323D01*
X215835230Y-117994323D02*
X215882850Y-118041942D01*
X215882850Y-118041942D02*
X215930469Y-118137180D01*
X215930469Y-118137180D02*
X215930469Y-118375275D01*
X215930469Y-118375275D02*
X215882850Y-118470513D01*
X215882850Y-118470513D02*
X215835230Y-118518132D01*
X226613230Y-124927347D02*
X226660850Y-124974966D01*
X226660850Y-124974966D02*
X226708469Y-125117823D01*
X226708469Y-125117823D02*
X226708469Y-125213061D01*
X226708469Y-125213061D02*
X226660850Y-125355918D01*
X226660850Y-125355918D02*
X226565611Y-125451156D01*
X226565611Y-125451156D02*
X226470373Y-125498775D01*
X226470373Y-125498775D02*
X226279897Y-125546394D01*
X226279897Y-125546394D02*
X226137040Y-125546394D01*
X226137040Y-125546394D02*
X225946564Y-125498775D01*
X225946564Y-125498775D02*
X225851326Y-125451156D01*
X225851326Y-125451156D02*
X225756088Y-125355918D01*
X225756088Y-125355918D02*
X225708469Y-125213061D01*
X225708469Y-125213061D02*
X225708469Y-125117823D01*
X225708469Y-125117823D02*
X225756088Y-124974966D01*
X225756088Y-124974966D02*
X225803707Y-124927347D01*
X225803707Y-124546394D02*
X225756088Y-124498775D01*
X225756088Y-124498775D02*
X225708469Y-124403537D01*
X225708469Y-124403537D02*
X225708469Y-124165442D01*
X225708469Y-124165442D02*
X225756088Y-124070204D01*
X225756088Y-124070204D02*
X225803707Y-124022585D01*
X225803707Y-124022585D02*
X225898945Y-123974966D01*
X225898945Y-123974966D02*
X225994183Y-123974966D01*
X225994183Y-123974966D02*
X226137040Y-124022585D01*
X226137040Y-124022585D02*
X226708469Y-124594013D01*
X226708469Y-124594013D02*
X226708469Y-123974966D01*
X225708469Y-123355918D02*
X225708469Y-123260680D01*
X225708469Y-123260680D02*
X225756088Y-123165442D01*
X225756088Y-123165442D02*
X225803707Y-123117823D01*
X225803707Y-123117823D02*
X225898945Y-123070204D01*
X225898945Y-123070204D02*
X226089421Y-123022585D01*
X226089421Y-123022585D02*
X226327516Y-123022585D01*
X226327516Y-123022585D02*
X226517992Y-123070204D01*
X226517992Y-123070204D02*
X226613230Y-123117823D01*
X226613230Y-123117823D02*
X226660850Y-123165442D01*
X226660850Y-123165442D02*
X226708469Y-123260680D01*
X226708469Y-123260680D02*
X226708469Y-123355918D01*
X226708469Y-123355918D02*
X226660850Y-123451156D01*
X226660850Y-123451156D02*
X226613230Y-123498775D01*
X226613230Y-123498775D02*
X226517992Y-123546394D01*
X226517992Y-123546394D02*
X226327516Y-123594013D01*
X226327516Y-123594013D02*
X226089421Y-123594013D01*
X226089421Y-123594013D02*
X225898945Y-123546394D01*
X225898945Y-123546394D02*
X225803707Y-123498775D01*
X225803707Y-123498775D02*
X225756088Y-123451156D01*
X225756088Y-123451156D02*
X225708469Y-123355918D01*
X225708469Y-122689251D02*
X225708469Y-122070204D01*
X225708469Y-122070204D02*
X226089421Y-122403537D01*
X226089421Y-122403537D02*
X226089421Y-122260680D01*
X226089421Y-122260680D02*
X226137040Y-122165442D01*
X226137040Y-122165442D02*
X226184659Y-122117823D01*
X226184659Y-122117823D02*
X226279897Y-122070204D01*
X226279897Y-122070204D02*
X226517992Y-122070204D01*
X226517992Y-122070204D02*
X226613230Y-122117823D01*
X226613230Y-122117823D02*
X226660850Y-122165442D01*
X226660850Y-122165442D02*
X226708469Y-122260680D01*
X226708469Y-122260680D02*
X226708469Y-122546394D01*
X226708469Y-122546394D02*
X226660850Y-122641632D01*
X226660850Y-122641632D02*
X226613230Y-122689251D01*
X221070602Y-116488380D02*
X221022983Y-116536000D01*
X221022983Y-116536000D02*
X220880126Y-116583619D01*
X220880126Y-116583619D02*
X220784888Y-116583619D01*
X220784888Y-116583619D02*
X220642031Y-116536000D01*
X220642031Y-116536000D02*
X220546793Y-116440761D01*
X220546793Y-116440761D02*
X220499174Y-116345523D01*
X220499174Y-116345523D02*
X220451555Y-116155047D01*
X220451555Y-116155047D02*
X220451555Y-116012190D01*
X220451555Y-116012190D02*
X220499174Y-115821714D01*
X220499174Y-115821714D02*
X220546793Y-115726476D01*
X220546793Y-115726476D02*
X220642031Y-115631238D01*
X220642031Y-115631238D02*
X220784888Y-115583619D01*
X220784888Y-115583619D02*
X220880126Y-115583619D01*
X220880126Y-115583619D02*
X221022983Y-115631238D01*
X221022983Y-115631238D02*
X221070602Y-115678857D01*
X221451555Y-115678857D02*
X221499174Y-115631238D01*
X221499174Y-115631238D02*
X221594412Y-115583619D01*
X221594412Y-115583619D02*
X221832507Y-115583619D01*
X221832507Y-115583619D02*
X221927745Y-115631238D01*
X221927745Y-115631238D02*
X221975364Y-115678857D01*
X221975364Y-115678857D02*
X222022983Y-115774095D01*
X222022983Y-115774095D02*
X222022983Y-115869333D01*
X222022983Y-115869333D02*
X221975364Y-116012190D01*
X221975364Y-116012190D02*
X221403936Y-116583619D01*
X221403936Y-116583619D02*
X222022983Y-116583619D01*
X222642031Y-115583619D02*
X222737269Y-115583619D01*
X222737269Y-115583619D02*
X222832507Y-115631238D01*
X222832507Y-115631238D02*
X222880126Y-115678857D01*
X222880126Y-115678857D02*
X222927745Y-115774095D01*
X222927745Y-115774095D02*
X222975364Y-115964571D01*
X222975364Y-115964571D02*
X222975364Y-116202666D01*
X222975364Y-116202666D02*
X222927745Y-116393142D01*
X222927745Y-116393142D02*
X222880126Y-116488380D01*
X222880126Y-116488380D02*
X222832507Y-116536000D01*
X222832507Y-116536000D02*
X222737269Y-116583619D01*
X222737269Y-116583619D02*
X222642031Y-116583619D01*
X222642031Y-116583619D02*
X222546793Y-116536000D01*
X222546793Y-116536000D02*
X222499174Y-116488380D01*
X222499174Y-116488380D02*
X222451555Y-116393142D01*
X222451555Y-116393142D02*
X222403936Y-116202666D01*
X222403936Y-116202666D02*
X222403936Y-115964571D01*
X222403936Y-115964571D02*
X222451555Y-115774095D01*
X222451555Y-115774095D02*
X222499174Y-115678857D01*
X222499174Y-115678857D02*
X222546793Y-115631238D01*
X222546793Y-115631238D02*
X222642031Y-115583619D01*
X223356317Y-115678857D02*
X223403936Y-115631238D01*
X223403936Y-115631238D02*
X223499174Y-115583619D01*
X223499174Y-115583619D02*
X223737269Y-115583619D01*
X223737269Y-115583619D02*
X223832507Y-115631238D01*
X223832507Y-115631238D02*
X223880126Y-115678857D01*
X223880126Y-115678857D02*
X223927745Y-115774095D01*
X223927745Y-115774095D02*
X223927745Y-115869333D01*
X223927745Y-115869333D02*
X223880126Y-116012190D01*
X223880126Y-116012190D02*
X223308698Y-116583619D01*
X223308698Y-116583619D02*
X223927745Y-116583619D01*
D12*
X214620450Y-99553200D02*
X213820450Y-99553200D01*
X214620450Y-96433200D02*
X212820450Y-96433200D01*
X214620450Y-96433200D02*
X215420450Y-96433200D01*
X214620450Y-99553200D02*
X215420450Y-99553200D01*
X211064450Y-90337200D02*
X211864450Y-90337200D01*
X211064450Y-93457200D02*
X212864450Y-93457200D01*
X211064450Y-93457200D02*
X210264450Y-93457200D01*
X211064450Y-90337200D02*
X210264450Y-90337200D01*
X192659000Y-109514500D02*
X192659000Y-105454500D01*
X189604000Y-102534500D02*
X189604000Y-112434500D01*
X191579000Y-105454500D02*
X191579000Y-106807833D01*
X191819000Y-105454500D02*
X191819000Y-106807833D01*
X192539000Y-105454500D02*
X192539000Y-106807833D01*
X191939000Y-105454500D02*
X191939000Y-106807833D01*
X194444000Y-102534500D02*
X189604000Y-102534500D01*
X192419000Y-105454500D02*
X192419000Y-106807833D01*
X194444000Y-112434500D02*
X189604000Y-112434500D01*
X191699000Y-105454500D02*
X191699000Y-106807833D01*
X191389000Y-109514500D02*
X192659000Y-109514500D01*
X192299000Y-105454500D02*
X192299000Y-106807833D01*
X192059000Y-105454500D02*
X192059000Y-106807833D01*
X191459000Y-105454500D02*
X191459000Y-106807833D01*
X191389000Y-105454500D02*
X191389000Y-109514500D01*
X192659000Y-105454500D02*
X191389000Y-105454500D01*
X192179000Y-105454500D02*
X192179000Y-106807833D01*
X192659000Y-106807833D02*
X191389000Y-106807833D01*
X194684000Y-102294500D02*
X194684000Y-103678500D01*
X194684000Y-102294500D02*
X193301000Y-102294500D01*
X194444000Y-102534500D02*
X194444000Y-112434500D01*
X209364571Y-97611200D02*
X209029329Y-97611200D01*
X209364571Y-96851200D02*
X209029329Y-96851200D01*
X218302450Y-98333579D02*
X218302450Y-98668821D01*
X217542450Y-98333579D02*
X217542450Y-98668821D01*
X217542450Y-95964321D02*
X217542450Y-95629079D01*
X218302450Y-95964321D02*
X218302450Y-95629079D01*
X210888571Y-96341200D02*
X210553329Y-96341200D01*
X210888571Y-95581200D02*
X210553329Y-95581200D01*
X208142450Y-91475579D02*
X208142450Y-91810821D01*
X207382450Y-91475579D02*
X207382450Y-91810821D01*
X207075650Y-91488879D02*
X207075650Y-91824121D01*
X206315650Y-91488879D02*
X206315650Y-91824121D01*
X218657450Y-91924136D02*
X218657450Y-92378264D01*
X217187450Y-91924136D02*
X217187450Y-92378264D01*
X221983329Y-100407200D02*
X222318571Y-100407200D01*
X221983329Y-101167200D02*
X222318571Y-101167200D01*
X248770800Y-91846400D02*
X247770800Y-92846400D01*
X233970800Y-99346400D02*
X233970800Y-84346400D01*
X233970800Y-84346400D02*
X248970800Y-84346400D01*
X248770800Y-91846400D02*
X247770800Y-90846400D01*
X248970800Y-84346400D02*
X248970800Y-99346400D01*
X248970800Y-99346400D02*
X233970800Y-99346400D01*
D13*
X223690450Y-95915200D02*
X223690450Y-96515200D01*
X223690450Y-96515200D02*
X220790450Y-96515200D01*
X220790450Y-96515200D02*
X220790450Y-95915200D01*
X220790450Y-95915200D02*
X223690450Y-95915200D01*
X223740450Y-94365200D02*
X223740450Y-95565200D01*
X223639650Y-122940800D02*
X223639650Y-123540800D01*
X223639650Y-123540800D02*
X220739650Y-123540800D01*
X220739650Y-123540800D02*
X220739650Y-122940800D01*
X220739650Y-122940800D02*
X223639650Y-122940800D01*
X223689650Y-121390800D02*
X223689650Y-122590800D01*
D14*
X199991600Y-87812200D02*
X199991600Y-87812200D01*
X199991600Y-87912200D02*
X199991600Y-87912200D01*
X199991600Y-87812200D02*
G75*
G03*
X199991600Y-87912200I0J-50000D01*
G01*
X199991600Y-87912200D02*
G75*
G03*
X199991600Y-87812200I0J50000D01*
G01*
X199940800Y-114837800D02*
X199940800Y-114837800D01*
X199940800Y-114937800D02*
X199940800Y-114937800D01*
X199940800Y-114837800D02*
G75*
G03*
X199940800Y-114937800I0J-50000D01*
G01*
X199940800Y-114937800D02*
G75*
G03*
X199940800Y-114837800I0J50000D01*
G01*
X226608450Y-92908200D02*
G75*
G03*
X226608450Y-92908200I-50000J0D01*
G01*
D12*
X214990285Y-95559200D02*
X214758615Y-95559200D01*
X214990285Y-94839200D02*
X214758615Y-94839200D01*
X211678450Y-98639365D02*
X211678450Y-98871035D01*
X210958450Y-98639365D02*
X210958450Y-98871035D01*
X210186615Y-94331200D02*
X210418285Y-94331200D01*
X210186615Y-95051200D02*
X210418285Y-95051200D01*
X214726450Y-92543365D02*
X214726450Y-92775035D01*
X214006450Y-92543365D02*
X214006450Y-92775035D01*
X219806450Y-95337365D02*
X219806450Y-95569035D01*
X219086450Y-95337365D02*
X219086450Y-95569035D01*
X224674450Y-96898535D02*
X224674450Y-96666865D01*
X225394450Y-96898535D02*
X225394450Y-96666865D01*
X222755702Y-91870200D02*
X222233198Y-91870200D01*
X222755702Y-90400200D02*
X222233198Y-90400200D01*
X222065115Y-99157200D02*
X222296785Y-99157200D01*
X222065115Y-99877200D02*
X222296785Y-99877200D01*
X214569650Y-126578800D02*
X213769650Y-126578800D01*
X214569650Y-123458800D02*
X212769650Y-123458800D01*
X214569650Y-123458800D02*
X215369650Y-123458800D01*
X214569650Y-126578800D02*
X215369650Y-126578800D01*
X211013650Y-117362800D02*
X211813650Y-117362800D01*
X211013650Y-120482800D02*
X212813650Y-120482800D01*
X211013650Y-120482800D02*
X210213650Y-120482800D01*
X211013650Y-117362800D02*
X210213650Y-117362800D01*
X192659000Y-129538000D02*
X192659000Y-125478000D01*
X189604000Y-122558000D02*
X189604000Y-132458000D01*
X191579000Y-125478000D02*
X191579000Y-126831333D01*
X191819000Y-125478000D02*
X191819000Y-126831333D01*
X192539000Y-125478000D02*
X192539000Y-126831333D01*
X191939000Y-125478000D02*
X191939000Y-126831333D01*
X194444000Y-122558000D02*
X189604000Y-122558000D01*
X192419000Y-125478000D02*
X192419000Y-126831333D01*
X194444000Y-132458000D02*
X189604000Y-132458000D01*
X191699000Y-125478000D02*
X191699000Y-126831333D01*
X191389000Y-129538000D02*
X192659000Y-129538000D01*
X192299000Y-125478000D02*
X192299000Y-126831333D01*
X192059000Y-125478000D02*
X192059000Y-126831333D01*
X191459000Y-125478000D02*
X191459000Y-126831333D01*
X191389000Y-125478000D02*
X191389000Y-129538000D01*
X192659000Y-125478000D02*
X191389000Y-125478000D01*
X192179000Y-125478000D02*
X192179000Y-126831333D01*
X192659000Y-126831333D02*
X191389000Y-126831333D01*
X194684000Y-122318000D02*
X194684000Y-123702000D01*
X194684000Y-122318000D02*
X193301000Y-122318000D01*
X194444000Y-122558000D02*
X194444000Y-132458000D01*
X209313771Y-124636800D02*
X208978529Y-124636800D01*
X209313771Y-123876800D02*
X208978529Y-123876800D01*
X218251650Y-125359179D02*
X218251650Y-125694421D01*
X217491650Y-125359179D02*
X217491650Y-125694421D01*
X217491650Y-122989921D02*
X217491650Y-122654679D01*
X218251650Y-122989921D02*
X218251650Y-122654679D01*
X210837771Y-123366800D02*
X210502529Y-123366800D01*
X210837771Y-122606800D02*
X210502529Y-122606800D01*
X208091650Y-118501179D02*
X208091650Y-118836421D01*
X207331650Y-118501179D02*
X207331650Y-118836421D01*
X207024850Y-118514479D02*
X207024850Y-118849721D01*
X206264850Y-118514479D02*
X206264850Y-118849721D01*
X218606650Y-118949736D02*
X218606650Y-119403864D01*
X217136650Y-118949736D02*
X217136650Y-119403864D01*
X221932529Y-127432800D02*
X222267771Y-127432800D01*
X221932529Y-128192800D02*
X222267771Y-128192800D01*
X183402500Y-82699776D02*
X183402500Y-83209224D01*
X182357500Y-82699776D02*
X182357500Y-83209224D01*
X230990224Y-81294500D02*
X230480776Y-81294500D01*
X230990224Y-80249500D02*
X230480776Y-80249500D01*
X248720000Y-118872000D02*
X247720000Y-119872000D01*
X233920000Y-126372000D02*
X233920000Y-111372000D01*
X233920000Y-111372000D02*
X248920000Y-111372000D01*
X248720000Y-118872000D02*
X247720000Y-117872000D01*
X248920000Y-111372000D02*
X248920000Y-126372000D01*
X248920000Y-126372000D02*
X233920000Y-126372000D01*
X181670000Y-94428000D02*
X179010000Y-94428000D01*
X181670000Y-131318000D02*
X181670000Y-132648000D01*
X181670000Y-130048000D02*
X181670000Y-94428000D01*
X181670000Y-132648000D02*
X180340000Y-132648000D01*
X179010000Y-130048000D02*
X179010000Y-94428000D01*
X181670000Y-130048000D02*
X179010000Y-130048000D01*
X192980000Y-67885500D02*
X192980000Y-70545500D01*
X229870000Y-67885500D02*
X231200000Y-67885500D01*
X228600000Y-67885500D02*
X192980000Y-67885500D01*
X231200000Y-67885500D02*
X231200000Y-69215500D01*
X228600000Y-70545500D02*
X192980000Y-70545500D01*
X228600000Y-67885500D02*
X228600000Y-70545500D01*
X179123200Y-94438000D02*
X176463200Y-94438000D01*
X179123200Y-131328000D02*
X179123200Y-132658000D01*
X179123200Y-130058000D02*
X179123200Y-94438000D01*
X179123200Y-132658000D02*
X177793200Y-132658000D01*
X176463200Y-130058000D02*
X176463200Y-94438000D01*
X179123200Y-130058000D02*
X176463200Y-130058000D01*
X228600000Y-65345000D02*
X228600000Y-68005000D01*
X228600000Y-68005000D02*
X192980000Y-68005000D01*
X231200000Y-65345000D02*
X231200000Y-66675000D01*
X228600000Y-65345000D02*
X192980000Y-65345000D01*
X229870000Y-65345000D02*
X231200000Y-65345000D01*
X192980000Y-65345000D02*
X192980000Y-68005000D01*
X190380000Y-63500000D02*
X190380000Y-78500000D01*
X175380000Y-63500000D02*
X190380000Y-63500000D01*
X182880000Y-63700000D02*
X181880000Y-64700000D01*
X175380000Y-78500000D02*
X175380000Y-63500000D01*
X190380000Y-78500000D02*
X175380000Y-78500000D01*
X182880000Y-63700000D02*
X183880000Y-64700000D01*
X241300000Y-63700000D02*
X242300000Y-64700000D01*
X248800000Y-78500000D02*
X233800000Y-78500000D01*
X233800000Y-78500000D02*
X233800000Y-63500000D01*
X241300000Y-63700000D02*
X240300000Y-64700000D01*
X233800000Y-63500000D02*
X248800000Y-63500000D01*
X248800000Y-63500000D02*
X248800000Y-78500000D01*
D14*
X226557650Y-119933800D02*
G75*
G03*
X226557650Y-119933800I-50000J0D01*
G01*
D12*
X214939485Y-121864800D02*
X214707815Y-121864800D01*
X214939485Y-122584800D02*
X214707815Y-122584800D01*
X210907650Y-125664965D02*
X210907650Y-125896635D01*
X211627650Y-125664965D02*
X211627650Y-125896635D01*
X210135815Y-121356800D02*
X210367485Y-121356800D01*
X210135815Y-122076800D02*
X210367485Y-122076800D01*
X214675650Y-119568965D02*
X214675650Y-119800635D01*
X213955650Y-119568965D02*
X213955650Y-119800635D01*
X219755650Y-122362965D02*
X219755650Y-122594635D01*
X219035650Y-122362965D02*
X219035650Y-122594635D01*
X224623650Y-123924135D02*
X224623650Y-123692465D01*
X225343650Y-123924135D02*
X225343650Y-123692465D01*
X222704902Y-118895800D02*
X222182398Y-118895800D01*
X222704902Y-117425800D02*
X222182398Y-117425800D01*
X222014315Y-126182800D02*
X222245985Y-126182800D01*
X222014315Y-126902800D02*
X222245985Y-126902800D01*
%LPC*%
D15*
X213482950Y-97043200D03*
X213482950Y-97993200D03*
X213482950Y-98943200D03*
X215757950Y-98943200D03*
X215757950Y-97043200D03*
D16*
X212201950Y-92847200D03*
X212201950Y-91897200D03*
X212201950Y-90947200D03*
X209926950Y-90947200D03*
X209926950Y-92847200D03*
D17*
X192024000Y-103674500D03*
D18*
X192024000Y-111294500D03*
D19*
X209794450Y-97231200D03*
X208599450Y-97231200D03*
D20*
X217922450Y-97903700D03*
X217922450Y-99098700D03*
D21*
X217922450Y-96394200D03*
X217922450Y-95199200D03*
D19*
X211318450Y-95961200D03*
X210123450Y-95961200D03*
D20*
X207762450Y-91045700D03*
X207762450Y-92240700D03*
X206695650Y-91059000D03*
X206695650Y-92254000D03*
D22*
X217922450Y-91151200D03*
X217922450Y-93151200D03*
D23*
X221553450Y-100787200D03*
X222748450Y-100787200D03*
D24*
X236270800Y-91846400D03*
D25*
X241350800Y-96926400D03*
X241350800Y-86766400D03*
D24*
X236270800Y-89306400D03*
D26*
X223190450Y-94965200D03*
X222240450Y-94965200D03*
X221290450Y-94965200D03*
X221290450Y-97465200D03*
X223190450Y-97465200D03*
X223139650Y-121990800D03*
X222189650Y-121990800D03*
X221239650Y-121990800D03*
X221239650Y-124490800D03*
X223139650Y-124490800D03*
D27*
X201011600Y-87942200D03*
D28*
X201011600Y-95012200D03*
D27*
X201011600Y-102082200D03*
D29*
X203301600Y-104157200D03*
D30*
X209596600Y-104157200D03*
D31*
X215591600Y-104157200D03*
D30*
X221586600Y-104157200D03*
D29*
X227881600Y-104157200D03*
D27*
X230171600Y-102082200D03*
D28*
X230171600Y-95012200D03*
D27*
X230171600Y-87942200D03*
D29*
X227881600Y-85867200D03*
D30*
X221586600Y-85867200D03*
D31*
X215591600Y-85867200D03*
D30*
X209596600Y-85867200D03*
D29*
X203301600Y-85867200D03*
D27*
X200960800Y-114967800D03*
D28*
X200960800Y-122037800D03*
D27*
X200960800Y-129107800D03*
D29*
X203250800Y-131182800D03*
D30*
X209545800Y-131182800D03*
D31*
X215540800Y-131182800D03*
D30*
X221535800Y-131182800D03*
D29*
X227830800Y-131182800D03*
D27*
X230120800Y-129107800D03*
D28*
X230120800Y-122037800D03*
D27*
X230120800Y-114967800D03*
D29*
X227830800Y-112892800D03*
D30*
X221535800Y-112892800D03*
D31*
X215540800Y-112892800D03*
D30*
X209545800Y-112892800D03*
D29*
X203250800Y-112892800D03*
D32*
X226558450Y-92215700D03*
X226558450Y-91070700D03*
D33*
X215441950Y-95199200D03*
X214306950Y-95199200D03*
D34*
X211318450Y-98187700D03*
X211318450Y-99322700D03*
D35*
X209734950Y-94691200D03*
X210869950Y-94691200D03*
D34*
X214366450Y-92091700D03*
X214366450Y-93226700D03*
X219446450Y-94885700D03*
X219446450Y-96020700D03*
D36*
X225034450Y-97350200D03*
X225034450Y-96215200D03*
D37*
X223531950Y-91135200D03*
X221456950Y-91135200D03*
D35*
X221613450Y-99517200D03*
X222748450Y-99517200D03*
D15*
X213432150Y-124068800D03*
X213432150Y-125018800D03*
X213432150Y-125968800D03*
X215707150Y-125968800D03*
X215707150Y-124068800D03*
D16*
X212151150Y-119872800D03*
X212151150Y-118922800D03*
X212151150Y-117972800D03*
X209876150Y-117972800D03*
X209876150Y-119872800D03*
D17*
X192024000Y-123698000D03*
D18*
X192024000Y-131318000D03*
D19*
X209743650Y-124256800D03*
X208548650Y-124256800D03*
D20*
X217871650Y-124929300D03*
X217871650Y-126124300D03*
D21*
X217871650Y-123419800D03*
X217871650Y-122224800D03*
D19*
X211267650Y-122986800D03*
X210072650Y-122986800D03*
D20*
X207711650Y-118071300D03*
X207711650Y-119266300D03*
X206644850Y-118084600D03*
X206644850Y-119279600D03*
D22*
X217871650Y-118176800D03*
X217871650Y-120176800D03*
D23*
X221502650Y-127812800D03*
X222697650Y-127812800D03*
D38*
X182880000Y-82042000D03*
X182880000Y-83867000D03*
D39*
X231648000Y-80772000D03*
X229823000Y-80772000D03*
D24*
X236220000Y-118872000D03*
D25*
X241300000Y-123952000D03*
X241300000Y-113792000D03*
D24*
X236220000Y-116332000D03*
D40*
X180340000Y-131318000D03*
D41*
X180340000Y-128778000D03*
X180340000Y-126238000D03*
X180340000Y-123698000D03*
X180340000Y-121158000D03*
X180340000Y-118618000D03*
X180340000Y-116078000D03*
X180340000Y-113538000D03*
X180340000Y-110998000D03*
X180340000Y-108458000D03*
X180340000Y-105918000D03*
X180340000Y-103378000D03*
X180340000Y-100838000D03*
X180340000Y-98298000D03*
X180340000Y-95758000D03*
D40*
X229870000Y-69215500D03*
D41*
X227330000Y-69215500D03*
X224790000Y-69215500D03*
X222250000Y-69215500D03*
X219710000Y-69215500D03*
X217170000Y-69215500D03*
X214630000Y-69215500D03*
X212090000Y-69215500D03*
X209550000Y-69215500D03*
X207010000Y-69215500D03*
X204470000Y-69215500D03*
X201930000Y-69215500D03*
X199390000Y-69215500D03*
X196850000Y-69215500D03*
X194310000Y-69215500D03*
D40*
X177793200Y-131328000D03*
D41*
X177793200Y-128788000D03*
X177793200Y-126248000D03*
X177793200Y-123708000D03*
X177793200Y-121168000D03*
X177793200Y-118628000D03*
X177793200Y-116088000D03*
X177793200Y-113548000D03*
X177793200Y-111008000D03*
X177793200Y-108468000D03*
X177793200Y-105928000D03*
X177793200Y-103388000D03*
X177793200Y-100848000D03*
X177793200Y-98308000D03*
X177793200Y-95768000D03*
X194310000Y-66675000D03*
X196850000Y-66675000D03*
X199390000Y-66675000D03*
X201930000Y-66675000D03*
X204470000Y-66675000D03*
X207010000Y-66675000D03*
X209550000Y-66675000D03*
X212090000Y-66675000D03*
X214630000Y-66675000D03*
X217170000Y-66675000D03*
X219710000Y-66675000D03*
X222250000Y-66675000D03*
X224790000Y-66675000D03*
X227330000Y-66675000D03*
D40*
X229870000Y-66675000D03*
D42*
X180340000Y-76200000D03*
D43*
X177800000Y-71120000D03*
X187960000Y-71120000D03*
D42*
X182880000Y-76200000D03*
X241300000Y-76200000D03*
D43*
X246380000Y-71120000D03*
X236220000Y-71120000D03*
D42*
X238760000Y-76200000D03*
D32*
X226507650Y-119241300D03*
X226507650Y-118096300D03*
D33*
X214256150Y-122224800D03*
X215391150Y-122224800D03*
D34*
X211267650Y-126348300D03*
X211267650Y-125213300D03*
D35*
X209684150Y-121716800D03*
X210819150Y-121716800D03*
D34*
X214315650Y-119117300D03*
X214315650Y-120252300D03*
X219395650Y-121911300D03*
X219395650Y-123046300D03*
D36*
X224983650Y-124375800D03*
X224983650Y-123240800D03*
D37*
X223481150Y-118160800D03*
X221406150Y-118160800D03*
D35*
X221562650Y-126542800D03*
X222697650Y-126542800D03*
%LPD*%
M02*
