G04 #@! TF.GenerationSoftware,KiCad,Pcbnew,7.0.7*
G04 #@! TF.CreationDate,2023-10-29T13:55:44+00:00*
G04 #@! TF.ProjectId,AD3 Front End Amplifier,41443320-4672-46f6-9e74-20456e642041,rev?*
G04 #@! TF.SameCoordinates,Original*
G04 #@! TF.FileFunction,Paste,Top*
G04 #@! TF.FilePolarity,Positive*
%FSLAX46Y46*%
G04 Gerber Fmt 4.6, Leading zero omitted, Abs format (unit mm)*
G04 Created by KiCad (PCBNEW 7.0.7) date 2023-10-29 13:55:44*
%MOMM*%
%LPD*%
G01*
G04 APERTURE LIST*
G04 Aperture macros list*
%AMRoundRect*
0 Rectangle with rounded corners*
0 $1 Rounding radius*
0 $2 $3 $4 $5 $6 $7 $8 $9 X,Y pos of 4 corners*
0 Add a 4 corners polygon primitive as box body*
4,1,4,$2,$3,$4,$5,$6,$7,$8,$9,$2,$3,0*
0 Add four circle primitives for the rounded corners*
1,1,$1+$1,$2,$3*
1,1,$1+$1,$4,$5*
1,1,$1+$1,$6,$7*
1,1,$1+$1,$8,$9*
0 Add four rect primitives between the rounded corners*
20,1,$1+$1,$2,$3,$4,$5,0*
20,1,$1+$1,$4,$5,$6,$7,0*
20,1,$1+$1,$6,$7,$8,$9,0*
20,1,$1+$1,$8,$9,$2,$3,0*%
G04 Aperture macros list end*
%ADD10RoundRect,0.150000X0.150000X-0.512500X0.150000X0.512500X-0.150000X0.512500X-0.150000X-0.512500X0*%
%ADD11RoundRect,0.150000X0.512500X0.150000X-0.512500X0.150000X-0.512500X-0.150000X0.512500X-0.150000X0*%
%ADD12RoundRect,0.237500X-0.250000X-0.237500X0.250000X-0.237500X0.250000X0.237500X-0.250000X0.237500X0*%
%ADD13RoundRect,0.237500X0.250000X0.237500X-0.250000X0.237500X-0.250000X-0.237500X0.250000X-0.237500X0*%
%ADD14RoundRect,0.160000X0.197500X0.160000X-0.197500X0.160000X-0.197500X-0.160000X0.197500X-0.160000X0*%
%ADD15RoundRect,0.160000X0.160000X-0.197500X0.160000X0.197500X-0.160000X0.197500X-0.160000X-0.197500X0*%
%ADD16RoundRect,0.160000X-0.197500X-0.160000X0.197500X-0.160000X0.197500X0.160000X-0.197500X0.160000X0*%
%ADD17RoundRect,0.250000X-0.450000X0.350000X-0.450000X-0.350000X0.450000X-0.350000X0.450000X0.350000X0*%
%ADD18RoundRect,0.237500X-0.237500X0.300000X-0.237500X-0.300000X0.237500X-0.300000X0.237500X0.300000X0*%
%ADD19RoundRect,0.237500X-0.300000X-0.237500X0.300000X-0.237500X0.300000X0.237500X-0.300000X0.237500X0*%
%ADD20RoundRect,0.237500X0.237500X-0.300000X0.237500X0.300000X-0.237500X0.300000X-0.237500X-0.300000X0*%
G04 APERTURE END LIST*
D10*
X130368000Y-145917500D03*
X131318000Y-145917500D03*
X132268000Y-145917500D03*
X132268000Y-143642500D03*
X130368000Y-143642500D03*
X102240000Y-145785000D03*
X103190000Y-145785000D03*
X104140000Y-145785000D03*
X104140000Y-143510000D03*
X102240000Y-143510000D03*
D11*
X129926500Y-136652000D03*
X129926500Y-134752000D03*
X132201500Y-134752000D03*
X132201500Y-135702000D03*
X132201500Y-136652000D03*
X101865000Y-136675500D03*
X101865000Y-134775500D03*
X104140000Y-134775500D03*
X104140000Y-135725500D03*
X104140000Y-136675500D03*
D12*
X114507000Y-116840000D03*
X116332000Y-116840000D03*
D13*
X135081000Y-116840000D03*
X136906000Y-116840000D03*
D14*
X128778000Y-147574000D03*
X127583000Y-147574000D03*
X100838000Y-147574000D03*
X99643000Y-147574000D03*
D15*
X132334000Y-140372500D03*
X132334000Y-141567500D03*
D14*
X130377000Y-138684000D03*
X131572000Y-138684000D03*
D15*
X104304500Y-141149000D03*
X104304500Y-139954000D03*
D14*
X103378000Y-138684000D03*
X102183000Y-138684000D03*
D16*
X130810000Y-132842000D03*
X129615000Y-132842000D03*
X102927500Y-132931500D03*
X101732500Y-132931500D03*
D17*
X135890000Y-134366000D03*
X135890000Y-132366000D03*
X107950000Y-134334000D03*
X107950000Y-132334000D03*
D18*
X128270000Y-143563000D03*
X128270000Y-145288000D03*
X100330000Y-143510000D03*
X100330000Y-145235000D03*
D19*
X131371000Y-148336000D03*
X133096000Y-148336000D03*
X103174800Y-148082000D03*
X104899800Y-148082000D03*
D20*
X127762000Y-134874000D03*
X127762000Y-136599000D03*
X99822000Y-136599000D03*
X99822000Y-134874000D03*
D18*
X134366000Y-136144000D03*
X134366000Y-137869000D03*
X106172000Y-136144000D03*
X106172000Y-137869000D03*
M02*
