G04 #@! TF.GenerationSoftware,KiCad,Pcbnew,7.0.7*
G04 #@! TF.CreationDate,2023-11-11T11:47:43+00:00*
G04 #@! TF.ProjectId,AD3 Front End Amplifier,41443320-4672-46f6-9e74-20456e642041,rev?*
G04 #@! TF.SameCoordinates,Original*
G04 #@! TF.FileFunction,Paste,Top*
G04 #@! TF.FilePolarity,Positive*
%FSLAX46Y46*%
G04 Gerber Fmt 4.6, Leading zero omitted, Abs format (unit mm)*
G04 Created by KiCad (PCBNEW 7.0.7) date 2023-11-11 11:47:43*
%MOMM*%
%LPD*%
G01*
G04 APERTURE LIST*
G04 Aperture macros list*
%AMRoundRect*
0 Rectangle with rounded corners*
0 $1 Rounding radius*
0 $2 $3 $4 $5 $6 $7 $8 $9 X,Y pos of 4 corners*
0 Add a 4 corners polygon primitive as box body*
4,1,4,$2,$3,$4,$5,$6,$7,$8,$9,$2,$3,0*
0 Add four circle primitives for the rounded corners*
1,1,$1+$1,$2,$3*
1,1,$1+$1,$4,$5*
1,1,$1+$1,$6,$7*
1,1,$1+$1,$8,$9*
0 Add four rect primitives between the rounded corners*
20,1,$1+$1,$2,$3,$4,$5,0*
20,1,$1+$1,$4,$5,$6,$7,0*
20,1,$1+$1,$6,$7,$8,$9,0*
20,1,$1+$1,$8,$9,$2,$3,0*%
G04 Aperture macros list end*
%ADD10RoundRect,0.150000X-0.512500X-0.150000X0.512500X-0.150000X0.512500X0.150000X-0.512500X0.150000X0*%
%ADD11RoundRect,0.150000X0.512500X0.150000X-0.512500X0.150000X-0.512500X-0.150000X0.512500X-0.150000X0*%
%ADD12RoundRect,0.160000X0.197500X0.160000X-0.197500X0.160000X-0.197500X-0.160000X0.197500X-0.160000X0*%
%ADD13RoundRect,0.160000X-0.160000X0.197500X-0.160000X-0.197500X0.160000X-0.197500X0.160000X0.197500X0*%
%ADD14RoundRect,0.160000X0.160000X-0.197500X0.160000X0.197500X-0.160000X0.197500X-0.160000X-0.197500X0*%
%ADD15RoundRect,0.250000X-0.450000X0.350000X-0.450000X-0.350000X0.450000X-0.350000X0.450000X0.350000X0*%
%ADD16RoundRect,0.160000X-0.197500X-0.160000X0.197500X-0.160000X0.197500X0.160000X-0.197500X0.160000X0*%
%ADD17R,0.600000X1.200000*%
%ADD18R,0.990000X5.140000*%
%ADD19R,0.990000X3.000000*%
%ADD20R,3.590000X0.990000*%
%ADD21R,3.000000X0.990000*%
%ADD22R,2.990000X0.990000*%
%ADD23RoundRect,0.160000X0.160000X-0.222500X0.160000X0.222500X-0.160000X0.222500X-0.160000X-0.222500X0*%
%ADD24RoundRect,0.155000X0.212500X0.155000X-0.212500X0.155000X-0.212500X-0.155000X0.212500X-0.155000X0*%
%ADD25RoundRect,0.155000X-0.155000X0.212500X-0.155000X-0.212500X0.155000X-0.212500X0.155000X0.212500X0*%
%ADD26RoundRect,0.155000X-0.212500X-0.155000X0.212500X-0.155000X0.212500X0.155000X-0.212500X0.155000X0*%
%ADD27RoundRect,0.155000X0.155000X-0.212500X0.155000X0.212500X-0.155000X0.212500X-0.155000X-0.212500X0*%
%ADD28RoundRect,0.250000X0.337500X0.475000X-0.337500X0.475000X-0.337500X-0.475000X0.337500X-0.475000X0*%
%ADD29RoundRect,0.237500X-0.237500X0.250000X-0.237500X-0.250000X0.237500X-0.250000X0.237500X0.250000X0*%
%ADD30RoundRect,0.237500X0.250000X0.237500X-0.250000X0.237500X-0.250000X-0.237500X0.250000X-0.237500X0*%
G04 APERTURE END LIST*
D10*
X213482950Y-97043200D03*
X213482950Y-97993200D03*
X213482950Y-98943200D03*
X215757950Y-98943200D03*
X215757950Y-97043200D03*
D11*
X212201950Y-92847200D03*
X212201950Y-91897200D03*
X212201950Y-90947200D03*
X209926950Y-90947200D03*
X209926950Y-92847200D03*
D12*
X209794450Y-97231200D03*
X208599450Y-97231200D03*
D13*
X217922450Y-97903700D03*
X217922450Y-99098700D03*
D14*
X217922450Y-96394200D03*
X217922450Y-95199200D03*
D12*
X211318450Y-95961200D03*
X210123450Y-95961200D03*
D13*
X207762450Y-91045700D03*
X207762450Y-92240700D03*
X206695650Y-91059000D03*
X206695650Y-92254000D03*
D15*
X217922450Y-91151200D03*
X217922450Y-93151200D03*
D16*
X221553450Y-100787200D03*
X222748450Y-100787200D03*
D17*
X223190450Y-94965200D03*
X222240450Y-94965200D03*
X221290450Y-94965200D03*
X221290450Y-97465200D03*
X223190450Y-97465200D03*
X223139650Y-121990800D03*
X222189650Y-121990800D03*
X221239650Y-121990800D03*
X221239650Y-124490800D03*
X223139650Y-124490800D03*
D18*
X201011600Y-87942200D03*
D19*
X201011600Y-95012200D03*
D18*
X201011600Y-102082200D03*
D20*
X203301600Y-104157200D03*
D21*
X209596600Y-104157200D03*
D22*
X215591600Y-104157200D03*
D21*
X221586600Y-104157200D03*
D20*
X227881600Y-104157200D03*
D18*
X230171600Y-102082200D03*
D19*
X230171600Y-95012200D03*
D18*
X230171600Y-87942200D03*
D20*
X227881600Y-85867200D03*
D21*
X221586600Y-85867200D03*
D22*
X215591600Y-85867200D03*
D21*
X209596600Y-85867200D03*
D20*
X203301600Y-85867200D03*
D18*
X200960800Y-114967800D03*
D19*
X200960800Y-122037800D03*
D18*
X200960800Y-129107800D03*
D20*
X203250800Y-131182800D03*
D21*
X209545800Y-131182800D03*
D22*
X215540800Y-131182800D03*
D21*
X221535800Y-131182800D03*
D20*
X227830800Y-131182800D03*
D18*
X230120800Y-129107800D03*
D19*
X230120800Y-122037800D03*
D18*
X230120800Y-114967800D03*
D20*
X227830800Y-112892800D03*
D21*
X221535800Y-112892800D03*
D22*
X215540800Y-112892800D03*
D21*
X209545800Y-112892800D03*
D20*
X203250800Y-112892800D03*
D23*
X226558450Y-92215700D03*
X226558450Y-91070700D03*
D24*
X215441950Y-95199200D03*
X214306950Y-95199200D03*
D25*
X211318450Y-98187700D03*
X211318450Y-99322700D03*
D26*
X209734950Y-94691200D03*
X210869950Y-94691200D03*
D25*
X214366450Y-92091700D03*
X214366450Y-93226700D03*
X219446450Y-94885700D03*
X219446450Y-96020700D03*
D27*
X225034450Y-97350200D03*
X225034450Y-96215200D03*
D28*
X223531950Y-91135200D03*
X221456950Y-91135200D03*
D26*
X221613450Y-99517200D03*
X222748450Y-99517200D03*
D10*
X213432150Y-124068800D03*
X213432150Y-125018800D03*
X213432150Y-125968800D03*
X215707150Y-125968800D03*
X215707150Y-124068800D03*
D11*
X212151150Y-119872800D03*
X212151150Y-118922800D03*
X212151150Y-117972800D03*
X209876150Y-117972800D03*
X209876150Y-119872800D03*
D12*
X209743650Y-124256800D03*
X208548650Y-124256800D03*
D13*
X217871650Y-124929300D03*
X217871650Y-126124300D03*
D14*
X217871650Y-123419800D03*
X217871650Y-122224800D03*
D12*
X211267650Y-122986800D03*
X210072650Y-122986800D03*
D13*
X207711650Y-118071300D03*
X207711650Y-119266300D03*
X206644850Y-118084600D03*
X206644850Y-119279600D03*
D15*
X217871650Y-118176800D03*
X217871650Y-120176800D03*
D16*
X221502650Y-127812800D03*
X222697650Y-127812800D03*
D29*
X182880000Y-82042000D03*
X182880000Y-83867000D03*
D30*
X231648000Y-80772000D03*
X229823000Y-80772000D03*
D23*
X226507650Y-119241300D03*
X226507650Y-118096300D03*
D24*
X214256150Y-122224800D03*
X215391150Y-122224800D03*
D25*
X211267650Y-126348300D03*
X211267650Y-125213300D03*
D26*
X209684150Y-121716800D03*
X210819150Y-121716800D03*
D25*
X214315650Y-119117300D03*
X214315650Y-120252300D03*
X219395650Y-121911300D03*
X219395650Y-123046300D03*
D27*
X224983650Y-124375800D03*
X224983650Y-123240800D03*
D28*
X223481150Y-118160800D03*
X221406150Y-118160800D03*
D26*
X221562650Y-126542800D03*
X222697650Y-126542800D03*
M02*
