%TF.GenerationSoftware,KiCad,Pcbnew,7.0.7*%
%TF.CreationDate,2023-10-29T13:56:51+00:00*%
%TF.ProjectId,AD3 Front End Amplifier,41443320-4672-46f6-9e74-20456e642041,rev?*%
%TF.SameCoordinates,Original*%
%TF.FileFunction,Drillmap*%
%TF.FilePolarity,Positive*%
%FSLAX45Y45*%
G04 Gerber Fmt 4.5, Leading zero omitted, Abs format (unit mm)*
G04 Created by KiCad (PCBNEW 7.0.7) date 2023-10-29 13:56:51*
%MOMM*%
%LPD*%
G01*
G04 APERTURE LIST*
%ADD10C,0.100000*%
%ADD11C,0.200000*%
%ADD12C,0.030000*%
%ADD13C,0.080000*%
%ADD14C,0.089000*%
%ADD15C,0.300000*%
G04 APERTURE END LIST*
D10*
X8930640Y-8902700D02*
X16170910Y-8902700D01*
X16170910Y-15443200D01*
X8930640Y-15443200D01*
X8930640Y-8902700D01*
D11*
D12*
X9713200Y-12608800D02*
X9743200Y-12638800D01*
X9743200Y-12608800D02*
X9713200Y-12638800D01*
X9713200Y-13294600D02*
X9743200Y-13324600D01*
X9743200Y-13294600D02*
X9713200Y-13324600D01*
X9891000Y-13599400D02*
X9921000Y-13629400D01*
X9921000Y-13599400D02*
X9891000Y-13629400D01*
X9891000Y-14259800D02*
X9921000Y-14289800D01*
X9921000Y-14259800D02*
X9891000Y-14289800D01*
X9992600Y-13193000D02*
X10022600Y-13223000D01*
X10022600Y-13193000D02*
X9992600Y-13223000D01*
X10043400Y-12735800D02*
X10073400Y-12765800D01*
X10073400Y-12735800D02*
X10043400Y-12765800D01*
X10043400Y-13421600D02*
X10073400Y-13451600D01*
X10073400Y-13421600D02*
X10043400Y-13451600D01*
X10068800Y-14590000D02*
X10098800Y-14620000D01*
X10098800Y-14590000D02*
X10068800Y-14620000D01*
X10170400Y-14463000D02*
X10200400Y-14493000D01*
X10200400Y-14463000D02*
X10170400Y-14493000D01*
X10209050Y-13532150D02*
X10239050Y-13562150D01*
X10239050Y-13532150D02*
X10209050Y-13562150D01*
X10259850Y-13354350D02*
X10289850Y-13384350D01*
X10289850Y-13354350D02*
X10259850Y-13384350D01*
X10310650Y-13709950D02*
X10340650Y-13739950D01*
X10340650Y-13709950D02*
X10310650Y-13739950D01*
X10322800Y-13066000D02*
X10352800Y-13096000D01*
X10352800Y-13066000D02*
X10322800Y-13096000D01*
X10348200Y-12583400D02*
X10378200Y-12613400D01*
X10378200Y-12583400D02*
X10348200Y-12613400D01*
X10399000Y-14666200D02*
X10429000Y-14696200D01*
X10429000Y-14666200D02*
X10399000Y-14696200D01*
X10424400Y-14894800D02*
X10454400Y-14924800D01*
X10454400Y-14894800D02*
X10424400Y-14924800D01*
X10449800Y-14437600D02*
X10479800Y-14467600D01*
X10479800Y-14437600D02*
X10449800Y-14467600D01*
X10449800Y-14717000D02*
X10479800Y-14747000D01*
X10479800Y-14717000D02*
X10449800Y-14747000D01*
X10500600Y-13777200D02*
X10530600Y-13807200D01*
X10530600Y-13777200D02*
X10500600Y-13807200D01*
X10602200Y-13472400D02*
X10632200Y-13502400D01*
X10632200Y-13472400D02*
X10602200Y-13502400D01*
X10780000Y-13548600D02*
X10810000Y-13578600D01*
X10810000Y-13548600D02*
X10780000Y-13578600D01*
X12685000Y-14412200D02*
X12715000Y-14442200D01*
X12715000Y-14412200D02*
X12685000Y-14442200D01*
X12837400Y-13396200D02*
X12867400Y-13426200D01*
X12867400Y-13396200D02*
X12837400Y-13426200D01*
X12837400Y-13751800D02*
X12867400Y-13781800D01*
X12867400Y-13751800D02*
X12837400Y-13781800D01*
X12888200Y-14463000D02*
X12918200Y-14493000D01*
X12918200Y-14463000D02*
X12888200Y-14493000D01*
X12989800Y-14488400D02*
X13019800Y-14518400D01*
X13019800Y-14488400D02*
X12989800Y-14518400D01*
X13015200Y-13523200D02*
X13045200Y-13553200D01*
X13045200Y-13523200D02*
X13015200Y-13553200D01*
X13032600Y-13325828D02*
X13062600Y-13355828D01*
X13062600Y-13325828D02*
X13032600Y-13355828D01*
X13116800Y-13701000D02*
X13146800Y-13731000D01*
X13146800Y-13701000D02*
X13116800Y-13731000D01*
X13167600Y-14971000D02*
X13197600Y-15001000D01*
X13197600Y-14971000D02*
X13167600Y-15001000D01*
X13218400Y-14691600D02*
X13248400Y-14721600D01*
X13248400Y-14691600D02*
X13218400Y-14721600D01*
X13269200Y-14437600D02*
X13299200Y-14467600D01*
X13299200Y-14437600D02*
X13269200Y-14467600D01*
X13269200Y-14742400D02*
X13299200Y-14772400D01*
X13299200Y-14742400D02*
X13269200Y-14772400D01*
X13320000Y-13777200D02*
X13350000Y-13807200D01*
X13350000Y-13777200D02*
X13320000Y-13807200D01*
X13548600Y-13701000D02*
X13578600Y-13731000D01*
X13578600Y-13701000D02*
X13548600Y-13731000D01*
X13574000Y-13548600D02*
X13604000Y-13578600D01*
X13604000Y-13548600D02*
X13574000Y-13578600D01*
D13*
X10962000Y-12776200D02*
G75*
G03*
X10962000Y-12776200I-40000J0D01*
G01*
X11216000Y-11150600D02*
G75*
G03*
X11216000Y-11150600I-40000J0D01*
G01*
X11232000Y-13360400D02*
G75*
G03*
X11232000Y-13360400I-40000J0D01*
G01*
X11724000Y-12776200D02*
G75*
G03*
X11724000Y-12776200I-40000J0D01*
G01*
X11732000Y-13360400D02*
G75*
G03*
X11732000Y-13360400I-40000J0D01*
G01*
X11978000Y-11150600D02*
G75*
G03*
X11978000Y-11150600I-40000J0D01*
G01*
X13248000Y-11150600D02*
G75*
G03*
X13248000Y-11150600I-40000J0D01*
G01*
X13756000Y-12750800D02*
G75*
G03*
X13756000Y-12750800I-40000J0D01*
G01*
X14010000Y-11150600D02*
G75*
G03*
X14010000Y-11150600I-40000J0D01*
G01*
X14026000Y-13360400D02*
G75*
G03*
X14026000Y-13360400I-40000J0D01*
G01*
X14518000Y-12750800D02*
G75*
G03*
X14518000Y-12750800I-40000J0D01*
G01*
X14526000Y-13360400D02*
G75*
G03*
X14526000Y-13360400I-40000J0D01*
G01*
D14*
X10922000Y-10344100D02*
X10922000Y-10433100D01*
X10877500Y-10388600D02*
X10966500Y-10388600D01*
X11176000Y-10344100D02*
X11176000Y-10433100D01*
X11131500Y-10388600D02*
X11220500Y-10388600D01*
X11684000Y-13925500D02*
X11684000Y-14014500D01*
X11639500Y-13970000D02*
X11728500Y-13970000D01*
X11938000Y-13925500D02*
X11938000Y-14014500D01*
X11893500Y-13970000D02*
X11982500Y-13970000D01*
X13716000Y-10369500D02*
X13716000Y-10458500D01*
X13671500Y-10414000D02*
X13760500Y-10414000D01*
X13970000Y-10369500D02*
X13970000Y-10458500D01*
X13925500Y-10414000D02*
X14014500Y-10414000D01*
X14478000Y-13925500D02*
X14478000Y-14014500D01*
X14433500Y-13970000D02*
X14522500Y-13970000D01*
X14732000Y-13925500D02*
X14732000Y-14014500D01*
X14687500Y-13970000D02*
X14776500Y-13970000D01*
D10*
X9204756Y-10322356D02*
X9204756Y-10251644D01*
X9134044Y-10251644D01*
X9134044Y-10322356D01*
X9204756Y-10322356D01*
X9204756Y-10576356D02*
X9204756Y-10505644D01*
X9134044Y-10505644D01*
X9134044Y-10576356D01*
X9204756Y-10576356D01*
X9204756Y-10830356D02*
X9204756Y-10759644D01*
X9134044Y-10759644D01*
X9134044Y-10830356D01*
X9204756Y-10830356D01*
X9204756Y-11084356D02*
X9204756Y-11013644D01*
X9134044Y-11013644D01*
X9134044Y-11084356D01*
X9204756Y-11084356D01*
X9204756Y-11338356D02*
X9204756Y-11267644D01*
X9134044Y-11267644D01*
X9134044Y-11338356D01*
X9204756Y-11338356D01*
X9204756Y-11592356D02*
X9204756Y-11521644D01*
X9134044Y-11521644D01*
X9134044Y-11592356D01*
X9204756Y-11592356D01*
X9204756Y-11846356D02*
X9204756Y-11775644D01*
X9134044Y-11775644D01*
X9134044Y-11846356D01*
X9204756Y-11846356D01*
X9204756Y-12100356D02*
X9204756Y-12029644D01*
X9134044Y-12029644D01*
X9134044Y-12100356D01*
X9204756Y-12100356D01*
X9204756Y-12354356D02*
X9204756Y-12283644D01*
X9134044Y-12283644D01*
X9134044Y-12354356D01*
X9204756Y-12354356D01*
X9204756Y-12608356D02*
X9204756Y-12537644D01*
X9134044Y-12537644D01*
X9134044Y-12608356D01*
X9204756Y-12608356D01*
X9204756Y-12862356D02*
X9204756Y-12791644D01*
X9134044Y-12791644D01*
X9134044Y-12862356D01*
X9204756Y-12862356D01*
X9204756Y-13116356D02*
X9204756Y-13045644D01*
X9134044Y-13045644D01*
X9134044Y-13116356D01*
X9204756Y-13116356D01*
X9204756Y-13370356D02*
X9204756Y-13299644D01*
X9134044Y-13299644D01*
X9134044Y-13370356D01*
X9204756Y-13370356D01*
X9204756Y-13624356D02*
X9204756Y-13553644D01*
X9134044Y-13553644D01*
X9134044Y-13624356D01*
X9204756Y-13624356D01*
X9204756Y-13878356D02*
X9204756Y-13807644D01*
X9134044Y-13807644D01*
X9134044Y-13878356D01*
X9204756Y-13878356D01*
X9458756Y-10322356D02*
X9458756Y-10251644D01*
X9388044Y-10251644D01*
X9388044Y-10322356D01*
X9458756Y-10322356D01*
X9458756Y-10576356D02*
X9458756Y-10505644D01*
X9388044Y-10505644D01*
X9388044Y-10576356D01*
X9458756Y-10576356D01*
X9458756Y-10830356D02*
X9458756Y-10759644D01*
X9388044Y-10759644D01*
X9388044Y-10830356D01*
X9458756Y-10830356D01*
X9458756Y-11084356D02*
X9458756Y-11013644D01*
X9388044Y-11013644D01*
X9388044Y-11084356D01*
X9458756Y-11084356D01*
X9458756Y-11338356D02*
X9458756Y-11267644D01*
X9388044Y-11267644D01*
X9388044Y-11338356D01*
X9458756Y-11338356D01*
X9458756Y-11592356D02*
X9458756Y-11521644D01*
X9388044Y-11521644D01*
X9388044Y-11592356D01*
X9458756Y-11592356D01*
X9458756Y-11846356D02*
X9458756Y-11775644D01*
X9388044Y-11775644D01*
X9388044Y-11846356D01*
X9458756Y-11846356D01*
X9458756Y-12100356D02*
X9458756Y-12029644D01*
X9388044Y-12029644D01*
X9388044Y-12100356D01*
X9458756Y-12100356D01*
X9458756Y-12354356D02*
X9458756Y-12283644D01*
X9388044Y-12283644D01*
X9388044Y-12354356D01*
X9458756Y-12354356D01*
X9458756Y-12608356D02*
X9458756Y-12537644D01*
X9388044Y-12537644D01*
X9388044Y-12608356D01*
X9458756Y-12608356D01*
X9458756Y-12862356D02*
X9458756Y-12791644D01*
X9388044Y-12791644D01*
X9388044Y-12862356D01*
X9458756Y-12862356D01*
X9458756Y-13116356D02*
X9458756Y-13045644D01*
X9388044Y-13045644D01*
X9388044Y-13116356D01*
X9458756Y-13116356D01*
X9458756Y-13370356D02*
X9458756Y-13299644D01*
X9388044Y-13299644D01*
X9388044Y-13370356D01*
X9458756Y-13370356D01*
X9458756Y-13624356D02*
X9458756Y-13553644D01*
X9388044Y-13553644D01*
X9388044Y-13624356D01*
X9458756Y-13624356D01*
X9458756Y-13878356D02*
X9458756Y-13807644D01*
X9388044Y-13807644D01*
X9388044Y-13878356D01*
X9458756Y-13878356D01*
X15529176Y-10321856D02*
X15529176Y-10251144D01*
X15458464Y-10251144D01*
X15458464Y-10321856D01*
X15529176Y-10321856D01*
X15529176Y-10575856D02*
X15529176Y-10505144D01*
X15458464Y-10505144D01*
X15458464Y-10575856D01*
X15529176Y-10575856D01*
X15529176Y-10829856D02*
X15529176Y-10759144D01*
X15458464Y-10759144D01*
X15458464Y-10829856D01*
X15529176Y-10829856D01*
X15529176Y-11083856D02*
X15529176Y-11013144D01*
X15458464Y-11013144D01*
X15458464Y-11083856D01*
X15529176Y-11083856D01*
X15529176Y-11337856D02*
X15529176Y-11267144D01*
X15458464Y-11267144D01*
X15458464Y-11337856D01*
X15529176Y-11337856D01*
X15529176Y-11591856D02*
X15529176Y-11521144D01*
X15458464Y-11521144D01*
X15458464Y-11591856D01*
X15529176Y-11591856D01*
X15529176Y-11845856D02*
X15529176Y-11775144D01*
X15458464Y-11775144D01*
X15458464Y-11845856D01*
X15529176Y-11845856D01*
X15529176Y-12099856D02*
X15529176Y-12029144D01*
X15458464Y-12029144D01*
X15458464Y-12099856D01*
X15529176Y-12099856D01*
X15529176Y-12353856D02*
X15529176Y-12283144D01*
X15458464Y-12283144D01*
X15458464Y-12353856D01*
X15529176Y-12353856D01*
X15529176Y-12607856D02*
X15529176Y-12537144D01*
X15458464Y-12537144D01*
X15458464Y-12607856D01*
X15529176Y-12607856D01*
X15529176Y-12861856D02*
X15529176Y-12791144D01*
X15458464Y-12791144D01*
X15458464Y-12861856D01*
X15529176Y-12861856D01*
X15529176Y-13115856D02*
X15529176Y-13045144D01*
X15458464Y-13045144D01*
X15458464Y-13115856D01*
X15529176Y-13115856D01*
X15529176Y-13369856D02*
X15529176Y-13299144D01*
X15458464Y-13299144D01*
X15458464Y-13369856D01*
X15529176Y-13369856D01*
X15529176Y-13623856D02*
X15529176Y-13553144D01*
X15458464Y-13553144D01*
X15458464Y-13623856D01*
X15529176Y-13623856D01*
X15529176Y-13877856D02*
X15529176Y-13807144D01*
X15458464Y-13807144D01*
X15458464Y-13877856D01*
X15529176Y-13877856D01*
X15783356Y-10319316D02*
X15783356Y-10248604D01*
X15712644Y-10248604D01*
X15712644Y-10319316D01*
X15783356Y-10319316D01*
X15783356Y-10573316D02*
X15783356Y-10502604D01*
X15712644Y-10502604D01*
X15712644Y-10573316D01*
X15783356Y-10573316D01*
X15783356Y-10827316D02*
X15783356Y-10756604D01*
X15712644Y-10756604D01*
X15712644Y-10827316D01*
X15783356Y-10827316D01*
X15783356Y-11081316D02*
X15783356Y-11010604D01*
X15712644Y-11010604D01*
X15712644Y-11081316D01*
X15783356Y-11081316D01*
X15783356Y-11335316D02*
X15783356Y-11264604D01*
X15712644Y-11264604D01*
X15712644Y-11335316D01*
X15783356Y-11335316D01*
X15783356Y-11589316D02*
X15783356Y-11518604D01*
X15712644Y-11518604D01*
X15712644Y-11589316D01*
X15783356Y-11589316D01*
X15783356Y-11843316D02*
X15783356Y-11772604D01*
X15712644Y-11772604D01*
X15712644Y-11843316D01*
X15783356Y-11843316D01*
X15783356Y-12097316D02*
X15783356Y-12026604D01*
X15712644Y-12026604D01*
X15712644Y-12097316D01*
X15783356Y-12097316D01*
X15783356Y-12351316D02*
X15783356Y-12280604D01*
X15712644Y-12280604D01*
X15712644Y-12351316D01*
X15783356Y-12351316D01*
X15783356Y-12605316D02*
X15783356Y-12534604D01*
X15712644Y-12534604D01*
X15712644Y-12605316D01*
X15783356Y-12605316D01*
X15783356Y-12859316D02*
X15783356Y-12788604D01*
X15712644Y-12788604D01*
X15712644Y-12859316D01*
X15783356Y-12859316D01*
X15783356Y-13113316D02*
X15783356Y-13042604D01*
X15712644Y-13042604D01*
X15712644Y-13113316D01*
X15783356Y-13113316D01*
X15783356Y-13367316D02*
X15783356Y-13296604D01*
X15712644Y-13296604D01*
X15712644Y-13367316D01*
X15783356Y-13367316D01*
X15783356Y-13621316D02*
X15783356Y-13550604D01*
X15712644Y-13550604D01*
X15712644Y-13621316D01*
X15783356Y-13621316D01*
X15783356Y-13875316D02*
X15783356Y-13804604D01*
X15712644Y-13804604D01*
X15712644Y-13875316D01*
X15783356Y-13875316D01*
D15*
X10668000Y-10030600D02*
X10818000Y-9880600D01*
X10668000Y-9730600D01*
X10518000Y-9880600D01*
X10668000Y-10030600D01*
X11176000Y-14628000D02*
X11326000Y-14478000D01*
X11176000Y-14328000D01*
X11026000Y-14478000D01*
X11176000Y-14628000D01*
X11684000Y-10030600D02*
X11834000Y-9880600D01*
X11684000Y-9730600D01*
X11534000Y-9880600D01*
X11684000Y-10030600D01*
X12192000Y-14628000D02*
X12342000Y-14478000D01*
X12192000Y-14328000D01*
X12042000Y-14478000D01*
X12192000Y-14628000D01*
X13462000Y-10056000D02*
X13612000Y-9906000D01*
X13462000Y-9756000D01*
X13312000Y-9906000D01*
X13462000Y-10056000D01*
X13970000Y-14628000D02*
X14120000Y-14478000D01*
X13970000Y-14328000D01*
X13820000Y-14478000D01*
X13970000Y-14628000D01*
X14478000Y-10056000D02*
X14628000Y-9906000D01*
X14478000Y-9756000D01*
X14328000Y-9906000D01*
X14478000Y-10056000D01*
X14986000Y-14628000D02*
X15136000Y-14478000D01*
X14986000Y-14328000D01*
X14836000Y-14478000D01*
X14986000Y-14628000D01*
D11*
X9186417Y-15759684D02*
X9186417Y-15559684D01*
X9186417Y-15559684D02*
X9234036Y-15559684D01*
X9234036Y-15559684D02*
X9262607Y-15569208D01*
X9262607Y-15569208D02*
X9281655Y-15588255D01*
X9281655Y-15588255D02*
X9291179Y-15607303D01*
X9291179Y-15607303D02*
X9300703Y-15645398D01*
X9300703Y-15645398D02*
X9300703Y-15673969D01*
X9300703Y-15673969D02*
X9291179Y-15712065D01*
X9291179Y-15712065D02*
X9281655Y-15731112D01*
X9281655Y-15731112D02*
X9262607Y-15750160D01*
X9262607Y-15750160D02*
X9234036Y-15759684D01*
X9234036Y-15759684D02*
X9186417Y-15759684D01*
X9386417Y-15759684D02*
X9386417Y-15626350D01*
X9386417Y-15664446D02*
X9395941Y-15645398D01*
X9395941Y-15645398D02*
X9405464Y-15635874D01*
X9405464Y-15635874D02*
X9424512Y-15626350D01*
X9424512Y-15626350D02*
X9443560Y-15626350D01*
X9510226Y-15759684D02*
X9510226Y-15626350D01*
X9510226Y-15559684D02*
X9500703Y-15569208D01*
X9500703Y-15569208D02*
X9510226Y-15578731D01*
X9510226Y-15578731D02*
X9519750Y-15569208D01*
X9519750Y-15569208D02*
X9510226Y-15559684D01*
X9510226Y-15559684D02*
X9510226Y-15578731D01*
X9634036Y-15759684D02*
X9614988Y-15750160D01*
X9614988Y-15750160D02*
X9605464Y-15731112D01*
X9605464Y-15731112D02*
X9605464Y-15559684D01*
X9738798Y-15759684D02*
X9719750Y-15750160D01*
X9719750Y-15750160D02*
X9710226Y-15731112D01*
X9710226Y-15731112D02*
X9710226Y-15559684D01*
X9967369Y-15759684D02*
X9967369Y-15559684D01*
X9967369Y-15559684D02*
X10034036Y-15702541D01*
X10034036Y-15702541D02*
X10100703Y-15559684D01*
X10100703Y-15559684D02*
X10100703Y-15759684D01*
X10281655Y-15759684D02*
X10281655Y-15654922D01*
X10281655Y-15654922D02*
X10272131Y-15635874D01*
X10272131Y-15635874D02*
X10253084Y-15626350D01*
X10253084Y-15626350D02*
X10214988Y-15626350D01*
X10214988Y-15626350D02*
X10195941Y-15635874D01*
X10281655Y-15750160D02*
X10262607Y-15759684D01*
X10262607Y-15759684D02*
X10214988Y-15759684D01*
X10214988Y-15759684D02*
X10195941Y-15750160D01*
X10195941Y-15750160D02*
X10186417Y-15731112D01*
X10186417Y-15731112D02*
X10186417Y-15712065D01*
X10186417Y-15712065D02*
X10195941Y-15693017D01*
X10195941Y-15693017D02*
X10214988Y-15683493D01*
X10214988Y-15683493D02*
X10262607Y-15683493D01*
X10262607Y-15683493D02*
X10281655Y-15673969D01*
X10376893Y-15626350D02*
X10376893Y-15826350D01*
X10376893Y-15635874D02*
X10395941Y-15626350D01*
X10395941Y-15626350D02*
X10434036Y-15626350D01*
X10434036Y-15626350D02*
X10453084Y-15635874D01*
X10453084Y-15635874D02*
X10462607Y-15645398D01*
X10462607Y-15645398D02*
X10472131Y-15664446D01*
X10472131Y-15664446D02*
X10472131Y-15721588D01*
X10472131Y-15721588D02*
X10462607Y-15740636D01*
X10462607Y-15740636D02*
X10453084Y-15750160D01*
X10453084Y-15750160D02*
X10434036Y-15759684D01*
X10434036Y-15759684D02*
X10395941Y-15759684D01*
X10395941Y-15759684D02*
X10376893Y-15750160D01*
X10557845Y-15740636D02*
X10567369Y-15750160D01*
X10567369Y-15750160D02*
X10557845Y-15759684D01*
X10557845Y-15759684D02*
X10548322Y-15750160D01*
X10548322Y-15750160D02*
X10557845Y-15740636D01*
X10557845Y-15740636D02*
X10557845Y-15759684D01*
X10557845Y-15635874D02*
X10567369Y-15645398D01*
X10567369Y-15645398D02*
X10557845Y-15654922D01*
X10557845Y-15654922D02*
X10548322Y-15645398D01*
X10548322Y-15645398D02*
X10557845Y-15635874D01*
X10557845Y-15635874D02*
X10557845Y-15654922D01*
D12*
X8895640Y-16073200D02*
X8925640Y-16103200D01*
X8925640Y-16073200D02*
X8895640Y-16103200D01*
D11*
X9224512Y-15979684D02*
X9243560Y-15979684D01*
X9243560Y-15979684D02*
X9262607Y-15989208D01*
X9262607Y-15989208D02*
X9272131Y-15998731D01*
X9272131Y-15998731D02*
X9281655Y-16017779D01*
X9281655Y-16017779D02*
X9291179Y-16055874D01*
X9291179Y-16055874D02*
X9291179Y-16103493D01*
X9291179Y-16103493D02*
X9281655Y-16141588D01*
X9281655Y-16141588D02*
X9272131Y-16160636D01*
X9272131Y-16160636D02*
X9262607Y-16170160D01*
X9262607Y-16170160D02*
X9243560Y-16179684D01*
X9243560Y-16179684D02*
X9224512Y-16179684D01*
X9224512Y-16179684D02*
X9205464Y-16170160D01*
X9205464Y-16170160D02*
X9195941Y-16160636D01*
X9195941Y-16160636D02*
X9186417Y-16141588D01*
X9186417Y-16141588D02*
X9176893Y-16103493D01*
X9176893Y-16103493D02*
X9176893Y-16055874D01*
X9176893Y-16055874D02*
X9186417Y-16017779D01*
X9186417Y-16017779D02*
X9195941Y-15998731D01*
X9195941Y-15998731D02*
X9205464Y-15989208D01*
X9205464Y-15989208D02*
X9224512Y-15979684D01*
X9376893Y-16160636D02*
X9386417Y-16170160D01*
X9386417Y-16170160D02*
X9376893Y-16179684D01*
X9376893Y-16179684D02*
X9367369Y-16170160D01*
X9367369Y-16170160D02*
X9376893Y-16160636D01*
X9376893Y-16160636D02*
X9376893Y-16179684D01*
X9453084Y-15979684D02*
X9576893Y-15979684D01*
X9576893Y-15979684D02*
X9510226Y-16055874D01*
X9510226Y-16055874D02*
X9538798Y-16055874D01*
X9538798Y-16055874D02*
X9557845Y-16065398D01*
X9557845Y-16065398D02*
X9567369Y-16074922D01*
X9567369Y-16074922D02*
X9576893Y-16093969D01*
X9576893Y-16093969D02*
X9576893Y-16141588D01*
X9576893Y-16141588D02*
X9567369Y-16160636D01*
X9567369Y-16160636D02*
X9557845Y-16170160D01*
X9557845Y-16170160D02*
X9538798Y-16179684D01*
X9538798Y-16179684D02*
X9481655Y-16179684D01*
X9481655Y-16179684D02*
X9462607Y-16170160D01*
X9462607Y-16170160D02*
X9453084Y-16160636D01*
X9700703Y-15979684D02*
X9719750Y-15979684D01*
X9719750Y-15979684D02*
X9738798Y-15989208D01*
X9738798Y-15989208D02*
X9748322Y-15998731D01*
X9748322Y-15998731D02*
X9757845Y-16017779D01*
X9757845Y-16017779D02*
X9767369Y-16055874D01*
X9767369Y-16055874D02*
X9767369Y-16103493D01*
X9767369Y-16103493D02*
X9757845Y-16141588D01*
X9757845Y-16141588D02*
X9748322Y-16160636D01*
X9748322Y-16160636D02*
X9738798Y-16170160D01*
X9738798Y-16170160D02*
X9719750Y-16179684D01*
X9719750Y-16179684D02*
X9700703Y-16179684D01*
X9700703Y-16179684D02*
X9681655Y-16170160D01*
X9681655Y-16170160D02*
X9672131Y-16160636D01*
X9672131Y-16160636D02*
X9662607Y-16141588D01*
X9662607Y-16141588D02*
X9653084Y-16103493D01*
X9653084Y-16103493D02*
X9653084Y-16055874D01*
X9653084Y-16055874D02*
X9662607Y-16017779D01*
X9662607Y-16017779D02*
X9672131Y-15998731D01*
X9672131Y-15998731D02*
X9681655Y-15989208D01*
X9681655Y-15989208D02*
X9700703Y-15979684D01*
X9891179Y-15979684D02*
X9910226Y-15979684D01*
X9910226Y-15979684D02*
X9929274Y-15989208D01*
X9929274Y-15989208D02*
X9938798Y-15998731D01*
X9938798Y-15998731D02*
X9948322Y-16017779D01*
X9948322Y-16017779D02*
X9957845Y-16055874D01*
X9957845Y-16055874D02*
X9957845Y-16103493D01*
X9957845Y-16103493D02*
X9948322Y-16141588D01*
X9948322Y-16141588D02*
X9938798Y-16160636D01*
X9938798Y-16160636D02*
X9929274Y-16170160D01*
X9929274Y-16170160D02*
X9910226Y-16179684D01*
X9910226Y-16179684D02*
X9891179Y-16179684D01*
X9891179Y-16179684D02*
X9872131Y-16170160D01*
X9872131Y-16170160D02*
X9862607Y-16160636D01*
X9862607Y-16160636D02*
X9853084Y-16141588D01*
X9853084Y-16141588D02*
X9843560Y-16103493D01*
X9843560Y-16103493D02*
X9843560Y-16055874D01*
X9843560Y-16055874D02*
X9853084Y-16017779D01*
X9853084Y-16017779D02*
X9862607Y-15998731D01*
X9862607Y-15998731D02*
X9872131Y-15989208D01*
X9872131Y-15989208D02*
X9891179Y-15979684D01*
X10043560Y-16179684D02*
X10043560Y-16046350D01*
X10043560Y-16065398D02*
X10053084Y-16055874D01*
X10053084Y-16055874D02*
X10072131Y-16046350D01*
X10072131Y-16046350D02*
X10100703Y-16046350D01*
X10100703Y-16046350D02*
X10119750Y-16055874D01*
X10119750Y-16055874D02*
X10129274Y-16074922D01*
X10129274Y-16074922D02*
X10129274Y-16179684D01*
X10129274Y-16074922D02*
X10138798Y-16055874D01*
X10138798Y-16055874D02*
X10157845Y-16046350D01*
X10157845Y-16046350D02*
X10186417Y-16046350D01*
X10186417Y-16046350D02*
X10205465Y-16055874D01*
X10205465Y-16055874D02*
X10214988Y-16074922D01*
X10214988Y-16074922D02*
X10214988Y-16179684D01*
X10310226Y-16179684D02*
X10310226Y-16046350D01*
X10310226Y-16065398D02*
X10319750Y-16055874D01*
X10319750Y-16055874D02*
X10338798Y-16046350D01*
X10338798Y-16046350D02*
X10367369Y-16046350D01*
X10367369Y-16046350D02*
X10386417Y-16055874D01*
X10386417Y-16055874D02*
X10395941Y-16074922D01*
X10395941Y-16074922D02*
X10395941Y-16179684D01*
X10395941Y-16074922D02*
X10405465Y-16055874D01*
X10405465Y-16055874D02*
X10424512Y-16046350D01*
X10424512Y-16046350D02*
X10453084Y-16046350D01*
X10453084Y-16046350D02*
X10472131Y-16055874D01*
X10472131Y-16055874D02*
X10481655Y-16074922D01*
X10481655Y-16074922D02*
X10481655Y-16179684D01*
X10872131Y-15970160D02*
X10700703Y-16227303D01*
X11129274Y-15979684D02*
X11148322Y-15979684D01*
X11148322Y-15979684D02*
X11167369Y-15989208D01*
X11167369Y-15989208D02*
X11176893Y-15998731D01*
X11176893Y-15998731D02*
X11186417Y-16017779D01*
X11186417Y-16017779D02*
X11195941Y-16055874D01*
X11195941Y-16055874D02*
X11195941Y-16103493D01*
X11195941Y-16103493D02*
X11186417Y-16141588D01*
X11186417Y-16141588D02*
X11176893Y-16160636D01*
X11176893Y-16160636D02*
X11167369Y-16170160D01*
X11167369Y-16170160D02*
X11148322Y-16179684D01*
X11148322Y-16179684D02*
X11129274Y-16179684D01*
X11129274Y-16179684D02*
X11110227Y-16170160D01*
X11110227Y-16170160D02*
X11100703Y-16160636D01*
X11100703Y-16160636D02*
X11091179Y-16141588D01*
X11091179Y-16141588D02*
X11081655Y-16103493D01*
X11081655Y-16103493D02*
X11081655Y-16055874D01*
X11081655Y-16055874D02*
X11091179Y-16017779D01*
X11091179Y-16017779D02*
X11100703Y-15998731D01*
X11100703Y-15998731D02*
X11110227Y-15989208D01*
X11110227Y-15989208D02*
X11129274Y-15979684D01*
X11281655Y-16160636D02*
X11291179Y-16170160D01*
X11291179Y-16170160D02*
X11281655Y-16179684D01*
X11281655Y-16179684D02*
X11272131Y-16170160D01*
X11272131Y-16170160D02*
X11281655Y-16160636D01*
X11281655Y-16160636D02*
X11281655Y-16179684D01*
X11414988Y-15979684D02*
X11434036Y-15979684D01*
X11434036Y-15979684D02*
X11453084Y-15989208D01*
X11453084Y-15989208D02*
X11462607Y-15998731D01*
X11462607Y-15998731D02*
X11472131Y-16017779D01*
X11472131Y-16017779D02*
X11481655Y-16055874D01*
X11481655Y-16055874D02*
X11481655Y-16103493D01*
X11481655Y-16103493D02*
X11472131Y-16141588D01*
X11472131Y-16141588D02*
X11462607Y-16160636D01*
X11462607Y-16160636D02*
X11453084Y-16170160D01*
X11453084Y-16170160D02*
X11434036Y-16179684D01*
X11434036Y-16179684D02*
X11414988Y-16179684D01*
X11414988Y-16179684D02*
X11395941Y-16170160D01*
X11395941Y-16170160D02*
X11386417Y-16160636D01*
X11386417Y-16160636D02*
X11376893Y-16141588D01*
X11376893Y-16141588D02*
X11367369Y-16103493D01*
X11367369Y-16103493D02*
X11367369Y-16055874D01*
X11367369Y-16055874D02*
X11376893Y-16017779D01*
X11376893Y-16017779D02*
X11386417Y-15998731D01*
X11386417Y-15998731D02*
X11395941Y-15989208D01*
X11395941Y-15989208D02*
X11414988Y-15979684D01*
X11672131Y-16179684D02*
X11557846Y-16179684D01*
X11614988Y-16179684D02*
X11614988Y-15979684D01*
X11614988Y-15979684D02*
X11595941Y-16008255D01*
X11595941Y-16008255D02*
X11576893Y-16027303D01*
X11576893Y-16027303D02*
X11557846Y-16036827D01*
X11862607Y-16179684D02*
X11748322Y-16179684D01*
X11805465Y-16179684D02*
X11805465Y-15979684D01*
X11805465Y-15979684D02*
X11786417Y-16008255D01*
X11786417Y-16008255D02*
X11767369Y-16027303D01*
X11767369Y-16027303D02*
X11748322Y-16036827D01*
X11976893Y-16065398D02*
X11957846Y-16055874D01*
X11957846Y-16055874D02*
X11948322Y-16046350D01*
X11948322Y-16046350D02*
X11938798Y-16027303D01*
X11938798Y-16027303D02*
X11938798Y-16017779D01*
X11938798Y-16017779D02*
X11948322Y-15998731D01*
X11948322Y-15998731D02*
X11957846Y-15989208D01*
X11957846Y-15989208D02*
X11976893Y-15979684D01*
X11976893Y-15979684D02*
X12014988Y-15979684D01*
X12014988Y-15979684D02*
X12034036Y-15989208D01*
X12034036Y-15989208D02*
X12043560Y-15998731D01*
X12043560Y-15998731D02*
X12053084Y-16017779D01*
X12053084Y-16017779D02*
X12053084Y-16027303D01*
X12053084Y-16027303D02*
X12043560Y-16046350D01*
X12043560Y-16046350D02*
X12034036Y-16055874D01*
X12034036Y-16055874D02*
X12014988Y-16065398D01*
X12014988Y-16065398D02*
X11976893Y-16065398D01*
X11976893Y-16065398D02*
X11957846Y-16074922D01*
X11957846Y-16074922D02*
X11948322Y-16084446D01*
X11948322Y-16084446D02*
X11938798Y-16103493D01*
X11938798Y-16103493D02*
X11938798Y-16141588D01*
X11938798Y-16141588D02*
X11948322Y-16160636D01*
X11948322Y-16160636D02*
X11957846Y-16170160D01*
X11957846Y-16170160D02*
X11976893Y-16179684D01*
X11976893Y-16179684D02*
X12014988Y-16179684D01*
X12014988Y-16179684D02*
X12034036Y-16170160D01*
X12034036Y-16170160D02*
X12043560Y-16160636D01*
X12043560Y-16160636D02*
X12053084Y-16141588D01*
X12053084Y-16141588D02*
X12053084Y-16103493D01*
X12053084Y-16103493D02*
X12043560Y-16084446D01*
X12043560Y-16084446D02*
X12034036Y-16074922D01*
X12034036Y-16074922D02*
X12014988Y-16065398D01*
X12129274Y-15979684D02*
X12129274Y-16017779D01*
X12205465Y-15979684D02*
X12205465Y-16017779D01*
X12500703Y-16255874D02*
X12491179Y-16246350D01*
X12491179Y-16246350D02*
X12472131Y-16217779D01*
X12472131Y-16217779D02*
X12462608Y-16198731D01*
X12462608Y-16198731D02*
X12453084Y-16170160D01*
X12453084Y-16170160D02*
X12443560Y-16122541D01*
X12443560Y-16122541D02*
X12443560Y-16084446D01*
X12443560Y-16084446D02*
X12453084Y-16036827D01*
X12453084Y-16036827D02*
X12462608Y-16008255D01*
X12462608Y-16008255D02*
X12472131Y-15989208D01*
X12472131Y-15989208D02*
X12491179Y-15960636D01*
X12491179Y-15960636D02*
X12500703Y-15951112D01*
X12557846Y-15979684D02*
X12681655Y-15979684D01*
X12681655Y-15979684D02*
X12614988Y-16055874D01*
X12614988Y-16055874D02*
X12643560Y-16055874D01*
X12643560Y-16055874D02*
X12662608Y-16065398D01*
X12662608Y-16065398D02*
X12672131Y-16074922D01*
X12672131Y-16074922D02*
X12681655Y-16093969D01*
X12681655Y-16093969D02*
X12681655Y-16141588D01*
X12681655Y-16141588D02*
X12672131Y-16160636D01*
X12672131Y-16160636D02*
X12662608Y-16170160D01*
X12662608Y-16170160D02*
X12643560Y-16179684D01*
X12643560Y-16179684D02*
X12586417Y-16179684D01*
X12586417Y-16179684D02*
X12567369Y-16170160D01*
X12567369Y-16170160D02*
X12557846Y-16160636D01*
X12853084Y-15979684D02*
X12814988Y-15979684D01*
X12814988Y-15979684D02*
X12795941Y-15989208D01*
X12795941Y-15989208D02*
X12786417Y-15998731D01*
X12786417Y-15998731D02*
X12767369Y-16027303D01*
X12767369Y-16027303D02*
X12757846Y-16065398D01*
X12757846Y-16065398D02*
X12757846Y-16141588D01*
X12757846Y-16141588D02*
X12767369Y-16160636D01*
X12767369Y-16160636D02*
X12776893Y-16170160D01*
X12776893Y-16170160D02*
X12795941Y-16179684D01*
X12795941Y-16179684D02*
X12834036Y-16179684D01*
X12834036Y-16179684D02*
X12853084Y-16170160D01*
X12853084Y-16170160D02*
X12862608Y-16160636D01*
X12862608Y-16160636D02*
X12872131Y-16141588D01*
X12872131Y-16141588D02*
X12872131Y-16093969D01*
X12872131Y-16093969D02*
X12862608Y-16074922D01*
X12862608Y-16074922D02*
X12853084Y-16065398D01*
X12853084Y-16065398D02*
X12834036Y-16055874D01*
X12834036Y-16055874D02*
X12795941Y-16055874D01*
X12795941Y-16055874D02*
X12776893Y-16065398D01*
X12776893Y-16065398D02*
X12767369Y-16074922D01*
X12767369Y-16074922D02*
X12757846Y-16093969D01*
X13110227Y-16179684D02*
X13110227Y-15979684D01*
X13195941Y-16179684D02*
X13195941Y-16074922D01*
X13195941Y-16074922D02*
X13186417Y-16055874D01*
X13186417Y-16055874D02*
X13167370Y-16046350D01*
X13167370Y-16046350D02*
X13138798Y-16046350D01*
X13138798Y-16046350D02*
X13119750Y-16055874D01*
X13119750Y-16055874D02*
X13110227Y-16065398D01*
X13319750Y-16179684D02*
X13300703Y-16170160D01*
X13300703Y-16170160D02*
X13291179Y-16160636D01*
X13291179Y-16160636D02*
X13281655Y-16141588D01*
X13281655Y-16141588D02*
X13281655Y-16084446D01*
X13281655Y-16084446D02*
X13291179Y-16065398D01*
X13291179Y-16065398D02*
X13300703Y-16055874D01*
X13300703Y-16055874D02*
X13319750Y-16046350D01*
X13319750Y-16046350D02*
X13348322Y-16046350D01*
X13348322Y-16046350D02*
X13367370Y-16055874D01*
X13367370Y-16055874D02*
X13376893Y-16065398D01*
X13376893Y-16065398D02*
X13386417Y-16084446D01*
X13386417Y-16084446D02*
X13386417Y-16141588D01*
X13386417Y-16141588D02*
X13376893Y-16160636D01*
X13376893Y-16160636D02*
X13367370Y-16170160D01*
X13367370Y-16170160D02*
X13348322Y-16179684D01*
X13348322Y-16179684D02*
X13319750Y-16179684D01*
X13500703Y-16179684D02*
X13481655Y-16170160D01*
X13481655Y-16170160D02*
X13472131Y-16151112D01*
X13472131Y-16151112D02*
X13472131Y-15979684D01*
X13653084Y-16170160D02*
X13634036Y-16179684D01*
X13634036Y-16179684D02*
X13595941Y-16179684D01*
X13595941Y-16179684D02*
X13576893Y-16170160D01*
X13576893Y-16170160D02*
X13567370Y-16151112D01*
X13567370Y-16151112D02*
X13567370Y-16074922D01*
X13567370Y-16074922D02*
X13576893Y-16055874D01*
X13576893Y-16055874D02*
X13595941Y-16046350D01*
X13595941Y-16046350D02*
X13634036Y-16046350D01*
X13634036Y-16046350D02*
X13653084Y-16055874D01*
X13653084Y-16055874D02*
X13662608Y-16074922D01*
X13662608Y-16074922D02*
X13662608Y-16093969D01*
X13662608Y-16093969D02*
X13567370Y-16113017D01*
X13738798Y-16170160D02*
X13757846Y-16179684D01*
X13757846Y-16179684D02*
X13795941Y-16179684D01*
X13795941Y-16179684D02*
X13814989Y-16170160D01*
X13814989Y-16170160D02*
X13824512Y-16151112D01*
X13824512Y-16151112D02*
X13824512Y-16141588D01*
X13824512Y-16141588D02*
X13814989Y-16122541D01*
X13814989Y-16122541D02*
X13795941Y-16113017D01*
X13795941Y-16113017D02*
X13767370Y-16113017D01*
X13767370Y-16113017D02*
X13748322Y-16103493D01*
X13748322Y-16103493D02*
X13738798Y-16084446D01*
X13738798Y-16084446D02*
X13738798Y-16074922D01*
X13738798Y-16074922D02*
X13748322Y-16055874D01*
X13748322Y-16055874D02*
X13767370Y-16046350D01*
X13767370Y-16046350D02*
X13795941Y-16046350D01*
X13795941Y-16046350D02*
X13814989Y-16055874D01*
X13891179Y-16255874D02*
X13900703Y-16246350D01*
X13900703Y-16246350D02*
X13919751Y-16217779D01*
X13919751Y-16217779D02*
X13929274Y-16198731D01*
X13929274Y-16198731D02*
X13938798Y-16170160D01*
X13938798Y-16170160D02*
X13948322Y-16122541D01*
X13948322Y-16122541D02*
X13948322Y-16084446D01*
X13948322Y-16084446D02*
X13938798Y-16036827D01*
X13938798Y-16036827D02*
X13929274Y-16008255D01*
X13929274Y-16008255D02*
X13919751Y-15989208D01*
X13919751Y-15989208D02*
X13900703Y-15960636D01*
X13900703Y-15960636D02*
X13891179Y-15951112D01*
D13*
X8925640Y-16352200D02*
G75*
G03*
X8925640Y-16352200I-40000J0D01*
G01*
D11*
X9224512Y-16243684D02*
X9243560Y-16243684D01*
X9243560Y-16243684D02*
X9262607Y-16253208D01*
X9262607Y-16253208D02*
X9272131Y-16262731D01*
X9272131Y-16262731D02*
X9281655Y-16281779D01*
X9281655Y-16281779D02*
X9291179Y-16319874D01*
X9291179Y-16319874D02*
X9291179Y-16367493D01*
X9291179Y-16367493D02*
X9281655Y-16405588D01*
X9281655Y-16405588D02*
X9272131Y-16424636D01*
X9272131Y-16424636D02*
X9262607Y-16434160D01*
X9262607Y-16434160D02*
X9243560Y-16443684D01*
X9243560Y-16443684D02*
X9224512Y-16443684D01*
X9224512Y-16443684D02*
X9205464Y-16434160D01*
X9205464Y-16434160D02*
X9195941Y-16424636D01*
X9195941Y-16424636D02*
X9186417Y-16405588D01*
X9186417Y-16405588D02*
X9176893Y-16367493D01*
X9176893Y-16367493D02*
X9176893Y-16319874D01*
X9176893Y-16319874D02*
X9186417Y-16281779D01*
X9186417Y-16281779D02*
X9195941Y-16262731D01*
X9195941Y-16262731D02*
X9205464Y-16253208D01*
X9205464Y-16253208D02*
X9224512Y-16243684D01*
X9376893Y-16424636D02*
X9386417Y-16434160D01*
X9386417Y-16434160D02*
X9376893Y-16443684D01*
X9376893Y-16443684D02*
X9367369Y-16434160D01*
X9367369Y-16434160D02*
X9376893Y-16424636D01*
X9376893Y-16424636D02*
X9376893Y-16443684D01*
X9500703Y-16329398D02*
X9481655Y-16319874D01*
X9481655Y-16319874D02*
X9472131Y-16310350D01*
X9472131Y-16310350D02*
X9462607Y-16291303D01*
X9462607Y-16291303D02*
X9462607Y-16281779D01*
X9462607Y-16281779D02*
X9472131Y-16262731D01*
X9472131Y-16262731D02*
X9481655Y-16253208D01*
X9481655Y-16253208D02*
X9500703Y-16243684D01*
X9500703Y-16243684D02*
X9538798Y-16243684D01*
X9538798Y-16243684D02*
X9557845Y-16253208D01*
X9557845Y-16253208D02*
X9567369Y-16262731D01*
X9567369Y-16262731D02*
X9576893Y-16281779D01*
X9576893Y-16281779D02*
X9576893Y-16291303D01*
X9576893Y-16291303D02*
X9567369Y-16310350D01*
X9567369Y-16310350D02*
X9557845Y-16319874D01*
X9557845Y-16319874D02*
X9538798Y-16329398D01*
X9538798Y-16329398D02*
X9500703Y-16329398D01*
X9500703Y-16329398D02*
X9481655Y-16338922D01*
X9481655Y-16338922D02*
X9472131Y-16348446D01*
X9472131Y-16348446D02*
X9462607Y-16367493D01*
X9462607Y-16367493D02*
X9462607Y-16405588D01*
X9462607Y-16405588D02*
X9472131Y-16424636D01*
X9472131Y-16424636D02*
X9481655Y-16434160D01*
X9481655Y-16434160D02*
X9500703Y-16443684D01*
X9500703Y-16443684D02*
X9538798Y-16443684D01*
X9538798Y-16443684D02*
X9557845Y-16434160D01*
X9557845Y-16434160D02*
X9567369Y-16424636D01*
X9567369Y-16424636D02*
X9576893Y-16405588D01*
X9576893Y-16405588D02*
X9576893Y-16367493D01*
X9576893Y-16367493D02*
X9567369Y-16348446D01*
X9567369Y-16348446D02*
X9557845Y-16338922D01*
X9557845Y-16338922D02*
X9538798Y-16329398D01*
X9700703Y-16243684D02*
X9719750Y-16243684D01*
X9719750Y-16243684D02*
X9738798Y-16253208D01*
X9738798Y-16253208D02*
X9748322Y-16262731D01*
X9748322Y-16262731D02*
X9757845Y-16281779D01*
X9757845Y-16281779D02*
X9767369Y-16319874D01*
X9767369Y-16319874D02*
X9767369Y-16367493D01*
X9767369Y-16367493D02*
X9757845Y-16405588D01*
X9757845Y-16405588D02*
X9748322Y-16424636D01*
X9748322Y-16424636D02*
X9738798Y-16434160D01*
X9738798Y-16434160D02*
X9719750Y-16443684D01*
X9719750Y-16443684D02*
X9700703Y-16443684D01*
X9700703Y-16443684D02*
X9681655Y-16434160D01*
X9681655Y-16434160D02*
X9672131Y-16424636D01*
X9672131Y-16424636D02*
X9662607Y-16405588D01*
X9662607Y-16405588D02*
X9653084Y-16367493D01*
X9653084Y-16367493D02*
X9653084Y-16319874D01*
X9653084Y-16319874D02*
X9662607Y-16281779D01*
X9662607Y-16281779D02*
X9672131Y-16262731D01*
X9672131Y-16262731D02*
X9681655Y-16253208D01*
X9681655Y-16253208D02*
X9700703Y-16243684D01*
X9891179Y-16243684D02*
X9910226Y-16243684D01*
X9910226Y-16243684D02*
X9929274Y-16253208D01*
X9929274Y-16253208D02*
X9938798Y-16262731D01*
X9938798Y-16262731D02*
X9948322Y-16281779D01*
X9948322Y-16281779D02*
X9957845Y-16319874D01*
X9957845Y-16319874D02*
X9957845Y-16367493D01*
X9957845Y-16367493D02*
X9948322Y-16405588D01*
X9948322Y-16405588D02*
X9938798Y-16424636D01*
X9938798Y-16424636D02*
X9929274Y-16434160D01*
X9929274Y-16434160D02*
X9910226Y-16443684D01*
X9910226Y-16443684D02*
X9891179Y-16443684D01*
X9891179Y-16443684D02*
X9872131Y-16434160D01*
X9872131Y-16434160D02*
X9862607Y-16424636D01*
X9862607Y-16424636D02*
X9853084Y-16405588D01*
X9853084Y-16405588D02*
X9843560Y-16367493D01*
X9843560Y-16367493D02*
X9843560Y-16319874D01*
X9843560Y-16319874D02*
X9853084Y-16281779D01*
X9853084Y-16281779D02*
X9862607Y-16262731D01*
X9862607Y-16262731D02*
X9872131Y-16253208D01*
X9872131Y-16253208D02*
X9891179Y-16243684D01*
X10043560Y-16443684D02*
X10043560Y-16310350D01*
X10043560Y-16329398D02*
X10053084Y-16319874D01*
X10053084Y-16319874D02*
X10072131Y-16310350D01*
X10072131Y-16310350D02*
X10100703Y-16310350D01*
X10100703Y-16310350D02*
X10119750Y-16319874D01*
X10119750Y-16319874D02*
X10129274Y-16338922D01*
X10129274Y-16338922D02*
X10129274Y-16443684D01*
X10129274Y-16338922D02*
X10138798Y-16319874D01*
X10138798Y-16319874D02*
X10157845Y-16310350D01*
X10157845Y-16310350D02*
X10186417Y-16310350D01*
X10186417Y-16310350D02*
X10205465Y-16319874D01*
X10205465Y-16319874D02*
X10214988Y-16338922D01*
X10214988Y-16338922D02*
X10214988Y-16443684D01*
X10310226Y-16443684D02*
X10310226Y-16310350D01*
X10310226Y-16329398D02*
X10319750Y-16319874D01*
X10319750Y-16319874D02*
X10338798Y-16310350D01*
X10338798Y-16310350D02*
X10367369Y-16310350D01*
X10367369Y-16310350D02*
X10386417Y-16319874D01*
X10386417Y-16319874D02*
X10395941Y-16338922D01*
X10395941Y-16338922D02*
X10395941Y-16443684D01*
X10395941Y-16338922D02*
X10405465Y-16319874D01*
X10405465Y-16319874D02*
X10424512Y-16310350D01*
X10424512Y-16310350D02*
X10453084Y-16310350D01*
X10453084Y-16310350D02*
X10472131Y-16319874D01*
X10472131Y-16319874D02*
X10481655Y-16338922D01*
X10481655Y-16338922D02*
X10481655Y-16443684D01*
X10872131Y-16234160D02*
X10700703Y-16491303D01*
X11129274Y-16243684D02*
X11148322Y-16243684D01*
X11148322Y-16243684D02*
X11167369Y-16253208D01*
X11167369Y-16253208D02*
X11176893Y-16262731D01*
X11176893Y-16262731D02*
X11186417Y-16281779D01*
X11186417Y-16281779D02*
X11195941Y-16319874D01*
X11195941Y-16319874D02*
X11195941Y-16367493D01*
X11195941Y-16367493D02*
X11186417Y-16405588D01*
X11186417Y-16405588D02*
X11176893Y-16424636D01*
X11176893Y-16424636D02*
X11167369Y-16434160D01*
X11167369Y-16434160D02*
X11148322Y-16443684D01*
X11148322Y-16443684D02*
X11129274Y-16443684D01*
X11129274Y-16443684D02*
X11110227Y-16434160D01*
X11110227Y-16434160D02*
X11100703Y-16424636D01*
X11100703Y-16424636D02*
X11091179Y-16405588D01*
X11091179Y-16405588D02*
X11081655Y-16367493D01*
X11081655Y-16367493D02*
X11081655Y-16319874D01*
X11081655Y-16319874D02*
X11091179Y-16281779D01*
X11091179Y-16281779D02*
X11100703Y-16262731D01*
X11100703Y-16262731D02*
X11110227Y-16253208D01*
X11110227Y-16253208D02*
X11129274Y-16243684D01*
X11281655Y-16424636D02*
X11291179Y-16434160D01*
X11291179Y-16434160D02*
X11281655Y-16443684D01*
X11281655Y-16443684D02*
X11272131Y-16434160D01*
X11272131Y-16434160D02*
X11281655Y-16424636D01*
X11281655Y-16424636D02*
X11281655Y-16443684D01*
X11414988Y-16243684D02*
X11434036Y-16243684D01*
X11434036Y-16243684D02*
X11453084Y-16253208D01*
X11453084Y-16253208D02*
X11462607Y-16262731D01*
X11462607Y-16262731D02*
X11472131Y-16281779D01*
X11472131Y-16281779D02*
X11481655Y-16319874D01*
X11481655Y-16319874D02*
X11481655Y-16367493D01*
X11481655Y-16367493D02*
X11472131Y-16405588D01*
X11472131Y-16405588D02*
X11462607Y-16424636D01*
X11462607Y-16424636D02*
X11453084Y-16434160D01*
X11453084Y-16434160D02*
X11434036Y-16443684D01*
X11434036Y-16443684D02*
X11414988Y-16443684D01*
X11414988Y-16443684D02*
X11395941Y-16434160D01*
X11395941Y-16434160D02*
X11386417Y-16424636D01*
X11386417Y-16424636D02*
X11376893Y-16405588D01*
X11376893Y-16405588D02*
X11367369Y-16367493D01*
X11367369Y-16367493D02*
X11367369Y-16319874D01*
X11367369Y-16319874D02*
X11376893Y-16281779D01*
X11376893Y-16281779D02*
X11386417Y-16262731D01*
X11386417Y-16262731D02*
X11395941Y-16253208D01*
X11395941Y-16253208D02*
X11414988Y-16243684D01*
X11548322Y-16243684D02*
X11672131Y-16243684D01*
X11672131Y-16243684D02*
X11605465Y-16319874D01*
X11605465Y-16319874D02*
X11634036Y-16319874D01*
X11634036Y-16319874D02*
X11653084Y-16329398D01*
X11653084Y-16329398D02*
X11662607Y-16338922D01*
X11662607Y-16338922D02*
X11672131Y-16357969D01*
X11672131Y-16357969D02*
X11672131Y-16405588D01*
X11672131Y-16405588D02*
X11662607Y-16424636D01*
X11662607Y-16424636D02*
X11653084Y-16434160D01*
X11653084Y-16434160D02*
X11634036Y-16443684D01*
X11634036Y-16443684D02*
X11576893Y-16443684D01*
X11576893Y-16443684D02*
X11557846Y-16434160D01*
X11557846Y-16434160D02*
X11548322Y-16424636D01*
X11862607Y-16443684D02*
X11748322Y-16443684D01*
X11805465Y-16443684D02*
X11805465Y-16243684D01*
X11805465Y-16243684D02*
X11786417Y-16272255D01*
X11786417Y-16272255D02*
X11767369Y-16291303D01*
X11767369Y-16291303D02*
X11748322Y-16300827D01*
X12043560Y-16243684D02*
X11948322Y-16243684D01*
X11948322Y-16243684D02*
X11938798Y-16338922D01*
X11938798Y-16338922D02*
X11948322Y-16329398D01*
X11948322Y-16329398D02*
X11967369Y-16319874D01*
X11967369Y-16319874D02*
X12014988Y-16319874D01*
X12014988Y-16319874D02*
X12034036Y-16329398D01*
X12034036Y-16329398D02*
X12043560Y-16338922D01*
X12043560Y-16338922D02*
X12053084Y-16357969D01*
X12053084Y-16357969D02*
X12053084Y-16405588D01*
X12053084Y-16405588D02*
X12043560Y-16424636D01*
X12043560Y-16424636D02*
X12034036Y-16434160D01*
X12034036Y-16434160D02*
X12014988Y-16443684D01*
X12014988Y-16443684D02*
X11967369Y-16443684D01*
X11967369Y-16443684D02*
X11948322Y-16434160D01*
X11948322Y-16434160D02*
X11938798Y-16424636D01*
X12129274Y-16243684D02*
X12129274Y-16281779D01*
X12205465Y-16243684D02*
X12205465Y-16281779D01*
X12500703Y-16519874D02*
X12491179Y-16510350D01*
X12491179Y-16510350D02*
X12472131Y-16481779D01*
X12472131Y-16481779D02*
X12462608Y-16462731D01*
X12462608Y-16462731D02*
X12453084Y-16434160D01*
X12453084Y-16434160D02*
X12443560Y-16386541D01*
X12443560Y-16386541D02*
X12443560Y-16348446D01*
X12443560Y-16348446D02*
X12453084Y-16300827D01*
X12453084Y-16300827D02*
X12462608Y-16272255D01*
X12462608Y-16272255D02*
X12472131Y-16253208D01*
X12472131Y-16253208D02*
X12491179Y-16224636D01*
X12491179Y-16224636D02*
X12500703Y-16215112D01*
X12681655Y-16443684D02*
X12567369Y-16443684D01*
X12624512Y-16443684D02*
X12624512Y-16243684D01*
X12624512Y-16243684D02*
X12605465Y-16272255D01*
X12605465Y-16272255D02*
X12586417Y-16291303D01*
X12586417Y-16291303D02*
X12567369Y-16300827D01*
X12757846Y-16262731D02*
X12767369Y-16253208D01*
X12767369Y-16253208D02*
X12786417Y-16243684D01*
X12786417Y-16243684D02*
X12834036Y-16243684D01*
X12834036Y-16243684D02*
X12853084Y-16253208D01*
X12853084Y-16253208D02*
X12862608Y-16262731D01*
X12862608Y-16262731D02*
X12872131Y-16281779D01*
X12872131Y-16281779D02*
X12872131Y-16300827D01*
X12872131Y-16300827D02*
X12862608Y-16329398D01*
X12862608Y-16329398D02*
X12748322Y-16443684D01*
X12748322Y-16443684D02*
X12872131Y-16443684D01*
X13110227Y-16443684D02*
X13110227Y-16243684D01*
X13195941Y-16443684D02*
X13195941Y-16338922D01*
X13195941Y-16338922D02*
X13186417Y-16319874D01*
X13186417Y-16319874D02*
X13167370Y-16310350D01*
X13167370Y-16310350D02*
X13138798Y-16310350D01*
X13138798Y-16310350D02*
X13119750Y-16319874D01*
X13119750Y-16319874D02*
X13110227Y-16329398D01*
X13319750Y-16443684D02*
X13300703Y-16434160D01*
X13300703Y-16434160D02*
X13291179Y-16424636D01*
X13291179Y-16424636D02*
X13281655Y-16405588D01*
X13281655Y-16405588D02*
X13281655Y-16348446D01*
X13281655Y-16348446D02*
X13291179Y-16329398D01*
X13291179Y-16329398D02*
X13300703Y-16319874D01*
X13300703Y-16319874D02*
X13319750Y-16310350D01*
X13319750Y-16310350D02*
X13348322Y-16310350D01*
X13348322Y-16310350D02*
X13367370Y-16319874D01*
X13367370Y-16319874D02*
X13376893Y-16329398D01*
X13376893Y-16329398D02*
X13386417Y-16348446D01*
X13386417Y-16348446D02*
X13386417Y-16405588D01*
X13386417Y-16405588D02*
X13376893Y-16424636D01*
X13376893Y-16424636D02*
X13367370Y-16434160D01*
X13367370Y-16434160D02*
X13348322Y-16443684D01*
X13348322Y-16443684D02*
X13319750Y-16443684D01*
X13500703Y-16443684D02*
X13481655Y-16434160D01*
X13481655Y-16434160D02*
X13472131Y-16415112D01*
X13472131Y-16415112D02*
X13472131Y-16243684D01*
X13653084Y-16434160D02*
X13634036Y-16443684D01*
X13634036Y-16443684D02*
X13595941Y-16443684D01*
X13595941Y-16443684D02*
X13576893Y-16434160D01*
X13576893Y-16434160D02*
X13567370Y-16415112D01*
X13567370Y-16415112D02*
X13567370Y-16338922D01*
X13567370Y-16338922D02*
X13576893Y-16319874D01*
X13576893Y-16319874D02*
X13595941Y-16310350D01*
X13595941Y-16310350D02*
X13634036Y-16310350D01*
X13634036Y-16310350D02*
X13653084Y-16319874D01*
X13653084Y-16319874D02*
X13662608Y-16338922D01*
X13662608Y-16338922D02*
X13662608Y-16357969D01*
X13662608Y-16357969D02*
X13567370Y-16377017D01*
X13738798Y-16434160D02*
X13757846Y-16443684D01*
X13757846Y-16443684D02*
X13795941Y-16443684D01*
X13795941Y-16443684D02*
X13814989Y-16434160D01*
X13814989Y-16434160D02*
X13824512Y-16415112D01*
X13824512Y-16415112D02*
X13824512Y-16405588D01*
X13824512Y-16405588D02*
X13814989Y-16386541D01*
X13814989Y-16386541D02*
X13795941Y-16377017D01*
X13795941Y-16377017D02*
X13767370Y-16377017D01*
X13767370Y-16377017D02*
X13748322Y-16367493D01*
X13748322Y-16367493D02*
X13738798Y-16348446D01*
X13738798Y-16348446D02*
X13738798Y-16338922D01*
X13738798Y-16338922D02*
X13748322Y-16319874D01*
X13748322Y-16319874D02*
X13767370Y-16310350D01*
X13767370Y-16310350D02*
X13795941Y-16310350D01*
X13795941Y-16310350D02*
X13814989Y-16319874D01*
X13891179Y-16519874D02*
X13900703Y-16510350D01*
X13900703Y-16510350D02*
X13919751Y-16481779D01*
X13919751Y-16481779D02*
X13929274Y-16462731D01*
X13929274Y-16462731D02*
X13938798Y-16434160D01*
X13938798Y-16434160D02*
X13948322Y-16386541D01*
X13948322Y-16386541D02*
X13948322Y-16348446D01*
X13948322Y-16348446D02*
X13938798Y-16300827D01*
X13938798Y-16300827D02*
X13929274Y-16272255D01*
X13929274Y-16272255D02*
X13919751Y-16253208D01*
X13919751Y-16253208D02*
X13900703Y-16224636D01*
X13900703Y-16224636D02*
X13891179Y-16215112D01*
D14*
X8881140Y-16571700D02*
X8881140Y-16660700D01*
X8836640Y-16616200D02*
X8925640Y-16616200D01*
D11*
X9224512Y-16507684D02*
X9243560Y-16507684D01*
X9243560Y-16507684D02*
X9262607Y-16517208D01*
X9262607Y-16517208D02*
X9272131Y-16526731D01*
X9272131Y-16526731D02*
X9281655Y-16545779D01*
X9281655Y-16545779D02*
X9291179Y-16583874D01*
X9291179Y-16583874D02*
X9291179Y-16631493D01*
X9291179Y-16631493D02*
X9281655Y-16669588D01*
X9281655Y-16669588D02*
X9272131Y-16688636D01*
X9272131Y-16688636D02*
X9262607Y-16698160D01*
X9262607Y-16698160D02*
X9243560Y-16707684D01*
X9243560Y-16707684D02*
X9224512Y-16707684D01*
X9224512Y-16707684D02*
X9205464Y-16698160D01*
X9205464Y-16698160D02*
X9195941Y-16688636D01*
X9195941Y-16688636D02*
X9186417Y-16669588D01*
X9186417Y-16669588D02*
X9176893Y-16631493D01*
X9176893Y-16631493D02*
X9176893Y-16583874D01*
X9176893Y-16583874D02*
X9186417Y-16545779D01*
X9186417Y-16545779D02*
X9195941Y-16526731D01*
X9195941Y-16526731D02*
X9205464Y-16517208D01*
X9205464Y-16517208D02*
X9224512Y-16507684D01*
X9376893Y-16688636D02*
X9386417Y-16698160D01*
X9386417Y-16698160D02*
X9376893Y-16707684D01*
X9376893Y-16707684D02*
X9367369Y-16698160D01*
X9367369Y-16698160D02*
X9376893Y-16688636D01*
X9376893Y-16688636D02*
X9376893Y-16707684D01*
X9500703Y-16593398D02*
X9481655Y-16583874D01*
X9481655Y-16583874D02*
X9472131Y-16574350D01*
X9472131Y-16574350D02*
X9462607Y-16555303D01*
X9462607Y-16555303D02*
X9462607Y-16545779D01*
X9462607Y-16545779D02*
X9472131Y-16526731D01*
X9472131Y-16526731D02*
X9481655Y-16517208D01*
X9481655Y-16517208D02*
X9500703Y-16507684D01*
X9500703Y-16507684D02*
X9538798Y-16507684D01*
X9538798Y-16507684D02*
X9557845Y-16517208D01*
X9557845Y-16517208D02*
X9567369Y-16526731D01*
X9567369Y-16526731D02*
X9576893Y-16545779D01*
X9576893Y-16545779D02*
X9576893Y-16555303D01*
X9576893Y-16555303D02*
X9567369Y-16574350D01*
X9567369Y-16574350D02*
X9557845Y-16583874D01*
X9557845Y-16583874D02*
X9538798Y-16593398D01*
X9538798Y-16593398D02*
X9500703Y-16593398D01*
X9500703Y-16593398D02*
X9481655Y-16602922D01*
X9481655Y-16602922D02*
X9472131Y-16612446D01*
X9472131Y-16612446D02*
X9462607Y-16631493D01*
X9462607Y-16631493D02*
X9462607Y-16669588D01*
X9462607Y-16669588D02*
X9472131Y-16688636D01*
X9472131Y-16688636D02*
X9481655Y-16698160D01*
X9481655Y-16698160D02*
X9500703Y-16707684D01*
X9500703Y-16707684D02*
X9538798Y-16707684D01*
X9538798Y-16707684D02*
X9557845Y-16698160D01*
X9557845Y-16698160D02*
X9567369Y-16688636D01*
X9567369Y-16688636D02*
X9576893Y-16669588D01*
X9576893Y-16669588D02*
X9576893Y-16631493D01*
X9576893Y-16631493D02*
X9567369Y-16612446D01*
X9567369Y-16612446D02*
X9557845Y-16602922D01*
X9557845Y-16602922D02*
X9538798Y-16593398D01*
X9672131Y-16707684D02*
X9710226Y-16707684D01*
X9710226Y-16707684D02*
X9729274Y-16698160D01*
X9729274Y-16698160D02*
X9738798Y-16688636D01*
X9738798Y-16688636D02*
X9757845Y-16660065D01*
X9757845Y-16660065D02*
X9767369Y-16621969D01*
X9767369Y-16621969D02*
X9767369Y-16545779D01*
X9767369Y-16545779D02*
X9757845Y-16526731D01*
X9757845Y-16526731D02*
X9748322Y-16517208D01*
X9748322Y-16517208D02*
X9729274Y-16507684D01*
X9729274Y-16507684D02*
X9691179Y-16507684D01*
X9691179Y-16507684D02*
X9672131Y-16517208D01*
X9672131Y-16517208D02*
X9662607Y-16526731D01*
X9662607Y-16526731D02*
X9653084Y-16545779D01*
X9653084Y-16545779D02*
X9653084Y-16593398D01*
X9653084Y-16593398D02*
X9662607Y-16612446D01*
X9662607Y-16612446D02*
X9672131Y-16621969D01*
X9672131Y-16621969D02*
X9691179Y-16631493D01*
X9691179Y-16631493D02*
X9729274Y-16631493D01*
X9729274Y-16631493D02*
X9748322Y-16621969D01*
X9748322Y-16621969D02*
X9757845Y-16612446D01*
X9757845Y-16612446D02*
X9767369Y-16593398D01*
X9891179Y-16507684D02*
X9910226Y-16507684D01*
X9910226Y-16507684D02*
X9929274Y-16517208D01*
X9929274Y-16517208D02*
X9938798Y-16526731D01*
X9938798Y-16526731D02*
X9948322Y-16545779D01*
X9948322Y-16545779D02*
X9957845Y-16583874D01*
X9957845Y-16583874D02*
X9957845Y-16631493D01*
X9957845Y-16631493D02*
X9948322Y-16669588D01*
X9948322Y-16669588D02*
X9938798Y-16688636D01*
X9938798Y-16688636D02*
X9929274Y-16698160D01*
X9929274Y-16698160D02*
X9910226Y-16707684D01*
X9910226Y-16707684D02*
X9891179Y-16707684D01*
X9891179Y-16707684D02*
X9872131Y-16698160D01*
X9872131Y-16698160D02*
X9862607Y-16688636D01*
X9862607Y-16688636D02*
X9853084Y-16669588D01*
X9853084Y-16669588D02*
X9843560Y-16631493D01*
X9843560Y-16631493D02*
X9843560Y-16583874D01*
X9843560Y-16583874D02*
X9853084Y-16545779D01*
X9853084Y-16545779D02*
X9862607Y-16526731D01*
X9862607Y-16526731D02*
X9872131Y-16517208D01*
X9872131Y-16517208D02*
X9891179Y-16507684D01*
X10043560Y-16707684D02*
X10043560Y-16574350D01*
X10043560Y-16593398D02*
X10053084Y-16583874D01*
X10053084Y-16583874D02*
X10072131Y-16574350D01*
X10072131Y-16574350D02*
X10100703Y-16574350D01*
X10100703Y-16574350D02*
X10119750Y-16583874D01*
X10119750Y-16583874D02*
X10129274Y-16602922D01*
X10129274Y-16602922D02*
X10129274Y-16707684D01*
X10129274Y-16602922D02*
X10138798Y-16583874D01*
X10138798Y-16583874D02*
X10157845Y-16574350D01*
X10157845Y-16574350D02*
X10186417Y-16574350D01*
X10186417Y-16574350D02*
X10205465Y-16583874D01*
X10205465Y-16583874D02*
X10214988Y-16602922D01*
X10214988Y-16602922D02*
X10214988Y-16707684D01*
X10310226Y-16707684D02*
X10310226Y-16574350D01*
X10310226Y-16593398D02*
X10319750Y-16583874D01*
X10319750Y-16583874D02*
X10338798Y-16574350D01*
X10338798Y-16574350D02*
X10367369Y-16574350D01*
X10367369Y-16574350D02*
X10386417Y-16583874D01*
X10386417Y-16583874D02*
X10395941Y-16602922D01*
X10395941Y-16602922D02*
X10395941Y-16707684D01*
X10395941Y-16602922D02*
X10405465Y-16583874D01*
X10405465Y-16583874D02*
X10424512Y-16574350D01*
X10424512Y-16574350D02*
X10453084Y-16574350D01*
X10453084Y-16574350D02*
X10472131Y-16583874D01*
X10472131Y-16583874D02*
X10481655Y-16602922D01*
X10481655Y-16602922D02*
X10481655Y-16707684D01*
X10872131Y-16498160D02*
X10700703Y-16755303D01*
X11129274Y-16507684D02*
X11148322Y-16507684D01*
X11148322Y-16507684D02*
X11167369Y-16517208D01*
X11167369Y-16517208D02*
X11176893Y-16526731D01*
X11176893Y-16526731D02*
X11186417Y-16545779D01*
X11186417Y-16545779D02*
X11195941Y-16583874D01*
X11195941Y-16583874D02*
X11195941Y-16631493D01*
X11195941Y-16631493D02*
X11186417Y-16669588D01*
X11186417Y-16669588D02*
X11176893Y-16688636D01*
X11176893Y-16688636D02*
X11167369Y-16698160D01*
X11167369Y-16698160D02*
X11148322Y-16707684D01*
X11148322Y-16707684D02*
X11129274Y-16707684D01*
X11129274Y-16707684D02*
X11110227Y-16698160D01*
X11110227Y-16698160D02*
X11100703Y-16688636D01*
X11100703Y-16688636D02*
X11091179Y-16669588D01*
X11091179Y-16669588D02*
X11081655Y-16631493D01*
X11081655Y-16631493D02*
X11081655Y-16583874D01*
X11081655Y-16583874D02*
X11091179Y-16545779D01*
X11091179Y-16545779D02*
X11100703Y-16526731D01*
X11100703Y-16526731D02*
X11110227Y-16517208D01*
X11110227Y-16517208D02*
X11129274Y-16507684D01*
X11281655Y-16688636D02*
X11291179Y-16698160D01*
X11291179Y-16698160D02*
X11281655Y-16707684D01*
X11281655Y-16707684D02*
X11272131Y-16698160D01*
X11272131Y-16698160D02*
X11281655Y-16688636D01*
X11281655Y-16688636D02*
X11281655Y-16707684D01*
X11414988Y-16507684D02*
X11434036Y-16507684D01*
X11434036Y-16507684D02*
X11453084Y-16517208D01*
X11453084Y-16517208D02*
X11462607Y-16526731D01*
X11462607Y-16526731D02*
X11472131Y-16545779D01*
X11472131Y-16545779D02*
X11481655Y-16583874D01*
X11481655Y-16583874D02*
X11481655Y-16631493D01*
X11481655Y-16631493D02*
X11472131Y-16669588D01*
X11472131Y-16669588D02*
X11462607Y-16688636D01*
X11462607Y-16688636D02*
X11453084Y-16698160D01*
X11453084Y-16698160D02*
X11434036Y-16707684D01*
X11434036Y-16707684D02*
X11414988Y-16707684D01*
X11414988Y-16707684D02*
X11395941Y-16698160D01*
X11395941Y-16698160D02*
X11386417Y-16688636D01*
X11386417Y-16688636D02*
X11376893Y-16669588D01*
X11376893Y-16669588D02*
X11367369Y-16631493D01*
X11367369Y-16631493D02*
X11367369Y-16583874D01*
X11367369Y-16583874D02*
X11376893Y-16545779D01*
X11376893Y-16545779D02*
X11386417Y-16526731D01*
X11386417Y-16526731D02*
X11395941Y-16517208D01*
X11395941Y-16517208D02*
X11414988Y-16507684D01*
X11548322Y-16507684D02*
X11672131Y-16507684D01*
X11672131Y-16507684D02*
X11605465Y-16583874D01*
X11605465Y-16583874D02*
X11634036Y-16583874D01*
X11634036Y-16583874D02*
X11653084Y-16593398D01*
X11653084Y-16593398D02*
X11662607Y-16602922D01*
X11662607Y-16602922D02*
X11672131Y-16621969D01*
X11672131Y-16621969D02*
X11672131Y-16669588D01*
X11672131Y-16669588D02*
X11662607Y-16688636D01*
X11662607Y-16688636D02*
X11653084Y-16698160D01*
X11653084Y-16698160D02*
X11634036Y-16707684D01*
X11634036Y-16707684D02*
X11576893Y-16707684D01*
X11576893Y-16707684D02*
X11557846Y-16698160D01*
X11557846Y-16698160D02*
X11548322Y-16688636D01*
X11853084Y-16507684D02*
X11757846Y-16507684D01*
X11757846Y-16507684D02*
X11748322Y-16602922D01*
X11748322Y-16602922D02*
X11757846Y-16593398D01*
X11757846Y-16593398D02*
X11776893Y-16583874D01*
X11776893Y-16583874D02*
X11824512Y-16583874D01*
X11824512Y-16583874D02*
X11843560Y-16593398D01*
X11843560Y-16593398D02*
X11853084Y-16602922D01*
X11853084Y-16602922D02*
X11862607Y-16621969D01*
X11862607Y-16621969D02*
X11862607Y-16669588D01*
X11862607Y-16669588D02*
X11853084Y-16688636D01*
X11853084Y-16688636D02*
X11843560Y-16698160D01*
X11843560Y-16698160D02*
X11824512Y-16707684D01*
X11824512Y-16707684D02*
X11776893Y-16707684D01*
X11776893Y-16707684D02*
X11757846Y-16698160D01*
X11757846Y-16698160D02*
X11748322Y-16688636D01*
X11986417Y-16507684D02*
X12005465Y-16507684D01*
X12005465Y-16507684D02*
X12024512Y-16517208D01*
X12024512Y-16517208D02*
X12034036Y-16526731D01*
X12034036Y-16526731D02*
X12043560Y-16545779D01*
X12043560Y-16545779D02*
X12053084Y-16583874D01*
X12053084Y-16583874D02*
X12053084Y-16631493D01*
X12053084Y-16631493D02*
X12043560Y-16669588D01*
X12043560Y-16669588D02*
X12034036Y-16688636D01*
X12034036Y-16688636D02*
X12024512Y-16698160D01*
X12024512Y-16698160D02*
X12005465Y-16707684D01*
X12005465Y-16707684D02*
X11986417Y-16707684D01*
X11986417Y-16707684D02*
X11967369Y-16698160D01*
X11967369Y-16698160D02*
X11957846Y-16688636D01*
X11957846Y-16688636D02*
X11948322Y-16669588D01*
X11948322Y-16669588D02*
X11938798Y-16631493D01*
X11938798Y-16631493D02*
X11938798Y-16583874D01*
X11938798Y-16583874D02*
X11948322Y-16545779D01*
X11948322Y-16545779D02*
X11957846Y-16526731D01*
X11957846Y-16526731D02*
X11967369Y-16517208D01*
X11967369Y-16517208D02*
X11986417Y-16507684D01*
X12129274Y-16507684D02*
X12129274Y-16545779D01*
X12205465Y-16507684D02*
X12205465Y-16545779D01*
X12500703Y-16783874D02*
X12491179Y-16774350D01*
X12491179Y-16774350D02*
X12472131Y-16745779D01*
X12472131Y-16745779D02*
X12462608Y-16726731D01*
X12462608Y-16726731D02*
X12453084Y-16698160D01*
X12453084Y-16698160D02*
X12443560Y-16650541D01*
X12443560Y-16650541D02*
X12443560Y-16612446D01*
X12443560Y-16612446D02*
X12453084Y-16564827D01*
X12453084Y-16564827D02*
X12462608Y-16536255D01*
X12462608Y-16536255D02*
X12472131Y-16517208D01*
X12472131Y-16517208D02*
X12491179Y-16488636D01*
X12491179Y-16488636D02*
X12500703Y-16479112D01*
X12605465Y-16593398D02*
X12586417Y-16583874D01*
X12586417Y-16583874D02*
X12576893Y-16574350D01*
X12576893Y-16574350D02*
X12567369Y-16555303D01*
X12567369Y-16555303D02*
X12567369Y-16545779D01*
X12567369Y-16545779D02*
X12576893Y-16526731D01*
X12576893Y-16526731D02*
X12586417Y-16517208D01*
X12586417Y-16517208D02*
X12605465Y-16507684D01*
X12605465Y-16507684D02*
X12643560Y-16507684D01*
X12643560Y-16507684D02*
X12662608Y-16517208D01*
X12662608Y-16517208D02*
X12672131Y-16526731D01*
X12672131Y-16526731D02*
X12681655Y-16545779D01*
X12681655Y-16545779D02*
X12681655Y-16555303D01*
X12681655Y-16555303D02*
X12672131Y-16574350D01*
X12672131Y-16574350D02*
X12662608Y-16583874D01*
X12662608Y-16583874D02*
X12643560Y-16593398D01*
X12643560Y-16593398D02*
X12605465Y-16593398D01*
X12605465Y-16593398D02*
X12586417Y-16602922D01*
X12586417Y-16602922D02*
X12576893Y-16612446D01*
X12576893Y-16612446D02*
X12567369Y-16631493D01*
X12567369Y-16631493D02*
X12567369Y-16669588D01*
X12567369Y-16669588D02*
X12576893Y-16688636D01*
X12576893Y-16688636D02*
X12586417Y-16698160D01*
X12586417Y-16698160D02*
X12605465Y-16707684D01*
X12605465Y-16707684D02*
X12643560Y-16707684D01*
X12643560Y-16707684D02*
X12662608Y-16698160D01*
X12662608Y-16698160D02*
X12672131Y-16688636D01*
X12672131Y-16688636D02*
X12681655Y-16669588D01*
X12681655Y-16669588D02*
X12681655Y-16631493D01*
X12681655Y-16631493D02*
X12672131Y-16612446D01*
X12672131Y-16612446D02*
X12662608Y-16602922D01*
X12662608Y-16602922D02*
X12643560Y-16593398D01*
X12919750Y-16707684D02*
X12919750Y-16507684D01*
X13005465Y-16707684D02*
X13005465Y-16602922D01*
X13005465Y-16602922D02*
X12995941Y-16583874D01*
X12995941Y-16583874D02*
X12976893Y-16574350D01*
X12976893Y-16574350D02*
X12948322Y-16574350D01*
X12948322Y-16574350D02*
X12929274Y-16583874D01*
X12929274Y-16583874D02*
X12919750Y-16593398D01*
X13129274Y-16707684D02*
X13110227Y-16698160D01*
X13110227Y-16698160D02*
X13100703Y-16688636D01*
X13100703Y-16688636D02*
X13091179Y-16669588D01*
X13091179Y-16669588D02*
X13091179Y-16612446D01*
X13091179Y-16612446D02*
X13100703Y-16593398D01*
X13100703Y-16593398D02*
X13110227Y-16583874D01*
X13110227Y-16583874D02*
X13129274Y-16574350D01*
X13129274Y-16574350D02*
X13157846Y-16574350D01*
X13157846Y-16574350D02*
X13176893Y-16583874D01*
X13176893Y-16583874D02*
X13186417Y-16593398D01*
X13186417Y-16593398D02*
X13195941Y-16612446D01*
X13195941Y-16612446D02*
X13195941Y-16669588D01*
X13195941Y-16669588D02*
X13186417Y-16688636D01*
X13186417Y-16688636D02*
X13176893Y-16698160D01*
X13176893Y-16698160D02*
X13157846Y-16707684D01*
X13157846Y-16707684D02*
X13129274Y-16707684D01*
X13310227Y-16707684D02*
X13291179Y-16698160D01*
X13291179Y-16698160D02*
X13281655Y-16679112D01*
X13281655Y-16679112D02*
X13281655Y-16507684D01*
X13462608Y-16698160D02*
X13443560Y-16707684D01*
X13443560Y-16707684D02*
X13405465Y-16707684D01*
X13405465Y-16707684D02*
X13386417Y-16698160D01*
X13386417Y-16698160D02*
X13376893Y-16679112D01*
X13376893Y-16679112D02*
X13376893Y-16602922D01*
X13376893Y-16602922D02*
X13386417Y-16583874D01*
X13386417Y-16583874D02*
X13405465Y-16574350D01*
X13405465Y-16574350D02*
X13443560Y-16574350D01*
X13443560Y-16574350D02*
X13462608Y-16583874D01*
X13462608Y-16583874D02*
X13472131Y-16602922D01*
X13472131Y-16602922D02*
X13472131Y-16621969D01*
X13472131Y-16621969D02*
X13376893Y-16641017D01*
X13548322Y-16698160D02*
X13567370Y-16707684D01*
X13567370Y-16707684D02*
X13605465Y-16707684D01*
X13605465Y-16707684D02*
X13624512Y-16698160D01*
X13624512Y-16698160D02*
X13634036Y-16679112D01*
X13634036Y-16679112D02*
X13634036Y-16669588D01*
X13634036Y-16669588D02*
X13624512Y-16650541D01*
X13624512Y-16650541D02*
X13605465Y-16641017D01*
X13605465Y-16641017D02*
X13576893Y-16641017D01*
X13576893Y-16641017D02*
X13557846Y-16631493D01*
X13557846Y-16631493D02*
X13548322Y-16612446D01*
X13548322Y-16612446D02*
X13548322Y-16602922D01*
X13548322Y-16602922D02*
X13557846Y-16583874D01*
X13557846Y-16583874D02*
X13576893Y-16574350D01*
X13576893Y-16574350D02*
X13605465Y-16574350D01*
X13605465Y-16574350D02*
X13624512Y-16583874D01*
X13700703Y-16783874D02*
X13710227Y-16774350D01*
X13710227Y-16774350D02*
X13729274Y-16745779D01*
X13729274Y-16745779D02*
X13738798Y-16726731D01*
X13738798Y-16726731D02*
X13748322Y-16698160D01*
X13748322Y-16698160D02*
X13757846Y-16650541D01*
X13757846Y-16650541D02*
X13757846Y-16612446D01*
X13757846Y-16612446D02*
X13748322Y-16564827D01*
X13748322Y-16564827D02*
X13738798Y-16536255D01*
X13738798Y-16536255D02*
X13729274Y-16517208D01*
X13729274Y-16517208D02*
X13710227Y-16488636D01*
X13710227Y-16488636D02*
X13700703Y-16479112D01*
D10*
X8910996Y-16915556D02*
X8910996Y-16844844D01*
X8840284Y-16844844D01*
X8840284Y-16915556D01*
X8910996Y-16915556D01*
D11*
X9291179Y-16971684D02*
X9176893Y-16971684D01*
X9234036Y-16971684D02*
X9234036Y-16771684D01*
X9234036Y-16771684D02*
X9214988Y-16800255D01*
X9214988Y-16800255D02*
X9195941Y-16819303D01*
X9195941Y-16819303D02*
X9176893Y-16828827D01*
X9376893Y-16952636D02*
X9386417Y-16962160D01*
X9386417Y-16962160D02*
X9376893Y-16971684D01*
X9376893Y-16971684D02*
X9367369Y-16962160D01*
X9367369Y-16962160D02*
X9376893Y-16952636D01*
X9376893Y-16952636D02*
X9376893Y-16971684D01*
X9510226Y-16771684D02*
X9529274Y-16771684D01*
X9529274Y-16771684D02*
X9548322Y-16781208D01*
X9548322Y-16781208D02*
X9557845Y-16790731D01*
X9557845Y-16790731D02*
X9567369Y-16809779D01*
X9567369Y-16809779D02*
X9576893Y-16847874D01*
X9576893Y-16847874D02*
X9576893Y-16895493D01*
X9576893Y-16895493D02*
X9567369Y-16933589D01*
X9567369Y-16933589D02*
X9557845Y-16952636D01*
X9557845Y-16952636D02*
X9548322Y-16962160D01*
X9548322Y-16962160D02*
X9529274Y-16971684D01*
X9529274Y-16971684D02*
X9510226Y-16971684D01*
X9510226Y-16971684D02*
X9491179Y-16962160D01*
X9491179Y-16962160D02*
X9481655Y-16952636D01*
X9481655Y-16952636D02*
X9472131Y-16933589D01*
X9472131Y-16933589D02*
X9462607Y-16895493D01*
X9462607Y-16895493D02*
X9462607Y-16847874D01*
X9462607Y-16847874D02*
X9472131Y-16809779D01*
X9472131Y-16809779D02*
X9481655Y-16790731D01*
X9481655Y-16790731D02*
X9491179Y-16781208D01*
X9491179Y-16781208D02*
X9510226Y-16771684D01*
X9700703Y-16771684D02*
X9719750Y-16771684D01*
X9719750Y-16771684D02*
X9738798Y-16781208D01*
X9738798Y-16781208D02*
X9748322Y-16790731D01*
X9748322Y-16790731D02*
X9757845Y-16809779D01*
X9757845Y-16809779D02*
X9767369Y-16847874D01*
X9767369Y-16847874D02*
X9767369Y-16895493D01*
X9767369Y-16895493D02*
X9757845Y-16933589D01*
X9757845Y-16933589D02*
X9748322Y-16952636D01*
X9748322Y-16952636D02*
X9738798Y-16962160D01*
X9738798Y-16962160D02*
X9719750Y-16971684D01*
X9719750Y-16971684D02*
X9700703Y-16971684D01*
X9700703Y-16971684D02*
X9681655Y-16962160D01*
X9681655Y-16962160D02*
X9672131Y-16952636D01*
X9672131Y-16952636D02*
X9662607Y-16933589D01*
X9662607Y-16933589D02*
X9653084Y-16895493D01*
X9653084Y-16895493D02*
X9653084Y-16847874D01*
X9653084Y-16847874D02*
X9662607Y-16809779D01*
X9662607Y-16809779D02*
X9672131Y-16790731D01*
X9672131Y-16790731D02*
X9681655Y-16781208D01*
X9681655Y-16781208D02*
X9700703Y-16771684D01*
X9891179Y-16771684D02*
X9910226Y-16771684D01*
X9910226Y-16771684D02*
X9929274Y-16781208D01*
X9929274Y-16781208D02*
X9938798Y-16790731D01*
X9938798Y-16790731D02*
X9948322Y-16809779D01*
X9948322Y-16809779D02*
X9957845Y-16847874D01*
X9957845Y-16847874D02*
X9957845Y-16895493D01*
X9957845Y-16895493D02*
X9948322Y-16933589D01*
X9948322Y-16933589D02*
X9938798Y-16952636D01*
X9938798Y-16952636D02*
X9929274Y-16962160D01*
X9929274Y-16962160D02*
X9910226Y-16971684D01*
X9910226Y-16971684D02*
X9891179Y-16971684D01*
X9891179Y-16971684D02*
X9872131Y-16962160D01*
X9872131Y-16962160D02*
X9862607Y-16952636D01*
X9862607Y-16952636D02*
X9853084Y-16933589D01*
X9853084Y-16933589D02*
X9843560Y-16895493D01*
X9843560Y-16895493D02*
X9843560Y-16847874D01*
X9843560Y-16847874D02*
X9853084Y-16809779D01*
X9853084Y-16809779D02*
X9862607Y-16790731D01*
X9862607Y-16790731D02*
X9872131Y-16781208D01*
X9872131Y-16781208D02*
X9891179Y-16771684D01*
X10043560Y-16971684D02*
X10043560Y-16838350D01*
X10043560Y-16857398D02*
X10053084Y-16847874D01*
X10053084Y-16847874D02*
X10072131Y-16838350D01*
X10072131Y-16838350D02*
X10100703Y-16838350D01*
X10100703Y-16838350D02*
X10119750Y-16847874D01*
X10119750Y-16847874D02*
X10129274Y-16866922D01*
X10129274Y-16866922D02*
X10129274Y-16971684D01*
X10129274Y-16866922D02*
X10138798Y-16847874D01*
X10138798Y-16847874D02*
X10157845Y-16838350D01*
X10157845Y-16838350D02*
X10186417Y-16838350D01*
X10186417Y-16838350D02*
X10205465Y-16847874D01*
X10205465Y-16847874D02*
X10214988Y-16866922D01*
X10214988Y-16866922D02*
X10214988Y-16971684D01*
X10310226Y-16971684D02*
X10310226Y-16838350D01*
X10310226Y-16857398D02*
X10319750Y-16847874D01*
X10319750Y-16847874D02*
X10338798Y-16838350D01*
X10338798Y-16838350D02*
X10367369Y-16838350D01*
X10367369Y-16838350D02*
X10386417Y-16847874D01*
X10386417Y-16847874D02*
X10395941Y-16866922D01*
X10395941Y-16866922D02*
X10395941Y-16971684D01*
X10395941Y-16866922D02*
X10405465Y-16847874D01*
X10405465Y-16847874D02*
X10424512Y-16838350D01*
X10424512Y-16838350D02*
X10453084Y-16838350D01*
X10453084Y-16838350D02*
X10472131Y-16847874D01*
X10472131Y-16847874D02*
X10481655Y-16866922D01*
X10481655Y-16866922D02*
X10481655Y-16971684D01*
X10872131Y-16762160D02*
X10700703Y-17019303D01*
X11129274Y-16771684D02*
X11148322Y-16771684D01*
X11148322Y-16771684D02*
X11167369Y-16781208D01*
X11167369Y-16781208D02*
X11176893Y-16790731D01*
X11176893Y-16790731D02*
X11186417Y-16809779D01*
X11186417Y-16809779D02*
X11195941Y-16847874D01*
X11195941Y-16847874D02*
X11195941Y-16895493D01*
X11195941Y-16895493D02*
X11186417Y-16933589D01*
X11186417Y-16933589D02*
X11176893Y-16952636D01*
X11176893Y-16952636D02*
X11167369Y-16962160D01*
X11167369Y-16962160D02*
X11148322Y-16971684D01*
X11148322Y-16971684D02*
X11129274Y-16971684D01*
X11129274Y-16971684D02*
X11110227Y-16962160D01*
X11110227Y-16962160D02*
X11100703Y-16952636D01*
X11100703Y-16952636D02*
X11091179Y-16933589D01*
X11091179Y-16933589D02*
X11081655Y-16895493D01*
X11081655Y-16895493D02*
X11081655Y-16847874D01*
X11081655Y-16847874D02*
X11091179Y-16809779D01*
X11091179Y-16809779D02*
X11100703Y-16790731D01*
X11100703Y-16790731D02*
X11110227Y-16781208D01*
X11110227Y-16781208D02*
X11129274Y-16771684D01*
X11281655Y-16952636D02*
X11291179Y-16962160D01*
X11291179Y-16962160D02*
X11281655Y-16971684D01*
X11281655Y-16971684D02*
X11272131Y-16962160D01*
X11272131Y-16962160D02*
X11281655Y-16952636D01*
X11281655Y-16952636D02*
X11281655Y-16971684D01*
X11414988Y-16771684D02*
X11434036Y-16771684D01*
X11434036Y-16771684D02*
X11453084Y-16781208D01*
X11453084Y-16781208D02*
X11462607Y-16790731D01*
X11462607Y-16790731D02*
X11472131Y-16809779D01*
X11472131Y-16809779D02*
X11481655Y-16847874D01*
X11481655Y-16847874D02*
X11481655Y-16895493D01*
X11481655Y-16895493D02*
X11472131Y-16933589D01*
X11472131Y-16933589D02*
X11462607Y-16952636D01*
X11462607Y-16952636D02*
X11453084Y-16962160D01*
X11453084Y-16962160D02*
X11434036Y-16971684D01*
X11434036Y-16971684D02*
X11414988Y-16971684D01*
X11414988Y-16971684D02*
X11395941Y-16962160D01*
X11395941Y-16962160D02*
X11386417Y-16952636D01*
X11386417Y-16952636D02*
X11376893Y-16933589D01*
X11376893Y-16933589D02*
X11367369Y-16895493D01*
X11367369Y-16895493D02*
X11367369Y-16847874D01*
X11367369Y-16847874D02*
X11376893Y-16809779D01*
X11376893Y-16809779D02*
X11386417Y-16790731D01*
X11386417Y-16790731D02*
X11395941Y-16781208D01*
X11395941Y-16781208D02*
X11414988Y-16771684D01*
X11548322Y-16771684D02*
X11672131Y-16771684D01*
X11672131Y-16771684D02*
X11605465Y-16847874D01*
X11605465Y-16847874D02*
X11634036Y-16847874D01*
X11634036Y-16847874D02*
X11653084Y-16857398D01*
X11653084Y-16857398D02*
X11662607Y-16866922D01*
X11662607Y-16866922D02*
X11672131Y-16885970D01*
X11672131Y-16885970D02*
X11672131Y-16933589D01*
X11672131Y-16933589D02*
X11662607Y-16952636D01*
X11662607Y-16952636D02*
X11653084Y-16962160D01*
X11653084Y-16962160D02*
X11634036Y-16971684D01*
X11634036Y-16971684D02*
X11576893Y-16971684D01*
X11576893Y-16971684D02*
X11557846Y-16962160D01*
X11557846Y-16962160D02*
X11548322Y-16952636D01*
X11767369Y-16971684D02*
X11805465Y-16971684D01*
X11805465Y-16971684D02*
X11824512Y-16962160D01*
X11824512Y-16962160D02*
X11834036Y-16952636D01*
X11834036Y-16952636D02*
X11853084Y-16924065D01*
X11853084Y-16924065D02*
X11862607Y-16885970D01*
X11862607Y-16885970D02*
X11862607Y-16809779D01*
X11862607Y-16809779D02*
X11853084Y-16790731D01*
X11853084Y-16790731D02*
X11843560Y-16781208D01*
X11843560Y-16781208D02*
X11824512Y-16771684D01*
X11824512Y-16771684D02*
X11786417Y-16771684D01*
X11786417Y-16771684D02*
X11767369Y-16781208D01*
X11767369Y-16781208D02*
X11757846Y-16790731D01*
X11757846Y-16790731D02*
X11748322Y-16809779D01*
X11748322Y-16809779D02*
X11748322Y-16857398D01*
X11748322Y-16857398D02*
X11757846Y-16876446D01*
X11757846Y-16876446D02*
X11767369Y-16885970D01*
X11767369Y-16885970D02*
X11786417Y-16895493D01*
X11786417Y-16895493D02*
X11824512Y-16895493D01*
X11824512Y-16895493D02*
X11843560Y-16885970D01*
X11843560Y-16885970D02*
X11853084Y-16876446D01*
X11853084Y-16876446D02*
X11862607Y-16857398D01*
X12034036Y-16838350D02*
X12034036Y-16971684D01*
X11986417Y-16762160D02*
X11938798Y-16905017D01*
X11938798Y-16905017D02*
X12062607Y-16905017D01*
X12129274Y-16771684D02*
X12129274Y-16809779D01*
X12205465Y-16771684D02*
X12205465Y-16809779D01*
X12500703Y-17047874D02*
X12491179Y-17038350D01*
X12491179Y-17038350D02*
X12472131Y-17009779D01*
X12472131Y-17009779D02*
X12462608Y-16990731D01*
X12462608Y-16990731D02*
X12453084Y-16962160D01*
X12453084Y-16962160D02*
X12443560Y-16914541D01*
X12443560Y-16914541D02*
X12443560Y-16876446D01*
X12443560Y-16876446D02*
X12453084Y-16828827D01*
X12453084Y-16828827D02*
X12462608Y-16800255D01*
X12462608Y-16800255D02*
X12472131Y-16781208D01*
X12472131Y-16781208D02*
X12491179Y-16752636D01*
X12491179Y-16752636D02*
X12500703Y-16743112D01*
X12662608Y-16771684D02*
X12624512Y-16771684D01*
X12624512Y-16771684D02*
X12605465Y-16781208D01*
X12605465Y-16781208D02*
X12595941Y-16790731D01*
X12595941Y-16790731D02*
X12576893Y-16819303D01*
X12576893Y-16819303D02*
X12567369Y-16857398D01*
X12567369Y-16857398D02*
X12567369Y-16933589D01*
X12567369Y-16933589D02*
X12576893Y-16952636D01*
X12576893Y-16952636D02*
X12586417Y-16962160D01*
X12586417Y-16962160D02*
X12605465Y-16971684D01*
X12605465Y-16971684D02*
X12643560Y-16971684D01*
X12643560Y-16971684D02*
X12662608Y-16962160D01*
X12662608Y-16962160D02*
X12672131Y-16952636D01*
X12672131Y-16952636D02*
X12681655Y-16933589D01*
X12681655Y-16933589D02*
X12681655Y-16885970D01*
X12681655Y-16885970D02*
X12672131Y-16866922D01*
X12672131Y-16866922D02*
X12662608Y-16857398D01*
X12662608Y-16857398D02*
X12643560Y-16847874D01*
X12643560Y-16847874D02*
X12605465Y-16847874D01*
X12605465Y-16847874D02*
X12586417Y-16857398D01*
X12586417Y-16857398D02*
X12576893Y-16866922D01*
X12576893Y-16866922D02*
X12567369Y-16885970D01*
X12805465Y-16771684D02*
X12824512Y-16771684D01*
X12824512Y-16771684D02*
X12843560Y-16781208D01*
X12843560Y-16781208D02*
X12853084Y-16790731D01*
X12853084Y-16790731D02*
X12862608Y-16809779D01*
X12862608Y-16809779D02*
X12872131Y-16847874D01*
X12872131Y-16847874D02*
X12872131Y-16895493D01*
X12872131Y-16895493D02*
X12862608Y-16933589D01*
X12862608Y-16933589D02*
X12853084Y-16952636D01*
X12853084Y-16952636D02*
X12843560Y-16962160D01*
X12843560Y-16962160D02*
X12824512Y-16971684D01*
X12824512Y-16971684D02*
X12805465Y-16971684D01*
X12805465Y-16971684D02*
X12786417Y-16962160D01*
X12786417Y-16962160D02*
X12776893Y-16952636D01*
X12776893Y-16952636D02*
X12767369Y-16933589D01*
X12767369Y-16933589D02*
X12757846Y-16895493D01*
X12757846Y-16895493D02*
X12757846Y-16847874D01*
X12757846Y-16847874D02*
X12767369Y-16809779D01*
X12767369Y-16809779D02*
X12776893Y-16790731D01*
X12776893Y-16790731D02*
X12786417Y-16781208D01*
X12786417Y-16781208D02*
X12805465Y-16771684D01*
X13110227Y-16971684D02*
X13110227Y-16771684D01*
X13195941Y-16971684D02*
X13195941Y-16866922D01*
X13195941Y-16866922D02*
X13186417Y-16847874D01*
X13186417Y-16847874D02*
X13167370Y-16838350D01*
X13167370Y-16838350D02*
X13138798Y-16838350D01*
X13138798Y-16838350D02*
X13119750Y-16847874D01*
X13119750Y-16847874D02*
X13110227Y-16857398D01*
X13319750Y-16971684D02*
X13300703Y-16962160D01*
X13300703Y-16962160D02*
X13291179Y-16952636D01*
X13291179Y-16952636D02*
X13281655Y-16933589D01*
X13281655Y-16933589D02*
X13281655Y-16876446D01*
X13281655Y-16876446D02*
X13291179Y-16857398D01*
X13291179Y-16857398D02*
X13300703Y-16847874D01*
X13300703Y-16847874D02*
X13319750Y-16838350D01*
X13319750Y-16838350D02*
X13348322Y-16838350D01*
X13348322Y-16838350D02*
X13367370Y-16847874D01*
X13367370Y-16847874D02*
X13376893Y-16857398D01*
X13376893Y-16857398D02*
X13386417Y-16876446D01*
X13386417Y-16876446D02*
X13386417Y-16933589D01*
X13386417Y-16933589D02*
X13376893Y-16952636D01*
X13376893Y-16952636D02*
X13367370Y-16962160D01*
X13367370Y-16962160D02*
X13348322Y-16971684D01*
X13348322Y-16971684D02*
X13319750Y-16971684D01*
X13500703Y-16971684D02*
X13481655Y-16962160D01*
X13481655Y-16962160D02*
X13472131Y-16943112D01*
X13472131Y-16943112D02*
X13472131Y-16771684D01*
X13653084Y-16962160D02*
X13634036Y-16971684D01*
X13634036Y-16971684D02*
X13595941Y-16971684D01*
X13595941Y-16971684D02*
X13576893Y-16962160D01*
X13576893Y-16962160D02*
X13567370Y-16943112D01*
X13567370Y-16943112D02*
X13567370Y-16866922D01*
X13567370Y-16866922D02*
X13576893Y-16847874D01*
X13576893Y-16847874D02*
X13595941Y-16838350D01*
X13595941Y-16838350D02*
X13634036Y-16838350D01*
X13634036Y-16838350D02*
X13653084Y-16847874D01*
X13653084Y-16847874D02*
X13662608Y-16866922D01*
X13662608Y-16866922D02*
X13662608Y-16885970D01*
X13662608Y-16885970D02*
X13567370Y-16905017D01*
X13738798Y-16962160D02*
X13757846Y-16971684D01*
X13757846Y-16971684D02*
X13795941Y-16971684D01*
X13795941Y-16971684D02*
X13814989Y-16962160D01*
X13814989Y-16962160D02*
X13824512Y-16943112D01*
X13824512Y-16943112D02*
X13824512Y-16933589D01*
X13824512Y-16933589D02*
X13814989Y-16914541D01*
X13814989Y-16914541D02*
X13795941Y-16905017D01*
X13795941Y-16905017D02*
X13767370Y-16905017D01*
X13767370Y-16905017D02*
X13748322Y-16895493D01*
X13748322Y-16895493D02*
X13738798Y-16876446D01*
X13738798Y-16876446D02*
X13738798Y-16866922D01*
X13738798Y-16866922D02*
X13748322Y-16847874D01*
X13748322Y-16847874D02*
X13767370Y-16838350D01*
X13767370Y-16838350D02*
X13795941Y-16838350D01*
X13795941Y-16838350D02*
X13814989Y-16847874D01*
X13891179Y-17047874D02*
X13900703Y-17038350D01*
X13900703Y-17038350D02*
X13919751Y-17009779D01*
X13919751Y-17009779D02*
X13929274Y-16990731D01*
X13929274Y-16990731D02*
X13938798Y-16962160D01*
X13938798Y-16962160D02*
X13948322Y-16914541D01*
X13948322Y-16914541D02*
X13948322Y-16876446D01*
X13948322Y-16876446D02*
X13938798Y-16828827D01*
X13938798Y-16828827D02*
X13929274Y-16800255D01*
X13929274Y-16800255D02*
X13919751Y-16781208D01*
X13919751Y-16781208D02*
X13900703Y-16752636D01*
X13900703Y-16752636D02*
X13891179Y-16743112D01*
X8825640Y-17244200D02*
X8925640Y-17144200D01*
X8825640Y-17044200D01*
X8725640Y-17144200D01*
X8825640Y-17244200D01*
X9167369Y-17035684D02*
X9291179Y-17035684D01*
X9291179Y-17035684D02*
X9224512Y-17111874D01*
X9224512Y-17111874D02*
X9253084Y-17111874D01*
X9253084Y-17111874D02*
X9272131Y-17121398D01*
X9272131Y-17121398D02*
X9281655Y-17130922D01*
X9281655Y-17130922D02*
X9291179Y-17149970D01*
X9291179Y-17149970D02*
X9291179Y-17197589D01*
X9291179Y-17197589D02*
X9281655Y-17216636D01*
X9281655Y-17216636D02*
X9272131Y-17226160D01*
X9272131Y-17226160D02*
X9253084Y-17235684D01*
X9253084Y-17235684D02*
X9195941Y-17235684D01*
X9195941Y-17235684D02*
X9176893Y-17226160D01*
X9176893Y-17226160D02*
X9167369Y-17216636D01*
X9376893Y-17216636D02*
X9386417Y-17226160D01*
X9386417Y-17226160D02*
X9376893Y-17235684D01*
X9376893Y-17235684D02*
X9367369Y-17226160D01*
X9367369Y-17226160D02*
X9376893Y-17216636D01*
X9376893Y-17216636D02*
X9376893Y-17235684D01*
X9510226Y-17035684D02*
X9529274Y-17035684D01*
X9529274Y-17035684D02*
X9548322Y-17045208D01*
X9548322Y-17045208D02*
X9557845Y-17054731D01*
X9557845Y-17054731D02*
X9567369Y-17073779D01*
X9567369Y-17073779D02*
X9576893Y-17111874D01*
X9576893Y-17111874D02*
X9576893Y-17159493D01*
X9576893Y-17159493D02*
X9567369Y-17197589D01*
X9567369Y-17197589D02*
X9557845Y-17216636D01*
X9557845Y-17216636D02*
X9548322Y-17226160D01*
X9548322Y-17226160D02*
X9529274Y-17235684D01*
X9529274Y-17235684D02*
X9510226Y-17235684D01*
X9510226Y-17235684D02*
X9491179Y-17226160D01*
X9491179Y-17226160D02*
X9481655Y-17216636D01*
X9481655Y-17216636D02*
X9472131Y-17197589D01*
X9472131Y-17197589D02*
X9462607Y-17159493D01*
X9462607Y-17159493D02*
X9462607Y-17111874D01*
X9462607Y-17111874D02*
X9472131Y-17073779D01*
X9472131Y-17073779D02*
X9481655Y-17054731D01*
X9481655Y-17054731D02*
X9491179Y-17045208D01*
X9491179Y-17045208D02*
X9510226Y-17035684D01*
X9700703Y-17035684D02*
X9719750Y-17035684D01*
X9719750Y-17035684D02*
X9738798Y-17045208D01*
X9738798Y-17045208D02*
X9748322Y-17054731D01*
X9748322Y-17054731D02*
X9757845Y-17073779D01*
X9757845Y-17073779D02*
X9767369Y-17111874D01*
X9767369Y-17111874D02*
X9767369Y-17159493D01*
X9767369Y-17159493D02*
X9757845Y-17197589D01*
X9757845Y-17197589D02*
X9748322Y-17216636D01*
X9748322Y-17216636D02*
X9738798Y-17226160D01*
X9738798Y-17226160D02*
X9719750Y-17235684D01*
X9719750Y-17235684D02*
X9700703Y-17235684D01*
X9700703Y-17235684D02*
X9681655Y-17226160D01*
X9681655Y-17226160D02*
X9672131Y-17216636D01*
X9672131Y-17216636D02*
X9662607Y-17197589D01*
X9662607Y-17197589D02*
X9653084Y-17159493D01*
X9653084Y-17159493D02*
X9653084Y-17111874D01*
X9653084Y-17111874D02*
X9662607Y-17073779D01*
X9662607Y-17073779D02*
X9672131Y-17054731D01*
X9672131Y-17054731D02*
X9681655Y-17045208D01*
X9681655Y-17045208D02*
X9700703Y-17035684D01*
X9891179Y-17035684D02*
X9910226Y-17035684D01*
X9910226Y-17035684D02*
X9929274Y-17045208D01*
X9929274Y-17045208D02*
X9938798Y-17054731D01*
X9938798Y-17054731D02*
X9948322Y-17073779D01*
X9948322Y-17073779D02*
X9957845Y-17111874D01*
X9957845Y-17111874D02*
X9957845Y-17159493D01*
X9957845Y-17159493D02*
X9948322Y-17197589D01*
X9948322Y-17197589D02*
X9938798Y-17216636D01*
X9938798Y-17216636D02*
X9929274Y-17226160D01*
X9929274Y-17226160D02*
X9910226Y-17235684D01*
X9910226Y-17235684D02*
X9891179Y-17235684D01*
X9891179Y-17235684D02*
X9872131Y-17226160D01*
X9872131Y-17226160D02*
X9862607Y-17216636D01*
X9862607Y-17216636D02*
X9853084Y-17197589D01*
X9853084Y-17197589D02*
X9843560Y-17159493D01*
X9843560Y-17159493D02*
X9843560Y-17111874D01*
X9843560Y-17111874D02*
X9853084Y-17073779D01*
X9853084Y-17073779D02*
X9862607Y-17054731D01*
X9862607Y-17054731D02*
X9872131Y-17045208D01*
X9872131Y-17045208D02*
X9891179Y-17035684D01*
X10043560Y-17235684D02*
X10043560Y-17102350D01*
X10043560Y-17121398D02*
X10053084Y-17111874D01*
X10053084Y-17111874D02*
X10072131Y-17102350D01*
X10072131Y-17102350D02*
X10100703Y-17102350D01*
X10100703Y-17102350D02*
X10119750Y-17111874D01*
X10119750Y-17111874D02*
X10129274Y-17130922D01*
X10129274Y-17130922D02*
X10129274Y-17235684D01*
X10129274Y-17130922D02*
X10138798Y-17111874D01*
X10138798Y-17111874D02*
X10157845Y-17102350D01*
X10157845Y-17102350D02*
X10186417Y-17102350D01*
X10186417Y-17102350D02*
X10205465Y-17111874D01*
X10205465Y-17111874D02*
X10214988Y-17130922D01*
X10214988Y-17130922D02*
X10214988Y-17235684D01*
X10310226Y-17235684D02*
X10310226Y-17102350D01*
X10310226Y-17121398D02*
X10319750Y-17111874D01*
X10319750Y-17111874D02*
X10338798Y-17102350D01*
X10338798Y-17102350D02*
X10367369Y-17102350D01*
X10367369Y-17102350D02*
X10386417Y-17111874D01*
X10386417Y-17111874D02*
X10395941Y-17130922D01*
X10395941Y-17130922D02*
X10395941Y-17235684D01*
X10395941Y-17130922D02*
X10405465Y-17111874D01*
X10405465Y-17111874D02*
X10424512Y-17102350D01*
X10424512Y-17102350D02*
X10453084Y-17102350D01*
X10453084Y-17102350D02*
X10472131Y-17111874D01*
X10472131Y-17111874D02*
X10481655Y-17130922D01*
X10481655Y-17130922D02*
X10481655Y-17235684D01*
X10872131Y-17026160D02*
X10700703Y-17283303D01*
X11129274Y-17035684D02*
X11148322Y-17035684D01*
X11148322Y-17035684D02*
X11167369Y-17045208D01*
X11167369Y-17045208D02*
X11176893Y-17054731D01*
X11176893Y-17054731D02*
X11186417Y-17073779D01*
X11186417Y-17073779D02*
X11195941Y-17111874D01*
X11195941Y-17111874D02*
X11195941Y-17159493D01*
X11195941Y-17159493D02*
X11186417Y-17197589D01*
X11186417Y-17197589D02*
X11176893Y-17216636D01*
X11176893Y-17216636D02*
X11167369Y-17226160D01*
X11167369Y-17226160D02*
X11148322Y-17235684D01*
X11148322Y-17235684D02*
X11129274Y-17235684D01*
X11129274Y-17235684D02*
X11110227Y-17226160D01*
X11110227Y-17226160D02*
X11100703Y-17216636D01*
X11100703Y-17216636D02*
X11091179Y-17197589D01*
X11091179Y-17197589D02*
X11081655Y-17159493D01*
X11081655Y-17159493D02*
X11081655Y-17111874D01*
X11081655Y-17111874D02*
X11091179Y-17073779D01*
X11091179Y-17073779D02*
X11100703Y-17054731D01*
X11100703Y-17054731D02*
X11110227Y-17045208D01*
X11110227Y-17045208D02*
X11129274Y-17035684D01*
X11281655Y-17216636D02*
X11291179Y-17226160D01*
X11291179Y-17226160D02*
X11281655Y-17235684D01*
X11281655Y-17235684D02*
X11272131Y-17226160D01*
X11272131Y-17226160D02*
X11281655Y-17216636D01*
X11281655Y-17216636D02*
X11281655Y-17235684D01*
X11481655Y-17235684D02*
X11367369Y-17235684D01*
X11424512Y-17235684D02*
X11424512Y-17035684D01*
X11424512Y-17035684D02*
X11405465Y-17064255D01*
X11405465Y-17064255D02*
X11386417Y-17083303D01*
X11386417Y-17083303D02*
X11367369Y-17092827D01*
X11672131Y-17235684D02*
X11557846Y-17235684D01*
X11614988Y-17235684D02*
X11614988Y-17035684D01*
X11614988Y-17035684D02*
X11595941Y-17064255D01*
X11595941Y-17064255D02*
X11576893Y-17083303D01*
X11576893Y-17083303D02*
X11557846Y-17092827D01*
X11786417Y-17121398D02*
X11767369Y-17111874D01*
X11767369Y-17111874D02*
X11757846Y-17102350D01*
X11757846Y-17102350D02*
X11748322Y-17083303D01*
X11748322Y-17083303D02*
X11748322Y-17073779D01*
X11748322Y-17073779D02*
X11757846Y-17054731D01*
X11757846Y-17054731D02*
X11767369Y-17045208D01*
X11767369Y-17045208D02*
X11786417Y-17035684D01*
X11786417Y-17035684D02*
X11824512Y-17035684D01*
X11824512Y-17035684D02*
X11843560Y-17045208D01*
X11843560Y-17045208D02*
X11853084Y-17054731D01*
X11853084Y-17054731D02*
X11862607Y-17073779D01*
X11862607Y-17073779D02*
X11862607Y-17083303D01*
X11862607Y-17083303D02*
X11853084Y-17102350D01*
X11853084Y-17102350D02*
X11843560Y-17111874D01*
X11843560Y-17111874D02*
X11824512Y-17121398D01*
X11824512Y-17121398D02*
X11786417Y-17121398D01*
X11786417Y-17121398D02*
X11767369Y-17130922D01*
X11767369Y-17130922D02*
X11757846Y-17140446D01*
X11757846Y-17140446D02*
X11748322Y-17159493D01*
X11748322Y-17159493D02*
X11748322Y-17197589D01*
X11748322Y-17197589D02*
X11757846Y-17216636D01*
X11757846Y-17216636D02*
X11767369Y-17226160D01*
X11767369Y-17226160D02*
X11786417Y-17235684D01*
X11786417Y-17235684D02*
X11824512Y-17235684D01*
X11824512Y-17235684D02*
X11843560Y-17226160D01*
X11843560Y-17226160D02*
X11853084Y-17216636D01*
X11853084Y-17216636D02*
X11862607Y-17197589D01*
X11862607Y-17197589D02*
X11862607Y-17159493D01*
X11862607Y-17159493D02*
X11853084Y-17140446D01*
X11853084Y-17140446D02*
X11843560Y-17130922D01*
X11843560Y-17130922D02*
X11824512Y-17121398D01*
X12053084Y-17235684D02*
X11938798Y-17235684D01*
X11995941Y-17235684D02*
X11995941Y-17035684D01*
X11995941Y-17035684D02*
X11976893Y-17064255D01*
X11976893Y-17064255D02*
X11957846Y-17083303D01*
X11957846Y-17083303D02*
X11938798Y-17092827D01*
X12129274Y-17035684D02*
X12129274Y-17073779D01*
X12205465Y-17035684D02*
X12205465Y-17073779D01*
X12500703Y-17311874D02*
X12491179Y-17302350D01*
X12491179Y-17302350D02*
X12472131Y-17273779D01*
X12472131Y-17273779D02*
X12462608Y-17254731D01*
X12462608Y-17254731D02*
X12453084Y-17226160D01*
X12453084Y-17226160D02*
X12443560Y-17178541D01*
X12443560Y-17178541D02*
X12443560Y-17140446D01*
X12443560Y-17140446D02*
X12453084Y-17092827D01*
X12453084Y-17092827D02*
X12462608Y-17064255D01*
X12462608Y-17064255D02*
X12472131Y-17045208D01*
X12472131Y-17045208D02*
X12491179Y-17016636D01*
X12491179Y-17016636D02*
X12500703Y-17007112D01*
X12605465Y-17121398D02*
X12586417Y-17111874D01*
X12586417Y-17111874D02*
X12576893Y-17102350D01*
X12576893Y-17102350D02*
X12567369Y-17083303D01*
X12567369Y-17083303D02*
X12567369Y-17073779D01*
X12567369Y-17073779D02*
X12576893Y-17054731D01*
X12576893Y-17054731D02*
X12586417Y-17045208D01*
X12586417Y-17045208D02*
X12605465Y-17035684D01*
X12605465Y-17035684D02*
X12643560Y-17035684D01*
X12643560Y-17035684D02*
X12662608Y-17045208D01*
X12662608Y-17045208D02*
X12672131Y-17054731D01*
X12672131Y-17054731D02*
X12681655Y-17073779D01*
X12681655Y-17073779D02*
X12681655Y-17083303D01*
X12681655Y-17083303D02*
X12672131Y-17102350D01*
X12672131Y-17102350D02*
X12662608Y-17111874D01*
X12662608Y-17111874D02*
X12643560Y-17121398D01*
X12643560Y-17121398D02*
X12605465Y-17121398D01*
X12605465Y-17121398D02*
X12586417Y-17130922D01*
X12586417Y-17130922D02*
X12576893Y-17140446D01*
X12576893Y-17140446D02*
X12567369Y-17159493D01*
X12567369Y-17159493D02*
X12567369Y-17197589D01*
X12567369Y-17197589D02*
X12576893Y-17216636D01*
X12576893Y-17216636D02*
X12586417Y-17226160D01*
X12586417Y-17226160D02*
X12605465Y-17235684D01*
X12605465Y-17235684D02*
X12643560Y-17235684D01*
X12643560Y-17235684D02*
X12662608Y-17226160D01*
X12662608Y-17226160D02*
X12672131Y-17216636D01*
X12672131Y-17216636D02*
X12681655Y-17197589D01*
X12681655Y-17197589D02*
X12681655Y-17159493D01*
X12681655Y-17159493D02*
X12672131Y-17140446D01*
X12672131Y-17140446D02*
X12662608Y-17130922D01*
X12662608Y-17130922D02*
X12643560Y-17121398D01*
X12919750Y-17235684D02*
X12919750Y-17035684D01*
X13005465Y-17235684D02*
X13005465Y-17130922D01*
X13005465Y-17130922D02*
X12995941Y-17111874D01*
X12995941Y-17111874D02*
X12976893Y-17102350D01*
X12976893Y-17102350D02*
X12948322Y-17102350D01*
X12948322Y-17102350D02*
X12929274Y-17111874D01*
X12929274Y-17111874D02*
X12919750Y-17121398D01*
X13129274Y-17235684D02*
X13110227Y-17226160D01*
X13110227Y-17226160D02*
X13100703Y-17216636D01*
X13100703Y-17216636D02*
X13091179Y-17197589D01*
X13091179Y-17197589D02*
X13091179Y-17140446D01*
X13091179Y-17140446D02*
X13100703Y-17121398D01*
X13100703Y-17121398D02*
X13110227Y-17111874D01*
X13110227Y-17111874D02*
X13129274Y-17102350D01*
X13129274Y-17102350D02*
X13157846Y-17102350D01*
X13157846Y-17102350D02*
X13176893Y-17111874D01*
X13176893Y-17111874D02*
X13186417Y-17121398D01*
X13186417Y-17121398D02*
X13195941Y-17140446D01*
X13195941Y-17140446D02*
X13195941Y-17197589D01*
X13195941Y-17197589D02*
X13186417Y-17216636D01*
X13186417Y-17216636D02*
X13176893Y-17226160D01*
X13176893Y-17226160D02*
X13157846Y-17235684D01*
X13157846Y-17235684D02*
X13129274Y-17235684D01*
X13310227Y-17235684D02*
X13291179Y-17226160D01*
X13291179Y-17226160D02*
X13281655Y-17207112D01*
X13281655Y-17207112D02*
X13281655Y-17035684D01*
X13462608Y-17226160D02*
X13443560Y-17235684D01*
X13443560Y-17235684D02*
X13405465Y-17235684D01*
X13405465Y-17235684D02*
X13386417Y-17226160D01*
X13386417Y-17226160D02*
X13376893Y-17207112D01*
X13376893Y-17207112D02*
X13376893Y-17130922D01*
X13376893Y-17130922D02*
X13386417Y-17111874D01*
X13386417Y-17111874D02*
X13405465Y-17102350D01*
X13405465Y-17102350D02*
X13443560Y-17102350D01*
X13443560Y-17102350D02*
X13462608Y-17111874D01*
X13462608Y-17111874D02*
X13472131Y-17130922D01*
X13472131Y-17130922D02*
X13472131Y-17149970D01*
X13472131Y-17149970D02*
X13376893Y-17169017D01*
X13548322Y-17226160D02*
X13567370Y-17235684D01*
X13567370Y-17235684D02*
X13605465Y-17235684D01*
X13605465Y-17235684D02*
X13624512Y-17226160D01*
X13624512Y-17226160D02*
X13634036Y-17207112D01*
X13634036Y-17207112D02*
X13634036Y-17197589D01*
X13634036Y-17197589D02*
X13624512Y-17178541D01*
X13624512Y-17178541D02*
X13605465Y-17169017D01*
X13605465Y-17169017D02*
X13576893Y-17169017D01*
X13576893Y-17169017D02*
X13557846Y-17159493D01*
X13557846Y-17159493D02*
X13548322Y-17140446D01*
X13548322Y-17140446D02*
X13548322Y-17130922D01*
X13548322Y-17130922D02*
X13557846Y-17111874D01*
X13557846Y-17111874D02*
X13576893Y-17102350D01*
X13576893Y-17102350D02*
X13605465Y-17102350D01*
X13605465Y-17102350D02*
X13624512Y-17111874D01*
X13700703Y-17311874D02*
X13710227Y-17302350D01*
X13710227Y-17302350D02*
X13729274Y-17273779D01*
X13729274Y-17273779D02*
X13738798Y-17254731D01*
X13738798Y-17254731D02*
X13748322Y-17226160D01*
X13748322Y-17226160D02*
X13757846Y-17178541D01*
X13757846Y-17178541D02*
X13757846Y-17140446D01*
X13757846Y-17140446D02*
X13748322Y-17092827D01*
X13748322Y-17092827D02*
X13738798Y-17064255D01*
X13738798Y-17064255D02*
X13729274Y-17045208D01*
X13729274Y-17045208D02*
X13710227Y-17016636D01*
X13710227Y-17016636D02*
X13700703Y-17007112D01*
M02*
