G04 #@! TF.GenerationSoftware,KiCad,Pcbnew,7.0.7*
G04 #@! TF.CreationDate,2023-10-29T13:55:44+00:00*
G04 #@! TF.ProjectId,AD3 Front End Amplifier,41443320-4672-46f6-9e74-20456e642041,rev?*
G04 #@! TF.SameCoordinates,Original*
G04 #@! TF.FileFunction,Legend,Top*
G04 #@! TF.FilePolarity,Positive*
%FSLAX46Y46*%
G04 Gerber Fmt 4.6, Leading zero omitted, Abs format (unit mm)*
G04 Created by KiCad (PCBNEW 7.0.7) date 2023-10-29 13:55:44*
%MOMM*%
%LPD*%
G01*
G04 APERTURE LIST*
G04 Aperture macros list*
%AMRoundRect*
0 Rectangle with rounded corners*
0 $1 Rounding radius*
0 $2 $3 $4 $5 $6 $7 $8 $9 X,Y pos of 4 corners*
0 Add a 4 corners polygon primitive as box body*
4,1,4,$2,$3,$4,$5,$6,$7,$8,$9,$2,$3,0*
0 Add four circle primitives for the rounded corners*
1,1,$1+$1,$2,$3*
1,1,$1+$1,$4,$5*
1,1,$1+$1,$6,$7*
1,1,$1+$1,$8,$9*
0 Add four rect primitives between the rounded corners*
20,1,$1+$1,$2,$3,$4,$5,0*
20,1,$1+$1,$4,$5,$6,$7,0*
20,1,$1+$1,$6,$7,$8,$9,0*
20,1,$1+$1,$8,$9,$2,$3,0*%
G04 Aperture macros list end*
%ADD10C,0.150000*%
%ADD11C,0.300000*%
%ADD12C,0.400000*%
%ADD13C,0.010000*%
%ADD14C,0.120000*%
%ADD15R,1.700000X1.700000*%
%ADD16O,1.700000X1.700000*%
%ADD17RoundRect,0.150000X0.150000X-0.512500X0.150000X0.512500X-0.150000X0.512500X-0.150000X-0.512500X0*%
%ADD18RoundRect,0.150000X0.512500X0.150000X-0.512500X0.150000X-0.512500X-0.150000X0.512500X-0.150000X0*%
%ADD19R,1.600000X1.600000*%
%ADD20O,1.600000X1.600000*%
%ADD21RoundRect,0.237500X-0.250000X-0.237500X0.250000X-0.237500X0.250000X0.237500X-0.250000X0.237500X0*%
%ADD22RoundRect,0.237500X0.250000X0.237500X-0.250000X0.237500X-0.250000X-0.237500X0.250000X-0.237500X0*%
%ADD23RoundRect,0.160000X0.197500X0.160000X-0.197500X0.160000X-0.197500X-0.160000X0.197500X-0.160000X0*%
%ADD24RoundRect,0.160000X0.160000X-0.197500X0.160000X0.197500X-0.160000X0.197500X-0.160000X-0.197500X0*%
%ADD25RoundRect,0.160000X-0.197500X-0.160000X0.197500X-0.160000X0.197500X0.160000X-0.197500X0.160000X0*%
%ADD26RoundRect,0.250000X-0.450000X0.350000X-0.450000X-0.350000X0.450000X-0.350000X0.450000X0.350000X0*%
%ADD27O,1.600000X2.500000*%
%ADD28O,3.500000X7.000000*%
%ADD29RoundRect,0.237500X-0.237500X0.300000X-0.237500X-0.300000X0.237500X-0.300000X0.237500X0.300000X0*%
%ADD30RoundRect,0.237500X-0.300000X-0.237500X0.300000X-0.237500X0.300000X0.237500X-0.300000X0.237500X0*%
%ADD31RoundRect,0.237500X0.237500X-0.300000X0.237500X0.300000X-0.237500X0.300000X-0.237500X-0.300000X0*%
%ADD32C,1.600000*%
G04 APERTURE END LIST*
D10*
X97167819Y-131838458D02*
X98167819Y-131600363D01*
X98167819Y-131600363D02*
X97453533Y-131409887D01*
X97453533Y-131409887D02*
X98167819Y-131219411D01*
X98167819Y-131219411D02*
X97167819Y-130981316D01*
X98167819Y-130171792D02*
X97644009Y-130171792D01*
X97644009Y-130171792D02*
X97548771Y-130219411D01*
X97548771Y-130219411D02*
X97501152Y-130314649D01*
X97501152Y-130314649D02*
X97501152Y-130505125D01*
X97501152Y-130505125D02*
X97548771Y-130600363D01*
X98120200Y-130171792D02*
X98167819Y-130267030D01*
X98167819Y-130267030D02*
X98167819Y-130505125D01*
X98167819Y-130505125D02*
X98120200Y-130600363D01*
X98120200Y-130600363D02*
X98024961Y-130647982D01*
X98024961Y-130647982D02*
X97929723Y-130647982D01*
X97929723Y-130647982D02*
X97834485Y-130600363D01*
X97834485Y-130600363D02*
X97786866Y-130505125D01*
X97786866Y-130505125D02*
X97786866Y-130267030D01*
X97786866Y-130267030D02*
X97739247Y-130171792D01*
X98167819Y-129695601D02*
X97501152Y-129695601D01*
X97691628Y-129695601D02*
X97596390Y-129647982D01*
X97596390Y-129647982D02*
X97548771Y-129600363D01*
X97548771Y-129600363D02*
X97501152Y-129505125D01*
X97501152Y-129505125D02*
X97501152Y-129409887D01*
X97501152Y-129076553D02*
X98167819Y-129076553D01*
X97596390Y-129076553D02*
X97548771Y-129028934D01*
X97548771Y-129028934D02*
X97501152Y-128933696D01*
X97501152Y-128933696D02*
X97501152Y-128790839D01*
X97501152Y-128790839D02*
X97548771Y-128695601D01*
X97548771Y-128695601D02*
X97644009Y-128647982D01*
X97644009Y-128647982D02*
X98167819Y-128647982D01*
X98167819Y-128171791D02*
X97501152Y-128171791D01*
X97167819Y-128171791D02*
X97215438Y-128219410D01*
X97215438Y-128219410D02*
X97263057Y-128171791D01*
X97263057Y-128171791D02*
X97215438Y-128124172D01*
X97215438Y-128124172D02*
X97167819Y-128171791D01*
X97167819Y-128171791D02*
X97263057Y-128171791D01*
X97501152Y-127695601D02*
X98167819Y-127695601D01*
X97596390Y-127695601D02*
X97548771Y-127647982D01*
X97548771Y-127647982D02*
X97501152Y-127552744D01*
X97501152Y-127552744D02*
X97501152Y-127409887D01*
X97501152Y-127409887D02*
X97548771Y-127314649D01*
X97548771Y-127314649D02*
X97644009Y-127267030D01*
X97644009Y-127267030D02*
X98167819Y-127267030D01*
X97501152Y-126362268D02*
X98310676Y-126362268D01*
X98310676Y-126362268D02*
X98405914Y-126409887D01*
X98405914Y-126409887D02*
X98453533Y-126457506D01*
X98453533Y-126457506D02*
X98501152Y-126552744D01*
X98501152Y-126552744D02*
X98501152Y-126695601D01*
X98501152Y-126695601D02*
X98453533Y-126790839D01*
X98120200Y-126362268D02*
X98167819Y-126457506D01*
X98167819Y-126457506D02*
X98167819Y-126647982D01*
X98167819Y-126647982D02*
X98120200Y-126743220D01*
X98120200Y-126743220D02*
X98072580Y-126790839D01*
X98072580Y-126790839D02*
X97977342Y-126838458D01*
X97977342Y-126838458D02*
X97691628Y-126838458D01*
X97691628Y-126838458D02*
X97596390Y-126790839D01*
X97596390Y-126790839D02*
X97548771Y-126743220D01*
X97548771Y-126743220D02*
X97501152Y-126647982D01*
X97501152Y-126647982D02*
X97501152Y-126457506D01*
X97501152Y-126457506D02*
X97548771Y-126362268D01*
X98072580Y-125886077D02*
X98120200Y-125838458D01*
X98120200Y-125838458D02*
X98167819Y-125886077D01*
X98167819Y-125886077D02*
X98120200Y-125933696D01*
X98120200Y-125933696D02*
X98072580Y-125886077D01*
X98072580Y-125886077D02*
X98167819Y-125886077D01*
X97548771Y-125886077D02*
X97596390Y-125838458D01*
X97596390Y-125838458D02*
X97644009Y-125886077D01*
X97644009Y-125886077D02*
X97596390Y-125933696D01*
X97596390Y-125933696D02*
X97548771Y-125886077D01*
X97548771Y-125886077D02*
X97644009Y-125886077D01*
X98167819Y-124647982D02*
X97167819Y-124647982D01*
X97167819Y-124647982D02*
X97167819Y-124267030D01*
X97167819Y-124267030D02*
X97215438Y-124171792D01*
X97215438Y-124171792D02*
X97263057Y-124124173D01*
X97263057Y-124124173D02*
X97358295Y-124076554D01*
X97358295Y-124076554D02*
X97501152Y-124076554D01*
X97501152Y-124076554D02*
X97596390Y-124124173D01*
X97596390Y-124124173D02*
X97644009Y-124171792D01*
X97644009Y-124171792D02*
X97691628Y-124267030D01*
X97691628Y-124267030D02*
X97691628Y-124647982D01*
X98167819Y-123505125D02*
X98120200Y-123600363D01*
X98120200Y-123600363D02*
X98072580Y-123647982D01*
X98072580Y-123647982D02*
X97977342Y-123695601D01*
X97977342Y-123695601D02*
X97691628Y-123695601D01*
X97691628Y-123695601D02*
X97596390Y-123647982D01*
X97596390Y-123647982D02*
X97548771Y-123600363D01*
X97548771Y-123600363D02*
X97501152Y-123505125D01*
X97501152Y-123505125D02*
X97501152Y-123362268D01*
X97501152Y-123362268D02*
X97548771Y-123267030D01*
X97548771Y-123267030D02*
X97596390Y-123219411D01*
X97596390Y-123219411D02*
X97691628Y-123171792D01*
X97691628Y-123171792D02*
X97977342Y-123171792D01*
X97977342Y-123171792D02*
X98072580Y-123219411D01*
X98072580Y-123219411D02*
X98120200Y-123267030D01*
X98120200Y-123267030D02*
X98167819Y-123362268D01*
X98167819Y-123362268D02*
X98167819Y-123505125D01*
X97501152Y-122838458D02*
X98167819Y-122647982D01*
X98167819Y-122647982D02*
X97691628Y-122457506D01*
X97691628Y-122457506D02*
X98167819Y-122267030D01*
X98167819Y-122267030D02*
X97501152Y-122076554D01*
X98120200Y-121314649D02*
X98167819Y-121409887D01*
X98167819Y-121409887D02*
X98167819Y-121600363D01*
X98167819Y-121600363D02*
X98120200Y-121695601D01*
X98120200Y-121695601D02*
X98024961Y-121743220D01*
X98024961Y-121743220D02*
X97644009Y-121743220D01*
X97644009Y-121743220D02*
X97548771Y-121695601D01*
X97548771Y-121695601D02*
X97501152Y-121600363D01*
X97501152Y-121600363D02*
X97501152Y-121409887D01*
X97501152Y-121409887D02*
X97548771Y-121314649D01*
X97548771Y-121314649D02*
X97644009Y-121267030D01*
X97644009Y-121267030D02*
X97739247Y-121267030D01*
X97739247Y-121267030D02*
X97834485Y-121743220D01*
X98167819Y-120838458D02*
X97501152Y-120838458D01*
X97691628Y-120838458D02*
X97596390Y-120790839D01*
X97596390Y-120790839D02*
X97548771Y-120743220D01*
X97548771Y-120743220D02*
X97501152Y-120647982D01*
X97501152Y-120647982D02*
X97501152Y-120552744D01*
X98120200Y-119505124D02*
X98167819Y-119362267D01*
X98167819Y-119362267D02*
X98167819Y-119124172D01*
X98167819Y-119124172D02*
X98120200Y-119028934D01*
X98120200Y-119028934D02*
X98072580Y-118981315D01*
X98072580Y-118981315D02*
X97977342Y-118933696D01*
X97977342Y-118933696D02*
X97882104Y-118933696D01*
X97882104Y-118933696D02*
X97786866Y-118981315D01*
X97786866Y-118981315D02*
X97739247Y-119028934D01*
X97739247Y-119028934D02*
X97691628Y-119124172D01*
X97691628Y-119124172D02*
X97644009Y-119314648D01*
X97644009Y-119314648D02*
X97596390Y-119409886D01*
X97596390Y-119409886D02*
X97548771Y-119457505D01*
X97548771Y-119457505D02*
X97453533Y-119505124D01*
X97453533Y-119505124D02*
X97358295Y-119505124D01*
X97358295Y-119505124D02*
X97263057Y-119457505D01*
X97263057Y-119457505D02*
X97215438Y-119409886D01*
X97215438Y-119409886D02*
X97167819Y-119314648D01*
X97167819Y-119314648D02*
X97167819Y-119076553D01*
X97167819Y-119076553D02*
X97215438Y-118933696D01*
X97501152Y-118076553D02*
X98167819Y-118076553D01*
X97501152Y-118505124D02*
X98024961Y-118505124D01*
X98024961Y-118505124D02*
X98120200Y-118457505D01*
X98120200Y-118457505D02*
X98167819Y-118362267D01*
X98167819Y-118362267D02*
X98167819Y-118219410D01*
X98167819Y-118219410D02*
X98120200Y-118124172D01*
X98120200Y-118124172D02*
X98072580Y-118076553D01*
X97501152Y-117600362D02*
X98501152Y-117600362D01*
X97548771Y-117600362D02*
X97501152Y-117505124D01*
X97501152Y-117505124D02*
X97501152Y-117314648D01*
X97501152Y-117314648D02*
X97548771Y-117219410D01*
X97548771Y-117219410D02*
X97596390Y-117171791D01*
X97596390Y-117171791D02*
X97691628Y-117124172D01*
X97691628Y-117124172D02*
X97977342Y-117124172D01*
X97977342Y-117124172D02*
X98072580Y-117171791D01*
X98072580Y-117171791D02*
X98120200Y-117219410D01*
X98120200Y-117219410D02*
X98167819Y-117314648D01*
X98167819Y-117314648D02*
X98167819Y-117505124D01*
X98167819Y-117505124D02*
X98120200Y-117600362D01*
X97501152Y-116695600D02*
X98501152Y-116695600D01*
X97548771Y-116695600D02*
X97501152Y-116600362D01*
X97501152Y-116600362D02*
X97501152Y-116409886D01*
X97501152Y-116409886D02*
X97548771Y-116314648D01*
X97548771Y-116314648D02*
X97596390Y-116267029D01*
X97596390Y-116267029D02*
X97691628Y-116219410D01*
X97691628Y-116219410D02*
X97977342Y-116219410D01*
X97977342Y-116219410D02*
X98072580Y-116267029D01*
X98072580Y-116267029D02*
X98120200Y-116314648D01*
X98120200Y-116314648D02*
X98167819Y-116409886D01*
X98167819Y-116409886D02*
X98167819Y-116600362D01*
X98167819Y-116600362D02*
X98120200Y-116695600D01*
X98167819Y-115647981D02*
X98120200Y-115743219D01*
X98120200Y-115743219D02*
X98024961Y-115790838D01*
X98024961Y-115790838D02*
X97167819Y-115790838D01*
X97501152Y-115362266D02*
X98167819Y-115124171D01*
X97501152Y-114886076D02*
X98167819Y-115124171D01*
X98167819Y-115124171D02*
X98405914Y-115219409D01*
X98405914Y-115219409D02*
X98453533Y-115267028D01*
X98453533Y-115267028D02*
X98501152Y-115362266D01*
X98167819Y-113743218D02*
X97167819Y-113743218D01*
X97167819Y-113743218D02*
X97882104Y-113409885D01*
X97882104Y-113409885D02*
X97167819Y-113076552D01*
X97167819Y-113076552D02*
X98167819Y-113076552D01*
X97882104Y-112647980D02*
X97882104Y-112171790D01*
X98167819Y-112743218D02*
X97167819Y-112409885D01*
X97167819Y-112409885D02*
X98167819Y-112076552D01*
X97167819Y-111838456D02*
X98167819Y-111171790D01*
X97167819Y-111171790D02*
X98167819Y-111838456D01*
X97786866Y-110028932D02*
X97786866Y-109267028D01*
X98167819Y-109647980D02*
X97405914Y-109647980D01*
X97786866Y-108790837D02*
X97786866Y-108028933D01*
X97167819Y-107076552D02*
X97167819Y-107552742D01*
X97167819Y-107552742D02*
X97644009Y-107600361D01*
X97644009Y-107600361D02*
X97596390Y-107552742D01*
X97596390Y-107552742D02*
X97548771Y-107457504D01*
X97548771Y-107457504D02*
X97548771Y-107219409D01*
X97548771Y-107219409D02*
X97596390Y-107124171D01*
X97596390Y-107124171D02*
X97644009Y-107076552D01*
X97644009Y-107076552D02*
X97739247Y-107028933D01*
X97739247Y-107028933D02*
X97977342Y-107028933D01*
X97977342Y-107028933D02*
X98072580Y-107076552D01*
X98072580Y-107076552D02*
X98120200Y-107124171D01*
X98120200Y-107124171D02*
X98167819Y-107219409D01*
X98167819Y-107219409D02*
X98167819Y-107457504D01*
X98167819Y-107457504D02*
X98120200Y-107552742D01*
X98120200Y-107552742D02*
X98072580Y-107600361D01*
X97167819Y-106743218D02*
X98167819Y-106409885D01*
X98167819Y-106409885D02*
X97167819Y-106076552D01*
X104937160Y-122266104D02*
X105413350Y-122266104D01*
X104841922Y-122551819D02*
X105175255Y-121551819D01*
X105175255Y-121551819D02*
X105508588Y-122551819D01*
X105841922Y-121885152D02*
X105841922Y-122551819D01*
X105841922Y-121980390D02*
X105889541Y-121932771D01*
X105889541Y-121932771D02*
X105984779Y-121885152D01*
X105984779Y-121885152D02*
X106127636Y-121885152D01*
X106127636Y-121885152D02*
X106222874Y-121932771D01*
X106222874Y-121932771D02*
X106270493Y-122028009D01*
X106270493Y-122028009D02*
X106270493Y-122551819D01*
X107175255Y-122551819D02*
X107175255Y-122028009D01*
X107175255Y-122028009D02*
X107127636Y-121932771D01*
X107127636Y-121932771D02*
X107032398Y-121885152D01*
X107032398Y-121885152D02*
X106841922Y-121885152D01*
X106841922Y-121885152D02*
X106746684Y-121932771D01*
X107175255Y-122504200D02*
X107080017Y-122551819D01*
X107080017Y-122551819D02*
X106841922Y-122551819D01*
X106841922Y-122551819D02*
X106746684Y-122504200D01*
X106746684Y-122504200D02*
X106699065Y-122408961D01*
X106699065Y-122408961D02*
X106699065Y-122313723D01*
X106699065Y-122313723D02*
X106746684Y-122218485D01*
X106746684Y-122218485D02*
X106841922Y-122170866D01*
X106841922Y-122170866D02*
X107080017Y-122170866D01*
X107080017Y-122170866D02*
X107175255Y-122123247D01*
X107794303Y-122551819D02*
X107699065Y-122504200D01*
X107699065Y-122504200D02*
X107651446Y-122408961D01*
X107651446Y-122408961D02*
X107651446Y-121551819D01*
X108318113Y-122551819D02*
X108222875Y-122504200D01*
X108222875Y-122504200D02*
X108175256Y-122456580D01*
X108175256Y-122456580D02*
X108127637Y-122361342D01*
X108127637Y-122361342D02*
X108127637Y-122075628D01*
X108127637Y-122075628D02*
X108175256Y-121980390D01*
X108175256Y-121980390D02*
X108222875Y-121932771D01*
X108222875Y-121932771D02*
X108318113Y-121885152D01*
X108318113Y-121885152D02*
X108460970Y-121885152D01*
X108460970Y-121885152D02*
X108556208Y-121932771D01*
X108556208Y-121932771D02*
X108603827Y-121980390D01*
X108603827Y-121980390D02*
X108651446Y-122075628D01*
X108651446Y-122075628D02*
X108651446Y-122361342D01*
X108651446Y-122361342D02*
X108603827Y-122456580D01*
X108603827Y-122456580D02*
X108556208Y-122504200D01*
X108556208Y-122504200D02*
X108460970Y-122551819D01*
X108460970Y-122551819D02*
X108318113Y-122551819D01*
X109508589Y-121885152D02*
X109508589Y-122694676D01*
X109508589Y-122694676D02*
X109460970Y-122789914D01*
X109460970Y-122789914D02*
X109413351Y-122837533D01*
X109413351Y-122837533D02*
X109318113Y-122885152D01*
X109318113Y-122885152D02*
X109175256Y-122885152D01*
X109175256Y-122885152D02*
X109080018Y-122837533D01*
X109508589Y-122504200D02*
X109413351Y-122551819D01*
X109413351Y-122551819D02*
X109222875Y-122551819D01*
X109222875Y-122551819D02*
X109127637Y-122504200D01*
X109127637Y-122504200D02*
X109080018Y-122456580D01*
X109080018Y-122456580D02*
X109032399Y-122361342D01*
X109032399Y-122361342D02*
X109032399Y-122075628D01*
X109032399Y-122075628D02*
X109080018Y-121980390D01*
X109080018Y-121980390D02*
X109127637Y-121932771D01*
X109127637Y-121932771D02*
X109222875Y-121885152D01*
X109222875Y-121885152D02*
X109413351Y-121885152D01*
X109413351Y-121885152D02*
X109508589Y-121932771D01*
X110746685Y-122551819D02*
X110746685Y-121551819D01*
X110746685Y-121551819D02*
X110984780Y-121551819D01*
X110984780Y-121551819D02*
X111127637Y-121599438D01*
X111127637Y-121599438D02*
X111222875Y-121694676D01*
X111222875Y-121694676D02*
X111270494Y-121789914D01*
X111270494Y-121789914D02*
X111318113Y-121980390D01*
X111318113Y-121980390D02*
X111318113Y-122123247D01*
X111318113Y-122123247D02*
X111270494Y-122313723D01*
X111270494Y-122313723D02*
X111222875Y-122408961D01*
X111222875Y-122408961D02*
X111127637Y-122504200D01*
X111127637Y-122504200D02*
X110984780Y-122551819D01*
X110984780Y-122551819D02*
X110746685Y-122551819D01*
X111746685Y-122551819D02*
X111746685Y-121885152D01*
X111746685Y-121551819D02*
X111699066Y-121599438D01*
X111699066Y-121599438D02*
X111746685Y-121647057D01*
X111746685Y-121647057D02*
X111794304Y-121599438D01*
X111794304Y-121599438D02*
X111746685Y-121551819D01*
X111746685Y-121551819D02*
X111746685Y-121647057D01*
X112175256Y-122504200D02*
X112270494Y-122551819D01*
X112270494Y-122551819D02*
X112460970Y-122551819D01*
X112460970Y-122551819D02*
X112556208Y-122504200D01*
X112556208Y-122504200D02*
X112603827Y-122408961D01*
X112603827Y-122408961D02*
X112603827Y-122361342D01*
X112603827Y-122361342D02*
X112556208Y-122266104D01*
X112556208Y-122266104D02*
X112460970Y-122218485D01*
X112460970Y-122218485D02*
X112318113Y-122218485D01*
X112318113Y-122218485D02*
X112222875Y-122170866D01*
X112222875Y-122170866D02*
X112175256Y-122075628D01*
X112175256Y-122075628D02*
X112175256Y-122028009D01*
X112175256Y-122028009D02*
X112222875Y-121932771D01*
X112222875Y-121932771D02*
X112318113Y-121885152D01*
X112318113Y-121885152D02*
X112460970Y-121885152D01*
X112460970Y-121885152D02*
X112556208Y-121932771D01*
X113460970Y-122504200D02*
X113365732Y-122551819D01*
X113365732Y-122551819D02*
X113175256Y-122551819D01*
X113175256Y-122551819D02*
X113080018Y-122504200D01*
X113080018Y-122504200D02*
X113032399Y-122456580D01*
X113032399Y-122456580D02*
X112984780Y-122361342D01*
X112984780Y-122361342D02*
X112984780Y-122075628D01*
X112984780Y-122075628D02*
X113032399Y-121980390D01*
X113032399Y-121980390D02*
X113080018Y-121932771D01*
X113080018Y-121932771D02*
X113175256Y-121885152D01*
X113175256Y-121885152D02*
X113365732Y-121885152D01*
X113365732Y-121885152D02*
X113460970Y-121932771D01*
X114032399Y-122551819D02*
X113937161Y-122504200D01*
X113937161Y-122504200D02*
X113889542Y-122456580D01*
X113889542Y-122456580D02*
X113841923Y-122361342D01*
X113841923Y-122361342D02*
X113841923Y-122075628D01*
X113841923Y-122075628D02*
X113889542Y-121980390D01*
X113889542Y-121980390D02*
X113937161Y-121932771D01*
X113937161Y-121932771D02*
X114032399Y-121885152D01*
X114032399Y-121885152D02*
X114175256Y-121885152D01*
X114175256Y-121885152D02*
X114270494Y-121932771D01*
X114270494Y-121932771D02*
X114318113Y-121980390D01*
X114318113Y-121980390D02*
X114365732Y-122075628D01*
X114365732Y-122075628D02*
X114365732Y-122361342D01*
X114365732Y-122361342D02*
X114318113Y-122456580D01*
X114318113Y-122456580D02*
X114270494Y-122504200D01*
X114270494Y-122504200D02*
X114175256Y-122551819D01*
X114175256Y-122551819D02*
X114032399Y-122551819D01*
X114699066Y-121885152D02*
X114937161Y-122551819D01*
X114937161Y-122551819D02*
X115175256Y-121885152D01*
X115937161Y-122504200D02*
X115841923Y-122551819D01*
X115841923Y-122551819D02*
X115651447Y-122551819D01*
X115651447Y-122551819D02*
X115556209Y-122504200D01*
X115556209Y-122504200D02*
X115508590Y-122408961D01*
X115508590Y-122408961D02*
X115508590Y-122028009D01*
X115508590Y-122028009D02*
X115556209Y-121932771D01*
X115556209Y-121932771D02*
X115651447Y-121885152D01*
X115651447Y-121885152D02*
X115841923Y-121885152D01*
X115841923Y-121885152D02*
X115937161Y-121932771D01*
X115937161Y-121932771D02*
X115984780Y-122028009D01*
X115984780Y-122028009D02*
X115984780Y-122123247D01*
X115984780Y-122123247D02*
X115508590Y-122218485D01*
X116413352Y-122551819D02*
X116413352Y-121885152D01*
X116413352Y-122075628D02*
X116460971Y-121980390D01*
X116460971Y-121980390D02*
X116508590Y-121932771D01*
X116508590Y-121932771D02*
X116603828Y-121885152D01*
X116603828Y-121885152D02*
X116699066Y-121885152D01*
X116937162Y-121885152D02*
X117175257Y-122551819D01*
X117413352Y-121885152D02*
X117175257Y-122551819D01*
X117175257Y-122551819D02*
X117080019Y-122789914D01*
X117080019Y-122789914D02*
X117032400Y-122837533D01*
X117032400Y-122837533D02*
X116937162Y-122885152D01*
X118889543Y-122028009D02*
X118556210Y-122028009D01*
X118556210Y-122551819D02*
X118556210Y-121551819D01*
X118556210Y-121551819D02*
X119032400Y-121551819D01*
X119413353Y-122551819D02*
X119413353Y-121885152D01*
X119413353Y-122075628D02*
X119460972Y-121980390D01*
X119460972Y-121980390D02*
X119508591Y-121932771D01*
X119508591Y-121932771D02*
X119603829Y-121885152D01*
X119603829Y-121885152D02*
X119699067Y-121885152D01*
X120175258Y-122551819D02*
X120080020Y-122504200D01*
X120080020Y-122504200D02*
X120032401Y-122456580D01*
X120032401Y-122456580D02*
X119984782Y-122361342D01*
X119984782Y-122361342D02*
X119984782Y-122075628D01*
X119984782Y-122075628D02*
X120032401Y-121980390D01*
X120032401Y-121980390D02*
X120080020Y-121932771D01*
X120080020Y-121932771D02*
X120175258Y-121885152D01*
X120175258Y-121885152D02*
X120318115Y-121885152D01*
X120318115Y-121885152D02*
X120413353Y-121932771D01*
X120413353Y-121932771D02*
X120460972Y-121980390D01*
X120460972Y-121980390D02*
X120508591Y-122075628D01*
X120508591Y-122075628D02*
X120508591Y-122361342D01*
X120508591Y-122361342D02*
X120460972Y-122456580D01*
X120460972Y-122456580D02*
X120413353Y-122504200D01*
X120413353Y-122504200D02*
X120318115Y-122551819D01*
X120318115Y-122551819D02*
X120175258Y-122551819D01*
X120937163Y-121885152D02*
X120937163Y-122551819D01*
X120937163Y-121980390D02*
X120984782Y-121932771D01*
X120984782Y-121932771D02*
X121080020Y-121885152D01*
X121080020Y-121885152D02*
X121222877Y-121885152D01*
X121222877Y-121885152D02*
X121318115Y-121932771D01*
X121318115Y-121932771D02*
X121365734Y-122028009D01*
X121365734Y-122028009D02*
X121365734Y-122551819D01*
X121699068Y-121885152D02*
X122080020Y-121885152D01*
X121841925Y-121551819D02*
X121841925Y-122408961D01*
X121841925Y-122408961D02*
X121889544Y-122504200D01*
X121889544Y-122504200D02*
X121984782Y-122551819D01*
X121984782Y-122551819D02*
X122080020Y-122551819D01*
X123175259Y-122028009D02*
X123508592Y-122028009D01*
X123651449Y-122551819D02*
X123175259Y-122551819D01*
X123175259Y-122551819D02*
X123175259Y-121551819D01*
X123175259Y-121551819D02*
X123651449Y-121551819D01*
X124080021Y-121885152D02*
X124080021Y-122551819D01*
X124080021Y-121980390D02*
X124127640Y-121932771D01*
X124127640Y-121932771D02*
X124222878Y-121885152D01*
X124222878Y-121885152D02*
X124365735Y-121885152D01*
X124365735Y-121885152D02*
X124460973Y-121932771D01*
X124460973Y-121932771D02*
X124508592Y-122028009D01*
X124508592Y-122028009D02*
X124508592Y-122551819D01*
X125413354Y-122551819D02*
X125413354Y-121551819D01*
X125413354Y-122504200D02*
X125318116Y-122551819D01*
X125318116Y-122551819D02*
X125127640Y-122551819D01*
X125127640Y-122551819D02*
X125032402Y-122504200D01*
X125032402Y-122504200D02*
X124984783Y-122456580D01*
X124984783Y-122456580D02*
X124937164Y-122361342D01*
X124937164Y-122361342D02*
X124937164Y-122075628D01*
X124937164Y-122075628D02*
X124984783Y-121980390D01*
X124984783Y-121980390D02*
X125032402Y-121932771D01*
X125032402Y-121932771D02*
X125127640Y-121885152D01*
X125127640Y-121885152D02*
X125318116Y-121885152D01*
X125318116Y-121885152D02*
X125413354Y-121932771D01*
X126603831Y-122266104D02*
X127080021Y-122266104D01*
X126508593Y-122551819D02*
X126841926Y-121551819D01*
X126841926Y-121551819D02*
X127175259Y-122551819D01*
X127508593Y-122551819D02*
X127508593Y-121885152D01*
X127508593Y-121980390D02*
X127556212Y-121932771D01*
X127556212Y-121932771D02*
X127651450Y-121885152D01*
X127651450Y-121885152D02*
X127794307Y-121885152D01*
X127794307Y-121885152D02*
X127889545Y-121932771D01*
X127889545Y-121932771D02*
X127937164Y-122028009D01*
X127937164Y-122028009D02*
X127937164Y-122551819D01*
X127937164Y-122028009D02*
X127984783Y-121932771D01*
X127984783Y-121932771D02*
X128080021Y-121885152D01*
X128080021Y-121885152D02*
X128222878Y-121885152D01*
X128222878Y-121885152D02*
X128318117Y-121932771D01*
X128318117Y-121932771D02*
X128365736Y-122028009D01*
X128365736Y-122028009D02*
X128365736Y-122551819D01*
X128841926Y-121885152D02*
X128841926Y-122885152D01*
X128841926Y-121932771D02*
X128937164Y-121885152D01*
X128937164Y-121885152D02*
X129127640Y-121885152D01*
X129127640Y-121885152D02*
X129222878Y-121932771D01*
X129222878Y-121932771D02*
X129270497Y-121980390D01*
X129270497Y-121980390D02*
X129318116Y-122075628D01*
X129318116Y-122075628D02*
X129318116Y-122361342D01*
X129318116Y-122361342D02*
X129270497Y-122456580D01*
X129270497Y-122456580D02*
X129222878Y-122504200D01*
X129222878Y-122504200D02*
X129127640Y-122551819D01*
X129127640Y-122551819D02*
X128937164Y-122551819D01*
X128937164Y-122551819D02*
X128841926Y-122504200D01*
X129889545Y-122551819D02*
X129794307Y-122504200D01*
X129794307Y-122504200D02*
X129746688Y-122408961D01*
X129746688Y-122408961D02*
X129746688Y-121551819D01*
X130270498Y-122551819D02*
X130270498Y-121885152D01*
X130270498Y-121551819D02*
X130222879Y-121599438D01*
X130222879Y-121599438D02*
X130270498Y-121647057D01*
X130270498Y-121647057D02*
X130318117Y-121599438D01*
X130318117Y-121599438D02*
X130270498Y-121551819D01*
X130270498Y-121551819D02*
X130270498Y-121647057D01*
X130603831Y-121885152D02*
X130984783Y-121885152D01*
X130746688Y-122551819D02*
X130746688Y-121694676D01*
X130746688Y-121694676D02*
X130794307Y-121599438D01*
X130794307Y-121599438D02*
X130889545Y-121551819D01*
X130889545Y-121551819D02*
X130984783Y-121551819D01*
X131318117Y-122551819D02*
X131318117Y-121885152D01*
X131318117Y-121551819D02*
X131270498Y-121599438D01*
X131270498Y-121599438D02*
X131318117Y-121647057D01*
X131318117Y-121647057D02*
X131365736Y-121599438D01*
X131365736Y-121599438D02*
X131318117Y-121551819D01*
X131318117Y-121551819D02*
X131318117Y-121647057D01*
X132175259Y-122504200D02*
X132080021Y-122551819D01*
X132080021Y-122551819D02*
X131889545Y-122551819D01*
X131889545Y-122551819D02*
X131794307Y-122504200D01*
X131794307Y-122504200D02*
X131746688Y-122408961D01*
X131746688Y-122408961D02*
X131746688Y-122028009D01*
X131746688Y-122028009D02*
X131794307Y-121932771D01*
X131794307Y-121932771D02*
X131889545Y-121885152D01*
X131889545Y-121885152D02*
X132080021Y-121885152D01*
X132080021Y-121885152D02*
X132175259Y-121932771D01*
X132175259Y-121932771D02*
X132222878Y-122028009D01*
X132222878Y-122028009D02*
X132222878Y-122123247D01*
X132222878Y-122123247D02*
X131746688Y-122218485D01*
X132651450Y-122551819D02*
X132651450Y-121885152D01*
X132651450Y-122075628D02*
X132699069Y-121980390D01*
X132699069Y-121980390D02*
X132746688Y-121932771D01*
X132746688Y-121932771D02*
X132841926Y-121885152D01*
X132841926Y-121885152D02*
X132937164Y-121885152D01*
X133937165Y-121885152D02*
X134175260Y-122551819D01*
X134175260Y-122551819D02*
X134413355Y-121885152D01*
X134984784Y-121551819D02*
X135080022Y-121551819D01*
X135080022Y-121551819D02*
X135175260Y-121599438D01*
X135175260Y-121599438D02*
X135222879Y-121647057D01*
X135222879Y-121647057D02*
X135270498Y-121742295D01*
X135270498Y-121742295D02*
X135318117Y-121932771D01*
X135318117Y-121932771D02*
X135318117Y-122170866D01*
X135318117Y-122170866D02*
X135270498Y-122361342D01*
X135270498Y-122361342D02*
X135222879Y-122456580D01*
X135222879Y-122456580D02*
X135175260Y-122504200D01*
X135175260Y-122504200D02*
X135080022Y-122551819D01*
X135080022Y-122551819D02*
X134984784Y-122551819D01*
X134984784Y-122551819D02*
X134889546Y-122504200D01*
X134889546Y-122504200D02*
X134841927Y-122456580D01*
X134841927Y-122456580D02*
X134794308Y-122361342D01*
X134794308Y-122361342D02*
X134746689Y-122170866D01*
X134746689Y-122170866D02*
X134746689Y-121932771D01*
X134746689Y-121932771D02*
X134794308Y-121742295D01*
X134794308Y-121742295D02*
X134841927Y-121647057D01*
X134841927Y-121647057D02*
X134889546Y-121599438D01*
X134889546Y-121599438D02*
X134984784Y-121551819D01*
X135746689Y-122456580D02*
X135794308Y-122504200D01*
X135794308Y-122504200D02*
X135746689Y-122551819D01*
X135746689Y-122551819D02*
X135699070Y-122504200D01*
X135699070Y-122504200D02*
X135746689Y-122456580D01*
X135746689Y-122456580D02*
X135746689Y-122551819D01*
X136746688Y-122551819D02*
X136175260Y-122551819D01*
X136460974Y-122551819D02*
X136460974Y-121551819D01*
X136460974Y-121551819D02*
X136365736Y-121694676D01*
X136365736Y-121694676D02*
X136270498Y-121789914D01*
X136270498Y-121789914D02*
X136175260Y-121837533D01*
D11*
X105202510Y-120450828D02*
X105202510Y-118950828D01*
X105916796Y-119450828D02*
X105916796Y-120450828D01*
X105916796Y-119593685D02*
X105988225Y-119522257D01*
X105988225Y-119522257D02*
X106131082Y-119450828D01*
X106131082Y-119450828D02*
X106345368Y-119450828D01*
X106345368Y-119450828D02*
X106488225Y-119522257D01*
X106488225Y-119522257D02*
X106559654Y-119665114D01*
X106559654Y-119665114D02*
X106559654Y-120450828D01*
X107059654Y-119450828D02*
X107631082Y-119450828D01*
X107273939Y-120450828D02*
X107273939Y-119165114D01*
X107273939Y-119165114D02*
X107345368Y-119022257D01*
X107345368Y-119022257D02*
X107488225Y-118950828D01*
X107488225Y-118950828D02*
X107631082Y-118950828D01*
X108131082Y-120450828D02*
X108131082Y-119450828D01*
X108131082Y-118950828D02*
X108059654Y-119022257D01*
X108059654Y-119022257D02*
X108131082Y-119093685D01*
X108131082Y-119093685D02*
X108202511Y-119022257D01*
X108202511Y-119022257D02*
X108131082Y-118950828D01*
X108131082Y-118950828D02*
X108131082Y-119093685D01*
X108845368Y-119450828D02*
X108845368Y-120450828D01*
X108845368Y-119593685D02*
X108916797Y-119522257D01*
X108916797Y-119522257D02*
X109059654Y-119450828D01*
X109059654Y-119450828D02*
X109273940Y-119450828D01*
X109273940Y-119450828D02*
X109416797Y-119522257D01*
X109416797Y-119522257D02*
X109488226Y-119665114D01*
X109488226Y-119665114D02*
X109488226Y-120450828D01*
X110845369Y-119450828D02*
X110845369Y-120450828D01*
X110202511Y-119450828D02*
X110202511Y-120236542D01*
X110202511Y-120236542D02*
X110273940Y-120379400D01*
X110273940Y-120379400D02*
X110416797Y-120450828D01*
X110416797Y-120450828D02*
X110631083Y-120450828D01*
X110631083Y-120450828D02*
X110773940Y-120379400D01*
X110773940Y-120379400D02*
X110845369Y-120307971D01*
X111488226Y-120379400D02*
X111631083Y-120450828D01*
X111631083Y-120450828D02*
X111916797Y-120450828D01*
X111916797Y-120450828D02*
X112059654Y-120379400D01*
X112059654Y-120379400D02*
X112131083Y-120236542D01*
X112131083Y-120236542D02*
X112131083Y-120165114D01*
X112131083Y-120165114D02*
X112059654Y-120022257D01*
X112059654Y-120022257D02*
X111916797Y-119950828D01*
X111916797Y-119950828D02*
X111702512Y-119950828D01*
X111702512Y-119950828D02*
X111559654Y-119879400D01*
X111559654Y-119879400D02*
X111488226Y-119736542D01*
X111488226Y-119736542D02*
X111488226Y-119665114D01*
X111488226Y-119665114D02*
X111559654Y-119522257D01*
X111559654Y-119522257D02*
X111702512Y-119450828D01*
X111702512Y-119450828D02*
X111916797Y-119450828D01*
X111916797Y-119450828D02*
X112059654Y-119522257D01*
X113916797Y-119665114D02*
X114416797Y-119665114D01*
X114631083Y-120450828D02*
X113916797Y-120450828D01*
X113916797Y-120450828D02*
X113916797Y-118950828D01*
X113916797Y-118950828D02*
X114631083Y-118950828D01*
X115488226Y-120450828D02*
X115345369Y-120379400D01*
X115345369Y-120379400D02*
X115273940Y-120236542D01*
X115273940Y-120236542D02*
X115273940Y-118950828D01*
X116631083Y-120379400D02*
X116488226Y-120450828D01*
X116488226Y-120450828D02*
X116202512Y-120450828D01*
X116202512Y-120450828D02*
X116059654Y-120379400D01*
X116059654Y-120379400D02*
X115988226Y-120236542D01*
X115988226Y-120236542D02*
X115988226Y-119665114D01*
X115988226Y-119665114D02*
X116059654Y-119522257D01*
X116059654Y-119522257D02*
X116202512Y-119450828D01*
X116202512Y-119450828D02*
X116488226Y-119450828D01*
X116488226Y-119450828D02*
X116631083Y-119522257D01*
X116631083Y-119522257D02*
X116702512Y-119665114D01*
X116702512Y-119665114D02*
X116702512Y-119807971D01*
X116702512Y-119807971D02*
X115988226Y-119950828D01*
X117988226Y-120379400D02*
X117845368Y-120450828D01*
X117845368Y-120450828D02*
X117559654Y-120450828D01*
X117559654Y-120450828D02*
X117416797Y-120379400D01*
X117416797Y-120379400D02*
X117345368Y-120307971D01*
X117345368Y-120307971D02*
X117273940Y-120165114D01*
X117273940Y-120165114D02*
X117273940Y-119736542D01*
X117273940Y-119736542D02*
X117345368Y-119593685D01*
X117345368Y-119593685D02*
X117416797Y-119522257D01*
X117416797Y-119522257D02*
X117559654Y-119450828D01*
X117559654Y-119450828D02*
X117845368Y-119450828D01*
X117845368Y-119450828D02*
X117988226Y-119522257D01*
X118416797Y-119450828D02*
X118988225Y-119450828D01*
X118631082Y-118950828D02*
X118631082Y-120236542D01*
X118631082Y-120236542D02*
X118702511Y-120379400D01*
X118702511Y-120379400D02*
X118845368Y-120450828D01*
X118845368Y-120450828D02*
X118988225Y-120450828D01*
X119488225Y-120450828D02*
X119488225Y-119450828D01*
X119488225Y-119736542D02*
X119559654Y-119593685D01*
X119559654Y-119593685D02*
X119631083Y-119522257D01*
X119631083Y-119522257D02*
X119773940Y-119450828D01*
X119773940Y-119450828D02*
X119916797Y-119450828D01*
X120631082Y-120450828D02*
X120488225Y-120379400D01*
X120488225Y-120379400D02*
X120416796Y-120307971D01*
X120416796Y-120307971D02*
X120345368Y-120165114D01*
X120345368Y-120165114D02*
X120345368Y-119736542D01*
X120345368Y-119736542D02*
X120416796Y-119593685D01*
X120416796Y-119593685D02*
X120488225Y-119522257D01*
X120488225Y-119522257D02*
X120631082Y-119450828D01*
X120631082Y-119450828D02*
X120845368Y-119450828D01*
X120845368Y-119450828D02*
X120988225Y-119522257D01*
X120988225Y-119522257D02*
X121059654Y-119593685D01*
X121059654Y-119593685D02*
X121131082Y-119736542D01*
X121131082Y-119736542D02*
X121131082Y-120165114D01*
X121131082Y-120165114D02*
X121059654Y-120307971D01*
X121059654Y-120307971D02*
X120988225Y-120379400D01*
X120988225Y-120379400D02*
X120845368Y-120450828D01*
X120845368Y-120450828D02*
X120631082Y-120450828D01*
X121773939Y-119450828D02*
X121773939Y-120450828D01*
X121773939Y-119593685D02*
X121845368Y-119522257D01*
X121845368Y-119522257D02*
X121988225Y-119450828D01*
X121988225Y-119450828D02*
X122202511Y-119450828D01*
X122202511Y-119450828D02*
X122345368Y-119522257D01*
X122345368Y-119522257D02*
X122416797Y-119665114D01*
X122416797Y-119665114D02*
X122416797Y-120450828D01*
X123131082Y-120450828D02*
X123131082Y-119450828D01*
X123131082Y-118950828D02*
X123059654Y-119022257D01*
X123059654Y-119022257D02*
X123131082Y-119093685D01*
X123131082Y-119093685D02*
X123202511Y-119022257D01*
X123202511Y-119022257D02*
X123131082Y-118950828D01*
X123131082Y-118950828D02*
X123131082Y-119093685D01*
X124488226Y-120379400D02*
X124345368Y-120450828D01*
X124345368Y-120450828D02*
X124059654Y-120450828D01*
X124059654Y-120450828D02*
X123916797Y-120379400D01*
X123916797Y-120379400D02*
X123845368Y-120307971D01*
X123845368Y-120307971D02*
X123773940Y-120165114D01*
X123773940Y-120165114D02*
X123773940Y-119736542D01*
X123773940Y-119736542D02*
X123845368Y-119593685D01*
X123845368Y-119593685D02*
X123916797Y-119522257D01*
X123916797Y-119522257D02*
X124059654Y-119450828D01*
X124059654Y-119450828D02*
X124345368Y-119450828D01*
X124345368Y-119450828D02*
X124488226Y-119522257D01*
X125059654Y-120379400D02*
X125202511Y-120450828D01*
X125202511Y-120450828D02*
X125488225Y-120450828D01*
X125488225Y-120450828D02*
X125631082Y-120379400D01*
X125631082Y-120379400D02*
X125702511Y-120236542D01*
X125702511Y-120236542D02*
X125702511Y-120165114D01*
X125702511Y-120165114D02*
X125631082Y-120022257D01*
X125631082Y-120022257D02*
X125488225Y-119950828D01*
X125488225Y-119950828D02*
X125273940Y-119950828D01*
X125273940Y-119950828D02*
X125131082Y-119879400D01*
X125131082Y-119879400D02*
X125059654Y-119736542D01*
X125059654Y-119736542D02*
X125059654Y-119665114D01*
X125059654Y-119665114D02*
X125131082Y-119522257D01*
X125131082Y-119522257D02*
X125273940Y-119450828D01*
X125273940Y-119450828D02*
X125488225Y-119450828D01*
X125488225Y-119450828D02*
X125631082Y-119522257D01*
D10*
X107965904Y-110960819D02*
X107489714Y-110960819D01*
X107489714Y-110960819D02*
X107442095Y-111437009D01*
X107442095Y-111437009D02*
X107489714Y-111389390D01*
X107489714Y-111389390D02*
X107584952Y-111341771D01*
X107584952Y-111341771D02*
X107823047Y-111341771D01*
X107823047Y-111341771D02*
X107918285Y-111389390D01*
X107918285Y-111389390D02*
X107965904Y-111437009D01*
X107965904Y-111437009D02*
X108013523Y-111532247D01*
X108013523Y-111532247D02*
X108013523Y-111770342D01*
X108013523Y-111770342D02*
X107965904Y-111865580D01*
X107965904Y-111865580D02*
X107918285Y-111913200D01*
X107918285Y-111913200D02*
X107823047Y-111960819D01*
X107823047Y-111960819D02*
X107584952Y-111960819D01*
X107584952Y-111960819D02*
X107489714Y-111913200D01*
X107489714Y-111913200D02*
X107442095Y-111865580D01*
X108632571Y-110960819D02*
X108727809Y-110960819D01*
X108727809Y-110960819D02*
X108823047Y-111008438D01*
X108823047Y-111008438D02*
X108870666Y-111056057D01*
X108870666Y-111056057D02*
X108918285Y-111151295D01*
X108918285Y-111151295D02*
X108965904Y-111341771D01*
X108965904Y-111341771D02*
X108965904Y-111579866D01*
X108965904Y-111579866D02*
X108918285Y-111770342D01*
X108918285Y-111770342D02*
X108870666Y-111865580D01*
X108870666Y-111865580D02*
X108823047Y-111913200D01*
X108823047Y-111913200D02*
X108727809Y-111960819D01*
X108727809Y-111960819D02*
X108632571Y-111960819D01*
X108632571Y-111960819D02*
X108537333Y-111913200D01*
X108537333Y-111913200D02*
X108489714Y-111865580D01*
X108489714Y-111865580D02*
X108442095Y-111770342D01*
X108442095Y-111770342D02*
X108394476Y-111579866D01*
X108394476Y-111579866D02*
X108394476Y-111341771D01*
X108394476Y-111341771D02*
X108442095Y-111151295D01*
X108442095Y-111151295D02*
X108489714Y-111056057D01*
X108489714Y-111056057D02*
X108537333Y-111008438D01*
X108537333Y-111008438D02*
X108632571Y-110960819D01*
X143568404Y-110960819D02*
X143092214Y-110960819D01*
X143092214Y-110960819D02*
X143044595Y-111437009D01*
X143044595Y-111437009D02*
X143092214Y-111389390D01*
X143092214Y-111389390D02*
X143187452Y-111341771D01*
X143187452Y-111341771D02*
X143425547Y-111341771D01*
X143425547Y-111341771D02*
X143520785Y-111389390D01*
X143520785Y-111389390D02*
X143568404Y-111437009D01*
X143568404Y-111437009D02*
X143616023Y-111532247D01*
X143616023Y-111532247D02*
X143616023Y-111770342D01*
X143616023Y-111770342D02*
X143568404Y-111865580D01*
X143568404Y-111865580D02*
X143520785Y-111913200D01*
X143520785Y-111913200D02*
X143425547Y-111960819D01*
X143425547Y-111960819D02*
X143187452Y-111960819D01*
X143187452Y-111960819D02*
X143092214Y-111913200D01*
X143092214Y-111913200D02*
X143044595Y-111865580D01*
X144235071Y-110960819D02*
X144330309Y-110960819D01*
X144330309Y-110960819D02*
X144425547Y-111008438D01*
X144425547Y-111008438D02*
X144473166Y-111056057D01*
X144473166Y-111056057D02*
X144520785Y-111151295D01*
X144520785Y-111151295D02*
X144568404Y-111341771D01*
X144568404Y-111341771D02*
X144568404Y-111579866D01*
X144568404Y-111579866D02*
X144520785Y-111770342D01*
X144520785Y-111770342D02*
X144473166Y-111865580D01*
X144473166Y-111865580D02*
X144425547Y-111913200D01*
X144425547Y-111913200D02*
X144330309Y-111960819D01*
X144330309Y-111960819D02*
X144235071Y-111960819D01*
X144235071Y-111960819D02*
X144139833Y-111913200D01*
X144139833Y-111913200D02*
X144092214Y-111865580D01*
X144092214Y-111865580D02*
X144044595Y-111770342D01*
X144044595Y-111770342D02*
X143996976Y-111579866D01*
X143996976Y-111579866D02*
X143996976Y-111341771D01*
X143996976Y-111341771D02*
X144044595Y-111151295D01*
X144044595Y-111151295D02*
X144092214Y-111056057D01*
X144092214Y-111056057D02*
X144139833Y-111008438D01*
X144139833Y-111008438D02*
X144235071Y-110960819D01*
X147090095Y-127677104D02*
X147566285Y-127677104D01*
X146994857Y-127962819D02*
X147328190Y-126962819D01*
X147328190Y-126962819D02*
X147661523Y-127962819D01*
X148566285Y-127867580D02*
X148518666Y-127915200D01*
X148518666Y-127915200D02*
X148375809Y-127962819D01*
X148375809Y-127962819D02*
X148280571Y-127962819D01*
X148280571Y-127962819D02*
X148137714Y-127915200D01*
X148137714Y-127915200D02*
X148042476Y-127819961D01*
X148042476Y-127819961D02*
X147994857Y-127724723D01*
X147994857Y-127724723D02*
X147947238Y-127534247D01*
X147947238Y-127534247D02*
X147947238Y-127391390D01*
X147947238Y-127391390D02*
X147994857Y-127200914D01*
X147994857Y-127200914D02*
X148042476Y-127105676D01*
X148042476Y-127105676D02*
X148137714Y-127010438D01*
X148137714Y-127010438D02*
X148280571Y-126962819D01*
X148280571Y-126962819D02*
X148375809Y-126962819D01*
X148375809Y-126962819D02*
X148518666Y-127010438D01*
X148518666Y-127010438D02*
X148566285Y-127058057D01*
X149709142Y-126915200D02*
X148852000Y-128200914D01*
X150042476Y-127962819D02*
X150042476Y-126962819D01*
X150042476Y-126962819D02*
X150280571Y-126962819D01*
X150280571Y-126962819D02*
X150423428Y-127010438D01*
X150423428Y-127010438D02*
X150518666Y-127105676D01*
X150518666Y-127105676D02*
X150566285Y-127200914D01*
X150566285Y-127200914D02*
X150613904Y-127391390D01*
X150613904Y-127391390D02*
X150613904Y-127534247D01*
X150613904Y-127534247D02*
X150566285Y-127724723D01*
X150566285Y-127724723D02*
X150518666Y-127819961D01*
X150518666Y-127819961D02*
X150423428Y-127915200D01*
X150423428Y-127915200D02*
X150280571Y-127962819D01*
X150280571Y-127962819D02*
X150042476Y-127962819D01*
X151613904Y-127867580D02*
X151566285Y-127915200D01*
X151566285Y-127915200D02*
X151423428Y-127962819D01*
X151423428Y-127962819D02*
X151328190Y-127962819D01*
X151328190Y-127962819D02*
X151185333Y-127915200D01*
X151185333Y-127915200D02*
X151090095Y-127819961D01*
X151090095Y-127819961D02*
X151042476Y-127724723D01*
X151042476Y-127724723D02*
X150994857Y-127534247D01*
X150994857Y-127534247D02*
X150994857Y-127391390D01*
X150994857Y-127391390D02*
X151042476Y-127200914D01*
X151042476Y-127200914D02*
X151090095Y-127105676D01*
X151090095Y-127105676D02*
X151185333Y-127010438D01*
X151185333Y-127010438D02*
X151328190Y-126962819D01*
X151328190Y-126962819D02*
X151423428Y-126962819D01*
X151423428Y-126962819D02*
X151566285Y-127010438D01*
X151566285Y-127010438D02*
X151613904Y-127058057D01*
X119150095Y-127931104D02*
X119626285Y-127931104D01*
X119054857Y-128216819D02*
X119388190Y-127216819D01*
X119388190Y-127216819D02*
X119721523Y-128216819D01*
X120626285Y-128121580D02*
X120578666Y-128169200D01*
X120578666Y-128169200D02*
X120435809Y-128216819D01*
X120435809Y-128216819D02*
X120340571Y-128216819D01*
X120340571Y-128216819D02*
X120197714Y-128169200D01*
X120197714Y-128169200D02*
X120102476Y-128073961D01*
X120102476Y-128073961D02*
X120054857Y-127978723D01*
X120054857Y-127978723D02*
X120007238Y-127788247D01*
X120007238Y-127788247D02*
X120007238Y-127645390D01*
X120007238Y-127645390D02*
X120054857Y-127454914D01*
X120054857Y-127454914D02*
X120102476Y-127359676D01*
X120102476Y-127359676D02*
X120197714Y-127264438D01*
X120197714Y-127264438D02*
X120340571Y-127216819D01*
X120340571Y-127216819D02*
X120435809Y-127216819D01*
X120435809Y-127216819D02*
X120578666Y-127264438D01*
X120578666Y-127264438D02*
X120626285Y-127312057D01*
X121769142Y-127169200D02*
X120912000Y-128454914D01*
X122102476Y-128216819D02*
X122102476Y-127216819D01*
X122102476Y-127216819D02*
X122340571Y-127216819D01*
X122340571Y-127216819D02*
X122483428Y-127264438D01*
X122483428Y-127264438D02*
X122578666Y-127359676D01*
X122578666Y-127359676D02*
X122626285Y-127454914D01*
X122626285Y-127454914D02*
X122673904Y-127645390D01*
X122673904Y-127645390D02*
X122673904Y-127788247D01*
X122673904Y-127788247D02*
X122626285Y-127978723D01*
X122626285Y-127978723D02*
X122578666Y-128073961D01*
X122578666Y-128073961D02*
X122483428Y-128169200D01*
X122483428Y-128169200D02*
X122340571Y-128216819D01*
X122340571Y-128216819D02*
X122102476Y-128216819D01*
X123673904Y-128121580D02*
X123626285Y-128169200D01*
X123626285Y-128169200D02*
X123483428Y-128216819D01*
X123483428Y-128216819D02*
X123388190Y-128216819D01*
X123388190Y-128216819D02*
X123245333Y-128169200D01*
X123245333Y-128169200D02*
X123150095Y-128073961D01*
X123150095Y-128073961D02*
X123102476Y-127978723D01*
X123102476Y-127978723D02*
X123054857Y-127788247D01*
X123054857Y-127788247D02*
X123054857Y-127645390D01*
X123054857Y-127645390D02*
X123102476Y-127454914D01*
X123102476Y-127454914D02*
X123150095Y-127359676D01*
X123150095Y-127359676D02*
X123245333Y-127264438D01*
X123245333Y-127264438D02*
X123388190Y-127216819D01*
X123388190Y-127216819D02*
X123483428Y-127216819D01*
X123483428Y-127216819D02*
X123626285Y-127264438D01*
X123626285Y-127264438D02*
X123673904Y-127312057D01*
X114300452Y-115864819D02*
X113967119Y-115388628D01*
X113729024Y-115864819D02*
X113729024Y-114864819D01*
X113729024Y-114864819D02*
X114109976Y-114864819D01*
X114109976Y-114864819D02*
X114205214Y-114912438D01*
X114205214Y-114912438D02*
X114252833Y-114960057D01*
X114252833Y-114960057D02*
X114300452Y-115055295D01*
X114300452Y-115055295D02*
X114300452Y-115198152D01*
X114300452Y-115198152D02*
X114252833Y-115293390D01*
X114252833Y-115293390D02*
X114205214Y-115341009D01*
X114205214Y-115341009D02*
X114109976Y-115388628D01*
X114109976Y-115388628D02*
X113729024Y-115388628D01*
X115252833Y-115864819D02*
X114681405Y-115864819D01*
X114967119Y-115864819D02*
X114967119Y-114864819D01*
X114967119Y-114864819D02*
X114871881Y-115007676D01*
X114871881Y-115007676D02*
X114776643Y-115102914D01*
X114776643Y-115102914D02*
X114681405Y-115150533D01*
X116205214Y-115864819D02*
X115633786Y-115864819D01*
X115919500Y-115864819D02*
X115919500Y-114864819D01*
X115919500Y-114864819D02*
X115824262Y-115007676D01*
X115824262Y-115007676D02*
X115729024Y-115102914D01*
X115729024Y-115102914D02*
X115633786Y-115150533D01*
X116538548Y-114864819D02*
X117205214Y-114864819D01*
X117205214Y-114864819D02*
X116776643Y-115864819D01*
X134874452Y-118724819D02*
X134541119Y-118248628D01*
X134303024Y-118724819D02*
X134303024Y-117724819D01*
X134303024Y-117724819D02*
X134683976Y-117724819D01*
X134683976Y-117724819D02*
X134779214Y-117772438D01*
X134779214Y-117772438D02*
X134826833Y-117820057D01*
X134826833Y-117820057D02*
X134874452Y-117915295D01*
X134874452Y-117915295D02*
X134874452Y-118058152D01*
X134874452Y-118058152D02*
X134826833Y-118153390D01*
X134826833Y-118153390D02*
X134779214Y-118201009D01*
X134779214Y-118201009D02*
X134683976Y-118248628D01*
X134683976Y-118248628D02*
X134303024Y-118248628D01*
X135826833Y-118724819D02*
X135255405Y-118724819D01*
X135541119Y-118724819D02*
X135541119Y-117724819D01*
X135541119Y-117724819D02*
X135445881Y-117867676D01*
X135445881Y-117867676D02*
X135350643Y-117962914D01*
X135350643Y-117962914D02*
X135255405Y-118010533D01*
X136779214Y-118724819D02*
X136207786Y-118724819D01*
X136493500Y-118724819D02*
X136493500Y-117724819D01*
X136493500Y-117724819D02*
X136398262Y-117867676D01*
X136398262Y-117867676D02*
X136303024Y-117962914D01*
X136303024Y-117962914D02*
X136207786Y-118010533D01*
X137636357Y-117724819D02*
X137445881Y-117724819D01*
X137445881Y-117724819D02*
X137350643Y-117772438D01*
X137350643Y-117772438D02*
X137303024Y-117820057D01*
X137303024Y-117820057D02*
X137207786Y-117962914D01*
X137207786Y-117962914D02*
X137160167Y-118153390D01*
X137160167Y-118153390D02*
X137160167Y-118534342D01*
X137160167Y-118534342D02*
X137207786Y-118629580D01*
X137207786Y-118629580D02*
X137255405Y-118677200D01*
X137255405Y-118677200D02*
X137350643Y-118724819D01*
X137350643Y-118724819D02*
X137541119Y-118724819D01*
X137541119Y-118724819D02*
X137636357Y-118677200D01*
X137636357Y-118677200D02*
X137683976Y-118629580D01*
X137683976Y-118629580D02*
X137731595Y-118534342D01*
X137731595Y-118534342D02*
X137731595Y-118296247D01*
X137731595Y-118296247D02*
X137683976Y-118201009D01*
X137683976Y-118201009D02*
X137636357Y-118153390D01*
X137636357Y-118153390D02*
X137541119Y-118105771D01*
X137541119Y-118105771D02*
X137350643Y-118105771D01*
X137350643Y-118105771D02*
X137255405Y-118153390D01*
X137255405Y-118153390D02*
X137207786Y-118201009D01*
X137207786Y-118201009D02*
X137160167Y-118296247D01*
D12*
X99028476Y-103044438D02*
X99504666Y-105044438D01*
X99504666Y-105044438D02*
X99885619Y-103615866D01*
X99885619Y-103615866D02*
X100266571Y-105044438D01*
X100266571Y-105044438D02*
X100742762Y-103044438D01*
X101409428Y-103234914D02*
X101504666Y-103139676D01*
X101504666Y-103139676D02*
X101695142Y-103044438D01*
X101695142Y-103044438D02*
X102171333Y-103044438D01*
X102171333Y-103044438D02*
X102361809Y-103139676D01*
X102361809Y-103139676D02*
X102457047Y-103234914D01*
X102457047Y-103234914D02*
X102552285Y-103425390D01*
X102552285Y-103425390D02*
X102552285Y-103615866D01*
X102552285Y-103615866D02*
X102457047Y-103901580D01*
X102457047Y-103901580D02*
X101314190Y-105044438D01*
X101314190Y-105044438D02*
X102552285Y-105044438D01*
X126968476Y-103044438D02*
X127444666Y-105044438D01*
X127444666Y-105044438D02*
X127825619Y-103615866D01*
X127825619Y-103615866D02*
X128206571Y-105044438D01*
X128206571Y-105044438D02*
X128682762Y-103044438D01*
X130492285Y-105044438D02*
X129349428Y-105044438D01*
X129920856Y-105044438D02*
X129920856Y-103044438D01*
X129920856Y-103044438D02*
X129730380Y-103330152D01*
X129730380Y-103330152D02*
X129539904Y-103520628D01*
X129539904Y-103520628D02*
X129349428Y-103615866D01*
X155083047Y-151843961D02*
X154987809Y-151939200D01*
X154987809Y-151939200D02*
X154702095Y-152034438D01*
X154702095Y-152034438D02*
X154511619Y-152034438D01*
X154511619Y-152034438D02*
X154225904Y-151939200D01*
X154225904Y-151939200D02*
X154035428Y-151748723D01*
X154035428Y-151748723D02*
X153940190Y-151558247D01*
X153940190Y-151558247D02*
X153844952Y-151177295D01*
X153844952Y-151177295D02*
X153844952Y-150891580D01*
X153844952Y-150891580D02*
X153940190Y-150510628D01*
X153940190Y-150510628D02*
X154035428Y-150320152D01*
X154035428Y-150320152D02*
X154225904Y-150129676D01*
X154225904Y-150129676D02*
X154511619Y-150034438D01*
X154511619Y-150034438D02*
X154702095Y-150034438D01*
X154702095Y-150034438D02*
X154987809Y-150129676D01*
X154987809Y-150129676D02*
X155083047Y-150224914D01*
X155940190Y-152034438D02*
X155940190Y-150034438D01*
X155940190Y-150986819D02*
X157083047Y-150986819D01*
X157083047Y-152034438D02*
X157083047Y-150034438D01*
X157940190Y-150224914D02*
X158035428Y-150129676D01*
X158035428Y-150129676D02*
X158225904Y-150034438D01*
X158225904Y-150034438D02*
X158702095Y-150034438D01*
X158702095Y-150034438D02*
X158892571Y-150129676D01*
X158892571Y-150129676D02*
X158987809Y-150224914D01*
X158987809Y-150224914D02*
X159083047Y-150415390D01*
X159083047Y-150415390D02*
X159083047Y-150605866D01*
X159083047Y-150605866D02*
X158987809Y-150891580D01*
X158987809Y-150891580D02*
X157844952Y-152034438D01*
X157844952Y-152034438D02*
X159083047Y-152034438D01*
X127397047Y-151843961D02*
X127301809Y-151939200D01*
X127301809Y-151939200D02*
X127016095Y-152034438D01*
X127016095Y-152034438D02*
X126825619Y-152034438D01*
X126825619Y-152034438D02*
X126539904Y-151939200D01*
X126539904Y-151939200D02*
X126349428Y-151748723D01*
X126349428Y-151748723D02*
X126254190Y-151558247D01*
X126254190Y-151558247D02*
X126158952Y-151177295D01*
X126158952Y-151177295D02*
X126158952Y-150891580D01*
X126158952Y-150891580D02*
X126254190Y-150510628D01*
X126254190Y-150510628D02*
X126349428Y-150320152D01*
X126349428Y-150320152D02*
X126539904Y-150129676D01*
X126539904Y-150129676D02*
X126825619Y-150034438D01*
X126825619Y-150034438D02*
X127016095Y-150034438D01*
X127016095Y-150034438D02*
X127301809Y-150129676D01*
X127301809Y-150129676D02*
X127397047Y-150224914D01*
X128254190Y-152034438D02*
X128254190Y-150034438D01*
X128254190Y-150986819D02*
X129397047Y-150986819D01*
X129397047Y-152034438D02*
X129397047Y-150034438D01*
X131397047Y-152034438D02*
X130254190Y-152034438D01*
X130825618Y-152034438D02*
X130825618Y-150034438D01*
X130825618Y-150034438D02*
X130635142Y-150320152D01*
X130635142Y-150320152D02*
X130444666Y-150510628D01*
X130444666Y-150510628D02*
X130254190Y-150605866D01*
D10*
X147470952Y-133963580D02*
X147423333Y-134011200D01*
X147423333Y-134011200D02*
X147280476Y-134058819D01*
X147280476Y-134058819D02*
X147185238Y-134058819D01*
X147185238Y-134058819D02*
X147042381Y-134011200D01*
X147042381Y-134011200D02*
X146947143Y-133915961D01*
X146947143Y-133915961D02*
X146899524Y-133820723D01*
X146899524Y-133820723D02*
X146851905Y-133630247D01*
X146851905Y-133630247D02*
X146851905Y-133487390D01*
X146851905Y-133487390D02*
X146899524Y-133296914D01*
X146899524Y-133296914D02*
X146947143Y-133201676D01*
X146947143Y-133201676D02*
X147042381Y-133106438D01*
X147042381Y-133106438D02*
X147185238Y-133058819D01*
X147185238Y-133058819D02*
X147280476Y-133058819D01*
X147280476Y-133058819D02*
X147423333Y-133106438D01*
X147423333Y-133106438D02*
X147470952Y-133154057D01*
X148423333Y-134058819D02*
X147851905Y-134058819D01*
X148137619Y-134058819D02*
X148137619Y-133058819D01*
X148137619Y-133058819D02*
X148042381Y-133201676D01*
X148042381Y-133201676D02*
X147947143Y-133296914D01*
X147947143Y-133296914D02*
X147851905Y-133344533D01*
X149042381Y-133058819D02*
X149137619Y-133058819D01*
X149137619Y-133058819D02*
X149232857Y-133106438D01*
X149232857Y-133106438D02*
X149280476Y-133154057D01*
X149280476Y-133154057D02*
X149328095Y-133249295D01*
X149328095Y-133249295D02*
X149375714Y-133439771D01*
X149375714Y-133439771D02*
X149375714Y-133677866D01*
X149375714Y-133677866D02*
X149328095Y-133868342D01*
X149328095Y-133868342D02*
X149280476Y-133963580D01*
X149280476Y-133963580D02*
X149232857Y-134011200D01*
X149232857Y-134011200D02*
X149137619Y-134058819D01*
X149137619Y-134058819D02*
X149042381Y-134058819D01*
X149042381Y-134058819D02*
X148947143Y-134011200D01*
X148947143Y-134011200D02*
X148899524Y-133963580D01*
X148899524Y-133963580D02*
X148851905Y-133868342D01*
X148851905Y-133868342D02*
X148804286Y-133677866D01*
X148804286Y-133677866D02*
X148804286Y-133439771D01*
X148804286Y-133439771D02*
X148851905Y-133249295D01*
X148851905Y-133249295D02*
X148899524Y-133154057D01*
X148899524Y-133154057D02*
X148947143Y-133106438D01*
X148947143Y-133106438D02*
X149042381Y-133058819D01*
X150232857Y-133058819D02*
X150042381Y-133058819D01*
X150042381Y-133058819D02*
X149947143Y-133106438D01*
X149947143Y-133106438D02*
X149899524Y-133154057D01*
X149899524Y-133154057D02*
X149804286Y-133296914D01*
X149804286Y-133296914D02*
X149756667Y-133487390D01*
X149756667Y-133487390D02*
X149756667Y-133868342D01*
X149756667Y-133868342D02*
X149804286Y-133963580D01*
X149804286Y-133963580D02*
X149851905Y-134011200D01*
X149851905Y-134011200D02*
X149947143Y-134058819D01*
X149947143Y-134058819D02*
X150137619Y-134058819D01*
X150137619Y-134058819D02*
X150232857Y-134011200D01*
X150232857Y-134011200D02*
X150280476Y-133963580D01*
X150280476Y-133963580D02*
X150328095Y-133868342D01*
X150328095Y-133868342D02*
X150328095Y-133630247D01*
X150328095Y-133630247D02*
X150280476Y-133535009D01*
X150280476Y-133535009D02*
X150232857Y-133487390D01*
X150232857Y-133487390D02*
X150137619Y-133439771D01*
X150137619Y-133439771D02*
X149947143Y-133439771D01*
X149947143Y-133439771D02*
X149851905Y-133487390D01*
X149851905Y-133487390D02*
X149804286Y-133535009D01*
X149804286Y-133535009D02*
X149756667Y-133630247D01*
X119436952Y-133963580D02*
X119389333Y-134011200D01*
X119389333Y-134011200D02*
X119246476Y-134058819D01*
X119246476Y-134058819D02*
X119151238Y-134058819D01*
X119151238Y-134058819D02*
X119008381Y-134011200D01*
X119008381Y-134011200D02*
X118913143Y-133915961D01*
X118913143Y-133915961D02*
X118865524Y-133820723D01*
X118865524Y-133820723D02*
X118817905Y-133630247D01*
X118817905Y-133630247D02*
X118817905Y-133487390D01*
X118817905Y-133487390D02*
X118865524Y-133296914D01*
X118865524Y-133296914D02*
X118913143Y-133201676D01*
X118913143Y-133201676D02*
X119008381Y-133106438D01*
X119008381Y-133106438D02*
X119151238Y-133058819D01*
X119151238Y-133058819D02*
X119246476Y-133058819D01*
X119246476Y-133058819D02*
X119389333Y-133106438D01*
X119389333Y-133106438D02*
X119436952Y-133154057D01*
X120389333Y-134058819D02*
X119817905Y-134058819D01*
X120103619Y-134058819D02*
X120103619Y-133058819D01*
X120103619Y-133058819D02*
X120008381Y-133201676D01*
X120008381Y-133201676D02*
X119913143Y-133296914D01*
X119913143Y-133296914D02*
X119817905Y-133344533D01*
X121008381Y-133058819D02*
X121103619Y-133058819D01*
X121103619Y-133058819D02*
X121198857Y-133106438D01*
X121198857Y-133106438D02*
X121246476Y-133154057D01*
X121246476Y-133154057D02*
X121294095Y-133249295D01*
X121294095Y-133249295D02*
X121341714Y-133439771D01*
X121341714Y-133439771D02*
X121341714Y-133677866D01*
X121341714Y-133677866D02*
X121294095Y-133868342D01*
X121294095Y-133868342D02*
X121246476Y-133963580D01*
X121246476Y-133963580D02*
X121198857Y-134011200D01*
X121198857Y-134011200D02*
X121103619Y-134058819D01*
X121103619Y-134058819D02*
X121008381Y-134058819D01*
X121008381Y-134058819D02*
X120913143Y-134011200D01*
X120913143Y-134011200D02*
X120865524Y-133963580D01*
X120865524Y-133963580D02*
X120817905Y-133868342D01*
X120817905Y-133868342D02*
X120770286Y-133677866D01*
X120770286Y-133677866D02*
X120770286Y-133439771D01*
X120770286Y-133439771D02*
X120817905Y-133249295D01*
X120817905Y-133249295D02*
X120865524Y-133154057D01*
X120865524Y-133154057D02*
X120913143Y-133106438D01*
X120913143Y-133106438D02*
X121008381Y-133058819D01*
X122246476Y-133058819D02*
X121770286Y-133058819D01*
X121770286Y-133058819D02*
X121722667Y-133535009D01*
X121722667Y-133535009D02*
X121770286Y-133487390D01*
X121770286Y-133487390D02*
X121865524Y-133439771D01*
X121865524Y-133439771D02*
X122103619Y-133439771D01*
X122103619Y-133439771D02*
X122198857Y-133487390D01*
X122198857Y-133487390D02*
X122246476Y-133535009D01*
X122246476Y-133535009D02*
X122294095Y-133630247D01*
X122294095Y-133630247D02*
X122294095Y-133868342D01*
X122294095Y-133868342D02*
X122246476Y-133963580D01*
X122246476Y-133963580D02*
X122198857Y-134011200D01*
X122198857Y-134011200D02*
X122103619Y-134058819D01*
X122103619Y-134058819D02*
X121865524Y-134058819D01*
X121865524Y-134058819D02*
X121770286Y-134011200D01*
X121770286Y-134011200D02*
X121722667Y-133963580D01*
D13*
X96821814Y-93226931D02*
X96905635Y-93671555D01*
X97214920Y-93799053D01*
X97524206Y-93926551D01*
X97895246Y-93674246D01*
X97999157Y-93603996D01*
X98093087Y-93541272D01*
X98172652Y-93488938D01*
X98233470Y-93449857D01*
X98271157Y-93426893D01*
X98281421Y-93421942D01*
X98299910Y-93434676D01*
X98339420Y-93469882D01*
X98395522Y-93523062D01*
X98463787Y-93589718D01*
X98539786Y-93665354D01*
X98619092Y-93745472D01*
X98697275Y-93825574D01*
X98769907Y-93901164D01*
X98832559Y-93967745D01*
X98880803Y-94020818D01*
X98910210Y-94055887D01*
X98917241Y-94067623D01*
X98907123Y-94089260D01*
X98878759Y-94136662D01*
X98835129Y-94205193D01*
X98779218Y-94290215D01*
X98714006Y-94387093D01*
X98676219Y-94442350D01*
X98607343Y-94543248D01*
X98546140Y-94634299D01*
X98495578Y-94710970D01*
X98458628Y-94768728D01*
X98438258Y-94803043D01*
X98435197Y-94810254D01*
X98442136Y-94830748D01*
X98461051Y-94878513D01*
X98489087Y-94946832D01*
X98523391Y-95028989D01*
X98561109Y-95118270D01*
X98599387Y-95207958D01*
X98635370Y-95291338D01*
X98666206Y-95361694D01*
X98689039Y-95412310D01*
X98701017Y-95436471D01*
X98701724Y-95437422D01*
X98720531Y-95442036D01*
X98770618Y-95452328D01*
X98846793Y-95467287D01*
X98943865Y-95485901D01*
X99056643Y-95507159D01*
X99122442Y-95519418D01*
X99242950Y-95542362D01*
X99351797Y-95564195D01*
X99443476Y-95583722D01*
X99512481Y-95599748D01*
X99553304Y-95611079D01*
X99561511Y-95614674D01*
X99569548Y-95639006D01*
X99576033Y-95693959D01*
X99580970Y-95773108D01*
X99584364Y-95870026D01*
X99586218Y-95978287D01*
X99586538Y-96091465D01*
X99585327Y-96203135D01*
X99582590Y-96306868D01*
X99578331Y-96396241D01*
X99572555Y-96464826D01*
X99565267Y-96506197D01*
X99560895Y-96514810D01*
X99534764Y-96525133D01*
X99479393Y-96539892D01*
X99402107Y-96557352D01*
X99310230Y-96575780D01*
X99278158Y-96581741D01*
X99123524Y-96610066D01*
X99001375Y-96632876D01*
X98907673Y-96651080D01*
X98838384Y-96665583D01*
X98789471Y-96677292D01*
X98756897Y-96687115D01*
X98736628Y-96695956D01*
X98724626Y-96704724D01*
X98722947Y-96706457D01*
X98706184Y-96734371D01*
X98680614Y-96788695D01*
X98648788Y-96862777D01*
X98613260Y-96949965D01*
X98576583Y-97043608D01*
X98541311Y-97137052D01*
X98509996Y-97223647D01*
X98485193Y-97296740D01*
X98469454Y-97349678D01*
X98465332Y-97375811D01*
X98465676Y-97376726D01*
X98479641Y-97398086D01*
X98511322Y-97445084D01*
X98557391Y-97512827D01*
X98614518Y-97596423D01*
X98679373Y-97690982D01*
X98697843Y-97717854D01*
X98763699Y-97815275D01*
X98821650Y-97904163D01*
X98868538Y-97979412D01*
X98901207Y-98035920D01*
X98916500Y-98068581D01*
X98917241Y-98072593D01*
X98904392Y-98093684D01*
X98868888Y-98135464D01*
X98815293Y-98193445D01*
X98748171Y-98263135D01*
X98672087Y-98340045D01*
X98591604Y-98419683D01*
X98511287Y-98497561D01*
X98435699Y-98569186D01*
X98369405Y-98630070D01*
X98316969Y-98675721D01*
X98282955Y-98701650D01*
X98273545Y-98705883D01*
X98251643Y-98695912D01*
X98206800Y-98669020D01*
X98146321Y-98629736D01*
X98099789Y-98598117D01*
X98015475Y-98540098D01*
X97915626Y-98471784D01*
X97815473Y-98403579D01*
X97761627Y-98367075D01*
X97579371Y-98243800D01*
X97426381Y-98326520D01*
X97356682Y-98362759D01*
X97297414Y-98390926D01*
X97257311Y-98406991D01*
X97247103Y-98409226D01*
X97234829Y-98392722D01*
X97210613Y-98346082D01*
X97176263Y-98273609D01*
X97133588Y-98179606D01*
X97084394Y-98068374D01*
X97030490Y-97944215D01*
X96973684Y-97811432D01*
X96915782Y-97674327D01*
X96858593Y-97537202D01*
X96803924Y-97404358D01*
X96753584Y-97280098D01*
X96709380Y-97168725D01*
X96673119Y-97074539D01*
X96646609Y-97001844D01*
X96631658Y-96954941D01*
X96629254Y-96938833D01*
X96648311Y-96918286D01*
X96690036Y-96884933D01*
X96745706Y-96845702D01*
X96750378Y-96842599D01*
X96894264Y-96727423D01*
X97010283Y-96593053D01*
X97097430Y-96443784D01*
X97154699Y-96283913D01*
X97181086Y-96117737D01*
X97175585Y-95949552D01*
X97137190Y-95783655D01*
X97064895Y-95624342D01*
X97043626Y-95589487D01*
X96932996Y-95448737D01*
X96802302Y-95335714D01*
X96656064Y-95251003D01*
X96498808Y-95195194D01*
X96335057Y-95168874D01*
X96169333Y-95172630D01*
X96006162Y-95207050D01*
X95850065Y-95272723D01*
X95705567Y-95370235D01*
X95660869Y-95409813D01*
X95547112Y-95533703D01*
X95464218Y-95664124D01*
X95407356Y-95810315D01*
X95375687Y-95955088D01*
X95367869Y-96117860D01*
X95393938Y-96281440D01*
X95451245Y-96440298D01*
X95537144Y-96588906D01*
X95648986Y-96721735D01*
X95784123Y-96833256D01*
X95801883Y-96845011D01*
X95858150Y-96883508D01*
X95900923Y-96916863D01*
X95921372Y-96938160D01*
X95921669Y-96938833D01*
X95917279Y-96961871D01*
X95899876Y-97014157D01*
X95871268Y-97091390D01*
X95833265Y-97189268D01*
X95787674Y-97303491D01*
X95736303Y-97429758D01*
X95680962Y-97563767D01*
X95623458Y-97701218D01*
X95565601Y-97837808D01*
X95509198Y-97969237D01*
X95456058Y-98091205D01*
X95407990Y-98199409D01*
X95366801Y-98289549D01*
X95334301Y-98357323D01*
X95312297Y-98398430D01*
X95303436Y-98409226D01*
X95276360Y-98400819D01*
X95225697Y-98378272D01*
X95160183Y-98345613D01*
X95124159Y-98326520D01*
X94971168Y-98243800D01*
X94788912Y-98367075D01*
X94695875Y-98430228D01*
X94594015Y-98499727D01*
X94498562Y-98565165D01*
X94450750Y-98598117D01*
X94383505Y-98643273D01*
X94326564Y-98679057D01*
X94287354Y-98700938D01*
X94274619Y-98705563D01*
X94256083Y-98693085D01*
X94215059Y-98658252D01*
X94155525Y-98604678D01*
X94081458Y-98535983D01*
X93996835Y-98455781D01*
X93943315Y-98404286D01*
X93849681Y-98312286D01*
X93768759Y-98229999D01*
X93703823Y-98160945D01*
X93658142Y-98108644D01*
X93634989Y-98076616D01*
X93632768Y-98070116D01*
X93643076Y-98045394D01*
X93671561Y-97995405D01*
X93715063Y-97925212D01*
X93770423Y-97839875D01*
X93834480Y-97744456D01*
X93852697Y-97717854D01*
X93919073Y-97621167D01*
X93978622Y-97534117D01*
X94028016Y-97461595D01*
X94063925Y-97408493D01*
X94083019Y-97379703D01*
X94084864Y-97376726D01*
X94082105Y-97353782D01*
X94067462Y-97303336D01*
X94043487Y-97232041D01*
X94012734Y-97146547D01*
X93977756Y-97053507D01*
X93941107Y-96959574D01*
X93905339Y-96871399D01*
X93873006Y-96795634D01*
X93846662Y-96738931D01*
X93828858Y-96707943D01*
X93827593Y-96706457D01*
X93816706Y-96697601D01*
X93798318Y-96688843D01*
X93768394Y-96679277D01*
X93722897Y-96667996D01*
X93657791Y-96654093D01*
X93569039Y-96636663D01*
X93452607Y-96614798D01*
X93304458Y-96587591D01*
X93272382Y-96581741D01*
X93177314Y-96563374D01*
X93094435Y-96545405D01*
X93031070Y-96529569D01*
X92994542Y-96517600D01*
X92989644Y-96514810D01*
X92981573Y-96490072D01*
X92975013Y-96434790D01*
X92969967Y-96355389D01*
X92966441Y-96258296D01*
X92964439Y-96149938D01*
X92963964Y-96036740D01*
X92965023Y-95925128D01*
X92967618Y-95821529D01*
X92971754Y-95732368D01*
X92977437Y-95664072D01*
X92984669Y-95623066D01*
X92989029Y-95614674D01*
X93013302Y-95606208D01*
X93068574Y-95592435D01*
X93149338Y-95574550D01*
X93250088Y-95553748D01*
X93365317Y-95531223D01*
X93428098Y-95519418D01*
X93547213Y-95497151D01*
X93653435Y-95476979D01*
X93741573Y-95459915D01*
X93806434Y-95446969D01*
X93842826Y-95439155D01*
X93848816Y-95437422D01*
X93858939Y-95417890D01*
X93880338Y-95370843D01*
X93910161Y-95303003D01*
X93945555Y-95221091D01*
X93983668Y-95131828D01*
X94021647Y-95041935D01*
X94056640Y-94958135D01*
X94085794Y-94887147D01*
X94106257Y-94835694D01*
X94115177Y-94810497D01*
X94115343Y-94809396D01*
X94105231Y-94789519D01*
X94076883Y-94743777D01*
X94033277Y-94676717D01*
X93977394Y-94592884D01*
X93912213Y-94496826D01*
X93874321Y-94441650D01*
X93805275Y-94340481D01*
X93743950Y-94248630D01*
X93693337Y-94170744D01*
X93656429Y-94111469D01*
X93636218Y-94075451D01*
X93633299Y-94067377D01*
X93645847Y-94048584D01*
X93680537Y-94008457D01*
X93732937Y-93951493D01*
X93798616Y-93882185D01*
X93873144Y-93805031D01*
X93952087Y-93724525D01*
X94031017Y-93645163D01*
X94105500Y-93571440D01*
X94171106Y-93507852D01*
X94223404Y-93458894D01*
X94257961Y-93429061D01*
X94269522Y-93421942D01*
X94288346Y-93431953D01*
X94333369Y-93460078D01*
X94400213Y-93503454D01*
X94484501Y-93559218D01*
X94581856Y-93624506D01*
X94655293Y-93674246D01*
X95026333Y-93926551D01*
X95644905Y-93671555D01*
X95728725Y-93226931D01*
X95812546Y-92782307D01*
X96737994Y-92782307D01*
X96821814Y-93226931D01*
G36*
X96821814Y-93226931D02*
G01*
X96905635Y-93671555D01*
X97214920Y-93799053D01*
X97524206Y-93926551D01*
X97895246Y-93674246D01*
X97999157Y-93603996D01*
X98093087Y-93541272D01*
X98172652Y-93488938D01*
X98233470Y-93449857D01*
X98271157Y-93426893D01*
X98281421Y-93421942D01*
X98299910Y-93434676D01*
X98339420Y-93469882D01*
X98395522Y-93523062D01*
X98463787Y-93589718D01*
X98539786Y-93665354D01*
X98619092Y-93745472D01*
X98697275Y-93825574D01*
X98769907Y-93901164D01*
X98832559Y-93967745D01*
X98880803Y-94020818D01*
X98910210Y-94055887D01*
X98917241Y-94067623D01*
X98907123Y-94089260D01*
X98878759Y-94136662D01*
X98835129Y-94205193D01*
X98779218Y-94290215D01*
X98714006Y-94387093D01*
X98676219Y-94442350D01*
X98607343Y-94543248D01*
X98546140Y-94634299D01*
X98495578Y-94710970D01*
X98458628Y-94768728D01*
X98438258Y-94803043D01*
X98435197Y-94810254D01*
X98442136Y-94830748D01*
X98461051Y-94878513D01*
X98489087Y-94946832D01*
X98523391Y-95028989D01*
X98561109Y-95118270D01*
X98599387Y-95207958D01*
X98635370Y-95291338D01*
X98666206Y-95361694D01*
X98689039Y-95412310D01*
X98701017Y-95436471D01*
X98701724Y-95437422D01*
X98720531Y-95442036D01*
X98770618Y-95452328D01*
X98846793Y-95467287D01*
X98943865Y-95485901D01*
X99056643Y-95507159D01*
X99122442Y-95519418D01*
X99242950Y-95542362D01*
X99351797Y-95564195D01*
X99443476Y-95583722D01*
X99512481Y-95599748D01*
X99553304Y-95611079D01*
X99561511Y-95614674D01*
X99569548Y-95639006D01*
X99576033Y-95693959D01*
X99580970Y-95773108D01*
X99584364Y-95870026D01*
X99586218Y-95978287D01*
X99586538Y-96091465D01*
X99585327Y-96203135D01*
X99582590Y-96306868D01*
X99578331Y-96396241D01*
X99572555Y-96464826D01*
X99565267Y-96506197D01*
X99560895Y-96514810D01*
X99534764Y-96525133D01*
X99479393Y-96539892D01*
X99402107Y-96557352D01*
X99310230Y-96575780D01*
X99278158Y-96581741D01*
X99123524Y-96610066D01*
X99001375Y-96632876D01*
X98907673Y-96651080D01*
X98838384Y-96665583D01*
X98789471Y-96677292D01*
X98756897Y-96687115D01*
X98736628Y-96695956D01*
X98724626Y-96704724D01*
X98722947Y-96706457D01*
X98706184Y-96734371D01*
X98680614Y-96788695D01*
X98648788Y-96862777D01*
X98613260Y-96949965D01*
X98576583Y-97043608D01*
X98541311Y-97137052D01*
X98509996Y-97223647D01*
X98485193Y-97296740D01*
X98469454Y-97349678D01*
X98465332Y-97375811D01*
X98465676Y-97376726D01*
X98479641Y-97398086D01*
X98511322Y-97445084D01*
X98557391Y-97512827D01*
X98614518Y-97596423D01*
X98679373Y-97690982D01*
X98697843Y-97717854D01*
X98763699Y-97815275D01*
X98821650Y-97904163D01*
X98868538Y-97979412D01*
X98901207Y-98035920D01*
X98916500Y-98068581D01*
X98917241Y-98072593D01*
X98904392Y-98093684D01*
X98868888Y-98135464D01*
X98815293Y-98193445D01*
X98748171Y-98263135D01*
X98672087Y-98340045D01*
X98591604Y-98419683D01*
X98511287Y-98497561D01*
X98435699Y-98569186D01*
X98369405Y-98630070D01*
X98316969Y-98675721D01*
X98282955Y-98701650D01*
X98273545Y-98705883D01*
X98251643Y-98695912D01*
X98206800Y-98669020D01*
X98146321Y-98629736D01*
X98099789Y-98598117D01*
X98015475Y-98540098D01*
X97915626Y-98471784D01*
X97815473Y-98403579D01*
X97761627Y-98367075D01*
X97579371Y-98243800D01*
X97426381Y-98326520D01*
X97356682Y-98362759D01*
X97297414Y-98390926D01*
X97257311Y-98406991D01*
X97247103Y-98409226D01*
X97234829Y-98392722D01*
X97210613Y-98346082D01*
X97176263Y-98273609D01*
X97133588Y-98179606D01*
X97084394Y-98068374D01*
X97030490Y-97944215D01*
X96973684Y-97811432D01*
X96915782Y-97674327D01*
X96858593Y-97537202D01*
X96803924Y-97404358D01*
X96753584Y-97280098D01*
X96709380Y-97168725D01*
X96673119Y-97074539D01*
X96646609Y-97001844D01*
X96631658Y-96954941D01*
X96629254Y-96938833D01*
X96648311Y-96918286D01*
X96690036Y-96884933D01*
X96745706Y-96845702D01*
X96750378Y-96842599D01*
X96894264Y-96727423D01*
X97010283Y-96593053D01*
X97097430Y-96443784D01*
X97154699Y-96283913D01*
X97181086Y-96117737D01*
X97175585Y-95949552D01*
X97137190Y-95783655D01*
X97064895Y-95624342D01*
X97043626Y-95589487D01*
X96932996Y-95448737D01*
X96802302Y-95335714D01*
X96656064Y-95251003D01*
X96498808Y-95195194D01*
X96335057Y-95168874D01*
X96169333Y-95172630D01*
X96006162Y-95207050D01*
X95850065Y-95272723D01*
X95705567Y-95370235D01*
X95660869Y-95409813D01*
X95547112Y-95533703D01*
X95464218Y-95664124D01*
X95407356Y-95810315D01*
X95375687Y-95955088D01*
X95367869Y-96117860D01*
X95393938Y-96281440D01*
X95451245Y-96440298D01*
X95537144Y-96588906D01*
X95648986Y-96721735D01*
X95784123Y-96833256D01*
X95801883Y-96845011D01*
X95858150Y-96883508D01*
X95900923Y-96916863D01*
X95921372Y-96938160D01*
X95921669Y-96938833D01*
X95917279Y-96961871D01*
X95899876Y-97014157D01*
X95871268Y-97091390D01*
X95833265Y-97189268D01*
X95787674Y-97303491D01*
X95736303Y-97429758D01*
X95680962Y-97563767D01*
X95623458Y-97701218D01*
X95565601Y-97837808D01*
X95509198Y-97969237D01*
X95456058Y-98091205D01*
X95407990Y-98199409D01*
X95366801Y-98289549D01*
X95334301Y-98357323D01*
X95312297Y-98398430D01*
X95303436Y-98409226D01*
X95276360Y-98400819D01*
X95225697Y-98378272D01*
X95160183Y-98345613D01*
X95124159Y-98326520D01*
X94971168Y-98243800D01*
X94788912Y-98367075D01*
X94695875Y-98430228D01*
X94594015Y-98499727D01*
X94498562Y-98565165D01*
X94450750Y-98598117D01*
X94383505Y-98643273D01*
X94326564Y-98679057D01*
X94287354Y-98700938D01*
X94274619Y-98705563D01*
X94256083Y-98693085D01*
X94215059Y-98658252D01*
X94155525Y-98604678D01*
X94081458Y-98535983D01*
X93996835Y-98455781D01*
X93943315Y-98404286D01*
X93849681Y-98312286D01*
X93768759Y-98229999D01*
X93703823Y-98160945D01*
X93658142Y-98108644D01*
X93634989Y-98076616D01*
X93632768Y-98070116D01*
X93643076Y-98045394D01*
X93671561Y-97995405D01*
X93715063Y-97925212D01*
X93770423Y-97839875D01*
X93834480Y-97744456D01*
X93852697Y-97717854D01*
X93919073Y-97621167D01*
X93978622Y-97534117D01*
X94028016Y-97461595D01*
X94063925Y-97408493D01*
X94083019Y-97379703D01*
X94084864Y-97376726D01*
X94082105Y-97353782D01*
X94067462Y-97303336D01*
X94043487Y-97232041D01*
X94012734Y-97146547D01*
X93977756Y-97053507D01*
X93941107Y-96959574D01*
X93905339Y-96871399D01*
X93873006Y-96795634D01*
X93846662Y-96738931D01*
X93828858Y-96707943D01*
X93827593Y-96706457D01*
X93816706Y-96697601D01*
X93798318Y-96688843D01*
X93768394Y-96679277D01*
X93722897Y-96667996D01*
X93657791Y-96654093D01*
X93569039Y-96636663D01*
X93452607Y-96614798D01*
X93304458Y-96587591D01*
X93272382Y-96581741D01*
X93177314Y-96563374D01*
X93094435Y-96545405D01*
X93031070Y-96529569D01*
X92994542Y-96517600D01*
X92989644Y-96514810D01*
X92981573Y-96490072D01*
X92975013Y-96434790D01*
X92969967Y-96355389D01*
X92966441Y-96258296D01*
X92964439Y-96149938D01*
X92963964Y-96036740D01*
X92965023Y-95925128D01*
X92967618Y-95821529D01*
X92971754Y-95732368D01*
X92977437Y-95664072D01*
X92984669Y-95623066D01*
X92989029Y-95614674D01*
X93013302Y-95606208D01*
X93068574Y-95592435D01*
X93149338Y-95574550D01*
X93250088Y-95553748D01*
X93365317Y-95531223D01*
X93428098Y-95519418D01*
X93547213Y-95497151D01*
X93653435Y-95476979D01*
X93741573Y-95459915D01*
X93806434Y-95446969D01*
X93842826Y-95439155D01*
X93848816Y-95437422D01*
X93858939Y-95417890D01*
X93880338Y-95370843D01*
X93910161Y-95303003D01*
X93945555Y-95221091D01*
X93983668Y-95131828D01*
X94021647Y-95041935D01*
X94056640Y-94958135D01*
X94085794Y-94887147D01*
X94106257Y-94835694D01*
X94115177Y-94810497D01*
X94115343Y-94809396D01*
X94105231Y-94789519D01*
X94076883Y-94743777D01*
X94033277Y-94676717D01*
X93977394Y-94592884D01*
X93912213Y-94496826D01*
X93874321Y-94441650D01*
X93805275Y-94340481D01*
X93743950Y-94248630D01*
X93693337Y-94170744D01*
X93656429Y-94111469D01*
X93636218Y-94075451D01*
X93633299Y-94067377D01*
X93645847Y-94048584D01*
X93680537Y-94008457D01*
X93732937Y-93951493D01*
X93798616Y-93882185D01*
X93873144Y-93805031D01*
X93952087Y-93724525D01*
X94031017Y-93645163D01*
X94105500Y-93571440D01*
X94171106Y-93507852D01*
X94223404Y-93458894D01*
X94257961Y-93429061D01*
X94269522Y-93421942D01*
X94288346Y-93431953D01*
X94333369Y-93460078D01*
X94400213Y-93503454D01*
X94484501Y-93559218D01*
X94581856Y-93624506D01*
X94655293Y-93674246D01*
X95026333Y-93926551D01*
X95644905Y-93671555D01*
X95728725Y-93226931D01*
X95812546Y-92782307D01*
X96737994Y-92782307D01*
X96821814Y-93226931D01*
G37*
D14*
X156268200Y-101535000D02*
X153608200Y-101535000D01*
X156268200Y-138425000D02*
X156268200Y-139755000D01*
X156268200Y-137155000D02*
X156268200Y-101535000D01*
X156268200Y-139755000D02*
X154938200Y-139755000D01*
X153608200Y-137155000D02*
X153608200Y-101535000D01*
X156268200Y-137155000D02*
X153608200Y-137155000D01*
X158810000Y-101509600D02*
X156150000Y-101509600D01*
X158810000Y-138399600D02*
X158810000Y-139729600D01*
X158810000Y-137129600D02*
X158810000Y-101509600D01*
X158810000Y-139729600D02*
X157480000Y-139729600D01*
X156150000Y-137129600D02*
X156150000Y-101509600D01*
X158810000Y-137129600D02*
X156150000Y-137129600D01*
X132878000Y-144780000D02*
X132878000Y-145580000D01*
X129758000Y-144780000D02*
X129758000Y-146580000D01*
X129758000Y-144780000D02*
X129758000Y-143980000D01*
X132878000Y-144780000D02*
X132878000Y-143980000D01*
X104750000Y-144647500D02*
X104750000Y-145447500D01*
X101630000Y-144647500D02*
X101630000Y-146447500D01*
X101630000Y-144647500D02*
X101630000Y-143847500D01*
X104750000Y-144647500D02*
X104750000Y-143847500D01*
X131064000Y-134142000D02*
X130264000Y-134142000D01*
X131064000Y-137262000D02*
X130264000Y-137262000D01*
X131064000Y-137262000D02*
X132864000Y-137262000D01*
X131064000Y-134142000D02*
X131864000Y-134142000D01*
X103002500Y-134165500D02*
X102202500Y-134165500D01*
X103002500Y-137285500D02*
X102202500Y-137285500D01*
X103002500Y-137285500D02*
X104802500Y-137285500D01*
X103002500Y-134165500D02*
X103802500Y-134165500D01*
X117600000Y-110871000D02*
X113540000Y-110871000D01*
X110620000Y-113926000D02*
X120520000Y-113926000D01*
X113540000Y-111951000D02*
X114893333Y-111951000D01*
X113540000Y-111711000D02*
X114893333Y-111711000D01*
X113540000Y-110991000D02*
X114893333Y-110991000D01*
X113540000Y-111591000D02*
X114893333Y-111591000D01*
X110620000Y-109086000D02*
X110620000Y-113926000D01*
X113540000Y-111111000D02*
X114893333Y-111111000D01*
X120520000Y-109086000D02*
X120520000Y-113926000D01*
X113540000Y-111831000D02*
X114893333Y-111831000D01*
X117600000Y-112141000D02*
X117600000Y-110871000D01*
X113540000Y-111231000D02*
X114893333Y-111231000D01*
X113540000Y-111471000D02*
X114893333Y-111471000D01*
X113540000Y-112071000D02*
X114893333Y-112071000D01*
X113540000Y-112141000D02*
X117600000Y-112141000D01*
X113540000Y-110871000D02*
X113540000Y-112141000D01*
X113540000Y-111351000D02*
X114893333Y-111351000D01*
X114893333Y-110871000D02*
X114893333Y-112141000D01*
X110380000Y-108846000D02*
X111764000Y-108846000D01*
X110380000Y-108846000D02*
X110380000Y-110229000D01*
X110620000Y-109086000D02*
X120520000Y-109086000D01*
X133860000Y-112141000D02*
X137920000Y-112141000D01*
X140840000Y-109086000D02*
X130940000Y-109086000D01*
X137920000Y-111061000D02*
X136566667Y-111061000D01*
X137920000Y-111301000D02*
X136566667Y-111301000D01*
X137920000Y-112021000D02*
X136566667Y-112021000D01*
X137920000Y-111421000D02*
X136566667Y-111421000D01*
X140840000Y-113926000D02*
X140840000Y-109086000D01*
X137920000Y-111901000D02*
X136566667Y-111901000D01*
X130940000Y-113926000D02*
X130940000Y-109086000D01*
X137920000Y-111181000D02*
X136566667Y-111181000D01*
X133860000Y-110871000D02*
X133860000Y-112141000D01*
X137920000Y-111781000D02*
X136566667Y-111781000D01*
X137920000Y-111541000D02*
X136566667Y-111541000D01*
X137920000Y-110941000D02*
X136566667Y-110941000D01*
X137920000Y-110871000D02*
X133860000Y-110871000D01*
X137920000Y-112141000D02*
X137920000Y-110871000D01*
X137920000Y-111661000D02*
X136566667Y-111661000D01*
X136566667Y-112141000D02*
X136566667Y-110871000D01*
X141080000Y-114166000D02*
X139696000Y-114166000D01*
X141080000Y-114166000D02*
X141080000Y-112783000D01*
X140840000Y-113926000D02*
X130940000Y-113926000D01*
X145920000Y-129928000D02*
X136020000Y-129928000D01*
X146160000Y-130168000D02*
X146160000Y-128785000D01*
X146160000Y-130168000D02*
X144776000Y-130168000D01*
X141646667Y-128143000D02*
X141646667Y-126873000D01*
X143000000Y-127663000D02*
X141646667Y-127663000D01*
X143000000Y-128143000D02*
X143000000Y-126873000D01*
X143000000Y-126873000D02*
X138940000Y-126873000D01*
X143000000Y-126943000D02*
X141646667Y-126943000D01*
X143000000Y-127543000D02*
X141646667Y-127543000D01*
X143000000Y-127783000D02*
X141646667Y-127783000D01*
X138940000Y-126873000D02*
X138940000Y-128143000D01*
X143000000Y-127183000D02*
X141646667Y-127183000D01*
X136020000Y-129928000D02*
X136020000Y-125088000D01*
X143000000Y-127903000D02*
X141646667Y-127903000D01*
X145920000Y-129928000D02*
X145920000Y-125088000D01*
X143000000Y-127423000D02*
X141646667Y-127423000D01*
X143000000Y-128023000D02*
X141646667Y-128023000D01*
X143000000Y-127303000D02*
X141646667Y-127303000D01*
X143000000Y-127063000D02*
X141646667Y-127063000D01*
X145920000Y-125088000D02*
X136020000Y-125088000D01*
X138940000Y-128143000D02*
X143000000Y-128143000D01*
X117980000Y-130182000D02*
X108080000Y-130182000D01*
X118220000Y-130422000D02*
X118220000Y-129039000D01*
X118220000Y-130422000D02*
X116836000Y-130422000D01*
X113706667Y-128397000D02*
X113706667Y-127127000D01*
X115060000Y-127917000D02*
X113706667Y-127917000D01*
X115060000Y-128397000D02*
X115060000Y-127127000D01*
X115060000Y-127127000D02*
X111000000Y-127127000D01*
X115060000Y-127197000D02*
X113706667Y-127197000D01*
X115060000Y-127797000D02*
X113706667Y-127797000D01*
X115060000Y-128037000D02*
X113706667Y-128037000D01*
X111000000Y-127127000D02*
X111000000Y-128397000D01*
X115060000Y-127437000D02*
X113706667Y-127437000D01*
X108080000Y-130182000D02*
X108080000Y-125342000D01*
X115060000Y-128157000D02*
X113706667Y-128157000D01*
X117980000Y-130182000D02*
X117980000Y-125342000D01*
X115060000Y-127677000D02*
X113706667Y-127677000D01*
X115060000Y-128277000D02*
X113706667Y-128277000D01*
X115060000Y-127557000D02*
X113706667Y-127557000D01*
X115060000Y-127317000D02*
X113706667Y-127317000D01*
X117980000Y-125342000D02*
X108080000Y-125342000D01*
X111000000Y-128397000D02*
X115060000Y-128397000D01*
X115164776Y-116317500D02*
X115674224Y-116317500D01*
X115164776Y-117362500D02*
X115674224Y-117362500D01*
X136248224Y-116317500D02*
X135738776Y-116317500D01*
X136248224Y-117362500D02*
X135738776Y-117362500D01*
X128348121Y-147954000D02*
X128012879Y-147954000D01*
X128348121Y-147194000D02*
X128012879Y-147194000D01*
X100408121Y-147954000D02*
X100072879Y-147954000D01*
X100408121Y-147194000D02*
X100072879Y-147194000D01*
X132714000Y-141137621D02*
X132714000Y-140802379D01*
X131954000Y-141137621D02*
X131954000Y-140802379D01*
X131142121Y-138304000D02*
X130806879Y-138304000D01*
X131142121Y-139064000D02*
X130806879Y-139064000D01*
X103924500Y-140719121D02*
X103924500Y-140383879D01*
X104684500Y-140719121D02*
X104684500Y-140383879D01*
X102948121Y-139064000D02*
X102612879Y-139064000D01*
X102948121Y-138304000D02*
X102612879Y-138304000D01*
X130044879Y-133222000D02*
X130380121Y-133222000D01*
X130044879Y-132462000D02*
X130380121Y-132462000D01*
X102162379Y-133311500D02*
X102497621Y-133311500D01*
X102162379Y-132551500D02*
X102497621Y-132551500D01*
X135155000Y-133138936D02*
X135155000Y-133593064D01*
X136625000Y-133138936D02*
X136625000Y-133593064D01*
X107215000Y-133106936D02*
X107215000Y-133561064D01*
X108685000Y-133106936D02*
X108685000Y-133561064D01*
X95564000Y-137160000D02*
X92904000Y-137160000D01*
X92904000Y-137160000D02*
X92904000Y-101540000D01*
X95564000Y-139760000D02*
X94234000Y-139760000D01*
X95564000Y-137160000D02*
X95564000Y-101540000D01*
X95564000Y-138430000D02*
X95564000Y-139760000D01*
X95564000Y-101540000D02*
X92904000Y-101540000D01*
X93024000Y-137160000D02*
X90364000Y-137160000D01*
X90364000Y-137160000D02*
X90364000Y-101540000D01*
X93024000Y-139760000D02*
X91694000Y-139760000D01*
X93024000Y-137160000D02*
X93024000Y-101540000D01*
X93024000Y-138430000D02*
X93024000Y-139760000D01*
X93024000Y-101540000D02*
X90364000Y-101540000D01*
X111760000Y-91386000D02*
X112760000Y-92386000D01*
X119260000Y-106186000D02*
X104260000Y-106186000D01*
X104260000Y-106186000D02*
X104260000Y-91186000D01*
X111760000Y-91386000D02*
X110760000Y-92386000D01*
X104260000Y-91186000D02*
X119260000Y-91186000D01*
X119260000Y-91186000D02*
X119260000Y-106186000D01*
X139700000Y-91640000D02*
X140700000Y-92640000D01*
X147200000Y-106440000D02*
X132200000Y-106440000D01*
X132200000Y-106440000D02*
X132200000Y-91440000D01*
X139700000Y-91640000D02*
X138700000Y-92640000D01*
X132200000Y-91440000D02*
X147200000Y-91440000D01*
X147200000Y-91440000D02*
X147200000Y-106440000D01*
X137280000Y-152400000D02*
X137280000Y-137400000D01*
X152280000Y-152400000D02*
X137280000Y-152400000D01*
X144780000Y-152200000D02*
X145780000Y-151200000D01*
X152280000Y-137400000D02*
X152280000Y-152400000D01*
X137280000Y-137400000D02*
X152280000Y-137400000D01*
X144780000Y-152200000D02*
X143780000Y-151200000D01*
X116840000Y-152200000D02*
X115840000Y-151200000D01*
X109340000Y-137400000D02*
X124340000Y-137400000D01*
X124340000Y-137400000D02*
X124340000Y-152400000D01*
X116840000Y-152200000D02*
X117840000Y-151200000D01*
X124340000Y-152400000D02*
X109340000Y-152400000D01*
X109340000Y-152400000D02*
X109340000Y-137400000D01*
X128780000Y-144279233D02*
X128780000Y-144571767D01*
X127760000Y-144279233D02*
X127760000Y-144571767D01*
X100840000Y-144226233D02*
X100840000Y-144518767D01*
X99820000Y-144226233D02*
X99820000Y-144518767D01*
X132087233Y-147826000D02*
X132379767Y-147826000D01*
X132087233Y-148846000D02*
X132379767Y-148846000D01*
X103891033Y-147572000D02*
X104183567Y-147572000D01*
X103891033Y-148592000D02*
X104183567Y-148592000D01*
X128272000Y-135882767D02*
X128272000Y-135590233D01*
X127252000Y-135882767D02*
X127252000Y-135590233D01*
X99312000Y-135882767D02*
X99312000Y-135590233D01*
X100332000Y-135882767D02*
X100332000Y-135590233D01*
X134876000Y-136860233D02*
X134876000Y-137152767D01*
X133856000Y-136860233D02*
X133856000Y-137152767D01*
X106682000Y-136860233D02*
X106682000Y-137152767D01*
X105662000Y-136860233D02*
X105662000Y-137152767D01*
X145980000Y-132234000D02*
X138740000Y-132234000D01*
X145980000Y-134974000D02*
X138740000Y-134974000D01*
X145980000Y-134974000D02*
X145980000Y-132234000D01*
X138740000Y-134974000D02*
X138740000Y-132234000D01*
X110800000Y-134974000D02*
X110800000Y-132234000D01*
X118040000Y-134974000D02*
X118040000Y-132234000D01*
X118040000Y-134974000D02*
X110800000Y-134974000D01*
X118040000Y-132234000D02*
X110800000Y-132234000D01*
%LPC*%
D15*
X154938200Y-138425000D03*
D16*
X154938200Y-135885000D03*
X154938200Y-133345000D03*
X154938200Y-130805000D03*
X154938200Y-128265000D03*
X154938200Y-125725000D03*
X154938200Y-123185000D03*
X154938200Y-120645000D03*
X154938200Y-118105000D03*
X154938200Y-115565000D03*
X154938200Y-113025000D03*
X154938200Y-110485000D03*
X154938200Y-107945000D03*
X154938200Y-105405000D03*
X154938200Y-102865000D03*
D15*
X157480000Y-138399600D03*
D16*
X157480000Y-135859600D03*
X157480000Y-133319600D03*
X157480000Y-130779600D03*
X157480000Y-128239600D03*
X157480000Y-125699600D03*
X157480000Y-123159600D03*
X157480000Y-120619600D03*
X157480000Y-118079600D03*
X157480000Y-115539600D03*
X157480000Y-112999600D03*
X157480000Y-110459600D03*
X157480000Y-107919600D03*
X157480000Y-105379600D03*
X157480000Y-102839600D03*
D17*
X130368000Y-145917500D03*
X131318000Y-145917500D03*
X132268000Y-145917500D03*
X132268000Y-143642500D03*
X130368000Y-143642500D03*
X102240000Y-145785000D03*
X103190000Y-145785000D03*
X104140000Y-145785000D03*
X104140000Y-143510000D03*
X102240000Y-143510000D03*
D18*
X129926500Y-136652000D03*
X129926500Y-134752000D03*
X132201500Y-134752000D03*
X132201500Y-135702000D03*
X132201500Y-136652000D03*
X101865000Y-136675500D03*
X101865000Y-134775500D03*
X104140000Y-134775500D03*
X104140000Y-135725500D03*
X104140000Y-136675500D03*
D19*
X111760000Y-111506000D03*
D20*
X119380000Y-111506000D03*
D19*
X139700000Y-111506000D03*
D20*
X132080000Y-111506000D03*
X137160000Y-127508000D03*
D19*
X144780000Y-127508000D03*
D20*
X109220000Y-127762000D03*
D19*
X116840000Y-127762000D03*
D21*
X114507000Y-116840000D03*
X116332000Y-116840000D03*
D22*
X135081000Y-116840000D03*
X136906000Y-116840000D03*
D23*
X128778000Y-147574000D03*
X127583000Y-147574000D03*
X100838000Y-147574000D03*
X99643000Y-147574000D03*
D24*
X132334000Y-140372500D03*
X132334000Y-141567500D03*
D23*
X130377000Y-138684000D03*
X131572000Y-138684000D03*
D24*
X104304500Y-141149000D03*
X104304500Y-139954000D03*
D23*
X103378000Y-138684000D03*
X102183000Y-138684000D03*
D25*
X130810000Y-132842000D03*
X129615000Y-132842000D03*
X102927500Y-132931500D03*
X101732500Y-132931500D03*
D26*
X135890000Y-134366000D03*
X135890000Y-132366000D03*
X107950000Y-134334000D03*
X107950000Y-132334000D03*
D16*
X94234000Y-102870000D03*
X94234000Y-105410000D03*
X94234000Y-107950000D03*
X94234000Y-110490000D03*
X94234000Y-113030000D03*
X94234000Y-115570000D03*
X94234000Y-118110000D03*
X94234000Y-120650000D03*
X94234000Y-123190000D03*
X94234000Y-125730000D03*
X94234000Y-128270000D03*
X94234000Y-130810000D03*
X94234000Y-133350000D03*
X94234000Y-135890000D03*
D15*
X94234000Y-138430000D03*
D16*
X91694000Y-102870000D03*
X91694000Y-105410000D03*
X91694000Y-107950000D03*
X91694000Y-110490000D03*
X91694000Y-113030000D03*
X91694000Y-115570000D03*
X91694000Y-118110000D03*
X91694000Y-120650000D03*
X91694000Y-123190000D03*
X91694000Y-125730000D03*
X91694000Y-128270000D03*
X91694000Y-130810000D03*
X91694000Y-133350000D03*
X91694000Y-135890000D03*
D15*
X91694000Y-138430000D03*
D27*
X111760000Y-103886000D03*
D28*
X116840000Y-98806000D03*
X106680000Y-98806000D03*
D27*
X109220000Y-103886000D03*
X139700000Y-104140000D03*
D28*
X144780000Y-99060000D03*
X134620000Y-99060000D03*
D27*
X137160000Y-104140000D03*
X147320000Y-139700000D03*
D28*
X149860000Y-144780000D03*
X139700000Y-144780000D03*
D27*
X144780000Y-139700000D03*
X116840000Y-139700000D03*
D28*
X111760000Y-144780000D03*
X121920000Y-144780000D03*
D27*
X119380000Y-139700000D03*
D29*
X128270000Y-143563000D03*
X128270000Y-145288000D03*
X100330000Y-143510000D03*
X100330000Y-145235000D03*
D30*
X131371000Y-148336000D03*
X133096000Y-148336000D03*
X103174800Y-148082000D03*
X104899800Y-148082000D03*
D31*
X127762000Y-134874000D03*
X127762000Y-136599000D03*
X99822000Y-136599000D03*
X99822000Y-134874000D03*
D29*
X134366000Y-136144000D03*
X134366000Y-137869000D03*
X106172000Y-136144000D03*
X106172000Y-137869000D03*
D32*
X144860000Y-133604000D03*
X139860000Y-133604000D03*
X111920000Y-133604000D03*
X116920000Y-133604000D03*
%LPD*%
M02*
